G04 #@! TF.GenerationSoftware,KiCad,Pcbnew,(5.1.4)-1*
G04 #@! TF.CreationDate,2021-08-26T02:32:56-07:00*
G04 #@! TF.ProjectId,dboard,64626f61-7264-42e6-9b69-6361645f7063,rev?*
G04 #@! TF.SameCoordinates,Original*
G04 #@! TF.FileFunction,Profile,NP*
%FSLAX46Y46*%
G04 Gerber Fmt 4.6, Leading zero omitted, Abs format (unit mm)*
G04 Created by KiCad (PCBNEW (5.1.4)-1) date 2021-08-26 02:32:56*
%MOMM*%
%LPD*%
G04 APERTURE LIST*
%ADD10C,0.150000*%
%ADD11C,0.120000*%
G04 APERTURE END LIST*
D10*
X16000000Y-9500000D02*
G75*
G02X14000000Y-11500000I-2000000J0D01*
G01*
D11*
X14000000Y0D02*
G75*
G02X16000000Y-2000000I0J-2000000D01*
G01*
D10*
X-25500000Y-11500000D02*
G75*
G02X-27500000Y-9500000I0J2000000D01*
G01*
X-27500000Y-2000000D02*
G75*
G02X-25500000Y0I2000000J0D01*
G01*
X14000000Y0D02*
X4550000Y0D01*
X16000000Y-9500000D02*
X16000000Y-2000000D01*
X-25500000Y-11500000D02*
X14000000Y-11500000D01*
X-27500000Y-2000000D02*
X-27500000Y-9500000D01*
X-4550000Y0D02*
X-25500000Y0D01*
X-4550000Y-5000000D02*
X-4550000Y0D01*
X4550000Y-5000000D02*
X4550000Y0D01*
X-3700000Y-6000000D02*
X-4550000Y-6000000D01*
X-3200000Y-6500000D02*
X-3200000Y-6600000D01*
X-4550000Y-5000000D02*
G75*
G03X-4550000Y-6000000I0J-500000D01*
G01*
X-2200000Y-6600000D02*
X2200000Y-6600000D01*
X-3200000Y-6600000D02*
G75*
G03X-2200000Y-6600000I500000J0D01*
G01*
X2200000Y-6600000D02*
G75*
G03X3200000Y-6600000I500000J0D01*
G01*
X3200000Y-6600000D02*
X3200000Y-6500000D01*
X3700000Y-6000000D02*
X4550000Y-6000000D01*
X4550000Y-6000000D02*
G75*
G03X4550000Y-5000000I0J500000D01*
G01*
X3700000Y-6000000D02*
G75*
G03X3200000Y-6500000I0J-500000D01*
G01*
X-3200000Y-6500000D02*
G75*
G03X-3700000Y-6000000I-500000J0D01*
G01*
M02*
