M48
; DRILL file {KiCad (5.1.4)-1} date 1/1/2021 5:19:51 AM
; FORMAT={-:-/ absolute / inch / decimal}
; #@! TF.CreationDate,2021-01-01T05:19:51-08:00
; #@! TF.GenerationSoftware,Kicad,Pcbnew,(5.1.4)-1
; #@! TF.FileFunction,NonPlated,1,2,NPTH
FMAT,2
INCH
T1C0.0256
T2C0.0315
T3C0.0454
%
G90
G05
T1
X-0.1138Y-0.2461
X0.1138Y-0.2461
X-0.1138Y-0.6988
X0.1138Y-0.6988
T2
X-0.5768Y-0.5118
X-0.5335Y-0.5118
X-0.4902Y-0.5118
X-0.4469Y-0.5118
X0.4469Y-0.4331
X0.4902Y-0.4331
X0.5335Y-0.4331
X0.5768Y-0.4331
X-0.5768Y-0.4331
X-0.5335Y-0.4331
X-0.4902Y-0.4331
X-0.4469Y-0.4331
X0.4469Y-0.5118
X0.4902Y-0.5118
X0.5335Y-0.5118
X0.5768Y-0.5118
T3
X0.748Y-0.0591
X-0.7677Y-0.8661
X-0.9055Y-0.0591
X0.9055Y-0.8858
T0
M30
