G04 #@! TF.GenerationSoftware,KiCad,Pcbnew,(5.1.4)-1*
G04 #@! TF.CreationDate,2021-01-01T05:19:50-08:00*
G04 #@! TF.ProjectId,dboard,64626f61-7264-42e6-9b69-6361645f7063,rev?*
G04 #@! TF.SameCoordinates,Original*
G04 #@! TF.FileFunction,Legend,Bot*
G04 #@! TF.FilePolarity,Positive*
%FSLAX46Y46*%
G04 Gerber Fmt 4.6, Leading zero omitted, Abs format (unit mm)*
G04 Created by KiCad (PCBNEW (5.1.4)-1) date 2021-01-01 05:19:50*
%MOMM*%
%LPD*%
G04 APERTURE LIST*
%ADD10C,0.120000*%
%ADD11C,0.150000*%
G04 APERTURE END LIST*
D10*
X-5877500Y-16162779D02*
X-5877500Y-15837221D01*
X-6897500Y-16162779D02*
X-6897500Y-15837221D01*
X10490000Y-15935000D02*
X10490000Y-18435000D01*
X10490000Y-18435000D02*
X11540000Y-18435000D01*
X11540000Y-18435000D02*
X11540000Y-19425000D01*
X16710000Y-15935000D02*
X16710000Y-18435000D01*
X16710000Y-18435000D02*
X15660000Y-18435000D01*
X11660000Y-13965000D02*
X15540000Y-13965000D01*
X7490000Y-16302064D02*
X7490000Y-15097936D01*
X9310000Y-16302064D02*
X9310000Y-15097936D01*
X-9310000Y-20721078D02*
X-9310000Y-20203922D01*
X-7890000Y-20721078D02*
X-7890000Y-20203922D01*
X-8397500Y-16162779D02*
X-8397500Y-15837221D01*
X-7377500Y-16162779D02*
X-7377500Y-15837221D01*
X-7297500Y-20602064D02*
X-7297500Y-19397936D01*
X-5477500Y-20602064D02*
X-5477500Y-19397936D01*
X8600000Y-21510000D02*
X6150000Y-21510000D01*
X6800000Y-18290000D02*
X8600000Y-18290000D01*
X-11660000Y-10035000D02*
X-15540000Y-10035000D01*
X-16710000Y-5565000D02*
X-15660000Y-5565000D01*
X-16710000Y-8065000D02*
X-16710000Y-5565000D01*
X-11540000Y-5565000D02*
X-11540000Y-4575000D01*
X-10490000Y-5565000D02*
X-11540000Y-5565000D01*
X-10490000Y-8065000D02*
X-10490000Y-5565000D01*
X-8600000Y-2490000D02*
X-6150000Y-2490000D01*
X-6800000Y-5710000D02*
X-8600000Y-5710000D01*
X5477500Y-3397936D02*
X5477500Y-4602064D01*
X7297500Y-3397936D02*
X7297500Y-4602064D01*
X5877500Y-7837221D02*
X5877500Y-8162779D01*
X6897500Y-7837221D02*
X6897500Y-8162779D01*
X7377500Y-7837221D02*
X7377500Y-8162779D01*
X8397500Y-7837221D02*
X8397500Y-8162779D01*
X-7490000Y-7697936D02*
X-7490000Y-8902064D01*
X-9310000Y-7697936D02*
X-9310000Y-8902064D01*
X9310000Y-3278922D02*
X9310000Y-3796078D01*
X7890000Y-3278922D02*
X7890000Y-3796078D01*
D11*
X-5933333Y-14452380D02*
X-5600000Y-13976190D01*
X-5361904Y-14452380D02*
X-5361904Y-13452380D01*
X-5742857Y-13452380D01*
X-5838095Y-13500000D01*
X-5885714Y-13547619D01*
X-5933333Y-13642857D01*
X-5933333Y-13785714D01*
X-5885714Y-13880952D01*
X-5838095Y-13928571D01*
X-5742857Y-13976190D01*
X-5361904Y-13976190D01*
X-6838095Y-13452380D02*
X-6361904Y-13452380D01*
X-6314285Y-13928571D01*
X-6361904Y-13880952D01*
X-6457142Y-13833333D01*
X-6695238Y-13833333D01*
X-6790476Y-13880952D01*
X-6838095Y-13928571D01*
X-6885714Y-14023809D01*
X-6885714Y-14261904D01*
X-6838095Y-14357142D01*
X-6790476Y-14404761D01*
X-6695238Y-14452380D01*
X-6457142Y-14452380D01*
X-6361904Y-14404761D01*
X-6314285Y-14357142D01*
X13933333Y-20082380D02*
X13933333Y-20796666D01*
X13980952Y-20939523D01*
X14076190Y-21034761D01*
X14219047Y-21082380D01*
X14314285Y-21082380D01*
X13504761Y-20177619D02*
X13457142Y-20130000D01*
X13361904Y-20082380D01*
X13123809Y-20082380D01*
X13028571Y-20130000D01*
X12980952Y-20177619D01*
X12933333Y-20272857D01*
X12933333Y-20368095D01*
X12980952Y-20510952D01*
X13552380Y-21082380D01*
X12933333Y-21082380D01*
X10553333Y-15628571D02*
X10886666Y-15628571D01*
X10886666Y-16152380D02*
X10886666Y-15152380D01*
X10410476Y-15152380D01*
X10077142Y-15247619D02*
X10029523Y-15200000D01*
X9934285Y-15152380D01*
X9696190Y-15152380D01*
X9600952Y-15200000D01*
X9553333Y-15247619D01*
X9505714Y-15342857D01*
X9505714Y-15438095D01*
X9553333Y-15580952D01*
X10124761Y-16152380D01*
X9505714Y-16152380D01*
X-8433333Y-23257142D02*
X-8385714Y-23304761D01*
X-8242857Y-23352380D01*
X-8147619Y-23352380D01*
X-8004761Y-23304761D01*
X-7909523Y-23209523D01*
X-7861904Y-23114285D01*
X-7814285Y-22923809D01*
X-7814285Y-22780952D01*
X-7861904Y-22590476D01*
X-7909523Y-22495238D01*
X-8004761Y-22400000D01*
X-8147619Y-22352380D01*
X-8242857Y-22352380D01*
X-8385714Y-22400000D01*
X-8433333Y-22447619D01*
X-8814285Y-22447619D02*
X-8861904Y-22400000D01*
X-8957142Y-22352380D01*
X-9195238Y-22352380D01*
X-9290476Y-22400000D01*
X-9338095Y-22447619D01*
X-9385714Y-22542857D01*
X-9385714Y-22638095D01*
X-9338095Y-22780952D01*
X-8766666Y-23352380D01*
X-9385714Y-23352380D01*
X-7933333Y-14452380D02*
X-7600000Y-13976190D01*
X-7361904Y-14452380D02*
X-7361904Y-13452380D01*
X-7742857Y-13452380D01*
X-7838095Y-13500000D01*
X-7885714Y-13547619D01*
X-7933333Y-13642857D01*
X-7933333Y-13785714D01*
X-7885714Y-13880952D01*
X-7838095Y-13928571D01*
X-7742857Y-13976190D01*
X-7361904Y-13976190D01*
X-8790476Y-13785714D02*
X-8790476Y-14452380D01*
X-8552380Y-13404761D02*
X-8314285Y-14119047D01*
X-8933333Y-14119047D01*
X1738095Y-22452380D02*
X1738095Y-23261904D01*
X1690476Y-23357142D01*
X1642857Y-23404761D01*
X1547619Y-23452380D01*
X1357142Y-23452380D01*
X1261904Y-23404761D01*
X1214285Y-23357142D01*
X1166666Y-23261904D01*
X1166666Y-22452380D01*
X738095Y-23404761D02*
X595238Y-23452380D01*
X357142Y-23452380D01*
X261904Y-23404761D01*
X214285Y-23357142D01*
X166666Y-23261904D01*
X166666Y-23166666D01*
X214285Y-23071428D01*
X261904Y-23023809D01*
X357142Y-22976190D01*
X547619Y-22928571D01*
X642857Y-22880952D01*
X690476Y-22833333D01*
X738095Y-22738095D01*
X738095Y-22642857D01*
X690476Y-22547619D01*
X642857Y-22500000D01*
X547619Y-22452380D01*
X309523Y-22452380D01*
X166666Y-22500000D01*
X-595238Y-22928571D02*
X-738095Y-22976190D01*
X-785714Y-23023809D01*
X-833333Y-23119047D01*
X-833333Y-23261904D01*
X-785714Y-23357142D01*
X-738095Y-23404761D01*
X-642857Y-23452380D01*
X-261904Y-23452380D01*
X-261904Y-22452380D01*
X-595238Y-22452380D01*
X-690476Y-22500000D01*
X-738095Y-22547619D01*
X-785714Y-22642857D01*
X-785714Y-22738095D01*
X-738095Y-22833333D01*
X-690476Y-22880952D01*
X-595238Y-22928571D01*
X-261904Y-22928571D01*
X-1214285Y-22547619D02*
X-1261904Y-22500000D01*
X-1357142Y-22452380D01*
X-1595238Y-22452380D01*
X-1690476Y-22500000D01*
X-1738095Y-22547619D01*
X-1785714Y-22642857D01*
X-1785714Y-22738095D01*
X-1738095Y-22880952D01*
X-1166666Y-23452380D01*
X-1785714Y-23452380D01*
X-6233333Y-23352380D02*
X-5900000Y-22876190D01*
X-5661904Y-23352380D02*
X-5661904Y-22352380D01*
X-6042857Y-22352380D01*
X-6138095Y-22400000D01*
X-6185714Y-22447619D01*
X-6233333Y-22542857D01*
X-6233333Y-22685714D01*
X-6185714Y-22780952D01*
X-6138095Y-22828571D01*
X-6042857Y-22876190D01*
X-5661904Y-22876190D01*
X-7090476Y-22352380D02*
X-6899999Y-22352380D01*
X-6804761Y-22400000D01*
X-6757142Y-22447619D01*
X-6661904Y-22590476D01*
X-6614285Y-22780952D01*
X-6614285Y-23161904D01*
X-6661904Y-23257142D01*
X-6709523Y-23304761D01*
X-6804761Y-23352380D01*
X-6995238Y-23352380D01*
X-7090476Y-23304761D01*
X-7138095Y-23257142D01*
X-7185714Y-23161904D01*
X-7185714Y-22923809D01*
X-7138095Y-22828571D01*
X-7090476Y-22780952D01*
X-6995238Y-22733333D01*
X-6804761Y-22733333D01*
X-6709523Y-22780952D01*
X-6661904Y-22828571D01*
X-6614285Y-22923809D01*
X8461904Y-21952380D02*
X8461904Y-22761904D01*
X8414285Y-22857142D01*
X8366666Y-22904761D01*
X8271428Y-22952380D01*
X8080952Y-22952380D01*
X7985714Y-22904761D01*
X7938095Y-22857142D01*
X7890476Y-22761904D01*
X7890476Y-21952380D01*
X7461904Y-22047619D02*
X7414285Y-22000000D01*
X7319047Y-21952380D01*
X7080952Y-21952380D01*
X6985714Y-22000000D01*
X6938095Y-22047619D01*
X6890476Y-22142857D01*
X6890476Y-22238095D01*
X6938095Y-22380952D01*
X7509523Y-22952380D01*
X6890476Y-22952380D01*
X3695238Y-4061904D02*
X3695238Y-4633333D01*
X3733333Y-4747619D01*
X3809523Y-4823809D01*
X3923809Y-4861904D01*
X4000000Y-4861904D01*
X2933333Y-4861904D02*
X3314285Y-4861904D01*
X3314285Y-4061904D01*
X2209523Y-4785714D02*
X2247619Y-4823809D01*
X2361904Y-4861904D01*
X2438095Y-4861904D01*
X2552380Y-4823809D01*
X2628571Y-4747619D01*
X2666666Y-4671428D01*
X2704761Y-4519047D01*
X2704761Y-4404761D01*
X2666666Y-4252380D01*
X2628571Y-4176190D01*
X2552380Y-4100000D01*
X2438095Y-4061904D01*
X2361904Y-4061904D01*
X2247619Y-4100000D01*
X2209523Y-4138095D01*
X1638095Y-4061904D02*
X1638095Y-4633333D01*
X1676190Y-4747619D01*
X1752380Y-4823809D01*
X1866666Y-4861904D01*
X1942857Y-4861904D01*
X876190Y-4861904D02*
X1257142Y-4861904D01*
X1257142Y-4061904D01*
X152380Y-4785714D02*
X190476Y-4823809D01*
X304761Y-4861904D01*
X380952Y-4861904D01*
X495238Y-4823809D01*
X571428Y-4747619D01*
X609523Y-4671428D01*
X647619Y-4519047D01*
X647619Y-4404761D01*
X609523Y-4252380D01*
X571428Y-4176190D01*
X495238Y-4100000D01*
X380952Y-4061904D01*
X304761Y-4061904D01*
X190476Y-4100000D01*
X152380Y-4138095D01*
X-419047Y-4061904D02*
X-419047Y-4633333D01*
X-380952Y-4747619D01*
X-304761Y-4823809D01*
X-190476Y-4861904D01*
X-114285Y-4861904D01*
X-1180952Y-4861904D02*
X-800000Y-4861904D01*
X-800000Y-4061904D01*
X-1904761Y-4785714D02*
X-1866666Y-4823809D01*
X-1752380Y-4861904D01*
X-1676190Y-4861904D01*
X-1561904Y-4823809D01*
X-1485714Y-4747619D01*
X-1447619Y-4671428D01*
X-1409523Y-4519047D01*
X-1409523Y-4404761D01*
X-1447619Y-4252380D01*
X-1485714Y-4176190D01*
X-1561904Y-4100000D01*
X-1676190Y-4061904D01*
X-1752380Y-4061904D01*
X-1866666Y-4100000D01*
X-1904761Y-4138095D01*
X-2476190Y-4061904D02*
X-2476190Y-4633333D01*
X-2438095Y-4747619D01*
X-2361904Y-4823809D01*
X-2247619Y-4861904D01*
X-2171428Y-4861904D01*
X-3238095Y-4861904D02*
X-2857142Y-4861904D01*
X-2857142Y-4061904D01*
X-3961904Y-4785714D02*
X-3923809Y-4823809D01*
X-3809523Y-4861904D01*
X-3733333Y-4861904D01*
X-3619047Y-4823809D01*
X-3542857Y-4747619D01*
X-3504761Y-4671428D01*
X-3466666Y-4519047D01*
X-3466666Y-4404761D01*
X-3504761Y-4252380D01*
X-3542857Y-4176190D01*
X-3619047Y-4100000D01*
X-3733333Y-4061904D01*
X-3809523Y-4061904D01*
X-3923809Y-4100000D01*
X-3961904Y-4138095D01*
X-13266666Y-2822380D02*
X-13266666Y-3536666D01*
X-13219047Y-3679523D01*
X-13123809Y-3774761D01*
X-12980952Y-3822380D01*
X-12885714Y-3822380D01*
X-14266666Y-3822380D02*
X-13695238Y-3822380D01*
X-13980952Y-3822380D02*
X-13980952Y-2822380D01*
X-13885714Y-2965238D01*
X-13790476Y-3060476D01*
X-13695238Y-3108095D01*
X1738095Y-552380D02*
X1738095Y-1361904D01*
X1690476Y-1457142D01*
X1642857Y-1504761D01*
X1547619Y-1552380D01*
X1357142Y-1552380D01*
X1261904Y-1504761D01*
X1214285Y-1457142D01*
X1166666Y-1361904D01*
X1166666Y-552380D01*
X738095Y-1504761D02*
X595238Y-1552380D01*
X357142Y-1552380D01*
X261904Y-1504761D01*
X214285Y-1457142D01*
X166666Y-1361904D01*
X166666Y-1266666D01*
X214285Y-1171428D01*
X261904Y-1123809D01*
X357142Y-1076190D01*
X547619Y-1028571D01*
X642857Y-980952D01*
X690476Y-933333D01*
X738095Y-838095D01*
X738095Y-742857D01*
X690476Y-647619D01*
X642857Y-600000D01*
X547619Y-552380D01*
X309523Y-552380D01*
X166666Y-600000D01*
X-595238Y-1028571D02*
X-738095Y-1076190D01*
X-785714Y-1123809D01*
X-833333Y-1219047D01*
X-833333Y-1361904D01*
X-785714Y-1457142D01*
X-738095Y-1504761D01*
X-642857Y-1552380D01*
X-261904Y-1552380D01*
X-261904Y-552380D01*
X-595238Y-552380D01*
X-690476Y-600000D01*
X-738095Y-647619D01*
X-785714Y-742857D01*
X-785714Y-838095D01*
X-738095Y-933333D01*
X-690476Y-980952D01*
X-595238Y-1028571D01*
X-261904Y-1028571D01*
X-1785714Y-1552380D02*
X-1214285Y-1552380D01*
X-1500000Y-1552380D02*
X-1500000Y-552380D01*
X-1404761Y-695238D01*
X-1309523Y-790476D01*
X-1214285Y-838095D01*
X-6938095Y-1152380D02*
X-6938095Y-1961904D01*
X-6985714Y-2057142D01*
X-7033333Y-2104761D01*
X-7128571Y-2152380D01*
X-7319047Y-2152380D01*
X-7414285Y-2104761D01*
X-7461904Y-2057142D01*
X-7509523Y-1961904D01*
X-7509523Y-1152380D01*
X-8509523Y-2152380D02*
X-7938095Y-2152380D01*
X-8223809Y-2152380D02*
X-8223809Y-1152380D01*
X-8128571Y-1295238D01*
X-8033333Y-1390476D01*
X-7938095Y-1438095D01*
X6566666Y-1652380D02*
X6900000Y-1176190D01*
X7138095Y-1652380D02*
X7138095Y-652380D01*
X6757142Y-652380D01*
X6661904Y-700000D01*
X6614285Y-747619D01*
X6566666Y-842857D01*
X6566666Y-985714D01*
X6614285Y-1080952D01*
X6661904Y-1128571D01*
X6757142Y-1176190D01*
X7138095Y-1176190D01*
X6233333Y-652380D02*
X5614285Y-652380D01*
X5947619Y-1033333D01*
X5804761Y-1033333D01*
X5709523Y-1080952D01*
X5661904Y-1128571D01*
X5614285Y-1223809D01*
X5614285Y-1461904D01*
X5661904Y-1557142D01*
X5709523Y-1604761D01*
X5804761Y-1652380D01*
X6090476Y-1652380D01*
X6185714Y-1604761D01*
X6233333Y-1557142D01*
X6266666Y-10552380D02*
X6600000Y-10076190D01*
X6838095Y-10552380D02*
X6838095Y-9552380D01*
X6457142Y-9552380D01*
X6361904Y-9600000D01*
X6314285Y-9647619D01*
X6266666Y-9742857D01*
X6266666Y-9885714D01*
X6314285Y-9980952D01*
X6361904Y-10028571D01*
X6457142Y-10076190D01*
X6838095Y-10076190D01*
X5885714Y-9647619D02*
X5838095Y-9600000D01*
X5742857Y-9552380D01*
X5504761Y-9552380D01*
X5409523Y-9600000D01*
X5361904Y-9647619D01*
X5314285Y-9742857D01*
X5314285Y-9838095D01*
X5361904Y-9980952D01*
X5933333Y-10552380D01*
X5314285Y-10552380D01*
X8266666Y-10552380D02*
X8600000Y-10076190D01*
X8838095Y-10552380D02*
X8838095Y-9552380D01*
X8457142Y-9552380D01*
X8361904Y-9600000D01*
X8314285Y-9647619D01*
X8266666Y-9742857D01*
X8266666Y-9885714D01*
X8314285Y-9980952D01*
X8361904Y-10028571D01*
X8457142Y-10076190D01*
X8838095Y-10076190D01*
X7314285Y-10552380D02*
X7885714Y-10552380D01*
X7600000Y-10552380D02*
X7600000Y-9552380D01*
X7695238Y-9695238D01*
X7790476Y-9790476D01*
X7885714Y-9838095D01*
X-6166666Y-8228571D02*
X-5833333Y-8228571D01*
X-5833333Y-8752380D02*
X-5833333Y-7752380D01*
X-6309523Y-7752380D01*
X-7214285Y-8752380D02*
X-6642857Y-8752380D01*
X-6928571Y-8752380D02*
X-6928571Y-7752380D01*
X-6833333Y-7895238D01*
X-6738095Y-7990476D01*
X-6642857Y-8038095D01*
X8766666Y-1557142D02*
X8814285Y-1604761D01*
X8957142Y-1652380D01*
X9052380Y-1652380D01*
X9195238Y-1604761D01*
X9290476Y-1509523D01*
X9338095Y-1414285D01*
X9385714Y-1223809D01*
X9385714Y-1080952D01*
X9338095Y-890476D01*
X9290476Y-795238D01*
X9195238Y-700000D01*
X9052380Y-652380D01*
X8957142Y-652380D01*
X8814285Y-700000D01*
X8766666Y-747619D01*
X7814285Y-1652380D02*
X8385714Y-1652380D01*
X8100000Y-1652380D02*
X8100000Y-652380D01*
X8195238Y-795238D01*
X8290476Y-890476D01*
X8385714Y-938095D01*
M02*
