G04 #@! TF.GenerationSoftware,KiCad,Pcbnew,(5.1.4)-1*
G04 #@! TF.CreationDate,2021-01-01T05:19:50-08:00*
G04 #@! TF.ProjectId,dboard,64626f61-7264-42e6-9b69-6361645f7063,rev?*
G04 #@! TF.SameCoordinates,Original*
G04 #@! TF.FileFunction,Copper,L2,Bot*
G04 #@! TF.FilePolarity,Positive*
%FSLAX46Y46*%
G04 Gerber Fmt 4.6, Leading zero omitted, Abs format (unit mm)*
G04 Created by KiCad (PCBNEW (5.1.4)-1) date 2021-01-01 05:19:50*
%MOMM*%
%LPD*%
G04 APERTURE LIST*
%ADD10C,0.800000*%
%ADD11C,6.000000*%
%ADD12C,0.100000*%
%ADD13C,0.875000*%
%ADD14C,0.600000*%
%ADD15C,1.500000*%
%ADD16C,1.250000*%
%ADD17C,0.975000*%
%ADD18R,0.600000X1.450000*%
%ADD19R,0.300000X1.450000*%
%ADD20O,1.000000X2.100000*%
%ADD21O,1.000000X1.600000*%
%ADD22C,1.300000*%
%ADD23R,1.060000X0.650000*%
%ADD24C,0.400000*%
%ADD25C,2.000000*%
%ADD26C,0.600000*%
%ADD27C,0.200000*%
G04 APERTURE END LIST*
D10*
X-18626346Y-20126346D03*
X-17000000Y-20800000D03*
X-15373654Y-20126346D03*
X-14700000Y-18500000D03*
X-15373654Y-16873654D03*
X-17000000Y-16200000D03*
X-18626346Y-16873654D03*
X-19300000Y-18500000D03*
D11*
X-17000000Y-18500000D03*
D12*
G36*
X-6109809Y-16351053D02*
G01*
X-6088574Y-16354203D01*
X-6067750Y-16359419D01*
X-6047538Y-16366651D01*
X-6028132Y-16375830D01*
X-6009719Y-16386866D01*
X-5992476Y-16399654D01*
X-5976570Y-16414070D01*
X-5962154Y-16429976D01*
X-5949366Y-16447219D01*
X-5938330Y-16465632D01*
X-5929151Y-16485038D01*
X-5921919Y-16505250D01*
X-5916703Y-16526074D01*
X-5913553Y-16547309D01*
X-5912500Y-16568750D01*
X-5912500Y-17006250D01*
X-5913553Y-17027691D01*
X-5916703Y-17048926D01*
X-5921919Y-17069750D01*
X-5929151Y-17089962D01*
X-5938330Y-17109368D01*
X-5949366Y-17127781D01*
X-5962154Y-17145024D01*
X-5976570Y-17160930D01*
X-5992476Y-17175346D01*
X-6009719Y-17188134D01*
X-6028132Y-17199170D01*
X-6047538Y-17208349D01*
X-6067750Y-17215581D01*
X-6088574Y-17220797D01*
X-6109809Y-17223947D01*
X-6131250Y-17225000D01*
X-6643750Y-17225000D01*
X-6665191Y-17223947D01*
X-6686426Y-17220797D01*
X-6707250Y-17215581D01*
X-6727462Y-17208349D01*
X-6746868Y-17199170D01*
X-6765281Y-17188134D01*
X-6782524Y-17175346D01*
X-6798430Y-17160930D01*
X-6812846Y-17145024D01*
X-6825634Y-17127781D01*
X-6836670Y-17109368D01*
X-6845849Y-17089962D01*
X-6853081Y-17069750D01*
X-6858297Y-17048926D01*
X-6861447Y-17027691D01*
X-6862500Y-17006250D01*
X-6862500Y-16568750D01*
X-6861447Y-16547309D01*
X-6858297Y-16526074D01*
X-6853081Y-16505250D01*
X-6845849Y-16485038D01*
X-6836670Y-16465632D01*
X-6825634Y-16447219D01*
X-6812846Y-16429976D01*
X-6798430Y-16414070D01*
X-6782524Y-16399654D01*
X-6765281Y-16386866D01*
X-6746868Y-16375830D01*
X-6727462Y-16366651D01*
X-6707250Y-16359419D01*
X-6686426Y-16354203D01*
X-6665191Y-16351053D01*
X-6643750Y-16350000D01*
X-6131250Y-16350000D01*
X-6109809Y-16351053D01*
X-6109809Y-16351053D01*
G37*
D13*
X-6387500Y-16787500D03*
D12*
G36*
X-6109809Y-14776053D02*
G01*
X-6088574Y-14779203D01*
X-6067750Y-14784419D01*
X-6047538Y-14791651D01*
X-6028132Y-14800830D01*
X-6009719Y-14811866D01*
X-5992476Y-14824654D01*
X-5976570Y-14839070D01*
X-5962154Y-14854976D01*
X-5949366Y-14872219D01*
X-5938330Y-14890632D01*
X-5929151Y-14910038D01*
X-5921919Y-14930250D01*
X-5916703Y-14951074D01*
X-5913553Y-14972309D01*
X-5912500Y-14993750D01*
X-5912500Y-15431250D01*
X-5913553Y-15452691D01*
X-5916703Y-15473926D01*
X-5921919Y-15494750D01*
X-5929151Y-15514962D01*
X-5938330Y-15534368D01*
X-5949366Y-15552781D01*
X-5962154Y-15570024D01*
X-5976570Y-15585930D01*
X-5992476Y-15600346D01*
X-6009719Y-15613134D01*
X-6028132Y-15624170D01*
X-6047538Y-15633349D01*
X-6067750Y-15640581D01*
X-6088574Y-15645797D01*
X-6109809Y-15648947D01*
X-6131250Y-15650000D01*
X-6643750Y-15650000D01*
X-6665191Y-15648947D01*
X-6686426Y-15645797D01*
X-6707250Y-15640581D01*
X-6727462Y-15633349D01*
X-6746868Y-15624170D01*
X-6765281Y-15613134D01*
X-6782524Y-15600346D01*
X-6798430Y-15585930D01*
X-6812846Y-15570024D01*
X-6825634Y-15552781D01*
X-6836670Y-15534368D01*
X-6845849Y-15514962D01*
X-6853081Y-15494750D01*
X-6858297Y-15473926D01*
X-6861447Y-15452691D01*
X-6862500Y-15431250D01*
X-6862500Y-14993750D01*
X-6861447Y-14972309D01*
X-6858297Y-14951074D01*
X-6853081Y-14930250D01*
X-6845849Y-14910038D01*
X-6836670Y-14890632D01*
X-6825634Y-14872219D01*
X-6812846Y-14854976D01*
X-6798430Y-14839070D01*
X-6782524Y-14824654D01*
X-6765281Y-14811866D01*
X-6746868Y-14800830D01*
X-6727462Y-14791651D01*
X-6707250Y-14784419D01*
X-6686426Y-14779203D01*
X-6665191Y-14776053D01*
X-6643750Y-14775000D01*
X-6131250Y-14775000D01*
X-6109809Y-14776053D01*
X-6109809Y-14776053D01*
G37*
D13*
X-6387500Y-15212500D03*
D12*
G36*
X12264703Y-17875722D02*
G01*
X12279264Y-17877882D01*
X12293543Y-17881459D01*
X12307403Y-17886418D01*
X12320710Y-17892712D01*
X12333336Y-17900280D01*
X12345159Y-17909048D01*
X12356066Y-17918934D01*
X12365952Y-17929841D01*
X12374720Y-17941664D01*
X12382288Y-17954290D01*
X12388582Y-17967597D01*
X12393541Y-17981457D01*
X12397118Y-17995736D01*
X12399278Y-18010297D01*
X12400000Y-18025000D01*
X12400000Y-19775000D01*
X12399278Y-19789703D01*
X12397118Y-19804264D01*
X12393541Y-19818543D01*
X12388582Y-19832403D01*
X12382288Y-19845710D01*
X12374720Y-19858336D01*
X12365952Y-19870159D01*
X12356066Y-19881066D01*
X12345159Y-19890952D01*
X12333336Y-19899720D01*
X12320710Y-19907288D01*
X12307403Y-19913582D01*
X12293543Y-19918541D01*
X12279264Y-19922118D01*
X12264703Y-19924278D01*
X12250000Y-19925000D01*
X11950000Y-19925000D01*
X11935297Y-19924278D01*
X11920736Y-19922118D01*
X11906457Y-19918541D01*
X11892597Y-19913582D01*
X11879290Y-19907288D01*
X11866664Y-19899720D01*
X11854841Y-19890952D01*
X11843934Y-19881066D01*
X11834048Y-19870159D01*
X11825280Y-19858336D01*
X11817712Y-19845710D01*
X11811418Y-19832403D01*
X11806459Y-19818543D01*
X11802882Y-19804264D01*
X11800722Y-19789703D01*
X11800000Y-19775000D01*
X11800000Y-18025000D01*
X11800722Y-18010297D01*
X11802882Y-17995736D01*
X11806459Y-17981457D01*
X11811418Y-17967597D01*
X11817712Y-17954290D01*
X11825280Y-17941664D01*
X11834048Y-17929841D01*
X11843934Y-17918934D01*
X11854841Y-17909048D01*
X11866664Y-17900280D01*
X11879290Y-17892712D01*
X11892597Y-17886418D01*
X11906457Y-17881459D01*
X11920736Y-17877882D01*
X11935297Y-17875722D01*
X11950000Y-17875000D01*
X12250000Y-17875000D01*
X12264703Y-17875722D01*
X12264703Y-17875722D01*
G37*
D14*
X12100000Y-18900000D03*
D12*
G36*
X13264703Y-17875722D02*
G01*
X13279264Y-17877882D01*
X13293543Y-17881459D01*
X13307403Y-17886418D01*
X13320710Y-17892712D01*
X13333336Y-17900280D01*
X13345159Y-17909048D01*
X13356066Y-17918934D01*
X13365952Y-17929841D01*
X13374720Y-17941664D01*
X13382288Y-17954290D01*
X13388582Y-17967597D01*
X13393541Y-17981457D01*
X13397118Y-17995736D01*
X13399278Y-18010297D01*
X13400000Y-18025000D01*
X13400000Y-19775000D01*
X13399278Y-19789703D01*
X13397118Y-19804264D01*
X13393541Y-19818543D01*
X13388582Y-19832403D01*
X13382288Y-19845710D01*
X13374720Y-19858336D01*
X13365952Y-19870159D01*
X13356066Y-19881066D01*
X13345159Y-19890952D01*
X13333336Y-19899720D01*
X13320710Y-19907288D01*
X13307403Y-19913582D01*
X13293543Y-19918541D01*
X13279264Y-19922118D01*
X13264703Y-19924278D01*
X13250000Y-19925000D01*
X12950000Y-19925000D01*
X12935297Y-19924278D01*
X12920736Y-19922118D01*
X12906457Y-19918541D01*
X12892597Y-19913582D01*
X12879290Y-19907288D01*
X12866664Y-19899720D01*
X12854841Y-19890952D01*
X12843934Y-19881066D01*
X12834048Y-19870159D01*
X12825280Y-19858336D01*
X12817712Y-19845710D01*
X12811418Y-19832403D01*
X12806459Y-19818543D01*
X12802882Y-19804264D01*
X12800722Y-19789703D01*
X12800000Y-19775000D01*
X12800000Y-18025000D01*
X12800722Y-18010297D01*
X12802882Y-17995736D01*
X12806459Y-17981457D01*
X12811418Y-17967597D01*
X12817712Y-17954290D01*
X12825280Y-17941664D01*
X12834048Y-17929841D01*
X12843934Y-17918934D01*
X12854841Y-17909048D01*
X12866664Y-17900280D01*
X12879290Y-17892712D01*
X12892597Y-17886418D01*
X12906457Y-17881459D01*
X12920736Y-17877882D01*
X12935297Y-17875722D01*
X12950000Y-17875000D01*
X13250000Y-17875000D01*
X13264703Y-17875722D01*
X13264703Y-17875722D01*
G37*
D14*
X13100000Y-18900000D03*
D12*
G36*
X14264703Y-17875722D02*
G01*
X14279264Y-17877882D01*
X14293543Y-17881459D01*
X14307403Y-17886418D01*
X14320710Y-17892712D01*
X14333336Y-17900280D01*
X14345159Y-17909048D01*
X14356066Y-17918934D01*
X14365952Y-17929841D01*
X14374720Y-17941664D01*
X14382288Y-17954290D01*
X14388582Y-17967597D01*
X14393541Y-17981457D01*
X14397118Y-17995736D01*
X14399278Y-18010297D01*
X14400000Y-18025000D01*
X14400000Y-19775000D01*
X14399278Y-19789703D01*
X14397118Y-19804264D01*
X14393541Y-19818543D01*
X14388582Y-19832403D01*
X14382288Y-19845710D01*
X14374720Y-19858336D01*
X14365952Y-19870159D01*
X14356066Y-19881066D01*
X14345159Y-19890952D01*
X14333336Y-19899720D01*
X14320710Y-19907288D01*
X14307403Y-19913582D01*
X14293543Y-19918541D01*
X14279264Y-19922118D01*
X14264703Y-19924278D01*
X14250000Y-19925000D01*
X13950000Y-19925000D01*
X13935297Y-19924278D01*
X13920736Y-19922118D01*
X13906457Y-19918541D01*
X13892597Y-19913582D01*
X13879290Y-19907288D01*
X13866664Y-19899720D01*
X13854841Y-19890952D01*
X13843934Y-19881066D01*
X13834048Y-19870159D01*
X13825280Y-19858336D01*
X13817712Y-19845710D01*
X13811418Y-19832403D01*
X13806459Y-19818543D01*
X13802882Y-19804264D01*
X13800722Y-19789703D01*
X13800000Y-19775000D01*
X13800000Y-18025000D01*
X13800722Y-18010297D01*
X13802882Y-17995736D01*
X13806459Y-17981457D01*
X13811418Y-17967597D01*
X13817712Y-17954290D01*
X13825280Y-17941664D01*
X13834048Y-17929841D01*
X13843934Y-17918934D01*
X13854841Y-17909048D01*
X13866664Y-17900280D01*
X13879290Y-17892712D01*
X13892597Y-17886418D01*
X13906457Y-17881459D01*
X13920736Y-17877882D01*
X13935297Y-17875722D01*
X13950000Y-17875000D01*
X14250000Y-17875000D01*
X14264703Y-17875722D01*
X14264703Y-17875722D01*
G37*
D14*
X14100000Y-18900000D03*
D12*
G36*
X15264703Y-17875722D02*
G01*
X15279264Y-17877882D01*
X15293543Y-17881459D01*
X15307403Y-17886418D01*
X15320710Y-17892712D01*
X15333336Y-17900280D01*
X15345159Y-17909048D01*
X15356066Y-17918934D01*
X15365952Y-17929841D01*
X15374720Y-17941664D01*
X15382288Y-17954290D01*
X15388582Y-17967597D01*
X15393541Y-17981457D01*
X15397118Y-17995736D01*
X15399278Y-18010297D01*
X15400000Y-18025000D01*
X15400000Y-19775000D01*
X15399278Y-19789703D01*
X15397118Y-19804264D01*
X15393541Y-19818543D01*
X15388582Y-19832403D01*
X15382288Y-19845710D01*
X15374720Y-19858336D01*
X15365952Y-19870159D01*
X15356066Y-19881066D01*
X15345159Y-19890952D01*
X15333336Y-19899720D01*
X15320710Y-19907288D01*
X15307403Y-19913582D01*
X15293543Y-19918541D01*
X15279264Y-19922118D01*
X15264703Y-19924278D01*
X15250000Y-19925000D01*
X14950000Y-19925000D01*
X14935297Y-19924278D01*
X14920736Y-19922118D01*
X14906457Y-19918541D01*
X14892597Y-19913582D01*
X14879290Y-19907288D01*
X14866664Y-19899720D01*
X14854841Y-19890952D01*
X14843934Y-19881066D01*
X14834048Y-19870159D01*
X14825280Y-19858336D01*
X14817712Y-19845710D01*
X14811418Y-19832403D01*
X14806459Y-19818543D01*
X14802882Y-19804264D01*
X14800722Y-19789703D01*
X14800000Y-19775000D01*
X14800000Y-18025000D01*
X14800722Y-18010297D01*
X14802882Y-17995736D01*
X14806459Y-17981457D01*
X14811418Y-17967597D01*
X14817712Y-17954290D01*
X14825280Y-17941664D01*
X14834048Y-17929841D01*
X14843934Y-17918934D01*
X14854841Y-17909048D01*
X14866664Y-17900280D01*
X14879290Y-17892712D01*
X14892597Y-17886418D01*
X14906457Y-17881459D01*
X14920736Y-17877882D01*
X14935297Y-17875722D01*
X14950000Y-17875000D01*
X15250000Y-17875000D01*
X15264703Y-17875722D01*
X15264703Y-17875722D01*
G37*
D14*
X15100000Y-18900000D03*
D12*
G36*
X11168581Y-13876502D02*
G01*
X11198868Y-13880995D01*
X11228569Y-13888435D01*
X11257397Y-13898750D01*
X11285076Y-13911841D01*
X11311338Y-13927581D01*
X11335931Y-13945821D01*
X11358617Y-13966383D01*
X11379179Y-13989069D01*
X11397419Y-14013662D01*
X11413159Y-14039924D01*
X11426250Y-14067603D01*
X11436565Y-14096431D01*
X11444005Y-14126132D01*
X11448498Y-14156419D01*
X11450000Y-14187000D01*
X11450000Y-15363000D01*
X11448498Y-15393581D01*
X11444005Y-15423868D01*
X11436565Y-15453569D01*
X11426250Y-15482397D01*
X11413159Y-15510076D01*
X11397419Y-15536338D01*
X11379179Y-15560931D01*
X11358617Y-15583617D01*
X11335931Y-15604179D01*
X11311338Y-15622419D01*
X11285076Y-15638159D01*
X11257397Y-15651250D01*
X11228569Y-15661565D01*
X11198868Y-15669005D01*
X11168581Y-15673498D01*
X11138000Y-15675000D01*
X10262000Y-15675000D01*
X10231419Y-15673498D01*
X10201132Y-15669005D01*
X10171431Y-15661565D01*
X10142603Y-15651250D01*
X10114924Y-15638159D01*
X10088662Y-15622419D01*
X10064069Y-15604179D01*
X10041383Y-15583617D01*
X10020821Y-15560931D01*
X10002581Y-15536338D01*
X9986841Y-15510076D01*
X9973750Y-15482397D01*
X9963435Y-15453569D01*
X9955995Y-15423868D01*
X9951502Y-15393581D01*
X9950000Y-15363000D01*
X9950000Y-14187000D01*
X9951502Y-14156419D01*
X9955995Y-14126132D01*
X9963435Y-14096431D01*
X9973750Y-14067603D01*
X9986841Y-14039924D01*
X10002581Y-14013662D01*
X10020821Y-13989069D01*
X10041383Y-13966383D01*
X10064069Y-13945821D01*
X10088662Y-13927581D01*
X10114924Y-13911841D01*
X10142603Y-13898750D01*
X10171431Y-13888435D01*
X10201132Y-13880995D01*
X10231419Y-13876502D01*
X10262000Y-13875000D01*
X11138000Y-13875000D01*
X11168581Y-13876502D01*
X11168581Y-13876502D01*
G37*
D15*
X10700000Y-14775000D03*
D12*
G36*
X16968581Y-13876502D02*
G01*
X16998868Y-13880995D01*
X17028569Y-13888435D01*
X17057397Y-13898750D01*
X17085076Y-13911841D01*
X17111338Y-13927581D01*
X17135931Y-13945821D01*
X17158617Y-13966383D01*
X17179179Y-13989069D01*
X17197419Y-14013662D01*
X17213159Y-14039924D01*
X17226250Y-14067603D01*
X17236565Y-14096431D01*
X17244005Y-14126132D01*
X17248498Y-14156419D01*
X17250000Y-14187000D01*
X17250000Y-15363000D01*
X17248498Y-15393581D01*
X17244005Y-15423868D01*
X17236565Y-15453569D01*
X17226250Y-15482397D01*
X17213159Y-15510076D01*
X17197419Y-15536338D01*
X17179179Y-15560931D01*
X17158617Y-15583617D01*
X17135931Y-15604179D01*
X17111338Y-15622419D01*
X17085076Y-15638159D01*
X17057397Y-15651250D01*
X17028569Y-15661565D01*
X16998868Y-15669005D01*
X16968581Y-15673498D01*
X16938000Y-15675000D01*
X16062000Y-15675000D01*
X16031419Y-15673498D01*
X16001132Y-15669005D01*
X15971431Y-15661565D01*
X15942603Y-15651250D01*
X15914924Y-15638159D01*
X15888662Y-15622419D01*
X15864069Y-15604179D01*
X15841383Y-15583617D01*
X15820821Y-15560931D01*
X15802581Y-15536338D01*
X15786841Y-15510076D01*
X15773750Y-15482397D01*
X15763435Y-15453569D01*
X15755995Y-15423868D01*
X15751502Y-15393581D01*
X15750000Y-15363000D01*
X15750000Y-14187000D01*
X15751502Y-14156419D01*
X15755995Y-14126132D01*
X15763435Y-14096431D01*
X15773750Y-14067603D01*
X15786841Y-14039924D01*
X15802581Y-14013662D01*
X15820821Y-13989069D01*
X15841383Y-13966383D01*
X15864069Y-13945821D01*
X15888662Y-13927581D01*
X15914924Y-13911841D01*
X15942603Y-13898750D01*
X15971431Y-13888435D01*
X16001132Y-13880995D01*
X16031419Y-13876502D01*
X16062000Y-13875000D01*
X16938000Y-13875000D01*
X16968581Y-13876502D01*
X16968581Y-13876502D01*
G37*
D15*
X16500000Y-14775000D03*
D10*
X19373654Y-20126346D03*
X21000000Y-20800000D03*
X22626346Y-20126346D03*
X23300000Y-18500000D03*
X22626346Y-16873654D03*
X21000000Y-16200000D03*
X19373654Y-16873654D03*
X18700000Y-18500000D03*
D11*
X21000000Y-18500000D03*
D12*
G36*
X9049504Y-13676204D02*
G01*
X9073773Y-13679804D01*
X9097571Y-13685765D01*
X9120671Y-13694030D01*
X9142849Y-13704520D01*
X9163893Y-13717133D01*
X9183598Y-13731747D01*
X9201777Y-13748223D01*
X9218253Y-13766402D01*
X9232867Y-13786107D01*
X9245480Y-13807151D01*
X9255970Y-13829329D01*
X9264235Y-13852429D01*
X9270196Y-13876227D01*
X9273796Y-13900496D01*
X9275000Y-13925000D01*
X9275000Y-14675000D01*
X9273796Y-14699504D01*
X9270196Y-14723773D01*
X9264235Y-14747571D01*
X9255970Y-14770671D01*
X9245480Y-14792849D01*
X9232867Y-14813893D01*
X9218253Y-14833598D01*
X9201777Y-14851777D01*
X9183598Y-14868253D01*
X9163893Y-14882867D01*
X9142849Y-14895480D01*
X9120671Y-14905970D01*
X9097571Y-14914235D01*
X9073773Y-14920196D01*
X9049504Y-14923796D01*
X9025000Y-14925000D01*
X7775000Y-14925000D01*
X7750496Y-14923796D01*
X7726227Y-14920196D01*
X7702429Y-14914235D01*
X7679329Y-14905970D01*
X7657151Y-14895480D01*
X7636107Y-14882867D01*
X7616402Y-14868253D01*
X7598223Y-14851777D01*
X7581747Y-14833598D01*
X7567133Y-14813893D01*
X7554520Y-14792849D01*
X7544030Y-14770671D01*
X7535765Y-14747571D01*
X7529804Y-14723773D01*
X7526204Y-14699504D01*
X7525000Y-14675000D01*
X7525000Y-13925000D01*
X7526204Y-13900496D01*
X7529804Y-13876227D01*
X7535765Y-13852429D01*
X7544030Y-13829329D01*
X7554520Y-13807151D01*
X7567133Y-13786107D01*
X7581747Y-13766402D01*
X7598223Y-13748223D01*
X7616402Y-13731747D01*
X7636107Y-13717133D01*
X7657151Y-13704520D01*
X7679329Y-13694030D01*
X7702429Y-13685765D01*
X7726227Y-13679804D01*
X7750496Y-13676204D01*
X7775000Y-13675000D01*
X9025000Y-13675000D01*
X9049504Y-13676204D01*
X9049504Y-13676204D01*
G37*
D16*
X8400000Y-14300000D03*
D12*
G36*
X9049504Y-16476204D02*
G01*
X9073773Y-16479804D01*
X9097571Y-16485765D01*
X9120671Y-16494030D01*
X9142849Y-16504520D01*
X9163893Y-16517133D01*
X9183598Y-16531747D01*
X9201777Y-16548223D01*
X9218253Y-16566402D01*
X9232867Y-16586107D01*
X9245480Y-16607151D01*
X9255970Y-16629329D01*
X9264235Y-16652429D01*
X9270196Y-16676227D01*
X9273796Y-16700496D01*
X9275000Y-16725000D01*
X9275000Y-17475000D01*
X9273796Y-17499504D01*
X9270196Y-17523773D01*
X9264235Y-17547571D01*
X9255970Y-17570671D01*
X9245480Y-17592849D01*
X9232867Y-17613893D01*
X9218253Y-17633598D01*
X9201777Y-17651777D01*
X9183598Y-17668253D01*
X9163893Y-17682867D01*
X9142849Y-17695480D01*
X9120671Y-17705970D01*
X9097571Y-17714235D01*
X9073773Y-17720196D01*
X9049504Y-17723796D01*
X9025000Y-17725000D01*
X7775000Y-17725000D01*
X7750496Y-17723796D01*
X7726227Y-17720196D01*
X7702429Y-17714235D01*
X7679329Y-17705970D01*
X7657151Y-17695480D01*
X7636107Y-17682867D01*
X7616402Y-17668253D01*
X7598223Y-17651777D01*
X7581747Y-17633598D01*
X7567133Y-17613893D01*
X7554520Y-17592849D01*
X7544030Y-17570671D01*
X7535765Y-17547571D01*
X7529804Y-17523773D01*
X7526204Y-17499504D01*
X7525000Y-17475000D01*
X7525000Y-16725000D01*
X7526204Y-16700496D01*
X7529804Y-16676227D01*
X7535765Y-16652429D01*
X7544030Y-16629329D01*
X7554520Y-16607151D01*
X7567133Y-16586107D01*
X7581747Y-16566402D01*
X7598223Y-16548223D01*
X7616402Y-16531747D01*
X7636107Y-16517133D01*
X7657151Y-16504520D01*
X7679329Y-16494030D01*
X7702429Y-16485765D01*
X7726227Y-16479804D01*
X7750496Y-16476204D01*
X7775000Y-16475000D01*
X9025000Y-16475000D01*
X9049504Y-16476204D01*
X9049504Y-16476204D01*
G37*
D16*
X8400000Y-17100000D03*
D12*
G36*
X-8119858Y-19038674D02*
G01*
X-8096197Y-19042184D01*
X-8072993Y-19047996D01*
X-8050471Y-19056054D01*
X-8028847Y-19066282D01*
X-8008330Y-19078579D01*
X-7989117Y-19092829D01*
X-7971393Y-19108893D01*
X-7955329Y-19126617D01*
X-7941079Y-19145830D01*
X-7928782Y-19166347D01*
X-7918554Y-19187971D01*
X-7910496Y-19210493D01*
X-7904684Y-19233697D01*
X-7901174Y-19257358D01*
X-7900000Y-19281250D01*
X-7900000Y-19768750D01*
X-7901174Y-19792642D01*
X-7904684Y-19816303D01*
X-7910496Y-19839507D01*
X-7918554Y-19862029D01*
X-7928782Y-19883653D01*
X-7941079Y-19904170D01*
X-7955329Y-19923383D01*
X-7971393Y-19941107D01*
X-7989117Y-19957171D01*
X-8008330Y-19971421D01*
X-8028847Y-19983718D01*
X-8050471Y-19993946D01*
X-8072993Y-20002004D01*
X-8096197Y-20007816D01*
X-8119858Y-20011326D01*
X-8143750Y-20012500D01*
X-9056250Y-20012500D01*
X-9080142Y-20011326D01*
X-9103803Y-20007816D01*
X-9127007Y-20002004D01*
X-9149529Y-19993946D01*
X-9171153Y-19983718D01*
X-9191670Y-19971421D01*
X-9210883Y-19957171D01*
X-9228607Y-19941107D01*
X-9244671Y-19923383D01*
X-9258921Y-19904170D01*
X-9271218Y-19883653D01*
X-9281446Y-19862029D01*
X-9289504Y-19839507D01*
X-9295316Y-19816303D01*
X-9298826Y-19792642D01*
X-9300000Y-19768750D01*
X-9300000Y-19281250D01*
X-9298826Y-19257358D01*
X-9295316Y-19233697D01*
X-9289504Y-19210493D01*
X-9281446Y-19187971D01*
X-9271218Y-19166347D01*
X-9258921Y-19145830D01*
X-9244671Y-19126617D01*
X-9228607Y-19108893D01*
X-9210883Y-19092829D01*
X-9191670Y-19078579D01*
X-9171153Y-19066282D01*
X-9149529Y-19056054D01*
X-9127007Y-19047996D01*
X-9103803Y-19042184D01*
X-9080142Y-19038674D01*
X-9056250Y-19037500D01*
X-8143750Y-19037500D01*
X-8119858Y-19038674D01*
X-8119858Y-19038674D01*
G37*
D17*
X-8600000Y-19525000D03*
D12*
G36*
X-8119858Y-20913674D02*
G01*
X-8096197Y-20917184D01*
X-8072993Y-20922996D01*
X-8050471Y-20931054D01*
X-8028847Y-20941282D01*
X-8008330Y-20953579D01*
X-7989117Y-20967829D01*
X-7971393Y-20983893D01*
X-7955329Y-21001617D01*
X-7941079Y-21020830D01*
X-7928782Y-21041347D01*
X-7918554Y-21062971D01*
X-7910496Y-21085493D01*
X-7904684Y-21108697D01*
X-7901174Y-21132358D01*
X-7900000Y-21156250D01*
X-7900000Y-21643750D01*
X-7901174Y-21667642D01*
X-7904684Y-21691303D01*
X-7910496Y-21714507D01*
X-7918554Y-21737029D01*
X-7928782Y-21758653D01*
X-7941079Y-21779170D01*
X-7955329Y-21798383D01*
X-7971393Y-21816107D01*
X-7989117Y-21832171D01*
X-8008330Y-21846421D01*
X-8028847Y-21858718D01*
X-8050471Y-21868946D01*
X-8072993Y-21877004D01*
X-8096197Y-21882816D01*
X-8119858Y-21886326D01*
X-8143750Y-21887500D01*
X-9056250Y-21887500D01*
X-9080142Y-21886326D01*
X-9103803Y-21882816D01*
X-9127007Y-21877004D01*
X-9149529Y-21868946D01*
X-9171153Y-21858718D01*
X-9191670Y-21846421D01*
X-9210883Y-21832171D01*
X-9228607Y-21816107D01*
X-9244671Y-21798383D01*
X-9258921Y-21779170D01*
X-9271218Y-21758653D01*
X-9281446Y-21737029D01*
X-9289504Y-21714507D01*
X-9295316Y-21691303D01*
X-9298826Y-21667642D01*
X-9300000Y-21643750D01*
X-9300000Y-21156250D01*
X-9298826Y-21132358D01*
X-9295316Y-21108697D01*
X-9289504Y-21085493D01*
X-9281446Y-21062971D01*
X-9271218Y-21041347D01*
X-9258921Y-21020830D01*
X-9244671Y-21001617D01*
X-9228607Y-20983893D01*
X-9210883Y-20967829D01*
X-9191670Y-20953579D01*
X-9171153Y-20941282D01*
X-9149529Y-20931054D01*
X-9127007Y-20922996D01*
X-9103803Y-20917184D01*
X-9080142Y-20913674D01*
X-9056250Y-20912500D01*
X-8143750Y-20912500D01*
X-8119858Y-20913674D01*
X-8119858Y-20913674D01*
G37*
D17*
X-8600000Y-21400000D03*
D12*
G36*
X-7609809Y-14776053D02*
G01*
X-7588574Y-14779203D01*
X-7567750Y-14784419D01*
X-7547538Y-14791651D01*
X-7528132Y-14800830D01*
X-7509719Y-14811866D01*
X-7492476Y-14824654D01*
X-7476570Y-14839070D01*
X-7462154Y-14854976D01*
X-7449366Y-14872219D01*
X-7438330Y-14890632D01*
X-7429151Y-14910038D01*
X-7421919Y-14930250D01*
X-7416703Y-14951074D01*
X-7413553Y-14972309D01*
X-7412500Y-14993750D01*
X-7412500Y-15431250D01*
X-7413553Y-15452691D01*
X-7416703Y-15473926D01*
X-7421919Y-15494750D01*
X-7429151Y-15514962D01*
X-7438330Y-15534368D01*
X-7449366Y-15552781D01*
X-7462154Y-15570024D01*
X-7476570Y-15585930D01*
X-7492476Y-15600346D01*
X-7509719Y-15613134D01*
X-7528132Y-15624170D01*
X-7547538Y-15633349D01*
X-7567750Y-15640581D01*
X-7588574Y-15645797D01*
X-7609809Y-15648947D01*
X-7631250Y-15650000D01*
X-8143750Y-15650000D01*
X-8165191Y-15648947D01*
X-8186426Y-15645797D01*
X-8207250Y-15640581D01*
X-8227462Y-15633349D01*
X-8246868Y-15624170D01*
X-8265281Y-15613134D01*
X-8282524Y-15600346D01*
X-8298430Y-15585930D01*
X-8312846Y-15570024D01*
X-8325634Y-15552781D01*
X-8336670Y-15534368D01*
X-8345849Y-15514962D01*
X-8353081Y-15494750D01*
X-8358297Y-15473926D01*
X-8361447Y-15452691D01*
X-8362500Y-15431250D01*
X-8362500Y-14993750D01*
X-8361447Y-14972309D01*
X-8358297Y-14951074D01*
X-8353081Y-14930250D01*
X-8345849Y-14910038D01*
X-8336670Y-14890632D01*
X-8325634Y-14872219D01*
X-8312846Y-14854976D01*
X-8298430Y-14839070D01*
X-8282524Y-14824654D01*
X-8265281Y-14811866D01*
X-8246868Y-14800830D01*
X-8227462Y-14791651D01*
X-8207250Y-14784419D01*
X-8186426Y-14779203D01*
X-8165191Y-14776053D01*
X-8143750Y-14775000D01*
X-7631250Y-14775000D01*
X-7609809Y-14776053D01*
X-7609809Y-14776053D01*
G37*
D13*
X-7887500Y-15212500D03*
D12*
G36*
X-7609809Y-16351053D02*
G01*
X-7588574Y-16354203D01*
X-7567750Y-16359419D01*
X-7547538Y-16366651D01*
X-7528132Y-16375830D01*
X-7509719Y-16386866D01*
X-7492476Y-16399654D01*
X-7476570Y-16414070D01*
X-7462154Y-16429976D01*
X-7449366Y-16447219D01*
X-7438330Y-16465632D01*
X-7429151Y-16485038D01*
X-7421919Y-16505250D01*
X-7416703Y-16526074D01*
X-7413553Y-16547309D01*
X-7412500Y-16568750D01*
X-7412500Y-17006250D01*
X-7413553Y-17027691D01*
X-7416703Y-17048926D01*
X-7421919Y-17069750D01*
X-7429151Y-17089962D01*
X-7438330Y-17109368D01*
X-7449366Y-17127781D01*
X-7462154Y-17145024D01*
X-7476570Y-17160930D01*
X-7492476Y-17175346D01*
X-7509719Y-17188134D01*
X-7528132Y-17199170D01*
X-7547538Y-17208349D01*
X-7567750Y-17215581D01*
X-7588574Y-17220797D01*
X-7609809Y-17223947D01*
X-7631250Y-17225000D01*
X-8143750Y-17225000D01*
X-8165191Y-17223947D01*
X-8186426Y-17220797D01*
X-8207250Y-17215581D01*
X-8227462Y-17208349D01*
X-8246868Y-17199170D01*
X-8265281Y-17188134D01*
X-8282524Y-17175346D01*
X-8298430Y-17160930D01*
X-8312846Y-17145024D01*
X-8325634Y-17127781D01*
X-8336670Y-17109368D01*
X-8345849Y-17089962D01*
X-8353081Y-17069750D01*
X-8358297Y-17048926D01*
X-8361447Y-17027691D01*
X-8362500Y-17006250D01*
X-8362500Y-16568750D01*
X-8361447Y-16547309D01*
X-8358297Y-16526074D01*
X-8353081Y-16505250D01*
X-8345849Y-16485038D01*
X-8336670Y-16465632D01*
X-8325634Y-16447219D01*
X-8312846Y-16429976D01*
X-8298430Y-16414070D01*
X-8282524Y-16399654D01*
X-8265281Y-16386866D01*
X-8246868Y-16375830D01*
X-8227462Y-16366651D01*
X-8207250Y-16359419D01*
X-8186426Y-16354203D01*
X-8165191Y-16351053D01*
X-8143750Y-16350000D01*
X-7631250Y-16350000D01*
X-7609809Y-16351053D01*
X-7609809Y-16351053D01*
G37*
D13*
X-7887500Y-16787500D03*
D18*
X-3225000Y-16305000D03*
X3225000Y-16305000D03*
X-2450000Y-16305000D03*
X2450000Y-16305000D03*
D19*
X1750000Y-16305000D03*
X-1750000Y-16305000D03*
X1250000Y-16305000D03*
X-1250000Y-16305000D03*
X750000Y-16305000D03*
X-750000Y-16305000D03*
X-250000Y-16305000D03*
X250000Y-16305000D03*
D20*
X4320000Y-17220000D03*
X-4320000Y-17220000D03*
D21*
X4320000Y-21400000D03*
X-4320000Y-21400000D03*
D22*
X23000000Y-22500000D03*
D12*
G36*
X-5737996Y-17976204D02*
G01*
X-5713727Y-17979804D01*
X-5689929Y-17985765D01*
X-5666829Y-17994030D01*
X-5644651Y-18004520D01*
X-5623607Y-18017133D01*
X-5603902Y-18031747D01*
X-5585723Y-18048223D01*
X-5569247Y-18066402D01*
X-5554633Y-18086107D01*
X-5542020Y-18107151D01*
X-5531530Y-18129329D01*
X-5523265Y-18152429D01*
X-5517304Y-18176227D01*
X-5513704Y-18200496D01*
X-5512500Y-18225000D01*
X-5512500Y-18975000D01*
X-5513704Y-18999504D01*
X-5517304Y-19023773D01*
X-5523265Y-19047571D01*
X-5531530Y-19070671D01*
X-5542020Y-19092849D01*
X-5554633Y-19113893D01*
X-5569247Y-19133598D01*
X-5585723Y-19151777D01*
X-5603902Y-19168253D01*
X-5623607Y-19182867D01*
X-5644651Y-19195480D01*
X-5666829Y-19205970D01*
X-5689929Y-19214235D01*
X-5713727Y-19220196D01*
X-5737996Y-19223796D01*
X-5762500Y-19225000D01*
X-7012500Y-19225000D01*
X-7037004Y-19223796D01*
X-7061273Y-19220196D01*
X-7085071Y-19214235D01*
X-7108171Y-19205970D01*
X-7130349Y-19195480D01*
X-7151393Y-19182867D01*
X-7171098Y-19168253D01*
X-7189277Y-19151777D01*
X-7205753Y-19133598D01*
X-7220367Y-19113893D01*
X-7232980Y-19092849D01*
X-7243470Y-19070671D01*
X-7251735Y-19047571D01*
X-7257696Y-19023773D01*
X-7261296Y-18999504D01*
X-7262500Y-18975000D01*
X-7262500Y-18225000D01*
X-7261296Y-18200496D01*
X-7257696Y-18176227D01*
X-7251735Y-18152429D01*
X-7243470Y-18129329D01*
X-7232980Y-18107151D01*
X-7220367Y-18086107D01*
X-7205753Y-18066402D01*
X-7189277Y-18048223D01*
X-7171098Y-18031747D01*
X-7151393Y-18017133D01*
X-7130349Y-18004520D01*
X-7108171Y-17994030D01*
X-7085071Y-17985765D01*
X-7061273Y-17979804D01*
X-7037004Y-17976204D01*
X-7012500Y-17975000D01*
X-5762500Y-17975000D01*
X-5737996Y-17976204D01*
X-5737996Y-17976204D01*
G37*
D16*
X-6387500Y-18600000D03*
D12*
G36*
X-5737996Y-20776204D02*
G01*
X-5713727Y-20779804D01*
X-5689929Y-20785765D01*
X-5666829Y-20794030D01*
X-5644651Y-20804520D01*
X-5623607Y-20817133D01*
X-5603902Y-20831747D01*
X-5585723Y-20848223D01*
X-5569247Y-20866402D01*
X-5554633Y-20886107D01*
X-5542020Y-20907151D01*
X-5531530Y-20929329D01*
X-5523265Y-20952429D01*
X-5517304Y-20976227D01*
X-5513704Y-21000496D01*
X-5512500Y-21025000D01*
X-5512500Y-21775000D01*
X-5513704Y-21799504D01*
X-5517304Y-21823773D01*
X-5523265Y-21847571D01*
X-5531530Y-21870671D01*
X-5542020Y-21892849D01*
X-5554633Y-21913893D01*
X-5569247Y-21933598D01*
X-5585723Y-21951777D01*
X-5603902Y-21968253D01*
X-5623607Y-21982867D01*
X-5644651Y-21995480D01*
X-5666829Y-22005970D01*
X-5689929Y-22014235D01*
X-5713727Y-22020196D01*
X-5737996Y-22023796D01*
X-5762500Y-22025000D01*
X-7012500Y-22025000D01*
X-7037004Y-22023796D01*
X-7061273Y-22020196D01*
X-7085071Y-22014235D01*
X-7108171Y-22005970D01*
X-7130349Y-21995480D01*
X-7151393Y-21982867D01*
X-7171098Y-21968253D01*
X-7189277Y-21951777D01*
X-7205753Y-21933598D01*
X-7220367Y-21913893D01*
X-7232980Y-21892849D01*
X-7243470Y-21870671D01*
X-7251735Y-21847571D01*
X-7257696Y-21823773D01*
X-7261296Y-21799504D01*
X-7262500Y-21775000D01*
X-7262500Y-21025000D01*
X-7261296Y-21000496D01*
X-7257696Y-20976227D01*
X-7251735Y-20952429D01*
X-7243470Y-20929329D01*
X-7232980Y-20907151D01*
X-7220367Y-20886107D01*
X-7205753Y-20866402D01*
X-7189277Y-20848223D01*
X-7171098Y-20831747D01*
X-7151393Y-20817133D01*
X-7130349Y-20804520D01*
X-7108171Y-20794030D01*
X-7085071Y-20785765D01*
X-7061273Y-20779804D01*
X-7037004Y-20776204D01*
X-7012500Y-20775000D01*
X-5762500Y-20775000D01*
X-5737996Y-20776204D01*
X-5737996Y-20776204D01*
G37*
D16*
X-6387500Y-21400000D03*
D22*
X-19500000Y-22000000D03*
D23*
X8800000Y-19900000D03*
X8800000Y-20850000D03*
X8800000Y-18950000D03*
X6600000Y-18950000D03*
X6600000Y-19900000D03*
X6600000Y-20850000D03*
D22*
X19000000Y-1500000D03*
X-23000000Y-1500000D03*
D12*
G36*
X-16031419Y-8326502D02*
G01*
X-16001132Y-8330995D01*
X-15971431Y-8338435D01*
X-15942603Y-8348750D01*
X-15914924Y-8361841D01*
X-15888662Y-8377581D01*
X-15864069Y-8395821D01*
X-15841383Y-8416383D01*
X-15820821Y-8439069D01*
X-15802581Y-8463662D01*
X-15786841Y-8489924D01*
X-15773750Y-8517603D01*
X-15763435Y-8546431D01*
X-15755995Y-8576132D01*
X-15751502Y-8606419D01*
X-15750000Y-8637000D01*
X-15750000Y-9813000D01*
X-15751502Y-9843581D01*
X-15755995Y-9873868D01*
X-15763435Y-9903569D01*
X-15773750Y-9932397D01*
X-15786841Y-9960076D01*
X-15802581Y-9986338D01*
X-15820821Y-10010931D01*
X-15841383Y-10033617D01*
X-15864069Y-10054179D01*
X-15888662Y-10072419D01*
X-15914924Y-10088159D01*
X-15942603Y-10101250D01*
X-15971431Y-10111565D01*
X-16001132Y-10119005D01*
X-16031419Y-10123498D01*
X-16062000Y-10125000D01*
X-16938000Y-10125000D01*
X-16968581Y-10123498D01*
X-16998868Y-10119005D01*
X-17028569Y-10111565D01*
X-17057397Y-10101250D01*
X-17085076Y-10088159D01*
X-17111338Y-10072419D01*
X-17135931Y-10054179D01*
X-17158617Y-10033617D01*
X-17179179Y-10010931D01*
X-17197419Y-9986338D01*
X-17213159Y-9960076D01*
X-17226250Y-9932397D01*
X-17236565Y-9903569D01*
X-17244005Y-9873868D01*
X-17248498Y-9843581D01*
X-17250000Y-9813000D01*
X-17250000Y-8637000D01*
X-17248498Y-8606419D01*
X-17244005Y-8576132D01*
X-17236565Y-8546431D01*
X-17226250Y-8517603D01*
X-17213159Y-8489924D01*
X-17197419Y-8463662D01*
X-17179179Y-8439069D01*
X-17158617Y-8416383D01*
X-17135931Y-8395821D01*
X-17111338Y-8377581D01*
X-17085076Y-8361841D01*
X-17057397Y-8348750D01*
X-17028569Y-8338435D01*
X-16998868Y-8330995D01*
X-16968581Y-8326502D01*
X-16938000Y-8325000D01*
X-16062000Y-8325000D01*
X-16031419Y-8326502D01*
X-16031419Y-8326502D01*
G37*
D15*
X-16500000Y-9225000D03*
D12*
G36*
X-10231419Y-8326502D02*
G01*
X-10201132Y-8330995D01*
X-10171431Y-8338435D01*
X-10142603Y-8348750D01*
X-10114924Y-8361841D01*
X-10088662Y-8377581D01*
X-10064069Y-8395821D01*
X-10041383Y-8416383D01*
X-10020821Y-8439069D01*
X-10002581Y-8463662D01*
X-9986841Y-8489924D01*
X-9973750Y-8517603D01*
X-9963435Y-8546431D01*
X-9955995Y-8576132D01*
X-9951502Y-8606419D01*
X-9950000Y-8637000D01*
X-9950000Y-9813000D01*
X-9951502Y-9843581D01*
X-9955995Y-9873868D01*
X-9963435Y-9903569D01*
X-9973750Y-9932397D01*
X-9986841Y-9960076D01*
X-10002581Y-9986338D01*
X-10020821Y-10010931D01*
X-10041383Y-10033617D01*
X-10064069Y-10054179D01*
X-10088662Y-10072419D01*
X-10114924Y-10088159D01*
X-10142603Y-10101250D01*
X-10171431Y-10111565D01*
X-10201132Y-10119005D01*
X-10231419Y-10123498D01*
X-10262000Y-10125000D01*
X-11138000Y-10125000D01*
X-11168581Y-10123498D01*
X-11198868Y-10119005D01*
X-11228569Y-10111565D01*
X-11257397Y-10101250D01*
X-11285076Y-10088159D01*
X-11311338Y-10072419D01*
X-11335931Y-10054179D01*
X-11358617Y-10033617D01*
X-11379179Y-10010931D01*
X-11397419Y-9986338D01*
X-11413159Y-9960076D01*
X-11426250Y-9932397D01*
X-11436565Y-9903569D01*
X-11444005Y-9873868D01*
X-11448498Y-9843581D01*
X-11450000Y-9813000D01*
X-11450000Y-8637000D01*
X-11448498Y-8606419D01*
X-11444005Y-8576132D01*
X-11436565Y-8546431D01*
X-11426250Y-8517603D01*
X-11413159Y-8489924D01*
X-11397419Y-8463662D01*
X-11379179Y-8439069D01*
X-11358617Y-8416383D01*
X-11335931Y-8395821D01*
X-11311338Y-8377581D01*
X-11285076Y-8361841D01*
X-11257397Y-8348750D01*
X-11228569Y-8338435D01*
X-11198868Y-8330995D01*
X-11168581Y-8326502D01*
X-11138000Y-8325000D01*
X-10262000Y-8325000D01*
X-10231419Y-8326502D01*
X-10231419Y-8326502D01*
G37*
D15*
X-10700000Y-9225000D03*
D12*
G36*
X-14935297Y-4075722D02*
G01*
X-14920736Y-4077882D01*
X-14906457Y-4081459D01*
X-14892597Y-4086418D01*
X-14879290Y-4092712D01*
X-14866664Y-4100280D01*
X-14854841Y-4109048D01*
X-14843934Y-4118934D01*
X-14834048Y-4129841D01*
X-14825280Y-4141664D01*
X-14817712Y-4154290D01*
X-14811418Y-4167597D01*
X-14806459Y-4181457D01*
X-14802882Y-4195736D01*
X-14800722Y-4210297D01*
X-14800000Y-4225000D01*
X-14800000Y-5975000D01*
X-14800722Y-5989703D01*
X-14802882Y-6004264D01*
X-14806459Y-6018543D01*
X-14811418Y-6032403D01*
X-14817712Y-6045710D01*
X-14825280Y-6058336D01*
X-14834048Y-6070159D01*
X-14843934Y-6081066D01*
X-14854841Y-6090952D01*
X-14866664Y-6099720D01*
X-14879290Y-6107288D01*
X-14892597Y-6113582D01*
X-14906457Y-6118541D01*
X-14920736Y-6122118D01*
X-14935297Y-6124278D01*
X-14950000Y-6125000D01*
X-15250000Y-6125000D01*
X-15264703Y-6124278D01*
X-15279264Y-6122118D01*
X-15293543Y-6118541D01*
X-15307403Y-6113582D01*
X-15320710Y-6107288D01*
X-15333336Y-6099720D01*
X-15345159Y-6090952D01*
X-15356066Y-6081066D01*
X-15365952Y-6070159D01*
X-15374720Y-6058336D01*
X-15382288Y-6045710D01*
X-15388582Y-6032403D01*
X-15393541Y-6018543D01*
X-15397118Y-6004264D01*
X-15399278Y-5989703D01*
X-15400000Y-5975000D01*
X-15400000Y-4225000D01*
X-15399278Y-4210297D01*
X-15397118Y-4195736D01*
X-15393541Y-4181457D01*
X-15388582Y-4167597D01*
X-15382288Y-4154290D01*
X-15374720Y-4141664D01*
X-15365952Y-4129841D01*
X-15356066Y-4118934D01*
X-15345159Y-4109048D01*
X-15333336Y-4100280D01*
X-15320710Y-4092712D01*
X-15307403Y-4086418D01*
X-15293543Y-4081459D01*
X-15279264Y-4077882D01*
X-15264703Y-4075722D01*
X-15250000Y-4075000D01*
X-14950000Y-4075000D01*
X-14935297Y-4075722D01*
X-14935297Y-4075722D01*
G37*
D14*
X-15100000Y-5100000D03*
D12*
G36*
X-13935297Y-4075722D02*
G01*
X-13920736Y-4077882D01*
X-13906457Y-4081459D01*
X-13892597Y-4086418D01*
X-13879290Y-4092712D01*
X-13866664Y-4100280D01*
X-13854841Y-4109048D01*
X-13843934Y-4118934D01*
X-13834048Y-4129841D01*
X-13825280Y-4141664D01*
X-13817712Y-4154290D01*
X-13811418Y-4167597D01*
X-13806459Y-4181457D01*
X-13802882Y-4195736D01*
X-13800722Y-4210297D01*
X-13800000Y-4225000D01*
X-13800000Y-5975000D01*
X-13800722Y-5989703D01*
X-13802882Y-6004264D01*
X-13806459Y-6018543D01*
X-13811418Y-6032403D01*
X-13817712Y-6045710D01*
X-13825280Y-6058336D01*
X-13834048Y-6070159D01*
X-13843934Y-6081066D01*
X-13854841Y-6090952D01*
X-13866664Y-6099720D01*
X-13879290Y-6107288D01*
X-13892597Y-6113582D01*
X-13906457Y-6118541D01*
X-13920736Y-6122118D01*
X-13935297Y-6124278D01*
X-13950000Y-6125000D01*
X-14250000Y-6125000D01*
X-14264703Y-6124278D01*
X-14279264Y-6122118D01*
X-14293543Y-6118541D01*
X-14307403Y-6113582D01*
X-14320710Y-6107288D01*
X-14333336Y-6099720D01*
X-14345159Y-6090952D01*
X-14356066Y-6081066D01*
X-14365952Y-6070159D01*
X-14374720Y-6058336D01*
X-14382288Y-6045710D01*
X-14388582Y-6032403D01*
X-14393541Y-6018543D01*
X-14397118Y-6004264D01*
X-14399278Y-5989703D01*
X-14400000Y-5975000D01*
X-14400000Y-4225000D01*
X-14399278Y-4210297D01*
X-14397118Y-4195736D01*
X-14393541Y-4181457D01*
X-14388582Y-4167597D01*
X-14382288Y-4154290D01*
X-14374720Y-4141664D01*
X-14365952Y-4129841D01*
X-14356066Y-4118934D01*
X-14345159Y-4109048D01*
X-14333336Y-4100280D01*
X-14320710Y-4092712D01*
X-14307403Y-4086418D01*
X-14293543Y-4081459D01*
X-14279264Y-4077882D01*
X-14264703Y-4075722D01*
X-14250000Y-4075000D01*
X-13950000Y-4075000D01*
X-13935297Y-4075722D01*
X-13935297Y-4075722D01*
G37*
D14*
X-14100000Y-5100000D03*
D12*
G36*
X-12935297Y-4075722D02*
G01*
X-12920736Y-4077882D01*
X-12906457Y-4081459D01*
X-12892597Y-4086418D01*
X-12879290Y-4092712D01*
X-12866664Y-4100280D01*
X-12854841Y-4109048D01*
X-12843934Y-4118934D01*
X-12834048Y-4129841D01*
X-12825280Y-4141664D01*
X-12817712Y-4154290D01*
X-12811418Y-4167597D01*
X-12806459Y-4181457D01*
X-12802882Y-4195736D01*
X-12800722Y-4210297D01*
X-12800000Y-4225000D01*
X-12800000Y-5975000D01*
X-12800722Y-5989703D01*
X-12802882Y-6004264D01*
X-12806459Y-6018543D01*
X-12811418Y-6032403D01*
X-12817712Y-6045710D01*
X-12825280Y-6058336D01*
X-12834048Y-6070159D01*
X-12843934Y-6081066D01*
X-12854841Y-6090952D01*
X-12866664Y-6099720D01*
X-12879290Y-6107288D01*
X-12892597Y-6113582D01*
X-12906457Y-6118541D01*
X-12920736Y-6122118D01*
X-12935297Y-6124278D01*
X-12950000Y-6125000D01*
X-13250000Y-6125000D01*
X-13264703Y-6124278D01*
X-13279264Y-6122118D01*
X-13293543Y-6118541D01*
X-13307403Y-6113582D01*
X-13320710Y-6107288D01*
X-13333336Y-6099720D01*
X-13345159Y-6090952D01*
X-13356066Y-6081066D01*
X-13365952Y-6070159D01*
X-13374720Y-6058336D01*
X-13382288Y-6045710D01*
X-13388582Y-6032403D01*
X-13393541Y-6018543D01*
X-13397118Y-6004264D01*
X-13399278Y-5989703D01*
X-13400000Y-5975000D01*
X-13400000Y-4225000D01*
X-13399278Y-4210297D01*
X-13397118Y-4195736D01*
X-13393541Y-4181457D01*
X-13388582Y-4167597D01*
X-13382288Y-4154290D01*
X-13374720Y-4141664D01*
X-13365952Y-4129841D01*
X-13356066Y-4118934D01*
X-13345159Y-4109048D01*
X-13333336Y-4100280D01*
X-13320710Y-4092712D01*
X-13307403Y-4086418D01*
X-13293543Y-4081459D01*
X-13279264Y-4077882D01*
X-13264703Y-4075722D01*
X-13250000Y-4075000D01*
X-12950000Y-4075000D01*
X-12935297Y-4075722D01*
X-12935297Y-4075722D01*
G37*
D14*
X-13100000Y-5100000D03*
D12*
G36*
X-11935297Y-4075722D02*
G01*
X-11920736Y-4077882D01*
X-11906457Y-4081459D01*
X-11892597Y-4086418D01*
X-11879290Y-4092712D01*
X-11866664Y-4100280D01*
X-11854841Y-4109048D01*
X-11843934Y-4118934D01*
X-11834048Y-4129841D01*
X-11825280Y-4141664D01*
X-11817712Y-4154290D01*
X-11811418Y-4167597D01*
X-11806459Y-4181457D01*
X-11802882Y-4195736D01*
X-11800722Y-4210297D01*
X-11800000Y-4225000D01*
X-11800000Y-5975000D01*
X-11800722Y-5989703D01*
X-11802882Y-6004264D01*
X-11806459Y-6018543D01*
X-11811418Y-6032403D01*
X-11817712Y-6045710D01*
X-11825280Y-6058336D01*
X-11834048Y-6070159D01*
X-11843934Y-6081066D01*
X-11854841Y-6090952D01*
X-11866664Y-6099720D01*
X-11879290Y-6107288D01*
X-11892597Y-6113582D01*
X-11906457Y-6118541D01*
X-11920736Y-6122118D01*
X-11935297Y-6124278D01*
X-11950000Y-6125000D01*
X-12250000Y-6125000D01*
X-12264703Y-6124278D01*
X-12279264Y-6122118D01*
X-12293543Y-6118541D01*
X-12307403Y-6113582D01*
X-12320710Y-6107288D01*
X-12333336Y-6099720D01*
X-12345159Y-6090952D01*
X-12356066Y-6081066D01*
X-12365952Y-6070159D01*
X-12374720Y-6058336D01*
X-12382288Y-6045710D01*
X-12388582Y-6032403D01*
X-12393541Y-6018543D01*
X-12397118Y-6004264D01*
X-12399278Y-5989703D01*
X-12400000Y-5975000D01*
X-12400000Y-4225000D01*
X-12399278Y-4210297D01*
X-12397118Y-4195736D01*
X-12393541Y-4181457D01*
X-12388582Y-4167597D01*
X-12382288Y-4154290D01*
X-12374720Y-4141664D01*
X-12365952Y-4129841D01*
X-12356066Y-4118934D01*
X-12345159Y-4109048D01*
X-12333336Y-4100280D01*
X-12320710Y-4092712D01*
X-12307403Y-4086418D01*
X-12293543Y-4081459D01*
X-12279264Y-4077882D01*
X-12264703Y-4075722D01*
X-12250000Y-4075000D01*
X-11950000Y-4075000D01*
X-11935297Y-4075722D01*
X-11935297Y-4075722D01*
G37*
D14*
X-12100000Y-5100000D03*
D18*
X3225000Y-7695000D03*
X-3225000Y-7695000D03*
X2450000Y-7695000D03*
X-2450000Y-7695000D03*
D19*
X-1750000Y-7695000D03*
X1750000Y-7695000D03*
X-1250000Y-7695000D03*
X1250000Y-7695000D03*
X-750000Y-7695000D03*
X750000Y-7695000D03*
X250000Y-7695000D03*
X-250000Y-7695000D03*
D20*
X-4320000Y-6780000D03*
X4320000Y-6780000D03*
D21*
X-4320000Y-2600000D03*
X4320000Y-2600000D03*
D23*
X-8800000Y-4100000D03*
X-8800000Y-3150000D03*
X-8800000Y-5050000D03*
X-6600000Y-5050000D03*
X-6600000Y-4100000D03*
X-6600000Y-3150000D03*
D12*
G36*
X7037004Y-1976204D02*
G01*
X7061273Y-1979804D01*
X7085071Y-1985765D01*
X7108171Y-1994030D01*
X7130349Y-2004520D01*
X7151393Y-2017133D01*
X7171098Y-2031747D01*
X7189277Y-2048223D01*
X7205753Y-2066402D01*
X7220367Y-2086107D01*
X7232980Y-2107151D01*
X7243470Y-2129329D01*
X7251735Y-2152429D01*
X7257696Y-2176227D01*
X7261296Y-2200496D01*
X7262500Y-2225000D01*
X7262500Y-2975000D01*
X7261296Y-2999504D01*
X7257696Y-3023773D01*
X7251735Y-3047571D01*
X7243470Y-3070671D01*
X7232980Y-3092849D01*
X7220367Y-3113893D01*
X7205753Y-3133598D01*
X7189277Y-3151777D01*
X7171098Y-3168253D01*
X7151393Y-3182867D01*
X7130349Y-3195480D01*
X7108171Y-3205970D01*
X7085071Y-3214235D01*
X7061273Y-3220196D01*
X7037004Y-3223796D01*
X7012500Y-3225000D01*
X5762500Y-3225000D01*
X5737996Y-3223796D01*
X5713727Y-3220196D01*
X5689929Y-3214235D01*
X5666829Y-3205970D01*
X5644651Y-3195480D01*
X5623607Y-3182867D01*
X5603902Y-3168253D01*
X5585723Y-3151777D01*
X5569247Y-3133598D01*
X5554633Y-3113893D01*
X5542020Y-3092849D01*
X5531530Y-3070671D01*
X5523265Y-3047571D01*
X5517304Y-3023773D01*
X5513704Y-2999504D01*
X5512500Y-2975000D01*
X5512500Y-2225000D01*
X5513704Y-2200496D01*
X5517304Y-2176227D01*
X5523265Y-2152429D01*
X5531530Y-2129329D01*
X5542020Y-2107151D01*
X5554633Y-2086107D01*
X5569247Y-2066402D01*
X5585723Y-2048223D01*
X5603902Y-2031747D01*
X5623607Y-2017133D01*
X5644651Y-2004520D01*
X5666829Y-1994030D01*
X5689929Y-1985765D01*
X5713727Y-1979804D01*
X5737996Y-1976204D01*
X5762500Y-1975000D01*
X7012500Y-1975000D01*
X7037004Y-1976204D01*
X7037004Y-1976204D01*
G37*
D16*
X6387500Y-2600000D03*
D12*
G36*
X7037004Y-4776204D02*
G01*
X7061273Y-4779804D01*
X7085071Y-4785765D01*
X7108171Y-4794030D01*
X7130349Y-4804520D01*
X7151393Y-4817133D01*
X7171098Y-4831747D01*
X7189277Y-4848223D01*
X7205753Y-4866402D01*
X7220367Y-4886107D01*
X7232980Y-4907151D01*
X7243470Y-4929329D01*
X7251735Y-4952429D01*
X7257696Y-4976227D01*
X7261296Y-5000496D01*
X7262500Y-5025000D01*
X7262500Y-5775000D01*
X7261296Y-5799504D01*
X7257696Y-5823773D01*
X7251735Y-5847571D01*
X7243470Y-5870671D01*
X7232980Y-5892849D01*
X7220367Y-5913893D01*
X7205753Y-5933598D01*
X7189277Y-5951777D01*
X7171098Y-5968253D01*
X7151393Y-5982867D01*
X7130349Y-5995480D01*
X7108171Y-6005970D01*
X7085071Y-6014235D01*
X7061273Y-6020196D01*
X7037004Y-6023796D01*
X7012500Y-6025000D01*
X5762500Y-6025000D01*
X5737996Y-6023796D01*
X5713727Y-6020196D01*
X5689929Y-6014235D01*
X5666829Y-6005970D01*
X5644651Y-5995480D01*
X5623607Y-5982867D01*
X5603902Y-5968253D01*
X5585723Y-5951777D01*
X5569247Y-5933598D01*
X5554633Y-5913893D01*
X5542020Y-5892849D01*
X5531530Y-5870671D01*
X5523265Y-5847571D01*
X5517304Y-5823773D01*
X5513704Y-5799504D01*
X5512500Y-5775000D01*
X5512500Y-5025000D01*
X5513704Y-5000496D01*
X5517304Y-4976227D01*
X5523265Y-4952429D01*
X5531530Y-4929329D01*
X5542020Y-4907151D01*
X5554633Y-4886107D01*
X5569247Y-4866402D01*
X5585723Y-4848223D01*
X5603902Y-4831747D01*
X5623607Y-4817133D01*
X5644651Y-4804520D01*
X5666829Y-4794030D01*
X5689929Y-4785765D01*
X5713727Y-4779804D01*
X5737996Y-4776204D01*
X5762500Y-4775000D01*
X7012500Y-4775000D01*
X7037004Y-4776204D01*
X7037004Y-4776204D01*
G37*
D16*
X6387500Y-5400000D03*
D12*
G36*
X6665191Y-6776053D02*
G01*
X6686426Y-6779203D01*
X6707250Y-6784419D01*
X6727462Y-6791651D01*
X6746868Y-6800830D01*
X6765281Y-6811866D01*
X6782524Y-6824654D01*
X6798430Y-6839070D01*
X6812846Y-6854976D01*
X6825634Y-6872219D01*
X6836670Y-6890632D01*
X6845849Y-6910038D01*
X6853081Y-6930250D01*
X6858297Y-6951074D01*
X6861447Y-6972309D01*
X6862500Y-6993750D01*
X6862500Y-7431250D01*
X6861447Y-7452691D01*
X6858297Y-7473926D01*
X6853081Y-7494750D01*
X6845849Y-7514962D01*
X6836670Y-7534368D01*
X6825634Y-7552781D01*
X6812846Y-7570024D01*
X6798430Y-7585930D01*
X6782524Y-7600346D01*
X6765281Y-7613134D01*
X6746868Y-7624170D01*
X6727462Y-7633349D01*
X6707250Y-7640581D01*
X6686426Y-7645797D01*
X6665191Y-7648947D01*
X6643750Y-7650000D01*
X6131250Y-7650000D01*
X6109809Y-7648947D01*
X6088574Y-7645797D01*
X6067750Y-7640581D01*
X6047538Y-7633349D01*
X6028132Y-7624170D01*
X6009719Y-7613134D01*
X5992476Y-7600346D01*
X5976570Y-7585930D01*
X5962154Y-7570024D01*
X5949366Y-7552781D01*
X5938330Y-7534368D01*
X5929151Y-7514962D01*
X5921919Y-7494750D01*
X5916703Y-7473926D01*
X5913553Y-7452691D01*
X5912500Y-7431250D01*
X5912500Y-6993750D01*
X5913553Y-6972309D01*
X5916703Y-6951074D01*
X5921919Y-6930250D01*
X5929151Y-6910038D01*
X5938330Y-6890632D01*
X5949366Y-6872219D01*
X5962154Y-6854976D01*
X5976570Y-6839070D01*
X5992476Y-6824654D01*
X6009719Y-6811866D01*
X6028132Y-6800830D01*
X6047538Y-6791651D01*
X6067750Y-6784419D01*
X6088574Y-6779203D01*
X6109809Y-6776053D01*
X6131250Y-6775000D01*
X6643750Y-6775000D01*
X6665191Y-6776053D01*
X6665191Y-6776053D01*
G37*
D13*
X6387500Y-7212500D03*
D12*
G36*
X6665191Y-8351053D02*
G01*
X6686426Y-8354203D01*
X6707250Y-8359419D01*
X6727462Y-8366651D01*
X6746868Y-8375830D01*
X6765281Y-8386866D01*
X6782524Y-8399654D01*
X6798430Y-8414070D01*
X6812846Y-8429976D01*
X6825634Y-8447219D01*
X6836670Y-8465632D01*
X6845849Y-8485038D01*
X6853081Y-8505250D01*
X6858297Y-8526074D01*
X6861447Y-8547309D01*
X6862500Y-8568750D01*
X6862500Y-9006250D01*
X6861447Y-9027691D01*
X6858297Y-9048926D01*
X6853081Y-9069750D01*
X6845849Y-9089962D01*
X6836670Y-9109368D01*
X6825634Y-9127781D01*
X6812846Y-9145024D01*
X6798430Y-9160930D01*
X6782524Y-9175346D01*
X6765281Y-9188134D01*
X6746868Y-9199170D01*
X6727462Y-9208349D01*
X6707250Y-9215581D01*
X6686426Y-9220797D01*
X6665191Y-9223947D01*
X6643750Y-9225000D01*
X6131250Y-9225000D01*
X6109809Y-9223947D01*
X6088574Y-9220797D01*
X6067750Y-9215581D01*
X6047538Y-9208349D01*
X6028132Y-9199170D01*
X6009719Y-9188134D01*
X5992476Y-9175346D01*
X5976570Y-9160930D01*
X5962154Y-9145024D01*
X5949366Y-9127781D01*
X5938330Y-9109368D01*
X5929151Y-9089962D01*
X5921919Y-9069750D01*
X5916703Y-9048926D01*
X5913553Y-9027691D01*
X5912500Y-9006250D01*
X5912500Y-8568750D01*
X5913553Y-8547309D01*
X5916703Y-8526074D01*
X5921919Y-8505250D01*
X5929151Y-8485038D01*
X5938330Y-8465632D01*
X5949366Y-8447219D01*
X5962154Y-8429976D01*
X5976570Y-8414070D01*
X5992476Y-8399654D01*
X6009719Y-8386866D01*
X6028132Y-8375830D01*
X6047538Y-8366651D01*
X6067750Y-8359419D01*
X6088574Y-8354203D01*
X6109809Y-8351053D01*
X6131250Y-8350000D01*
X6643750Y-8350000D01*
X6665191Y-8351053D01*
X6665191Y-8351053D01*
G37*
D13*
X6387500Y-8787500D03*
D12*
G36*
X8165191Y-6776053D02*
G01*
X8186426Y-6779203D01*
X8207250Y-6784419D01*
X8227462Y-6791651D01*
X8246868Y-6800830D01*
X8265281Y-6811866D01*
X8282524Y-6824654D01*
X8298430Y-6839070D01*
X8312846Y-6854976D01*
X8325634Y-6872219D01*
X8336670Y-6890632D01*
X8345849Y-6910038D01*
X8353081Y-6930250D01*
X8358297Y-6951074D01*
X8361447Y-6972309D01*
X8362500Y-6993750D01*
X8362500Y-7431250D01*
X8361447Y-7452691D01*
X8358297Y-7473926D01*
X8353081Y-7494750D01*
X8345849Y-7514962D01*
X8336670Y-7534368D01*
X8325634Y-7552781D01*
X8312846Y-7570024D01*
X8298430Y-7585930D01*
X8282524Y-7600346D01*
X8265281Y-7613134D01*
X8246868Y-7624170D01*
X8227462Y-7633349D01*
X8207250Y-7640581D01*
X8186426Y-7645797D01*
X8165191Y-7648947D01*
X8143750Y-7650000D01*
X7631250Y-7650000D01*
X7609809Y-7648947D01*
X7588574Y-7645797D01*
X7567750Y-7640581D01*
X7547538Y-7633349D01*
X7528132Y-7624170D01*
X7509719Y-7613134D01*
X7492476Y-7600346D01*
X7476570Y-7585930D01*
X7462154Y-7570024D01*
X7449366Y-7552781D01*
X7438330Y-7534368D01*
X7429151Y-7514962D01*
X7421919Y-7494750D01*
X7416703Y-7473926D01*
X7413553Y-7452691D01*
X7412500Y-7431250D01*
X7412500Y-6993750D01*
X7413553Y-6972309D01*
X7416703Y-6951074D01*
X7421919Y-6930250D01*
X7429151Y-6910038D01*
X7438330Y-6890632D01*
X7449366Y-6872219D01*
X7462154Y-6854976D01*
X7476570Y-6839070D01*
X7492476Y-6824654D01*
X7509719Y-6811866D01*
X7528132Y-6800830D01*
X7547538Y-6791651D01*
X7567750Y-6784419D01*
X7588574Y-6779203D01*
X7609809Y-6776053D01*
X7631250Y-6775000D01*
X8143750Y-6775000D01*
X8165191Y-6776053D01*
X8165191Y-6776053D01*
G37*
D13*
X7887500Y-7212500D03*
D12*
G36*
X8165191Y-8351053D02*
G01*
X8186426Y-8354203D01*
X8207250Y-8359419D01*
X8227462Y-8366651D01*
X8246868Y-8375830D01*
X8265281Y-8386866D01*
X8282524Y-8399654D01*
X8298430Y-8414070D01*
X8312846Y-8429976D01*
X8325634Y-8447219D01*
X8336670Y-8465632D01*
X8345849Y-8485038D01*
X8353081Y-8505250D01*
X8358297Y-8526074D01*
X8361447Y-8547309D01*
X8362500Y-8568750D01*
X8362500Y-9006250D01*
X8361447Y-9027691D01*
X8358297Y-9048926D01*
X8353081Y-9069750D01*
X8345849Y-9089962D01*
X8336670Y-9109368D01*
X8325634Y-9127781D01*
X8312846Y-9145024D01*
X8298430Y-9160930D01*
X8282524Y-9175346D01*
X8265281Y-9188134D01*
X8246868Y-9199170D01*
X8227462Y-9208349D01*
X8207250Y-9215581D01*
X8186426Y-9220797D01*
X8165191Y-9223947D01*
X8143750Y-9225000D01*
X7631250Y-9225000D01*
X7609809Y-9223947D01*
X7588574Y-9220797D01*
X7567750Y-9215581D01*
X7547538Y-9208349D01*
X7528132Y-9199170D01*
X7509719Y-9188134D01*
X7492476Y-9175346D01*
X7476570Y-9160930D01*
X7462154Y-9145024D01*
X7449366Y-9127781D01*
X7438330Y-9109368D01*
X7429151Y-9089962D01*
X7421919Y-9069750D01*
X7416703Y-9048926D01*
X7413553Y-9027691D01*
X7412500Y-9006250D01*
X7412500Y-8568750D01*
X7413553Y-8547309D01*
X7416703Y-8526074D01*
X7421919Y-8505250D01*
X7429151Y-8485038D01*
X7438330Y-8465632D01*
X7449366Y-8447219D01*
X7462154Y-8429976D01*
X7476570Y-8414070D01*
X7492476Y-8399654D01*
X7509719Y-8386866D01*
X7528132Y-8375830D01*
X7547538Y-8366651D01*
X7567750Y-8359419D01*
X7588574Y-8354203D01*
X7609809Y-8351053D01*
X7631250Y-8350000D01*
X8143750Y-8350000D01*
X8165191Y-8351053D01*
X8165191Y-8351053D01*
G37*
D13*
X7887500Y-8787500D03*
D11*
X17000000Y-5500000D03*
D10*
X19300000Y-5500000D03*
X18626346Y-7126346D03*
X17000000Y-7800000D03*
X15373654Y-7126346D03*
X14700000Y-5500000D03*
X15373654Y-3873654D03*
X17000000Y-3200000D03*
X18626346Y-3873654D03*
D11*
X-21000000Y-5500000D03*
D10*
X-18700000Y-5500000D03*
X-19373654Y-7126346D03*
X-21000000Y-7800000D03*
X-22626346Y-7126346D03*
X-23300000Y-5500000D03*
X-22626346Y-3873654D03*
X-21000000Y-3200000D03*
X-19373654Y-3873654D03*
D12*
G36*
X-7750496Y-9076204D02*
G01*
X-7726227Y-9079804D01*
X-7702429Y-9085765D01*
X-7679329Y-9094030D01*
X-7657151Y-9104520D01*
X-7636107Y-9117133D01*
X-7616402Y-9131747D01*
X-7598223Y-9148223D01*
X-7581747Y-9166402D01*
X-7567133Y-9186107D01*
X-7554520Y-9207151D01*
X-7544030Y-9229329D01*
X-7535765Y-9252429D01*
X-7529804Y-9276227D01*
X-7526204Y-9300496D01*
X-7525000Y-9325000D01*
X-7525000Y-10075000D01*
X-7526204Y-10099504D01*
X-7529804Y-10123773D01*
X-7535765Y-10147571D01*
X-7544030Y-10170671D01*
X-7554520Y-10192849D01*
X-7567133Y-10213893D01*
X-7581747Y-10233598D01*
X-7598223Y-10251777D01*
X-7616402Y-10268253D01*
X-7636107Y-10282867D01*
X-7657151Y-10295480D01*
X-7679329Y-10305970D01*
X-7702429Y-10314235D01*
X-7726227Y-10320196D01*
X-7750496Y-10323796D01*
X-7775000Y-10325000D01*
X-9025000Y-10325000D01*
X-9049504Y-10323796D01*
X-9073773Y-10320196D01*
X-9097571Y-10314235D01*
X-9120671Y-10305970D01*
X-9142849Y-10295480D01*
X-9163893Y-10282867D01*
X-9183598Y-10268253D01*
X-9201777Y-10251777D01*
X-9218253Y-10233598D01*
X-9232867Y-10213893D01*
X-9245480Y-10192849D01*
X-9255970Y-10170671D01*
X-9264235Y-10147571D01*
X-9270196Y-10123773D01*
X-9273796Y-10099504D01*
X-9275000Y-10075000D01*
X-9275000Y-9325000D01*
X-9273796Y-9300496D01*
X-9270196Y-9276227D01*
X-9264235Y-9252429D01*
X-9255970Y-9229329D01*
X-9245480Y-9207151D01*
X-9232867Y-9186107D01*
X-9218253Y-9166402D01*
X-9201777Y-9148223D01*
X-9183598Y-9131747D01*
X-9163893Y-9117133D01*
X-9142849Y-9104520D01*
X-9120671Y-9094030D01*
X-9097571Y-9085765D01*
X-9073773Y-9079804D01*
X-9049504Y-9076204D01*
X-9025000Y-9075000D01*
X-7775000Y-9075000D01*
X-7750496Y-9076204D01*
X-7750496Y-9076204D01*
G37*
D16*
X-8400000Y-9700000D03*
D12*
G36*
X-7750496Y-6276204D02*
G01*
X-7726227Y-6279804D01*
X-7702429Y-6285765D01*
X-7679329Y-6294030D01*
X-7657151Y-6304520D01*
X-7636107Y-6317133D01*
X-7616402Y-6331747D01*
X-7598223Y-6348223D01*
X-7581747Y-6366402D01*
X-7567133Y-6386107D01*
X-7554520Y-6407151D01*
X-7544030Y-6429329D01*
X-7535765Y-6452429D01*
X-7529804Y-6476227D01*
X-7526204Y-6500496D01*
X-7525000Y-6525000D01*
X-7525000Y-7275000D01*
X-7526204Y-7299504D01*
X-7529804Y-7323773D01*
X-7535765Y-7347571D01*
X-7544030Y-7370671D01*
X-7554520Y-7392849D01*
X-7567133Y-7413893D01*
X-7581747Y-7433598D01*
X-7598223Y-7451777D01*
X-7616402Y-7468253D01*
X-7636107Y-7482867D01*
X-7657151Y-7495480D01*
X-7679329Y-7505970D01*
X-7702429Y-7514235D01*
X-7726227Y-7520196D01*
X-7750496Y-7523796D01*
X-7775000Y-7525000D01*
X-9025000Y-7525000D01*
X-9049504Y-7523796D01*
X-9073773Y-7520196D01*
X-9097571Y-7514235D01*
X-9120671Y-7505970D01*
X-9142849Y-7495480D01*
X-9163893Y-7482867D01*
X-9183598Y-7468253D01*
X-9201777Y-7451777D01*
X-9218253Y-7433598D01*
X-9232867Y-7413893D01*
X-9245480Y-7392849D01*
X-9255970Y-7370671D01*
X-9264235Y-7347571D01*
X-9270196Y-7323773D01*
X-9273796Y-7299504D01*
X-9275000Y-7275000D01*
X-9275000Y-6525000D01*
X-9273796Y-6500496D01*
X-9270196Y-6476227D01*
X-9264235Y-6452429D01*
X-9255970Y-6429329D01*
X-9245480Y-6407151D01*
X-9232867Y-6386107D01*
X-9218253Y-6366402D01*
X-9201777Y-6348223D01*
X-9183598Y-6331747D01*
X-9163893Y-6317133D01*
X-9142849Y-6304520D01*
X-9120671Y-6294030D01*
X-9097571Y-6285765D01*
X-9073773Y-6279804D01*
X-9049504Y-6276204D01*
X-9025000Y-6275000D01*
X-7775000Y-6275000D01*
X-7750496Y-6276204D01*
X-7750496Y-6276204D01*
G37*
D16*
X-8400000Y-6900000D03*
D12*
G36*
X9080142Y-3988674D02*
G01*
X9103803Y-3992184D01*
X9127007Y-3997996D01*
X9149529Y-4006054D01*
X9171153Y-4016282D01*
X9191670Y-4028579D01*
X9210883Y-4042829D01*
X9228607Y-4058893D01*
X9244671Y-4076617D01*
X9258921Y-4095830D01*
X9271218Y-4116347D01*
X9281446Y-4137971D01*
X9289504Y-4160493D01*
X9295316Y-4183697D01*
X9298826Y-4207358D01*
X9300000Y-4231250D01*
X9300000Y-4718750D01*
X9298826Y-4742642D01*
X9295316Y-4766303D01*
X9289504Y-4789507D01*
X9281446Y-4812029D01*
X9271218Y-4833653D01*
X9258921Y-4854170D01*
X9244671Y-4873383D01*
X9228607Y-4891107D01*
X9210883Y-4907171D01*
X9191670Y-4921421D01*
X9171153Y-4933718D01*
X9149529Y-4943946D01*
X9127007Y-4952004D01*
X9103803Y-4957816D01*
X9080142Y-4961326D01*
X9056250Y-4962500D01*
X8143750Y-4962500D01*
X8119858Y-4961326D01*
X8096197Y-4957816D01*
X8072993Y-4952004D01*
X8050471Y-4943946D01*
X8028847Y-4933718D01*
X8008330Y-4921421D01*
X7989117Y-4907171D01*
X7971393Y-4891107D01*
X7955329Y-4873383D01*
X7941079Y-4854170D01*
X7928782Y-4833653D01*
X7918554Y-4812029D01*
X7910496Y-4789507D01*
X7904684Y-4766303D01*
X7901174Y-4742642D01*
X7900000Y-4718750D01*
X7900000Y-4231250D01*
X7901174Y-4207358D01*
X7904684Y-4183697D01*
X7910496Y-4160493D01*
X7918554Y-4137971D01*
X7928782Y-4116347D01*
X7941079Y-4095830D01*
X7955329Y-4076617D01*
X7971393Y-4058893D01*
X7989117Y-4042829D01*
X8008330Y-4028579D01*
X8028847Y-4016282D01*
X8050471Y-4006054D01*
X8072993Y-3997996D01*
X8096197Y-3992184D01*
X8119858Y-3988674D01*
X8143750Y-3987500D01*
X9056250Y-3987500D01*
X9080142Y-3988674D01*
X9080142Y-3988674D01*
G37*
D17*
X8600000Y-4475000D03*
D12*
G36*
X9080142Y-2113674D02*
G01*
X9103803Y-2117184D01*
X9127007Y-2122996D01*
X9149529Y-2131054D01*
X9171153Y-2141282D01*
X9191670Y-2153579D01*
X9210883Y-2167829D01*
X9228607Y-2183893D01*
X9244671Y-2201617D01*
X9258921Y-2220830D01*
X9271218Y-2241347D01*
X9281446Y-2262971D01*
X9289504Y-2285493D01*
X9295316Y-2308697D01*
X9298826Y-2332358D01*
X9300000Y-2356250D01*
X9300000Y-2843750D01*
X9298826Y-2867642D01*
X9295316Y-2891303D01*
X9289504Y-2914507D01*
X9281446Y-2937029D01*
X9271218Y-2958653D01*
X9258921Y-2979170D01*
X9244671Y-2998383D01*
X9228607Y-3016107D01*
X9210883Y-3032171D01*
X9191670Y-3046421D01*
X9171153Y-3058718D01*
X9149529Y-3068946D01*
X9127007Y-3077004D01*
X9103803Y-3082816D01*
X9080142Y-3086326D01*
X9056250Y-3087500D01*
X8143750Y-3087500D01*
X8119858Y-3086326D01*
X8096197Y-3082816D01*
X8072993Y-3077004D01*
X8050471Y-3068946D01*
X8028847Y-3058718D01*
X8008330Y-3046421D01*
X7989117Y-3032171D01*
X7971393Y-3016107D01*
X7955329Y-2998383D01*
X7941079Y-2979170D01*
X7928782Y-2958653D01*
X7918554Y-2937029D01*
X7910496Y-2914507D01*
X7904684Y-2891303D01*
X7901174Y-2867642D01*
X7900000Y-2843750D01*
X7900000Y-2356250D01*
X7901174Y-2332358D01*
X7904684Y-2308697D01*
X7910496Y-2285493D01*
X7918554Y-2262971D01*
X7928782Y-2241347D01*
X7941079Y-2220830D01*
X7955329Y-2201617D01*
X7971393Y-2183893D01*
X7989117Y-2167829D01*
X8008330Y-2153579D01*
X8028847Y-2141282D01*
X8050471Y-2131054D01*
X8072993Y-2122996D01*
X8096197Y-2117184D01*
X8119858Y-2113674D01*
X8143750Y-2112500D01*
X9056250Y-2112500D01*
X9080142Y-2113674D01*
X9080142Y-2113674D01*
G37*
D17*
X8600000Y-2600000D03*
D10*
X-3600000Y-9300000D03*
X4300000Y-9300000D03*
X-10100000Y-3300000D03*
X-12500000Y-3300000D03*
X-15100000Y-7100000D03*
X-15100000Y-3100000D03*
X-16400000Y-5100000D03*
X16400000Y-18900000D03*
X-4300000Y-14700000D03*
X15100000Y-16900000D03*
X10100000Y-20700000D03*
X3600000Y-14700000D03*
X12500000Y-20700000D03*
X15100000Y-20900000D03*
X-8400000Y-8400000D03*
X-2450000Y-9300000D03*
X3000000Y-9300000D03*
X2450000Y-14700000D03*
X8400000Y-15600000D03*
X-3000000Y-14700000D03*
X-1250000Y-9300000D03*
X1500000Y-10000000D03*
X-1500000Y-14000000D03*
X1250000Y-14700000D03*
D24*
X3225000Y-7695000D02*
X3225000Y-8225000D01*
X3225000Y-8225000D02*
X4300000Y-9300000D01*
X4300000Y-9300000D02*
X6387500Y-7212500D01*
X6387500Y-7212500D02*
X7887500Y-7212500D01*
X6387500Y-5400000D02*
X6387500Y-7212500D01*
X-3600000Y-9300000D02*
X-5500000Y-9300000D01*
X-15100000Y-3100000D02*
X-15100000Y-1500000D01*
X-7200000Y-1500000D02*
X-5500000Y-1500000D01*
X-5500000Y-3600000D02*
X-5500000Y-1500000D01*
X-5500000Y-3600000D02*
X-5502407Y-3649008D01*
X-5502407Y-3649008D02*
X-5509607Y-3697545D01*
X-5509607Y-3697545D02*
X-5521529Y-3745142D01*
X-5521529Y-3745142D02*
X-5538060Y-3791341D01*
X-5538060Y-3791341D02*
X-5559039Y-3835698D01*
X-5559039Y-3835698D02*
X-5584265Y-3877785D01*
X-5584265Y-3877785D02*
X-5613494Y-3917196D01*
X-5613494Y-3917196D02*
X-5646446Y-3953553D01*
X-5646446Y-3953553D02*
X-5682803Y-3986505D01*
X-5682803Y-3986505D02*
X-5722214Y-4015734D01*
X-5722214Y-4015734D02*
X-5764301Y-4040960D01*
X-5764301Y-4040960D02*
X-5808658Y-4061939D01*
X-5808658Y-4061939D02*
X-5854857Y-4078470D01*
X-5854857Y-4078470D02*
X-5902454Y-4090392D01*
X-5902454Y-4090392D02*
X-5950991Y-4097592D01*
X-5950991Y-4097592D02*
X-6000000Y-4100000D01*
X-5500000Y-4600000D02*
X-5500000Y-9300000D01*
X-5500000Y-4600000D02*
X-5502407Y-4550991D01*
X-5502407Y-4550991D02*
X-5509607Y-4502454D01*
X-5509607Y-4502454D02*
X-5521529Y-4454857D01*
X-5521529Y-4454857D02*
X-5538060Y-4408658D01*
X-5538060Y-4408658D02*
X-5559039Y-4364301D01*
X-5559039Y-4364301D02*
X-5584265Y-4322214D01*
X-5584265Y-4322214D02*
X-5613494Y-4282803D01*
X-5613494Y-4282803D02*
X-5646446Y-4246446D01*
X-5646446Y-4246446D02*
X-5682803Y-4213494D01*
X-5682803Y-4213494D02*
X-5722214Y-4184265D01*
X-5722214Y-4184265D02*
X-5764301Y-4159039D01*
X-5764301Y-4159039D02*
X-5808658Y-4138060D01*
X-5808658Y-4138060D02*
X-5854857Y-4121529D01*
X-5854857Y-4121529D02*
X-5902454Y-4109607D01*
X-5902454Y-4109607D02*
X-5950991Y-4102407D01*
X-5950991Y-4102407D02*
X-6000000Y-4100000D01*
X-6000000Y-4100000D02*
X-6600000Y-4100000D01*
X8170342Y-4904657D02*
X8600000Y-4475000D01*
X8170342Y-4904657D02*
X8137658Y-4938984D01*
X8137658Y-4938984D02*
X8106699Y-4974875D01*
X8106699Y-4974875D02*
X8077538Y-5012241D01*
X8077538Y-5012241D02*
X8050246Y-5050993D01*
X8050246Y-5050993D02*
X8024888Y-5091038D01*
X8024888Y-5091038D02*
X8001526Y-5132278D01*
X8001526Y-5132278D02*
X7980215Y-5174616D01*
X7980215Y-5174616D02*
X7961007Y-5217948D01*
X7961007Y-5217948D02*
X7943949Y-5262170D01*
X7943949Y-5262170D02*
X7929081Y-5307176D01*
X7929081Y-5307176D02*
X7916439Y-5352857D01*
X7916439Y-5352857D02*
X7906054Y-5399104D01*
X7906054Y-5399104D02*
X7897951Y-5445804D01*
X7897951Y-5445804D02*
X7892149Y-5492846D01*
X7892149Y-5492846D02*
X7888662Y-5540116D01*
X7888662Y-5540116D02*
X7887500Y-5587500D01*
X7887500Y-5587500D02*
X7887500Y-7212500D01*
X-3225000Y-8525000D02*
X-3225000Y-7695000D01*
X-3225000Y-8525000D02*
X-3226163Y-8572383D01*
X-3226163Y-8572383D02*
X-3229650Y-8619653D01*
X-3229650Y-8619653D02*
X-3235452Y-8666695D01*
X-3235452Y-8666695D02*
X-3243555Y-8713395D01*
X-3243555Y-8713395D02*
X-3253940Y-8759642D01*
X-3253940Y-8759642D02*
X-3266582Y-8805323D01*
X-3266582Y-8805323D02*
X-3281449Y-8850329D01*
X-3281449Y-8850329D02*
X-3298508Y-8894551D01*
X-3298508Y-8894551D02*
X-3317716Y-8937883D01*
X-3317716Y-8937883D02*
X-3339026Y-8980220D01*
X-3339026Y-8980220D02*
X-3362389Y-9021460D01*
X-3362389Y-9021460D02*
X-3387747Y-9061505D01*
X-3387747Y-9061505D02*
X-3415039Y-9100257D01*
X-3415039Y-9100257D02*
X-3444200Y-9137623D01*
X-3444200Y-9137623D02*
X-3475159Y-9173513D01*
X-3475159Y-9173513D02*
X-3507842Y-9207842D01*
X-3507842Y-9207842D02*
X-3600000Y-9300000D01*
X-15100000Y-3100000D02*
X-15100000Y-5100000D01*
X-13400000Y-1500000D02*
X-15100000Y-1500000D01*
X-6387500Y-16787500D02*
X-7887500Y-16787500D01*
X13400000Y-22500000D02*
X15100000Y-22500000D01*
X3225000Y-15475000D02*
X3225000Y-16305000D01*
X5500000Y-19400000D02*
X5500000Y-14700000D01*
X5613494Y-19717197D02*
X5646446Y-19753554D01*
X15100000Y-20900000D02*
X15100000Y-18900000D01*
X5500000Y-19400000D02*
X5502407Y-19449009D01*
X3225000Y-15475000D02*
X3226163Y-15427617D01*
X5502407Y-19449009D02*
X5509607Y-19497546D01*
X5902454Y-19890393D02*
X5950991Y-19897593D01*
X5646446Y-19753554D02*
X5682803Y-19786506D01*
X-8024888Y-18908962D02*
X-8001526Y-18867722D01*
X5854857Y-19878471D02*
X5902454Y-19890393D01*
X5559039Y-19635699D02*
X5584265Y-19677786D01*
X5808658Y-19861940D02*
X5854857Y-19878471D01*
X-7980215Y-18825384D02*
X-7961007Y-18782052D01*
X-8106699Y-19025125D02*
X-8077538Y-18987759D01*
X-8170342Y-19095343D02*
X-8600000Y-19525000D01*
X5682803Y-19786506D02*
X5722214Y-19815735D01*
X-8137658Y-19061016D02*
X-8106699Y-19025125D01*
X3229650Y-15380347D02*
X3235452Y-15333305D01*
X5538060Y-19591342D02*
X5559039Y-19635699D01*
X5764301Y-19840961D02*
X5808658Y-19861940D01*
X-7906054Y-18600896D02*
X-7897951Y-18554196D01*
X3415039Y-14899743D02*
X3444200Y-14862377D01*
X5902454Y-19909608D02*
X5950991Y-19902408D01*
X3281449Y-15149671D02*
X3298508Y-15105449D01*
X-7888662Y-18459884D02*
X-7887500Y-18412500D01*
X3387747Y-14938495D02*
X3415039Y-14899743D01*
X-8077538Y-18987759D02*
X-8050246Y-18949007D01*
X-7887500Y-18412500D02*
X-7887500Y-16787500D01*
X5950991Y-19902408D02*
X6000000Y-19900000D01*
X3253940Y-15240358D02*
X3266582Y-15194677D01*
X3235452Y-15333305D02*
X3243555Y-15286605D01*
X5509607Y-19497546D02*
X5521529Y-19545143D01*
X3444200Y-14862377D02*
X3475159Y-14826487D01*
X3475159Y-14826487D02*
X3507842Y-14792158D01*
X3339026Y-15019780D02*
X3362389Y-14978540D01*
X-7943949Y-18737830D02*
X-7929081Y-18692824D01*
X6000000Y-19900000D02*
X6600000Y-19900000D01*
X3507842Y-14792158D02*
X3600000Y-14700000D01*
X-7897951Y-18554196D02*
X-7892149Y-18507154D01*
X5521529Y-19545143D02*
X5538060Y-19591342D01*
X3243555Y-15286605D02*
X3253940Y-15240358D01*
X-7916439Y-18647143D02*
X-7906054Y-18600896D01*
X5584265Y-19677786D02*
X5613494Y-19717197D01*
X-8170342Y-19095343D02*
X-8137658Y-19061016D01*
X5854857Y-19921530D02*
X5902454Y-19909608D01*
X3362389Y-14978540D02*
X3387747Y-14938495D01*
X3226163Y-15427617D02*
X3229650Y-15380347D01*
X-8001526Y-18867722D02*
X-7980215Y-18825384D01*
X-7892149Y-18507154D02*
X-7888662Y-18459884D01*
X5722214Y-19815735D02*
X5764301Y-19840961D01*
X3317716Y-15062117D02*
X3339026Y-15019780D01*
X-6387500Y-18600000D02*
X-6387500Y-16787500D01*
X-3225000Y-16305000D02*
X-3225000Y-15775000D01*
X-4300000Y-14700000D02*
X-6387500Y-16787500D01*
X5500000Y-20400000D02*
X5500000Y-22500000D01*
X3600000Y-14700000D02*
X5500000Y-14700000D01*
X15100000Y-20900000D02*
X15100000Y-22500000D01*
X5808658Y-19938061D02*
X5854857Y-19921530D01*
X5500000Y-20400000D02*
X5502407Y-20350992D01*
X5950991Y-19897593D02*
X6000000Y-19900000D01*
X5509607Y-20302455D02*
X5521529Y-20254858D01*
X-7929081Y-18692824D02*
X-7916439Y-18647143D01*
X3298508Y-15105449D02*
X3317716Y-15062117D01*
X-8050246Y-18949007D02*
X-8024888Y-18908962D01*
X3266582Y-15194677D02*
X3281449Y-15149671D01*
X-7961007Y-18782052D02*
X-7943949Y-18737830D01*
X5682803Y-20013495D02*
X5722214Y-19984266D01*
X5764301Y-19959040D02*
X5808658Y-19938061D01*
X5559039Y-20164302D02*
X5584265Y-20122215D01*
X5722214Y-19984266D02*
X5764301Y-19959040D01*
X5613494Y-20082804D02*
X5646446Y-20046447D01*
X5538060Y-20208659D02*
X5559039Y-20164302D01*
X5584265Y-20122215D02*
X5613494Y-20082804D01*
X5521529Y-20254858D02*
X5538060Y-20208659D01*
X7200000Y-22500000D02*
X5500000Y-22500000D01*
X5646446Y-20046447D02*
X5682803Y-20013495D01*
X-3225000Y-15775000D02*
X-4300000Y-14700000D01*
X5502407Y-20350992D02*
X5509607Y-20302455D01*
X-4320000Y-2600000D02*
X-4320000Y-6780000D01*
X-4320000Y-2600000D02*
X4320000Y-2600000D01*
X4320000Y-2600000D02*
X4320000Y-6780000D01*
X6387500Y-2600000D02*
X8600000Y-2600000D01*
X4320000Y-2600000D02*
X6387500Y-2600000D01*
D25*
X17000000Y-5500000D02*
X11500000Y-5500000D01*
D24*
X14707106Y-3207106D02*
X17000000Y-5500000D01*
X14707106Y-3207106D02*
X14621285Y-3125398D01*
X14621285Y-3125398D02*
X14531560Y-3048000D01*
X14531560Y-3048000D02*
X14438144Y-2975098D01*
X14438144Y-2975098D02*
X14341264Y-2906867D01*
X14341264Y-2906867D02*
X14241153Y-2843472D01*
X14241153Y-2843472D02*
X14138051Y-2785066D01*
X14138051Y-2785066D02*
X14032208Y-2731789D01*
X14032208Y-2731789D02*
X13923879Y-2683770D01*
X13923879Y-2683770D02*
X13813323Y-2641124D01*
X13813323Y-2641124D02*
X13700808Y-2603954D01*
X13700808Y-2603954D02*
X13586605Y-2572350D01*
X13586605Y-2572350D02*
X13470989Y-2546387D01*
X13470989Y-2546387D02*
X13354238Y-2526129D01*
X13354238Y-2526129D02*
X13236634Y-2511624D01*
X13236634Y-2511624D02*
X13118459Y-2502907D01*
X13118459Y-2502907D02*
X13000000Y-2500000D01*
X13000000Y-2500000D02*
X11000000Y-2500000D01*
X15500000Y-700000D02*
X12500000Y-700000D01*
X15500000Y-700000D02*
X15647025Y-707222D01*
X15647025Y-707222D02*
X15792635Y-728822D01*
X15792635Y-728822D02*
X15935427Y-764589D01*
X15935427Y-764589D02*
X16074025Y-814180D01*
X16074025Y-814180D02*
X16207095Y-877118D01*
X16207095Y-877118D02*
X16333355Y-952795D01*
X16333355Y-952795D02*
X16451589Y-1040484D01*
X16451589Y-1040484D02*
X16560660Y-1139339D01*
X16560660Y-1139339D02*
X16659515Y-1248410D01*
X16659515Y-1248410D02*
X16747204Y-1366644D01*
X16747204Y-1366644D02*
X16822881Y-1492904D01*
X16822881Y-1492904D02*
X16885819Y-1625974D01*
X16885819Y-1625974D02*
X16935410Y-1764572D01*
X16935410Y-1764572D02*
X16971177Y-1907364D01*
X16971177Y-1907364D02*
X16992777Y-2052974D01*
X16992777Y-2052974D02*
X17000000Y-2200000D01*
X17000000Y-2200000D02*
X17000000Y-5500000D01*
X13000001Y-8499999D02*
X11499999Y-8499999D01*
X13000001Y-8499999D02*
X13118460Y-8497090D01*
X13118460Y-8497090D02*
X13236635Y-8488373D01*
X13236635Y-8488373D02*
X13354239Y-8473868D01*
X13354239Y-8473868D02*
X13470990Y-8453610D01*
X13470990Y-8453610D02*
X13586606Y-8427647D01*
X13586606Y-8427647D02*
X13700809Y-8396043D01*
X13700809Y-8396043D02*
X13813324Y-8358873D01*
X13813324Y-8358873D02*
X13923880Y-8316227D01*
X13923880Y-8316227D02*
X14032209Y-8268208D01*
X14032209Y-8268208D02*
X14138052Y-8214931D01*
X14138052Y-8214931D02*
X14241154Y-8156524D01*
X14241154Y-8156524D02*
X14341265Y-8093130D01*
X14341265Y-8093130D02*
X14438145Y-8024899D01*
X14438145Y-8024899D02*
X14531560Y-7951997D01*
X14531560Y-7951997D02*
X14621286Y-7874599D01*
X14621286Y-7874599D02*
X14707107Y-7792892D01*
X14707107Y-7792892D02*
X17000000Y-5500000D01*
X-14621286Y-16125401D02*
X-14707107Y-16207108D01*
X-14341265Y-15906870D02*
X-14438145Y-15975101D01*
X-13000001Y-15500001D02*
X-11499999Y-15500001D01*
X-16659515Y-22751590D02*
X-16747204Y-22633356D01*
X-16971177Y-22092636D02*
X-16992777Y-21947026D01*
X-15792635Y-23271178D02*
X-15935427Y-23235411D01*
X-16992777Y-21947026D02*
X-17000000Y-21800000D01*
X-16885819Y-22374026D02*
X-16935410Y-22235428D01*
X-13923880Y-15683773D02*
X-14032209Y-15731792D01*
X-14032209Y-15731792D02*
X-14138052Y-15785069D01*
X-14707107Y-16207108D02*
X-17000000Y-18500000D01*
X-16935410Y-22235428D02*
X-16971177Y-22092636D01*
X-13118460Y-15502910D02*
X-13236635Y-15511627D01*
X-16451589Y-22959516D02*
X-16560660Y-22860661D01*
X-16822881Y-22507096D02*
X-16885819Y-22374026D01*
X-16747204Y-22633356D02*
X-16822881Y-22507096D01*
X-13586606Y-15572353D02*
X-13700809Y-15603957D01*
X-13354239Y-15526132D02*
X-13470990Y-15546390D01*
X-15500000Y-23300000D02*
X-15647025Y-23292778D01*
X-13813324Y-15641127D02*
X-13923880Y-15683773D01*
X-14438145Y-15975101D02*
X-14531560Y-16048003D01*
X-14138052Y-15785069D02*
X-14241154Y-15843476D01*
X-14531560Y-16048003D02*
X-14621286Y-16125401D01*
X-13000001Y-15500001D02*
X-13118460Y-15502910D01*
X-16333355Y-23047205D02*
X-16451589Y-22959516D01*
X-16074025Y-23185820D02*
X-16207095Y-23122882D01*
X-13470990Y-15546390D02*
X-13586606Y-15572353D01*
X-14241154Y-15843476D02*
X-14341265Y-15906870D01*
X-13700809Y-15603957D02*
X-13813324Y-15641127D01*
X-13236635Y-15511627D02*
X-13354239Y-15526132D01*
X-13236634Y-21488376D02*
X-13118459Y-21497093D01*
X-4320000Y-21400000D02*
X-4320000Y-17220000D01*
X-6387500Y-21400000D02*
X-8600000Y-21400000D01*
X-15647025Y-23292778D02*
X-15792635Y-23271178D01*
X-16560660Y-22860661D02*
X-16659515Y-22751590D01*
X-16207095Y-23122882D02*
X-16333355Y-23047205D01*
X-15935427Y-23235411D02*
X-16074025Y-23185820D01*
X-14707106Y-20792894D02*
X-17000000Y-18500000D01*
X-17000000Y-21800000D02*
X-17000000Y-18500000D01*
X-14138051Y-21214934D02*
X-14032208Y-21268211D01*
X-4320000Y-21400000D02*
X-6387500Y-21400000D01*
X-14531560Y-20952000D02*
X-14438144Y-21024902D01*
X-14241153Y-21156528D02*
X-14138051Y-21214934D01*
X-13470989Y-21453613D02*
X-13354238Y-21473871D01*
X4320000Y-21400000D02*
X4320000Y-17220000D01*
X-14621285Y-20874602D02*
X-14531560Y-20952000D01*
X-14032208Y-21268211D02*
X-13923879Y-21316230D01*
X-14707106Y-20792894D02*
X-14621285Y-20874602D01*
X4320000Y-21400000D02*
X-4320000Y-21400000D01*
X-13586605Y-21427650D02*
X-13470989Y-21453613D01*
X-13354238Y-21473871D02*
X-13236634Y-21488376D01*
X-13923879Y-21316230D02*
X-13813323Y-21358876D01*
X-13813323Y-21358876D02*
X-13700808Y-21396046D01*
X-14341264Y-21093133D02*
X-14241153Y-21156528D01*
X-13118459Y-21497093D02*
X-13000000Y-21500000D01*
X-14438144Y-21024902D02*
X-14341264Y-21093133D01*
X-13700808Y-21396046D02*
X-13586605Y-21427650D01*
X-13000000Y-21500000D02*
X-11000000Y-21500000D01*
X-15500000Y-23300000D02*
X-12500000Y-23300000D01*
D25*
X-17000000Y-18500000D02*
X-11500000Y-18500000D01*
D24*
X-2450000Y-7695000D02*
X-2450000Y-9300000D01*
X2450000Y-8350000D02*
X2450000Y-7695000D01*
X2450000Y-8350000D02*
X2451163Y-8397383D01*
X2451163Y-8397383D02*
X2454650Y-8444653D01*
X2454650Y-8444653D02*
X2460452Y-8491695D01*
X2460452Y-8491695D02*
X2468555Y-8538395D01*
X2468555Y-8538395D02*
X2478940Y-8584642D01*
X2478940Y-8584642D02*
X2491582Y-8630323D01*
X2491582Y-8630323D02*
X2506449Y-8675329D01*
X2506449Y-8675329D02*
X2523508Y-8719551D01*
X2523508Y-8719551D02*
X2542716Y-8762883D01*
X2542716Y-8762883D02*
X2564026Y-8805220D01*
X2564026Y-8805220D02*
X2587389Y-8846460D01*
X2587389Y-8846460D02*
X2612747Y-8886505D01*
X2612747Y-8886505D02*
X2640039Y-8925257D01*
X2640039Y-8925257D02*
X2669200Y-8962623D01*
X2669200Y-8962623D02*
X2700159Y-8998513D01*
X2700159Y-8998513D02*
X2732842Y-9032842D01*
X2732842Y-9032842D02*
X3000000Y-9300000D01*
X-8400000Y-9700000D02*
X-8400000Y-8400000D01*
X-2564026Y-15194780D02*
X-2587389Y-15153540D01*
X-2669200Y-15037377D02*
X-2700159Y-15001487D01*
X-2542716Y-15237117D02*
X-2564026Y-15194780D01*
X-2523508Y-15280449D02*
X-2542716Y-15237117D01*
X-2460452Y-15508305D02*
X-2468555Y-15461605D01*
X-2491582Y-15369677D02*
X-2506449Y-15324671D01*
X2450000Y-16305000D02*
X2450000Y-14700000D01*
X-2732842Y-14967158D02*
X-3000000Y-14700000D01*
X-2587389Y-15153540D02*
X-2612747Y-15113495D01*
X-2468555Y-15461605D02*
X-2478940Y-15415358D01*
X-2640039Y-15074743D02*
X-2669200Y-15037377D01*
X-2454650Y-15555347D02*
X-2460452Y-15508305D01*
X-2506449Y-15324671D02*
X-2523508Y-15280449D01*
X-2700159Y-15001487D02*
X-2732842Y-14967158D01*
X-2612747Y-15113495D02*
X-2640039Y-15074743D01*
X-2478940Y-15415358D02*
X-2491582Y-15369677D01*
X8400000Y-14300000D02*
X8400000Y-15600000D01*
X-2451163Y-15602617D02*
X-2454650Y-15555347D01*
X-2450000Y-15650000D02*
X-2451163Y-15602617D01*
X-2450000Y-15650000D02*
X-2450000Y-16305000D01*
X-9900000Y-5000000D02*
X-9898836Y-5047383D01*
X-9898836Y-5047383D02*
X-9895349Y-5094653D01*
X-9895349Y-5094653D02*
X-9889547Y-5141695D01*
X-9889547Y-5141695D02*
X-9881444Y-5188395D01*
X-9881444Y-5188395D02*
X-9871059Y-5234642D01*
X-9871059Y-5234642D02*
X-9858417Y-5280323D01*
X-9858417Y-5280323D02*
X-9843549Y-5325329D01*
X-9843549Y-5325329D02*
X-9826491Y-5369551D01*
X-9826491Y-5369551D02*
X-9807283Y-5412883D01*
X-9807283Y-5412883D02*
X-9785972Y-5455220D01*
X-9785972Y-5455220D02*
X-9762610Y-5496460D01*
X-9762610Y-5496460D02*
X-9737252Y-5536505D01*
X-9737252Y-5536505D02*
X-9709959Y-5575257D01*
X-9709959Y-5575257D02*
X-9680798Y-5612623D01*
X-9680798Y-5612623D02*
X-9649839Y-5648513D01*
X-9649839Y-5648513D02*
X-9617157Y-5682842D01*
X-9617157Y-5682842D02*
X-8400000Y-6900000D01*
D26*
X-12100000Y-5200000D02*
X-12100000Y-4200000D01*
D24*
X-9500000Y-4100000D02*
X-8800000Y-4100000D01*
X-9500000Y-4100000D02*
X-9539206Y-4101926D01*
X-9539206Y-4101926D02*
X-9578036Y-4107685D01*
X-9578036Y-4107685D02*
X-9616113Y-4117223D01*
X-9616113Y-4117223D02*
X-9653073Y-4130448D01*
X-9653073Y-4130448D02*
X-9688558Y-4147231D01*
X-9688558Y-4147231D02*
X-9722228Y-4167412D01*
X-9722228Y-4167412D02*
X-9753757Y-4190795D01*
X-9753757Y-4190795D02*
X-9782842Y-4217157D01*
X-9782842Y-4217157D02*
X-9809204Y-4246242D01*
X-9809204Y-4246242D02*
X-9832587Y-4277771D01*
X-9832587Y-4277771D02*
X-9852768Y-4311441D01*
X-9852768Y-4311441D02*
X-9869551Y-4346926D01*
X-9869551Y-4346926D02*
X-9882776Y-4383886D01*
X-9882776Y-4383886D02*
X-9892314Y-4421963D01*
X-9892314Y-4421963D02*
X-9898073Y-4460793D01*
X-9898073Y-4460793D02*
X-9900000Y-4500000D01*
X-10300000Y-4100000D02*
X-12100000Y-4100000D01*
X-10300000Y-4100000D02*
X-10260793Y-4101926D01*
X-10260793Y-4101926D02*
X-10221963Y-4107685D01*
X-10221963Y-4107685D02*
X-10183886Y-4117223D01*
X-10183886Y-4117223D02*
X-10146926Y-4130448D01*
X-10146926Y-4130448D02*
X-10111441Y-4147231D01*
X-10111441Y-4147231D02*
X-10077771Y-4167412D01*
X-10077771Y-4167412D02*
X-10046242Y-4190795D01*
X-10046242Y-4190795D02*
X-10017157Y-4217157D01*
X-10017157Y-4217157D02*
X-9990795Y-4246242D01*
X-9990795Y-4246242D02*
X-9967412Y-4277771D01*
X-9967412Y-4277771D02*
X-9947231Y-4311441D01*
X-9947231Y-4311441D02*
X-9930448Y-4346926D01*
X-9930448Y-4346926D02*
X-9917223Y-4383886D01*
X-9917223Y-4383886D02*
X-9907685Y-4421963D01*
X-9907685Y-4421963D02*
X-9901926Y-4460793D01*
X-9901926Y-4460793D02*
X-9900000Y-4500000D01*
X-9900000Y-4500000D02*
X-9900000Y-5000000D01*
X9901926Y-19539207D02*
X9900000Y-19500000D01*
X9500000Y-19900000D02*
X9539206Y-19898074D01*
X9649839Y-18351487D02*
X9617157Y-18317158D01*
X10046242Y-19809205D02*
X10017157Y-19782843D01*
X9858417Y-18719677D02*
X9843549Y-18674671D01*
X9889547Y-18858305D02*
X9881444Y-18811605D01*
X9967412Y-19722229D02*
X9947231Y-19688559D01*
X10300000Y-19900000D02*
X12100000Y-19900000D01*
D26*
X12100000Y-18800000D02*
X12100000Y-19800000D01*
D24*
X10146926Y-19869552D02*
X10111441Y-19852769D01*
X10260793Y-19898074D02*
X10221963Y-19892315D01*
X9617157Y-18317158D02*
X8400000Y-17100000D01*
X10183886Y-19882777D02*
X10146926Y-19869552D01*
X9653073Y-19869552D02*
X9688558Y-19852769D01*
X9709959Y-18424743D02*
X9680798Y-18387377D01*
X9898073Y-19539207D02*
X9900000Y-19500000D01*
X9892314Y-19578037D02*
X9898073Y-19539207D01*
X9782842Y-19782843D02*
X9809204Y-19753758D01*
X9947231Y-19688559D02*
X9930448Y-19653074D01*
X9688558Y-19852769D02*
X9722228Y-19832588D01*
X9578036Y-19892315D02*
X9616113Y-19882777D01*
X9680798Y-18387377D02*
X9649839Y-18351487D01*
X10221963Y-19892315D02*
X10183886Y-19882777D01*
X9917223Y-19616114D02*
X9907685Y-19578037D01*
X9539206Y-19898074D02*
X9578036Y-19892315D01*
X9907685Y-19578037D02*
X9901926Y-19539207D01*
X9930448Y-19653074D02*
X9917223Y-19616114D01*
X9895349Y-18905347D02*
X9889547Y-18858305D01*
X9737252Y-18463495D02*
X9709959Y-18424743D01*
X9826491Y-18630449D02*
X9807283Y-18587117D01*
X9882776Y-19616114D02*
X9892314Y-19578037D01*
X10300000Y-19900000D02*
X10260793Y-19898074D01*
X10077771Y-19832588D02*
X10046242Y-19809205D01*
X9616113Y-19882777D02*
X9653073Y-19869552D01*
X9809204Y-19753758D02*
X9832587Y-19722229D01*
X9881444Y-18811605D02*
X9871059Y-18765358D01*
X9753757Y-19809205D02*
X9782842Y-19782843D01*
X10111441Y-19852769D02*
X10077771Y-19832588D01*
X9832587Y-19722229D02*
X9852768Y-19688559D01*
X9762610Y-18503540D02*
X9737252Y-18463495D01*
X9843549Y-18674671D02*
X9826491Y-18630449D01*
X9852768Y-19688559D02*
X9869551Y-19653074D01*
X9869551Y-19653074D02*
X9882776Y-19616114D01*
X9722228Y-19832588D02*
X9753757Y-19809205D01*
X10017157Y-19782843D02*
X9990795Y-19753758D01*
X9807283Y-18587117D02*
X9785972Y-18544780D01*
X9898836Y-18952617D02*
X9895349Y-18905347D01*
X9785972Y-18544780D02*
X9762610Y-18503540D01*
X9900000Y-19000000D02*
X9898836Y-18952617D01*
X9500000Y-19900000D02*
X8800000Y-19900000D01*
X9871059Y-18765358D02*
X9858417Y-18719677D01*
X9990795Y-19753758D02*
X9967412Y-19722229D01*
X9900000Y-19500000D02*
X9900000Y-19000000D01*
D27*
X-1250000Y-7695000D02*
X-1250000Y-9300000D01*
X7887500Y-9750000D02*
X7887500Y-8787500D01*
X7887500Y-9750000D02*
X7883888Y-9823512D01*
X7883888Y-9823512D02*
X7873088Y-9896317D01*
X7873088Y-9896317D02*
X7855205Y-9967713D01*
X7855205Y-9967713D02*
X7830409Y-10037012D01*
X7830409Y-10037012D02*
X7798940Y-10103547D01*
X7798940Y-10103547D02*
X7761102Y-10166677D01*
X7761102Y-10166677D02*
X7717257Y-10225794D01*
X7717257Y-10225794D02*
X7667830Y-10280330D01*
X7667830Y-10280330D02*
X7613294Y-10329757D01*
X7613294Y-10329757D02*
X7554177Y-10373602D01*
X7554177Y-10373602D02*
X7491047Y-10411440D01*
X7491047Y-10411440D02*
X7424512Y-10442909D01*
X7424512Y-10442909D02*
X7355213Y-10467705D01*
X7355213Y-10467705D02*
X7283817Y-10485588D01*
X7283817Y-10485588D02*
X7211012Y-10496388D01*
X7211012Y-10496388D02*
X7137500Y-10500000D01*
X1505025Y-10005025D02*
X1500000Y-10000000D01*
X1505025Y-10005025D02*
X1565099Y-10062220D01*
X1565099Y-10062220D02*
X1627907Y-10116398D01*
X1627907Y-10116398D02*
X1693298Y-10167430D01*
X1693298Y-10167430D02*
X1761114Y-10215191D01*
X1761114Y-10215191D02*
X1831192Y-10259568D01*
X1831192Y-10259568D02*
X1903363Y-10300452D01*
X1903363Y-10300452D02*
X1977453Y-10337746D01*
X1977453Y-10337746D02*
X2053284Y-10371360D01*
X2053284Y-10371360D02*
X2130673Y-10401212D01*
X2130673Y-10401212D02*
X2209433Y-10427231D01*
X2209433Y-10427231D02*
X2289375Y-10449354D01*
X2289375Y-10449354D02*
X2370307Y-10467527D01*
X2370307Y-10467527D02*
X2452032Y-10481708D01*
X2452032Y-10481708D02*
X2534355Y-10491862D01*
X2534355Y-10491862D02*
X2617078Y-10497964D01*
X2617078Y-10497964D02*
X2700000Y-10500000D01*
X2700000Y-10500000D02*
X7137500Y-10500000D01*
X6387500Y-9350000D02*
X6387500Y-8787500D01*
X6387500Y-9350000D02*
X6383888Y-9423512D01*
X6383888Y-9423512D02*
X6373088Y-9496317D01*
X6373088Y-9496317D02*
X6355205Y-9567713D01*
X6355205Y-9567713D02*
X6330409Y-9637012D01*
X6330409Y-9637012D02*
X6298940Y-9703547D01*
X6298940Y-9703547D02*
X6261102Y-9766677D01*
X6261102Y-9766677D02*
X6217257Y-9825794D01*
X6217257Y-9825794D02*
X6167830Y-9880330D01*
X6167830Y-9880330D02*
X6113294Y-9929757D01*
X6113294Y-9929757D02*
X6054177Y-9973602D01*
X6054177Y-9973602D02*
X5991047Y-10011440D01*
X5991047Y-10011440D02*
X5924512Y-10042909D01*
X5924512Y-10042909D02*
X5855213Y-10067705D01*
X5855213Y-10067705D02*
X5783817Y-10085588D01*
X5783817Y-10085588D02*
X5711012Y-10096388D01*
X5711012Y-10096388D02*
X5637500Y-10100000D01*
X2175735Y-9675735D02*
X2227227Y-9724759D01*
X2227227Y-9724759D02*
X2281062Y-9771198D01*
X2281062Y-9771198D02*
X2337112Y-9814939D01*
X2337112Y-9814939D02*
X2395240Y-9855878D01*
X2395240Y-9855878D02*
X2455307Y-9893915D01*
X2455307Y-9893915D02*
X2517167Y-9928958D01*
X2517167Y-9928958D02*
X2580673Y-9960925D01*
X2580673Y-9960925D02*
X2645671Y-9989736D01*
X2645671Y-9989736D02*
X2712005Y-10015324D01*
X2712005Y-10015324D02*
X2779514Y-10037626D01*
X2779514Y-10037626D02*
X2848036Y-10056588D01*
X2848036Y-10056588D02*
X2917405Y-10072166D01*
X2917405Y-10072166D02*
X2987456Y-10084321D01*
X2987456Y-10084321D02*
X3058019Y-10093024D01*
X3058019Y-10093024D02*
X3128924Y-10098254D01*
X3128924Y-10098254D02*
X3200000Y-10100000D01*
X3200000Y-10100000D02*
X5637500Y-10100000D01*
X1750000Y-8650000D02*
X1750000Y-7695000D01*
X1750000Y-8650000D02*
X1751744Y-8721075D01*
X1751744Y-8721075D02*
X1756975Y-8791980D01*
X1756975Y-8791980D02*
X1765678Y-8862543D01*
X1765678Y-8862543D02*
X1777833Y-8932593D01*
X1777833Y-8932593D02*
X1793410Y-9001963D01*
X1793410Y-9001963D02*
X1812373Y-9070485D01*
X1812373Y-9070485D02*
X1834675Y-9137994D01*
X1834675Y-9137994D02*
X1860262Y-9204327D01*
X1860262Y-9204327D02*
X1889074Y-9269325D01*
X1889074Y-9269325D02*
X1921040Y-9332831D01*
X1921040Y-9332831D02*
X1956084Y-9394692D01*
X1956084Y-9394692D02*
X1994120Y-9454759D01*
X1994120Y-9454759D02*
X2035059Y-9512887D01*
X2035059Y-9512887D02*
X2078800Y-9568936D01*
X2078800Y-9568936D02*
X2125239Y-9622771D01*
X2125239Y-9622771D02*
X2174264Y-9674264D01*
X2174264Y-9674264D02*
X2175735Y-9675735D01*
X50000Y-6670000D02*
X20594Y-6671444D01*
X20594Y-6671444D02*
X-8527Y-6675764D01*
X-8527Y-6675764D02*
X-37085Y-6682917D01*
X-37085Y-6682917D02*
X-64804Y-6692836D01*
X-64804Y-6692836D02*
X-91418Y-6705423D01*
X-91418Y-6705423D02*
X-116670Y-6720559D01*
X-116670Y-6720559D02*
X-140317Y-6738096D01*
X-140317Y-6738096D02*
X-162131Y-6757868D01*
X-162131Y-6757868D02*
X-181902Y-6779682D01*
X-181902Y-6779682D02*
X-199440Y-6803329D01*
X-199440Y-6803329D02*
X-214575Y-6828581D01*
X-214575Y-6828581D02*
X-227163Y-6855195D01*
X-227163Y-6855195D02*
X-237081Y-6882914D01*
X-237081Y-6882914D02*
X-244234Y-6911472D01*
X-244234Y-6911472D02*
X-248554Y-6940594D01*
X-248554Y-6940594D02*
X-249999Y-6970000D01*
X-249999Y-6970000D02*
X-250000Y-7695000D01*
X750000Y-6970000D02*
X750000Y-7695000D01*
X750000Y-6970000D02*
X748555Y-6940594D01*
X748555Y-6940594D02*
X744235Y-6911472D01*
X744235Y-6911472D02*
X737082Y-6882914D01*
X737082Y-6882914D02*
X727163Y-6855194D01*
X727163Y-6855194D02*
X714576Y-6828580D01*
X714576Y-6828580D02*
X699440Y-6803328D01*
X699440Y-6803328D02*
X681903Y-6779682D01*
X681903Y-6779682D02*
X662132Y-6757867D01*
X662132Y-6757867D02*
X640317Y-6738096D01*
X640317Y-6738096D02*
X616671Y-6720559D01*
X616671Y-6720559D02*
X591419Y-6705423D01*
X591419Y-6705423D02*
X564805Y-6692836D01*
X564805Y-6692836D02*
X537085Y-6682917D01*
X537085Y-6682917D02*
X508527Y-6675764D01*
X508527Y-6675764D02*
X479405Y-6671444D01*
X479405Y-6671444D02*
X450000Y-6670000D01*
X450000Y-6670000D02*
X50000Y-6670000D01*
X-8651777Y-4901777D02*
X-8800000Y-5050000D01*
X-8651777Y-4901777D02*
X-8630322Y-4881350D01*
X-8630322Y-4881350D02*
X-8607890Y-4862000D01*
X-8607890Y-4862000D02*
X-8584536Y-4843775D01*
X-8584536Y-4843775D02*
X-8560316Y-4826717D01*
X-8560316Y-4826717D02*
X-8535288Y-4810868D01*
X-8535288Y-4810868D02*
X-8509513Y-4796267D01*
X-8509513Y-4796267D02*
X-8483052Y-4782948D01*
X-8483052Y-4782948D02*
X-8455970Y-4770943D01*
X-8455970Y-4770943D02*
X-8428331Y-4760281D01*
X-8428331Y-4760281D02*
X-8400203Y-4750989D01*
X-8400203Y-4750989D02*
X-8371652Y-4743088D01*
X-8371652Y-4743088D02*
X-8342748Y-4736597D01*
X-8342748Y-4736597D02*
X-8313560Y-4731533D01*
X-8313560Y-4731533D02*
X-8284159Y-4727906D01*
X-8284159Y-4727906D02*
X-8254615Y-4725727D01*
X-8254615Y-4725727D02*
X-8225001Y-4725001D01*
X-7900000Y-4425001D02*
X-7901444Y-4454406D01*
X-7901444Y-4454406D02*
X-7905764Y-4483528D01*
X-7905764Y-4483528D02*
X-7912917Y-4512086D01*
X-7912917Y-4512086D02*
X-7922836Y-4539806D01*
X-7922836Y-4539806D02*
X-7935423Y-4566420D01*
X-7935423Y-4566420D02*
X-7950559Y-4591672D01*
X-7950559Y-4591672D02*
X-7968096Y-4615318D01*
X-7968096Y-4615318D02*
X-7987867Y-4637133D01*
X-7987867Y-4637133D02*
X-8009682Y-4656904D01*
X-8009682Y-4656904D02*
X-8033328Y-4674441D01*
X-8033328Y-4674441D02*
X-8058580Y-4689577D01*
X-8058580Y-4689577D02*
X-8085194Y-4702164D01*
X-8085194Y-4702164D02*
X-8112914Y-4712083D01*
X-8112914Y-4712083D02*
X-8141472Y-4719236D01*
X-8141472Y-4719236D02*
X-8170594Y-4723556D01*
X-8170594Y-4723556D02*
X-8200000Y-4725001D01*
X-8200000Y-4725001D02*
X-8225001Y-4725001D01*
X-7900000Y-2900000D02*
X-7900000Y-4425001D01*
X-7900000Y-2900000D02*
X-7901926Y-2860793D01*
X-7901926Y-2860793D02*
X-7907685Y-2821963D01*
X-7907685Y-2821963D02*
X-7917223Y-2783886D01*
X-7917223Y-2783886D02*
X-7930448Y-2746926D01*
X-7930448Y-2746926D02*
X-7947231Y-2711441D01*
X-7947231Y-2711441D02*
X-7967412Y-2677771D01*
X-7967412Y-2677771D02*
X-7990795Y-2646242D01*
X-7990795Y-2646242D02*
X-8017157Y-2617157D01*
X-8017157Y-2617157D02*
X-8046242Y-2590795D01*
X-8046242Y-2590795D02*
X-8077771Y-2567412D01*
X-8077771Y-2567412D02*
X-8111441Y-2547231D01*
X-8111441Y-2547231D02*
X-8146926Y-2530448D01*
X-8146926Y-2530448D02*
X-8183886Y-2517223D01*
X-8183886Y-2517223D02*
X-8221963Y-2507685D01*
X-8221963Y-2507685D02*
X-8260793Y-2501926D01*
X-8260793Y-2501926D02*
X-8300000Y-2500000D01*
X-332379Y-10494221D02*
X-450000Y-10500000D01*
X658655Y-9759220D02*
X608305Y-9865676D01*
X698328Y-9648341D02*
X658655Y-9759220D01*
X216684Y-10297763D02*
X115676Y-10358305D01*
X726942Y-9534108D02*
X698328Y-9648341D01*
X744221Y-9417620D02*
X726942Y-9534108D01*
X9220Y-10408655D02*
X-101658Y-10448328D01*
X311271Y-10227612D02*
X216684Y-10297763D01*
X750000Y-9300000D02*
X744221Y-9417620D01*
X-101658Y-10448328D02*
X-215891Y-10476942D01*
X608305Y-9865676D02*
X547763Y-9966684D01*
X-215891Y-10476942D02*
X-332379Y-10494221D01*
X547763Y-9966684D02*
X477612Y-10061271D01*
X477612Y-10061271D02*
X398528Y-10148528D01*
X750000Y-7695000D02*
X750000Y-9300000D01*
X398528Y-10148528D02*
X311271Y-10227612D01*
X115676Y-10358305D02*
X9220Y-10408655D01*
X-8800000Y-5050000D02*
X-8450000Y-5050000D01*
X-13100000Y-5100000D02*
X-13400000Y-4800000D01*
X-13400000Y-3300000D02*
X-13400000Y-4800000D01*
X-13400000Y-3300000D02*
X-13396147Y-3221586D01*
X-13396147Y-3221586D02*
X-13384628Y-3143927D01*
X-13384628Y-3143927D02*
X-13365552Y-3067772D01*
X-13365552Y-3067772D02*
X-13339103Y-2993853D01*
X-13339103Y-2993853D02*
X-13305537Y-2922882D01*
X-13305537Y-2922882D02*
X-13265175Y-2855543D01*
X-13265175Y-2855543D02*
X-13218408Y-2792485D01*
X-13218408Y-2792485D02*
X-13165685Y-2734314D01*
X-13165685Y-2734314D02*
X-13107514Y-2681591D01*
X-13107514Y-2681591D02*
X-13044456Y-2634824D01*
X-13044456Y-2634824D02*
X-12977117Y-2594462D01*
X-12977117Y-2594462D02*
X-12906146Y-2560896D01*
X-12906146Y-2560896D02*
X-12832227Y-2534447D01*
X-12832227Y-2534447D02*
X-12756072Y-2515371D01*
X-12756072Y-2515371D02*
X-12678413Y-2503852D01*
X-12678413Y-2503852D02*
X-12600000Y-2500000D01*
X-7000000Y-7100000D02*
X-7001744Y-7028924D01*
X-7001744Y-7028924D02*
X-7006974Y-6958019D01*
X-7006974Y-6958019D02*
X-7015677Y-6887456D01*
X-7015677Y-6887456D02*
X-7027832Y-6817405D01*
X-7027832Y-6817405D02*
X-7043410Y-6748036D01*
X-7043410Y-6748036D02*
X-7062372Y-6679514D01*
X-7062372Y-6679514D02*
X-7084674Y-6612005D01*
X-7084674Y-6612005D02*
X-7110262Y-6545671D01*
X-7110262Y-6545671D02*
X-7139073Y-6480673D01*
X-7139073Y-6480673D02*
X-7171039Y-6417167D01*
X-7171039Y-6417167D02*
X-7206083Y-6355306D01*
X-7206083Y-6355306D02*
X-7244120Y-6295239D01*
X-7244120Y-6295239D02*
X-7285058Y-6237111D01*
X-7285058Y-6237111D02*
X-7328800Y-6181062D01*
X-7328800Y-6181062D02*
X-7375239Y-6127226D01*
X-7375239Y-6127226D02*
X-7424264Y-6075735D01*
X-7424264Y-6075735D02*
X-8450000Y-5050000D01*
X-5800000Y-10500000D02*
X-450000Y-10500000D01*
X-5800000Y-10500000D02*
X-5917620Y-10494221D01*
X-5917620Y-10494221D02*
X-6034108Y-10476942D01*
X-6034108Y-10476942D02*
X-6148341Y-10448328D01*
X-6148341Y-10448328D02*
X-6259220Y-10408655D01*
X-6259220Y-10408655D02*
X-6365676Y-10358305D01*
X-6365676Y-10358305D02*
X-6466684Y-10297763D01*
X-6466684Y-10297763D02*
X-6561271Y-10227612D01*
X-6561271Y-10227612D02*
X-6648528Y-10148528D01*
X-6648528Y-10148528D02*
X-6727612Y-10061271D01*
X-6727612Y-10061271D02*
X-6797763Y-9966684D01*
X-6797763Y-9966684D02*
X-6858305Y-9865676D01*
X-6858305Y-9865676D02*
X-6908655Y-9759220D01*
X-6908655Y-9759220D02*
X-6948328Y-9648341D01*
X-6948328Y-9648341D02*
X-6976942Y-9534108D01*
X-6976942Y-9534108D02*
X-6994221Y-9417620D01*
X-6994221Y-9417620D02*
X-7000000Y-9300000D01*
X-7000000Y-9300000D02*
X-7000000Y-7100000D01*
X-12600000Y-2500000D02*
X-8300000Y-2500000D01*
X8607890Y-19138000D02*
X8584536Y-19156225D01*
X8371652Y-19256912D02*
X8342748Y-19263403D01*
X-750000Y-17030000D02*
X-748555Y-17059406D01*
X7901444Y-19545594D02*
X7905764Y-19516472D01*
X8630322Y-19118650D02*
X8607890Y-19138000D01*
X8560316Y-19173283D02*
X8535288Y-19189132D01*
X8483052Y-19217052D02*
X8455970Y-19229057D01*
X8535288Y-19189132D02*
X8509513Y-19203733D01*
X8254615Y-19274273D02*
X8225001Y-19274999D01*
X-640317Y-17261904D02*
X-616671Y-17279441D01*
X-744235Y-17088528D02*
X-737082Y-17117086D01*
X8455970Y-19229057D02*
X8428331Y-19239719D01*
X8284159Y-19272094D02*
X8254615Y-19274273D01*
X8400203Y-19249011D02*
X8371652Y-19256912D01*
X8428331Y-19239719D02*
X8400203Y-19249011D01*
X-714576Y-17171420D02*
X-699440Y-17196672D01*
X248554Y-17059406D02*
X249999Y-17030000D01*
X7905764Y-19516472D02*
X7912917Y-19487914D01*
X-750000Y-14700000D02*
X-744221Y-14582380D01*
X-698328Y-14351659D02*
X-658655Y-14240780D01*
X13365552Y-20932228D02*
X13339103Y-21006147D01*
X13396147Y-20778414D02*
X13384628Y-20856073D01*
X13384628Y-20856073D02*
X13365552Y-20932228D01*
X13400000Y-20700000D02*
X13396147Y-20778414D01*
X13400000Y-20700000D02*
X13400000Y-19200000D01*
X-398528Y-13851472D02*
X-311271Y-13772388D01*
X13339103Y-21006147D02*
X13305537Y-21077118D01*
X-744221Y-14582380D02*
X-726942Y-14465892D01*
X-608305Y-14134324D02*
X-547763Y-14033316D01*
X8800000Y-18950000D02*
X8450000Y-18950000D01*
X7015677Y-17112544D02*
X7027832Y-17182595D01*
X-547763Y-14033316D02*
X-477612Y-13938729D01*
X7171039Y-17582833D02*
X7206083Y-17644694D01*
X8260793Y-21498074D02*
X8300000Y-21500000D01*
X13165685Y-21265686D02*
X13107514Y-21318409D01*
X-9220Y-13591345D02*
X101658Y-13551672D01*
X13218408Y-21207515D02*
X13165685Y-21265686D01*
X7990795Y-21353758D02*
X8017157Y-21382843D01*
X7967412Y-21322229D02*
X7990795Y-21353758D01*
X6797763Y-14033316D02*
X6858305Y-14134324D01*
X7062372Y-17320486D02*
X7084674Y-17387995D01*
X-311271Y-13772388D02*
X-216684Y-13702237D01*
X101658Y-13551672D02*
X215891Y-13523058D01*
X8183886Y-21482777D02*
X8221963Y-21492315D01*
X13100000Y-18900000D02*
X13400000Y-19200000D01*
X8221963Y-21492315D02*
X8260793Y-21498074D01*
X-750000Y-16305000D02*
X-750000Y-14700000D01*
X6858305Y-14134324D02*
X6908655Y-14240780D01*
X-477612Y-13938729D02*
X-398528Y-13851472D01*
X7285058Y-17762889D02*
X7328800Y-17818938D01*
X7000000Y-14700000D02*
X7000000Y-16900000D01*
X7001744Y-16971076D02*
X7006974Y-17041981D01*
X12906146Y-21439104D02*
X12832227Y-21465553D01*
X6976942Y-14465892D02*
X6994221Y-14582380D01*
X332379Y-13505779D02*
X450000Y-13500000D01*
X215891Y-13523058D02*
X332379Y-13505779D01*
X-216684Y-13702237D02*
X-115676Y-13641695D01*
X12977117Y-21405538D02*
X12906146Y-21439104D01*
X-115676Y-13641695D02*
X-9220Y-13591345D01*
X13044456Y-21365176D02*
X12977117Y-21405538D01*
X13107514Y-21318409D02*
X13044456Y-21365176D01*
X7930448Y-21253074D02*
X7947231Y-21288559D01*
X13265175Y-21144457D02*
X13218408Y-21207515D01*
X7000000Y-16900000D02*
X7001744Y-16971076D01*
X7043410Y-17251964D02*
X7062372Y-17320486D01*
X13305537Y-21077118D02*
X13265175Y-21144457D01*
X-658655Y-14240780D02*
X-608305Y-14134324D01*
X-726942Y-14465892D02*
X-698328Y-14351659D01*
X7139073Y-17519327D02*
X7171039Y-17582833D01*
X12600000Y-21500000D02*
X8300000Y-21500000D01*
X8146926Y-21469552D02*
X8183886Y-21482777D01*
X7244120Y-17704761D02*
X7285058Y-17762889D01*
X6948328Y-14351659D02*
X6976942Y-14465892D01*
X6908655Y-14240780D02*
X6948328Y-14351659D01*
X7328800Y-17818938D02*
X7375239Y-17872774D01*
X7947231Y-21288559D02*
X7967412Y-21322229D01*
X12832227Y-21465553D02*
X12756072Y-21484629D01*
X6466684Y-13702237D02*
X6561271Y-13772388D01*
X7027832Y-17182595D02*
X7043410Y-17251964D01*
X6648528Y-13851472D02*
X6727612Y-13938729D01*
X5800000Y-13500000D02*
X5917620Y-13505779D01*
X6994221Y-14582380D02*
X7000000Y-14700000D01*
X5800000Y-13500000D02*
X450000Y-13500000D01*
X8077771Y-21432588D02*
X8111441Y-21452769D01*
X8111441Y-21452769D02*
X8146926Y-21469552D01*
X8046242Y-21409205D02*
X8077771Y-21432588D01*
X8017157Y-21382843D02*
X8046242Y-21409205D01*
X7917223Y-21216114D02*
X7930448Y-21253074D01*
X7206083Y-17644694D02*
X7244120Y-17704761D01*
X6148341Y-13551672D02*
X6259220Y-13591345D01*
X6259220Y-13591345D02*
X6365676Y-13641695D01*
X7375239Y-17872774D02*
X7424264Y-17924265D01*
X6034108Y-13523058D02*
X6148341Y-13551672D01*
X6365676Y-13641695D02*
X6466684Y-13702237D01*
X237081Y-17117086D02*
X244234Y-17088528D01*
X8313560Y-19268467D02*
X8284159Y-19272094D01*
X162131Y-17242132D02*
X181902Y-17220318D01*
X8141472Y-19280764D02*
X8170594Y-19276444D01*
X7907685Y-21178037D02*
X7917223Y-21216114D01*
X-508527Y-17324236D02*
X-479405Y-17328556D01*
X7900000Y-21100000D02*
X7900000Y-19574999D01*
X8009682Y-19343096D02*
X8033328Y-19325559D01*
X7987867Y-19362867D02*
X8009682Y-19343096D01*
X181902Y-17220318D02*
X199440Y-17196671D01*
X-681903Y-17220318D02*
X-662132Y-17242133D01*
X8200000Y-19274999D02*
X8225001Y-19274999D01*
X7084674Y-17387995D02*
X7110262Y-17454329D01*
X12678413Y-21496148D02*
X12600000Y-21500000D01*
X199440Y-17196671D02*
X214575Y-17171419D01*
X8058580Y-19310423D02*
X8085194Y-19297836D01*
X8085194Y-19297836D02*
X8112914Y-19287917D01*
X8584536Y-19156225D02*
X8560316Y-19173283D01*
X-737082Y-17117086D02*
X-727163Y-17144806D01*
X244234Y-17088528D02*
X248554Y-17059406D01*
X140317Y-17261904D02*
X162131Y-17242132D01*
X64804Y-17307164D02*
X91418Y-17294577D01*
X7922836Y-19460194D02*
X7935423Y-19433580D01*
X7900000Y-19574999D02*
X7901444Y-19545594D01*
X116670Y-17279441D02*
X140317Y-17261904D01*
X8033328Y-19325559D02*
X8058580Y-19310423D01*
X-591419Y-17294577D02*
X-564805Y-17307164D01*
X91418Y-17294577D02*
X116670Y-17279441D01*
X214575Y-17171419D02*
X227163Y-17144805D01*
X37085Y-17317083D02*
X64804Y-17307164D01*
X7950559Y-19408328D02*
X7968096Y-19384682D01*
X8651777Y-19098223D02*
X8630322Y-19118650D01*
X7424264Y-17924265D02*
X8450000Y-18950000D01*
X6561271Y-13772388D02*
X6648528Y-13851472D01*
X227163Y-17144805D02*
X237081Y-17117086D01*
X-748555Y-17059406D02*
X-744235Y-17088528D01*
X8170594Y-19276444D02*
X8200000Y-19274999D01*
X-662132Y-17242133D02*
X-640317Y-17261904D01*
X8342748Y-19263403D02*
X8313560Y-19268467D01*
X7935423Y-19433580D02*
X7950559Y-19408328D01*
X8112914Y-19287917D02*
X8141472Y-19280764D01*
X7110262Y-17454329D02*
X7139073Y-17519327D01*
X6727612Y-13938729D02*
X6797763Y-14033316D01*
X12756072Y-21484629D02*
X12678413Y-21496148D01*
X8527Y-17324236D02*
X37085Y-17317083D01*
X-50000Y-17330000D02*
X-20594Y-17328556D01*
X-699440Y-17196672D02*
X-681903Y-17220318D01*
X7912917Y-19487914D02*
X7922836Y-19460194D01*
X249999Y-17030000D02*
X250000Y-16305000D01*
X7968096Y-19384682D02*
X7987867Y-19362867D01*
X-20594Y-17328556D02*
X8527Y-17324236D01*
X-537085Y-17317083D02*
X-508527Y-17324236D01*
X7900000Y-21100000D02*
X7901926Y-21139207D01*
X8651777Y-19098223D02*
X8800000Y-18950000D01*
X-564805Y-17307164D02*
X-537085Y-17317083D01*
X-616671Y-17279441D02*
X-591419Y-17294577D01*
X-479405Y-17328556D02*
X-450000Y-17330000D01*
X-727163Y-17144806D02*
X-714576Y-17171420D01*
X-450000Y-17330000D02*
X-50000Y-17330000D01*
X7901926Y-21139207D02*
X7907685Y-21178037D01*
X-750000Y-17030000D02*
X-750000Y-16305000D01*
X8509513Y-19203733D02*
X8483052Y-19217052D01*
X5917620Y-13505779D02*
X6034108Y-13523058D01*
X7006974Y-17041981D02*
X7015677Y-17112544D01*
X-14100000Y-5100000D02*
X-13800000Y-4800000D01*
X250000Y-7695000D02*
X250000Y-8720000D01*
X-750000Y-8420000D02*
X-750000Y-7695000D01*
X-750000Y-8420000D02*
X-748555Y-8449405D01*
X-748555Y-8449405D02*
X-744235Y-8478527D01*
X-744235Y-8478527D02*
X-737082Y-8507085D01*
X-737082Y-8507085D02*
X-727163Y-8534805D01*
X-727163Y-8534805D02*
X-714576Y-8561419D01*
X-714576Y-8561419D02*
X-699440Y-8586671D01*
X-699440Y-8586671D02*
X-681903Y-8610317D01*
X-681903Y-8610317D02*
X-662132Y-8632132D01*
X-662132Y-8632132D02*
X-640317Y-8651903D01*
X-640317Y-8651903D02*
X-616671Y-8669440D01*
X-616671Y-8669440D02*
X-591419Y-8684576D01*
X-591419Y-8684576D02*
X-564805Y-8697163D01*
X-564805Y-8697163D02*
X-537085Y-8707082D01*
X-537085Y-8707082D02*
X-508527Y-8714235D01*
X-508527Y-8714235D02*
X-479405Y-8718555D01*
X-479405Y-8718555D02*
X-450000Y-8720000D01*
X-450000Y-8720000D02*
X250000Y-8720000D01*
X-6748222Y-4901777D02*
X-6600000Y-5050000D01*
X-6748222Y-4901777D02*
X-6769676Y-4881349D01*
X-6769676Y-4881349D02*
X-6792108Y-4862000D01*
X-6792108Y-4862000D02*
X-6815462Y-4843774D01*
X-6815462Y-4843774D02*
X-6839682Y-4826717D01*
X-6839682Y-4826717D02*
X-6864710Y-4810868D01*
X-6864710Y-4810868D02*
X-6890485Y-4796267D01*
X-6890485Y-4796267D02*
X-6916946Y-4782947D01*
X-6916946Y-4782947D02*
X-6944028Y-4770943D01*
X-6944028Y-4770943D02*
X-6971667Y-4760281D01*
X-6971667Y-4760281D02*
X-6999796Y-4750989D01*
X-6999796Y-4750989D02*
X-7028347Y-4743088D01*
X-7028347Y-4743088D02*
X-7057251Y-4736597D01*
X-7057251Y-4736597D02*
X-7086439Y-4731533D01*
X-7086439Y-4731533D02*
X-7115840Y-4727906D01*
X-7115840Y-4727906D02*
X-7145384Y-4725727D01*
X-7145384Y-4725727D02*
X-7174999Y-4725001D01*
X-7500000Y-4425001D02*
X-7498555Y-4454406D01*
X-7498555Y-4454406D02*
X-7494235Y-4483528D01*
X-7494235Y-4483528D02*
X-7487082Y-4512086D01*
X-7487082Y-4512086D02*
X-7477163Y-4539806D01*
X-7477163Y-4539806D02*
X-7464576Y-4566420D01*
X-7464576Y-4566420D02*
X-7449440Y-4591672D01*
X-7449440Y-4591672D02*
X-7431903Y-4615318D01*
X-7431903Y-4615318D02*
X-7412132Y-4637133D01*
X-7412132Y-4637133D02*
X-7390317Y-4656904D01*
X-7390317Y-4656904D02*
X-7366671Y-4674441D01*
X-7366671Y-4674441D02*
X-7341419Y-4689577D01*
X-7341419Y-4689577D02*
X-7314805Y-4702164D01*
X-7314805Y-4702164D02*
X-7287085Y-4712083D01*
X-7287085Y-4712083D02*
X-7258527Y-4719236D01*
X-7258527Y-4719236D02*
X-7229405Y-4723556D01*
X-7229405Y-4723556D02*
X-7200000Y-4725001D01*
X-7200000Y-4725001D02*
X-7174999Y-4725001D01*
X-7500000Y-2900000D02*
X-7500000Y-4425001D01*
X-7500000Y-2900000D02*
X-7503852Y-2821586D01*
X-7503852Y-2821586D02*
X-7515371Y-2743927D01*
X-7515371Y-2743927D02*
X-7534447Y-2667772D01*
X-7534447Y-2667772D02*
X-7560896Y-2593853D01*
X-7560896Y-2593853D02*
X-7594462Y-2522882D01*
X-7594462Y-2522882D02*
X-7634824Y-2455543D01*
X-7634824Y-2455543D02*
X-7681591Y-2392485D01*
X-7681591Y-2392485D02*
X-7734314Y-2334314D01*
X-7734314Y-2334314D02*
X-7792485Y-2281591D01*
X-7792485Y-2281591D02*
X-7855543Y-2234824D01*
X-7855543Y-2234824D02*
X-7922882Y-2194462D01*
X-7922882Y-2194462D02*
X-7993853Y-2160896D01*
X-7993853Y-2160896D02*
X-8067772Y-2134447D01*
X-8067772Y-2134447D02*
X-8143927Y-2115371D01*
X-8143927Y-2115371D02*
X-8221586Y-2103852D01*
X-8221586Y-2103852D02*
X-8300000Y-2100000D01*
X-13800000Y-3300000D02*
X-13800000Y-4800000D01*
X-13800000Y-3300000D02*
X-13794221Y-3182379D01*
X-13794221Y-3182379D02*
X-13776942Y-3065891D01*
X-13776942Y-3065891D02*
X-13748328Y-2951658D01*
X-13748328Y-2951658D02*
X-13708655Y-2840779D01*
X-13708655Y-2840779D02*
X-13658305Y-2734323D01*
X-13658305Y-2734323D02*
X-13597763Y-2633315D01*
X-13597763Y-2633315D02*
X-13527612Y-2538728D01*
X-13527612Y-2538728D02*
X-13448528Y-2451471D01*
X-13448528Y-2451471D02*
X-13361271Y-2372387D01*
X-13361271Y-2372387D02*
X-13266684Y-2302236D01*
X-13266684Y-2302236D02*
X-13165676Y-2241694D01*
X-13165676Y-2241694D02*
X-13059220Y-2191344D01*
X-13059220Y-2191344D02*
X-12948341Y-2151671D01*
X-12948341Y-2151671D02*
X-12834108Y-2123057D01*
X-12834108Y-2123057D02*
X-12717620Y-2105778D01*
X-12717620Y-2105778D02*
X-12600000Y-2100000D01*
X-12600000Y-2100000D02*
X-8300000Y-2100000D01*
X-172882Y-10005537D02*
X-243853Y-10039103D01*
X-105543Y-9965175D02*
X-172882Y-10005537D01*
X15685Y-9865685D02*
X-42485Y-9918408D01*
X-42485Y-9918408D02*
X-105543Y-9965175D01*
X-5800000Y-10100000D02*
X-550000Y-10100000D01*
X-317772Y-10065552D02*
X-393927Y-10084628D01*
X-393927Y-10084628D02*
X-471586Y-10096147D01*
X115175Y-9744456D02*
X68408Y-9807514D01*
X68408Y-9807514D02*
X15685Y-9865685D01*
X250000Y-9300000D02*
X246147Y-9378413D01*
X-6596147Y-9378413D02*
X-6600000Y-9300000D01*
X155537Y-9677117D02*
X115175Y-9744456D01*
X250000Y-9300000D02*
X250000Y-8720000D01*
X-6539103Y-9606146D02*
X-6565552Y-9532227D01*
X246147Y-9378413D02*
X234628Y-9456072D01*
X234628Y-9456072D02*
X215552Y-9532227D01*
X215552Y-9532227D02*
X189103Y-9606146D01*
X-243853Y-10039103D02*
X-317772Y-10065552D01*
X189103Y-9606146D02*
X155537Y-9677117D01*
X-471586Y-10096147D02*
X-550000Y-10100000D01*
X-5800000Y-10100000D02*
X-5878413Y-10096147D01*
X-6307514Y-9918408D02*
X-6365685Y-9865685D01*
X-5878413Y-10096147D02*
X-5956072Y-10084628D01*
X-5956072Y-10084628D02*
X-6032227Y-10065552D01*
X-6032227Y-10065552D02*
X-6106146Y-10039103D01*
X-6106146Y-10039103D02*
X-6177117Y-10005537D01*
X-6177117Y-10005537D02*
X-6244456Y-9965175D01*
X-6244456Y-9965175D02*
X-6307514Y-9918408D01*
X-6365685Y-9865685D02*
X-6418408Y-9807514D01*
X-6418408Y-9807514D02*
X-6465175Y-9744456D01*
X-6465175Y-9744456D02*
X-6505537Y-9677117D01*
X-6565552Y-9532227D02*
X-6584628Y-9456072D01*
X-6505537Y-9677117D02*
X-6539103Y-9606146D01*
X-6584628Y-9456072D02*
X-6596147Y-9378413D01*
X-6600000Y-9300000D02*
X-6600000Y-5050000D01*
X6565552Y-14467773D02*
X6584628Y-14543928D01*
X6505537Y-14322883D02*
X6539103Y-14393854D01*
X450000Y-15280000D02*
X-250000Y-15280000D01*
X681903Y-15389683D02*
X662132Y-15367868D01*
X6584628Y-14543928D02*
X6596147Y-14621587D01*
X6792108Y-19138000D02*
X6815462Y-19156226D01*
X662132Y-15367868D02*
X640317Y-15348097D01*
X699440Y-15413329D02*
X681903Y-15389683D01*
X6839682Y-19173283D02*
X6864710Y-19189132D01*
X737082Y-15492915D02*
X727163Y-15465195D01*
X537085Y-15292918D02*
X508527Y-15285765D01*
X6815462Y-19156226D02*
X6839682Y-19173283D01*
X6418408Y-14192486D02*
X6465175Y-14255544D01*
X6596147Y-14621587D02*
X6600000Y-14700000D01*
X640317Y-15348097D02*
X616671Y-15330560D01*
X6748222Y-19098223D02*
X6600000Y-18950000D01*
X591419Y-15315424D02*
X564805Y-15302837D01*
X748555Y-15550595D02*
X744235Y-15521473D01*
X727163Y-15465195D02*
X714576Y-15438581D01*
X6539103Y-14393854D02*
X6565552Y-14467773D01*
X6600000Y-14700000D02*
X6600000Y-18950000D01*
X-250000Y-16305000D02*
X-250000Y-15280000D01*
X6748222Y-19098223D02*
X6769676Y-19118651D01*
X564805Y-15302837D02*
X537085Y-15292918D01*
X744235Y-15521473D02*
X737082Y-15492915D01*
X750000Y-15580000D02*
X748555Y-15550595D01*
X6307514Y-14081592D02*
X6365685Y-14134315D01*
X508527Y-15285765D02*
X479405Y-15281445D01*
X14100000Y-18900000D02*
X13800000Y-19200000D01*
X750000Y-15580000D02*
X750000Y-16305000D01*
X6769676Y-19118651D02*
X6792108Y-19138000D01*
X714576Y-15438581D02*
X699440Y-15413329D01*
X479405Y-15281445D02*
X450000Y-15280000D01*
X616671Y-15330560D02*
X591419Y-15315424D01*
X7314805Y-19297836D02*
X7287085Y-19287917D01*
X7734314Y-21665686D02*
X7792485Y-21718409D01*
X7086439Y-19268467D02*
X7115840Y-19272094D01*
X-155537Y-14322883D02*
X-115175Y-14255544D01*
X172882Y-13994463D02*
X243853Y-13960897D01*
X-189103Y-14393854D02*
X-155537Y-14322883D01*
X-234628Y-14543928D02*
X-215552Y-14467773D01*
X7028347Y-19256912D02*
X7057251Y-19263403D01*
X7287085Y-19287917D02*
X7258527Y-19280764D01*
X7115840Y-19272094D02*
X7145384Y-19274273D01*
X7634824Y-21544457D02*
X7681591Y-21607515D01*
X7594462Y-21477118D02*
X7634824Y-21544457D01*
X42485Y-14081592D02*
X105543Y-14034825D01*
X-246147Y-14621587D02*
X-234628Y-14543928D01*
X6916946Y-19217053D02*
X6944028Y-19229057D01*
X7229405Y-19276444D02*
X7200000Y-19274999D01*
X7855543Y-21765176D02*
X7922882Y-21805538D01*
X7258527Y-19280764D02*
X7229405Y-19276444D01*
X-15685Y-14134315D02*
X42485Y-14081592D01*
X7464576Y-19433580D02*
X7449440Y-19408328D01*
X7390317Y-19343096D02*
X7366671Y-19325559D01*
X7792485Y-21718409D02*
X7855543Y-21765176D01*
X105543Y-14034825D02*
X172882Y-13994463D01*
X7494235Y-19516472D02*
X7487082Y-19487914D01*
X-115175Y-14255544D02*
X-68408Y-14192486D01*
X-250000Y-14700000D02*
X-246147Y-14621587D01*
X6864710Y-19189132D02*
X6890485Y-19203733D01*
X7431903Y-19384682D02*
X7412132Y-19362867D01*
X7449440Y-19408328D02*
X7431903Y-19384682D01*
X6890485Y-19203733D02*
X6916946Y-19217053D01*
X7200000Y-19274999D02*
X7174999Y-19274999D01*
X7534447Y-21332228D02*
X7560896Y-21406147D01*
X7366671Y-19325559D02*
X7341419Y-19310423D01*
X317772Y-13934448D02*
X393927Y-13915372D01*
X7498555Y-19545594D02*
X7494235Y-19516472D01*
X393927Y-13915372D02*
X471586Y-13903853D01*
X7145384Y-19274273D02*
X7174999Y-19274999D01*
X7412132Y-19362867D02*
X7390317Y-19343096D01*
X6365685Y-14134315D02*
X6418408Y-14192486D01*
X6465175Y-14255544D02*
X6505537Y-14322883D01*
X7681591Y-21607515D02*
X7734314Y-21665686D01*
X7500000Y-21100000D02*
X7500000Y-19574999D01*
X7503852Y-21178414D02*
X7515371Y-21256073D01*
X-68408Y-14192486D02*
X-15685Y-14134315D01*
X471586Y-13903853D02*
X550000Y-13900000D01*
X243853Y-13960897D02*
X317772Y-13934448D01*
X7515371Y-21256073D02*
X7534447Y-21332228D01*
X6971667Y-19239719D02*
X6999796Y-19249011D01*
X-215552Y-14467773D02*
X-189103Y-14393854D01*
X-250000Y-14700000D02*
X-250000Y-15280000D01*
X13597763Y-21366685D02*
X13527612Y-21461272D01*
X7487082Y-19487914D02*
X7477163Y-19460194D01*
X6999796Y-19249011D02*
X7028347Y-19256912D01*
X7560896Y-21406147D02*
X7594462Y-21477118D01*
X6944028Y-19229057D02*
X6971667Y-19239719D01*
X7500000Y-21100000D02*
X7503852Y-21178414D01*
X7500000Y-19574999D02*
X7498555Y-19545594D01*
X8067772Y-21865553D02*
X8143927Y-21884629D01*
X7057251Y-19263403D02*
X7086439Y-19268467D01*
X7477163Y-19460194D02*
X7464576Y-19433580D01*
X7341419Y-19310423D02*
X7314805Y-19297836D01*
X13800000Y-20700000D02*
X13800000Y-19200000D01*
X6177117Y-13994463D02*
X6244456Y-14034825D01*
X8143927Y-21884629D02*
X8221586Y-21896148D01*
X6106146Y-13960897D02*
X6177117Y-13994463D01*
X6032227Y-13934448D02*
X6106146Y-13960897D01*
X7993853Y-21839104D02*
X8067772Y-21865553D01*
X12600000Y-21900000D02*
X8300000Y-21900000D01*
X13800000Y-20700000D02*
X13794221Y-20817621D01*
X5878413Y-13903853D02*
X5956072Y-13915372D01*
X13059220Y-21808656D02*
X12948341Y-21848329D01*
X12948341Y-21848329D02*
X12834108Y-21876943D01*
X13708655Y-21159221D02*
X13658305Y-21265677D01*
X13361271Y-21627613D02*
X13266684Y-21697764D01*
X13794221Y-20817621D02*
X13776942Y-20934109D01*
X5956072Y-13915372D02*
X6032227Y-13934448D01*
X13266684Y-21697764D02*
X13165676Y-21758306D01*
X13165676Y-21758306D02*
X13059220Y-21808656D01*
X13748328Y-21048342D02*
X13708655Y-21159221D01*
X13448528Y-21548529D02*
X13361271Y-21627613D01*
X7922882Y-21805538D02*
X7993853Y-21839104D01*
X8221586Y-21896148D02*
X8300000Y-21900000D01*
X5800000Y-13900000D02*
X5878413Y-13903853D01*
X5800000Y-13900000D02*
X550000Y-13900000D01*
X6244456Y-14034825D02*
X6307514Y-14081592D01*
X12834108Y-21876943D02*
X12717620Y-21894222D01*
X12717620Y-21894222D02*
X12600000Y-21900000D01*
X13658305Y-21265677D02*
X13597763Y-21366685D01*
X13527612Y-21461272D02*
X13448528Y-21548529D01*
X13776942Y-20934109D02*
X13748328Y-21048342D01*
X-7855205Y-14032287D02*
X-7830409Y-13962988D01*
X-1903363Y-13699548D02*
X-1977453Y-13662254D01*
X-7887500Y-14250000D02*
X-7887500Y-15212500D01*
X-1505025Y-13994975D02*
X-1565099Y-13937780D01*
X-1565099Y-13937780D02*
X-1627907Y-13883602D01*
X-1693298Y-13832570D02*
X-1761114Y-13784809D01*
X-2370307Y-13532473D02*
X-2452032Y-13518292D01*
X-2130673Y-13598788D02*
X-2209433Y-13572769D01*
X-1831192Y-13740432D02*
X-1903363Y-13699548D01*
X1250000Y-16305000D02*
X1250000Y-14700000D01*
X-7283817Y-13514412D02*
X-7211012Y-13503612D01*
X-7873088Y-14103683D02*
X-7855205Y-14032287D01*
X-2452032Y-13518292D02*
X-2534355Y-13508138D01*
X-7717257Y-13774206D02*
X-7667830Y-13719670D01*
X-2209433Y-13572769D02*
X-2289375Y-13550646D01*
X-7761102Y-13833323D02*
X-7717257Y-13774206D01*
X-7211012Y-13503612D02*
X-7137500Y-13500000D01*
X-7667830Y-13719670D02*
X-7613294Y-13670243D01*
X-2289375Y-13550646D02*
X-2370307Y-13532473D01*
X-7798940Y-13896453D02*
X-7761102Y-13833323D01*
X-1977453Y-13662254D02*
X-2053284Y-13628640D01*
X-7554177Y-13626398D02*
X-7491047Y-13588560D01*
X-1627907Y-13883602D02*
X-1693298Y-13832570D01*
X-7883888Y-14176488D02*
X-7873088Y-14103683D01*
X-7887500Y-14250000D02*
X-7883888Y-14176488D01*
X-7830409Y-13962988D02*
X-7798940Y-13896453D01*
X-7613294Y-13670243D02*
X-7554177Y-13626398D01*
X-7491047Y-13588560D02*
X-7424512Y-13557091D01*
X-2534355Y-13508138D02*
X-2617078Y-13502036D01*
X-2700000Y-13500000D02*
X-7137500Y-13500000D01*
X-2053284Y-13628640D02*
X-2130673Y-13598788D01*
X-7424512Y-13557091D02*
X-7355213Y-13532295D01*
X-1761114Y-13784809D02*
X-1831192Y-13740432D01*
X-2617078Y-13502036D02*
X-2700000Y-13500000D01*
X-1505025Y-13994975D02*
X-1500000Y-14000000D01*
X-7355213Y-13532295D02*
X-7283817Y-13514412D01*
X-6387500Y-14650000D02*
X-6383888Y-14576488D01*
X-2078800Y-14431064D02*
X-2125239Y-14377229D01*
X-2125239Y-14377229D02*
X-2174264Y-14325736D01*
X-3128924Y-13901746D02*
X-3200000Y-13900000D01*
X-1889074Y-14730675D02*
X-1921040Y-14667169D01*
X-3200000Y-13900000D02*
X-5637500Y-13900000D01*
X-6167830Y-14119670D02*
X-6113294Y-14070243D01*
X-6217257Y-14174206D02*
X-6167830Y-14119670D01*
X-2517167Y-14071042D02*
X-2580673Y-14039075D01*
X-6383888Y-14576488D02*
X-6373088Y-14503683D01*
X-6330409Y-14362988D02*
X-6298940Y-14296453D01*
X-1860262Y-14795673D02*
X-1889074Y-14730675D01*
X-1756975Y-15208020D02*
X-1765678Y-15137457D01*
X-1750000Y-15350000D02*
X-1751744Y-15278925D01*
X-5855213Y-13932295D02*
X-5783817Y-13914412D01*
X-6298940Y-14296453D02*
X-6261102Y-14233323D01*
X-1994120Y-14545241D02*
X-2035059Y-14487113D01*
X-1777833Y-15067407D02*
X-1793410Y-14998037D01*
X-2174264Y-14325736D02*
X-2175735Y-14324265D01*
X-2175735Y-14324265D02*
X-2227227Y-14275241D01*
X-2281062Y-14228802D02*
X-2337112Y-14185061D01*
X-6113294Y-14070243D02*
X-6054177Y-14026398D01*
X-1793410Y-14998037D02*
X-1812373Y-14929515D01*
X-1750000Y-15350000D02*
X-1750000Y-16305000D01*
X-1956084Y-14605308D02*
X-1994120Y-14545241D01*
X-6054177Y-14026398D02*
X-5991047Y-13988560D01*
X-2395240Y-14144122D02*
X-2455307Y-14106085D01*
X-6355205Y-14432287D02*
X-6330409Y-14362988D01*
X-1921040Y-14667169D02*
X-1956084Y-14605308D01*
X-5711012Y-13903612D02*
X-5637500Y-13900000D01*
X-1834675Y-14862006D02*
X-1860262Y-14795673D01*
X-1765678Y-15137457D02*
X-1777833Y-15067407D01*
X-2455307Y-14106085D02*
X-2517167Y-14071042D01*
X-6261102Y-14233323D02*
X-6217257Y-14174206D01*
X-6387500Y-14650000D02*
X-6387500Y-15212500D01*
X-2227227Y-14275241D02*
X-2281062Y-14228802D01*
X-2035059Y-14487113D02*
X-2078800Y-14431064D01*
X-1751744Y-15278925D02*
X-1756975Y-15208020D01*
X-5783817Y-13914412D02*
X-5711012Y-13903612D01*
X-2580673Y-14039075D02*
X-2645671Y-14010264D01*
X-1812373Y-14929515D02*
X-1834675Y-14862006D01*
X-6373088Y-14503683D02*
X-6355205Y-14432287D01*
X-2712005Y-13984676D02*
X-2779514Y-13962374D01*
X-5924512Y-13957091D02*
X-5855213Y-13932295D01*
X-5991047Y-13988560D02*
X-5924512Y-13957091D01*
X-2337112Y-14185061D02*
X-2395240Y-14144122D01*
X-2848036Y-13943412D02*
X-2917405Y-13927834D01*
X-2779514Y-13962374D02*
X-2848036Y-13943412D01*
X-3058019Y-13906976D02*
X-3128924Y-13901746D01*
X-2987456Y-13915679D02*
X-3058019Y-13906976D01*
X-2645671Y-14010264D02*
X-2712005Y-13984676D01*
X-2917405Y-13927834D02*
X-2987456Y-13915679D01*
D24*
G36*
X12800000Y-10062582D02*
G01*
X12741689Y-10038429D01*
X12548491Y-10000000D01*
X12351509Y-10000000D01*
X12158311Y-10038429D01*
X11976322Y-10113811D01*
X11900000Y-10164808D01*
X11823678Y-10113811D01*
X11641689Y-10038429D01*
X11448491Y-10000000D01*
X11251509Y-10000000D01*
X11058311Y-10038429D01*
X10876322Y-10113811D01*
X10712537Y-10223249D01*
X10573249Y-10362537D01*
X10507598Y-10460790D01*
X10374879Y-10420720D01*
X10319299Y-10409715D01*
X10263902Y-10397940D01*
X10255223Y-10397028D01*
X10061334Y-10378017D01*
X10030704Y-10375000D01*
X8444897Y-10375000D01*
X8461212Y-10340506D01*
X8461212Y-10340505D01*
X8473344Y-10314855D01*
X8477904Y-10305214D01*
X8491060Y-10268447D01*
X8491062Y-10268443D01*
X8507232Y-10223249D01*
X8512716Y-10207923D01*
X8512716Y-10207920D01*
X8515783Y-10199349D01*
X8525870Y-10171159D01*
X8550978Y-10070924D01*
X8550978Y-10070918D01*
X8555365Y-10053403D01*
X8560464Y-10033049D01*
X8560464Y-10033046D01*
X8560467Y-10033036D01*
X8566862Y-9989922D01*
X8574982Y-9935186D01*
X8581357Y-9892209D01*
X8585813Y-9801519D01*
X8587500Y-9784390D01*
X8587500Y-9767181D01*
X8588344Y-9750005D01*
X8587500Y-9732821D01*
X8587500Y-9696237D01*
X8600236Y-9689430D01*
X8724746Y-9587246D01*
X8826930Y-9462736D01*
X8902858Y-9320683D01*
X8949615Y-9166547D01*
X8965403Y-9006250D01*
X8965403Y-8568750D01*
X8949615Y-8408453D01*
X8902858Y-8254317D01*
X8826930Y-8112264D01*
X8734796Y-8000000D01*
X8826930Y-7887736D01*
X8902858Y-7745683D01*
X8949615Y-7591547D01*
X8965403Y-7431250D01*
X8965403Y-6993750D01*
X8949615Y-6833453D01*
X8902858Y-6679317D01*
X8826930Y-6537264D01*
X8724746Y-6412754D01*
X8687500Y-6382187D01*
X8687500Y-5597288D01*
X8687939Y-5579372D01*
X8688536Y-5571281D01*
X8689261Y-5565403D01*
X9056250Y-5565403D01*
X9221424Y-5549135D01*
X9380250Y-5500955D01*
X9526625Y-5422716D01*
X9654924Y-5317424D01*
X9760216Y-5189125D01*
X9838455Y-5042750D01*
X9886635Y-4883924D01*
X9902903Y-4718750D01*
X9902903Y-4231250D01*
X9886635Y-4066076D01*
X9838455Y-3907250D01*
X9760216Y-3760875D01*
X9654924Y-3632576D01*
X9614742Y-3599600D01*
X9634955Y-3588796D01*
X9726317Y-3513817D01*
X9801296Y-3422455D01*
X9857010Y-3318221D01*
X9891318Y-3205121D01*
X9902903Y-3087500D01*
X9900000Y-2850000D01*
X9750000Y-2700000D01*
X8700000Y-2700000D01*
X8700000Y-2720000D01*
X8500000Y-2720000D01*
X8500000Y-2700000D01*
X6487500Y-2700000D01*
X6487500Y-3675000D01*
X6637500Y-3825000D01*
X7262500Y-3827903D01*
X7380121Y-3816318D01*
X7415960Y-3805447D01*
X7361545Y-3907250D01*
X7313365Y-4066076D01*
X7297758Y-4224542D01*
X7178893Y-4188485D01*
X7012500Y-4172097D01*
X5762500Y-4172097D01*
X5596107Y-4188485D01*
X5436108Y-4237020D01*
X5288652Y-4315837D01*
X5159407Y-4421907D01*
X5053337Y-4551152D01*
X4974520Y-4698608D01*
X4925985Y-4858607D01*
X4909597Y-5025000D01*
X4909597Y-5301671D01*
X4847980Y-5259827D01*
X4648564Y-5175465D01*
X4590134Y-5163685D01*
X4420000Y-5285278D01*
X4420000Y-6680000D01*
X4440000Y-6680000D01*
X4440000Y-6880000D01*
X4420000Y-6880000D01*
X4420000Y-6900000D01*
X4220000Y-6900000D01*
X4220000Y-6880000D01*
X4200000Y-6880000D01*
X4200000Y-6680000D01*
X4220000Y-6680000D01*
X4220000Y-5285278D01*
X4049866Y-5163685D01*
X3991436Y-5175465D01*
X3792020Y-5259827D01*
X3612894Y-5381472D01*
X3470876Y-5525640D01*
X3328152Y-5430275D01*
X3159813Y-5360547D01*
X2981105Y-5325000D01*
X2798895Y-5325000D01*
X2620187Y-5360547D01*
X2451848Y-5430275D01*
X2300347Y-5531505D01*
X2171505Y-5660347D01*
X2070275Y-5811848D01*
X2000547Y-5980187D01*
X1965000Y-6158895D01*
X1965000Y-6341105D01*
X1971572Y-6374146D01*
X1900000Y-6367097D01*
X1600000Y-6367097D01*
X1500000Y-6376946D01*
X1400000Y-6367097D01*
X1247414Y-6367097D01*
X1229717Y-6343233D01*
X1227087Y-6338846D01*
X1223644Y-6335047D01*
X1220608Y-6330954D01*
X1216831Y-6327531D01*
X1168167Y-6273841D01*
X1164534Y-6269832D01*
X1161491Y-6265729D01*
X1157703Y-6262296D01*
X1154270Y-6258508D01*
X1150172Y-6255469D01*
X1127192Y-6234642D01*
X1092468Y-6203168D01*
X1089045Y-6199391D01*
X1084952Y-6196355D01*
X1081153Y-6192912D01*
X1076762Y-6190280D01*
X1053311Y-6172888D01*
X1014209Y-6143888D01*
X1010417Y-6140451D01*
X1006015Y-6137813D01*
X1001915Y-6134772D01*
X997301Y-6132590D01*
X944244Y-6100790D01*
X935570Y-6095591D01*
X930537Y-6092574D01*
X926430Y-6089528D01*
X921807Y-6087341D01*
X921803Y-6087339D01*
X921800Y-6087337D01*
X917406Y-6084704D01*
X912591Y-6082981D01*
X890333Y-6072454D01*
X842193Y-6049684D01*
X837813Y-6047059D01*
X833008Y-6045340D01*
X828393Y-6043157D01*
X823438Y-6041916D01*
X762618Y-6020155D01*
X750109Y-6015679D01*
X745494Y-6013496D01*
X740544Y-6012256D01*
X740541Y-6012255D01*
X740530Y-6012252D01*
X740521Y-6012249D01*
X740516Y-6012248D01*
X735704Y-6010526D01*
X730648Y-6009776D01*
X718015Y-6006612D01*
X655104Y-5990852D01*
X650300Y-5989133D01*
X645257Y-5988385D01*
X640307Y-5987145D01*
X635205Y-5986894D01*
X582860Y-5979131D01*
X548102Y-5973975D01*
X548090Y-5973974D01*
X543031Y-5973224D01*
X537925Y-5973475D01*
X501502Y-5971685D01*
X484390Y-5970000D01*
X467202Y-5970000D01*
X444896Y-5968904D01*
X439834Y-5969655D01*
X432812Y-5970000D01*
X67189Y-5970000D01*
X60160Y-5969655D01*
X55100Y-5968904D01*
X32798Y-5970000D01*
X15610Y-5970000D01*
X-1509Y-5971686D01*
X-15057Y-5972352D01*
X-37925Y-5973475D01*
X-43031Y-5973224D01*
X-48098Y-5973976D01*
X-48106Y-5973976D01*
X-76036Y-5978119D01*
X-135220Y-5986897D01*
X-140315Y-5987147D01*
X-145257Y-5988385D01*
X-150300Y-5989133D01*
X-155106Y-5990852D01*
X-200736Y-6002284D01*
X-230649Y-6009776D01*
X-235703Y-6010526D01*
X-240513Y-6012247D01*
X-240521Y-6012249D01*
X-240535Y-6012254D01*
X-245497Y-6013497D01*
X-250114Y-6015681D01*
X-256648Y-6018019D01*
X-323440Y-6041917D01*
X-328392Y-6043157D01*
X-333004Y-6045338D01*
X-337813Y-6047059D01*
X-342197Y-6049687D01*
X-396903Y-6075562D01*
X-412576Y-6082974D01*
X-417393Y-6084698D01*
X-421782Y-6087329D01*
X-421785Y-6087330D01*
X-421793Y-6087335D01*
X-421802Y-6087339D01*
X-421811Y-6087345D01*
X-426436Y-6089532D01*
X-430544Y-6092579D01*
X-438545Y-6097375D01*
X-497328Y-6132606D01*
X-501944Y-6134790D01*
X-506042Y-6137830D01*
X-510416Y-6140451D01*
X-514197Y-6143878D01*
X-557999Y-6176365D01*
X-576759Y-6190278D01*
X-581139Y-6192903D01*
X-584932Y-6196341D01*
X-584939Y-6196346D01*
X-584942Y-6196349D01*
X-589044Y-6199391D01*
X-592474Y-6203176D01*
X-606291Y-6215699D01*
X-650171Y-6255467D01*
X-654265Y-6258504D01*
X-657687Y-6262279D01*
X-661482Y-6265719D01*
X-664530Y-6269829D01*
X-686923Y-6294537D01*
X-716830Y-6327534D01*
X-720622Y-6330971D01*
X-723678Y-6335091D01*
X-727106Y-6338874D01*
X-729730Y-6343252D01*
X-747414Y-6367097D01*
X-900000Y-6367097D01*
X-1000000Y-6376946D01*
X-1100000Y-6367097D01*
X-1400000Y-6367097D01*
X-1500000Y-6376946D01*
X-1600000Y-6367097D01*
X-1900000Y-6367097D01*
X-1971572Y-6374146D01*
X-1965000Y-6341105D01*
X-1965000Y-6158895D01*
X-2000547Y-5980187D01*
X-2070275Y-5811848D01*
X-2171505Y-5660347D01*
X-2300347Y-5531505D01*
X-2451848Y-5430275D01*
X-2620187Y-5360547D01*
X-2798895Y-5325000D01*
X-2981105Y-5325000D01*
X-3159813Y-5360547D01*
X-3328152Y-5430275D01*
X-3470876Y-5525640D01*
X-3612894Y-5381472D01*
X-3792020Y-5259827D01*
X-3991436Y-5175465D01*
X-4049866Y-5163685D01*
X-4220000Y-5285278D01*
X-4220000Y-6680000D01*
X-4200000Y-6680000D01*
X-4200000Y-6880000D01*
X-4220000Y-6880000D01*
X-4220000Y-8274722D01*
X-4127903Y-8340543D01*
X-4127903Y-8420000D01*
X-4125127Y-8448188D01*
X-4202669Y-8500000D01*
X-4550000Y-8500000D01*
X-4550000Y-8367632D01*
X-4420000Y-8274722D01*
X-4420000Y-6880000D01*
X-4440000Y-6880000D01*
X-4440000Y-6680000D01*
X-4420000Y-6680000D01*
X-4420000Y-5285278D01*
X-4550000Y-5192368D01*
X-4550000Y-3937632D01*
X-4420000Y-3844722D01*
X-4420000Y-2700000D01*
X-4220000Y-2700000D01*
X-4220000Y-3844722D01*
X-4049866Y-3966315D01*
X-3991436Y-3954535D01*
X-3792020Y-3870173D01*
X-3612894Y-3748528D01*
X-3460941Y-3594274D01*
X-3342001Y-3413340D01*
X-3260645Y-3212678D01*
X-3220000Y-3000000D01*
X-3220000Y-2700000D01*
X3220000Y-2700000D01*
X3220000Y-3000000D01*
X3260645Y-3212678D01*
X3342001Y-3413340D01*
X3460941Y-3594274D01*
X3612894Y-3748528D01*
X3792020Y-3870173D01*
X3991436Y-3954535D01*
X4049866Y-3966315D01*
X4220000Y-3844722D01*
X4220000Y-2700000D01*
X4420000Y-2700000D01*
X4420000Y-3844722D01*
X4590134Y-3966315D01*
X4648564Y-3954535D01*
X4847980Y-3870173D01*
X5027106Y-3748528D01*
X5106468Y-3667964D01*
X5177545Y-3726296D01*
X5281779Y-3782010D01*
X5394879Y-3816318D01*
X5512500Y-3827903D01*
X6137500Y-3825000D01*
X6287500Y-3675000D01*
X6287500Y-2700000D01*
X4420000Y-2700000D01*
X4220000Y-2700000D01*
X3220000Y-2700000D01*
X-3220000Y-2700000D01*
X-4220000Y-2700000D01*
X-4420000Y-2700000D01*
X-4440000Y-2700000D01*
X-4440000Y-2500000D01*
X-4420000Y-2500000D01*
X-4420000Y-1355278D01*
X-4220000Y-1355278D01*
X-4220000Y-2500000D01*
X-3220000Y-2500000D01*
X-3220000Y-2200000D01*
X3220000Y-2200000D01*
X3220000Y-2500000D01*
X4220000Y-2500000D01*
X4220000Y-1355278D01*
X4420000Y-1355278D01*
X4420000Y-2500000D01*
X6287500Y-2500000D01*
X6287500Y-1525000D01*
X6487500Y-1525000D01*
X6487500Y-2500000D01*
X8500000Y-2500000D01*
X8500000Y-1662500D01*
X8700000Y-1662500D01*
X8700000Y-2500000D01*
X9750000Y-2500000D01*
X9900000Y-2350000D01*
X9902903Y-2112500D01*
X9891318Y-1994879D01*
X9857010Y-1881779D01*
X9801296Y-1777545D01*
X9726317Y-1686183D01*
X9634955Y-1611204D01*
X9530721Y-1555490D01*
X9417621Y-1521182D01*
X9300000Y-1509597D01*
X8850000Y-1512500D01*
X8700000Y-1662500D01*
X8500000Y-1662500D01*
X8350000Y-1512500D01*
X7900000Y-1509597D01*
X7782379Y-1521182D01*
X7689395Y-1549388D01*
X7688817Y-1548683D01*
X7597455Y-1473704D01*
X7493221Y-1417990D01*
X7380121Y-1383682D01*
X7262500Y-1372097D01*
X6637500Y-1375000D01*
X6487500Y-1525000D01*
X6287500Y-1525000D01*
X6137500Y-1375000D01*
X5512500Y-1372097D01*
X5394879Y-1383682D01*
X5281779Y-1417990D01*
X5177545Y-1473704D01*
X5106468Y-1532036D01*
X5027106Y-1451472D01*
X4847980Y-1329827D01*
X4648564Y-1245465D01*
X4590134Y-1233685D01*
X4420000Y-1355278D01*
X4220000Y-1355278D01*
X4049866Y-1233685D01*
X3991436Y-1245465D01*
X3792020Y-1329827D01*
X3612894Y-1451472D01*
X3460941Y-1605726D01*
X3342001Y-1786660D01*
X3260645Y-1987322D01*
X3220000Y-2200000D01*
X-3220000Y-2200000D01*
X-3260645Y-1987322D01*
X-3342001Y-1786660D01*
X-3460941Y-1605726D01*
X-3612894Y-1451472D01*
X-3792020Y-1329827D01*
X-3991436Y-1245465D01*
X-4049866Y-1233685D01*
X-4220000Y-1355278D01*
X-4420000Y-1355278D01*
X-4550000Y-1262368D01*
X-4550000Y-700000D01*
X12800000Y-700000D01*
X12800000Y-10062582D01*
X12800000Y-10062582D01*
G37*
X12800000Y-10062582D02*
X12741689Y-10038429D01*
X12548491Y-10000000D01*
X12351509Y-10000000D01*
X12158311Y-10038429D01*
X11976322Y-10113811D01*
X11900000Y-10164808D01*
X11823678Y-10113811D01*
X11641689Y-10038429D01*
X11448491Y-10000000D01*
X11251509Y-10000000D01*
X11058311Y-10038429D01*
X10876322Y-10113811D01*
X10712537Y-10223249D01*
X10573249Y-10362537D01*
X10507598Y-10460790D01*
X10374879Y-10420720D01*
X10319299Y-10409715D01*
X10263902Y-10397940D01*
X10255223Y-10397028D01*
X10061334Y-10378017D01*
X10030704Y-10375000D01*
X8444897Y-10375000D01*
X8461212Y-10340506D01*
X8461212Y-10340505D01*
X8473344Y-10314855D01*
X8477904Y-10305214D01*
X8491060Y-10268447D01*
X8491062Y-10268443D01*
X8507232Y-10223249D01*
X8512716Y-10207923D01*
X8512716Y-10207920D01*
X8515783Y-10199349D01*
X8525870Y-10171159D01*
X8550978Y-10070924D01*
X8550978Y-10070918D01*
X8555365Y-10053403D01*
X8560464Y-10033049D01*
X8560464Y-10033046D01*
X8560467Y-10033036D01*
X8566862Y-9989922D01*
X8574982Y-9935186D01*
X8581357Y-9892209D01*
X8585813Y-9801519D01*
X8587500Y-9784390D01*
X8587500Y-9767181D01*
X8588344Y-9750005D01*
X8587500Y-9732821D01*
X8587500Y-9696237D01*
X8600236Y-9689430D01*
X8724746Y-9587246D01*
X8826930Y-9462736D01*
X8902858Y-9320683D01*
X8949615Y-9166547D01*
X8965403Y-9006250D01*
X8965403Y-8568750D01*
X8949615Y-8408453D01*
X8902858Y-8254317D01*
X8826930Y-8112264D01*
X8734796Y-8000000D01*
X8826930Y-7887736D01*
X8902858Y-7745683D01*
X8949615Y-7591547D01*
X8965403Y-7431250D01*
X8965403Y-6993750D01*
X8949615Y-6833453D01*
X8902858Y-6679317D01*
X8826930Y-6537264D01*
X8724746Y-6412754D01*
X8687500Y-6382187D01*
X8687500Y-5597288D01*
X8687939Y-5579372D01*
X8688536Y-5571281D01*
X8689261Y-5565403D01*
X9056250Y-5565403D01*
X9221424Y-5549135D01*
X9380250Y-5500955D01*
X9526625Y-5422716D01*
X9654924Y-5317424D01*
X9760216Y-5189125D01*
X9838455Y-5042750D01*
X9886635Y-4883924D01*
X9902903Y-4718750D01*
X9902903Y-4231250D01*
X9886635Y-4066076D01*
X9838455Y-3907250D01*
X9760216Y-3760875D01*
X9654924Y-3632576D01*
X9614742Y-3599600D01*
X9634955Y-3588796D01*
X9726317Y-3513817D01*
X9801296Y-3422455D01*
X9857010Y-3318221D01*
X9891318Y-3205121D01*
X9902903Y-3087500D01*
X9900000Y-2850000D01*
X9750000Y-2700000D01*
X8700000Y-2700000D01*
X8700000Y-2720000D01*
X8500000Y-2720000D01*
X8500000Y-2700000D01*
X6487500Y-2700000D01*
X6487500Y-3675000D01*
X6637500Y-3825000D01*
X7262500Y-3827903D01*
X7380121Y-3816318D01*
X7415960Y-3805447D01*
X7361545Y-3907250D01*
X7313365Y-4066076D01*
X7297758Y-4224542D01*
X7178893Y-4188485D01*
X7012500Y-4172097D01*
X5762500Y-4172097D01*
X5596107Y-4188485D01*
X5436108Y-4237020D01*
X5288652Y-4315837D01*
X5159407Y-4421907D01*
X5053337Y-4551152D01*
X4974520Y-4698608D01*
X4925985Y-4858607D01*
X4909597Y-5025000D01*
X4909597Y-5301671D01*
X4847980Y-5259827D01*
X4648564Y-5175465D01*
X4590134Y-5163685D01*
X4420000Y-5285278D01*
X4420000Y-6680000D01*
X4440000Y-6680000D01*
X4440000Y-6880000D01*
X4420000Y-6880000D01*
X4420000Y-6900000D01*
X4220000Y-6900000D01*
X4220000Y-6880000D01*
X4200000Y-6880000D01*
X4200000Y-6680000D01*
X4220000Y-6680000D01*
X4220000Y-5285278D01*
X4049866Y-5163685D01*
X3991436Y-5175465D01*
X3792020Y-5259827D01*
X3612894Y-5381472D01*
X3470876Y-5525640D01*
X3328152Y-5430275D01*
X3159813Y-5360547D01*
X2981105Y-5325000D01*
X2798895Y-5325000D01*
X2620187Y-5360547D01*
X2451848Y-5430275D01*
X2300347Y-5531505D01*
X2171505Y-5660347D01*
X2070275Y-5811848D01*
X2000547Y-5980187D01*
X1965000Y-6158895D01*
X1965000Y-6341105D01*
X1971572Y-6374146D01*
X1900000Y-6367097D01*
X1600000Y-6367097D01*
X1500000Y-6376946D01*
X1400000Y-6367097D01*
X1247414Y-6367097D01*
X1229717Y-6343233D01*
X1227087Y-6338846D01*
X1223644Y-6335047D01*
X1220608Y-6330954D01*
X1216831Y-6327531D01*
X1168167Y-6273841D01*
X1164534Y-6269832D01*
X1161491Y-6265729D01*
X1157703Y-6262296D01*
X1154270Y-6258508D01*
X1150172Y-6255469D01*
X1127192Y-6234642D01*
X1092468Y-6203168D01*
X1089045Y-6199391D01*
X1084952Y-6196355D01*
X1081153Y-6192912D01*
X1076762Y-6190280D01*
X1053311Y-6172888D01*
X1014209Y-6143888D01*
X1010417Y-6140451D01*
X1006015Y-6137813D01*
X1001915Y-6134772D01*
X997301Y-6132590D01*
X944244Y-6100790D01*
X935570Y-6095591D01*
X930537Y-6092574D01*
X926430Y-6089528D01*
X921807Y-6087341D01*
X921803Y-6087339D01*
X921800Y-6087337D01*
X917406Y-6084704D01*
X912591Y-6082981D01*
X890333Y-6072454D01*
X842193Y-6049684D01*
X837813Y-6047059D01*
X833008Y-6045340D01*
X828393Y-6043157D01*
X823438Y-6041916D01*
X762618Y-6020155D01*
X750109Y-6015679D01*
X745494Y-6013496D01*
X740544Y-6012256D01*
X740541Y-6012255D01*
X740530Y-6012252D01*
X740521Y-6012249D01*
X740516Y-6012248D01*
X735704Y-6010526D01*
X730648Y-6009776D01*
X718015Y-6006612D01*
X655104Y-5990852D01*
X650300Y-5989133D01*
X645257Y-5988385D01*
X640307Y-5987145D01*
X635205Y-5986894D01*
X582860Y-5979131D01*
X548102Y-5973975D01*
X548090Y-5973974D01*
X543031Y-5973224D01*
X537925Y-5973475D01*
X501502Y-5971685D01*
X484390Y-5970000D01*
X467202Y-5970000D01*
X444896Y-5968904D01*
X439834Y-5969655D01*
X432812Y-5970000D01*
X67189Y-5970000D01*
X60160Y-5969655D01*
X55100Y-5968904D01*
X32798Y-5970000D01*
X15610Y-5970000D01*
X-1509Y-5971686D01*
X-15057Y-5972352D01*
X-37925Y-5973475D01*
X-43031Y-5973224D01*
X-48098Y-5973976D01*
X-48106Y-5973976D01*
X-76036Y-5978119D01*
X-135220Y-5986897D01*
X-140315Y-5987147D01*
X-145257Y-5988385D01*
X-150300Y-5989133D01*
X-155106Y-5990852D01*
X-200736Y-6002284D01*
X-230649Y-6009776D01*
X-235703Y-6010526D01*
X-240513Y-6012247D01*
X-240521Y-6012249D01*
X-240535Y-6012254D01*
X-245497Y-6013497D01*
X-250114Y-6015681D01*
X-256648Y-6018019D01*
X-323440Y-6041917D01*
X-328392Y-6043157D01*
X-333004Y-6045338D01*
X-337813Y-6047059D01*
X-342197Y-6049687D01*
X-396903Y-6075562D01*
X-412576Y-6082974D01*
X-417393Y-6084698D01*
X-421782Y-6087329D01*
X-421785Y-6087330D01*
X-421793Y-6087335D01*
X-421802Y-6087339D01*
X-421811Y-6087345D01*
X-426436Y-6089532D01*
X-430544Y-6092579D01*
X-438545Y-6097375D01*
X-497328Y-6132606D01*
X-501944Y-6134790D01*
X-506042Y-6137830D01*
X-510416Y-6140451D01*
X-514197Y-6143878D01*
X-557999Y-6176365D01*
X-576759Y-6190278D01*
X-581139Y-6192903D01*
X-584932Y-6196341D01*
X-584939Y-6196346D01*
X-584942Y-6196349D01*
X-589044Y-6199391D01*
X-592474Y-6203176D01*
X-606291Y-6215699D01*
X-650171Y-6255467D01*
X-654265Y-6258504D01*
X-657687Y-6262279D01*
X-661482Y-6265719D01*
X-664530Y-6269829D01*
X-686923Y-6294537D01*
X-716830Y-6327534D01*
X-720622Y-6330971D01*
X-723678Y-6335091D01*
X-727106Y-6338874D01*
X-729730Y-6343252D01*
X-747414Y-6367097D01*
X-900000Y-6367097D01*
X-1000000Y-6376946D01*
X-1100000Y-6367097D01*
X-1400000Y-6367097D01*
X-1500000Y-6376946D01*
X-1600000Y-6367097D01*
X-1900000Y-6367097D01*
X-1971572Y-6374146D01*
X-1965000Y-6341105D01*
X-1965000Y-6158895D01*
X-2000547Y-5980187D01*
X-2070275Y-5811848D01*
X-2171505Y-5660347D01*
X-2300347Y-5531505D01*
X-2451848Y-5430275D01*
X-2620187Y-5360547D01*
X-2798895Y-5325000D01*
X-2981105Y-5325000D01*
X-3159813Y-5360547D01*
X-3328152Y-5430275D01*
X-3470876Y-5525640D01*
X-3612894Y-5381472D01*
X-3792020Y-5259827D01*
X-3991436Y-5175465D01*
X-4049866Y-5163685D01*
X-4220000Y-5285278D01*
X-4220000Y-6680000D01*
X-4200000Y-6680000D01*
X-4200000Y-6880000D01*
X-4220000Y-6880000D01*
X-4220000Y-8274722D01*
X-4127903Y-8340543D01*
X-4127903Y-8420000D01*
X-4125127Y-8448188D01*
X-4202669Y-8500000D01*
X-4550000Y-8500000D01*
X-4550000Y-8367632D01*
X-4420000Y-8274722D01*
X-4420000Y-6880000D01*
X-4440000Y-6880000D01*
X-4440000Y-6680000D01*
X-4420000Y-6680000D01*
X-4420000Y-5285278D01*
X-4550000Y-5192368D01*
X-4550000Y-3937632D01*
X-4420000Y-3844722D01*
X-4420000Y-2700000D01*
X-4220000Y-2700000D01*
X-4220000Y-3844722D01*
X-4049866Y-3966315D01*
X-3991436Y-3954535D01*
X-3792020Y-3870173D01*
X-3612894Y-3748528D01*
X-3460941Y-3594274D01*
X-3342001Y-3413340D01*
X-3260645Y-3212678D01*
X-3220000Y-3000000D01*
X-3220000Y-2700000D01*
X3220000Y-2700000D01*
X3220000Y-3000000D01*
X3260645Y-3212678D01*
X3342001Y-3413340D01*
X3460941Y-3594274D01*
X3612894Y-3748528D01*
X3792020Y-3870173D01*
X3991436Y-3954535D01*
X4049866Y-3966315D01*
X4220000Y-3844722D01*
X4220000Y-2700000D01*
X4420000Y-2700000D01*
X4420000Y-3844722D01*
X4590134Y-3966315D01*
X4648564Y-3954535D01*
X4847980Y-3870173D01*
X5027106Y-3748528D01*
X5106468Y-3667964D01*
X5177545Y-3726296D01*
X5281779Y-3782010D01*
X5394879Y-3816318D01*
X5512500Y-3827903D01*
X6137500Y-3825000D01*
X6287500Y-3675000D01*
X6287500Y-2700000D01*
X4420000Y-2700000D01*
X4220000Y-2700000D01*
X3220000Y-2700000D01*
X-3220000Y-2700000D01*
X-4220000Y-2700000D01*
X-4420000Y-2700000D01*
X-4440000Y-2700000D01*
X-4440000Y-2500000D01*
X-4420000Y-2500000D01*
X-4420000Y-1355278D01*
X-4220000Y-1355278D01*
X-4220000Y-2500000D01*
X-3220000Y-2500000D01*
X-3220000Y-2200000D01*
X3220000Y-2200000D01*
X3220000Y-2500000D01*
X4220000Y-2500000D01*
X4220000Y-1355278D01*
X4420000Y-1355278D01*
X4420000Y-2500000D01*
X6287500Y-2500000D01*
X6287500Y-1525000D01*
X6487500Y-1525000D01*
X6487500Y-2500000D01*
X8500000Y-2500000D01*
X8500000Y-1662500D01*
X8700000Y-1662500D01*
X8700000Y-2500000D01*
X9750000Y-2500000D01*
X9900000Y-2350000D01*
X9902903Y-2112500D01*
X9891318Y-1994879D01*
X9857010Y-1881779D01*
X9801296Y-1777545D01*
X9726317Y-1686183D01*
X9634955Y-1611204D01*
X9530721Y-1555490D01*
X9417621Y-1521182D01*
X9300000Y-1509597D01*
X8850000Y-1512500D01*
X8700000Y-1662500D01*
X8500000Y-1662500D01*
X8350000Y-1512500D01*
X7900000Y-1509597D01*
X7782379Y-1521182D01*
X7689395Y-1549388D01*
X7688817Y-1548683D01*
X7597455Y-1473704D01*
X7493221Y-1417990D01*
X7380121Y-1383682D01*
X7262500Y-1372097D01*
X6637500Y-1375000D01*
X6487500Y-1525000D01*
X6287500Y-1525000D01*
X6137500Y-1375000D01*
X5512500Y-1372097D01*
X5394879Y-1383682D01*
X5281779Y-1417990D01*
X5177545Y-1473704D01*
X5106468Y-1532036D01*
X5027106Y-1451472D01*
X4847980Y-1329827D01*
X4648564Y-1245465D01*
X4590134Y-1233685D01*
X4420000Y-1355278D01*
X4220000Y-1355278D01*
X4049866Y-1233685D01*
X3991436Y-1245465D01*
X3792020Y-1329827D01*
X3612894Y-1451472D01*
X3460941Y-1605726D01*
X3342001Y-1786660D01*
X3260645Y-1987322D01*
X3220000Y-2200000D01*
X-3220000Y-2200000D01*
X-3260645Y-1987322D01*
X-3342001Y-1786660D01*
X-3460941Y-1605726D01*
X-3612894Y-1451472D01*
X-3792020Y-1329827D01*
X-3991436Y-1245465D01*
X-4049866Y-1233685D01*
X-4220000Y-1355278D01*
X-4420000Y-1355278D01*
X-4550000Y-1262368D01*
X-4550000Y-700000D01*
X12800000Y-700000D01*
X12800000Y-10062582D01*
G36*
X-5450000Y-9400000D02*
G01*
X-5782823Y-9400000D01*
X-5809716Y-9398678D01*
X-5819348Y-9397250D01*
X-5828779Y-9394887D01*
X-5837948Y-9391607D01*
X-5846743Y-9387447D01*
X-5855083Y-9382448D01*
X-5862908Y-9376645D01*
X-5870114Y-9370113D01*
X-5876649Y-9362903D01*
X-5882445Y-9355089D01*
X-5887448Y-9346741D01*
X-5891606Y-9337950D01*
X-5894888Y-9328777D01*
X-5897250Y-9319350D01*
X-5898678Y-9309717D01*
X-5900000Y-9282823D01*
X-5900000Y-5950429D01*
X-5839279Y-5932010D01*
X-5735045Y-5876296D01*
X-5643683Y-5801317D01*
X-5568704Y-5709955D01*
X-5512990Y-5605721D01*
X-5478682Y-5492621D01*
X-5467097Y-5375000D01*
X-5467097Y-4725000D01*
X-5478682Y-4607379D01*
X-5488504Y-4575000D01*
X-5478682Y-4542621D01*
X-5467097Y-4425000D01*
X-5470000Y-4350000D01*
X-5620000Y-4200000D01*
X-5779392Y-4200000D01*
X-5839279Y-4167990D01*
X-5952379Y-4133682D01*
X-6070000Y-4122097D01*
X-6680439Y-4122097D01*
X-6691812Y-4117056D01*
X-6705881Y-4112408D01*
X-6719448Y-4106395D01*
X-6720000Y-4106213D01*
X-6720000Y-4077903D01*
X-6070000Y-4077903D01*
X-5952379Y-4066318D01*
X-5839279Y-4032010D01*
X-5779392Y-4000000D01*
X-5620000Y-4000000D01*
X-5470000Y-3850000D01*
X-5467097Y-3775000D01*
X-5478682Y-3657379D01*
X-5488504Y-3625000D01*
X-5478682Y-3592621D01*
X-5467097Y-3475000D01*
X-5467097Y-2825000D01*
X-5478682Y-2707379D01*
X-5512990Y-2594279D01*
X-5568704Y-2490045D01*
X-5643683Y-2398683D01*
X-5735045Y-2323704D01*
X-5839279Y-2267990D01*
X-5952379Y-2233682D01*
X-6070000Y-2222097D01*
X-6962378Y-2222097D01*
X-6976374Y-2192504D01*
X-7002803Y-2148411D01*
X-7029493Y-2103880D01*
X-7029497Y-2103875D01*
X-7042816Y-2081655D01*
X-7052093Y-2066177D01*
X-7053766Y-2063920D01*
X-7078275Y-2030874D01*
X-7078276Y-2030872D01*
X-7126959Y-1965232D01*
X-7139832Y-1947874D01*
X-7169348Y-1915308D01*
X-7169349Y-1915306D01*
X-7196853Y-1884961D01*
X-7209225Y-1871310D01*
X-7209226Y-1871309D01*
X-7211486Y-1868816D01*
X-7238743Y-1838742D01*
X-7315306Y-1769349D01*
X-7315309Y-1769347D01*
X-7315616Y-1769069D01*
X-7347873Y-1739832D01*
X-7466176Y-1652093D01*
X-7503876Y-1629497D01*
X-7503881Y-1629492D01*
X-7566600Y-1591901D01*
X-7592504Y-1576374D01*
X-7600580Y-1572554D01*
X-7607080Y-1569480D01*
X-7685914Y-1532194D01*
X-7685918Y-1532193D01*
X-7725648Y-1513402D01*
X-7729412Y-1512055D01*
X-7766768Y-1498689D01*
X-7767031Y-1498595D01*
X-7767034Y-1498593D01*
X-7864325Y-1463782D01*
X-7906961Y-1453102D01*
X-7906968Y-1453099D01*
X-8007203Y-1427993D01*
X-8031605Y-1424373D01*
X-8109412Y-1412831D01*
X-8109418Y-1412831D01*
X-8139907Y-1408309D01*
X-8152898Y-1406382D01*
X-8216911Y-1403238D01*
X-8248480Y-1401687D01*
X-8265610Y-1400000D01*
X-8282823Y-1400000D01*
X-8300003Y-1399156D01*
X-8317180Y-1400000D01*
X-12582816Y-1400000D01*
X-12599997Y-1399156D01*
X-12617177Y-1400000D01*
X-12634390Y-1400000D01*
X-12651520Y-1401687D01*
X-12683100Y-1403239D01*
X-12683104Y-1403238D01*
X-12768581Y-1407438D01*
X-12786314Y-1408309D01*
X-12868620Y-1420517D01*
X-12868623Y-1420517D01*
X-12970835Y-1435680D01*
X-13051546Y-1455897D01*
X-13051549Y-1455897D01*
X-13142130Y-1478587D01*
X-13151787Y-1481006D01*
X-13230128Y-1509037D01*
X-13230130Y-1509037D01*
X-13314009Y-1539050D01*
X-13327421Y-1543849D01*
X-13401849Y-1579051D01*
X-13402639Y-1579425D01*
X-13402641Y-1579425D01*
X-13451703Y-1602630D01*
X-13496053Y-1623606D01*
X-13567420Y-1666382D01*
X-13567423Y-1666383D01*
X-13656053Y-1719506D01*
X-13686711Y-1742244D01*
X-13739050Y-1781061D01*
X-13739052Y-1781063D01*
X-13750022Y-1789199D01*
X-13805876Y-1830623D01*
X-13805882Y-1830629D01*
X-13805884Y-1830630D01*
X-13821399Y-1844692D01*
X-13867532Y-1886504D01*
X-13867539Y-1886508D01*
X-13925509Y-1939050D01*
X-13944097Y-1955897D01*
X-13944099Y-1955900D01*
X-13944102Y-1955902D01*
X-13950332Y-1962776D01*
X-14013491Y-2032460D01*
X-14013495Y-2032467D01*
X-14028518Y-2049042D01*
X-14066770Y-2091248D01*
X-14069375Y-2094122D01*
X-14118936Y-2160948D01*
X-14118938Y-2160949D01*
X-14137232Y-2185616D01*
X-14180493Y-2243946D01*
X-14223270Y-2315315D01*
X-14223271Y-2315316D01*
X-14262680Y-2381067D01*
X-14276394Y-2403948D01*
X-14311970Y-2479166D01*
X-14311970Y-2479167D01*
X-14356150Y-2572578D01*
X-14363915Y-2594279D01*
X-14384181Y-2650920D01*
X-14384182Y-2650921D01*
X-14407000Y-2714695D01*
X-14418994Y-2748216D01*
X-14439212Y-2828929D01*
X-14462653Y-2922511D01*
X-14464319Y-2929164D01*
X-14479482Y-3031377D01*
X-14479482Y-3031385D01*
X-14489748Y-3100599D01*
X-14491690Y-3113688D01*
X-14496731Y-3216291D01*
X-14498312Y-3248476D01*
X-14500000Y-3265611D01*
X-14500000Y-3282821D01*
X-14500844Y-3299998D01*
X-14500000Y-3317179D01*
X-14500000Y-3517843D01*
X-14538124Y-3529408D01*
X-14543021Y-3532025D01*
X-14569279Y-3517990D01*
X-14682379Y-3483682D01*
X-14800000Y-3472097D01*
X-14850000Y-3475000D01*
X-15000000Y-3625000D01*
X-15000000Y-4195526D01*
X-15002903Y-4225000D01*
X-15002903Y-5975000D01*
X-15000000Y-6004474D01*
X-15000000Y-6575000D01*
X-14850000Y-6725000D01*
X-14800000Y-6727903D01*
X-14682379Y-6716318D01*
X-14569279Y-6682010D01*
X-14543021Y-6667975D01*
X-14538124Y-6670592D01*
X-14396884Y-6713436D01*
X-14250000Y-6727903D01*
X-13950000Y-6727903D01*
X-13803116Y-6713436D01*
X-13661876Y-6670592D01*
X-13600000Y-6637518D01*
X-13538124Y-6670592D01*
X-13396884Y-6713436D01*
X-13250000Y-6727903D01*
X-12950000Y-6727903D01*
X-12803116Y-6713436D01*
X-12661876Y-6670592D01*
X-12600000Y-6637518D01*
X-12538124Y-6670592D01*
X-12396884Y-6713436D01*
X-12250000Y-6727903D01*
X-11950000Y-6727903D01*
X-11803116Y-6713436D01*
X-11661876Y-6670592D01*
X-11531710Y-6601016D01*
X-11417617Y-6507383D01*
X-11323984Y-6393290D01*
X-11254408Y-6263124D01*
X-11211564Y-6121884D01*
X-11197097Y-5975000D01*
X-11197097Y-4900000D01*
X-10700000Y-4900000D01*
X-10700000Y-4970562D01*
X-10700723Y-4980366D01*
X-10700000Y-5009796D01*
X-10700000Y-5039293D01*
X-10699101Y-5048423D01*
X-10699558Y-5067050D01*
X-10698112Y-5086655D01*
X-10697629Y-5106310D01*
X-10695224Y-5125809D01*
X-10694624Y-5133935D01*
X-10694142Y-5153582D01*
X-10691736Y-5173091D01*
X-10690290Y-5192693D01*
X-10686931Y-5212054D01*
X-10685933Y-5220145D01*
X-10684487Y-5239746D01*
X-10681127Y-5259110D01*
X-10678721Y-5278619D01*
X-10674415Y-5297796D01*
X-10673021Y-5305827D01*
X-10670615Y-5325335D01*
X-10666309Y-5344509D01*
X-10662949Y-5363875D01*
X-10657705Y-5382824D01*
X-10655920Y-5390775D01*
X-10652558Y-5410148D01*
X-10647314Y-5429096D01*
X-10643011Y-5448259D01*
X-10636849Y-5466912D01*
X-10634667Y-5474798D01*
X-10630364Y-5493958D01*
X-10624204Y-5512605D01*
X-10618956Y-5531568D01*
X-10611877Y-5549919D01*
X-10609332Y-5557622D01*
X-10604086Y-5576580D01*
X-10597006Y-5594933D01*
X-10590845Y-5613584D01*
X-10582885Y-5631541D01*
X-10579946Y-5639161D01*
X-10573780Y-5657825D01*
X-10565815Y-5675794D01*
X-10558745Y-5694122D01*
X-10549911Y-5711673D01*
X-10546597Y-5719150D01*
X-10539526Y-5737479D01*
X-10530696Y-5755021D01*
X-10522726Y-5773001D01*
X-10513031Y-5790114D01*
X-10509376Y-5797376D01*
X-10501410Y-5815347D01*
X-10491719Y-5832454D01*
X-10482882Y-5850010D01*
X-10472369Y-5866613D01*
X-10468357Y-5873695D01*
X-10459516Y-5891258D01*
X-10448997Y-5907869D01*
X-10439313Y-5924964D01*
X-10427998Y-5941030D01*
X-10423633Y-5947924D01*
X-10413939Y-5965035D01*
X-10402621Y-5981105D01*
X-10392114Y-5997697D01*
X-10380022Y-6013192D01*
X-10375322Y-6019865D01*
X-10364808Y-6036468D01*
X-10352711Y-6051969D01*
X-10341394Y-6068037D01*
X-10328561Y-6082914D01*
X-10323548Y-6089337D01*
X-10312229Y-6105409D01*
X-10299387Y-6120296D01*
X-10287298Y-6135787D01*
X-10273752Y-6150015D01*
X-10268427Y-6156188D01*
X-10256346Y-6171669D01*
X-10242792Y-6185906D01*
X-10229940Y-6200805D01*
X-10216439Y-6213659D01*
X-10210626Y-6220742D01*
X-10189799Y-6241569D01*
X-10169477Y-6262915D01*
X-10162021Y-6269347D01*
X-9877903Y-6553466D01*
X-9877903Y-7275000D01*
X-9861515Y-7441393D01*
X-9812980Y-7601392D01*
X-9734163Y-7748848D01*
X-9628093Y-7878093D01*
X-9498848Y-7984163D01*
X-9351392Y-8062980D01*
X-9343754Y-8065297D01*
X-9361571Y-8108311D01*
X-9400000Y-8301509D01*
X-9400000Y-8342066D01*
X-9416740Y-8286882D01*
X-9501286Y-8128707D01*
X-9615066Y-7990066D01*
X-9753707Y-7876286D01*
X-9911882Y-7791740D01*
X-10083511Y-7739677D01*
X-10262000Y-7722097D01*
X-11138000Y-7722097D01*
X-11316489Y-7739677D01*
X-11488118Y-7791740D01*
X-11646293Y-7876286D01*
X-11784934Y-7990066D01*
X-11898714Y-8128707D01*
X-11983260Y-8286882D01*
X-12035323Y-8458511D01*
X-12052903Y-8637000D01*
X-12052903Y-9813000D01*
X-12035323Y-9991489D01*
X-12001364Y-10103438D01*
X-12158311Y-10038429D01*
X-12351509Y-10000000D01*
X-12548491Y-10000000D01*
X-12741689Y-10038429D01*
X-12923678Y-10113811D01*
X-13000000Y-10164808D01*
X-13076322Y-10113811D01*
X-13258311Y-10038429D01*
X-13451509Y-10000000D01*
X-13648491Y-10000000D01*
X-13841689Y-10038429D01*
X-14023678Y-10113811D01*
X-14100000Y-10164808D01*
X-14176322Y-10113811D01*
X-14358311Y-10038429D01*
X-14551509Y-10000000D01*
X-14748491Y-10000000D01*
X-14941689Y-10038429D01*
X-15123678Y-10113811D01*
X-15227445Y-10183146D01*
X-15216740Y-10163118D01*
X-15164677Y-9991489D01*
X-15147097Y-9813000D01*
X-15147097Y-8637000D01*
X-15164677Y-8458511D01*
X-15216740Y-8286882D01*
X-15301286Y-8128707D01*
X-15415066Y-7990066D01*
X-15553707Y-7876286D01*
X-15711882Y-7791740D01*
X-15883511Y-7739677D01*
X-16062000Y-7722097D01*
X-16800000Y-7722097D01*
X-16800000Y-6125000D01*
X-16002903Y-6125000D01*
X-15991318Y-6242621D01*
X-15957010Y-6355721D01*
X-15901296Y-6459955D01*
X-15826317Y-6551317D01*
X-15734955Y-6626296D01*
X-15630721Y-6682010D01*
X-15517621Y-6716318D01*
X-15400000Y-6727903D01*
X-15350000Y-6725000D01*
X-15200000Y-6575000D01*
X-15200000Y-5200000D01*
X-15850000Y-5200000D01*
X-16000000Y-5350000D01*
X-16002903Y-6125000D01*
X-16800000Y-6125000D01*
X-16800000Y-4075000D01*
X-16002903Y-4075000D01*
X-16000000Y-4850000D01*
X-15850000Y-5000000D01*
X-15200000Y-5000000D01*
X-15200000Y-3625000D01*
X-15350000Y-3475000D01*
X-15400000Y-3472097D01*
X-15517621Y-3483682D01*
X-15630721Y-3517990D01*
X-15734955Y-3573704D01*
X-15826317Y-3648683D01*
X-15901296Y-3740045D01*
X-15957010Y-3844279D01*
X-15991318Y-3957379D01*
X-16002903Y-4075000D01*
X-16800000Y-4075000D01*
X-16800000Y-700000D01*
X-5450000Y-700000D01*
X-5450000Y-9400000D01*
X-5450000Y-9400000D01*
G37*
X-5450000Y-9400000D02*
X-5782823Y-9400000D01*
X-5809716Y-9398678D01*
X-5819348Y-9397250D01*
X-5828779Y-9394887D01*
X-5837948Y-9391607D01*
X-5846743Y-9387447D01*
X-5855083Y-9382448D01*
X-5862908Y-9376645D01*
X-5870114Y-9370113D01*
X-5876649Y-9362903D01*
X-5882445Y-9355089D01*
X-5887448Y-9346741D01*
X-5891606Y-9337950D01*
X-5894888Y-9328777D01*
X-5897250Y-9319350D01*
X-5898678Y-9309717D01*
X-5900000Y-9282823D01*
X-5900000Y-5950429D01*
X-5839279Y-5932010D01*
X-5735045Y-5876296D01*
X-5643683Y-5801317D01*
X-5568704Y-5709955D01*
X-5512990Y-5605721D01*
X-5478682Y-5492621D01*
X-5467097Y-5375000D01*
X-5467097Y-4725000D01*
X-5478682Y-4607379D01*
X-5488504Y-4575000D01*
X-5478682Y-4542621D01*
X-5467097Y-4425000D01*
X-5470000Y-4350000D01*
X-5620000Y-4200000D01*
X-5779392Y-4200000D01*
X-5839279Y-4167990D01*
X-5952379Y-4133682D01*
X-6070000Y-4122097D01*
X-6680439Y-4122097D01*
X-6691812Y-4117056D01*
X-6705881Y-4112408D01*
X-6719448Y-4106395D01*
X-6720000Y-4106213D01*
X-6720000Y-4077903D01*
X-6070000Y-4077903D01*
X-5952379Y-4066318D01*
X-5839279Y-4032010D01*
X-5779392Y-4000000D01*
X-5620000Y-4000000D01*
X-5470000Y-3850000D01*
X-5467097Y-3775000D01*
X-5478682Y-3657379D01*
X-5488504Y-3625000D01*
X-5478682Y-3592621D01*
X-5467097Y-3475000D01*
X-5467097Y-2825000D01*
X-5478682Y-2707379D01*
X-5512990Y-2594279D01*
X-5568704Y-2490045D01*
X-5643683Y-2398683D01*
X-5735045Y-2323704D01*
X-5839279Y-2267990D01*
X-5952379Y-2233682D01*
X-6070000Y-2222097D01*
X-6962378Y-2222097D01*
X-6976374Y-2192504D01*
X-7002803Y-2148411D01*
X-7029493Y-2103880D01*
X-7029497Y-2103875D01*
X-7042816Y-2081655D01*
X-7052093Y-2066177D01*
X-7053766Y-2063920D01*
X-7078275Y-2030874D01*
X-7078276Y-2030872D01*
X-7126959Y-1965232D01*
X-7139832Y-1947874D01*
X-7169348Y-1915308D01*
X-7169349Y-1915306D01*
X-7196853Y-1884961D01*
X-7209225Y-1871310D01*
X-7209226Y-1871309D01*
X-7211486Y-1868816D01*
X-7238743Y-1838742D01*
X-7315306Y-1769349D01*
X-7315309Y-1769347D01*
X-7315616Y-1769069D01*
X-7347873Y-1739832D01*
X-7466176Y-1652093D01*
X-7503876Y-1629497D01*
X-7503881Y-1629492D01*
X-7566600Y-1591901D01*
X-7592504Y-1576374D01*
X-7600580Y-1572554D01*
X-7607080Y-1569480D01*
X-7685914Y-1532194D01*
X-7685918Y-1532193D01*
X-7725648Y-1513402D01*
X-7729412Y-1512055D01*
X-7766768Y-1498689D01*
X-7767031Y-1498595D01*
X-7767034Y-1498593D01*
X-7864325Y-1463782D01*
X-7906961Y-1453102D01*
X-7906968Y-1453099D01*
X-8007203Y-1427993D01*
X-8031605Y-1424373D01*
X-8109412Y-1412831D01*
X-8109418Y-1412831D01*
X-8139907Y-1408309D01*
X-8152898Y-1406382D01*
X-8216911Y-1403238D01*
X-8248480Y-1401687D01*
X-8265610Y-1400000D01*
X-8282823Y-1400000D01*
X-8300003Y-1399156D01*
X-8317180Y-1400000D01*
X-12582816Y-1400000D01*
X-12599997Y-1399156D01*
X-12617177Y-1400000D01*
X-12634390Y-1400000D01*
X-12651520Y-1401687D01*
X-12683100Y-1403239D01*
X-12683104Y-1403238D01*
X-12768581Y-1407438D01*
X-12786314Y-1408309D01*
X-12868620Y-1420517D01*
X-12868623Y-1420517D01*
X-12970835Y-1435680D01*
X-13051546Y-1455897D01*
X-13051549Y-1455897D01*
X-13142130Y-1478587D01*
X-13151787Y-1481006D01*
X-13230128Y-1509037D01*
X-13230130Y-1509037D01*
X-13314009Y-1539050D01*
X-13327421Y-1543849D01*
X-13401849Y-1579051D01*
X-13402639Y-1579425D01*
X-13402641Y-1579425D01*
X-13451703Y-1602630D01*
X-13496053Y-1623606D01*
X-13567420Y-1666382D01*
X-13567423Y-1666383D01*
X-13656053Y-1719506D01*
X-13686711Y-1742244D01*
X-13739050Y-1781061D01*
X-13739052Y-1781063D01*
X-13750022Y-1789199D01*
X-13805876Y-1830623D01*
X-13805882Y-1830629D01*
X-13805884Y-1830630D01*
X-13821399Y-1844692D01*
X-13867532Y-1886504D01*
X-13867539Y-1886508D01*
X-13925509Y-1939050D01*
X-13944097Y-1955897D01*
X-13944099Y-1955900D01*
X-13944102Y-1955902D01*
X-13950332Y-1962776D01*
X-14013491Y-2032460D01*
X-14013495Y-2032467D01*
X-14028518Y-2049042D01*
X-14066770Y-2091248D01*
X-14069375Y-2094122D01*
X-14118936Y-2160948D01*
X-14118938Y-2160949D01*
X-14137232Y-2185616D01*
X-14180493Y-2243946D01*
X-14223270Y-2315315D01*
X-14223271Y-2315316D01*
X-14262680Y-2381067D01*
X-14276394Y-2403948D01*
X-14311970Y-2479166D01*
X-14311970Y-2479167D01*
X-14356150Y-2572578D01*
X-14363915Y-2594279D01*
X-14384181Y-2650920D01*
X-14384182Y-2650921D01*
X-14407000Y-2714695D01*
X-14418994Y-2748216D01*
X-14439212Y-2828929D01*
X-14462653Y-2922511D01*
X-14464319Y-2929164D01*
X-14479482Y-3031377D01*
X-14479482Y-3031385D01*
X-14489748Y-3100599D01*
X-14491690Y-3113688D01*
X-14496731Y-3216291D01*
X-14498312Y-3248476D01*
X-14500000Y-3265611D01*
X-14500000Y-3282821D01*
X-14500844Y-3299998D01*
X-14500000Y-3317179D01*
X-14500000Y-3517843D01*
X-14538124Y-3529408D01*
X-14543021Y-3532025D01*
X-14569279Y-3517990D01*
X-14682379Y-3483682D01*
X-14800000Y-3472097D01*
X-14850000Y-3475000D01*
X-15000000Y-3625000D01*
X-15000000Y-4195526D01*
X-15002903Y-4225000D01*
X-15002903Y-5975000D01*
X-15000000Y-6004474D01*
X-15000000Y-6575000D01*
X-14850000Y-6725000D01*
X-14800000Y-6727903D01*
X-14682379Y-6716318D01*
X-14569279Y-6682010D01*
X-14543021Y-6667975D01*
X-14538124Y-6670592D01*
X-14396884Y-6713436D01*
X-14250000Y-6727903D01*
X-13950000Y-6727903D01*
X-13803116Y-6713436D01*
X-13661876Y-6670592D01*
X-13600000Y-6637518D01*
X-13538124Y-6670592D01*
X-13396884Y-6713436D01*
X-13250000Y-6727903D01*
X-12950000Y-6727903D01*
X-12803116Y-6713436D01*
X-12661876Y-6670592D01*
X-12600000Y-6637518D01*
X-12538124Y-6670592D01*
X-12396884Y-6713436D01*
X-12250000Y-6727903D01*
X-11950000Y-6727903D01*
X-11803116Y-6713436D01*
X-11661876Y-6670592D01*
X-11531710Y-6601016D01*
X-11417617Y-6507383D01*
X-11323984Y-6393290D01*
X-11254408Y-6263124D01*
X-11211564Y-6121884D01*
X-11197097Y-5975000D01*
X-11197097Y-4900000D01*
X-10700000Y-4900000D01*
X-10700000Y-4970562D01*
X-10700723Y-4980366D01*
X-10700000Y-5009796D01*
X-10700000Y-5039293D01*
X-10699101Y-5048423D01*
X-10699558Y-5067050D01*
X-10698112Y-5086655D01*
X-10697629Y-5106310D01*
X-10695224Y-5125809D01*
X-10694624Y-5133935D01*
X-10694142Y-5153582D01*
X-10691736Y-5173091D01*
X-10690290Y-5192693D01*
X-10686931Y-5212054D01*
X-10685933Y-5220145D01*
X-10684487Y-5239746D01*
X-10681127Y-5259110D01*
X-10678721Y-5278619D01*
X-10674415Y-5297796D01*
X-10673021Y-5305827D01*
X-10670615Y-5325335D01*
X-10666309Y-5344509D01*
X-10662949Y-5363875D01*
X-10657705Y-5382824D01*
X-10655920Y-5390775D01*
X-10652558Y-5410148D01*
X-10647314Y-5429096D01*
X-10643011Y-5448259D01*
X-10636849Y-5466912D01*
X-10634667Y-5474798D01*
X-10630364Y-5493958D01*
X-10624204Y-5512605D01*
X-10618956Y-5531568D01*
X-10611877Y-5549919D01*
X-10609332Y-5557622D01*
X-10604086Y-5576580D01*
X-10597006Y-5594933D01*
X-10590845Y-5613584D01*
X-10582885Y-5631541D01*
X-10579946Y-5639161D01*
X-10573780Y-5657825D01*
X-10565815Y-5675794D01*
X-10558745Y-5694122D01*
X-10549911Y-5711673D01*
X-10546597Y-5719150D01*
X-10539526Y-5737479D01*
X-10530696Y-5755021D01*
X-10522726Y-5773001D01*
X-10513031Y-5790114D01*
X-10509376Y-5797376D01*
X-10501410Y-5815347D01*
X-10491719Y-5832454D01*
X-10482882Y-5850010D01*
X-10472369Y-5866613D01*
X-10468357Y-5873695D01*
X-10459516Y-5891258D01*
X-10448997Y-5907869D01*
X-10439313Y-5924964D01*
X-10427998Y-5941030D01*
X-10423633Y-5947924D01*
X-10413939Y-5965035D01*
X-10402621Y-5981105D01*
X-10392114Y-5997697D01*
X-10380022Y-6013192D01*
X-10375322Y-6019865D01*
X-10364808Y-6036468D01*
X-10352711Y-6051969D01*
X-10341394Y-6068037D01*
X-10328561Y-6082914D01*
X-10323548Y-6089337D01*
X-10312229Y-6105409D01*
X-10299387Y-6120296D01*
X-10287298Y-6135787D01*
X-10273752Y-6150015D01*
X-10268427Y-6156188D01*
X-10256346Y-6171669D01*
X-10242792Y-6185906D01*
X-10229940Y-6200805D01*
X-10216439Y-6213659D01*
X-10210626Y-6220742D01*
X-10189799Y-6241569D01*
X-10169477Y-6262915D01*
X-10162021Y-6269347D01*
X-9877903Y-6553466D01*
X-9877903Y-7275000D01*
X-9861515Y-7441393D01*
X-9812980Y-7601392D01*
X-9734163Y-7748848D01*
X-9628093Y-7878093D01*
X-9498848Y-7984163D01*
X-9351392Y-8062980D01*
X-9343754Y-8065297D01*
X-9361571Y-8108311D01*
X-9400000Y-8301509D01*
X-9400000Y-8342066D01*
X-9416740Y-8286882D01*
X-9501286Y-8128707D01*
X-9615066Y-7990066D01*
X-9753707Y-7876286D01*
X-9911882Y-7791740D01*
X-10083511Y-7739677D01*
X-10262000Y-7722097D01*
X-11138000Y-7722097D01*
X-11316489Y-7739677D01*
X-11488118Y-7791740D01*
X-11646293Y-7876286D01*
X-11784934Y-7990066D01*
X-11898714Y-8128707D01*
X-11983260Y-8286882D01*
X-12035323Y-8458511D01*
X-12052903Y-8637000D01*
X-12052903Y-9813000D01*
X-12035323Y-9991489D01*
X-12001364Y-10103438D01*
X-12158311Y-10038429D01*
X-12351509Y-10000000D01*
X-12548491Y-10000000D01*
X-12741689Y-10038429D01*
X-12923678Y-10113811D01*
X-13000000Y-10164808D01*
X-13076322Y-10113811D01*
X-13258311Y-10038429D01*
X-13451509Y-10000000D01*
X-13648491Y-10000000D01*
X-13841689Y-10038429D01*
X-14023678Y-10113811D01*
X-14100000Y-10164808D01*
X-14176322Y-10113811D01*
X-14358311Y-10038429D01*
X-14551509Y-10000000D01*
X-14748491Y-10000000D01*
X-14941689Y-10038429D01*
X-15123678Y-10113811D01*
X-15227445Y-10183146D01*
X-15216740Y-10163118D01*
X-15164677Y-9991489D01*
X-15147097Y-9813000D01*
X-15147097Y-8637000D01*
X-15164677Y-8458511D01*
X-15216740Y-8286882D01*
X-15301286Y-8128707D01*
X-15415066Y-7990066D01*
X-15553707Y-7876286D01*
X-15711882Y-7791740D01*
X-15883511Y-7739677D01*
X-16062000Y-7722097D01*
X-16800000Y-7722097D01*
X-16800000Y-6125000D01*
X-16002903Y-6125000D01*
X-15991318Y-6242621D01*
X-15957010Y-6355721D01*
X-15901296Y-6459955D01*
X-15826317Y-6551317D01*
X-15734955Y-6626296D01*
X-15630721Y-6682010D01*
X-15517621Y-6716318D01*
X-15400000Y-6727903D01*
X-15350000Y-6725000D01*
X-15200000Y-6575000D01*
X-15200000Y-5200000D01*
X-15850000Y-5200000D01*
X-16000000Y-5350000D01*
X-16002903Y-6125000D01*
X-16800000Y-6125000D01*
X-16800000Y-4075000D01*
X-16002903Y-4075000D01*
X-16000000Y-4850000D01*
X-15850000Y-5000000D01*
X-15200000Y-5000000D01*
X-15200000Y-3625000D01*
X-15350000Y-3475000D01*
X-15400000Y-3472097D01*
X-15517621Y-3483682D01*
X-15630721Y-3517990D01*
X-15734955Y-3573704D01*
X-15826317Y-3648683D01*
X-15901296Y-3740045D01*
X-15957010Y-3844279D01*
X-15991318Y-3957379D01*
X-16002903Y-4075000D01*
X-16800000Y-4075000D01*
X-16800000Y-700000D01*
X-5450000Y-700000D01*
X-5450000Y-9400000D01*
G36*
X-9932903Y-3357359D02*
G01*
X-9950952Y-3350901D01*
X-9951165Y-3350800D01*
X-9951411Y-3350738D01*
X-9951605Y-3350669D01*
X-9951809Y-3350639D01*
X-10010347Y-3335977D01*
X-10065268Y-3322220D01*
X-10065472Y-3322147D01*
X-10065686Y-3322115D01*
X-10065691Y-3322114D01*
X-10065695Y-3322113D01*
X-10065924Y-3322056D01*
X-10066137Y-3322046D01*
X-10139623Y-3311147D01*
X-10182515Y-3304784D01*
X-10182751Y-3304796D01*
X-10184349Y-3304717D01*
X-10241138Y-3301927D01*
X-10260707Y-3300000D01*
X-10280371Y-3300000D01*
X-10299994Y-3299036D01*
X-10300022Y-3299037D01*
X-10300254Y-3299026D01*
X-10300483Y-3299060D01*
X-10319617Y-3300000D01*
X-12055793Y-3300000D01*
X-12100000Y-3295646D01*
X-12276430Y-3313023D01*
X-12446080Y-3364486D01*
X-12602431Y-3448057D01*
X-12690849Y-3520619D01*
X-12700000Y-3517843D01*
X-12700000Y-3317176D01*
X-12698678Y-3290282D01*
X-12697250Y-3280649D01*
X-12694888Y-3271222D01*
X-12691606Y-3262049D01*
X-12687448Y-3253258D01*
X-12682445Y-3244910D01*
X-12676649Y-3237096D01*
X-12670114Y-3229886D01*
X-12662908Y-3223354D01*
X-12655083Y-3217551D01*
X-12646743Y-3212552D01*
X-12637948Y-3208392D01*
X-12628779Y-3205112D01*
X-12619348Y-3202749D01*
X-12609722Y-3201321D01*
X-12582826Y-3200000D01*
X-9932903Y-3200000D01*
X-9932903Y-3357359D01*
X-9932903Y-3357359D01*
G37*
X-9932903Y-3357359D02*
X-9950952Y-3350901D01*
X-9951165Y-3350800D01*
X-9951411Y-3350738D01*
X-9951605Y-3350669D01*
X-9951809Y-3350639D01*
X-10010347Y-3335977D01*
X-10065268Y-3322220D01*
X-10065472Y-3322147D01*
X-10065686Y-3322115D01*
X-10065691Y-3322114D01*
X-10065695Y-3322113D01*
X-10065924Y-3322056D01*
X-10066137Y-3322046D01*
X-10139623Y-3311147D01*
X-10182515Y-3304784D01*
X-10182751Y-3304796D01*
X-10184349Y-3304717D01*
X-10241138Y-3301927D01*
X-10260707Y-3300000D01*
X-10280371Y-3300000D01*
X-10299994Y-3299036D01*
X-10300022Y-3299037D01*
X-10300254Y-3299026D01*
X-10300483Y-3299060D01*
X-10319617Y-3300000D01*
X-12055793Y-3300000D01*
X-12100000Y-3295646D01*
X-12276430Y-3313023D01*
X-12446080Y-3364486D01*
X-12602431Y-3448057D01*
X-12690849Y-3520619D01*
X-12700000Y-3517843D01*
X-12700000Y-3317176D01*
X-12698678Y-3290282D01*
X-12697250Y-3280649D01*
X-12694888Y-3271222D01*
X-12691606Y-3262049D01*
X-12687448Y-3253258D01*
X-12682445Y-3244910D01*
X-12676649Y-3237096D01*
X-12670114Y-3229886D01*
X-12662908Y-3223354D01*
X-12655083Y-3217551D01*
X-12646743Y-3212552D01*
X-12637948Y-3208392D01*
X-12628779Y-3205112D01*
X-12619348Y-3202749D01*
X-12609722Y-3201321D01*
X-12582826Y-3200000D01*
X-9932903Y-3200000D01*
X-9932903Y-3357359D01*
G36*
X15216740Y-13836882D02*
G01*
X15164677Y-14008511D01*
X15147097Y-14187000D01*
X15147097Y-15363000D01*
X15164677Y-15541489D01*
X15216740Y-15713118D01*
X15301286Y-15871293D01*
X15415066Y-16009934D01*
X15553707Y-16123714D01*
X15711882Y-16208260D01*
X15883511Y-16260323D01*
X16062000Y-16277903D01*
X16800000Y-16277903D01*
X16800000Y-23300000D01*
X5450000Y-23300000D01*
X5450000Y-14600000D01*
X5782823Y-14600000D01*
X5809717Y-14601322D01*
X5819350Y-14602750D01*
X5828777Y-14605112D01*
X5837950Y-14608394D01*
X5846741Y-14612552D01*
X5855089Y-14617555D01*
X5862903Y-14623351D01*
X5870113Y-14629886D01*
X5876645Y-14637092D01*
X5882448Y-14644917D01*
X5887447Y-14653257D01*
X5891607Y-14662052D01*
X5894887Y-14671221D01*
X5897250Y-14680652D01*
X5898678Y-14690284D01*
X5900000Y-14717177D01*
X5900001Y-18049571D01*
X5839279Y-18067990D01*
X5735045Y-18123704D01*
X5643683Y-18198683D01*
X5568704Y-18290045D01*
X5512990Y-18394279D01*
X5478682Y-18507379D01*
X5467097Y-18625000D01*
X5467097Y-19275000D01*
X5478682Y-19392621D01*
X5488504Y-19425000D01*
X5478682Y-19457379D01*
X5467097Y-19575000D01*
X5470000Y-19650000D01*
X5620000Y-19800000D01*
X5779392Y-19800000D01*
X5839279Y-19832010D01*
X5952379Y-19866318D01*
X6070000Y-19877903D01*
X6680439Y-19877903D01*
X6691812Y-19882944D01*
X6705881Y-19887592D01*
X6719448Y-19893605D01*
X6720000Y-19893787D01*
X6720000Y-19922097D01*
X6070000Y-19922097D01*
X5952379Y-19933682D01*
X5839279Y-19967990D01*
X5779392Y-20000000D01*
X5620000Y-20000000D01*
X5470000Y-20150000D01*
X5467097Y-20225000D01*
X5478682Y-20342621D01*
X5488504Y-20375000D01*
X5478682Y-20407379D01*
X5467097Y-20525000D01*
X5467097Y-21175000D01*
X5478682Y-21292621D01*
X5512990Y-21405721D01*
X5568704Y-21509955D01*
X5643683Y-21601317D01*
X5735045Y-21676296D01*
X5839279Y-21732010D01*
X5952379Y-21766318D01*
X6070000Y-21777903D01*
X6962377Y-21777903D01*
X6964042Y-21781422D01*
X6974431Y-21803387D01*
X6976374Y-21807496D01*
X6988165Y-21827168D01*
X7029492Y-21896119D01*
X7029497Y-21896124D01*
X7052093Y-21933824D01*
X7139832Y-22052127D01*
X7169348Y-22084692D01*
X7169349Y-22084694D01*
X7238742Y-22161257D01*
X7265344Y-22185367D01*
X7271309Y-22190774D01*
X7271310Y-22190775D01*
X7276826Y-22195774D01*
X7315306Y-22230651D01*
X7315308Y-22230652D01*
X7347874Y-22260168D01*
X7371794Y-22277908D01*
X7430872Y-22321724D01*
X7430874Y-22321725D01*
X7466171Y-22347903D01*
X7466177Y-22347907D01*
X7486410Y-22360034D01*
X7503875Y-22370503D01*
X7503880Y-22370507D01*
X7549949Y-22398119D01*
X7592504Y-22423626D01*
X7685915Y-22467806D01*
X7685919Y-22467807D01*
X7725648Y-22486598D01*
X7725658Y-22486602D01*
X7725659Y-22486602D01*
X7729418Y-22487947D01*
X7767031Y-22501405D01*
X7767034Y-22501407D01*
X7852546Y-22532003D01*
X7864326Y-22536218D01*
X7906963Y-22546898D01*
X7906969Y-22546901D01*
X8007204Y-22572007D01*
X8030988Y-22575535D01*
X8109412Y-22587169D01*
X8109419Y-22587169D01*
X8152898Y-22593618D01*
X8216911Y-22596762D01*
X8248479Y-22598313D01*
X8265610Y-22600000D01*
X8282823Y-22600000D01*
X8300003Y-22600844D01*
X8317180Y-22600000D01*
X12582817Y-22600000D01*
X12599998Y-22600844D01*
X12617178Y-22600000D01*
X12634390Y-22600000D01*
X12651519Y-22598313D01*
X12683101Y-22596761D01*
X12683105Y-22596762D01*
X12769022Y-22592540D01*
X12786314Y-22591691D01*
X12868619Y-22579483D01*
X12868622Y-22579483D01*
X12970835Y-22564320D01*
X12982788Y-22561326D01*
X13071070Y-22539213D01*
X13151783Y-22518995D01*
X13173580Y-22511196D01*
X13249078Y-22484183D01*
X13249079Y-22484182D01*
X13313561Y-22461110D01*
X13327421Y-22456151D01*
X13420832Y-22411971D01*
X13420833Y-22411971D01*
X13496051Y-22376395D01*
X13522942Y-22360277D01*
X13584683Y-22323272D01*
X13584684Y-22323271D01*
X13656053Y-22280494D01*
X13704850Y-22244303D01*
X13739050Y-22218939D01*
X13739051Y-22218937D01*
X13805877Y-22169376D01*
X13808327Y-22167156D01*
X13845887Y-22133114D01*
X13867532Y-22113496D01*
X13867539Y-22113492D01*
X13938108Y-22049531D01*
X13944097Y-22044103D01*
X13945545Y-22042506D01*
X13956758Y-22030134D01*
X14013491Y-21967540D01*
X14013495Y-21967533D01*
X14049373Y-21927947D01*
X14069369Y-21905885D01*
X14069370Y-21905883D01*
X14069376Y-21905877D01*
X14114384Y-21845190D01*
X14118936Y-21839053D01*
X14118938Y-21839051D01*
X14147355Y-21800735D01*
X14180493Y-21756054D01*
X14233616Y-21667424D01*
X14233617Y-21667421D01*
X14276393Y-21596054D01*
X14280487Y-21587398D01*
X14320574Y-21502642D01*
X14320575Y-21502640D01*
X14356150Y-21427422D01*
X14364319Y-21404592D01*
X14390962Y-21330131D01*
X14390962Y-21330129D01*
X14418993Y-21251788D01*
X14422790Y-21236631D01*
X14444102Y-21151550D01*
X14444102Y-21151547D01*
X14464319Y-21070836D01*
X14467922Y-21046549D01*
X14479482Y-20968624D01*
X14479482Y-20968616D01*
X14479531Y-20968283D01*
X14491690Y-20886320D01*
X14498313Y-20751520D01*
X14500000Y-20734390D01*
X14500000Y-20717181D01*
X14500844Y-20700003D01*
X14500000Y-20682822D01*
X14500000Y-20482157D01*
X14538124Y-20470592D01*
X14543021Y-20467975D01*
X14569279Y-20482010D01*
X14682379Y-20516318D01*
X14800000Y-20527903D01*
X14850000Y-20525000D01*
X15000000Y-20375000D01*
X15000000Y-19804474D01*
X15002903Y-19775000D01*
X15002903Y-19000000D01*
X15200000Y-19000000D01*
X15200000Y-20375000D01*
X15350000Y-20525000D01*
X15400000Y-20527903D01*
X15517621Y-20516318D01*
X15630721Y-20482010D01*
X15734955Y-20426296D01*
X15826317Y-20351317D01*
X15901296Y-20259955D01*
X15957010Y-20155721D01*
X15991318Y-20042621D01*
X16002903Y-19925000D01*
X16000000Y-19150000D01*
X15850000Y-19000000D01*
X15200000Y-19000000D01*
X15002903Y-19000000D01*
X15002903Y-18025000D01*
X15000000Y-17995526D01*
X15000000Y-17425000D01*
X15200000Y-17425000D01*
X15200000Y-18800000D01*
X15850000Y-18800000D01*
X16000000Y-18650000D01*
X16002903Y-17875000D01*
X15991318Y-17757379D01*
X15957010Y-17644279D01*
X15901296Y-17540045D01*
X15826317Y-17448683D01*
X15734955Y-17373704D01*
X15630721Y-17317990D01*
X15517621Y-17283682D01*
X15400000Y-17272097D01*
X15350000Y-17275000D01*
X15200000Y-17425000D01*
X15000000Y-17425000D01*
X14850000Y-17275000D01*
X14800000Y-17272097D01*
X14682379Y-17283682D01*
X14569279Y-17317990D01*
X14543021Y-17332025D01*
X14538124Y-17329408D01*
X14396884Y-17286564D01*
X14250000Y-17272097D01*
X13950000Y-17272097D01*
X13803116Y-17286564D01*
X13661876Y-17329408D01*
X13600000Y-17362482D01*
X13538124Y-17329408D01*
X13396884Y-17286564D01*
X13250000Y-17272097D01*
X12950000Y-17272097D01*
X12803116Y-17286564D01*
X12661876Y-17329408D01*
X12600000Y-17362482D01*
X12538124Y-17329408D01*
X12396884Y-17286564D01*
X12250000Y-17272097D01*
X11950000Y-17272097D01*
X11803116Y-17286564D01*
X11661876Y-17329408D01*
X11531710Y-17398984D01*
X11417617Y-17492617D01*
X11323984Y-17606710D01*
X11254408Y-17736876D01*
X11211564Y-17878116D01*
X11197097Y-18025000D01*
X11197097Y-19100000D01*
X10700000Y-19100000D01*
X10700000Y-19029438D01*
X10700723Y-19019634D01*
X10700000Y-18990204D01*
X10700000Y-18960707D01*
X10699101Y-18951577D01*
X10699558Y-18932948D01*
X10698112Y-18913343D01*
X10697629Y-18893690D01*
X10695224Y-18874192D01*
X10694624Y-18866064D01*
X10694142Y-18846417D01*
X10691736Y-18826911D01*
X10690290Y-18807307D01*
X10686929Y-18787938D01*
X10685933Y-18779864D01*
X10684487Y-18760254D01*
X10681124Y-18740873D01*
X10678720Y-18721381D01*
X10674417Y-18702220D01*
X10673021Y-18694173D01*
X10670615Y-18674665D01*
X10666309Y-18655488D01*
X10662949Y-18636125D01*
X10657708Y-18617184D01*
X10655918Y-18609214D01*
X10652558Y-18589852D01*
X10647319Y-18570920D01*
X10643012Y-18551741D01*
X10636845Y-18533073D01*
X10634668Y-18525206D01*
X10630364Y-18506041D01*
X10624202Y-18487389D01*
X10618956Y-18468432D01*
X10611878Y-18450085D01*
X10609331Y-18442375D01*
X10604086Y-18423420D01*
X10597007Y-18405068D01*
X10590845Y-18386416D01*
X10582885Y-18368458D01*
X10579946Y-18360840D01*
X10573780Y-18342175D01*
X10565816Y-18324209D01*
X10558745Y-18305878D01*
X10549907Y-18288319D01*
X10546600Y-18280859D01*
X10539526Y-18262521D01*
X10530688Y-18244963D01*
X10522725Y-18226999D01*
X10513041Y-18209905D01*
X10509368Y-18202608D01*
X10501409Y-18184652D01*
X10491726Y-18167559D01*
X10482882Y-18149989D01*
X10472362Y-18133376D01*
X10468358Y-18126307D01*
X10459516Y-18108742D01*
X10448996Y-18092130D01*
X10439313Y-18075036D01*
X10427998Y-18058970D01*
X10423627Y-18052068D01*
X10413939Y-18034966D01*
X10402625Y-18018901D01*
X10392114Y-18002303D01*
X10380023Y-17986809D01*
X10375325Y-17980139D01*
X10364808Y-17963531D01*
X10352712Y-17948032D01*
X10341395Y-17931963D01*
X10328559Y-17917083D01*
X10323539Y-17910650D01*
X10312229Y-17894592D01*
X10299397Y-17879716D01*
X10287298Y-17864213D01*
X10273743Y-17849975D01*
X10268434Y-17843822D01*
X10256346Y-17828331D01*
X10242781Y-17814083D01*
X10229940Y-17799196D01*
X10216450Y-17786353D01*
X10210627Y-17779257D01*
X10189776Y-17758406D01*
X10169477Y-17737084D01*
X10162028Y-17730658D01*
X9877903Y-17446533D01*
X9877903Y-16725000D01*
X9861515Y-16558607D01*
X9812980Y-16398608D01*
X9734163Y-16251152D01*
X9628093Y-16121907D01*
X9498848Y-16015837D01*
X9351392Y-15937020D01*
X9343754Y-15934703D01*
X9361571Y-15891689D01*
X9400000Y-15698491D01*
X9400000Y-15657934D01*
X9416740Y-15713118D01*
X9501286Y-15871293D01*
X9615066Y-16009934D01*
X9753707Y-16123714D01*
X9911882Y-16208260D01*
X10083511Y-16260323D01*
X10262000Y-16277903D01*
X11138000Y-16277903D01*
X11316489Y-16260323D01*
X11488118Y-16208260D01*
X11646293Y-16123714D01*
X11784934Y-16009934D01*
X11898714Y-15871293D01*
X11983260Y-15713118D01*
X12035323Y-15541489D01*
X12052903Y-15363000D01*
X12052903Y-14187000D01*
X12035323Y-14008511D01*
X12001364Y-13896562D01*
X12158311Y-13961571D01*
X12351509Y-14000000D01*
X12548491Y-14000000D01*
X12741689Y-13961571D01*
X12923678Y-13886189D01*
X13000000Y-13835192D01*
X13076322Y-13886189D01*
X13258311Y-13961571D01*
X13451509Y-14000000D01*
X13648491Y-14000000D01*
X13841689Y-13961571D01*
X14023678Y-13886189D01*
X14100000Y-13835192D01*
X14176322Y-13886189D01*
X14358311Y-13961571D01*
X14551509Y-14000000D01*
X14748491Y-14000000D01*
X14941689Y-13961571D01*
X15123678Y-13886189D01*
X15227445Y-13816854D01*
X15216740Y-13836882D01*
X15216740Y-13836882D01*
G37*
X15216740Y-13836882D02*
X15164677Y-14008511D01*
X15147097Y-14187000D01*
X15147097Y-15363000D01*
X15164677Y-15541489D01*
X15216740Y-15713118D01*
X15301286Y-15871293D01*
X15415066Y-16009934D01*
X15553707Y-16123714D01*
X15711882Y-16208260D01*
X15883511Y-16260323D01*
X16062000Y-16277903D01*
X16800000Y-16277903D01*
X16800000Y-23300000D01*
X5450000Y-23300000D01*
X5450000Y-14600000D01*
X5782823Y-14600000D01*
X5809717Y-14601322D01*
X5819350Y-14602750D01*
X5828777Y-14605112D01*
X5837950Y-14608394D01*
X5846741Y-14612552D01*
X5855089Y-14617555D01*
X5862903Y-14623351D01*
X5870113Y-14629886D01*
X5876645Y-14637092D01*
X5882448Y-14644917D01*
X5887447Y-14653257D01*
X5891607Y-14662052D01*
X5894887Y-14671221D01*
X5897250Y-14680652D01*
X5898678Y-14690284D01*
X5900000Y-14717177D01*
X5900001Y-18049571D01*
X5839279Y-18067990D01*
X5735045Y-18123704D01*
X5643683Y-18198683D01*
X5568704Y-18290045D01*
X5512990Y-18394279D01*
X5478682Y-18507379D01*
X5467097Y-18625000D01*
X5467097Y-19275000D01*
X5478682Y-19392621D01*
X5488504Y-19425000D01*
X5478682Y-19457379D01*
X5467097Y-19575000D01*
X5470000Y-19650000D01*
X5620000Y-19800000D01*
X5779392Y-19800000D01*
X5839279Y-19832010D01*
X5952379Y-19866318D01*
X6070000Y-19877903D01*
X6680439Y-19877903D01*
X6691812Y-19882944D01*
X6705881Y-19887592D01*
X6719448Y-19893605D01*
X6720000Y-19893787D01*
X6720000Y-19922097D01*
X6070000Y-19922097D01*
X5952379Y-19933682D01*
X5839279Y-19967990D01*
X5779392Y-20000000D01*
X5620000Y-20000000D01*
X5470000Y-20150000D01*
X5467097Y-20225000D01*
X5478682Y-20342621D01*
X5488504Y-20375000D01*
X5478682Y-20407379D01*
X5467097Y-20525000D01*
X5467097Y-21175000D01*
X5478682Y-21292621D01*
X5512990Y-21405721D01*
X5568704Y-21509955D01*
X5643683Y-21601317D01*
X5735045Y-21676296D01*
X5839279Y-21732010D01*
X5952379Y-21766318D01*
X6070000Y-21777903D01*
X6962377Y-21777903D01*
X6964042Y-21781422D01*
X6974431Y-21803387D01*
X6976374Y-21807496D01*
X6988165Y-21827168D01*
X7029492Y-21896119D01*
X7029497Y-21896124D01*
X7052093Y-21933824D01*
X7139832Y-22052127D01*
X7169348Y-22084692D01*
X7169349Y-22084694D01*
X7238742Y-22161257D01*
X7265344Y-22185367D01*
X7271309Y-22190774D01*
X7271310Y-22190775D01*
X7276826Y-22195774D01*
X7315306Y-22230651D01*
X7315308Y-22230652D01*
X7347874Y-22260168D01*
X7371794Y-22277908D01*
X7430872Y-22321724D01*
X7430874Y-22321725D01*
X7466171Y-22347903D01*
X7466177Y-22347907D01*
X7486410Y-22360034D01*
X7503875Y-22370503D01*
X7503880Y-22370507D01*
X7549949Y-22398119D01*
X7592504Y-22423626D01*
X7685915Y-22467806D01*
X7685919Y-22467807D01*
X7725648Y-22486598D01*
X7725658Y-22486602D01*
X7725659Y-22486602D01*
X7729418Y-22487947D01*
X7767031Y-22501405D01*
X7767034Y-22501407D01*
X7852546Y-22532003D01*
X7864326Y-22536218D01*
X7906963Y-22546898D01*
X7906969Y-22546901D01*
X8007204Y-22572007D01*
X8030988Y-22575535D01*
X8109412Y-22587169D01*
X8109419Y-22587169D01*
X8152898Y-22593618D01*
X8216911Y-22596762D01*
X8248479Y-22598313D01*
X8265610Y-22600000D01*
X8282823Y-22600000D01*
X8300003Y-22600844D01*
X8317180Y-22600000D01*
X12582817Y-22600000D01*
X12599998Y-22600844D01*
X12617178Y-22600000D01*
X12634390Y-22600000D01*
X12651519Y-22598313D01*
X12683101Y-22596761D01*
X12683105Y-22596762D01*
X12769022Y-22592540D01*
X12786314Y-22591691D01*
X12868619Y-22579483D01*
X12868622Y-22579483D01*
X12970835Y-22564320D01*
X12982788Y-22561326D01*
X13071070Y-22539213D01*
X13151783Y-22518995D01*
X13173580Y-22511196D01*
X13249078Y-22484183D01*
X13249079Y-22484182D01*
X13313561Y-22461110D01*
X13327421Y-22456151D01*
X13420832Y-22411971D01*
X13420833Y-22411971D01*
X13496051Y-22376395D01*
X13522942Y-22360277D01*
X13584683Y-22323272D01*
X13584684Y-22323271D01*
X13656053Y-22280494D01*
X13704850Y-22244303D01*
X13739050Y-22218939D01*
X13739051Y-22218937D01*
X13805877Y-22169376D01*
X13808327Y-22167156D01*
X13845887Y-22133114D01*
X13867532Y-22113496D01*
X13867539Y-22113492D01*
X13938108Y-22049531D01*
X13944097Y-22044103D01*
X13945545Y-22042506D01*
X13956758Y-22030134D01*
X14013491Y-21967540D01*
X14013495Y-21967533D01*
X14049373Y-21927947D01*
X14069369Y-21905885D01*
X14069370Y-21905883D01*
X14069376Y-21905877D01*
X14114384Y-21845190D01*
X14118936Y-21839053D01*
X14118938Y-21839051D01*
X14147355Y-21800735D01*
X14180493Y-21756054D01*
X14233616Y-21667424D01*
X14233617Y-21667421D01*
X14276393Y-21596054D01*
X14280487Y-21587398D01*
X14320574Y-21502642D01*
X14320575Y-21502640D01*
X14356150Y-21427422D01*
X14364319Y-21404592D01*
X14390962Y-21330131D01*
X14390962Y-21330129D01*
X14418993Y-21251788D01*
X14422790Y-21236631D01*
X14444102Y-21151550D01*
X14444102Y-21151547D01*
X14464319Y-21070836D01*
X14467922Y-21046549D01*
X14479482Y-20968624D01*
X14479482Y-20968616D01*
X14479531Y-20968283D01*
X14491690Y-20886320D01*
X14498313Y-20751520D01*
X14500000Y-20734390D01*
X14500000Y-20717181D01*
X14500844Y-20700003D01*
X14500000Y-20682822D01*
X14500000Y-20482157D01*
X14538124Y-20470592D01*
X14543021Y-20467975D01*
X14569279Y-20482010D01*
X14682379Y-20516318D01*
X14800000Y-20527903D01*
X14850000Y-20525000D01*
X15000000Y-20375000D01*
X15000000Y-19804474D01*
X15002903Y-19775000D01*
X15002903Y-19000000D01*
X15200000Y-19000000D01*
X15200000Y-20375000D01*
X15350000Y-20525000D01*
X15400000Y-20527903D01*
X15517621Y-20516318D01*
X15630721Y-20482010D01*
X15734955Y-20426296D01*
X15826317Y-20351317D01*
X15901296Y-20259955D01*
X15957010Y-20155721D01*
X15991318Y-20042621D01*
X16002903Y-19925000D01*
X16000000Y-19150000D01*
X15850000Y-19000000D01*
X15200000Y-19000000D01*
X15002903Y-19000000D01*
X15002903Y-18025000D01*
X15000000Y-17995526D01*
X15000000Y-17425000D01*
X15200000Y-17425000D01*
X15200000Y-18800000D01*
X15850000Y-18800000D01*
X16000000Y-18650000D01*
X16002903Y-17875000D01*
X15991318Y-17757379D01*
X15957010Y-17644279D01*
X15901296Y-17540045D01*
X15826317Y-17448683D01*
X15734955Y-17373704D01*
X15630721Y-17317990D01*
X15517621Y-17283682D01*
X15400000Y-17272097D01*
X15350000Y-17275000D01*
X15200000Y-17425000D01*
X15000000Y-17425000D01*
X14850000Y-17275000D01*
X14800000Y-17272097D01*
X14682379Y-17283682D01*
X14569279Y-17317990D01*
X14543021Y-17332025D01*
X14538124Y-17329408D01*
X14396884Y-17286564D01*
X14250000Y-17272097D01*
X13950000Y-17272097D01*
X13803116Y-17286564D01*
X13661876Y-17329408D01*
X13600000Y-17362482D01*
X13538124Y-17329408D01*
X13396884Y-17286564D01*
X13250000Y-17272097D01*
X12950000Y-17272097D01*
X12803116Y-17286564D01*
X12661876Y-17329408D01*
X12600000Y-17362482D01*
X12538124Y-17329408D01*
X12396884Y-17286564D01*
X12250000Y-17272097D01*
X11950000Y-17272097D01*
X11803116Y-17286564D01*
X11661876Y-17329408D01*
X11531710Y-17398984D01*
X11417617Y-17492617D01*
X11323984Y-17606710D01*
X11254408Y-17736876D01*
X11211564Y-17878116D01*
X11197097Y-18025000D01*
X11197097Y-19100000D01*
X10700000Y-19100000D01*
X10700000Y-19029438D01*
X10700723Y-19019634D01*
X10700000Y-18990204D01*
X10700000Y-18960707D01*
X10699101Y-18951577D01*
X10699558Y-18932948D01*
X10698112Y-18913343D01*
X10697629Y-18893690D01*
X10695224Y-18874192D01*
X10694624Y-18866064D01*
X10694142Y-18846417D01*
X10691736Y-18826911D01*
X10690290Y-18807307D01*
X10686929Y-18787938D01*
X10685933Y-18779864D01*
X10684487Y-18760254D01*
X10681124Y-18740873D01*
X10678720Y-18721381D01*
X10674417Y-18702220D01*
X10673021Y-18694173D01*
X10670615Y-18674665D01*
X10666309Y-18655488D01*
X10662949Y-18636125D01*
X10657708Y-18617184D01*
X10655918Y-18609214D01*
X10652558Y-18589852D01*
X10647319Y-18570920D01*
X10643012Y-18551741D01*
X10636845Y-18533073D01*
X10634668Y-18525206D01*
X10630364Y-18506041D01*
X10624202Y-18487389D01*
X10618956Y-18468432D01*
X10611878Y-18450085D01*
X10609331Y-18442375D01*
X10604086Y-18423420D01*
X10597007Y-18405068D01*
X10590845Y-18386416D01*
X10582885Y-18368458D01*
X10579946Y-18360840D01*
X10573780Y-18342175D01*
X10565816Y-18324209D01*
X10558745Y-18305878D01*
X10549907Y-18288319D01*
X10546600Y-18280859D01*
X10539526Y-18262521D01*
X10530688Y-18244963D01*
X10522725Y-18226999D01*
X10513041Y-18209905D01*
X10509368Y-18202608D01*
X10501409Y-18184652D01*
X10491726Y-18167559D01*
X10482882Y-18149989D01*
X10472362Y-18133376D01*
X10468358Y-18126307D01*
X10459516Y-18108742D01*
X10448996Y-18092130D01*
X10439313Y-18075036D01*
X10427998Y-18058970D01*
X10423627Y-18052068D01*
X10413939Y-18034966D01*
X10402625Y-18018901D01*
X10392114Y-18002303D01*
X10380023Y-17986809D01*
X10375325Y-17980139D01*
X10364808Y-17963531D01*
X10352712Y-17948032D01*
X10341395Y-17931963D01*
X10328559Y-17917083D01*
X10323539Y-17910650D01*
X10312229Y-17894592D01*
X10299397Y-17879716D01*
X10287298Y-17864213D01*
X10273743Y-17849975D01*
X10268434Y-17843822D01*
X10256346Y-17828331D01*
X10242781Y-17814083D01*
X10229940Y-17799196D01*
X10216450Y-17786353D01*
X10210627Y-17779257D01*
X10189776Y-17758406D01*
X10169477Y-17737084D01*
X10162028Y-17730658D01*
X9877903Y-17446533D01*
X9877903Y-16725000D01*
X9861515Y-16558607D01*
X9812980Y-16398608D01*
X9734163Y-16251152D01*
X9628093Y-16121907D01*
X9498848Y-16015837D01*
X9351392Y-15937020D01*
X9343754Y-15934703D01*
X9361571Y-15891689D01*
X9400000Y-15698491D01*
X9400000Y-15657934D01*
X9416740Y-15713118D01*
X9501286Y-15871293D01*
X9615066Y-16009934D01*
X9753707Y-16123714D01*
X9911882Y-16208260D01*
X10083511Y-16260323D01*
X10262000Y-16277903D01*
X11138000Y-16277903D01*
X11316489Y-16260323D01*
X11488118Y-16208260D01*
X11646293Y-16123714D01*
X11784934Y-16009934D01*
X11898714Y-15871293D01*
X11983260Y-15713118D01*
X12035323Y-15541489D01*
X12052903Y-15363000D01*
X12052903Y-14187000D01*
X12035323Y-14008511D01*
X12001364Y-13896562D01*
X12158311Y-13961571D01*
X12351509Y-14000000D01*
X12548491Y-14000000D01*
X12741689Y-13961571D01*
X12923678Y-13886189D01*
X13000000Y-13835192D01*
X13076322Y-13886189D01*
X13258311Y-13961571D01*
X13451509Y-14000000D01*
X13648491Y-14000000D01*
X13841689Y-13961571D01*
X14023678Y-13886189D01*
X14100000Y-13835192D01*
X14176322Y-13886189D01*
X14358311Y-13961571D01*
X14551509Y-14000000D01*
X14748491Y-14000000D01*
X14941689Y-13961571D01*
X15123678Y-13886189D01*
X15227445Y-13816854D01*
X15216740Y-13836882D01*
G36*
X12700000Y-20482157D02*
G01*
X12700000Y-20682823D01*
X12698678Y-20709717D01*
X12697250Y-20719349D01*
X12694887Y-20728780D01*
X12691607Y-20737949D01*
X12687447Y-20746744D01*
X12682448Y-20755084D01*
X12676645Y-20762909D01*
X12670113Y-20770115D01*
X12662903Y-20776650D01*
X12655089Y-20782446D01*
X12646741Y-20787449D01*
X12637950Y-20791607D01*
X12628777Y-20794889D01*
X12619350Y-20797251D01*
X12609722Y-20798679D01*
X12582826Y-20800000D01*
X9932903Y-20800000D01*
X9932903Y-20642641D01*
X9950952Y-20649099D01*
X9951165Y-20649200D01*
X9951411Y-20649262D01*
X9951605Y-20649331D01*
X9951809Y-20649361D01*
X10003720Y-20662363D01*
X10054169Y-20675000D01*
X10065272Y-20677781D01*
X10065472Y-20677853D01*
X10065682Y-20677884D01*
X10065925Y-20677945D01*
X10066146Y-20677956D01*
X10136729Y-20688424D01*
X10182515Y-20695216D01*
X10182751Y-20695204D01*
X10184313Y-20695281D01*
X10241139Y-20698073D01*
X10260707Y-20700000D01*
X10280370Y-20700000D01*
X10299993Y-20700964D01*
X10300022Y-20700963D01*
X10300254Y-20700974D01*
X10300484Y-20700940D01*
X10319616Y-20700000D01*
X12055794Y-20700000D01*
X12100000Y-20704354D01*
X12276431Y-20686977D01*
X12446081Y-20635514D01*
X12602432Y-20551943D01*
X12690849Y-20479381D01*
X12700000Y-20482157D01*
X12700000Y-20482157D01*
G37*
X12700000Y-20482157D02*
X12700000Y-20682823D01*
X12698678Y-20709717D01*
X12697250Y-20719349D01*
X12694887Y-20728780D01*
X12691607Y-20737949D01*
X12687447Y-20746744D01*
X12682448Y-20755084D01*
X12676645Y-20762909D01*
X12670113Y-20770115D01*
X12662903Y-20776650D01*
X12655089Y-20782446D01*
X12646741Y-20787449D01*
X12637950Y-20791607D01*
X12628777Y-20794889D01*
X12619350Y-20797251D01*
X12609722Y-20798679D01*
X12582826Y-20800000D01*
X9932903Y-20800000D01*
X9932903Y-20642641D01*
X9950952Y-20649099D01*
X9951165Y-20649200D01*
X9951411Y-20649262D01*
X9951605Y-20649331D01*
X9951809Y-20649361D01*
X10003720Y-20662363D01*
X10054169Y-20675000D01*
X10065272Y-20677781D01*
X10065472Y-20677853D01*
X10065682Y-20677884D01*
X10065925Y-20677945D01*
X10066146Y-20677956D01*
X10136729Y-20688424D01*
X10182515Y-20695216D01*
X10182751Y-20695204D01*
X10184313Y-20695281D01*
X10241139Y-20698073D01*
X10260707Y-20700000D01*
X10280370Y-20700000D01*
X10299993Y-20700964D01*
X10300022Y-20700963D01*
X10300254Y-20700974D01*
X10300484Y-20700940D01*
X10319616Y-20700000D01*
X12055794Y-20700000D01*
X12100000Y-20704354D01*
X12276431Y-20686977D01*
X12446081Y-20635514D01*
X12602432Y-20551943D01*
X12690849Y-20479381D01*
X12700000Y-20482157D01*
G36*
X-10374878Y-13579280D02*
G01*
X-10319313Y-13590282D01*
X-10263902Y-13602060D01*
X-10255224Y-13602972D01*
X-10061334Y-13621983D01*
X-10030704Y-13625000D01*
X-8444897Y-13625000D01*
X-8477904Y-13694786D01*
X-8491060Y-13731553D01*
X-8491062Y-13731557D01*
X-8504521Y-13769175D01*
X-8511969Y-13789991D01*
X-8515697Y-13800410D01*
X-8525870Y-13828841D01*
X-8525871Y-13828846D01*
X-8525872Y-13828848D01*
X-8529120Y-13841815D01*
X-8550978Y-13929075D01*
X-8550978Y-13929082D01*
X-8551855Y-13932581D01*
X-8560464Y-13966950D01*
X-8560465Y-13966955D01*
X-8560467Y-13966964D01*
X-8566194Y-14005574D01*
X-8569366Y-14026957D01*
X-8581357Y-14107791D01*
X-8585813Y-14198484D01*
X-8587500Y-14215611D01*
X-8587500Y-14232820D01*
X-8588344Y-14249996D01*
X-8587500Y-14267181D01*
X-8587500Y-14303763D01*
X-8600236Y-14310570D01*
X-8724746Y-14412754D01*
X-8826930Y-14537264D01*
X-8902858Y-14679317D01*
X-8949615Y-14833453D01*
X-8965403Y-14993750D01*
X-8965403Y-15431250D01*
X-8949615Y-15591547D01*
X-8902858Y-15745683D01*
X-8826930Y-15887736D01*
X-8734796Y-16000000D01*
X-8826930Y-16112264D01*
X-8902858Y-16254317D01*
X-8949615Y-16408453D01*
X-8965403Y-16568750D01*
X-8965403Y-17006250D01*
X-8949615Y-17166547D01*
X-8902858Y-17320683D01*
X-8826930Y-17462736D01*
X-8724746Y-17587246D01*
X-8687500Y-17617814D01*
X-8687500Y-18402711D01*
X-8687939Y-18420630D01*
X-8688535Y-18428708D01*
X-8689261Y-18434597D01*
X-9056250Y-18434597D01*
X-9221424Y-18450865D01*
X-9380250Y-18499045D01*
X-9526625Y-18577284D01*
X-9654924Y-18682576D01*
X-9760216Y-18810875D01*
X-9838455Y-18957250D01*
X-9886635Y-19116076D01*
X-9902903Y-19281250D01*
X-9902903Y-19768750D01*
X-9886635Y-19933924D01*
X-9838455Y-20092750D01*
X-9760216Y-20239125D01*
X-9654924Y-20367424D01*
X-9614742Y-20400400D01*
X-9634955Y-20411204D01*
X-9726317Y-20486183D01*
X-9801296Y-20577545D01*
X-9857010Y-20681779D01*
X-9891318Y-20794879D01*
X-9902903Y-20912500D01*
X-9900000Y-21150000D01*
X-9750000Y-21300000D01*
X-8700000Y-21300000D01*
X-8700000Y-21280000D01*
X-8500000Y-21280000D01*
X-8500000Y-21300000D01*
X-6487500Y-21300000D01*
X-6487500Y-20325000D01*
X-6287500Y-20325000D01*
X-6287500Y-21300000D01*
X-4420000Y-21300000D01*
X-4420000Y-20155278D01*
X-4220000Y-20155278D01*
X-4220000Y-21300000D01*
X-3220000Y-21300000D01*
X-3220000Y-21000000D01*
X3220000Y-21000000D01*
X3220000Y-21300000D01*
X4220000Y-21300000D01*
X4220000Y-20155278D01*
X4049866Y-20033685D01*
X3991436Y-20045465D01*
X3792020Y-20129827D01*
X3612894Y-20251472D01*
X3460941Y-20405726D01*
X3342001Y-20586660D01*
X3260645Y-20787322D01*
X3220000Y-21000000D01*
X-3220000Y-21000000D01*
X-3260645Y-20787322D01*
X-3342001Y-20586660D01*
X-3460941Y-20405726D01*
X-3612894Y-20251472D01*
X-3792020Y-20129827D01*
X-3991436Y-20045465D01*
X-4049866Y-20033685D01*
X-4220000Y-20155278D01*
X-4420000Y-20155278D01*
X-4590134Y-20033685D01*
X-4648564Y-20045465D01*
X-4847980Y-20129827D01*
X-5027106Y-20251472D01*
X-5106468Y-20332036D01*
X-5177545Y-20273704D01*
X-5281779Y-20217990D01*
X-5394879Y-20183682D01*
X-5512500Y-20172097D01*
X-6137500Y-20175000D01*
X-6287500Y-20325000D01*
X-6487500Y-20325000D01*
X-6637500Y-20175000D01*
X-7262500Y-20172097D01*
X-7380121Y-20183682D01*
X-7415960Y-20194553D01*
X-7361545Y-20092750D01*
X-7313365Y-19933924D01*
X-7297758Y-19775458D01*
X-7178893Y-19811515D01*
X-7012500Y-19827903D01*
X-5762500Y-19827903D01*
X-5596107Y-19811515D01*
X-5436108Y-19762980D01*
X-5288652Y-19684163D01*
X-5159407Y-19578093D01*
X-5053337Y-19448848D01*
X-4974520Y-19301392D01*
X-4925985Y-19141393D01*
X-4909597Y-18975000D01*
X-4909597Y-18698329D01*
X-4847980Y-18740173D01*
X-4648564Y-18824535D01*
X-4590134Y-18836315D01*
X-4420000Y-18714722D01*
X-4420000Y-17320000D01*
X-4440000Y-17320000D01*
X-4440000Y-17120000D01*
X-4420000Y-17120000D01*
X-4420000Y-17100000D01*
X-4220000Y-17100000D01*
X-4220000Y-17120000D01*
X-4200000Y-17120000D01*
X-4200000Y-17320000D01*
X-4220000Y-17320000D01*
X-4220000Y-18714722D01*
X-4049866Y-18836315D01*
X-3991436Y-18824535D01*
X-3792020Y-18740173D01*
X-3612894Y-18618528D01*
X-3470876Y-18474360D01*
X-3328152Y-18569725D01*
X-3159813Y-18639453D01*
X-2981105Y-18675000D01*
X-2798895Y-18675000D01*
X-2620187Y-18639453D01*
X-2451848Y-18569725D01*
X-2300347Y-18468495D01*
X-2171505Y-18339653D01*
X-2070275Y-18188152D01*
X-2000547Y-18019813D01*
X-1965000Y-17841105D01*
X-1965000Y-17658895D01*
X-1971572Y-17625854D01*
X-1900000Y-17632903D01*
X-1600000Y-17632903D01*
X-1500000Y-17623054D01*
X-1400000Y-17632903D01*
X-1247414Y-17632903D01*
X-1229719Y-17656763D01*
X-1227087Y-17661154D01*
X-1223644Y-17664953D01*
X-1220608Y-17669046D01*
X-1216831Y-17672469D01*
X-1186925Y-17705463D01*
X-1164530Y-17730173D01*
X-1161491Y-17734271D01*
X-1157715Y-17737693D01*
X-1157705Y-17737702D01*
X-1154270Y-17741492D01*
X-1150167Y-17744535D01*
X-1146218Y-17748114D01*
X-1092468Y-17796832D01*
X-1089045Y-17800609D01*
X-1084952Y-17803645D01*
X-1081153Y-17807088D01*
X-1076766Y-17809718D01*
X-1041924Y-17835557D01*
X-1014210Y-17856111D01*
X-1010417Y-17859549D01*
X-1006015Y-17862187D01*
X-1001915Y-17865228D01*
X-997301Y-17867410D01*
X-947988Y-17896966D01*
X-930537Y-17907426D01*
X-926430Y-17910472D01*
X-921807Y-17912659D01*
X-921803Y-17912661D01*
X-921796Y-17912664D01*
X-917407Y-17915295D01*
X-912596Y-17917016D01*
X-902598Y-17921745D01*
X-842194Y-17950315D01*
X-837813Y-17952941D01*
X-833008Y-17954660D01*
X-828393Y-17956843D01*
X-823438Y-17958084D01*
X-770885Y-17976887D01*
X-750109Y-17984321D01*
X-745494Y-17986504D01*
X-740544Y-17987744D01*
X-740541Y-17987745D01*
X-740530Y-17987748D01*
X-740521Y-17987751D01*
X-740516Y-17987752D01*
X-735704Y-17989474D01*
X-730648Y-17990224D01*
X-718086Y-17993370D01*
X-655104Y-18009148D01*
X-650300Y-18010867D01*
X-645257Y-18011615D01*
X-640307Y-18012855D01*
X-635205Y-18013106D01*
X-576389Y-18021829D01*
X-548101Y-18026025D01*
X-548091Y-18026026D01*
X-543031Y-18026776D01*
X-537925Y-18026525D01*
X-533958Y-18026720D01*
X-501503Y-18028315D01*
X-484390Y-18030000D01*
X-467201Y-18030000D01*
X-444895Y-18031096D01*
X-439832Y-18030345D01*
X-432812Y-18030000D01*
X-67190Y-18030000D01*
X-60160Y-18030345D01*
X-55100Y-18031096D01*
X-32798Y-18030000D01*
X-15610Y-18030000D01*
X1509Y-18028314D01*
X16831Y-18027561D01*
X37924Y-18026525D01*
X43031Y-18026776D01*
X48098Y-18026024D01*
X48106Y-18026024D01*
X79542Y-18021361D01*
X135210Y-18013105D01*
X140315Y-18012854D01*
X145267Y-18011613D01*
X150300Y-18010867D01*
X155096Y-18009151D01*
X222499Y-17992265D01*
X230649Y-17990224D01*
X235703Y-17989474D01*
X240513Y-17987753D01*
X240521Y-17987751D01*
X240530Y-17987748D01*
X240549Y-17987743D01*
X240552Y-17987742D01*
X245498Y-17986503D01*
X250110Y-17984321D01*
X275564Y-17975213D01*
X323440Y-17958083D01*
X328392Y-17956843D01*
X333004Y-17954662D01*
X337813Y-17952941D01*
X342197Y-17950313D01*
X402597Y-17921745D01*
X412579Y-17917024D01*
X417392Y-17915302D01*
X421777Y-17912674D01*
X421785Y-17912670D01*
X421793Y-17912665D01*
X421802Y-17912661D01*
X421811Y-17912655D01*
X426436Y-17910468D01*
X430544Y-17907421D01*
X447987Y-17896966D01*
X497328Y-17867394D01*
X501944Y-17865210D01*
X506042Y-17862170D01*
X510416Y-17859549D01*
X514197Y-17856122D01*
X558842Y-17823010D01*
X576759Y-17809722D01*
X581139Y-17807097D01*
X584932Y-17803659D01*
X584939Y-17803654D01*
X584942Y-17803651D01*
X589044Y-17800609D01*
X592474Y-17796824D01*
X611751Y-17779352D01*
X650166Y-17744536D01*
X654265Y-17741496D01*
X657692Y-17737715D01*
X661481Y-17734281D01*
X664525Y-17730177D01*
X698508Y-17692681D01*
X700782Y-17690172D01*
X716830Y-17672466D01*
X720622Y-17669029D01*
X723678Y-17664909D01*
X727106Y-17661126D01*
X729730Y-17656748D01*
X747414Y-17632903D01*
X900000Y-17632903D01*
X1000000Y-17623054D01*
X1100000Y-17632903D01*
X1400000Y-17632903D01*
X1500000Y-17623054D01*
X1600000Y-17632903D01*
X1900000Y-17632903D01*
X1971572Y-17625854D01*
X1965000Y-17658895D01*
X1965000Y-17841105D01*
X2000547Y-18019813D01*
X2070275Y-18188152D01*
X2171505Y-18339653D01*
X2300347Y-18468495D01*
X2451848Y-18569725D01*
X2620187Y-18639453D01*
X2798895Y-18675000D01*
X2981105Y-18675000D01*
X3159813Y-18639453D01*
X3328152Y-18569725D01*
X3470876Y-18474360D01*
X3612894Y-18618528D01*
X3792020Y-18740173D01*
X3991436Y-18824535D01*
X4049866Y-18836315D01*
X4220000Y-18714722D01*
X4220000Y-17320000D01*
X4200000Y-17320000D01*
X4200000Y-17120000D01*
X4220000Y-17120000D01*
X4220000Y-15725278D01*
X4127903Y-15659457D01*
X4127903Y-15580000D01*
X4125127Y-15551812D01*
X4202669Y-15500000D01*
X4550000Y-15500000D01*
X4550000Y-15632368D01*
X4420000Y-15725278D01*
X4420000Y-17120000D01*
X4440000Y-17120000D01*
X4440000Y-17320000D01*
X4420000Y-17320000D01*
X4420000Y-18714722D01*
X4550000Y-18807632D01*
X4550000Y-20062368D01*
X4420000Y-20155278D01*
X4420000Y-21300000D01*
X4440000Y-21300000D01*
X4440000Y-21500000D01*
X4420000Y-21500000D01*
X4420000Y-22644722D01*
X4550000Y-22737632D01*
X4550000Y-23300000D01*
X-12800000Y-23300000D01*
X-12800000Y-21887500D01*
X-9902903Y-21887500D01*
X-9891318Y-22005121D01*
X-9857010Y-22118221D01*
X-9801296Y-22222455D01*
X-9726317Y-22313817D01*
X-9634955Y-22388796D01*
X-9530721Y-22444510D01*
X-9417621Y-22478818D01*
X-9300000Y-22490403D01*
X-8850000Y-22487500D01*
X-8700000Y-22337500D01*
X-8700000Y-21500000D01*
X-8500000Y-21500000D01*
X-8500000Y-22337500D01*
X-8350000Y-22487500D01*
X-7900000Y-22490403D01*
X-7782379Y-22478818D01*
X-7689395Y-22450612D01*
X-7688817Y-22451317D01*
X-7597455Y-22526296D01*
X-7493221Y-22582010D01*
X-7380121Y-22616318D01*
X-7262500Y-22627903D01*
X-6637500Y-22625000D01*
X-6487500Y-22475000D01*
X-6487500Y-21500000D01*
X-6287500Y-21500000D01*
X-6287500Y-22475000D01*
X-6137500Y-22625000D01*
X-5512500Y-22627903D01*
X-5394879Y-22616318D01*
X-5281779Y-22582010D01*
X-5177545Y-22526296D01*
X-5106468Y-22467964D01*
X-5027106Y-22548528D01*
X-4847980Y-22670173D01*
X-4648564Y-22754535D01*
X-4590134Y-22766315D01*
X-4420000Y-22644722D01*
X-4420000Y-21500000D01*
X-4220000Y-21500000D01*
X-4220000Y-22644722D01*
X-4049866Y-22766315D01*
X-3991436Y-22754535D01*
X-3792020Y-22670173D01*
X-3612894Y-22548528D01*
X-3460941Y-22394274D01*
X-3342001Y-22213340D01*
X-3260645Y-22012678D01*
X-3220000Y-21800000D01*
X-3220000Y-21500000D01*
X3220000Y-21500000D01*
X3220000Y-21800000D01*
X3260645Y-22012678D01*
X3342001Y-22213340D01*
X3460941Y-22394274D01*
X3612894Y-22548528D01*
X3792020Y-22670173D01*
X3991436Y-22754535D01*
X4049866Y-22766315D01*
X4220000Y-22644722D01*
X4220000Y-21500000D01*
X3220000Y-21500000D01*
X-3220000Y-21500000D01*
X-4220000Y-21500000D01*
X-4420000Y-21500000D01*
X-6287500Y-21500000D01*
X-6487500Y-21500000D01*
X-8500000Y-21500000D01*
X-8700000Y-21500000D01*
X-9750000Y-21500000D01*
X-9900000Y-21650000D01*
X-9902903Y-21887500D01*
X-12800000Y-21887500D01*
X-12800000Y-13937418D01*
X-12741689Y-13961571D01*
X-12548491Y-14000000D01*
X-12351509Y-14000000D01*
X-12158311Y-13961571D01*
X-11976322Y-13886189D01*
X-11900000Y-13835192D01*
X-11823678Y-13886189D01*
X-11641689Y-13961571D01*
X-11448491Y-14000000D01*
X-11251509Y-14000000D01*
X-11058311Y-13961571D01*
X-10876322Y-13886189D01*
X-10712537Y-13776751D01*
X-10573249Y-13637463D01*
X-10507598Y-13539210D01*
X-10374878Y-13579280D01*
X-10374878Y-13579280D01*
G37*
X-10374878Y-13579280D02*
X-10319313Y-13590282D01*
X-10263902Y-13602060D01*
X-10255224Y-13602972D01*
X-10061334Y-13621983D01*
X-10030704Y-13625000D01*
X-8444897Y-13625000D01*
X-8477904Y-13694786D01*
X-8491060Y-13731553D01*
X-8491062Y-13731557D01*
X-8504521Y-13769175D01*
X-8511969Y-13789991D01*
X-8515697Y-13800410D01*
X-8525870Y-13828841D01*
X-8525871Y-13828846D01*
X-8525872Y-13828848D01*
X-8529120Y-13841815D01*
X-8550978Y-13929075D01*
X-8550978Y-13929082D01*
X-8551855Y-13932581D01*
X-8560464Y-13966950D01*
X-8560465Y-13966955D01*
X-8560467Y-13966964D01*
X-8566194Y-14005574D01*
X-8569366Y-14026957D01*
X-8581357Y-14107791D01*
X-8585813Y-14198484D01*
X-8587500Y-14215611D01*
X-8587500Y-14232820D01*
X-8588344Y-14249996D01*
X-8587500Y-14267181D01*
X-8587500Y-14303763D01*
X-8600236Y-14310570D01*
X-8724746Y-14412754D01*
X-8826930Y-14537264D01*
X-8902858Y-14679317D01*
X-8949615Y-14833453D01*
X-8965403Y-14993750D01*
X-8965403Y-15431250D01*
X-8949615Y-15591547D01*
X-8902858Y-15745683D01*
X-8826930Y-15887736D01*
X-8734796Y-16000000D01*
X-8826930Y-16112264D01*
X-8902858Y-16254317D01*
X-8949615Y-16408453D01*
X-8965403Y-16568750D01*
X-8965403Y-17006250D01*
X-8949615Y-17166547D01*
X-8902858Y-17320683D01*
X-8826930Y-17462736D01*
X-8724746Y-17587246D01*
X-8687500Y-17617814D01*
X-8687500Y-18402711D01*
X-8687939Y-18420630D01*
X-8688535Y-18428708D01*
X-8689261Y-18434597D01*
X-9056250Y-18434597D01*
X-9221424Y-18450865D01*
X-9380250Y-18499045D01*
X-9526625Y-18577284D01*
X-9654924Y-18682576D01*
X-9760216Y-18810875D01*
X-9838455Y-18957250D01*
X-9886635Y-19116076D01*
X-9902903Y-19281250D01*
X-9902903Y-19768750D01*
X-9886635Y-19933924D01*
X-9838455Y-20092750D01*
X-9760216Y-20239125D01*
X-9654924Y-20367424D01*
X-9614742Y-20400400D01*
X-9634955Y-20411204D01*
X-9726317Y-20486183D01*
X-9801296Y-20577545D01*
X-9857010Y-20681779D01*
X-9891318Y-20794879D01*
X-9902903Y-20912500D01*
X-9900000Y-21150000D01*
X-9750000Y-21300000D01*
X-8700000Y-21300000D01*
X-8700000Y-21280000D01*
X-8500000Y-21280000D01*
X-8500000Y-21300000D01*
X-6487500Y-21300000D01*
X-6487500Y-20325000D01*
X-6287500Y-20325000D01*
X-6287500Y-21300000D01*
X-4420000Y-21300000D01*
X-4420000Y-20155278D01*
X-4220000Y-20155278D01*
X-4220000Y-21300000D01*
X-3220000Y-21300000D01*
X-3220000Y-21000000D01*
X3220000Y-21000000D01*
X3220000Y-21300000D01*
X4220000Y-21300000D01*
X4220000Y-20155278D01*
X4049866Y-20033685D01*
X3991436Y-20045465D01*
X3792020Y-20129827D01*
X3612894Y-20251472D01*
X3460941Y-20405726D01*
X3342001Y-20586660D01*
X3260645Y-20787322D01*
X3220000Y-21000000D01*
X-3220000Y-21000000D01*
X-3260645Y-20787322D01*
X-3342001Y-20586660D01*
X-3460941Y-20405726D01*
X-3612894Y-20251472D01*
X-3792020Y-20129827D01*
X-3991436Y-20045465D01*
X-4049866Y-20033685D01*
X-4220000Y-20155278D01*
X-4420000Y-20155278D01*
X-4590134Y-20033685D01*
X-4648564Y-20045465D01*
X-4847980Y-20129827D01*
X-5027106Y-20251472D01*
X-5106468Y-20332036D01*
X-5177545Y-20273704D01*
X-5281779Y-20217990D01*
X-5394879Y-20183682D01*
X-5512500Y-20172097D01*
X-6137500Y-20175000D01*
X-6287500Y-20325000D01*
X-6487500Y-20325000D01*
X-6637500Y-20175000D01*
X-7262500Y-20172097D01*
X-7380121Y-20183682D01*
X-7415960Y-20194553D01*
X-7361545Y-20092750D01*
X-7313365Y-19933924D01*
X-7297758Y-19775458D01*
X-7178893Y-19811515D01*
X-7012500Y-19827903D01*
X-5762500Y-19827903D01*
X-5596107Y-19811515D01*
X-5436108Y-19762980D01*
X-5288652Y-19684163D01*
X-5159407Y-19578093D01*
X-5053337Y-19448848D01*
X-4974520Y-19301392D01*
X-4925985Y-19141393D01*
X-4909597Y-18975000D01*
X-4909597Y-18698329D01*
X-4847980Y-18740173D01*
X-4648564Y-18824535D01*
X-4590134Y-18836315D01*
X-4420000Y-18714722D01*
X-4420000Y-17320000D01*
X-4440000Y-17320000D01*
X-4440000Y-17120000D01*
X-4420000Y-17120000D01*
X-4420000Y-17100000D01*
X-4220000Y-17100000D01*
X-4220000Y-17120000D01*
X-4200000Y-17120000D01*
X-4200000Y-17320000D01*
X-4220000Y-17320000D01*
X-4220000Y-18714722D01*
X-4049866Y-18836315D01*
X-3991436Y-18824535D01*
X-3792020Y-18740173D01*
X-3612894Y-18618528D01*
X-3470876Y-18474360D01*
X-3328152Y-18569725D01*
X-3159813Y-18639453D01*
X-2981105Y-18675000D01*
X-2798895Y-18675000D01*
X-2620187Y-18639453D01*
X-2451848Y-18569725D01*
X-2300347Y-18468495D01*
X-2171505Y-18339653D01*
X-2070275Y-18188152D01*
X-2000547Y-18019813D01*
X-1965000Y-17841105D01*
X-1965000Y-17658895D01*
X-1971572Y-17625854D01*
X-1900000Y-17632903D01*
X-1600000Y-17632903D01*
X-1500000Y-17623054D01*
X-1400000Y-17632903D01*
X-1247414Y-17632903D01*
X-1229719Y-17656763D01*
X-1227087Y-17661154D01*
X-1223644Y-17664953D01*
X-1220608Y-17669046D01*
X-1216831Y-17672469D01*
X-1186925Y-17705463D01*
X-1164530Y-17730173D01*
X-1161491Y-17734271D01*
X-1157715Y-17737693D01*
X-1157705Y-17737702D01*
X-1154270Y-17741492D01*
X-1150167Y-17744535D01*
X-1146218Y-17748114D01*
X-1092468Y-17796832D01*
X-1089045Y-17800609D01*
X-1084952Y-17803645D01*
X-1081153Y-17807088D01*
X-1076766Y-17809718D01*
X-1041924Y-17835557D01*
X-1014210Y-17856111D01*
X-1010417Y-17859549D01*
X-1006015Y-17862187D01*
X-1001915Y-17865228D01*
X-997301Y-17867410D01*
X-947988Y-17896966D01*
X-930537Y-17907426D01*
X-926430Y-17910472D01*
X-921807Y-17912659D01*
X-921803Y-17912661D01*
X-921796Y-17912664D01*
X-917407Y-17915295D01*
X-912596Y-17917016D01*
X-902598Y-17921745D01*
X-842194Y-17950315D01*
X-837813Y-17952941D01*
X-833008Y-17954660D01*
X-828393Y-17956843D01*
X-823438Y-17958084D01*
X-770885Y-17976887D01*
X-750109Y-17984321D01*
X-745494Y-17986504D01*
X-740544Y-17987744D01*
X-740541Y-17987745D01*
X-740530Y-17987748D01*
X-740521Y-17987751D01*
X-740516Y-17987752D01*
X-735704Y-17989474D01*
X-730648Y-17990224D01*
X-718086Y-17993370D01*
X-655104Y-18009148D01*
X-650300Y-18010867D01*
X-645257Y-18011615D01*
X-640307Y-18012855D01*
X-635205Y-18013106D01*
X-576389Y-18021829D01*
X-548101Y-18026025D01*
X-548091Y-18026026D01*
X-543031Y-18026776D01*
X-537925Y-18026525D01*
X-533958Y-18026720D01*
X-501503Y-18028315D01*
X-484390Y-18030000D01*
X-467201Y-18030000D01*
X-444895Y-18031096D01*
X-439832Y-18030345D01*
X-432812Y-18030000D01*
X-67190Y-18030000D01*
X-60160Y-18030345D01*
X-55100Y-18031096D01*
X-32798Y-18030000D01*
X-15610Y-18030000D01*
X1509Y-18028314D01*
X16831Y-18027561D01*
X37924Y-18026525D01*
X43031Y-18026776D01*
X48098Y-18026024D01*
X48106Y-18026024D01*
X79542Y-18021361D01*
X135210Y-18013105D01*
X140315Y-18012854D01*
X145267Y-18011613D01*
X150300Y-18010867D01*
X155096Y-18009151D01*
X222499Y-17992265D01*
X230649Y-17990224D01*
X235703Y-17989474D01*
X240513Y-17987753D01*
X240521Y-17987751D01*
X240530Y-17987748D01*
X240549Y-17987743D01*
X240552Y-17987742D01*
X245498Y-17986503D01*
X250110Y-17984321D01*
X275564Y-17975213D01*
X323440Y-17958083D01*
X328392Y-17956843D01*
X333004Y-17954662D01*
X337813Y-17952941D01*
X342197Y-17950313D01*
X402597Y-17921745D01*
X412579Y-17917024D01*
X417392Y-17915302D01*
X421777Y-17912674D01*
X421785Y-17912670D01*
X421793Y-17912665D01*
X421802Y-17912661D01*
X421811Y-17912655D01*
X426436Y-17910468D01*
X430544Y-17907421D01*
X447987Y-17896966D01*
X497328Y-17867394D01*
X501944Y-17865210D01*
X506042Y-17862170D01*
X510416Y-17859549D01*
X514197Y-17856122D01*
X558842Y-17823010D01*
X576759Y-17809722D01*
X581139Y-17807097D01*
X584932Y-17803659D01*
X584939Y-17803654D01*
X584942Y-17803651D01*
X589044Y-17800609D01*
X592474Y-17796824D01*
X611751Y-17779352D01*
X650166Y-17744536D01*
X654265Y-17741496D01*
X657692Y-17737715D01*
X661481Y-17734281D01*
X664525Y-17730177D01*
X698508Y-17692681D01*
X700782Y-17690172D01*
X716830Y-17672466D01*
X720622Y-17669029D01*
X723678Y-17664909D01*
X727106Y-17661126D01*
X729730Y-17656748D01*
X747414Y-17632903D01*
X900000Y-17632903D01*
X1000000Y-17623054D01*
X1100000Y-17632903D01*
X1400000Y-17632903D01*
X1500000Y-17623054D01*
X1600000Y-17632903D01*
X1900000Y-17632903D01*
X1971572Y-17625854D01*
X1965000Y-17658895D01*
X1965000Y-17841105D01*
X2000547Y-18019813D01*
X2070275Y-18188152D01*
X2171505Y-18339653D01*
X2300347Y-18468495D01*
X2451848Y-18569725D01*
X2620187Y-18639453D01*
X2798895Y-18675000D01*
X2981105Y-18675000D01*
X3159813Y-18639453D01*
X3328152Y-18569725D01*
X3470876Y-18474360D01*
X3612894Y-18618528D01*
X3792020Y-18740173D01*
X3991436Y-18824535D01*
X4049866Y-18836315D01*
X4220000Y-18714722D01*
X4220000Y-17320000D01*
X4200000Y-17320000D01*
X4200000Y-17120000D01*
X4220000Y-17120000D01*
X4220000Y-15725278D01*
X4127903Y-15659457D01*
X4127903Y-15580000D01*
X4125127Y-15551812D01*
X4202669Y-15500000D01*
X4550000Y-15500000D01*
X4550000Y-15632368D01*
X4420000Y-15725278D01*
X4420000Y-17120000D01*
X4440000Y-17120000D01*
X4440000Y-17320000D01*
X4420000Y-17320000D01*
X4420000Y-18714722D01*
X4550000Y-18807632D01*
X4550000Y-20062368D01*
X4420000Y-20155278D01*
X4420000Y-21300000D01*
X4440000Y-21300000D01*
X4440000Y-21500000D01*
X4420000Y-21500000D01*
X4420000Y-22644722D01*
X4550000Y-22737632D01*
X4550000Y-23300000D01*
X-12800000Y-23300000D01*
X-12800000Y-21887500D01*
X-9902903Y-21887500D01*
X-9891318Y-22005121D01*
X-9857010Y-22118221D01*
X-9801296Y-22222455D01*
X-9726317Y-22313817D01*
X-9634955Y-22388796D01*
X-9530721Y-22444510D01*
X-9417621Y-22478818D01*
X-9300000Y-22490403D01*
X-8850000Y-22487500D01*
X-8700000Y-22337500D01*
X-8700000Y-21500000D01*
X-8500000Y-21500000D01*
X-8500000Y-22337500D01*
X-8350000Y-22487500D01*
X-7900000Y-22490403D01*
X-7782379Y-22478818D01*
X-7689395Y-22450612D01*
X-7688817Y-22451317D01*
X-7597455Y-22526296D01*
X-7493221Y-22582010D01*
X-7380121Y-22616318D01*
X-7262500Y-22627903D01*
X-6637500Y-22625000D01*
X-6487500Y-22475000D01*
X-6487500Y-21500000D01*
X-6287500Y-21500000D01*
X-6287500Y-22475000D01*
X-6137500Y-22625000D01*
X-5512500Y-22627903D01*
X-5394879Y-22616318D01*
X-5281779Y-22582010D01*
X-5177545Y-22526296D01*
X-5106468Y-22467964D01*
X-5027106Y-22548528D01*
X-4847980Y-22670173D01*
X-4648564Y-22754535D01*
X-4590134Y-22766315D01*
X-4420000Y-22644722D01*
X-4420000Y-21500000D01*
X-4220000Y-21500000D01*
X-4220000Y-22644722D01*
X-4049866Y-22766315D01*
X-3991436Y-22754535D01*
X-3792020Y-22670173D01*
X-3612894Y-22548528D01*
X-3460941Y-22394274D01*
X-3342001Y-22213340D01*
X-3260645Y-22012678D01*
X-3220000Y-21800000D01*
X-3220000Y-21500000D01*
X3220000Y-21500000D01*
X3220000Y-21800000D01*
X3260645Y-22012678D01*
X3342001Y-22213340D01*
X3460941Y-22394274D01*
X3612894Y-22548528D01*
X3792020Y-22670173D01*
X3991436Y-22754535D01*
X4049866Y-22766315D01*
X4220000Y-22644722D01*
X4220000Y-21500000D01*
X3220000Y-21500000D01*
X-3220000Y-21500000D01*
X-4220000Y-21500000D01*
X-4420000Y-21500000D01*
X-6287500Y-21500000D01*
X-6487500Y-21500000D01*
X-8500000Y-21500000D01*
X-8700000Y-21500000D01*
X-9750000Y-21500000D01*
X-9900000Y-21650000D01*
X-9902903Y-21887500D01*
X-12800000Y-21887500D01*
X-12800000Y-13937418D01*
X-12741689Y-13961571D01*
X-12548491Y-14000000D01*
X-12351509Y-14000000D01*
X-12158311Y-13961571D01*
X-11976322Y-13886189D01*
X-11900000Y-13835192D01*
X-11823678Y-13886189D01*
X-11641689Y-13961571D01*
X-11448491Y-14000000D01*
X-11251509Y-14000000D01*
X-11058311Y-13961571D01*
X-10876322Y-13886189D01*
X-10712537Y-13776751D01*
X-10573249Y-13637463D01*
X-10507598Y-13539210D01*
X-10374878Y-13579280D01*
M02*
