M48
; DRILL file {KiCad (5.1.4)-1} date 8/26/2021 2:32:59 AM
; FORMAT={-:-/ absolute / inch / decimal}
; #@! TF.CreationDate,2021-08-26T02:32:59-07:00
; #@! TF.GenerationSoftware,Kicad,Pcbnew,(5.1.4)-1
; #@! TF.FileFunction,Plated,1,2,PTH
FMAT,2
INCH
T1C0.0157
T2C0.0197
T3C0.1260
%
G90
G05
T1
X-0.7283Y-0.1811
X-0.7283Y-0.3465
X-0.5433Y-0.2598
X-0.5354Y-0.1811
X-0.4409Y-0.4055
X-0.4291Y-0.0787
X-0.1614Y-0.3307
X-0.1024Y-0.3701
X-0.0591Y-0.374
X0.0197Y-0.3937
X0.1024Y-0.3701
X0.1614Y-0.3307
T2
X-1.0354Y-0.2264
X-1.0089Y-0.1623
X-1.0089Y-0.2904
X-0.9449Y-0.1358
X-0.9449Y-0.3169
X-0.8809Y-0.1623
X-0.8809Y-0.2904
X-0.8543Y-0.2264
X0.4016Y-0.2264
X0.4281Y-0.1623
X0.4281Y-0.2904
X0.4921Y-0.1358
X0.4921Y-0.3169
X0.5562Y-0.1623
X0.5562Y-0.2904
X0.5827Y-0.2264
T3
X-0.9449Y-0.2264
X0.4921Y-0.2264
T2
G00X-0.2195Y-0.0652
M15
G01X-0.2195Y-0.1104
M16
G05
G00X-0.2195Y-0.2463
M15
G01X-0.2195Y-0.2915
M16
G05
G00X0.2195Y-0.0652
M15
G01X0.2195Y-0.1104
M16
G05
G00X0.2195Y-0.2463
M15
G01X0.2195Y-0.2915
M16
G05
T0
M30
