G04 #@! TF.GenerationSoftware,KiCad,Pcbnew,(5.1.4)-1*
G04 #@! TF.CreationDate,2021-08-26T02:32:56-07:00*
G04 #@! TF.ProjectId,dboard,64626f61-7264-42e6-9b69-6361645f7063,rev?*
G04 #@! TF.SameCoordinates,Original*
G04 #@! TF.FileFunction,Copper,L1,Top*
G04 #@! TF.FilePolarity,Positive*
%FSLAX46Y46*%
G04 Gerber Fmt 4.6, Leading zero omitted, Abs format (unit mm)*
G04 Created by KiCad (PCBNEW (5.1.4)-1) date 2021-08-26 02:32:56*
%MOMM*%
%LPD*%
G04 APERTURE LIST*
%ADD10O,0.900000X2.050000*%
%ADD11C,0.800000*%
%ADD12C,6.000000*%
%ADD13C,0.400000*%
%ADD14C,0.200000*%
G04 APERTURE END LIST*
D10*
X-5575000Y-6830000D03*
X5575000Y-6830000D03*
X-5575000Y-2230000D03*
X5575000Y-2230000D03*
D11*
X10873654Y-4123654D03*
X12500000Y-3450000D03*
X14126346Y-4123654D03*
X14800000Y-5750000D03*
X14126346Y-7376346D03*
X12500000Y-8050000D03*
X10873654Y-7376346D03*
X10200000Y-5750000D03*
D12*
X12500000Y-5750000D03*
D11*
X-25626346Y-7376346D03*
X-24000000Y-8050000D03*
X-22373654Y-7376346D03*
X-21700000Y-5750000D03*
X-22373654Y-4123654D03*
X-24000000Y-3450000D03*
X-25626346Y-4123654D03*
X-26300000Y-5750000D03*
D12*
X-24000000Y-5750000D03*
D11*
X-4100000Y-8400000D03*
X4100000Y-8400000D03*
X-11200000Y-10300000D03*
X-13600000Y-4600000D03*
X-13800000Y-6600000D03*
X-10900000Y-2000000D03*
X-18500000Y-4600000D03*
X-18500000Y-8800000D03*
X-2600000Y-9400000D03*
X2600000Y-9400000D03*
X-1500000Y-9500000D03*
X500000Y-10000000D03*
D13*
X3782842Y-8082842D02*
X4100000Y-8400000D01*
X3782842Y-8082842D02*
X3748514Y-8050159D01*
X3748514Y-8050159D02*
X3712623Y-8019199D01*
X3712623Y-8019199D02*
X3675257Y-7990039D01*
X3675257Y-7990039D02*
X3636505Y-7962746D01*
X3636505Y-7962746D02*
X3596461Y-7937388D01*
X3596461Y-7937388D02*
X3555220Y-7914026D01*
X3555220Y-7914026D02*
X3512883Y-7892715D01*
X3512883Y-7892715D02*
X3469551Y-7873507D01*
X3469551Y-7873507D02*
X3425329Y-7856449D01*
X3425329Y-7856449D02*
X3380323Y-7841581D01*
X3380323Y-7841581D02*
X3334642Y-7828939D01*
X3334642Y-7828939D02*
X3288395Y-7818554D01*
X3288395Y-7818554D02*
X3241695Y-7810451D01*
X3241695Y-7810451D02*
X3194653Y-7804649D01*
X3194653Y-7804649D02*
X3147383Y-7801162D01*
X3147383Y-7801162D02*
X3100000Y-7800000D01*
X-3782842Y-8082842D02*
X-4100000Y-8400000D01*
X-3782842Y-8082842D02*
X-3748514Y-8050159D01*
X-3748514Y-8050159D02*
X-3712623Y-8019199D01*
X-3712623Y-8019199D02*
X-3675257Y-7990039D01*
X-3675257Y-7990039D02*
X-3636505Y-7962746D01*
X-3636505Y-7962746D02*
X-3596461Y-7937388D01*
X-3596461Y-7937388D02*
X-3555220Y-7914026D01*
X-3555220Y-7914026D02*
X-3512883Y-7892715D01*
X-3512883Y-7892715D02*
X-3469551Y-7873507D01*
X-3469551Y-7873507D02*
X-3425329Y-7856449D01*
X-3425329Y-7856449D02*
X-3380323Y-7841581D01*
X-3380323Y-7841581D02*
X-3334642Y-7828939D01*
X-3334642Y-7828939D02*
X-3288395Y-7818554D01*
X-3288395Y-7818554D02*
X-3241695Y-7810451D01*
X-3241695Y-7810451D02*
X-3194653Y-7804649D01*
X-3194653Y-7804649D02*
X-3147383Y-7801162D01*
X-3147383Y-7801162D02*
X-3100000Y-7800000D01*
X-3100000Y-7800000D02*
X3100000Y-7800000D01*
X-5434314Y-9734314D02*
X-4100000Y-8400000D01*
X-5434314Y-9734314D02*
X-5502970Y-9799680D01*
X-5502970Y-9799680D02*
X-5574750Y-9861598D01*
X-5574750Y-9861598D02*
X-5649483Y-9919920D01*
X-5649483Y-9919920D02*
X-5726987Y-9974504D01*
X-5726987Y-9974504D02*
X-5807076Y-10025220D01*
X-5807076Y-10025220D02*
X-5889557Y-10071945D01*
X-5889557Y-10071945D02*
X-5974232Y-10114567D01*
X-5974232Y-10114567D02*
X-6060896Y-10152982D01*
X-6060896Y-10152982D02*
X-6149340Y-10187099D01*
X-6149340Y-10187099D02*
X-6239352Y-10216835D01*
X-6239352Y-10216835D02*
X-6330714Y-10242118D01*
X-6330714Y-10242118D02*
X-6423208Y-10262888D01*
X-6423208Y-10262888D02*
X-6516608Y-10279095D01*
X-6516608Y-10279095D02*
X-6610692Y-10290699D01*
X-6610692Y-10290699D02*
X-6705232Y-10297673D01*
X-6705232Y-10297673D02*
X-6800000Y-10300000D01*
X-6800000Y-10300000D02*
X-11200000Y-10300000D01*
X2082842Y-8882842D02*
X2600000Y-9400000D01*
X2082842Y-8882842D02*
X2048514Y-8850159D01*
X2048514Y-8850159D02*
X2012623Y-8819199D01*
X2012623Y-8819199D02*
X1975257Y-8790039D01*
X1975257Y-8790039D02*
X1936505Y-8762746D01*
X1936505Y-8762746D02*
X1896461Y-8737388D01*
X1896461Y-8737388D02*
X1855220Y-8714026D01*
X1855220Y-8714026D02*
X1812883Y-8692715D01*
X1812883Y-8692715D02*
X1769551Y-8673507D01*
X1769551Y-8673507D02*
X1725329Y-8656449D01*
X1725329Y-8656449D02*
X1680323Y-8641581D01*
X1680323Y-8641581D02*
X1634642Y-8628939D01*
X1634642Y-8628939D02*
X1588395Y-8618554D01*
X1588395Y-8618554D02*
X1541695Y-8610451D01*
X1541695Y-8610451D02*
X1494653Y-8604649D01*
X1494653Y-8604649D02*
X1447383Y-8601162D01*
X1447383Y-8601162D02*
X1400000Y-8600000D01*
X-2082842Y-8882842D02*
X-2600000Y-9400000D01*
X-2082842Y-8882842D02*
X-2048514Y-8850159D01*
X-2048514Y-8850159D02*
X-2012623Y-8819199D01*
X-2012623Y-8819199D02*
X-1975257Y-8790039D01*
X-1975257Y-8790039D02*
X-1936505Y-8762746D01*
X-1936505Y-8762746D02*
X-1896461Y-8737388D01*
X-1896461Y-8737388D02*
X-1855220Y-8714026D01*
X-1855220Y-8714026D02*
X-1812883Y-8692715D01*
X-1812883Y-8692715D02*
X-1769551Y-8673507D01*
X-1769551Y-8673507D02*
X-1725329Y-8656449D01*
X-1725329Y-8656449D02*
X-1680323Y-8641581D01*
X-1680323Y-8641581D02*
X-1634642Y-8628939D01*
X-1634642Y-8628939D02*
X-1588395Y-8618554D01*
X-1588395Y-8618554D02*
X-1541695Y-8610451D01*
X-1541695Y-8610451D02*
X-1494653Y-8604649D01*
X-1494653Y-8604649D02*
X-1447383Y-8601162D01*
X-1447383Y-8601162D02*
X-1400000Y-8600000D01*
X-1400000Y-8600000D02*
X1400000Y-8600000D01*
D14*
X-400000Y-9500000D02*
X-1500000Y-9500000D01*
X-400000Y-9500000D02*
X-352616Y-9501163D01*
X-352616Y-9501163D02*
X-305346Y-9504650D01*
X-305346Y-9504650D02*
X-258304Y-9510452D01*
X-258304Y-9510452D02*
X-211604Y-9518555D01*
X-211604Y-9518555D02*
X-165357Y-9528940D01*
X-165357Y-9528940D02*
X-119676Y-9541582D01*
X-119676Y-9541582D02*
X-74670Y-9556449D01*
X-74670Y-9556449D02*
X-30448Y-9573508D01*
X-30448Y-9573508D02*
X12883Y-9592716D01*
X12883Y-9592716D02*
X55220Y-9614026D01*
X55220Y-9614026D02*
X96460Y-9637389D01*
X96460Y-9637389D02*
X136505Y-9662747D01*
X136505Y-9662747D02*
X175257Y-9690039D01*
X175257Y-9690039D02*
X212623Y-9719200D01*
X212623Y-9719200D02*
X248513Y-9750159D01*
X248513Y-9750159D02*
X282842Y-9782842D01*
X282842Y-9782842D02*
X500000Y-10000000D01*
G36*
X-4924999Y-1280051D02*
G01*
X-4948381Y-1236307D01*
X-5042105Y-1122105D01*
X-5156308Y-1028381D01*
X-5286600Y-958739D01*
X-5427975Y-915853D01*
X-5575000Y-901372D01*
X-5722026Y-915853D01*
X-5863401Y-958739D01*
X-5993693Y-1028381D01*
X-6107895Y-1122105D01*
X-6201619Y-1236308D01*
X-6271261Y-1366600D01*
X-6314147Y-1507975D01*
X-6325000Y-1618166D01*
X-6324999Y-2841835D01*
X-6314146Y-2952026D01*
X-6271260Y-3093401D01*
X-6201618Y-3223693D01*
X-6107894Y-3337895D01*
X-5993692Y-3431619D01*
X-5863400Y-3501261D01*
X-5722025Y-3544147D01*
X-5575000Y-3558628D01*
X-5427974Y-3544147D01*
X-5286599Y-3501261D01*
X-5156307Y-3431619D01*
X-5042105Y-3337895D01*
X-4948381Y-3223693D01*
X-4925000Y-3179949D01*
X-4925000Y-4710396D01*
X-4927628Y-4711817D01*
X-5013141Y-4758828D01*
X-5041203Y-4778042D01*
X-5069496Y-4796840D01*
X-5073531Y-4800178D01*
X-5148283Y-4862903D01*
X-5172071Y-4887195D01*
X-5196178Y-4911134D01*
X-5199487Y-4915191D01*
X-5260633Y-4991241D01*
X-5279244Y-5019682D01*
X-5298250Y-5047859D01*
X-5300708Y-5052482D01*
X-5345919Y-5138961D01*
X-5358677Y-5170539D01*
X-5371820Y-5201805D01*
X-5373334Y-5206818D01*
X-5400886Y-5300429D01*
X-5407259Y-5333837D01*
X-5414089Y-5367111D01*
X-5414601Y-5372322D01*
X-5423445Y-5469505D01*
X-5423207Y-5503529D01*
X-5423303Y-5517270D01*
X-5427975Y-5515853D01*
X-5575000Y-5501372D01*
X-5722026Y-5515853D01*
X-5863401Y-5558739D01*
X-5993693Y-5628381D01*
X-6107895Y-5722105D01*
X-6201619Y-5836308D01*
X-6271261Y-5966600D01*
X-6314147Y-6107975D01*
X-6325000Y-6218166D01*
X-6324999Y-7441835D01*
X-6314146Y-7552026D01*
X-6271260Y-7693401D01*
X-6201618Y-7823693D01*
X-6107894Y-7937895D01*
X-5993692Y-8031619D01*
X-5863400Y-8101261D01*
X-5722025Y-8144147D01*
X-5575000Y-8158628D01*
X-5427974Y-8144147D01*
X-5286599Y-8101261D01*
X-5156307Y-8031619D01*
X-5042105Y-7937895D01*
X-4948381Y-7823693D01*
X-4878739Y-7693401D01*
X-4835853Y-7552026D01*
X-4825000Y-7441835D01*
X-4825000Y-6328490D01*
X-4755505Y-6349472D01*
X-4722176Y-6356072D01*
X-4688916Y-6363141D01*
X-4683715Y-6363687D01*
X-4683712Y-6363688D01*
X-4683709Y-6363688D01*
X-4587092Y-6373161D01*
X-4568419Y-6375000D01*
X-4026271Y-6375000D01*
X-4034207Y-6378287D01*
X-4132478Y-6443950D01*
X-4216050Y-6527522D01*
X-4281713Y-6625793D01*
X-4326942Y-6734986D01*
X-4350000Y-6850905D01*
X-4350000Y-6969095D01*
X-4326942Y-7085014D01*
X-4281713Y-7194207D01*
X-4216050Y-7292478D01*
X-4132478Y-7376050D01*
X-4034207Y-7441713D01*
X-3925014Y-7486942D01*
X-3809095Y-7510000D01*
X-3690905Y-7510000D01*
X-3574986Y-7486942D01*
X-3465793Y-7441713D01*
X-3367522Y-7376050D01*
X-3283950Y-7292478D01*
X-3265564Y-7264961D01*
X-3208759Y-7310633D01*
X-3180318Y-7329244D01*
X-3152141Y-7348250D01*
X-3147518Y-7350709D01*
X-3061038Y-7395919D01*
X-3029486Y-7408667D01*
X-2998195Y-7421820D01*
X-2993183Y-7423334D01*
X-2899571Y-7450886D01*
X-2866156Y-7457260D01*
X-2832888Y-7464089D01*
X-2827677Y-7464601D01*
X-2730495Y-7473445D01*
X-2696470Y-7473207D01*
X-2662523Y-7473444D01*
X-2657311Y-7472934D01*
X-2560263Y-7462734D01*
X-2526919Y-7455889D01*
X-2493584Y-7449530D01*
X-2488571Y-7448017D01*
X-2395352Y-7419162D01*
X-2363984Y-7405976D01*
X-2332505Y-7393257D01*
X-2327881Y-7390799D01*
X-2242044Y-7344387D01*
X-2213857Y-7325374D01*
X-2185427Y-7306770D01*
X-2181369Y-7303461D01*
X-2106181Y-7241259D01*
X-2082259Y-7217169D01*
X-2057951Y-7193365D01*
X-2054613Y-7189330D01*
X-1992937Y-7113709D01*
X-1974144Y-7085424D01*
X-1954923Y-7057352D01*
X-1952433Y-7052746D01*
X-1911095Y-6975000D01*
X1910396Y-6975000D01*
X1911815Y-6977624D01*
X1911817Y-6977629D01*
X1911820Y-6977633D01*
X1958828Y-7063141D01*
X1978042Y-7091203D01*
X1996840Y-7119496D01*
X2000178Y-7123531D01*
X2062902Y-7198283D01*
X2087230Y-7222106D01*
X2111134Y-7246178D01*
X2115191Y-7249487D01*
X2191241Y-7310633D01*
X2219682Y-7329244D01*
X2247859Y-7348250D01*
X2252482Y-7350709D01*
X2338962Y-7395919D01*
X2370514Y-7408667D01*
X2401805Y-7421820D01*
X2406817Y-7423334D01*
X2500429Y-7450886D01*
X2533844Y-7457260D01*
X2567112Y-7464089D01*
X2572323Y-7464601D01*
X2669505Y-7473445D01*
X2703530Y-7473207D01*
X2737477Y-7473444D01*
X2742689Y-7472934D01*
X2839737Y-7462734D01*
X2873081Y-7455889D01*
X2906416Y-7449530D01*
X2911429Y-7448017D01*
X3004648Y-7419162D01*
X3036016Y-7405976D01*
X3067495Y-7393257D01*
X3072119Y-7390799D01*
X3157956Y-7344387D01*
X3186143Y-7325374D01*
X3214573Y-7306770D01*
X3218631Y-7303461D01*
X3265423Y-7264751D01*
X3283950Y-7292478D01*
X3367522Y-7376050D01*
X3465793Y-7441713D01*
X3574986Y-7486942D01*
X3690905Y-7510000D01*
X3809095Y-7510000D01*
X3925014Y-7486942D01*
X4034207Y-7441713D01*
X4132478Y-7376050D01*
X4216050Y-7292478D01*
X4281713Y-7194207D01*
X4326942Y-7085014D01*
X4350000Y-6969095D01*
X4350000Y-6850905D01*
X4326942Y-6734986D01*
X4281713Y-6625793D01*
X4216050Y-6527522D01*
X4132478Y-6443950D01*
X4034207Y-6378287D01*
X4026271Y-6375000D01*
X4568419Y-6375000D01*
X4587092Y-6373161D01*
X4593572Y-6373161D01*
X4598780Y-6372614D01*
X4695755Y-6361737D01*
X4729005Y-6354670D01*
X4762342Y-6348069D01*
X4767344Y-6346521D01*
X4825000Y-6328232D01*
X4825001Y-7441835D01*
X4835854Y-7552026D01*
X4878740Y-7693401D01*
X4948382Y-7823693D01*
X5042106Y-7937895D01*
X5156308Y-8031619D01*
X5286600Y-8101261D01*
X5427975Y-8144147D01*
X5575000Y-8158628D01*
X5722026Y-8144147D01*
X5863401Y-8101261D01*
X5993693Y-8031619D01*
X6107895Y-7937895D01*
X6201619Y-7823693D01*
X6271261Y-7693401D01*
X6314147Y-7552026D01*
X6325000Y-7441835D01*
X6325000Y-6218165D01*
X6314147Y-6107974D01*
X6271261Y-5966599D01*
X6201619Y-5836307D01*
X6107895Y-5722105D01*
X5993692Y-5628381D01*
X5863400Y-5558739D01*
X5722025Y-5515853D01*
X5575000Y-5501372D01*
X5427974Y-5515853D01*
X5423352Y-5517255D01*
X5423207Y-5496470D01*
X5423444Y-5462523D01*
X5422934Y-5457312D01*
X5412734Y-5360263D01*
X5405889Y-5326919D01*
X5399530Y-5293584D01*
X5398017Y-5288571D01*
X5369161Y-5195352D01*
X5355994Y-5164030D01*
X5343257Y-5132504D01*
X5340799Y-5127881D01*
X5294386Y-5042043D01*
X5275380Y-5013866D01*
X5256770Y-4985427D01*
X5253461Y-4981369D01*
X5191259Y-4906180D01*
X5167097Y-4882187D01*
X5143364Y-4857951D01*
X5139330Y-4854613D01*
X5139327Y-4854610D01*
X5139323Y-4854608D01*
X5063709Y-4792937D01*
X5035424Y-4774144D01*
X5007352Y-4754923D01*
X5002746Y-4752433D01*
X4925000Y-4711095D01*
X4925000Y-3179948D01*
X4948382Y-3223693D01*
X5042106Y-3337895D01*
X5156308Y-3431619D01*
X5286600Y-3501261D01*
X5427975Y-3544147D01*
X5575000Y-3558628D01*
X5722026Y-3544147D01*
X5863401Y-3501261D01*
X5993693Y-3431619D01*
X6107895Y-3337895D01*
X6201619Y-3223693D01*
X6271261Y-3093401D01*
X6314147Y-2952026D01*
X6325000Y-2841835D01*
X6325000Y-1618165D01*
X6314147Y-1507974D01*
X6271261Y-1366599D01*
X6201619Y-1236307D01*
X6107895Y-1122105D01*
X5993692Y-1028381D01*
X5863400Y-958739D01*
X5722025Y-915853D01*
X5575000Y-901372D01*
X5427974Y-915853D01*
X5286599Y-958739D01*
X5156307Y-1028381D01*
X5042105Y-1122105D01*
X4948381Y-1236308D01*
X4925000Y-1280051D01*
X4925000Y-375000D01*
X6795222Y-375000D01*
X7035223Y-427210D01*
X7289181Y-521931D01*
X7527080Y-651834D01*
X7744065Y-814267D01*
X7935733Y-1005935D01*
X8098166Y-1222920D01*
X8228069Y-1460819D01*
X8322790Y-1714777D01*
X8380409Y-1979642D01*
X8400000Y-2253569D01*
X8400000Y-9246431D01*
X8380409Y-9520358D01*
X8322790Y-9785223D01*
X8228069Y-10039181D01*
X8098166Y-10277080D01*
X7935733Y-10494065D01*
X7744065Y-10685733D01*
X7527080Y-10848166D01*
X7289181Y-10978069D01*
X7035223Y-11072790D01*
X6795222Y-11125000D01*
X-25481662Y-11125000D01*
X-25597379Y-11113654D01*
X-25785223Y-11072790D01*
X-26039181Y-10978069D01*
X-26277080Y-10848166D01*
X-26494065Y-10685733D01*
X-26685733Y-10494065D01*
X-26848166Y-10277080D01*
X-26978069Y-10039181D01*
X-27072790Y-9785223D01*
X-27114551Y-9593253D01*
X-27125000Y-9493841D01*
X-27125000Y-9331056D01*
X-3300000Y-9331056D01*
X-3300000Y-9468944D01*
X-3273099Y-9604182D01*
X-3220332Y-9731574D01*
X-3143726Y-9846224D01*
X-3046224Y-9943726D01*
X-2931574Y-10020332D01*
X-2804182Y-10073099D01*
X-2668944Y-10100000D01*
X-2531056Y-10100000D01*
X-2395818Y-10073099D01*
X-2268426Y-10020332D01*
X-2153776Y-9943726D01*
X-2088806Y-9878756D01*
X-2043726Y-9946224D01*
X-1946224Y-10043726D01*
X-1831574Y-10120332D01*
X-1704182Y-10173099D01*
X-1568944Y-10200000D01*
X-1431056Y-10200000D01*
X-1295818Y-10173099D01*
X-1168426Y-10120332D01*
X-1053776Y-10043726D01*
X-956274Y-9946224D01*
X-925388Y-9900000D01*
X-404886Y-9900000D01*
X-372248Y-9900801D01*
X-344557Y-9902844D01*
X-317018Y-9906240D01*
X-289660Y-9910988D01*
X-262581Y-9917068D01*
X-235830Y-9924471D01*
X-209468Y-9933179D01*
X-200000Y-9936832D01*
X-200000Y-10068944D01*
X-173099Y-10204182D01*
X-120332Y-10331574D01*
X-43726Y-10446224D01*
X53776Y-10543726D01*
X168426Y-10620332D01*
X295818Y-10673099D01*
X431056Y-10700000D01*
X568944Y-10700000D01*
X704182Y-10673099D01*
X831574Y-10620332D01*
X946224Y-10543726D01*
X1043726Y-10446224D01*
X1120332Y-10331574D01*
X1173099Y-10204182D01*
X1200000Y-10068944D01*
X1200000Y-9931056D01*
X1173099Y-9795818D01*
X1120332Y-9668426D01*
X1043726Y-9553776D01*
X946224Y-9456274D01*
X831574Y-9379668D01*
X704182Y-9326901D01*
X568944Y-9300000D01*
X431056Y-9300000D01*
X339949Y-9318123D01*
X318753Y-9304700D01*
X310719Y-9299042D01*
X302161Y-9294194D01*
X293858Y-9288936D01*
X285089Y-9284522D01*
X260906Y-9270822D01*
X252609Y-9265568D01*
X243847Y-9261158D01*
X235290Y-9256310D01*
X226291Y-9252321D01*
X201484Y-9239835D01*
X192945Y-9234997D01*
X183963Y-9231015D01*
X175173Y-9226591D01*
X166003Y-9223054D01*
X140633Y-9211808D01*
X131845Y-9207384D01*
X122667Y-9203844D01*
X113692Y-9199865D01*
X104369Y-9196785D01*
X78440Y-9186783D01*
X69450Y-9182798D01*
X60125Y-9179718D01*
X50962Y-9176183D01*
X41486Y-9173561D01*
X15110Y-9164848D01*
X5947Y-9161313D01*
X-3529Y-9158691D01*
X-12867Y-9155606D01*
X-22454Y-9153453D01*
X-49207Y-9146050D01*
X-58548Y-9142964D01*
X-68144Y-9140809D01*
X-77605Y-9138191D01*
X-87282Y-9136512D01*
X-114389Y-9130425D01*
X-123864Y-9127803D01*
X-133550Y-9126122D01*
X-143135Y-9123970D01*
X-152885Y-9122767D01*
X-180268Y-9118016D01*
X-189842Y-9115866D01*
X-199580Y-9114665D01*
X-209279Y-9112982D01*
X-219096Y-9112258D01*
X-246639Y-9108861D01*
X-256326Y-9107180D01*
X-266131Y-9106457D01*
X-275882Y-9105254D01*
X-285704Y-9105013D01*
X-313404Y-9102969D01*
X-323161Y-9101766D01*
X-332983Y-9101525D01*
X-342783Y-9100802D01*
X-352611Y-9101043D01*
X-375453Y-9100483D01*
X-380353Y-9100000D01*
X1393898Y-9100000D01*
X1422843Y-9100710D01*
X1445624Y-9102390D01*
X1468317Y-9105189D01*
X1490816Y-9109093D01*
X1513115Y-9114100D01*
X1535144Y-9120196D01*
X1556823Y-9127358D01*
X1578152Y-9135585D01*
X1599032Y-9144841D01*
X1619463Y-9155126D01*
X1639327Y-9166378D01*
X1658635Y-9178605D01*
X1677308Y-9191755D01*
X1695339Y-9205827D01*
X1712632Y-9220744D01*
X1733649Y-9240754D01*
X1900000Y-9407106D01*
X1900000Y-9468944D01*
X1926901Y-9604182D01*
X1979668Y-9731574D01*
X2056274Y-9846224D01*
X2153776Y-9943726D01*
X2268426Y-10020332D01*
X2395818Y-10073099D01*
X2531056Y-10100000D01*
X2668944Y-10100000D01*
X2804182Y-10073099D01*
X2931574Y-10020332D01*
X3046224Y-9943726D01*
X3143726Y-9846224D01*
X3220332Y-9731574D01*
X3273099Y-9604182D01*
X3300000Y-9468944D01*
X3300000Y-9331056D01*
X3273099Y-9195818D01*
X3220332Y-9068426D01*
X3143726Y-8953776D01*
X3046224Y-8856274D01*
X2931574Y-8779668D01*
X2804182Y-8726901D01*
X2668944Y-8700000D01*
X2607106Y-8700000D01*
X2449416Y-8542311D01*
X2445399Y-8537654D01*
X2432045Y-8524940D01*
X2419028Y-8511923D01*
X2414281Y-8508027D01*
X2402171Y-8496497D01*
X2393698Y-8487598D01*
X2384390Y-8479569D01*
X2375496Y-8471101D01*
X2365814Y-8463545D01*
X2348495Y-8448605D01*
X2339596Y-8440133D01*
X2329915Y-8432578D01*
X2320613Y-8424554D01*
X2310564Y-8417477D01*
X2292548Y-8403417D01*
X2283246Y-8395393D01*
X2273194Y-8388314D01*
X2263506Y-8380753D01*
X2253132Y-8374184D01*
X2234437Y-8361017D01*
X2224756Y-8353462D01*
X2214380Y-8346891D01*
X2204334Y-8339816D01*
X2193644Y-8333760D01*
X2174321Y-8321524D01*
X2164273Y-8314447D01*
X2153589Y-8308395D01*
X2143213Y-8301824D01*
X2132235Y-8296298D01*
X2112341Y-8285028D01*
X2101965Y-8278458D01*
X2090988Y-8272933D01*
X2080293Y-8266874D01*
X2069067Y-8261898D01*
X2048646Y-8251619D01*
X2037958Y-8245564D01*
X2026730Y-8240587D01*
X2015754Y-8235062D01*
X2004286Y-8230638D01*
X1983389Y-8221375D01*
X1972410Y-8215849D01*
X1960942Y-8211426D01*
X1949720Y-8206451D01*
X1938061Y-8202599D01*
X1916726Y-8194370D01*
X1905490Y-8189389D01*
X1893817Y-8185533D01*
X1882359Y-8181113D01*
X1870526Y-8177839D01*
X1848810Y-8170664D01*
X1837353Y-8166245D01*
X1825516Y-8162969D01*
X1813843Y-8159113D01*
X1801852Y-8156420D01*
X1779831Y-8150326D01*
X1768155Y-8146469D01*
X1756159Y-8143775D01*
X1744331Y-8140502D01*
X1732234Y-8138403D01*
X1709908Y-8133390D01*
X1698072Y-8130114D01*
X1685971Y-8128014D01*
X1673981Y-8125322D01*
X1661783Y-8123818D01*
X1639264Y-8119910D01*
X1627274Y-8117218D01*
X1615074Y-8115713D01*
X1602975Y-8113614D01*
X1590732Y-8112711D01*
X1568029Y-8109911D01*
X1555929Y-8107811D01*
X1543680Y-8106907D01*
X1531482Y-8105403D01*
X1519195Y-8105101D01*
X1496394Y-8103420D01*
X1484193Y-8101915D01*
X1471914Y-8101614D01*
X1459673Y-8100711D01*
X1447388Y-8101012D01*
X1430680Y-8100603D01*
X1424560Y-8100000D01*
X1406098Y-8100000D01*
X1387706Y-8099549D01*
X1381594Y-8100000D01*
X-1381594Y-8100000D01*
X-1387706Y-8099549D01*
X-1406098Y-8100000D01*
X-1424560Y-8100000D01*
X-1430680Y-8100603D01*
X-1447389Y-8101013D01*
X-1459674Y-8100711D01*
X-1471915Y-8101614D01*
X-1484193Y-8101915D01*
X-1496393Y-8103419D01*
X-1519196Y-8105101D01*
X-1531483Y-8105403D01*
X-1543680Y-8106907D01*
X-1555930Y-8107811D01*
X-1568031Y-8109911D01*
X-1590733Y-8112711D01*
X-1602975Y-8113614D01*
X-1615073Y-8115713D01*
X-1627274Y-8117218D01*
X-1639264Y-8119910D01*
X-1661785Y-8123818D01*
X-1673980Y-8125322D01*
X-1685967Y-8128014D01*
X-1698072Y-8130114D01*
X-1709911Y-8133390D01*
X-1732228Y-8138402D01*
X-1744331Y-8140502D01*
X-1756163Y-8143776D01*
X-1768154Y-8146469D01*
X-1779825Y-8150325D01*
X-1801867Y-8156425D01*
X-1813843Y-8159114D01*
X-1825497Y-8162964D01*
X-1837353Y-8166245D01*
X-1848828Y-8170671D01*
X-1870508Y-8177833D01*
X-1882359Y-8181113D01*
X-1893835Y-8185540D01*
X-1905490Y-8189390D01*
X-1916709Y-8194363D01*
X-1938055Y-8202597D01*
X-1949721Y-8206451D01*
X-1960949Y-8211428D01*
X-1972410Y-8215849D01*
X-1983384Y-8221373D01*
X-2004289Y-8230639D01*
X-2015754Y-8235062D01*
X-2026730Y-8240587D01*
X-2037958Y-8245564D01*
X-2048642Y-8251617D01*
X-2069080Y-8261904D01*
X-2080294Y-8266875D01*
X-2090975Y-8272926D01*
X-2101966Y-8278458D01*
X-2112352Y-8285035D01*
X-2132233Y-8296297D01*
X-2143213Y-8301824D01*
X-2153592Y-8308396D01*
X-2164273Y-8314447D01*
X-2174318Y-8321521D01*
X-2193654Y-8333765D01*
X-2204334Y-8339816D01*
X-2214367Y-8346882D01*
X-2224756Y-8353461D01*
X-2234448Y-8361025D01*
X-2253127Y-8374181D01*
X-2263505Y-8380752D01*
X-2273199Y-8388317D01*
X-2283246Y-8395393D01*
X-2292540Y-8403410D01*
X-2310572Y-8417482D01*
X-2320613Y-8424554D01*
X-2329904Y-8432569D01*
X-2339596Y-8440132D01*
X-2348504Y-8448613D01*
X-2365806Y-8463538D01*
X-2375497Y-8471101D01*
X-2384400Y-8479577D01*
X-2393698Y-8487598D01*
X-2402166Y-8496493D01*
X-2414270Y-8508017D01*
X-2419029Y-8511922D01*
X-2432081Y-8524974D01*
X-2445399Y-8537654D01*
X-2449405Y-8542299D01*
X-2607106Y-8700000D01*
X-2668944Y-8700000D01*
X-2804182Y-8726901D01*
X-2931574Y-8779668D01*
X-3046224Y-8856274D01*
X-3143726Y-8953776D01*
X-3220332Y-9068426D01*
X-3273099Y-9195818D01*
X-3300000Y-9331056D01*
X-27125000Y-9331056D01*
X-27125000Y-6828898D01*
X-26924422Y-7313136D01*
X-26563277Y-7853627D01*
X-26103627Y-8313277D01*
X-25563136Y-8674422D01*
X-24962574Y-8923183D01*
X-24325022Y-9050000D01*
X-23674978Y-9050000D01*
X-23037426Y-8923183D01*
X-22436864Y-8674422D01*
X-21896373Y-8313277D01*
X-21436723Y-7853627D01*
X-21075578Y-7313136D01*
X-20826817Y-6712574D01*
X-20700000Y-6075022D01*
X-20700000Y-5424978D01*
X-20826817Y-4787426D01*
X-21075578Y-4186864D01*
X-21436723Y-3646373D01*
X-21896373Y-3186723D01*
X-22436864Y-2825578D01*
X-23037426Y-2576817D01*
X-23674978Y-2450000D01*
X-24325022Y-2450000D01*
X-24962574Y-2576817D01*
X-25563136Y-2825578D01*
X-26103627Y-3186723D01*
X-26563277Y-3646373D01*
X-26924422Y-4186864D01*
X-27125000Y-4671102D01*
X-27125000Y-2018338D01*
X-27113654Y-1902620D01*
X-27072790Y-1714777D01*
X-26978069Y-1460819D01*
X-26848166Y-1222920D01*
X-26685733Y-1005935D01*
X-26494065Y-814267D01*
X-26277080Y-651834D01*
X-26039181Y-521931D01*
X-25785223Y-427210D01*
X-25593253Y-385449D01*
X-25493841Y-375000D01*
X-4924999Y-375000D01*
X-4924999Y-1280051D01*
X-4924999Y-1280051D01*
G37*
X-4924999Y-1280051D02*
X-4948381Y-1236307D01*
X-5042105Y-1122105D01*
X-5156308Y-1028381D01*
X-5286600Y-958739D01*
X-5427975Y-915853D01*
X-5575000Y-901372D01*
X-5722026Y-915853D01*
X-5863401Y-958739D01*
X-5993693Y-1028381D01*
X-6107895Y-1122105D01*
X-6201619Y-1236308D01*
X-6271261Y-1366600D01*
X-6314147Y-1507975D01*
X-6325000Y-1618166D01*
X-6324999Y-2841835D01*
X-6314146Y-2952026D01*
X-6271260Y-3093401D01*
X-6201618Y-3223693D01*
X-6107894Y-3337895D01*
X-5993692Y-3431619D01*
X-5863400Y-3501261D01*
X-5722025Y-3544147D01*
X-5575000Y-3558628D01*
X-5427974Y-3544147D01*
X-5286599Y-3501261D01*
X-5156307Y-3431619D01*
X-5042105Y-3337895D01*
X-4948381Y-3223693D01*
X-4925000Y-3179949D01*
X-4925000Y-4710396D01*
X-4927628Y-4711817D01*
X-5013141Y-4758828D01*
X-5041203Y-4778042D01*
X-5069496Y-4796840D01*
X-5073531Y-4800178D01*
X-5148283Y-4862903D01*
X-5172071Y-4887195D01*
X-5196178Y-4911134D01*
X-5199487Y-4915191D01*
X-5260633Y-4991241D01*
X-5279244Y-5019682D01*
X-5298250Y-5047859D01*
X-5300708Y-5052482D01*
X-5345919Y-5138961D01*
X-5358677Y-5170539D01*
X-5371820Y-5201805D01*
X-5373334Y-5206818D01*
X-5400886Y-5300429D01*
X-5407259Y-5333837D01*
X-5414089Y-5367111D01*
X-5414601Y-5372322D01*
X-5423445Y-5469505D01*
X-5423207Y-5503529D01*
X-5423303Y-5517270D01*
X-5427975Y-5515853D01*
X-5575000Y-5501372D01*
X-5722026Y-5515853D01*
X-5863401Y-5558739D01*
X-5993693Y-5628381D01*
X-6107895Y-5722105D01*
X-6201619Y-5836308D01*
X-6271261Y-5966600D01*
X-6314147Y-6107975D01*
X-6325000Y-6218166D01*
X-6324999Y-7441835D01*
X-6314146Y-7552026D01*
X-6271260Y-7693401D01*
X-6201618Y-7823693D01*
X-6107894Y-7937895D01*
X-5993692Y-8031619D01*
X-5863400Y-8101261D01*
X-5722025Y-8144147D01*
X-5575000Y-8158628D01*
X-5427974Y-8144147D01*
X-5286599Y-8101261D01*
X-5156307Y-8031619D01*
X-5042105Y-7937895D01*
X-4948381Y-7823693D01*
X-4878739Y-7693401D01*
X-4835853Y-7552026D01*
X-4825000Y-7441835D01*
X-4825000Y-6328490D01*
X-4755505Y-6349472D01*
X-4722176Y-6356072D01*
X-4688916Y-6363141D01*
X-4683715Y-6363687D01*
X-4683712Y-6363688D01*
X-4683709Y-6363688D01*
X-4587092Y-6373161D01*
X-4568419Y-6375000D01*
X-4026271Y-6375000D01*
X-4034207Y-6378287D01*
X-4132478Y-6443950D01*
X-4216050Y-6527522D01*
X-4281713Y-6625793D01*
X-4326942Y-6734986D01*
X-4350000Y-6850905D01*
X-4350000Y-6969095D01*
X-4326942Y-7085014D01*
X-4281713Y-7194207D01*
X-4216050Y-7292478D01*
X-4132478Y-7376050D01*
X-4034207Y-7441713D01*
X-3925014Y-7486942D01*
X-3809095Y-7510000D01*
X-3690905Y-7510000D01*
X-3574986Y-7486942D01*
X-3465793Y-7441713D01*
X-3367522Y-7376050D01*
X-3283950Y-7292478D01*
X-3265564Y-7264961D01*
X-3208759Y-7310633D01*
X-3180318Y-7329244D01*
X-3152141Y-7348250D01*
X-3147518Y-7350709D01*
X-3061038Y-7395919D01*
X-3029486Y-7408667D01*
X-2998195Y-7421820D01*
X-2993183Y-7423334D01*
X-2899571Y-7450886D01*
X-2866156Y-7457260D01*
X-2832888Y-7464089D01*
X-2827677Y-7464601D01*
X-2730495Y-7473445D01*
X-2696470Y-7473207D01*
X-2662523Y-7473444D01*
X-2657311Y-7472934D01*
X-2560263Y-7462734D01*
X-2526919Y-7455889D01*
X-2493584Y-7449530D01*
X-2488571Y-7448017D01*
X-2395352Y-7419162D01*
X-2363984Y-7405976D01*
X-2332505Y-7393257D01*
X-2327881Y-7390799D01*
X-2242044Y-7344387D01*
X-2213857Y-7325374D01*
X-2185427Y-7306770D01*
X-2181369Y-7303461D01*
X-2106181Y-7241259D01*
X-2082259Y-7217169D01*
X-2057951Y-7193365D01*
X-2054613Y-7189330D01*
X-1992937Y-7113709D01*
X-1974144Y-7085424D01*
X-1954923Y-7057352D01*
X-1952433Y-7052746D01*
X-1911095Y-6975000D01*
X1910396Y-6975000D01*
X1911815Y-6977624D01*
X1911817Y-6977629D01*
X1911820Y-6977633D01*
X1958828Y-7063141D01*
X1978042Y-7091203D01*
X1996840Y-7119496D01*
X2000178Y-7123531D01*
X2062902Y-7198283D01*
X2087230Y-7222106D01*
X2111134Y-7246178D01*
X2115191Y-7249487D01*
X2191241Y-7310633D01*
X2219682Y-7329244D01*
X2247859Y-7348250D01*
X2252482Y-7350709D01*
X2338962Y-7395919D01*
X2370514Y-7408667D01*
X2401805Y-7421820D01*
X2406817Y-7423334D01*
X2500429Y-7450886D01*
X2533844Y-7457260D01*
X2567112Y-7464089D01*
X2572323Y-7464601D01*
X2669505Y-7473445D01*
X2703530Y-7473207D01*
X2737477Y-7473444D01*
X2742689Y-7472934D01*
X2839737Y-7462734D01*
X2873081Y-7455889D01*
X2906416Y-7449530D01*
X2911429Y-7448017D01*
X3004648Y-7419162D01*
X3036016Y-7405976D01*
X3067495Y-7393257D01*
X3072119Y-7390799D01*
X3157956Y-7344387D01*
X3186143Y-7325374D01*
X3214573Y-7306770D01*
X3218631Y-7303461D01*
X3265423Y-7264751D01*
X3283950Y-7292478D01*
X3367522Y-7376050D01*
X3465793Y-7441713D01*
X3574986Y-7486942D01*
X3690905Y-7510000D01*
X3809095Y-7510000D01*
X3925014Y-7486942D01*
X4034207Y-7441713D01*
X4132478Y-7376050D01*
X4216050Y-7292478D01*
X4281713Y-7194207D01*
X4326942Y-7085014D01*
X4350000Y-6969095D01*
X4350000Y-6850905D01*
X4326942Y-6734986D01*
X4281713Y-6625793D01*
X4216050Y-6527522D01*
X4132478Y-6443950D01*
X4034207Y-6378287D01*
X4026271Y-6375000D01*
X4568419Y-6375000D01*
X4587092Y-6373161D01*
X4593572Y-6373161D01*
X4598780Y-6372614D01*
X4695755Y-6361737D01*
X4729005Y-6354670D01*
X4762342Y-6348069D01*
X4767344Y-6346521D01*
X4825000Y-6328232D01*
X4825001Y-7441835D01*
X4835854Y-7552026D01*
X4878740Y-7693401D01*
X4948382Y-7823693D01*
X5042106Y-7937895D01*
X5156308Y-8031619D01*
X5286600Y-8101261D01*
X5427975Y-8144147D01*
X5575000Y-8158628D01*
X5722026Y-8144147D01*
X5863401Y-8101261D01*
X5993693Y-8031619D01*
X6107895Y-7937895D01*
X6201619Y-7823693D01*
X6271261Y-7693401D01*
X6314147Y-7552026D01*
X6325000Y-7441835D01*
X6325000Y-6218165D01*
X6314147Y-6107974D01*
X6271261Y-5966599D01*
X6201619Y-5836307D01*
X6107895Y-5722105D01*
X5993692Y-5628381D01*
X5863400Y-5558739D01*
X5722025Y-5515853D01*
X5575000Y-5501372D01*
X5427974Y-5515853D01*
X5423352Y-5517255D01*
X5423207Y-5496470D01*
X5423444Y-5462523D01*
X5422934Y-5457312D01*
X5412734Y-5360263D01*
X5405889Y-5326919D01*
X5399530Y-5293584D01*
X5398017Y-5288571D01*
X5369161Y-5195352D01*
X5355994Y-5164030D01*
X5343257Y-5132504D01*
X5340799Y-5127881D01*
X5294386Y-5042043D01*
X5275380Y-5013866D01*
X5256770Y-4985427D01*
X5253461Y-4981369D01*
X5191259Y-4906180D01*
X5167097Y-4882187D01*
X5143364Y-4857951D01*
X5139330Y-4854613D01*
X5139327Y-4854610D01*
X5139323Y-4854608D01*
X5063709Y-4792937D01*
X5035424Y-4774144D01*
X5007352Y-4754923D01*
X5002746Y-4752433D01*
X4925000Y-4711095D01*
X4925000Y-3179948D01*
X4948382Y-3223693D01*
X5042106Y-3337895D01*
X5156308Y-3431619D01*
X5286600Y-3501261D01*
X5427975Y-3544147D01*
X5575000Y-3558628D01*
X5722026Y-3544147D01*
X5863401Y-3501261D01*
X5993693Y-3431619D01*
X6107895Y-3337895D01*
X6201619Y-3223693D01*
X6271261Y-3093401D01*
X6314147Y-2952026D01*
X6325000Y-2841835D01*
X6325000Y-1618165D01*
X6314147Y-1507974D01*
X6271261Y-1366599D01*
X6201619Y-1236307D01*
X6107895Y-1122105D01*
X5993692Y-1028381D01*
X5863400Y-958739D01*
X5722025Y-915853D01*
X5575000Y-901372D01*
X5427974Y-915853D01*
X5286599Y-958739D01*
X5156307Y-1028381D01*
X5042105Y-1122105D01*
X4948381Y-1236308D01*
X4925000Y-1280051D01*
X4925000Y-375000D01*
X6795222Y-375000D01*
X7035223Y-427210D01*
X7289181Y-521931D01*
X7527080Y-651834D01*
X7744065Y-814267D01*
X7935733Y-1005935D01*
X8098166Y-1222920D01*
X8228069Y-1460819D01*
X8322790Y-1714777D01*
X8380409Y-1979642D01*
X8400000Y-2253569D01*
X8400000Y-9246431D01*
X8380409Y-9520358D01*
X8322790Y-9785223D01*
X8228069Y-10039181D01*
X8098166Y-10277080D01*
X7935733Y-10494065D01*
X7744065Y-10685733D01*
X7527080Y-10848166D01*
X7289181Y-10978069D01*
X7035223Y-11072790D01*
X6795222Y-11125000D01*
X-25481662Y-11125000D01*
X-25597379Y-11113654D01*
X-25785223Y-11072790D01*
X-26039181Y-10978069D01*
X-26277080Y-10848166D01*
X-26494065Y-10685733D01*
X-26685733Y-10494065D01*
X-26848166Y-10277080D01*
X-26978069Y-10039181D01*
X-27072790Y-9785223D01*
X-27114551Y-9593253D01*
X-27125000Y-9493841D01*
X-27125000Y-9331056D01*
X-3300000Y-9331056D01*
X-3300000Y-9468944D01*
X-3273099Y-9604182D01*
X-3220332Y-9731574D01*
X-3143726Y-9846224D01*
X-3046224Y-9943726D01*
X-2931574Y-10020332D01*
X-2804182Y-10073099D01*
X-2668944Y-10100000D01*
X-2531056Y-10100000D01*
X-2395818Y-10073099D01*
X-2268426Y-10020332D01*
X-2153776Y-9943726D01*
X-2088806Y-9878756D01*
X-2043726Y-9946224D01*
X-1946224Y-10043726D01*
X-1831574Y-10120332D01*
X-1704182Y-10173099D01*
X-1568944Y-10200000D01*
X-1431056Y-10200000D01*
X-1295818Y-10173099D01*
X-1168426Y-10120332D01*
X-1053776Y-10043726D01*
X-956274Y-9946224D01*
X-925388Y-9900000D01*
X-404886Y-9900000D01*
X-372248Y-9900801D01*
X-344557Y-9902844D01*
X-317018Y-9906240D01*
X-289660Y-9910988D01*
X-262581Y-9917068D01*
X-235830Y-9924471D01*
X-209468Y-9933179D01*
X-200000Y-9936832D01*
X-200000Y-10068944D01*
X-173099Y-10204182D01*
X-120332Y-10331574D01*
X-43726Y-10446224D01*
X53776Y-10543726D01*
X168426Y-10620332D01*
X295818Y-10673099D01*
X431056Y-10700000D01*
X568944Y-10700000D01*
X704182Y-10673099D01*
X831574Y-10620332D01*
X946224Y-10543726D01*
X1043726Y-10446224D01*
X1120332Y-10331574D01*
X1173099Y-10204182D01*
X1200000Y-10068944D01*
X1200000Y-9931056D01*
X1173099Y-9795818D01*
X1120332Y-9668426D01*
X1043726Y-9553776D01*
X946224Y-9456274D01*
X831574Y-9379668D01*
X704182Y-9326901D01*
X568944Y-9300000D01*
X431056Y-9300000D01*
X339949Y-9318123D01*
X318753Y-9304700D01*
X310719Y-9299042D01*
X302161Y-9294194D01*
X293858Y-9288936D01*
X285089Y-9284522D01*
X260906Y-9270822D01*
X252609Y-9265568D01*
X243847Y-9261158D01*
X235290Y-9256310D01*
X226291Y-9252321D01*
X201484Y-9239835D01*
X192945Y-9234997D01*
X183963Y-9231015D01*
X175173Y-9226591D01*
X166003Y-9223054D01*
X140633Y-9211808D01*
X131845Y-9207384D01*
X122667Y-9203844D01*
X113692Y-9199865D01*
X104369Y-9196785D01*
X78440Y-9186783D01*
X69450Y-9182798D01*
X60125Y-9179718D01*
X50962Y-9176183D01*
X41486Y-9173561D01*
X15110Y-9164848D01*
X5947Y-9161313D01*
X-3529Y-9158691D01*
X-12867Y-9155606D01*
X-22454Y-9153453D01*
X-49207Y-9146050D01*
X-58548Y-9142964D01*
X-68144Y-9140809D01*
X-77605Y-9138191D01*
X-87282Y-9136512D01*
X-114389Y-9130425D01*
X-123864Y-9127803D01*
X-133550Y-9126122D01*
X-143135Y-9123970D01*
X-152885Y-9122767D01*
X-180268Y-9118016D01*
X-189842Y-9115866D01*
X-199580Y-9114665D01*
X-209279Y-9112982D01*
X-219096Y-9112258D01*
X-246639Y-9108861D01*
X-256326Y-9107180D01*
X-266131Y-9106457D01*
X-275882Y-9105254D01*
X-285704Y-9105013D01*
X-313404Y-9102969D01*
X-323161Y-9101766D01*
X-332983Y-9101525D01*
X-342783Y-9100802D01*
X-352611Y-9101043D01*
X-375453Y-9100483D01*
X-380353Y-9100000D01*
X1393898Y-9100000D01*
X1422843Y-9100710D01*
X1445624Y-9102390D01*
X1468317Y-9105189D01*
X1490816Y-9109093D01*
X1513115Y-9114100D01*
X1535144Y-9120196D01*
X1556823Y-9127358D01*
X1578152Y-9135585D01*
X1599032Y-9144841D01*
X1619463Y-9155126D01*
X1639327Y-9166378D01*
X1658635Y-9178605D01*
X1677308Y-9191755D01*
X1695339Y-9205827D01*
X1712632Y-9220744D01*
X1733649Y-9240754D01*
X1900000Y-9407106D01*
X1900000Y-9468944D01*
X1926901Y-9604182D01*
X1979668Y-9731574D01*
X2056274Y-9846224D01*
X2153776Y-9943726D01*
X2268426Y-10020332D01*
X2395818Y-10073099D01*
X2531056Y-10100000D01*
X2668944Y-10100000D01*
X2804182Y-10073099D01*
X2931574Y-10020332D01*
X3046224Y-9943726D01*
X3143726Y-9846224D01*
X3220332Y-9731574D01*
X3273099Y-9604182D01*
X3300000Y-9468944D01*
X3300000Y-9331056D01*
X3273099Y-9195818D01*
X3220332Y-9068426D01*
X3143726Y-8953776D01*
X3046224Y-8856274D01*
X2931574Y-8779668D01*
X2804182Y-8726901D01*
X2668944Y-8700000D01*
X2607106Y-8700000D01*
X2449416Y-8542311D01*
X2445399Y-8537654D01*
X2432045Y-8524940D01*
X2419028Y-8511923D01*
X2414281Y-8508027D01*
X2402171Y-8496497D01*
X2393698Y-8487598D01*
X2384390Y-8479569D01*
X2375496Y-8471101D01*
X2365814Y-8463545D01*
X2348495Y-8448605D01*
X2339596Y-8440133D01*
X2329915Y-8432578D01*
X2320613Y-8424554D01*
X2310564Y-8417477D01*
X2292548Y-8403417D01*
X2283246Y-8395393D01*
X2273194Y-8388314D01*
X2263506Y-8380753D01*
X2253132Y-8374184D01*
X2234437Y-8361017D01*
X2224756Y-8353462D01*
X2214380Y-8346891D01*
X2204334Y-8339816D01*
X2193644Y-8333760D01*
X2174321Y-8321524D01*
X2164273Y-8314447D01*
X2153589Y-8308395D01*
X2143213Y-8301824D01*
X2132235Y-8296298D01*
X2112341Y-8285028D01*
X2101965Y-8278458D01*
X2090988Y-8272933D01*
X2080293Y-8266874D01*
X2069067Y-8261898D01*
X2048646Y-8251619D01*
X2037958Y-8245564D01*
X2026730Y-8240587D01*
X2015754Y-8235062D01*
X2004286Y-8230638D01*
X1983389Y-8221375D01*
X1972410Y-8215849D01*
X1960942Y-8211426D01*
X1949720Y-8206451D01*
X1938061Y-8202599D01*
X1916726Y-8194370D01*
X1905490Y-8189389D01*
X1893817Y-8185533D01*
X1882359Y-8181113D01*
X1870526Y-8177839D01*
X1848810Y-8170664D01*
X1837353Y-8166245D01*
X1825516Y-8162969D01*
X1813843Y-8159113D01*
X1801852Y-8156420D01*
X1779831Y-8150326D01*
X1768155Y-8146469D01*
X1756159Y-8143775D01*
X1744331Y-8140502D01*
X1732234Y-8138403D01*
X1709908Y-8133390D01*
X1698072Y-8130114D01*
X1685971Y-8128014D01*
X1673981Y-8125322D01*
X1661783Y-8123818D01*
X1639264Y-8119910D01*
X1627274Y-8117218D01*
X1615074Y-8115713D01*
X1602975Y-8113614D01*
X1590732Y-8112711D01*
X1568029Y-8109911D01*
X1555929Y-8107811D01*
X1543680Y-8106907D01*
X1531482Y-8105403D01*
X1519195Y-8105101D01*
X1496394Y-8103420D01*
X1484193Y-8101915D01*
X1471914Y-8101614D01*
X1459673Y-8100711D01*
X1447388Y-8101012D01*
X1430680Y-8100603D01*
X1424560Y-8100000D01*
X1406098Y-8100000D01*
X1387706Y-8099549D01*
X1381594Y-8100000D01*
X-1381594Y-8100000D01*
X-1387706Y-8099549D01*
X-1406098Y-8100000D01*
X-1424560Y-8100000D01*
X-1430680Y-8100603D01*
X-1447389Y-8101013D01*
X-1459674Y-8100711D01*
X-1471915Y-8101614D01*
X-1484193Y-8101915D01*
X-1496393Y-8103419D01*
X-1519196Y-8105101D01*
X-1531483Y-8105403D01*
X-1543680Y-8106907D01*
X-1555930Y-8107811D01*
X-1568031Y-8109911D01*
X-1590733Y-8112711D01*
X-1602975Y-8113614D01*
X-1615073Y-8115713D01*
X-1627274Y-8117218D01*
X-1639264Y-8119910D01*
X-1661785Y-8123818D01*
X-1673980Y-8125322D01*
X-1685967Y-8128014D01*
X-1698072Y-8130114D01*
X-1709911Y-8133390D01*
X-1732228Y-8138402D01*
X-1744331Y-8140502D01*
X-1756163Y-8143776D01*
X-1768154Y-8146469D01*
X-1779825Y-8150325D01*
X-1801867Y-8156425D01*
X-1813843Y-8159114D01*
X-1825497Y-8162964D01*
X-1837353Y-8166245D01*
X-1848828Y-8170671D01*
X-1870508Y-8177833D01*
X-1882359Y-8181113D01*
X-1893835Y-8185540D01*
X-1905490Y-8189390D01*
X-1916709Y-8194363D01*
X-1938055Y-8202597D01*
X-1949721Y-8206451D01*
X-1960949Y-8211428D01*
X-1972410Y-8215849D01*
X-1983384Y-8221373D01*
X-2004289Y-8230639D01*
X-2015754Y-8235062D01*
X-2026730Y-8240587D01*
X-2037958Y-8245564D01*
X-2048642Y-8251617D01*
X-2069080Y-8261904D01*
X-2080294Y-8266875D01*
X-2090975Y-8272926D01*
X-2101966Y-8278458D01*
X-2112352Y-8285035D01*
X-2132233Y-8296297D01*
X-2143213Y-8301824D01*
X-2153592Y-8308396D01*
X-2164273Y-8314447D01*
X-2174318Y-8321521D01*
X-2193654Y-8333765D01*
X-2204334Y-8339816D01*
X-2214367Y-8346882D01*
X-2224756Y-8353461D01*
X-2234448Y-8361025D01*
X-2253127Y-8374181D01*
X-2263505Y-8380752D01*
X-2273199Y-8388317D01*
X-2283246Y-8395393D01*
X-2292540Y-8403410D01*
X-2310572Y-8417482D01*
X-2320613Y-8424554D01*
X-2329904Y-8432569D01*
X-2339596Y-8440132D01*
X-2348504Y-8448613D01*
X-2365806Y-8463538D01*
X-2375497Y-8471101D01*
X-2384400Y-8479577D01*
X-2393698Y-8487598D01*
X-2402166Y-8496493D01*
X-2414270Y-8508017D01*
X-2419029Y-8511922D01*
X-2432081Y-8524974D01*
X-2445399Y-8537654D01*
X-2449405Y-8542299D01*
X-2607106Y-8700000D01*
X-2668944Y-8700000D01*
X-2804182Y-8726901D01*
X-2931574Y-8779668D01*
X-3046224Y-8856274D01*
X-3143726Y-8953776D01*
X-3220332Y-9068426D01*
X-3273099Y-9195818D01*
X-3300000Y-9331056D01*
X-27125000Y-9331056D01*
X-27125000Y-6828898D01*
X-26924422Y-7313136D01*
X-26563277Y-7853627D01*
X-26103627Y-8313277D01*
X-25563136Y-8674422D01*
X-24962574Y-8923183D01*
X-24325022Y-9050000D01*
X-23674978Y-9050000D01*
X-23037426Y-8923183D01*
X-22436864Y-8674422D01*
X-21896373Y-8313277D01*
X-21436723Y-7853627D01*
X-21075578Y-7313136D01*
X-20826817Y-6712574D01*
X-20700000Y-6075022D01*
X-20700000Y-5424978D01*
X-20826817Y-4787426D01*
X-21075578Y-4186864D01*
X-21436723Y-3646373D01*
X-21896373Y-3186723D01*
X-22436864Y-2825578D01*
X-23037426Y-2576817D01*
X-23674978Y-2450000D01*
X-24325022Y-2450000D01*
X-24962574Y-2576817D01*
X-25563136Y-2825578D01*
X-26103627Y-3186723D01*
X-26563277Y-3646373D01*
X-26924422Y-4186864D01*
X-27125000Y-4671102D01*
X-27125000Y-2018338D01*
X-27113654Y-1902620D01*
X-27072790Y-1714777D01*
X-26978069Y-1460819D01*
X-26848166Y-1222920D01*
X-26685733Y-1005935D01*
X-26494065Y-814267D01*
X-26277080Y-651834D01*
X-26039181Y-521931D01*
X-25785223Y-427210D01*
X-25593253Y-385449D01*
X-25493841Y-375000D01*
X-4924999Y-375000D01*
X-4924999Y-1280051D01*
G36*
X14285223Y-427210D02*
G01*
X14539181Y-521931D01*
X14777080Y-651834D01*
X14994065Y-814267D01*
X15185733Y-1005935D01*
X15348166Y-1222920D01*
X15478069Y-1460819D01*
X15572790Y-1714777D01*
X15626818Y-1963134D01*
X15625001Y-1981581D01*
X15625001Y-4173181D01*
X15445219Y-3827886D01*
X15402888Y-3764535D01*
X14968129Y-3423293D01*
X14743589Y-3647833D01*
X14267767Y-4123654D01*
X12641421Y-5750000D01*
X13820363Y-6928941D01*
X14126346Y-7234925D01*
X14267767Y-7376346D01*
X14743589Y-7852167D01*
X14968129Y-8076707D01*
X15402888Y-7735465D01*
X15625000Y-7330535D01*
X15625000Y-9481662D01*
X15613654Y-9597379D01*
X15572790Y-9785223D01*
X15478069Y-10039181D01*
X15348166Y-10277080D01*
X15185733Y-10494065D01*
X14994065Y-10685733D01*
X14777080Y-10848166D01*
X14539181Y-10978069D01*
X14285223Y-11072790D01*
X14093253Y-11114551D01*
X13993841Y-11125000D01*
X10704778Y-11125000D01*
X10464777Y-11072790D01*
X10210819Y-10978069D01*
X9972920Y-10848166D01*
X9755935Y-10685733D01*
X9564267Y-10494065D01*
X9401834Y-10277080D01*
X9271931Y-10039181D01*
X9177210Y-9785223D01*
X9119591Y-9520358D01*
X9100000Y-9246431D01*
X9100000Y-8218129D01*
X10173293Y-8218129D01*
X10514535Y-8652888D01*
X11119011Y-8984455D01*
X11776556Y-9191723D01*
X12461904Y-9266729D01*
X13148715Y-9206588D01*
X13810598Y-9013612D01*
X14422114Y-8695219D01*
X14485465Y-8652888D01*
X14826707Y-8218129D01*
X14373098Y-7764520D01*
X14126346Y-7517767D01*
X13984925Y-7376346D01*
X13669176Y-7060598D01*
X12500000Y-5891421D01*
X11330824Y-7060598D01*
X11015075Y-7376346D01*
X10873654Y-7517767D01*
X10626902Y-7764520D01*
X10173293Y-8218129D01*
X9100000Y-8218129D01*
X9100000Y-6592805D01*
X9236388Y-7060598D01*
X9554781Y-7672114D01*
X9597112Y-7735465D01*
X10031871Y-8076707D01*
X10256411Y-7852167D01*
X10732233Y-7376346D01*
X10873654Y-7234925D01*
X11179637Y-6928941D01*
X12358579Y-5750000D01*
X10732233Y-4123654D01*
X10256411Y-3647833D01*
X10031871Y-3423293D01*
X9597112Y-3764535D01*
X9265545Y-4369011D01*
X9100000Y-4894192D01*
X9100000Y-3281871D01*
X10173293Y-3281871D01*
X10397833Y-3506411D01*
X10873654Y-3982233D01*
X11015075Y-4123654D01*
X11254450Y-4363028D01*
X12500000Y-5608579D01*
X13745550Y-4363028D01*
X13984925Y-4123654D01*
X14126346Y-3982233D01*
X14602167Y-3506411D01*
X14826707Y-3281871D01*
X14485465Y-2847112D01*
X13880989Y-2515545D01*
X13223444Y-2308277D01*
X12538096Y-2233271D01*
X11851285Y-2293412D01*
X11189402Y-2486388D01*
X10577886Y-2804781D01*
X10514535Y-2847112D01*
X10173293Y-3281871D01*
X9100000Y-3281871D01*
X9100000Y-2253569D01*
X9119591Y-1979642D01*
X9177210Y-1714777D01*
X9271931Y-1460819D01*
X9401834Y-1222920D01*
X9564267Y-1005935D01*
X9755935Y-814267D01*
X9972920Y-651834D01*
X10210819Y-521931D01*
X10464777Y-427210D01*
X10704778Y-375000D01*
X14018419Y-375000D01*
X14036869Y-373183D01*
X14285223Y-427210D01*
X14285223Y-427210D01*
G37*
X14285223Y-427210D02*
X14539181Y-521931D01*
X14777080Y-651834D01*
X14994065Y-814267D01*
X15185733Y-1005935D01*
X15348166Y-1222920D01*
X15478069Y-1460819D01*
X15572790Y-1714777D01*
X15626818Y-1963134D01*
X15625001Y-1981581D01*
X15625001Y-4173181D01*
X15445219Y-3827886D01*
X15402888Y-3764535D01*
X14968129Y-3423293D01*
X14743589Y-3647833D01*
X14267767Y-4123654D01*
X12641421Y-5750000D01*
X13820363Y-6928941D01*
X14126346Y-7234925D01*
X14267767Y-7376346D01*
X14743589Y-7852167D01*
X14968129Y-8076707D01*
X15402888Y-7735465D01*
X15625000Y-7330535D01*
X15625000Y-9481662D01*
X15613654Y-9597379D01*
X15572790Y-9785223D01*
X15478069Y-10039181D01*
X15348166Y-10277080D01*
X15185733Y-10494065D01*
X14994065Y-10685733D01*
X14777080Y-10848166D01*
X14539181Y-10978069D01*
X14285223Y-11072790D01*
X14093253Y-11114551D01*
X13993841Y-11125000D01*
X10704778Y-11125000D01*
X10464777Y-11072790D01*
X10210819Y-10978069D01*
X9972920Y-10848166D01*
X9755935Y-10685733D01*
X9564267Y-10494065D01*
X9401834Y-10277080D01*
X9271931Y-10039181D01*
X9177210Y-9785223D01*
X9119591Y-9520358D01*
X9100000Y-9246431D01*
X9100000Y-8218129D01*
X10173293Y-8218129D01*
X10514535Y-8652888D01*
X11119011Y-8984455D01*
X11776556Y-9191723D01*
X12461904Y-9266729D01*
X13148715Y-9206588D01*
X13810598Y-9013612D01*
X14422114Y-8695219D01*
X14485465Y-8652888D01*
X14826707Y-8218129D01*
X14373098Y-7764520D01*
X14126346Y-7517767D01*
X13984925Y-7376346D01*
X13669176Y-7060598D01*
X12500000Y-5891421D01*
X11330824Y-7060598D01*
X11015075Y-7376346D01*
X10873654Y-7517767D01*
X10626902Y-7764520D01*
X10173293Y-8218129D01*
X9100000Y-8218129D01*
X9100000Y-6592805D01*
X9236388Y-7060598D01*
X9554781Y-7672114D01*
X9597112Y-7735465D01*
X10031871Y-8076707D01*
X10256411Y-7852167D01*
X10732233Y-7376346D01*
X10873654Y-7234925D01*
X11179637Y-6928941D01*
X12358579Y-5750000D01*
X10732233Y-4123654D01*
X10256411Y-3647833D01*
X10031871Y-3423293D01*
X9597112Y-3764535D01*
X9265545Y-4369011D01*
X9100000Y-4894192D01*
X9100000Y-3281871D01*
X10173293Y-3281871D01*
X10397833Y-3506411D01*
X10873654Y-3982233D01*
X11015075Y-4123654D01*
X11254450Y-4363028D01*
X12500000Y-5608579D01*
X13745550Y-4363028D01*
X13984925Y-4123654D01*
X14126346Y-3982233D01*
X14602167Y-3506411D01*
X14826707Y-3281871D01*
X14485465Y-2847112D01*
X13880989Y-2515545D01*
X13223444Y-2308277D01*
X12538096Y-2233271D01*
X11851285Y-2293412D01*
X11189402Y-2486388D01*
X10577886Y-2804781D01*
X10514535Y-2847112D01*
X10173293Y-3281871D01*
X9100000Y-3281871D01*
X9100000Y-2253569D01*
X9119591Y-1979642D01*
X9177210Y-1714777D01*
X9271931Y-1460819D01*
X9401834Y-1222920D01*
X9564267Y-1005935D01*
X9755935Y-814267D01*
X9972920Y-651834D01*
X10210819Y-521931D01*
X10464777Y-427210D01*
X10704778Y-375000D01*
X14018419Y-375000D01*
X14036869Y-373183D01*
X14285223Y-427210D01*
M02*
