M48
; DRILL file {KiCad (5.1.4)-1} date 3/22/2021 3:07:56 AM
; FORMAT={-:-/ absolute / inch / decimal}
; #@! TF.CreationDate,2021-03-22T03:07:56-07:00
; #@! TF.GenerationSoftware,Kicad,Pcbnew,(5.1.4)-1
; #@! TF.FileFunction,NonPlated,1,2,NPTH
FMAT,2
INCH
T1C0.0197
T2C0.0256
T3C0.0454
%
G90
G05
T1
X0.3494Y-0.9449
X0.3494Y-1.0236
X0.3789Y-0.9449
X0.3789Y-1.0236
X0.4085Y-0.9449
X0.4085Y-1.0236
X0.438Y-0.9449
X0.438Y-1.0236
X0.3494Y0.0787
X0.3494Y0.0
X0.3789Y0.0787
X0.3789Y0.0
X0.4085Y0.0787
X0.4085Y0.0
X0.438Y0.0787
X0.438Y0.0
X-1.2254Y0.0787
X-1.2254Y0.0
X-1.1959Y0.0787
X-1.1959Y0.0
X-1.1663Y0.0787
X-1.1663Y0.0
X-1.1368Y0.0787
X-1.1368Y0.0
X0.3494Y-0.4331
X0.3494Y-0.5118
X0.3789Y-0.4331
X0.3789Y-0.5118
X0.4085Y-0.4331
X0.4085Y-0.5118
X0.438Y-0.4331
X0.438Y-0.5118
X-1.063Y-0.6841
X-1.063Y-0.7136
X-1.063Y-0.7431
X-1.063Y-0.7726
X-0.9843Y-0.6841
X-0.9843Y-0.7136
X-0.9843Y-0.7431
X-0.9843Y-0.7726
X0.7234Y-0.9449
X0.7234Y-1.0236
X0.753Y-0.9449
X0.753Y-1.0236
X0.7825Y-0.9449
X0.7825Y-1.0236
X0.812Y-0.9449
X0.812Y-1.0236
X-0.8514Y-0.9449
X-0.8514Y-1.0236
X-0.8219Y-0.9449
X-0.8219Y-1.0236
X-0.7923Y-0.9449
X-0.7923Y-1.0236
X-0.7628Y-0.9449
X-0.7628Y-1.0236
X-1.2254Y-0.9449
X-1.2254Y-1.0236
X-1.1959Y-0.9449
X-1.1959Y-1.0236
X-1.1663Y-0.9449
X-1.1663Y-1.0236
X-1.1368Y-0.9449
X-1.1368Y-1.0236
X-1.063Y-0.1722
X-1.063Y-0.2018
X-1.063Y-0.2313
X-1.063Y-0.2608
X-0.9843Y-0.1722
X-0.9843Y-0.2018
X-0.9843Y-0.2313
X-0.9843Y-0.2608
X-0.8514Y-0.4331
X-0.8514Y-0.5118
X-0.8219Y-0.4331
X-0.8219Y-0.5118
X-0.7923Y-0.4331
X-0.7923Y-0.5118
X-0.7628Y-0.4331
X-0.7628Y-0.5118
X-0.8514Y0.0787
X-0.8514Y0.0
X-0.8219Y0.0787
X-0.8219Y0.0
X-0.7923Y0.0787
X-0.7923Y0.0
X-0.7628Y0.0787
X-0.7628Y0.0
X0.5709Y-0.1329
X0.5709Y-0.1624
X0.5709Y-0.1919
X0.5709Y-0.2215
X0.6496Y-0.1329
X0.6496Y-0.1624
X0.6496Y-0.1919
X0.6496Y-0.2215
X0.5709Y-0.6447
X0.5709Y-0.6742
X0.5709Y-0.7037
X0.5709Y-0.7333
X0.6496Y-0.6447
X0.6496Y-0.6742
X0.6496Y-0.7037
X0.6496Y-0.7333
X0.7234Y0.0787
X0.7234Y0.0
X0.753Y0.0787
X0.753Y0.0
X0.7825Y0.0787
X0.7825Y0.0
X0.812Y0.0787
X0.812Y0.0
T2
X-0.1138Y-0.2461
X0.1138Y-0.2461
X-0.1138Y-0.7579
X0.1138Y-0.7579
T3
X0.8465Y-1.2205
X-1.2598Y-1.2205
X0.8465Y0.2756
X-1.2598Y0.2756
T0
M30
