G04 #@! TF.GenerationSoftware,KiCad,Pcbnew,(5.1.4)-1*
G04 #@! TF.CreationDate,2021-03-22T03:07:54-07:00*
G04 #@! TF.ProjectId,bsw,6273772e-6b69-4636-9164-5f7063625858,rev?*
G04 #@! TF.SameCoordinates,Original*
G04 #@! TF.FileFunction,Profile,NP*
%FSLAX46Y46*%
G04 Gerber Fmt 4.6, Leading zero omitted, Abs format (unit mm)*
G04 Created by KiCad (PCBNEW (5.1.4)-1) date 2021-03-22 03:07:54*
%MOMM*%
%LPD*%
G04 APERTURE LIST*
%ADD10C,0.150000*%
%ADD11C,0.120000*%
G04 APERTURE END LIST*
D10*
X-33000000Y-31500000D02*
X-33000000Y-26500000D01*
X-32500000Y-32000000D02*
G75*
G02X-33000000Y-31500000I0J500000D01*
G01*
X22000000Y-32000000D02*
X-32500000Y-32000000D01*
X22500000Y-31500000D02*
G75*
G02X22000000Y-32000000I-500000J0D01*
G01*
X22500000Y-26500000D02*
X22500000Y-31500000D01*
X22500000Y7500000D02*
X22500000Y2500000D01*
X22000000Y8000000D02*
G75*
G02X22500000Y7500000I0J-500000D01*
G01*
X-32500000Y8000000D02*
X22000000Y8000000D01*
X-33000000Y7500000D02*
G75*
G02X-32500000Y8000000I500000J0D01*
G01*
X-33000000Y2500000D02*
X-33000000Y7500000D01*
X12000000Y2000000D02*
X17500000Y2000000D01*
X-22500000Y2000000D02*
X-28000000Y2000000D01*
X17500000Y-26000000D02*
X12000000Y-26000000D01*
X16500000Y-2500000D02*
X16500000Y-500000D01*
X17000000Y-24000000D02*
G75*
G02X16500000Y-23500000I0J500000D01*
G01*
X16500000Y-19500000D02*
X16500000Y-23500000D01*
X22500000Y-23500000D02*
G75*
G02X22000000Y-24000000I-500000J0D01*
G01*
X22500000Y-500000D02*
X22500000Y-23500000D01*
X22000000Y0D02*
G75*
G02X22500000Y-500000I0J-500000D01*
G01*
X21500000Y0D02*
X22000000Y0D01*
X17000000Y0D02*
X17500000Y0D01*
X16500000Y-500000D02*
G75*
G02X17000000Y0I500000J0D01*
G01*
X21500000Y-26000000D02*
X22000000Y-26000000D01*
X22000000Y-26000000D02*
G75*
G02X22500000Y-26500000I0J-500000D01*
G01*
X21500000Y-24000000D02*
X22000000Y-24000000D01*
X22500000Y2500000D02*
G75*
G02X22000000Y2000000I-500000J0D01*
G01*
X21500000Y2000000D02*
X22000000Y2000000D01*
X17000000Y-24000000D02*
X17500000Y-24000000D01*
X16500000Y-6500000D02*
X16500000Y-15500000D01*
X-27000000Y-16500000D02*
X-27000000Y-7500000D01*
X-32500000Y2000000D02*
G75*
G02X-33000000Y2500000I0J500000D01*
G01*
X-33000000Y-26500000D02*
G75*
G02X-32500000Y-26000000I500000J0D01*
G01*
X-32000000Y-26000000D02*
X-32500000Y-26000000D01*
X-32000000Y2000000D02*
X-32500000Y2000000D01*
X-32000000Y0D02*
X-32500000Y0D01*
X-27500000Y0D02*
X-28000000Y0D01*
X-27500000Y0D02*
G75*
G02X-27000000Y-500000I0J-500000D01*
G01*
X-27000000Y-3500000D02*
X-27000000Y-500000D01*
X-33000000Y-500000D02*
G75*
G02X-32500000Y0I500000J0D01*
G01*
X-33000000Y-23500000D02*
X-33000000Y-500000D01*
X-32500000Y-24000000D02*
G75*
G02X-33000000Y-23500000I0J500000D01*
G01*
X-32000000Y-24000000D02*
X-32500000Y-24000000D01*
X-28000000Y-26000000D02*
X-22500000Y-26000000D01*
X-27500000Y-24000000D02*
X-28000000Y-24000000D01*
X-27000000Y-23500000D02*
G75*
G02X-27500000Y-24000000I-500000J0D01*
G01*
X-27000000Y-20500000D02*
X-27000000Y-23500000D01*
X-18500000Y2000000D02*
X8000000Y2000000D01*
X-18500000Y-26000000D02*
X8000000Y-26000000D01*
X8000000Y-24000000D02*
X-18500000Y-24000000D01*
X12000000Y-24000000D02*
X12500000Y-24000000D01*
X-25000000Y-20500000D02*
X-25000000Y-22000000D01*
X14500000Y-19500000D02*
X14500000Y-22000000D01*
X12500000Y0D02*
X12000000Y0D01*
X-18500000Y0D02*
X8000000Y0D01*
X-25000000Y-7500000D02*
X-25000000Y-9000000D01*
X14500000Y-6500000D02*
X14500000Y-9000000D01*
X8000000Y-13000000D02*
X-18500000Y-13000000D01*
X12000000Y-13000000D02*
X12500000Y-13000000D01*
X12000000Y-11000000D02*
X12500000Y-11000000D01*
X-18500000Y-11000000D02*
X8000000Y-11000000D01*
X14500000Y-22000000D02*
G75*
G02X12500000Y-24000000I-2000000J0D01*
G01*
X-25000000Y-15000000D02*
X-25000000Y-16500000D01*
X14500000Y-15500000D02*
X14500000Y-15000000D01*
X-23000000Y-24000000D02*
X-22500000Y-24000000D01*
X-23000000Y-24000000D02*
G75*
G02X-25000000Y-22000000I0J2000000D01*
G01*
D11*
X12500000Y-13000000D02*
G75*
G02X14500000Y-15000000I0J-2000000D01*
G01*
D10*
X-22500000Y-13000000D02*
X-23000000Y-13000000D01*
X-25000000Y-15000000D02*
G75*
G02X-23000000Y-13000000I2000000J0D01*
G01*
X14500000Y-9000000D02*
G75*
G02X12500000Y-11000000I-2000000J0D01*
G01*
D11*
X12500000Y0D02*
G75*
G02X14500000Y-2000000I0J-2000000D01*
G01*
D10*
X-23000000Y-11000000D02*
G75*
G02X-25000000Y-9000000I0J2000000D01*
G01*
X-25000000Y-2000000D02*
G75*
G02X-23000000Y0I2000000J0D01*
G01*
X14500000Y-2500000D02*
X14500000Y-2000000D01*
X-23000000Y-11000000D02*
X-22500000Y-11000000D01*
X-25000000Y-2000000D02*
X-25000000Y-3500000D01*
X-22500000Y0D02*
X-23000000Y0D01*
D11*
X17500000Y-24000000D02*
G75*
G02X18000000Y-24500000I0J-500000D01*
G01*
X21000000Y-24500000D02*
G75*
G02X21500000Y-24000000I500000J0D01*
G01*
X18000000Y-25500000D02*
X18000000Y-24500000D01*
X21000000Y-25500000D02*
X21000000Y-24500000D01*
X18000000Y-25500000D02*
G75*
G02X17500000Y-26000000I-500000J0D01*
G01*
X21500000Y-26000000D02*
G75*
G02X21000000Y-25500000I0J500000D01*
G01*
X-32000000Y-24000000D02*
G75*
G02X-31500000Y-24500000I0J-500000D01*
G01*
X-28500000Y-24500000D02*
G75*
G02X-28000000Y-24000000I500000J0D01*
G01*
X-31500000Y-25500000D02*
X-31500000Y-24500000D01*
X-28500000Y-25500000D02*
X-28500000Y-24500000D01*
X-31500000Y-25500000D02*
G75*
G02X-32000000Y-26000000I-500000J0D01*
G01*
X-28000000Y-26000000D02*
G75*
G02X-28500000Y-25500000I0J500000D01*
G01*
X17500000Y2000000D02*
G75*
G02X18000000Y1500000I0J-500000D01*
G01*
X21000000Y1500000D02*
G75*
G02X21500000Y2000000I500000J0D01*
G01*
X18000000Y500000D02*
X18000000Y1500000D01*
X21000000Y500000D02*
X21000000Y1500000D01*
X18000000Y500000D02*
G75*
G02X17500000Y0I-500000J0D01*
G01*
X21500000Y0D02*
G75*
G02X21000000Y500000I0J500000D01*
G01*
X-32000000Y2000000D02*
G75*
G02X-31500000Y1500000I0J-500000D01*
G01*
X-28500000Y1500000D02*
G75*
G02X-28000000Y2000000I500000J0D01*
G01*
X-31500000Y500000D02*
X-31500000Y1500000D01*
X-28500000Y500000D02*
X-28500000Y1500000D01*
X-31500000Y500000D02*
G75*
G02X-32000000Y0I-500000J0D01*
G01*
X-28000000Y0D02*
G75*
G02X-28500000Y500000I0J500000D01*
G01*
X16500000Y-2500000D02*
G75*
G02X16000000Y-3000000I-500000J0D01*
G01*
X16000000Y-6000000D02*
G75*
G02X16500000Y-6500000I0J-500000D01*
G01*
X15000000Y-3000000D02*
X16000000Y-3000000D01*
X15000000Y-6000000D02*
X16000000Y-6000000D01*
X15000000Y-3000000D02*
G75*
G02X14500000Y-2500000I0J500000D01*
G01*
X14500000Y-6500000D02*
G75*
G02X15000000Y-6000000I500000J0D01*
G01*
X16500000Y-15500000D02*
G75*
G02X16000000Y-16000000I-500000J0D01*
G01*
X16000000Y-19000000D02*
G75*
G02X16500000Y-19500000I0J-500000D01*
G01*
X15000000Y-16000000D02*
X16000000Y-16000000D01*
X15000000Y-19000000D02*
X16000000Y-19000000D01*
X15000000Y-16000000D02*
G75*
G02X14500000Y-15500000I0J500000D01*
G01*
X14500000Y-19500000D02*
G75*
G02X15000000Y-19000000I500000J0D01*
G01*
X-27000000Y-20500000D02*
G75*
G02X-26500000Y-20000000I500000J0D01*
G01*
X-26500000Y-17000000D02*
G75*
G02X-27000000Y-16500000I0J500000D01*
G01*
X-25500000Y-20000000D02*
X-26500000Y-20000000D01*
X-25500000Y-17000000D02*
X-26500000Y-17000000D01*
X-25500000Y-20000000D02*
G75*
G02X-25000000Y-20500000I0J-500000D01*
G01*
X-25000000Y-16500000D02*
G75*
G02X-25500000Y-17000000I-500000J0D01*
G01*
X-27000000Y-7500000D02*
G75*
G02X-26500000Y-7000000I500000J0D01*
G01*
X-26500000Y-4000000D02*
G75*
G02X-27000000Y-3500000I0J500000D01*
G01*
X-25500000Y-7000000D02*
X-26500000Y-7000000D01*
X-25500000Y-4000000D02*
X-26500000Y-4000000D01*
X-25500000Y-7000000D02*
G75*
G02X-25000000Y-7500000I0J-500000D01*
G01*
X-25000000Y-3500000D02*
G75*
G02X-25500000Y-4000000I-500000J0D01*
G01*
X8000000Y-24000000D02*
G75*
G02X8500000Y-24500000I0J-500000D01*
G01*
X11500000Y-24500000D02*
G75*
G02X12000000Y-24000000I500000J0D01*
G01*
X8500000Y-25500000D02*
X8500000Y-24500000D01*
X11500000Y-25500000D02*
X11500000Y-24500000D01*
X8500000Y-25500000D02*
G75*
G02X8000000Y-26000000I-500000J0D01*
G01*
X12000000Y-26000000D02*
G75*
G02X11500000Y-25500000I0J500000D01*
G01*
X-22500000Y-24000000D02*
G75*
G02X-22000000Y-24500000I0J-500000D01*
G01*
X-19000000Y-24500000D02*
G75*
G02X-18500000Y-24000000I500000J0D01*
G01*
X-22000000Y-25500000D02*
X-22000000Y-24500000D01*
X-19000000Y-25500000D02*
X-19000000Y-24500000D01*
X-22000000Y-25500000D02*
G75*
G02X-22500000Y-26000000I-500000J0D01*
G01*
X-18500000Y-26000000D02*
G75*
G02X-19000000Y-25500000I0J500000D01*
G01*
X8000000Y2000000D02*
G75*
G02X8500000Y1500000I0J-500000D01*
G01*
X11500000Y1500000D02*
G75*
G02X12000000Y2000000I500000J0D01*
G01*
X8500000Y500000D02*
X8500000Y1500000D01*
X11500000Y500000D02*
X11500000Y1500000D01*
X8500000Y500000D02*
G75*
G02X8000000Y0I-500000J0D01*
G01*
X12000000Y0D02*
G75*
G02X11500000Y500000I0J500000D01*
G01*
X-22500000Y2000000D02*
G75*
G02X-22000000Y1500000I0J-500000D01*
G01*
X-19000000Y1500000D02*
G75*
G02X-18500000Y2000000I500000J0D01*
G01*
X-22000000Y500000D02*
X-22000000Y1500000D01*
X-19000000Y500000D02*
X-19000000Y1500000D01*
X-22000000Y500000D02*
G75*
G02X-22500000Y0I-500000J0D01*
G01*
X-18500000Y0D02*
G75*
G02X-19000000Y500000I0J500000D01*
G01*
X8000000Y-11000000D02*
G75*
G02X8500000Y-11500000I0J-500000D01*
G01*
X11500000Y-11500000D02*
G75*
G02X12000000Y-11000000I500000J0D01*
G01*
X8500000Y-12500000D02*
X8500000Y-11500000D01*
X11500000Y-12500000D02*
X11500000Y-11500000D01*
X8500000Y-12500000D02*
G75*
G02X8000000Y-13000000I-500000J0D01*
G01*
X12000000Y-13000000D02*
G75*
G02X11500000Y-12500000I0J500000D01*
G01*
X-22500000Y-11000000D02*
G75*
G02X-22000000Y-11500000I0J-500000D01*
G01*
X-19000000Y-11500000D02*
G75*
G02X-18500000Y-11000000I500000J0D01*
G01*
X-22000000Y-12500000D02*
X-22000000Y-11500000D01*
X-19000000Y-12500000D02*
X-19000000Y-11500000D01*
X-22000000Y-12500000D02*
G75*
G02X-22500000Y-13000000I-500000J0D01*
G01*
X-18500000Y-13000000D02*
G75*
G02X-19000000Y-12500000I0J500000D01*
G01*
M02*
