G04 #@! TF.GenerationSoftware,KiCad,Pcbnew,(5.1.4)-1*
G04 #@! TF.CreationDate,2021-03-22T03:07:54-07:00*
G04 #@! TF.ProjectId,bsw,6273772e-6b69-4636-9164-5f7063625858,rev?*
G04 #@! TF.SameCoordinates,Original*
G04 #@! TF.FileFunction,Copper,L2,Bot*
G04 #@! TF.FilePolarity,Positive*
%FSLAX46Y46*%
G04 Gerber Fmt 4.6, Leading zero omitted, Abs format (unit mm)*
G04 Created by KiCad (PCBNEW (5.1.4)-1) date 2021-03-22 03:07:54*
%MOMM*%
%LPD*%
G04 APERTURE LIST*
%ADD10C,1.300000*%
%ADD11O,1.000000X2.100000*%
%ADD12O,1.000000X1.600000*%
%ADD13C,0.800000*%
%ADD14O,6.000000X7.200000*%
%ADD15C,0.400000*%
%ADD16C,0.200000*%
G04 APERTURE END LIST*
D10*
X21500000Y-31000000D03*
X-32000000Y-31000000D03*
X21500000Y7000000D03*
X-32000000Y7000000D03*
D11*
X4320000Y-19780000D03*
X-4320000Y-19780000D03*
D12*
X4320000Y-15600000D03*
X-4320000Y-15600000D03*
D13*
X12626346Y-16623654D03*
X11000000Y-15800000D03*
X9373654Y-16623654D03*
X8700000Y-18700000D03*
X9373654Y-20776346D03*
X11000000Y-21600000D03*
X12626346Y-20776346D03*
X13300000Y-18700000D03*
D14*
X11000000Y-18700000D03*
D13*
X-13373654Y-16623654D03*
X-15000000Y-15800000D03*
X-16626346Y-16623654D03*
X-17300000Y-18700000D03*
X-16626346Y-20776346D03*
X-15000000Y-21600000D03*
X-13373654Y-20776346D03*
X-12700000Y-18700000D03*
D14*
X-15000000Y-18700000D03*
D13*
X9373654Y-7776346D03*
X11000000Y-8600000D03*
X12626346Y-7776346D03*
X13300000Y-5700000D03*
X12626346Y-3623654D03*
X11000000Y-2800000D03*
X9373654Y-3623654D03*
X8700000Y-5700000D03*
D14*
X11000000Y-5700000D03*
D13*
X-16626346Y-7776346D03*
X-15000000Y-8600000D03*
X-13373654Y-7776346D03*
X-12700000Y-5700000D03*
X-13373654Y-3623654D03*
X-15000000Y-2800000D03*
X-16626346Y-3623654D03*
X-17300000Y-5700000D03*
D14*
X-15000000Y-5700000D03*
D11*
X4320000Y-6780000D03*
X-4320000Y-6780000D03*
D12*
X4320000Y-2600000D03*
X-4320000Y-2600000D03*
D13*
X-7500000Y-3600000D03*
X-8900000Y-10200000D03*
X-10500000Y-10200000D03*
X-4200000Y-8500000D03*
X4200000Y-8500000D03*
X-20500000Y-8000000D03*
X-20500000Y-900000D03*
X-7500000Y-16600000D03*
X-20500000Y-13900000D03*
X4200000Y-21500000D03*
X-4200000Y-21500000D03*
X-8900000Y-23200000D03*
X-10500000Y-23200000D03*
X-20500000Y-21000000D03*
X2600000Y-9000000D03*
X-2700000Y-9000000D03*
X2600000Y-22000000D03*
X-2700000Y-22000000D03*
X-1501944Y-9011278D03*
X500000Y-9600000D03*
X500000Y-22600000D03*
X-1501944Y-22011278D03*
D15*
X-4031370Y-8331370D02*
X-4200000Y-8500000D01*
X-4031370Y-8331370D02*
X-3894057Y-8200638D01*
X-3894057Y-8200638D02*
X-3750496Y-8076801D01*
X-3750496Y-8076801D02*
X-3601031Y-7960157D01*
X-3601031Y-7960157D02*
X-3446023Y-7850988D01*
X-3446023Y-7850988D02*
X-3285845Y-7749556D01*
X-3285845Y-7749556D02*
X-3120883Y-7656107D01*
X-3120883Y-7656107D02*
X-2951534Y-7570863D01*
X-2951534Y-7570863D02*
X-2778206Y-7494033D01*
X-2778206Y-7494033D02*
X-2601318Y-7425799D01*
X-2601318Y-7425799D02*
X-2421294Y-7366327D01*
X-2421294Y-7366327D02*
X-2238569Y-7315760D01*
X-2238569Y-7315760D02*
X-2053583Y-7274220D01*
X-2053583Y-7274220D02*
X-1866781Y-7241807D01*
X-1866781Y-7241807D02*
X-1678614Y-7218599D01*
X-1678614Y-7218599D02*
X-1489535Y-7204652D01*
X-1489535Y-7204652D02*
X-1300000Y-7200000D01*
X4031370Y-8331370D02*
X4200000Y-8500000D01*
X4031370Y-8331370D02*
X3894057Y-8200638D01*
X3894057Y-8200638D02*
X3750496Y-8076801D01*
X3750496Y-8076801D02*
X3601031Y-7960157D01*
X3601031Y-7960157D02*
X3446023Y-7850988D01*
X3446023Y-7850988D02*
X3285845Y-7749556D01*
X3285845Y-7749556D02*
X3120883Y-7656107D01*
X3120883Y-7656107D02*
X2951534Y-7570863D01*
X2951534Y-7570863D02*
X2778206Y-7494033D01*
X2778206Y-7494033D02*
X2601318Y-7425799D01*
X2601318Y-7425799D02*
X2421294Y-7366327D01*
X2421294Y-7366327D02*
X2238569Y-7315760D01*
X2238569Y-7315760D02*
X2053583Y-7274220D01*
X2053583Y-7274220D02*
X1866781Y-7241807D01*
X1866781Y-7241807D02*
X1678614Y-7218599D01*
X1678614Y-7218599D02*
X1489535Y-7204652D01*
X1489535Y-7204652D02*
X1300000Y-7200000D01*
X1300000Y-7200000D02*
X-1300000Y-7200000D01*
X-7865685Y-9065685D02*
X-8900000Y-10100000D01*
X-7865685Y-9065685D02*
X-7797028Y-9000319D01*
X-7797028Y-9000319D02*
X-7725248Y-8938400D01*
X-7725248Y-8938400D02*
X-7650515Y-8880078D01*
X-7650515Y-8880078D02*
X-7573011Y-8825494D01*
X-7573011Y-8825494D02*
X-7492922Y-8774778D01*
X-7492922Y-8774778D02*
X-7410441Y-8728053D01*
X-7410441Y-8728053D02*
X-7325767Y-8685431D01*
X-7325767Y-8685431D02*
X-7239103Y-8647016D01*
X-7239103Y-8647016D02*
X-7150659Y-8612899D01*
X-7150659Y-8612899D02*
X-7060647Y-8583163D01*
X-7060647Y-8583163D02*
X-6969284Y-8557880D01*
X-6969284Y-8557880D02*
X-6876791Y-8537110D01*
X-6876791Y-8537110D02*
X-6783390Y-8520903D01*
X-6783390Y-8520903D02*
X-6689307Y-8509299D01*
X-6689307Y-8509299D02*
X-6594767Y-8502326D01*
X-6594767Y-8502326D02*
X-6500000Y-8500000D01*
X-6500000Y-8500000D02*
X-4200000Y-8500000D01*
X-9934314Y-6034314D02*
X-7500000Y-3600000D01*
X-9934314Y-6034314D02*
X-9999680Y-6102970D01*
X-9999680Y-6102970D02*
X-10061598Y-6174750D01*
X-10061598Y-6174750D02*
X-10119920Y-6249483D01*
X-10119920Y-6249483D02*
X-10174504Y-6326987D01*
X-10174504Y-6326987D02*
X-10225220Y-6407076D01*
X-10225220Y-6407076D02*
X-10271945Y-6489557D01*
X-10271945Y-6489557D02*
X-10314567Y-6574232D01*
X-10314567Y-6574232D02*
X-10352982Y-6660896D01*
X-10352982Y-6660896D02*
X-10387099Y-6749340D01*
X-10387099Y-6749340D02*
X-10416835Y-6839352D01*
X-10416835Y-6839352D02*
X-10442118Y-6930714D01*
X-10442118Y-6930714D02*
X-10462888Y-7023208D01*
X-10462888Y-7023208D02*
X-10479095Y-7116608D01*
X-10479095Y-7116608D02*
X-10490699Y-7210692D01*
X-10490699Y-7210692D02*
X-10497673Y-7305232D01*
X-10497673Y-7305232D02*
X-10500000Y-7400000D01*
X-10500000Y-7400000D02*
X-10500000Y-10100000D01*
X-20500000Y-8000000D02*
X-20500000Y-900000D01*
X-10490699Y-20210692D02*
X-10497673Y-20305232D01*
X-10174504Y-19326987D02*
X-10225220Y-19407076D01*
X-10497673Y-20305232D02*
X-10500000Y-20400000D01*
X-10442118Y-19930714D02*
X-10462888Y-20023208D01*
X-6969284Y-21557880D02*
X-6876791Y-21537110D01*
X-7150659Y-21612899D02*
X-7060647Y-21583163D01*
X-7797028Y-22000319D02*
X-7725248Y-21938400D01*
X-10225220Y-19407076D02*
X-10271945Y-19489557D01*
X-7410441Y-21728053D02*
X-7325767Y-21685431D01*
X-9934314Y-19034314D02*
X-9999680Y-19102970D01*
X-7325767Y-21685431D02*
X-7239103Y-21647016D01*
X-7650515Y-21880078D02*
X-7573011Y-21825494D01*
X-10314567Y-19574232D02*
X-10352982Y-19660896D01*
X-7573011Y-21825494D02*
X-7492922Y-21774778D01*
X-10500000Y-20400000D02*
X-10500000Y-23100000D01*
X-10119920Y-19249483D02*
X-10174504Y-19326987D01*
X-10416835Y-19839352D02*
X-10442118Y-19930714D01*
X-7239103Y-21647016D02*
X-7150659Y-21612899D01*
X-7060647Y-21583163D02*
X-6969284Y-21557880D01*
X-7865685Y-22065685D02*
X-8900000Y-23100000D01*
X-9934314Y-19034314D02*
X-7500000Y-16600000D01*
X-6500000Y-21500000D02*
X-4200000Y-21500000D01*
X-10352982Y-19660896D02*
X-10387099Y-19749340D01*
X-10061598Y-19174750D02*
X-10119920Y-19249483D01*
X-6689307Y-21509299D02*
X-6594767Y-21502326D01*
X-20500000Y-21000000D02*
X-20500000Y-13900000D01*
X-7725248Y-21938400D02*
X-7650515Y-21880078D01*
X-10479095Y-20116608D02*
X-10490699Y-20210692D01*
X-6876791Y-21537110D02*
X-6783390Y-21520903D01*
X-6783390Y-21520903D02*
X-6689307Y-21509299D01*
X-10462888Y-20023208D02*
X-10479095Y-20116608D01*
X-7865685Y-22065685D02*
X-7797028Y-22000319D01*
X-7492922Y-21774778D02*
X-7410441Y-21728053D01*
X-6594767Y-21502326D02*
X-6500000Y-21500000D01*
X-10387099Y-19749340D02*
X-10416835Y-19839352D01*
X-9999680Y-19102970D02*
X-10061598Y-19174750D01*
X-10271945Y-19489557D02*
X-10314567Y-19574232D01*
X1489535Y-20204652D02*
X1300000Y-20200000D01*
X-3750496Y-21076801D02*
X-3601031Y-20960157D01*
X-1678614Y-20218599D02*
X-1489535Y-20204652D01*
X2601318Y-20425799D02*
X2421294Y-20366327D01*
X3285845Y-20749556D02*
X3120883Y-20656107D01*
X4031370Y-21331370D02*
X3894057Y-21200638D01*
X-2053583Y-20274220D02*
X-1866781Y-20241807D01*
X-2951534Y-20570863D02*
X-2778206Y-20494033D01*
X1866781Y-20241807D02*
X1678614Y-20218599D01*
X-2601318Y-20425799D02*
X-2421294Y-20366327D01*
X2238569Y-20315760D02*
X2053583Y-20274220D01*
X-2238569Y-20315760D02*
X-2053583Y-20274220D01*
X4031370Y-21331370D02*
X4200000Y-21500000D01*
X-4031370Y-21331370D02*
X-4200000Y-21500000D01*
X3750496Y-21076801D02*
X3601031Y-20960157D01*
X3446023Y-20850988D02*
X3285845Y-20749556D01*
X-3446023Y-20850988D02*
X-3285845Y-20749556D01*
X-3285845Y-20749556D02*
X-3120883Y-20656107D01*
X-3120883Y-20656107D02*
X-2951534Y-20570863D01*
X-2421294Y-20366327D02*
X-2238569Y-20315760D01*
X3120883Y-20656107D02*
X2951534Y-20570863D01*
X-3894057Y-21200638D02*
X-3750496Y-21076801D01*
X-1489535Y-20204652D02*
X-1300000Y-20200000D01*
X3894057Y-21200638D02*
X3750496Y-21076801D01*
X2951534Y-20570863D02*
X2778206Y-20494033D01*
X-4031370Y-21331370D02*
X-3894057Y-21200638D01*
X3601031Y-20960157D02*
X3446023Y-20850988D01*
X-3601031Y-20960157D02*
X-3446023Y-20850988D01*
X2778206Y-20494033D02*
X2601318Y-20425799D01*
X2421294Y-20366327D02*
X2238569Y-20315760D01*
X2053583Y-20274220D02*
X1866781Y-20241807D01*
X1678614Y-20218599D02*
X1489535Y-20204652D01*
X1300000Y-20200000D02*
X-1300000Y-20200000D01*
X-2778206Y-20494033D02*
X-2601318Y-20425799D01*
X-1866781Y-20241807D02*
X-1678614Y-20218599D01*
X4320000Y-6780000D02*
X4320000Y-2600000D01*
X-4320000Y-2600000D02*
X-4320000Y-6780000D01*
X-4320000Y-2600000D02*
X4320000Y-2600000D01*
X4320000Y-1800000D02*
X4320000Y-2600000D01*
X4320000Y-1800000D02*
X4323852Y-1721586D01*
X4323852Y-1721586D02*
X4335371Y-1643927D01*
X4335371Y-1643927D02*
X4354447Y-1567772D01*
X4354447Y-1567772D02*
X4380896Y-1493853D01*
X4380896Y-1493853D02*
X4414462Y-1422882D01*
X4414462Y-1422882D02*
X4454824Y-1355543D01*
X4454824Y-1355543D02*
X4501591Y-1292485D01*
X4501591Y-1292485D02*
X4554314Y-1234314D01*
X4554314Y-1234314D02*
X4612485Y-1181591D01*
X4612485Y-1181591D02*
X4675543Y-1134824D01*
X4675543Y-1134824D02*
X4742882Y-1094462D01*
X4742882Y-1094462D02*
X4813853Y-1060896D01*
X4813853Y-1060896D02*
X4887772Y-1034447D01*
X4887772Y-1034447D02*
X4963927Y-1015371D01*
X4963927Y-1015371D02*
X5041586Y-1003852D01*
X5041586Y-1003852D02*
X5120000Y-1000000D01*
X11000000Y-1800000D02*
X11000000Y-5500000D01*
X11000000Y-1800000D02*
X10996147Y-1721586D01*
X10996147Y-1721586D02*
X10984628Y-1643927D01*
X10984628Y-1643927D02*
X10965552Y-1567772D01*
X10965552Y-1567772D02*
X10939103Y-1493853D01*
X10939103Y-1493853D02*
X10905537Y-1422882D01*
X10905537Y-1422882D02*
X10865175Y-1355543D01*
X10865175Y-1355543D02*
X10818408Y-1292485D01*
X10818408Y-1292485D02*
X10765685Y-1234314D01*
X10765685Y-1234314D02*
X10707514Y-1181591D01*
X10707514Y-1181591D02*
X10644456Y-1134824D01*
X10644456Y-1134824D02*
X10577117Y-1094462D01*
X10577117Y-1094462D02*
X10506146Y-1060896D01*
X10506146Y-1060896D02*
X10432227Y-1034447D01*
X10432227Y-1034447D02*
X10356072Y-1015371D01*
X10356072Y-1015371D02*
X10278413Y-1003852D01*
X10278413Y-1003852D02*
X10200000Y-1000000D01*
X10200000Y-1000000D02*
X5120000Y-1000000D01*
X-4320000Y-15600000D02*
X4320000Y-15600000D01*
X4454824Y-14355543D02*
X4501591Y-14292485D01*
X4320000Y-19780000D02*
X4320000Y-15600000D01*
X4320000Y-14800000D02*
X4320000Y-15600000D01*
X-4320000Y-15600000D02*
X-4320000Y-19780000D01*
X4320000Y-14800000D02*
X4323852Y-14721586D01*
X4323852Y-14721586D02*
X4335371Y-14643927D01*
X4354447Y-14567772D02*
X4380896Y-14493853D01*
X4380896Y-14493853D02*
X4414462Y-14422882D01*
X4554314Y-14234314D02*
X4612485Y-14181591D01*
X4612485Y-14181591D02*
X4675543Y-14134824D01*
X4675543Y-14134824D02*
X4742882Y-14094462D01*
X4813853Y-14060896D02*
X4887772Y-14034447D01*
X4335371Y-14643927D02*
X4354447Y-14567772D01*
X4414462Y-14422882D02*
X4454824Y-14355543D01*
X4742882Y-14094462D02*
X4813853Y-14060896D01*
X4501591Y-14292485D02*
X4554314Y-14234314D01*
X4887772Y-14034447D02*
X4963927Y-14015371D01*
X4963927Y-14015371D02*
X5041586Y-14003852D01*
X5041586Y-14003852D02*
X5120000Y-14000000D01*
X11000000Y-14800000D02*
X11000000Y-18500000D01*
X10356072Y-14015371D02*
X10278413Y-14003852D01*
X11000000Y-14800000D02*
X10996147Y-14721586D01*
X10200000Y-14000000D02*
X5120000Y-14000000D01*
X10939103Y-14493853D02*
X10905537Y-14422882D01*
X10818408Y-14292485D02*
X10765685Y-14234314D01*
X10577117Y-14094462D02*
X10506146Y-14060896D01*
X10965552Y-14567772D02*
X10939103Y-14493853D01*
X10996147Y-14721586D02*
X10984628Y-14643927D01*
X10984628Y-14643927D02*
X10965552Y-14567772D01*
X10865175Y-14355543D02*
X10818408Y-14292485D01*
X10506146Y-14060896D02*
X10432227Y-14034447D01*
X10765685Y-14234314D02*
X10707514Y-14181591D01*
X10644456Y-14134824D02*
X10577117Y-14094462D01*
X10432227Y-14034447D02*
X10356072Y-14015371D01*
X10905537Y-14422882D02*
X10865175Y-14355543D01*
X10707514Y-14181591D02*
X10644456Y-14134824D01*
X10278413Y-14003852D02*
X10200000Y-14000000D01*
X-2265685Y-8565685D02*
X-2700000Y-9000000D01*
X-2265685Y-8565685D02*
X-2197028Y-8500319D01*
X-2197028Y-8500319D02*
X-2125248Y-8438400D01*
X-2125248Y-8438400D02*
X-2050515Y-8380078D01*
X-2050515Y-8380078D02*
X-1973011Y-8325494D01*
X-1973011Y-8325494D02*
X-1892922Y-8274778D01*
X-1892922Y-8274778D02*
X-1810441Y-8228053D01*
X-1810441Y-8228053D02*
X-1725767Y-8185431D01*
X-1725767Y-8185431D02*
X-1639103Y-8147016D01*
X-1639103Y-8147016D02*
X-1550659Y-8112899D01*
X-1550659Y-8112899D02*
X-1460647Y-8083163D01*
X-1460647Y-8083163D02*
X-1369284Y-8057880D01*
X-1369284Y-8057880D02*
X-1276791Y-8037110D01*
X-1276791Y-8037110D02*
X-1183390Y-8020903D01*
X-1183390Y-8020903D02*
X-1089307Y-8009299D01*
X-1089307Y-8009299D02*
X-994767Y-8002326D01*
X-994767Y-8002326D02*
X-900000Y-8000000D01*
X2165685Y-8565685D02*
X2600000Y-9000000D01*
X2165685Y-8565685D02*
X2097028Y-8500319D01*
X2097028Y-8500319D02*
X2025248Y-8438400D01*
X2025248Y-8438400D02*
X1950515Y-8380078D01*
X1950515Y-8380078D02*
X1873011Y-8325494D01*
X1873011Y-8325494D02*
X1792922Y-8274778D01*
X1792922Y-8274778D02*
X1710441Y-8228053D01*
X1710441Y-8228053D02*
X1625767Y-8185431D01*
X1625767Y-8185431D02*
X1539103Y-8147016D01*
X1539103Y-8147016D02*
X1450659Y-8112899D01*
X1450659Y-8112899D02*
X1360647Y-8083163D01*
X1360647Y-8083163D02*
X1269284Y-8057880D01*
X1269284Y-8057880D02*
X1176791Y-8037110D01*
X1176791Y-8037110D02*
X1083390Y-8020903D01*
X1083390Y-8020903D02*
X989307Y-8009299D01*
X989307Y-8009299D02*
X894767Y-8002326D01*
X894767Y-8002326D02*
X800000Y-8000000D01*
X800000Y-8000000D02*
X-900000Y-8000000D01*
X800000Y-21000000D02*
X-900000Y-21000000D01*
X1950515Y-21380078D02*
X1873011Y-21325494D01*
X1792922Y-21274778D02*
X1710441Y-21228053D01*
X-1639103Y-21147016D02*
X-1550659Y-21112899D01*
X2165685Y-21565685D02*
X2097028Y-21500319D01*
X-2197028Y-21500319D02*
X-2125248Y-21438400D01*
X-2125248Y-21438400D02*
X-2050515Y-21380078D01*
X-1183390Y-21020903D02*
X-1089307Y-21009299D01*
X2097028Y-21500319D02*
X2025248Y-21438400D01*
X1710441Y-21228053D02*
X1625767Y-21185431D01*
X1539103Y-21147016D02*
X1450659Y-21112899D01*
X-1973011Y-21325494D02*
X-1892922Y-21274778D01*
X-1892922Y-21274778D02*
X-1810441Y-21228053D01*
X-1369284Y-21057880D02*
X-1276791Y-21037110D01*
X-1276791Y-21037110D02*
X-1183390Y-21020903D01*
X-1810441Y-21228053D02*
X-1725767Y-21185431D01*
X-1725767Y-21185431D02*
X-1639103Y-21147016D01*
X-1550659Y-21112899D02*
X-1460647Y-21083163D01*
X-1460647Y-21083163D02*
X-1369284Y-21057880D01*
X-1089307Y-21009299D02*
X-994767Y-21002326D01*
X-2265685Y-21565685D02*
X-2197028Y-21500319D01*
X-994767Y-21002326D02*
X-900000Y-21000000D01*
X1873011Y-21325494D02*
X1792922Y-21274778D01*
X1450659Y-21112899D02*
X1360647Y-21083163D01*
X1360647Y-21083163D02*
X1269284Y-21057880D01*
X1269284Y-21057880D02*
X1176791Y-21037110D01*
X-2265685Y-21565685D02*
X-2700000Y-22000000D01*
X1625767Y-21185431D02*
X1539103Y-21147016D01*
X1176791Y-21037110D02*
X1083390Y-21020903D01*
X1083390Y-21020903D02*
X989307Y-21009299D01*
X2165685Y-21565685D02*
X2600000Y-22000000D01*
X989307Y-21009299D02*
X894767Y-21002326D01*
X-2050515Y-21380078D02*
X-1973011Y-21325494D01*
X2025248Y-21438400D02*
X1950515Y-21380078D01*
X894767Y-21002326D02*
X800000Y-21000000D01*
D16*
X-488722Y-9011278D02*
X-1501944Y-9011278D01*
X-488722Y-9011278D02*
X-441338Y-9012441D01*
X-441338Y-9012441D02*
X-394068Y-9015928D01*
X-394068Y-9015928D02*
X-347026Y-9021730D01*
X-347026Y-9021730D02*
X-300326Y-9029833D01*
X-300326Y-9029833D02*
X-254079Y-9040218D01*
X-254079Y-9040218D02*
X-208398Y-9052860D01*
X-208398Y-9052860D02*
X-163392Y-9067727D01*
X-163392Y-9067727D02*
X-119170Y-9084786D01*
X-119170Y-9084786D02*
X-75838Y-9103994D01*
X-75838Y-9103994D02*
X-33501Y-9125304D01*
X-33501Y-9125304D02*
X7738Y-9148667D01*
X7738Y-9148667D02*
X47783Y-9174025D01*
X47783Y-9174025D02*
X86535Y-9201317D01*
X86535Y-9201317D02*
X123901Y-9230478D01*
X123901Y-9230478D02*
X159791Y-9261437D01*
X159791Y-9261437D02*
X194120Y-9294120D01*
X194120Y-9294120D02*
X500000Y-9600000D01*
X47783Y-22174025D02*
X86535Y-22201317D01*
X86535Y-22201317D02*
X123901Y-22230478D01*
X-75838Y-22103994D02*
X-33501Y-22125304D01*
X123901Y-22230478D02*
X159791Y-22261437D01*
X194120Y-22294120D02*
X500000Y-22600000D01*
X-119170Y-22084786D02*
X-75838Y-22103994D01*
X159791Y-22261437D02*
X194120Y-22294120D01*
X-33501Y-22125304D02*
X7738Y-22148667D01*
X7738Y-22148667D02*
X47783Y-22174025D01*
X-441338Y-22012441D02*
X-394068Y-22015928D01*
X-394068Y-22015928D02*
X-347026Y-22021730D01*
X-347026Y-22021730D02*
X-300326Y-22029833D01*
X-300326Y-22029833D02*
X-254079Y-22040218D01*
X-254079Y-22040218D02*
X-208398Y-22052860D01*
X-208398Y-22052860D02*
X-163392Y-22067727D01*
X-163392Y-22067727D02*
X-119170Y-22084786D01*
X-488722Y-22011278D02*
X-1501944Y-22011278D01*
X-488722Y-22011278D02*
X-441338Y-22012441D01*
G36*
X8447787Y-350604D02*
G01*
X8524396Y-427213D01*
X8614477Y-487403D01*
X8714571Y-528864D01*
X8820830Y-550000D01*
X8929170Y-550000D01*
X9035429Y-528864D01*
X9135523Y-487403D01*
X9225604Y-427213D01*
X9250000Y-402817D01*
X9274396Y-427213D01*
X9364477Y-487403D01*
X9464571Y-528864D01*
X9570830Y-550000D01*
X9679170Y-550000D01*
X9785429Y-528864D01*
X9885523Y-487403D01*
X9975604Y-427213D01*
X10000000Y-402817D01*
X10024396Y-427213D01*
X10114477Y-487403D01*
X10214571Y-528864D01*
X10320830Y-550000D01*
X10429170Y-550000D01*
X10535429Y-528864D01*
X10635523Y-487403D01*
X10725604Y-427213D01*
X10750000Y-402817D01*
X10774396Y-427213D01*
X10864477Y-487403D01*
X10964571Y-528864D01*
X11070830Y-550000D01*
X11179170Y-550000D01*
X11285429Y-528864D01*
X11385523Y-487403D01*
X11475604Y-427213D01*
X11552213Y-350604D01*
X11552617Y-350000D01*
X11861961Y-350000D01*
X11926487Y-369574D01*
X11981581Y-375000D01*
X12518419Y-375000D01*
X12536869Y-373183D01*
X12785223Y-427210D01*
X13039181Y-521931D01*
X13277080Y-651834D01*
X13494065Y-814267D01*
X13685733Y-1005935D01*
X13848166Y-1222920D01*
X13978069Y-1460819D01*
X14072790Y-1714777D01*
X14126818Y-1963134D01*
X14125001Y-1981581D01*
X14125000Y-2518418D01*
X14130426Y-2573512D01*
X14150000Y-2638038D01*
X14150000Y-2947383D01*
X14149396Y-2947787D01*
X14072787Y-3024396D01*
X14012597Y-3114477D01*
X13971136Y-3214571D01*
X13962044Y-3260280D01*
X13854587Y-3072357D01*
X13404163Y-2554415D01*
X12861349Y-2134299D01*
X12247004Y-1828153D01*
X11646066Y-1660146D01*
X11100000Y-1726482D01*
X11100000Y-1902345D01*
X10935364Y-1897957D01*
X10900000Y-1904017D01*
X10900000Y-1726482D01*
X10353934Y-1660146D01*
X9752996Y-1828153D01*
X9138651Y-2134299D01*
X8595837Y-2554415D01*
X8145413Y-3072357D01*
X7804690Y-3668220D01*
X7586761Y-4319105D01*
X7500000Y-5000000D01*
X7500000Y-5600000D01*
X7802345Y-5600000D01*
X7797957Y-5764636D01*
X7804017Y-5800000D01*
X7500000Y-5800000D01*
X7500000Y-6400000D01*
X7586761Y-7080895D01*
X7804690Y-7731780D01*
X8145413Y-8327643D01*
X8595837Y-8845585D01*
X9138651Y-9265701D01*
X9752996Y-9571847D01*
X10353934Y-9739854D01*
X10900000Y-9673518D01*
X10900000Y-9497655D01*
X11064636Y-9502043D01*
X11100000Y-9495983D01*
X11100000Y-9673518D01*
X11646066Y-9739854D01*
X12247004Y-9571847D01*
X12861349Y-9265701D01*
X13404163Y-8845585D01*
X13854587Y-8327643D01*
X14125001Y-7854739D01*
X14125001Y-8981652D01*
X14113654Y-9097379D01*
X14072790Y-9285223D01*
X13978069Y-9539181D01*
X13848166Y-9777080D01*
X13685733Y-9994065D01*
X13494065Y-10185733D01*
X13277080Y-10348166D01*
X13039181Y-10478069D01*
X12785223Y-10572790D01*
X12593253Y-10614551D01*
X12493841Y-10625000D01*
X11981581Y-10625000D01*
X11926487Y-10630426D01*
X11861961Y-10650000D01*
X11552617Y-10650000D01*
X11552213Y-10649396D01*
X11475604Y-10572787D01*
X11385523Y-10512597D01*
X11285429Y-10471136D01*
X11179170Y-10450000D01*
X11070830Y-10450000D01*
X10964571Y-10471136D01*
X10864477Y-10512597D01*
X10774396Y-10572787D01*
X10750000Y-10597183D01*
X10725604Y-10572787D01*
X10635523Y-10512597D01*
X10535429Y-10471136D01*
X10429170Y-10450000D01*
X10320830Y-10450000D01*
X10214571Y-10471136D01*
X10114477Y-10512597D01*
X10024396Y-10572787D01*
X10000000Y-10597183D01*
X9975604Y-10572787D01*
X9885523Y-10512597D01*
X9785429Y-10471136D01*
X9679170Y-10450000D01*
X9570830Y-10450000D01*
X9464571Y-10471136D01*
X9364477Y-10512597D01*
X9274396Y-10572787D01*
X9250000Y-10597183D01*
X9225604Y-10572787D01*
X9135523Y-10512597D01*
X9035429Y-10471136D01*
X8929170Y-10450000D01*
X8820830Y-10450000D01*
X8714571Y-10471136D01*
X8614477Y-10512597D01*
X8524396Y-10572787D01*
X8447787Y-10649396D01*
X8447383Y-10650000D01*
X8138039Y-10650000D01*
X8073513Y-10630426D01*
X8018419Y-10625000D01*
X1909203Y-10625000D01*
X1732934Y-10571529D01*
X1555808Y-10476853D01*
X1400558Y-10349442D01*
X1273147Y-10194192D01*
X1178471Y-10017066D01*
X1138922Y-9886692D01*
X1173099Y-9804182D01*
X1200000Y-9668944D01*
X1200000Y-9531056D01*
X1173099Y-9395818D01*
X1120332Y-9268426D01*
X1043726Y-9153776D01*
X962671Y-9072721D01*
X898595Y-8952843D01*
X887704Y-8936544D01*
X747796Y-8766066D01*
X733934Y-8752204D01*
X563456Y-8612296D01*
X547157Y-8601405D01*
X357441Y-8500000D01*
X793892Y-8500000D01*
X870237Y-8501874D01*
X940288Y-8507041D01*
X1010008Y-8515641D01*
X1079225Y-8527651D01*
X1147760Y-8543042D01*
X1215474Y-8561781D01*
X1282168Y-8583814D01*
X1347698Y-8609092D01*
X1411918Y-8637558D01*
X1474683Y-8669152D01*
X1535790Y-8703769D01*
X1595144Y-8741355D01*
X1652584Y-8781808D01*
X1707951Y-8825017D01*
X1761154Y-8870911D01*
X1816485Y-8923590D01*
X1900000Y-9007105D01*
X1900000Y-9068944D01*
X1926901Y-9204182D01*
X1979668Y-9331574D01*
X2056274Y-9446224D01*
X2153776Y-9543726D01*
X2268426Y-9620332D01*
X2395818Y-9673099D01*
X2531056Y-9700000D01*
X2668944Y-9700000D01*
X2804182Y-9673099D01*
X2931574Y-9620332D01*
X3046224Y-9543726D01*
X3143726Y-9446224D01*
X3220332Y-9331574D01*
X3273099Y-9204182D01*
X3300000Y-9068944D01*
X3300000Y-8931056D01*
X3273099Y-8795818D01*
X3220332Y-8668426D01*
X3143726Y-8553776D01*
X3046224Y-8456274D01*
X2931574Y-8379668D01*
X2804182Y-8326901D01*
X2668944Y-8300000D01*
X2607105Y-8300000D01*
X2532264Y-8225158D01*
X2528240Y-8220494D01*
X2514870Y-8207765D01*
X2501871Y-8194766D01*
X2497128Y-8190874D01*
X2450680Y-8146652D01*
X2442214Y-8137760D01*
X2432910Y-8129734D01*
X2424008Y-8121259D01*
X2414323Y-8113701D01*
X2361123Y-8067810D01*
X2352224Y-8059337D01*
X2342542Y-8051781D01*
X2333240Y-8043757D01*
X2323193Y-8036681D01*
X2267800Y-7993452D01*
X2258497Y-7985427D01*
X2248453Y-7978353D01*
X2238768Y-7970795D01*
X2228387Y-7964221D01*
X2170936Y-7923760D01*
X2161259Y-7916208D01*
X2150890Y-7909642D01*
X2140833Y-7902559D01*
X2130131Y-7896497D01*
X2070789Y-7858918D01*
X2060740Y-7851841D01*
X2050046Y-7845783D01*
X2039671Y-7839213D01*
X2028703Y-7833692D01*
X1967569Y-7799060D01*
X1957186Y-7792485D01*
X1946206Y-7786958D01*
X1935521Y-7780905D01*
X1924297Y-7775930D01*
X1873753Y-7750487D01*
X1956018Y-7764762D01*
X2117046Y-7800922D01*
X2276120Y-7844944D01*
X2432833Y-7896716D01*
X2586807Y-7956111D01*
X2737694Y-8022994D01*
X2885123Y-8097204D01*
X3028715Y-8178548D01*
X3168143Y-8266839D01*
X3303089Y-8361879D01*
X3433199Y-8463418D01*
X3500000Y-8521041D01*
X3500000Y-8568944D01*
X3526901Y-8704182D01*
X3579668Y-8831574D01*
X3656274Y-8946224D01*
X3753776Y-9043726D01*
X3868426Y-9120332D01*
X3995818Y-9173099D01*
X4131056Y-9200000D01*
X4268944Y-9200000D01*
X4404182Y-9173099D01*
X4531574Y-9120332D01*
X4646224Y-9043726D01*
X4743726Y-8946224D01*
X4820332Y-8831574D01*
X4873099Y-8704182D01*
X4900000Y-8568944D01*
X4900000Y-8431056D01*
X4873099Y-8295818D01*
X4830075Y-8191949D01*
X4956396Y-8107817D01*
X5095912Y-7968717D01*
X5205611Y-7805071D01*
X5281276Y-7623169D01*
X5320000Y-7430000D01*
X5320000Y-6880000D01*
X4420000Y-6880000D01*
X4420000Y-6900000D01*
X4220000Y-6900000D01*
X4220000Y-6880000D01*
X3320000Y-6880000D01*
X3320000Y-7196565D01*
X3187307Y-7129773D01*
X3176605Y-7123710D01*
X3165363Y-7118727D01*
X3154403Y-7113210D01*
X3142950Y-7108792D01*
X2992038Y-7041898D01*
X2981069Y-7036377D01*
X2969608Y-7031956D01*
X2958371Y-7026975D01*
X2946705Y-7023121D01*
X2792722Y-6963723D01*
X2781479Y-6958739D01*
X2769802Y-6954882D01*
X2758353Y-6950465D01*
X2746524Y-6947192D01*
X2589778Y-6895410D01*
X2578321Y-6890990D01*
X2566484Y-6887714D01*
X2554814Y-6883859D01*
X2542824Y-6881167D01*
X2383744Y-6837143D01*
X2372083Y-6833291D01*
X2360103Y-6830601D01*
X2348255Y-6827322D01*
X2336145Y-6825221D01*
X2175102Y-6789057D01*
X2163261Y-6785780D01*
X2151157Y-6783680D01*
X2139170Y-6780988D01*
X2126976Y-6779484D01*
X1964352Y-6751267D01*
X1952361Y-6748574D01*
X1940160Y-6747069D01*
X1928062Y-6744970D01*
X1915817Y-6744067D01*
X1751988Y-6723860D01*
X1739889Y-6721761D01*
X1727643Y-6720858D01*
X1715443Y-6719353D01*
X1703154Y-6719051D01*
X1538550Y-6706910D01*
X1526355Y-6705406D01*
X1514072Y-6705104D01*
X1501823Y-6704201D01*
X1489544Y-6704502D01*
X1330678Y-6700603D01*
X1324560Y-6700000D01*
X1306129Y-6700000D01*
X1287716Y-6699548D01*
X1281590Y-6700000D01*
X-1281590Y-6700000D01*
X-1287716Y-6699548D01*
X-1306129Y-6700000D01*
X-1324560Y-6700000D01*
X-1330678Y-6700603D01*
X-1489527Y-6704502D01*
X-1501823Y-6704200D01*
X-1514090Y-6705105D01*
X-1526356Y-6705406D01*
X-1538535Y-6706908D01*
X-1703156Y-6719051D01*
X-1715444Y-6719353D01*
X-1727646Y-6720858D01*
X-1739888Y-6721761D01*
X-1751983Y-6723860D01*
X-1915815Y-6744066D01*
X-1928064Y-6744970D01*
X-1940166Y-6747070D01*
X-1952361Y-6748574D01*
X-1964350Y-6751266D01*
X-2126975Y-6779484D01*
X-2139171Y-6780988D01*
X-2151161Y-6783680D01*
X-2163261Y-6785780D01*
X-2175099Y-6789056D01*
X-2336138Y-6825219D01*
X-2348256Y-6827322D01*
X-2360111Y-6830603D01*
X-2372082Y-6833291D01*
X-2383733Y-6837140D01*
X-2542820Y-6881166D01*
X-2554815Y-6883859D01*
X-2566489Y-6887716D01*
X-2578321Y-6890990D01*
X-2589776Y-6895409D01*
X-2746504Y-6947186D01*
X-2758354Y-6950465D01*
X-2769826Y-6954890D01*
X-2781479Y-6958740D01*
X-2792699Y-6963714D01*
X-2946705Y-7023121D01*
X-2958371Y-7026975D01*
X-2969608Y-7031956D01*
X-2981069Y-7036377D01*
X-2992038Y-7041898D01*
X-3142944Y-7108789D01*
X-3154404Y-7113210D01*
X-3165371Y-7118730D01*
X-3176605Y-7123710D01*
X-3187299Y-7129768D01*
X-3320000Y-7196565D01*
X-3320000Y-6880000D01*
X-4220000Y-6880000D01*
X-4220000Y-6900000D01*
X-4352207Y-6900000D01*
X-4380409Y-6770358D01*
X-4400000Y-6496431D01*
X-4400000Y-5360733D01*
X-4220000Y-5360733D01*
X-4220000Y-6680000D01*
X-3343883Y-6680000D01*
X-3288414Y-6735469D01*
X-3186048Y-6803868D01*
X-3072306Y-6850981D01*
X-2951557Y-6875000D01*
X-2828443Y-6875000D01*
X-2707694Y-6850981D01*
X-2593952Y-6803868D01*
X-2491586Y-6735469D01*
X-2404531Y-6648414D01*
X-2336132Y-6546048D01*
X-2289019Y-6432306D01*
X-2265000Y-6311557D01*
X-2265000Y-6188443D01*
X2265000Y-6188443D01*
X2265000Y-6311557D01*
X2289019Y-6432306D01*
X2336132Y-6546048D01*
X2404531Y-6648414D01*
X2491586Y-6735469D01*
X2593952Y-6803868D01*
X2707694Y-6850981D01*
X2828443Y-6875000D01*
X2951557Y-6875000D01*
X3072306Y-6850981D01*
X3186048Y-6803868D01*
X3288414Y-6735469D01*
X3343883Y-6680000D01*
X4220000Y-6680000D01*
X4220000Y-5360733D01*
X4420000Y-5360733D01*
X4420000Y-6680000D01*
X5320000Y-6680000D01*
X5320000Y-6130000D01*
X5281276Y-5936831D01*
X5205611Y-5754929D01*
X5095912Y-5591283D01*
X4956396Y-5452183D01*
X4792423Y-5342974D01*
X4610295Y-5267853D01*
X4574419Y-5262906D01*
X4420000Y-5360733D01*
X4220000Y-5360733D01*
X4065581Y-5262906D01*
X4029705Y-5267853D01*
X3847577Y-5342974D01*
X3683604Y-5452183D01*
X3544088Y-5591283D01*
X3434389Y-5754929D01*
X3387003Y-5868848D01*
X3375469Y-5851586D01*
X3288414Y-5764531D01*
X3186048Y-5696132D01*
X3072306Y-5649019D01*
X2951557Y-5625000D01*
X2828443Y-5625000D01*
X2707694Y-5649019D01*
X2593952Y-5696132D01*
X2491586Y-5764531D01*
X2404531Y-5851586D01*
X2336132Y-5953952D01*
X2289019Y-6067694D01*
X2265000Y-6188443D01*
X-2265000Y-6188443D01*
X-2289019Y-6067694D01*
X-2336132Y-5953952D01*
X-2404531Y-5851586D01*
X-2491586Y-5764531D01*
X-2593952Y-5696132D01*
X-2707694Y-5649019D01*
X-2828443Y-5625000D01*
X-2951557Y-5625000D01*
X-3072306Y-5649019D01*
X-3186048Y-5696132D01*
X-3288414Y-5764531D01*
X-3375469Y-5851586D01*
X-3387003Y-5868848D01*
X-3434389Y-5754929D01*
X-3544088Y-5591283D01*
X-3683604Y-5452183D01*
X-3847577Y-5342974D01*
X-4029705Y-5267853D01*
X-4065581Y-5262906D01*
X-4220000Y-5360733D01*
X-4400000Y-5360733D01*
X-4400000Y-2700000D01*
X-4220000Y-2700000D01*
X-4220000Y-3769267D01*
X-4065581Y-3867094D01*
X-4029705Y-3862147D01*
X-3847577Y-3787026D01*
X-3683604Y-3677817D01*
X-3544088Y-3538717D01*
X-3434389Y-3375071D01*
X-3358724Y-3193169D01*
X-3320000Y-3000000D01*
X-3320000Y-2700000D01*
X3320000Y-2700000D01*
X3320000Y-3000000D01*
X3358724Y-3193169D01*
X3434389Y-3375071D01*
X3544088Y-3538717D01*
X3683604Y-3677817D01*
X3847577Y-3787026D01*
X4029705Y-3862147D01*
X4065581Y-3867094D01*
X4220000Y-3769267D01*
X4220000Y-2700000D01*
X4420000Y-2700000D01*
X4420000Y-3769267D01*
X4574419Y-3867094D01*
X4610295Y-3862147D01*
X4792423Y-3787026D01*
X4956396Y-3677817D01*
X5095912Y-3538717D01*
X5205611Y-3375071D01*
X5281276Y-3193169D01*
X5320000Y-3000000D01*
X5320000Y-2700000D01*
X4420000Y-2700000D01*
X4220000Y-2700000D01*
X3320000Y-2700000D01*
X-3320000Y-2700000D01*
X-4220000Y-2700000D01*
X-4400000Y-2700000D01*
X-4400000Y-2480000D01*
X-4220000Y-2480000D01*
X-4220000Y-2500000D01*
X-3320000Y-2500000D01*
X-3320000Y-2200000D01*
X3320000Y-2200000D01*
X3320000Y-2500000D01*
X4220000Y-2500000D01*
X4220000Y-1430733D01*
X4420000Y-1430733D01*
X4420000Y-2500000D01*
X5320000Y-2500000D01*
X5320000Y-2200000D01*
X5281276Y-2006831D01*
X5205611Y-1824929D01*
X5095912Y-1661283D01*
X4956396Y-1522183D01*
X4792423Y-1412974D01*
X4610295Y-1337853D01*
X4574419Y-1332906D01*
X4420000Y-1430733D01*
X4220000Y-1430733D01*
X4065581Y-1332906D01*
X4029705Y-1337853D01*
X3847577Y-1412974D01*
X3683604Y-1522183D01*
X3544088Y-1661283D01*
X3434389Y-1824929D01*
X3358724Y-2006831D01*
X3320000Y-2200000D01*
X-3320000Y-2200000D01*
X-3358724Y-2006831D01*
X-3434389Y-1824929D01*
X-3544088Y-1661283D01*
X-3683604Y-1522183D01*
X-3847577Y-1412974D01*
X-4029705Y-1337853D01*
X-4065581Y-1332906D01*
X-4207220Y-1422636D01*
X-4098166Y-1222920D01*
X-3935733Y-1005935D01*
X-3744065Y-814267D01*
X-3527080Y-651834D01*
X-3289181Y-521931D01*
X-3035223Y-427210D01*
X-2795222Y-375000D01*
X8018419Y-375000D01*
X8073513Y-369574D01*
X8138039Y-350000D01*
X8447383Y-350000D01*
X8447787Y-350604D01*
X8447787Y-350604D01*
G37*
X8447787Y-350604D02*
X8524396Y-427213D01*
X8614477Y-487403D01*
X8714571Y-528864D01*
X8820830Y-550000D01*
X8929170Y-550000D01*
X9035429Y-528864D01*
X9135523Y-487403D01*
X9225604Y-427213D01*
X9250000Y-402817D01*
X9274396Y-427213D01*
X9364477Y-487403D01*
X9464571Y-528864D01*
X9570830Y-550000D01*
X9679170Y-550000D01*
X9785429Y-528864D01*
X9885523Y-487403D01*
X9975604Y-427213D01*
X10000000Y-402817D01*
X10024396Y-427213D01*
X10114477Y-487403D01*
X10214571Y-528864D01*
X10320830Y-550000D01*
X10429170Y-550000D01*
X10535429Y-528864D01*
X10635523Y-487403D01*
X10725604Y-427213D01*
X10750000Y-402817D01*
X10774396Y-427213D01*
X10864477Y-487403D01*
X10964571Y-528864D01*
X11070830Y-550000D01*
X11179170Y-550000D01*
X11285429Y-528864D01*
X11385523Y-487403D01*
X11475604Y-427213D01*
X11552213Y-350604D01*
X11552617Y-350000D01*
X11861961Y-350000D01*
X11926487Y-369574D01*
X11981581Y-375000D01*
X12518419Y-375000D01*
X12536869Y-373183D01*
X12785223Y-427210D01*
X13039181Y-521931D01*
X13277080Y-651834D01*
X13494065Y-814267D01*
X13685733Y-1005935D01*
X13848166Y-1222920D01*
X13978069Y-1460819D01*
X14072790Y-1714777D01*
X14126818Y-1963134D01*
X14125001Y-1981581D01*
X14125000Y-2518418D01*
X14130426Y-2573512D01*
X14150000Y-2638038D01*
X14150000Y-2947383D01*
X14149396Y-2947787D01*
X14072787Y-3024396D01*
X14012597Y-3114477D01*
X13971136Y-3214571D01*
X13962044Y-3260280D01*
X13854587Y-3072357D01*
X13404163Y-2554415D01*
X12861349Y-2134299D01*
X12247004Y-1828153D01*
X11646066Y-1660146D01*
X11100000Y-1726482D01*
X11100000Y-1902345D01*
X10935364Y-1897957D01*
X10900000Y-1904017D01*
X10900000Y-1726482D01*
X10353934Y-1660146D01*
X9752996Y-1828153D01*
X9138651Y-2134299D01*
X8595837Y-2554415D01*
X8145413Y-3072357D01*
X7804690Y-3668220D01*
X7586761Y-4319105D01*
X7500000Y-5000000D01*
X7500000Y-5600000D01*
X7802345Y-5600000D01*
X7797957Y-5764636D01*
X7804017Y-5800000D01*
X7500000Y-5800000D01*
X7500000Y-6400000D01*
X7586761Y-7080895D01*
X7804690Y-7731780D01*
X8145413Y-8327643D01*
X8595837Y-8845585D01*
X9138651Y-9265701D01*
X9752996Y-9571847D01*
X10353934Y-9739854D01*
X10900000Y-9673518D01*
X10900000Y-9497655D01*
X11064636Y-9502043D01*
X11100000Y-9495983D01*
X11100000Y-9673518D01*
X11646066Y-9739854D01*
X12247004Y-9571847D01*
X12861349Y-9265701D01*
X13404163Y-8845585D01*
X13854587Y-8327643D01*
X14125001Y-7854739D01*
X14125001Y-8981652D01*
X14113654Y-9097379D01*
X14072790Y-9285223D01*
X13978069Y-9539181D01*
X13848166Y-9777080D01*
X13685733Y-9994065D01*
X13494065Y-10185733D01*
X13277080Y-10348166D01*
X13039181Y-10478069D01*
X12785223Y-10572790D01*
X12593253Y-10614551D01*
X12493841Y-10625000D01*
X11981581Y-10625000D01*
X11926487Y-10630426D01*
X11861961Y-10650000D01*
X11552617Y-10650000D01*
X11552213Y-10649396D01*
X11475604Y-10572787D01*
X11385523Y-10512597D01*
X11285429Y-10471136D01*
X11179170Y-10450000D01*
X11070830Y-10450000D01*
X10964571Y-10471136D01*
X10864477Y-10512597D01*
X10774396Y-10572787D01*
X10750000Y-10597183D01*
X10725604Y-10572787D01*
X10635523Y-10512597D01*
X10535429Y-10471136D01*
X10429170Y-10450000D01*
X10320830Y-10450000D01*
X10214571Y-10471136D01*
X10114477Y-10512597D01*
X10024396Y-10572787D01*
X10000000Y-10597183D01*
X9975604Y-10572787D01*
X9885523Y-10512597D01*
X9785429Y-10471136D01*
X9679170Y-10450000D01*
X9570830Y-10450000D01*
X9464571Y-10471136D01*
X9364477Y-10512597D01*
X9274396Y-10572787D01*
X9250000Y-10597183D01*
X9225604Y-10572787D01*
X9135523Y-10512597D01*
X9035429Y-10471136D01*
X8929170Y-10450000D01*
X8820830Y-10450000D01*
X8714571Y-10471136D01*
X8614477Y-10512597D01*
X8524396Y-10572787D01*
X8447787Y-10649396D01*
X8447383Y-10650000D01*
X8138039Y-10650000D01*
X8073513Y-10630426D01*
X8018419Y-10625000D01*
X1909203Y-10625000D01*
X1732934Y-10571529D01*
X1555808Y-10476853D01*
X1400558Y-10349442D01*
X1273147Y-10194192D01*
X1178471Y-10017066D01*
X1138922Y-9886692D01*
X1173099Y-9804182D01*
X1200000Y-9668944D01*
X1200000Y-9531056D01*
X1173099Y-9395818D01*
X1120332Y-9268426D01*
X1043726Y-9153776D01*
X962671Y-9072721D01*
X898595Y-8952843D01*
X887704Y-8936544D01*
X747796Y-8766066D01*
X733934Y-8752204D01*
X563456Y-8612296D01*
X547157Y-8601405D01*
X357441Y-8500000D01*
X793892Y-8500000D01*
X870237Y-8501874D01*
X940288Y-8507041D01*
X1010008Y-8515641D01*
X1079225Y-8527651D01*
X1147760Y-8543042D01*
X1215474Y-8561781D01*
X1282168Y-8583814D01*
X1347698Y-8609092D01*
X1411918Y-8637558D01*
X1474683Y-8669152D01*
X1535790Y-8703769D01*
X1595144Y-8741355D01*
X1652584Y-8781808D01*
X1707951Y-8825017D01*
X1761154Y-8870911D01*
X1816485Y-8923590D01*
X1900000Y-9007105D01*
X1900000Y-9068944D01*
X1926901Y-9204182D01*
X1979668Y-9331574D01*
X2056274Y-9446224D01*
X2153776Y-9543726D01*
X2268426Y-9620332D01*
X2395818Y-9673099D01*
X2531056Y-9700000D01*
X2668944Y-9700000D01*
X2804182Y-9673099D01*
X2931574Y-9620332D01*
X3046224Y-9543726D01*
X3143726Y-9446224D01*
X3220332Y-9331574D01*
X3273099Y-9204182D01*
X3300000Y-9068944D01*
X3300000Y-8931056D01*
X3273099Y-8795818D01*
X3220332Y-8668426D01*
X3143726Y-8553776D01*
X3046224Y-8456274D01*
X2931574Y-8379668D01*
X2804182Y-8326901D01*
X2668944Y-8300000D01*
X2607105Y-8300000D01*
X2532264Y-8225158D01*
X2528240Y-8220494D01*
X2514870Y-8207765D01*
X2501871Y-8194766D01*
X2497128Y-8190874D01*
X2450680Y-8146652D01*
X2442214Y-8137760D01*
X2432910Y-8129734D01*
X2424008Y-8121259D01*
X2414323Y-8113701D01*
X2361123Y-8067810D01*
X2352224Y-8059337D01*
X2342542Y-8051781D01*
X2333240Y-8043757D01*
X2323193Y-8036681D01*
X2267800Y-7993452D01*
X2258497Y-7985427D01*
X2248453Y-7978353D01*
X2238768Y-7970795D01*
X2228387Y-7964221D01*
X2170936Y-7923760D01*
X2161259Y-7916208D01*
X2150890Y-7909642D01*
X2140833Y-7902559D01*
X2130131Y-7896497D01*
X2070789Y-7858918D01*
X2060740Y-7851841D01*
X2050046Y-7845783D01*
X2039671Y-7839213D01*
X2028703Y-7833692D01*
X1967569Y-7799060D01*
X1957186Y-7792485D01*
X1946206Y-7786958D01*
X1935521Y-7780905D01*
X1924297Y-7775930D01*
X1873753Y-7750487D01*
X1956018Y-7764762D01*
X2117046Y-7800922D01*
X2276120Y-7844944D01*
X2432833Y-7896716D01*
X2586807Y-7956111D01*
X2737694Y-8022994D01*
X2885123Y-8097204D01*
X3028715Y-8178548D01*
X3168143Y-8266839D01*
X3303089Y-8361879D01*
X3433199Y-8463418D01*
X3500000Y-8521041D01*
X3500000Y-8568944D01*
X3526901Y-8704182D01*
X3579668Y-8831574D01*
X3656274Y-8946224D01*
X3753776Y-9043726D01*
X3868426Y-9120332D01*
X3995818Y-9173099D01*
X4131056Y-9200000D01*
X4268944Y-9200000D01*
X4404182Y-9173099D01*
X4531574Y-9120332D01*
X4646224Y-9043726D01*
X4743726Y-8946224D01*
X4820332Y-8831574D01*
X4873099Y-8704182D01*
X4900000Y-8568944D01*
X4900000Y-8431056D01*
X4873099Y-8295818D01*
X4830075Y-8191949D01*
X4956396Y-8107817D01*
X5095912Y-7968717D01*
X5205611Y-7805071D01*
X5281276Y-7623169D01*
X5320000Y-7430000D01*
X5320000Y-6880000D01*
X4420000Y-6880000D01*
X4420000Y-6900000D01*
X4220000Y-6900000D01*
X4220000Y-6880000D01*
X3320000Y-6880000D01*
X3320000Y-7196565D01*
X3187307Y-7129773D01*
X3176605Y-7123710D01*
X3165363Y-7118727D01*
X3154403Y-7113210D01*
X3142950Y-7108792D01*
X2992038Y-7041898D01*
X2981069Y-7036377D01*
X2969608Y-7031956D01*
X2958371Y-7026975D01*
X2946705Y-7023121D01*
X2792722Y-6963723D01*
X2781479Y-6958739D01*
X2769802Y-6954882D01*
X2758353Y-6950465D01*
X2746524Y-6947192D01*
X2589778Y-6895410D01*
X2578321Y-6890990D01*
X2566484Y-6887714D01*
X2554814Y-6883859D01*
X2542824Y-6881167D01*
X2383744Y-6837143D01*
X2372083Y-6833291D01*
X2360103Y-6830601D01*
X2348255Y-6827322D01*
X2336145Y-6825221D01*
X2175102Y-6789057D01*
X2163261Y-6785780D01*
X2151157Y-6783680D01*
X2139170Y-6780988D01*
X2126976Y-6779484D01*
X1964352Y-6751267D01*
X1952361Y-6748574D01*
X1940160Y-6747069D01*
X1928062Y-6744970D01*
X1915817Y-6744067D01*
X1751988Y-6723860D01*
X1739889Y-6721761D01*
X1727643Y-6720858D01*
X1715443Y-6719353D01*
X1703154Y-6719051D01*
X1538550Y-6706910D01*
X1526355Y-6705406D01*
X1514072Y-6705104D01*
X1501823Y-6704201D01*
X1489544Y-6704502D01*
X1330678Y-6700603D01*
X1324560Y-6700000D01*
X1306129Y-6700000D01*
X1287716Y-6699548D01*
X1281590Y-6700000D01*
X-1281590Y-6700000D01*
X-1287716Y-6699548D01*
X-1306129Y-6700000D01*
X-1324560Y-6700000D01*
X-1330678Y-6700603D01*
X-1489527Y-6704502D01*
X-1501823Y-6704200D01*
X-1514090Y-6705105D01*
X-1526356Y-6705406D01*
X-1538535Y-6706908D01*
X-1703156Y-6719051D01*
X-1715444Y-6719353D01*
X-1727646Y-6720858D01*
X-1739888Y-6721761D01*
X-1751983Y-6723860D01*
X-1915815Y-6744066D01*
X-1928064Y-6744970D01*
X-1940166Y-6747070D01*
X-1952361Y-6748574D01*
X-1964350Y-6751266D01*
X-2126975Y-6779484D01*
X-2139171Y-6780988D01*
X-2151161Y-6783680D01*
X-2163261Y-6785780D01*
X-2175099Y-6789056D01*
X-2336138Y-6825219D01*
X-2348256Y-6827322D01*
X-2360111Y-6830603D01*
X-2372082Y-6833291D01*
X-2383733Y-6837140D01*
X-2542820Y-6881166D01*
X-2554815Y-6883859D01*
X-2566489Y-6887716D01*
X-2578321Y-6890990D01*
X-2589776Y-6895409D01*
X-2746504Y-6947186D01*
X-2758354Y-6950465D01*
X-2769826Y-6954890D01*
X-2781479Y-6958740D01*
X-2792699Y-6963714D01*
X-2946705Y-7023121D01*
X-2958371Y-7026975D01*
X-2969608Y-7031956D01*
X-2981069Y-7036377D01*
X-2992038Y-7041898D01*
X-3142944Y-7108789D01*
X-3154404Y-7113210D01*
X-3165371Y-7118730D01*
X-3176605Y-7123710D01*
X-3187299Y-7129768D01*
X-3320000Y-7196565D01*
X-3320000Y-6880000D01*
X-4220000Y-6880000D01*
X-4220000Y-6900000D01*
X-4352207Y-6900000D01*
X-4380409Y-6770358D01*
X-4400000Y-6496431D01*
X-4400000Y-5360733D01*
X-4220000Y-5360733D01*
X-4220000Y-6680000D01*
X-3343883Y-6680000D01*
X-3288414Y-6735469D01*
X-3186048Y-6803868D01*
X-3072306Y-6850981D01*
X-2951557Y-6875000D01*
X-2828443Y-6875000D01*
X-2707694Y-6850981D01*
X-2593952Y-6803868D01*
X-2491586Y-6735469D01*
X-2404531Y-6648414D01*
X-2336132Y-6546048D01*
X-2289019Y-6432306D01*
X-2265000Y-6311557D01*
X-2265000Y-6188443D01*
X2265000Y-6188443D01*
X2265000Y-6311557D01*
X2289019Y-6432306D01*
X2336132Y-6546048D01*
X2404531Y-6648414D01*
X2491586Y-6735469D01*
X2593952Y-6803868D01*
X2707694Y-6850981D01*
X2828443Y-6875000D01*
X2951557Y-6875000D01*
X3072306Y-6850981D01*
X3186048Y-6803868D01*
X3288414Y-6735469D01*
X3343883Y-6680000D01*
X4220000Y-6680000D01*
X4220000Y-5360733D01*
X4420000Y-5360733D01*
X4420000Y-6680000D01*
X5320000Y-6680000D01*
X5320000Y-6130000D01*
X5281276Y-5936831D01*
X5205611Y-5754929D01*
X5095912Y-5591283D01*
X4956396Y-5452183D01*
X4792423Y-5342974D01*
X4610295Y-5267853D01*
X4574419Y-5262906D01*
X4420000Y-5360733D01*
X4220000Y-5360733D01*
X4065581Y-5262906D01*
X4029705Y-5267853D01*
X3847577Y-5342974D01*
X3683604Y-5452183D01*
X3544088Y-5591283D01*
X3434389Y-5754929D01*
X3387003Y-5868848D01*
X3375469Y-5851586D01*
X3288414Y-5764531D01*
X3186048Y-5696132D01*
X3072306Y-5649019D01*
X2951557Y-5625000D01*
X2828443Y-5625000D01*
X2707694Y-5649019D01*
X2593952Y-5696132D01*
X2491586Y-5764531D01*
X2404531Y-5851586D01*
X2336132Y-5953952D01*
X2289019Y-6067694D01*
X2265000Y-6188443D01*
X-2265000Y-6188443D01*
X-2289019Y-6067694D01*
X-2336132Y-5953952D01*
X-2404531Y-5851586D01*
X-2491586Y-5764531D01*
X-2593952Y-5696132D01*
X-2707694Y-5649019D01*
X-2828443Y-5625000D01*
X-2951557Y-5625000D01*
X-3072306Y-5649019D01*
X-3186048Y-5696132D01*
X-3288414Y-5764531D01*
X-3375469Y-5851586D01*
X-3387003Y-5868848D01*
X-3434389Y-5754929D01*
X-3544088Y-5591283D01*
X-3683604Y-5452183D01*
X-3847577Y-5342974D01*
X-4029705Y-5267853D01*
X-4065581Y-5262906D01*
X-4220000Y-5360733D01*
X-4400000Y-5360733D01*
X-4400000Y-2700000D01*
X-4220000Y-2700000D01*
X-4220000Y-3769267D01*
X-4065581Y-3867094D01*
X-4029705Y-3862147D01*
X-3847577Y-3787026D01*
X-3683604Y-3677817D01*
X-3544088Y-3538717D01*
X-3434389Y-3375071D01*
X-3358724Y-3193169D01*
X-3320000Y-3000000D01*
X-3320000Y-2700000D01*
X3320000Y-2700000D01*
X3320000Y-3000000D01*
X3358724Y-3193169D01*
X3434389Y-3375071D01*
X3544088Y-3538717D01*
X3683604Y-3677817D01*
X3847577Y-3787026D01*
X4029705Y-3862147D01*
X4065581Y-3867094D01*
X4220000Y-3769267D01*
X4220000Y-2700000D01*
X4420000Y-2700000D01*
X4420000Y-3769267D01*
X4574419Y-3867094D01*
X4610295Y-3862147D01*
X4792423Y-3787026D01*
X4956396Y-3677817D01*
X5095912Y-3538717D01*
X5205611Y-3375071D01*
X5281276Y-3193169D01*
X5320000Y-3000000D01*
X5320000Y-2700000D01*
X4420000Y-2700000D01*
X4220000Y-2700000D01*
X3320000Y-2700000D01*
X-3320000Y-2700000D01*
X-4220000Y-2700000D01*
X-4400000Y-2700000D01*
X-4400000Y-2480000D01*
X-4220000Y-2480000D01*
X-4220000Y-2500000D01*
X-3320000Y-2500000D01*
X-3320000Y-2200000D01*
X3320000Y-2200000D01*
X3320000Y-2500000D01*
X4220000Y-2500000D01*
X4220000Y-1430733D01*
X4420000Y-1430733D01*
X4420000Y-2500000D01*
X5320000Y-2500000D01*
X5320000Y-2200000D01*
X5281276Y-2006831D01*
X5205611Y-1824929D01*
X5095912Y-1661283D01*
X4956396Y-1522183D01*
X4792423Y-1412974D01*
X4610295Y-1337853D01*
X4574419Y-1332906D01*
X4420000Y-1430733D01*
X4220000Y-1430733D01*
X4065581Y-1332906D01*
X4029705Y-1337853D01*
X3847577Y-1412974D01*
X3683604Y-1522183D01*
X3544088Y-1661283D01*
X3434389Y-1824929D01*
X3358724Y-2006831D01*
X3320000Y-2200000D01*
X-3320000Y-2200000D01*
X-3358724Y-2006831D01*
X-3434389Y-1824929D01*
X-3544088Y-1661283D01*
X-3683604Y-1522183D01*
X-3847577Y-1412974D01*
X-4029705Y-1337853D01*
X-4065581Y-1332906D01*
X-4207220Y-1422636D01*
X-4098166Y-1222920D01*
X-3935733Y-1005935D01*
X-3744065Y-814267D01*
X-3527080Y-651834D01*
X-3289181Y-521931D01*
X-3035223Y-427210D01*
X-2795222Y-375000D01*
X8018419Y-375000D01*
X8073513Y-369574D01*
X8138039Y-350000D01*
X8447383Y-350000D01*
X8447787Y-350604D01*
G36*
X11100000Y-8530294D02*
G01*
X11100000Y-8669706D01*
X11014143Y-8755564D01*
X11000000Y-8741421D01*
X10985858Y-8755564D01*
X10900000Y-8669706D01*
X10900000Y-8530294D01*
X10985858Y-8444437D01*
X11000000Y-8458579D01*
X11014143Y-8444437D01*
X11100000Y-8530294D01*
X11100000Y-8530294D01*
G37*
X11100000Y-8530294D02*
X11100000Y-8669706D01*
X11014143Y-8755564D01*
X11000000Y-8741421D01*
X10985858Y-8755564D01*
X10900000Y-8669706D01*
X10900000Y-8530294D01*
X10985858Y-8444437D01*
X11000000Y-8458579D01*
X11014143Y-8444437D01*
X11100000Y-8530294D01*
G36*
X11100000Y-5600000D02*
G01*
X11120000Y-5600000D01*
X11120000Y-5800000D01*
X11100000Y-5800000D01*
X11100000Y-7702345D01*
X10935364Y-7697957D01*
X10900000Y-7704017D01*
X10900000Y-5800000D01*
X9597655Y-5800000D01*
X9602043Y-5635364D01*
X9595983Y-5600000D01*
X10900000Y-5600000D01*
X10900000Y-3697655D01*
X11064636Y-3702043D01*
X11100000Y-3695983D01*
X11100000Y-5600000D01*
X11100000Y-5600000D01*
G37*
X11100000Y-5600000D02*
X11120000Y-5600000D01*
X11120000Y-5800000D01*
X11100000Y-5800000D01*
X11100000Y-7702345D01*
X10935364Y-7697957D01*
X10900000Y-7704017D01*
X10900000Y-5800000D01*
X9597655Y-5800000D01*
X9602043Y-5635364D01*
X9595983Y-5600000D01*
X10900000Y-5600000D01*
X10900000Y-3697655D01*
X11064636Y-3702043D01*
X11100000Y-3695983D01*
X11100000Y-5600000D01*
G36*
X8855564Y-5685858D02*
G01*
X8841421Y-5700000D01*
X8855564Y-5714143D01*
X8769706Y-5800000D01*
X8630294Y-5800000D01*
X8544437Y-5714143D01*
X8558579Y-5700000D01*
X8544437Y-5685858D01*
X8630294Y-5600000D01*
X8769706Y-5600000D01*
X8855564Y-5685858D01*
X8855564Y-5685858D01*
G37*
X8855564Y-5685858D02*
X8841421Y-5700000D01*
X8855564Y-5714143D01*
X8769706Y-5800000D01*
X8630294Y-5800000D01*
X8544437Y-5714143D01*
X8558579Y-5700000D01*
X8544437Y-5685858D01*
X8630294Y-5600000D01*
X8769706Y-5600000D01*
X8855564Y-5685858D01*
G36*
X11100000Y-2730294D02*
G01*
X11100000Y-2869706D01*
X11014143Y-2955564D01*
X11000000Y-2941421D01*
X10985858Y-2955564D01*
X10900000Y-2869706D01*
X10900000Y-2730294D01*
X10985858Y-2644437D01*
X11000000Y-2658579D01*
X11014143Y-2644437D01*
X11100000Y-2730294D01*
X11100000Y-2730294D01*
G37*
X11100000Y-2730294D02*
X11100000Y-2869706D01*
X11014143Y-2955564D01*
X11000000Y-2941421D01*
X10985858Y-2955564D01*
X10900000Y-2869706D01*
X10900000Y-2730294D01*
X10985858Y-2644437D01*
X11000000Y-2658579D01*
X11014143Y-2644437D01*
X11100000Y-2730294D01*
G36*
X8447787Y-13350604D02*
G01*
X8524396Y-13427213D01*
X8614477Y-13487403D01*
X8714571Y-13528864D01*
X8820830Y-13550000D01*
X8929170Y-13550000D01*
X9035429Y-13528864D01*
X9135523Y-13487403D01*
X9225604Y-13427213D01*
X9250000Y-13402817D01*
X9274396Y-13427213D01*
X9364477Y-13487403D01*
X9464571Y-13528864D01*
X9570830Y-13550000D01*
X9679170Y-13550000D01*
X9785429Y-13528864D01*
X9885523Y-13487403D01*
X9975604Y-13427213D01*
X10000000Y-13402817D01*
X10024396Y-13427213D01*
X10114477Y-13487403D01*
X10214571Y-13528864D01*
X10320830Y-13550000D01*
X10429170Y-13550000D01*
X10535429Y-13528864D01*
X10635523Y-13487403D01*
X10725604Y-13427213D01*
X10750000Y-13402817D01*
X10774396Y-13427213D01*
X10864477Y-13487403D01*
X10964571Y-13528864D01*
X11070830Y-13550000D01*
X11179170Y-13550000D01*
X11285429Y-13528864D01*
X11385523Y-13487403D01*
X11475604Y-13427213D01*
X11552213Y-13350604D01*
X11552617Y-13350000D01*
X11861961Y-13350000D01*
X11926487Y-13369574D01*
X11981581Y-13375000D01*
X12518419Y-13375000D01*
X12536869Y-13373183D01*
X12785223Y-13427210D01*
X13039181Y-13521931D01*
X13277080Y-13651834D01*
X13494065Y-13814267D01*
X13685733Y-14005935D01*
X13848166Y-14222920D01*
X13978069Y-14460819D01*
X14072790Y-14714777D01*
X14126818Y-14963134D01*
X14125001Y-14981581D01*
X14125000Y-15518418D01*
X14130426Y-15573512D01*
X14150000Y-15638038D01*
X14150000Y-15947383D01*
X14149396Y-15947787D01*
X14072787Y-16024396D01*
X14012597Y-16114477D01*
X13971136Y-16214571D01*
X13962044Y-16260280D01*
X13854587Y-16072357D01*
X13404163Y-15554415D01*
X12861349Y-15134299D01*
X12247004Y-14828153D01*
X11646066Y-14660146D01*
X11100000Y-14726482D01*
X11100000Y-14902345D01*
X10935364Y-14897957D01*
X10900000Y-14904017D01*
X10900000Y-14726482D01*
X10353934Y-14660146D01*
X9752996Y-14828153D01*
X9138651Y-15134299D01*
X8595837Y-15554415D01*
X8145413Y-16072357D01*
X7804690Y-16668220D01*
X7586761Y-17319105D01*
X7500000Y-18000000D01*
X7500000Y-18600000D01*
X7802345Y-18600000D01*
X7797957Y-18764636D01*
X7804017Y-18800000D01*
X7500000Y-18800000D01*
X7500000Y-19400000D01*
X7586761Y-20080895D01*
X7804690Y-20731780D01*
X8145413Y-21327643D01*
X8595837Y-21845585D01*
X9138651Y-22265701D01*
X9752996Y-22571847D01*
X10353934Y-22739854D01*
X10900000Y-22673518D01*
X10900000Y-22497655D01*
X11064636Y-22502043D01*
X11100000Y-22495983D01*
X11100000Y-22673518D01*
X11646066Y-22739854D01*
X12247004Y-22571847D01*
X12861349Y-22265701D01*
X13404163Y-21845585D01*
X13854587Y-21327643D01*
X14125001Y-20854739D01*
X14125001Y-21981652D01*
X14113654Y-22097379D01*
X14072790Y-22285223D01*
X13978069Y-22539181D01*
X13848166Y-22777080D01*
X13685733Y-22994065D01*
X13494065Y-23185733D01*
X13277080Y-23348166D01*
X13039181Y-23478069D01*
X12785223Y-23572790D01*
X12593253Y-23614551D01*
X12493841Y-23625000D01*
X11981581Y-23625000D01*
X11926487Y-23630426D01*
X11861961Y-23650000D01*
X11552617Y-23650000D01*
X11552213Y-23649396D01*
X11475604Y-23572787D01*
X11385523Y-23512597D01*
X11285429Y-23471136D01*
X11179170Y-23450000D01*
X11070830Y-23450000D01*
X10964571Y-23471136D01*
X10864477Y-23512597D01*
X10774396Y-23572787D01*
X10750000Y-23597183D01*
X10725604Y-23572787D01*
X10635523Y-23512597D01*
X10535429Y-23471136D01*
X10429170Y-23450000D01*
X10320830Y-23450000D01*
X10214571Y-23471136D01*
X10114477Y-23512597D01*
X10024396Y-23572787D01*
X10000000Y-23597183D01*
X9975604Y-23572787D01*
X9885523Y-23512597D01*
X9785429Y-23471136D01*
X9679170Y-23450000D01*
X9570830Y-23450000D01*
X9464571Y-23471136D01*
X9364477Y-23512597D01*
X9274396Y-23572787D01*
X9250000Y-23597183D01*
X9225604Y-23572787D01*
X9135523Y-23512597D01*
X9035429Y-23471136D01*
X8929170Y-23450000D01*
X8820830Y-23450000D01*
X8714571Y-23471136D01*
X8614477Y-23512597D01*
X8524396Y-23572787D01*
X8447787Y-23649396D01*
X8447383Y-23650000D01*
X8138039Y-23650000D01*
X8073513Y-23630426D01*
X8018419Y-23625000D01*
X1909203Y-23625000D01*
X1732934Y-23571529D01*
X1555808Y-23476853D01*
X1400558Y-23349442D01*
X1273147Y-23194192D01*
X1178471Y-23017066D01*
X1138922Y-22886692D01*
X1173099Y-22804182D01*
X1200000Y-22668944D01*
X1200000Y-22531056D01*
X1173099Y-22395818D01*
X1120332Y-22268426D01*
X1043726Y-22153776D01*
X962671Y-22072721D01*
X898595Y-21952843D01*
X887704Y-21936544D01*
X747796Y-21766066D01*
X733934Y-21752204D01*
X563456Y-21612296D01*
X547157Y-21601405D01*
X357441Y-21500000D01*
X793892Y-21500000D01*
X870237Y-21501874D01*
X940288Y-21507041D01*
X1010008Y-21515641D01*
X1079225Y-21527651D01*
X1147760Y-21543042D01*
X1215474Y-21561781D01*
X1282168Y-21583814D01*
X1347698Y-21609092D01*
X1411918Y-21637558D01*
X1474683Y-21669152D01*
X1535790Y-21703769D01*
X1595144Y-21741355D01*
X1652584Y-21781808D01*
X1707951Y-21825017D01*
X1761154Y-21870911D01*
X1816485Y-21923590D01*
X1900000Y-22007105D01*
X1900000Y-22068944D01*
X1926901Y-22204182D01*
X1979668Y-22331574D01*
X2056274Y-22446224D01*
X2153776Y-22543726D01*
X2268426Y-22620332D01*
X2395818Y-22673099D01*
X2531056Y-22700000D01*
X2668944Y-22700000D01*
X2804182Y-22673099D01*
X2931574Y-22620332D01*
X3046224Y-22543726D01*
X3143726Y-22446224D01*
X3220332Y-22331574D01*
X3273099Y-22204182D01*
X3300000Y-22068944D01*
X3300000Y-21931056D01*
X3273099Y-21795818D01*
X3220332Y-21668426D01*
X3143726Y-21553776D01*
X3046224Y-21456274D01*
X2931574Y-21379668D01*
X2804182Y-21326901D01*
X2668944Y-21300000D01*
X2607105Y-21300000D01*
X2532264Y-21225158D01*
X2528240Y-21220494D01*
X2514870Y-21207765D01*
X2501871Y-21194766D01*
X2497128Y-21190874D01*
X2450680Y-21146652D01*
X2442214Y-21137760D01*
X2432910Y-21129734D01*
X2424008Y-21121259D01*
X2414323Y-21113701D01*
X2361123Y-21067810D01*
X2352224Y-21059337D01*
X2342542Y-21051781D01*
X2333240Y-21043757D01*
X2323193Y-21036681D01*
X2267800Y-20993452D01*
X2258497Y-20985427D01*
X2248453Y-20978353D01*
X2238768Y-20970795D01*
X2228387Y-20964221D01*
X2170936Y-20923760D01*
X2161259Y-20916208D01*
X2150890Y-20909642D01*
X2140833Y-20902559D01*
X2130131Y-20896497D01*
X2070789Y-20858918D01*
X2060740Y-20851841D01*
X2050046Y-20845783D01*
X2039671Y-20839213D01*
X2028703Y-20833692D01*
X1967569Y-20799060D01*
X1957186Y-20792485D01*
X1946206Y-20786958D01*
X1935521Y-20780905D01*
X1924297Y-20775930D01*
X1873753Y-20750487D01*
X1956018Y-20764762D01*
X2117046Y-20800922D01*
X2276120Y-20844944D01*
X2432833Y-20896716D01*
X2586807Y-20956111D01*
X2737694Y-21022994D01*
X2885123Y-21097204D01*
X3028715Y-21178548D01*
X3168143Y-21266839D01*
X3303089Y-21361879D01*
X3433199Y-21463418D01*
X3500000Y-21521041D01*
X3500000Y-21568944D01*
X3526901Y-21704182D01*
X3579668Y-21831574D01*
X3656274Y-21946224D01*
X3753776Y-22043726D01*
X3868426Y-22120332D01*
X3995818Y-22173099D01*
X4131056Y-22200000D01*
X4268944Y-22200000D01*
X4404182Y-22173099D01*
X4531574Y-22120332D01*
X4646224Y-22043726D01*
X4743726Y-21946224D01*
X4820332Y-21831574D01*
X4873099Y-21704182D01*
X4900000Y-21568944D01*
X4900000Y-21431056D01*
X4873099Y-21295818D01*
X4830075Y-21191949D01*
X4956396Y-21107817D01*
X5095912Y-20968717D01*
X5205611Y-20805071D01*
X5281276Y-20623169D01*
X5320000Y-20430000D01*
X5320000Y-19880000D01*
X4420000Y-19880000D01*
X4420000Y-19900000D01*
X4220000Y-19900000D01*
X4220000Y-19880000D01*
X3320000Y-19880000D01*
X3320000Y-20196565D01*
X3187307Y-20129773D01*
X3176605Y-20123710D01*
X3165363Y-20118727D01*
X3154403Y-20113210D01*
X3142950Y-20108792D01*
X2992038Y-20041898D01*
X2981069Y-20036377D01*
X2969608Y-20031956D01*
X2958371Y-20026975D01*
X2946705Y-20023121D01*
X2792722Y-19963723D01*
X2781479Y-19958739D01*
X2769802Y-19954882D01*
X2758353Y-19950465D01*
X2746524Y-19947192D01*
X2589778Y-19895410D01*
X2578321Y-19890990D01*
X2566484Y-19887714D01*
X2554814Y-19883859D01*
X2542824Y-19881167D01*
X2383744Y-19837143D01*
X2372083Y-19833291D01*
X2360103Y-19830601D01*
X2348255Y-19827322D01*
X2336145Y-19825221D01*
X2175102Y-19789057D01*
X2163261Y-19785780D01*
X2151157Y-19783680D01*
X2139170Y-19780988D01*
X2126976Y-19779484D01*
X1964352Y-19751267D01*
X1952361Y-19748574D01*
X1940160Y-19747069D01*
X1928062Y-19744970D01*
X1915817Y-19744067D01*
X1751988Y-19723860D01*
X1739889Y-19721761D01*
X1727643Y-19720858D01*
X1715443Y-19719353D01*
X1703154Y-19719051D01*
X1538550Y-19706910D01*
X1526355Y-19705406D01*
X1514072Y-19705104D01*
X1501823Y-19704201D01*
X1489544Y-19704502D01*
X1330678Y-19700603D01*
X1324560Y-19700000D01*
X1306129Y-19700000D01*
X1287716Y-19699548D01*
X1281590Y-19700000D01*
X-1281590Y-19700000D01*
X-1287716Y-19699548D01*
X-1306129Y-19700000D01*
X-1324560Y-19700000D01*
X-1330678Y-19700603D01*
X-1489527Y-19704502D01*
X-1501823Y-19704200D01*
X-1514090Y-19705105D01*
X-1526356Y-19705406D01*
X-1538535Y-19706908D01*
X-1703156Y-19719051D01*
X-1715444Y-19719353D01*
X-1727646Y-19720858D01*
X-1739888Y-19721761D01*
X-1751983Y-19723860D01*
X-1915815Y-19744066D01*
X-1928064Y-19744970D01*
X-1940166Y-19747070D01*
X-1952361Y-19748574D01*
X-1964350Y-19751266D01*
X-2126975Y-19779484D01*
X-2139171Y-19780988D01*
X-2151161Y-19783680D01*
X-2163261Y-19785780D01*
X-2175099Y-19789056D01*
X-2336138Y-19825219D01*
X-2348256Y-19827322D01*
X-2360111Y-19830603D01*
X-2372082Y-19833291D01*
X-2383733Y-19837140D01*
X-2542820Y-19881166D01*
X-2554815Y-19883859D01*
X-2566489Y-19887716D01*
X-2578321Y-19890990D01*
X-2589776Y-19895409D01*
X-2746504Y-19947186D01*
X-2758354Y-19950465D01*
X-2769826Y-19954890D01*
X-2781479Y-19958740D01*
X-2792699Y-19963714D01*
X-2946705Y-20023121D01*
X-2958371Y-20026975D01*
X-2969608Y-20031956D01*
X-2981069Y-20036377D01*
X-2992038Y-20041898D01*
X-3142944Y-20108789D01*
X-3154404Y-20113210D01*
X-3165371Y-20118730D01*
X-3176605Y-20123710D01*
X-3187299Y-20129768D01*
X-3320000Y-20196565D01*
X-3320000Y-19880000D01*
X-4220000Y-19880000D01*
X-4220000Y-19900000D01*
X-4352207Y-19900000D01*
X-4380409Y-19770358D01*
X-4400000Y-19496431D01*
X-4400000Y-18360733D01*
X-4220000Y-18360733D01*
X-4220000Y-19680000D01*
X-3343883Y-19680000D01*
X-3288414Y-19735469D01*
X-3186048Y-19803868D01*
X-3072306Y-19850981D01*
X-2951557Y-19875000D01*
X-2828443Y-19875000D01*
X-2707694Y-19850981D01*
X-2593952Y-19803868D01*
X-2491586Y-19735469D01*
X-2404531Y-19648414D01*
X-2336132Y-19546048D01*
X-2289019Y-19432306D01*
X-2265000Y-19311557D01*
X-2265000Y-19188443D01*
X2265000Y-19188443D01*
X2265000Y-19311557D01*
X2289019Y-19432306D01*
X2336132Y-19546048D01*
X2404531Y-19648414D01*
X2491586Y-19735469D01*
X2593952Y-19803868D01*
X2707694Y-19850981D01*
X2828443Y-19875000D01*
X2951557Y-19875000D01*
X3072306Y-19850981D01*
X3186048Y-19803868D01*
X3288414Y-19735469D01*
X3343883Y-19680000D01*
X4220000Y-19680000D01*
X4220000Y-18360733D01*
X4420000Y-18360733D01*
X4420000Y-19680000D01*
X5320000Y-19680000D01*
X5320000Y-19130000D01*
X5281276Y-18936831D01*
X5205611Y-18754929D01*
X5095912Y-18591283D01*
X4956396Y-18452183D01*
X4792423Y-18342974D01*
X4610295Y-18267853D01*
X4574419Y-18262906D01*
X4420000Y-18360733D01*
X4220000Y-18360733D01*
X4065581Y-18262906D01*
X4029705Y-18267853D01*
X3847577Y-18342974D01*
X3683604Y-18452183D01*
X3544088Y-18591283D01*
X3434389Y-18754929D01*
X3387003Y-18868848D01*
X3375469Y-18851586D01*
X3288414Y-18764531D01*
X3186048Y-18696132D01*
X3072306Y-18649019D01*
X2951557Y-18625000D01*
X2828443Y-18625000D01*
X2707694Y-18649019D01*
X2593952Y-18696132D01*
X2491586Y-18764531D01*
X2404531Y-18851586D01*
X2336132Y-18953952D01*
X2289019Y-19067694D01*
X2265000Y-19188443D01*
X-2265000Y-19188443D01*
X-2289019Y-19067694D01*
X-2336132Y-18953952D01*
X-2404531Y-18851586D01*
X-2491586Y-18764531D01*
X-2593952Y-18696132D01*
X-2707694Y-18649019D01*
X-2828443Y-18625000D01*
X-2951557Y-18625000D01*
X-3072306Y-18649019D01*
X-3186048Y-18696132D01*
X-3288414Y-18764531D01*
X-3375469Y-18851586D01*
X-3387003Y-18868848D01*
X-3434389Y-18754929D01*
X-3544088Y-18591283D01*
X-3683604Y-18452183D01*
X-3847577Y-18342974D01*
X-4029705Y-18267853D01*
X-4065581Y-18262906D01*
X-4220000Y-18360733D01*
X-4400000Y-18360733D01*
X-4400000Y-15700000D01*
X-4220000Y-15700000D01*
X-4220000Y-16769267D01*
X-4065581Y-16867094D01*
X-4029705Y-16862147D01*
X-3847577Y-16787026D01*
X-3683604Y-16677817D01*
X-3544088Y-16538717D01*
X-3434389Y-16375071D01*
X-3358724Y-16193169D01*
X-3320000Y-16000000D01*
X-3320000Y-15700000D01*
X3320000Y-15700000D01*
X3320000Y-16000000D01*
X3358724Y-16193169D01*
X3434389Y-16375071D01*
X3544088Y-16538717D01*
X3683604Y-16677817D01*
X3847577Y-16787026D01*
X4029705Y-16862147D01*
X4065581Y-16867094D01*
X4220000Y-16769267D01*
X4220000Y-15700000D01*
X4420000Y-15700000D01*
X4420000Y-16769267D01*
X4574419Y-16867094D01*
X4610295Y-16862147D01*
X4792423Y-16787026D01*
X4956396Y-16677817D01*
X5095912Y-16538717D01*
X5205611Y-16375071D01*
X5281276Y-16193169D01*
X5320000Y-16000000D01*
X5320000Y-15700000D01*
X4420000Y-15700000D01*
X4220000Y-15700000D01*
X3320000Y-15700000D01*
X-3320000Y-15700000D01*
X-4220000Y-15700000D01*
X-4400000Y-15700000D01*
X-4400000Y-15480000D01*
X-4220000Y-15480000D01*
X-4220000Y-15500000D01*
X-3320000Y-15500000D01*
X-3320000Y-15200000D01*
X3320000Y-15200000D01*
X3320000Y-15500000D01*
X4220000Y-15500000D01*
X4220000Y-14430733D01*
X4420000Y-14430733D01*
X4420000Y-15500000D01*
X5320000Y-15500000D01*
X5320000Y-15200000D01*
X5281276Y-15006831D01*
X5205611Y-14824929D01*
X5095912Y-14661283D01*
X4956396Y-14522183D01*
X4792423Y-14412974D01*
X4610295Y-14337853D01*
X4574419Y-14332906D01*
X4420000Y-14430733D01*
X4220000Y-14430733D01*
X4065581Y-14332906D01*
X4029705Y-14337853D01*
X3847577Y-14412974D01*
X3683604Y-14522183D01*
X3544088Y-14661283D01*
X3434389Y-14824929D01*
X3358724Y-15006831D01*
X3320000Y-15200000D01*
X-3320000Y-15200000D01*
X-3358724Y-15006831D01*
X-3434389Y-14824929D01*
X-3544088Y-14661283D01*
X-3683604Y-14522183D01*
X-3847577Y-14412974D01*
X-4029705Y-14337853D01*
X-4065581Y-14332906D01*
X-4207220Y-14422636D01*
X-4098166Y-14222920D01*
X-3935733Y-14005935D01*
X-3744065Y-13814267D01*
X-3527080Y-13651834D01*
X-3289181Y-13521931D01*
X-3035223Y-13427210D01*
X-2795222Y-13375000D01*
X8018419Y-13375000D01*
X8073513Y-13369574D01*
X8138039Y-13350000D01*
X8447383Y-13350000D01*
X8447787Y-13350604D01*
X8447787Y-13350604D01*
G37*
X8447787Y-13350604D02*
X8524396Y-13427213D01*
X8614477Y-13487403D01*
X8714571Y-13528864D01*
X8820830Y-13550000D01*
X8929170Y-13550000D01*
X9035429Y-13528864D01*
X9135523Y-13487403D01*
X9225604Y-13427213D01*
X9250000Y-13402817D01*
X9274396Y-13427213D01*
X9364477Y-13487403D01*
X9464571Y-13528864D01*
X9570830Y-13550000D01*
X9679170Y-13550000D01*
X9785429Y-13528864D01*
X9885523Y-13487403D01*
X9975604Y-13427213D01*
X10000000Y-13402817D01*
X10024396Y-13427213D01*
X10114477Y-13487403D01*
X10214571Y-13528864D01*
X10320830Y-13550000D01*
X10429170Y-13550000D01*
X10535429Y-13528864D01*
X10635523Y-13487403D01*
X10725604Y-13427213D01*
X10750000Y-13402817D01*
X10774396Y-13427213D01*
X10864477Y-13487403D01*
X10964571Y-13528864D01*
X11070830Y-13550000D01*
X11179170Y-13550000D01*
X11285429Y-13528864D01*
X11385523Y-13487403D01*
X11475604Y-13427213D01*
X11552213Y-13350604D01*
X11552617Y-13350000D01*
X11861961Y-13350000D01*
X11926487Y-13369574D01*
X11981581Y-13375000D01*
X12518419Y-13375000D01*
X12536869Y-13373183D01*
X12785223Y-13427210D01*
X13039181Y-13521931D01*
X13277080Y-13651834D01*
X13494065Y-13814267D01*
X13685733Y-14005935D01*
X13848166Y-14222920D01*
X13978069Y-14460819D01*
X14072790Y-14714777D01*
X14126818Y-14963134D01*
X14125001Y-14981581D01*
X14125000Y-15518418D01*
X14130426Y-15573512D01*
X14150000Y-15638038D01*
X14150000Y-15947383D01*
X14149396Y-15947787D01*
X14072787Y-16024396D01*
X14012597Y-16114477D01*
X13971136Y-16214571D01*
X13962044Y-16260280D01*
X13854587Y-16072357D01*
X13404163Y-15554415D01*
X12861349Y-15134299D01*
X12247004Y-14828153D01*
X11646066Y-14660146D01*
X11100000Y-14726482D01*
X11100000Y-14902345D01*
X10935364Y-14897957D01*
X10900000Y-14904017D01*
X10900000Y-14726482D01*
X10353934Y-14660146D01*
X9752996Y-14828153D01*
X9138651Y-15134299D01*
X8595837Y-15554415D01*
X8145413Y-16072357D01*
X7804690Y-16668220D01*
X7586761Y-17319105D01*
X7500000Y-18000000D01*
X7500000Y-18600000D01*
X7802345Y-18600000D01*
X7797957Y-18764636D01*
X7804017Y-18800000D01*
X7500000Y-18800000D01*
X7500000Y-19400000D01*
X7586761Y-20080895D01*
X7804690Y-20731780D01*
X8145413Y-21327643D01*
X8595837Y-21845585D01*
X9138651Y-22265701D01*
X9752996Y-22571847D01*
X10353934Y-22739854D01*
X10900000Y-22673518D01*
X10900000Y-22497655D01*
X11064636Y-22502043D01*
X11100000Y-22495983D01*
X11100000Y-22673518D01*
X11646066Y-22739854D01*
X12247004Y-22571847D01*
X12861349Y-22265701D01*
X13404163Y-21845585D01*
X13854587Y-21327643D01*
X14125001Y-20854739D01*
X14125001Y-21981652D01*
X14113654Y-22097379D01*
X14072790Y-22285223D01*
X13978069Y-22539181D01*
X13848166Y-22777080D01*
X13685733Y-22994065D01*
X13494065Y-23185733D01*
X13277080Y-23348166D01*
X13039181Y-23478069D01*
X12785223Y-23572790D01*
X12593253Y-23614551D01*
X12493841Y-23625000D01*
X11981581Y-23625000D01*
X11926487Y-23630426D01*
X11861961Y-23650000D01*
X11552617Y-23650000D01*
X11552213Y-23649396D01*
X11475604Y-23572787D01*
X11385523Y-23512597D01*
X11285429Y-23471136D01*
X11179170Y-23450000D01*
X11070830Y-23450000D01*
X10964571Y-23471136D01*
X10864477Y-23512597D01*
X10774396Y-23572787D01*
X10750000Y-23597183D01*
X10725604Y-23572787D01*
X10635523Y-23512597D01*
X10535429Y-23471136D01*
X10429170Y-23450000D01*
X10320830Y-23450000D01*
X10214571Y-23471136D01*
X10114477Y-23512597D01*
X10024396Y-23572787D01*
X10000000Y-23597183D01*
X9975604Y-23572787D01*
X9885523Y-23512597D01*
X9785429Y-23471136D01*
X9679170Y-23450000D01*
X9570830Y-23450000D01*
X9464571Y-23471136D01*
X9364477Y-23512597D01*
X9274396Y-23572787D01*
X9250000Y-23597183D01*
X9225604Y-23572787D01*
X9135523Y-23512597D01*
X9035429Y-23471136D01*
X8929170Y-23450000D01*
X8820830Y-23450000D01*
X8714571Y-23471136D01*
X8614477Y-23512597D01*
X8524396Y-23572787D01*
X8447787Y-23649396D01*
X8447383Y-23650000D01*
X8138039Y-23650000D01*
X8073513Y-23630426D01*
X8018419Y-23625000D01*
X1909203Y-23625000D01*
X1732934Y-23571529D01*
X1555808Y-23476853D01*
X1400558Y-23349442D01*
X1273147Y-23194192D01*
X1178471Y-23017066D01*
X1138922Y-22886692D01*
X1173099Y-22804182D01*
X1200000Y-22668944D01*
X1200000Y-22531056D01*
X1173099Y-22395818D01*
X1120332Y-22268426D01*
X1043726Y-22153776D01*
X962671Y-22072721D01*
X898595Y-21952843D01*
X887704Y-21936544D01*
X747796Y-21766066D01*
X733934Y-21752204D01*
X563456Y-21612296D01*
X547157Y-21601405D01*
X357441Y-21500000D01*
X793892Y-21500000D01*
X870237Y-21501874D01*
X940288Y-21507041D01*
X1010008Y-21515641D01*
X1079225Y-21527651D01*
X1147760Y-21543042D01*
X1215474Y-21561781D01*
X1282168Y-21583814D01*
X1347698Y-21609092D01*
X1411918Y-21637558D01*
X1474683Y-21669152D01*
X1535790Y-21703769D01*
X1595144Y-21741355D01*
X1652584Y-21781808D01*
X1707951Y-21825017D01*
X1761154Y-21870911D01*
X1816485Y-21923590D01*
X1900000Y-22007105D01*
X1900000Y-22068944D01*
X1926901Y-22204182D01*
X1979668Y-22331574D01*
X2056274Y-22446224D01*
X2153776Y-22543726D01*
X2268426Y-22620332D01*
X2395818Y-22673099D01*
X2531056Y-22700000D01*
X2668944Y-22700000D01*
X2804182Y-22673099D01*
X2931574Y-22620332D01*
X3046224Y-22543726D01*
X3143726Y-22446224D01*
X3220332Y-22331574D01*
X3273099Y-22204182D01*
X3300000Y-22068944D01*
X3300000Y-21931056D01*
X3273099Y-21795818D01*
X3220332Y-21668426D01*
X3143726Y-21553776D01*
X3046224Y-21456274D01*
X2931574Y-21379668D01*
X2804182Y-21326901D01*
X2668944Y-21300000D01*
X2607105Y-21300000D01*
X2532264Y-21225158D01*
X2528240Y-21220494D01*
X2514870Y-21207765D01*
X2501871Y-21194766D01*
X2497128Y-21190874D01*
X2450680Y-21146652D01*
X2442214Y-21137760D01*
X2432910Y-21129734D01*
X2424008Y-21121259D01*
X2414323Y-21113701D01*
X2361123Y-21067810D01*
X2352224Y-21059337D01*
X2342542Y-21051781D01*
X2333240Y-21043757D01*
X2323193Y-21036681D01*
X2267800Y-20993452D01*
X2258497Y-20985427D01*
X2248453Y-20978353D01*
X2238768Y-20970795D01*
X2228387Y-20964221D01*
X2170936Y-20923760D01*
X2161259Y-20916208D01*
X2150890Y-20909642D01*
X2140833Y-20902559D01*
X2130131Y-20896497D01*
X2070789Y-20858918D01*
X2060740Y-20851841D01*
X2050046Y-20845783D01*
X2039671Y-20839213D01*
X2028703Y-20833692D01*
X1967569Y-20799060D01*
X1957186Y-20792485D01*
X1946206Y-20786958D01*
X1935521Y-20780905D01*
X1924297Y-20775930D01*
X1873753Y-20750487D01*
X1956018Y-20764762D01*
X2117046Y-20800922D01*
X2276120Y-20844944D01*
X2432833Y-20896716D01*
X2586807Y-20956111D01*
X2737694Y-21022994D01*
X2885123Y-21097204D01*
X3028715Y-21178548D01*
X3168143Y-21266839D01*
X3303089Y-21361879D01*
X3433199Y-21463418D01*
X3500000Y-21521041D01*
X3500000Y-21568944D01*
X3526901Y-21704182D01*
X3579668Y-21831574D01*
X3656274Y-21946224D01*
X3753776Y-22043726D01*
X3868426Y-22120332D01*
X3995818Y-22173099D01*
X4131056Y-22200000D01*
X4268944Y-22200000D01*
X4404182Y-22173099D01*
X4531574Y-22120332D01*
X4646224Y-22043726D01*
X4743726Y-21946224D01*
X4820332Y-21831574D01*
X4873099Y-21704182D01*
X4900000Y-21568944D01*
X4900000Y-21431056D01*
X4873099Y-21295818D01*
X4830075Y-21191949D01*
X4956396Y-21107817D01*
X5095912Y-20968717D01*
X5205611Y-20805071D01*
X5281276Y-20623169D01*
X5320000Y-20430000D01*
X5320000Y-19880000D01*
X4420000Y-19880000D01*
X4420000Y-19900000D01*
X4220000Y-19900000D01*
X4220000Y-19880000D01*
X3320000Y-19880000D01*
X3320000Y-20196565D01*
X3187307Y-20129773D01*
X3176605Y-20123710D01*
X3165363Y-20118727D01*
X3154403Y-20113210D01*
X3142950Y-20108792D01*
X2992038Y-20041898D01*
X2981069Y-20036377D01*
X2969608Y-20031956D01*
X2958371Y-20026975D01*
X2946705Y-20023121D01*
X2792722Y-19963723D01*
X2781479Y-19958739D01*
X2769802Y-19954882D01*
X2758353Y-19950465D01*
X2746524Y-19947192D01*
X2589778Y-19895410D01*
X2578321Y-19890990D01*
X2566484Y-19887714D01*
X2554814Y-19883859D01*
X2542824Y-19881167D01*
X2383744Y-19837143D01*
X2372083Y-19833291D01*
X2360103Y-19830601D01*
X2348255Y-19827322D01*
X2336145Y-19825221D01*
X2175102Y-19789057D01*
X2163261Y-19785780D01*
X2151157Y-19783680D01*
X2139170Y-19780988D01*
X2126976Y-19779484D01*
X1964352Y-19751267D01*
X1952361Y-19748574D01*
X1940160Y-19747069D01*
X1928062Y-19744970D01*
X1915817Y-19744067D01*
X1751988Y-19723860D01*
X1739889Y-19721761D01*
X1727643Y-19720858D01*
X1715443Y-19719353D01*
X1703154Y-19719051D01*
X1538550Y-19706910D01*
X1526355Y-19705406D01*
X1514072Y-19705104D01*
X1501823Y-19704201D01*
X1489544Y-19704502D01*
X1330678Y-19700603D01*
X1324560Y-19700000D01*
X1306129Y-19700000D01*
X1287716Y-19699548D01*
X1281590Y-19700000D01*
X-1281590Y-19700000D01*
X-1287716Y-19699548D01*
X-1306129Y-19700000D01*
X-1324560Y-19700000D01*
X-1330678Y-19700603D01*
X-1489527Y-19704502D01*
X-1501823Y-19704200D01*
X-1514090Y-19705105D01*
X-1526356Y-19705406D01*
X-1538535Y-19706908D01*
X-1703156Y-19719051D01*
X-1715444Y-19719353D01*
X-1727646Y-19720858D01*
X-1739888Y-19721761D01*
X-1751983Y-19723860D01*
X-1915815Y-19744066D01*
X-1928064Y-19744970D01*
X-1940166Y-19747070D01*
X-1952361Y-19748574D01*
X-1964350Y-19751266D01*
X-2126975Y-19779484D01*
X-2139171Y-19780988D01*
X-2151161Y-19783680D01*
X-2163261Y-19785780D01*
X-2175099Y-19789056D01*
X-2336138Y-19825219D01*
X-2348256Y-19827322D01*
X-2360111Y-19830603D01*
X-2372082Y-19833291D01*
X-2383733Y-19837140D01*
X-2542820Y-19881166D01*
X-2554815Y-19883859D01*
X-2566489Y-19887716D01*
X-2578321Y-19890990D01*
X-2589776Y-19895409D01*
X-2746504Y-19947186D01*
X-2758354Y-19950465D01*
X-2769826Y-19954890D01*
X-2781479Y-19958740D01*
X-2792699Y-19963714D01*
X-2946705Y-20023121D01*
X-2958371Y-20026975D01*
X-2969608Y-20031956D01*
X-2981069Y-20036377D01*
X-2992038Y-20041898D01*
X-3142944Y-20108789D01*
X-3154404Y-20113210D01*
X-3165371Y-20118730D01*
X-3176605Y-20123710D01*
X-3187299Y-20129768D01*
X-3320000Y-20196565D01*
X-3320000Y-19880000D01*
X-4220000Y-19880000D01*
X-4220000Y-19900000D01*
X-4352207Y-19900000D01*
X-4380409Y-19770358D01*
X-4400000Y-19496431D01*
X-4400000Y-18360733D01*
X-4220000Y-18360733D01*
X-4220000Y-19680000D01*
X-3343883Y-19680000D01*
X-3288414Y-19735469D01*
X-3186048Y-19803868D01*
X-3072306Y-19850981D01*
X-2951557Y-19875000D01*
X-2828443Y-19875000D01*
X-2707694Y-19850981D01*
X-2593952Y-19803868D01*
X-2491586Y-19735469D01*
X-2404531Y-19648414D01*
X-2336132Y-19546048D01*
X-2289019Y-19432306D01*
X-2265000Y-19311557D01*
X-2265000Y-19188443D01*
X2265000Y-19188443D01*
X2265000Y-19311557D01*
X2289019Y-19432306D01*
X2336132Y-19546048D01*
X2404531Y-19648414D01*
X2491586Y-19735469D01*
X2593952Y-19803868D01*
X2707694Y-19850981D01*
X2828443Y-19875000D01*
X2951557Y-19875000D01*
X3072306Y-19850981D01*
X3186048Y-19803868D01*
X3288414Y-19735469D01*
X3343883Y-19680000D01*
X4220000Y-19680000D01*
X4220000Y-18360733D01*
X4420000Y-18360733D01*
X4420000Y-19680000D01*
X5320000Y-19680000D01*
X5320000Y-19130000D01*
X5281276Y-18936831D01*
X5205611Y-18754929D01*
X5095912Y-18591283D01*
X4956396Y-18452183D01*
X4792423Y-18342974D01*
X4610295Y-18267853D01*
X4574419Y-18262906D01*
X4420000Y-18360733D01*
X4220000Y-18360733D01*
X4065581Y-18262906D01*
X4029705Y-18267853D01*
X3847577Y-18342974D01*
X3683604Y-18452183D01*
X3544088Y-18591283D01*
X3434389Y-18754929D01*
X3387003Y-18868848D01*
X3375469Y-18851586D01*
X3288414Y-18764531D01*
X3186048Y-18696132D01*
X3072306Y-18649019D01*
X2951557Y-18625000D01*
X2828443Y-18625000D01*
X2707694Y-18649019D01*
X2593952Y-18696132D01*
X2491586Y-18764531D01*
X2404531Y-18851586D01*
X2336132Y-18953952D01*
X2289019Y-19067694D01*
X2265000Y-19188443D01*
X-2265000Y-19188443D01*
X-2289019Y-19067694D01*
X-2336132Y-18953952D01*
X-2404531Y-18851586D01*
X-2491586Y-18764531D01*
X-2593952Y-18696132D01*
X-2707694Y-18649019D01*
X-2828443Y-18625000D01*
X-2951557Y-18625000D01*
X-3072306Y-18649019D01*
X-3186048Y-18696132D01*
X-3288414Y-18764531D01*
X-3375469Y-18851586D01*
X-3387003Y-18868848D01*
X-3434389Y-18754929D01*
X-3544088Y-18591283D01*
X-3683604Y-18452183D01*
X-3847577Y-18342974D01*
X-4029705Y-18267853D01*
X-4065581Y-18262906D01*
X-4220000Y-18360733D01*
X-4400000Y-18360733D01*
X-4400000Y-15700000D01*
X-4220000Y-15700000D01*
X-4220000Y-16769267D01*
X-4065581Y-16867094D01*
X-4029705Y-16862147D01*
X-3847577Y-16787026D01*
X-3683604Y-16677817D01*
X-3544088Y-16538717D01*
X-3434389Y-16375071D01*
X-3358724Y-16193169D01*
X-3320000Y-16000000D01*
X-3320000Y-15700000D01*
X3320000Y-15700000D01*
X3320000Y-16000000D01*
X3358724Y-16193169D01*
X3434389Y-16375071D01*
X3544088Y-16538717D01*
X3683604Y-16677817D01*
X3847577Y-16787026D01*
X4029705Y-16862147D01*
X4065581Y-16867094D01*
X4220000Y-16769267D01*
X4220000Y-15700000D01*
X4420000Y-15700000D01*
X4420000Y-16769267D01*
X4574419Y-16867094D01*
X4610295Y-16862147D01*
X4792423Y-16787026D01*
X4956396Y-16677817D01*
X5095912Y-16538717D01*
X5205611Y-16375071D01*
X5281276Y-16193169D01*
X5320000Y-16000000D01*
X5320000Y-15700000D01*
X4420000Y-15700000D01*
X4220000Y-15700000D01*
X3320000Y-15700000D01*
X-3320000Y-15700000D01*
X-4220000Y-15700000D01*
X-4400000Y-15700000D01*
X-4400000Y-15480000D01*
X-4220000Y-15480000D01*
X-4220000Y-15500000D01*
X-3320000Y-15500000D01*
X-3320000Y-15200000D01*
X3320000Y-15200000D01*
X3320000Y-15500000D01*
X4220000Y-15500000D01*
X4220000Y-14430733D01*
X4420000Y-14430733D01*
X4420000Y-15500000D01*
X5320000Y-15500000D01*
X5320000Y-15200000D01*
X5281276Y-15006831D01*
X5205611Y-14824929D01*
X5095912Y-14661283D01*
X4956396Y-14522183D01*
X4792423Y-14412974D01*
X4610295Y-14337853D01*
X4574419Y-14332906D01*
X4420000Y-14430733D01*
X4220000Y-14430733D01*
X4065581Y-14332906D01*
X4029705Y-14337853D01*
X3847577Y-14412974D01*
X3683604Y-14522183D01*
X3544088Y-14661283D01*
X3434389Y-14824929D01*
X3358724Y-15006831D01*
X3320000Y-15200000D01*
X-3320000Y-15200000D01*
X-3358724Y-15006831D01*
X-3434389Y-14824929D01*
X-3544088Y-14661283D01*
X-3683604Y-14522183D01*
X-3847577Y-14412974D01*
X-4029705Y-14337853D01*
X-4065581Y-14332906D01*
X-4207220Y-14422636D01*
X-4098166Y-14222920D01*
X-3935733Y-14005935D01*
X-3744065Y-13814267D01*
X-3527080Y-13651834D01*
X-3289181Y-13521931D01*
X-3035223Y-13427210D01*
X-2795222Y-13375000D01*
X8018419Y-13375000D01*
X8073513Y-13369574D01*
X8138039Y-13350000D01*
X8447383Y-13350000D01*
X8447787Y-13350604D01*
G36*
X11100000Y-21530294D02*
G01*
X11100000Y-21669706D01*
X11014143Y-21755564D01*
X11000000Y-21741421D01*
X10985858Y-21755564D01*
X10900000Y-21669706D01*
X10900000Y-21530294D01*
X10985858Y-21444437D01*
X11000000Y-21458579D01*
X11014143Y-21444437D01*
X11100000Y-21530294D01*
X11100000Y-21530294D01*
G37*
X11100000Y-21530294D02*
X11100000Y-21669706D01*
X11014143Y-21755564D01*
X11000000Y-21741421D01*
X10985858Y-21755564D01*
X10900000Y-21669706D01*
X10900000Y-21530294D01*
X10985858Y-21444437D01*
X11000000Y-21458579D01*
X11014143Y-21444437D01*
X11100000Y-21530294D01*
G36*
X11100000Y-18600000D02*
G01*
X11120000Y-18600000D01*
X11120000Y-18800000D01*
X11100000Y-18800000D01*
X11100000Y-20702345D01*
X10935364Y-20697957D01*
X10900000Y-20704017D01*
X10900000Y-18800000D01*
X9597655Y-18800000D01*
X9602043Y-18635364D01*
X9595983Y-18600000D01*
X10900000Y-18600000D01*
X10900000Y-16697655D01*
X11064636Y-16702043D01*
X11100000Y-16695983D01*
X11100000Y-18600000D01*
X11100000Y-18600000D01*
G37*
X11100000Y-18600000D02*
X11120000Y-18600000D01*
X11120000Y-18800000D01*
X11100000Y-18800000D01*
X11100000Y-20702345D01*
X10935364Y-20697957D01*
X10900000Y-20704017D01*
X10900000Y-18800000D01*
X9597655Y-18800000D01*
X9602043Y-18635364D01*
X9595983Y-18600000D01*
X10900000Y-18600000D01*
X10900000Y-16697655D01*
X11064636Y-16702043D01*
X11100000Y-16695983D01*
X11100000Y-18600000D01*
G36*
X8855564Y-18685858D02*
G01*
X8841421Y-18700000D01*
X8855564Y-18714143D01*
X8769706Y-18800000D01*
X8630294Y-18800000D01*
X8544437Y-18714143D01*
X8558579Y-18700000D01*
X8544437Y-18685858D01*
X8630294Y-18600000D01*
X8769706Y-18600000D01*
X8855564Y-18685858D01*
X8855564Y-18685858D01*
G37*
X8855564Y-18685858D02*
X8841421Y-18700000D01*
X8855564Y-18714143D01*
X8769706Y-18800000D01*
X8630294Y-18800000D01*
X8544437Y-18714143D01*
X8558579Y-18700000D01*
X8544437Y-18685858D01*
X8630294Y-18600000D01*
X8769706Y-18600000D01*
X8855564Y-18685858D01*
G36*
X11100000Y-15730294D02*
G01*
X11100000Y-15869706D01*
X11014143Y-15955564D01*
X11000000Y-15941421D01*
X10985858Y-15955564D01*
X10900000Y-15869706D01*
X10900000Y-15730294D01*
X10985858Y-15644437D01*
X11000000Y-15658579D01*
X11014143Y-15644437D01*
X11100000Y-15730294D01*
X11100000Y-15730294D01*
G37*
X11100000Y-15730294D02*
X11100000Y-15869706D01*
X11014143Y-15955564D01*
X11000000Y-15941421D01*
X10985858Y-15955564D01*
X10900000Y-15869706D01*
X10900000Y-15730294D01*
X10985858Y-15644437D01*
X11000000Y-15658579D01*
X11014143Y-15644437D01*
X11100000Y-15730294D01*
M02*
