M48
; DRILL file {KiCad (5.1.4)-1} date 3/22/2021 1:51:56 AM
; FORMAT={-:-/ absolute / inch / decimal}
; #@! TF.CreationDate,2021-03-22T01:51:56-07:00
; #@! TF.GenerationSoftware,Kicad,Pcbnew,(5.1.4)-1
; #@! TF.FileFunction,NonPlated,1,2,NPTH
FMAT,2
INCH
T1C0.0197
T2C0.0236
T3C0.0454
%
G90
G05
T1
X-1.0778Y-0.1329
X-1.0778Y-0.1624
X-1.0778Y-0.1919
X-1.0778Y-0.2215
X0.7825Y-1.0679
X0.812Y-1.0679
X0.8415Y-1.0679
X0.8711Y-1.0679
X0.7136Y-0.1329
X0.7136Y-0.1624
X0.7136Y-0.1919
X0.7136Y-0.2215
X-1.3238Y0.0837
X-1.2943Y0.0837
X-1.2648Y0.0837
X-1.2352Y0.0837
X0.4085Y0.0837
X0.438Y0.0837
X0.4675Y0.0837
X0.497Y0.0837
X0.625Y-0.1329
X0.625Y-0.1624
X0.625Y-0.1919
X0.625Y-0.2215
X-0.9498Y-1.0679
X-0.9203Y-1.0679
X-0.8907Y-1.0679
X-0.8612Y-1.0679
X-0.9498Y0.0837
X-0.9203Y0.0837
X-0.8907Y0.0837
X-0.8612Y0.0837
X0.4085Y-0.4478
X0.438Y-0.4478
X0.4675Y-0.4478
X0.497Y-0.4478
X0.7825Y-0.9793
X0.812Y-0.9793
X0.8415Y-0.9793
X0.8711Y-0.9793
X0.7825Y0.0837
X0.812Y0.0837
X0.8415Y0.0837
X0.8711Y0.0837
X0.4085Y-0.0049
X0.438Y-0.0049
X0.4675Y-0.0049
X0.497Y-0.0049
X0.7136Y-0.7628
X0.7136Y-0.7923
X0.7136Y-0.8219
X0.7136Y-0.8514
X-0.9498Y-0.4478
X-0.9203Y-0.4478
X-0.8907Y-0.4478
X-0.8612Y-0.4478
X0.4085Y-0.9793
X0.438Y-0.9793
X0.4675Y-0.9793
X0.497Y-0.9793
X-1.3238Y-0.0049
X-1.2943Y-0.0049
X-1.2648Y-0.0049
X-1.2352Y-0.0049
X0.4085Y-1.0679
X0.438Y-1.0679
X0.4675Y-1.0679
X0.497Y-1.0679
X0.4085Y-0.5364
X0.438Y-0.5364
X0.4675Y-0.5364
X0.497Y-0.5364
X0.625Y-0.7628
X0.625Y-0.7923
X0.625Y-0.8219
X0.625Y-0.8514
X-1.3238Y-0.9793
X-1.2943Y-0.9793
X-1.2648Y-0.9793
X-1.2352Y-0.9793
X-1.0778Y-0.7628
X-1.0778Y-0.7923
X-1.0778Y-0.8219
X-1.0778Y-0.8514
X-0.9498Y-0.0049
X-0.9203Y-0.0049
X-0.8907Y-0.0049
X-0.8612Y-0.0049
X-1.1663Y-0.1329
X-1.1663Y-0.1624
X-1.1663Y-0.1919
X-1.1663Y-0.2215
X-0.9498Y-0.9793
X-0.9203Y-0.9793
X-0.8907Y-0.9793
X-0.8612Y-0.9793
X-1.3238Y-1.0679
X-1.2943Y-1.0679
X-1.2648Y-1.0679
X-1.2352Y-1.0679
X-1.1663Y-0.7628
X-1.1663Y-0.7923
X-1.1663Y-0.8219
X-1.1663Y-0.8514
X0.7825Y-0.0049
X0.812Y-0.0049
X0.8415Y-0.0049
X0.8711Y-0.0049
X-0.9498Y-0.5364
X-0.9203Y-0.5364
X-0.8907Y-0.5364
X-0.8612Y-0.5364
T2
X-0.1476Y-0.272
X0.1476Y-0.272
X-0.1476Y-0.8035
X0.1476Y-0.8035
T3
X0.9055Y0.2756
X-1.3583Y0.2756
X-1.3583Y-1.2598
X0.9055Y-1.2598
T0
M30
