G04 #@! TF.GenerationSoftware,KiCad,Pcbnew,(5.1.4)-1*
G04 #@! TF.CreationDate,2021-03-22T01:51:55-07:00*
G04 #@! TF.ProjectId,panelize,70616e65-6c69-47a6-952e-6b696361645f,rev?*
G04 #@! TF.SameCoordinates,Original*
G04 #@! TF.FileFunction,Soldermask,Top*
G04 #@! TF.FilePolarity,Negative*
%FSLAX46Y46*%
G04 Gerber Fmt 4.6, Leading zero omitted, Abs format (unit mm)*
G04 Created by KiCad (PCBNEW (5.1.4)-1) date 2021-03-22 01:51:55*
%MOMM*%
%LPD*%
G04 APERTURE LIST*
%ADD10C,0.100000*%
G04 APERTURE END LIST*
D10*
G36*
X23204473Y-31325938D02*
G01*
X23332049Y-31378782D01*
X23446859Y-31455495D01*
X23544505Y-31553141D01*
X23621218Y-31667951D01*
X23674062Y-31795527D01*
X23701000Y-31930956D01*
X23701000Y-32069044D01*
X23674062Y-32204473D01*
X23621218Y-32332049D01*
X23544505Y-32446859D01*
X23446859Y-32544505D01*
X23332049Y-32621218D01*
X23204473Y-32674062D01*
X23069044Y-32701000D01*
X22930956Y-32701000D01*
X22795527Y-32674062D01*
X22667951Y-32621218D01*
X22553141Y-32544505D01*
X22455495Y-32446859D01*
X22378782Y-32332049D01*
X22325938Y-32204473D01*
X22299000Y-32069044D01*
X22299000Y-31930956D01*
X22325938Y-31795527D01*
X22378782Y-31667951D01*
X22455495Y-31553141D01*
X22553141Y-31455495D01*
X22667951Y-31378782D01*
X22795527Y-31325938D01*
X22930956Y-31299000D01*
X23069044Y-31299000D01*
X23204473Y-31325938D01*
X23204473Y-31325938D01*
G37*
G36*
X-34295527Y-31325938D02*
G01*
X-34167951Y-31378782D01*
X-34053141Y-31455495D01*
X-33955495Y-31553141D01*
X-33878782Y-31667951D01*
X-33825938Y-31795527D01*
X-33799000Y-31930956D01*
X-33799000Y-32069044D01*
X-33825938Y-32204473D01*
X-33878782Y-32332049D01*
X-33955495Y-32446859D01*
X-34053141Y-32544505D01*
X-34167951Y-32621218D01*
X-34295527Y-32674062D01*
X-34430956Y-32701000D01*
X-34569044Y-32701000D01*
X-34704473Y-32674062D01*
X-34832049Y-32621218D01*
X-34946859Y-32544505D01*
X-35044505Y-32446859D01*
X-35121218Y-32332049D01*
X-35174062Y-32204473D01*
X-35201000Y-32069044D01*
X-35201000Y-31930956D01*
X-35174062Y-31795527D01*
X-35121218Y-31667951D01*
X-35044505Y-31553141D01*
X-34946859Y-31455495D01*
X-34832049Y-31378782D01*
X-34704473Y-31325938D01*
X-34569044Y-31299000D01*
X-34430956Y-31299000D01*
X-34295527Y-31325938D01*
X-34295527Y-31325938D01*
G37*
G36*
X19962797Y-26835567D02*
G01*
X20017575Y-26858257D01*
X20017577Y-26858258D01*
X20066876Y-26891198D01*
X20108802Y-26933124D01*
X20141742Y-26982423D01*
X20146067Y-26988896D01*
X20161612Y-27007838D01*
X20180554Y-27023383D01*
X20202165Y-27034934D01*
X20225614Y-27042047D01*
X20250000Y-27044449D01*
X20274386Y-27042047D01*
X20297835Y-27034934D01*
X20319446Y-27023383D01*
X20338388Y-27007838D01*
X20353933Y-26988896D01*
X20358258Y-26982423D01*
X20391198Y-26933124D01*
X20433124Y-26891198D01*
X20482423Y-26858258D01*
X20482425Y-26858257D01*
X20537203Y-26835567D01*
X20595353Y-26824000D01*
X20654647Y-26824000D01*
X20712797Y-26835567D01*
X20767575Y-26858257D01*
X20767577Y-26858258D01*
X20816876Y-26891198D01*
X20858802Y-26933124D01*
X20891742Y-26982423D01*
X20896067Y-26988896D01*
X20911612Y-27007838D01*
X20930554Y-27023383D01*
X20952165Y-27034934D01*
X20975614Y-27042047D01*
X21000000Y-27044449D01*
X21024386Y-27042047D01*
X21047835Y-27034934D01*
X21069446Y-27023383D01*
X21088388Y-27007838D01*
X21103933Y-26988896D01*
X21108258Y-26982423D01*
X21141198Y-26933124D01*
X21183124Y-26891198D01*
X21232423Y-26858258D01*
X21232425Y-26858257D01*
X21287203Y-26835567D01*
X21345353Y-26824000D01*
X21404647Y-26824000D01*
X21462797Y-26835567D01*
X21517575Y-26858257D01*
X21517577Y-26858258D01*
X21566876Y-26891198D01*
X21608802Y-26933124D01*
X21641742Y-26982423D01*
X21646067Y-26988896D01*
X21661612Y-27007838D01*
X21680554Y-27023383D01*
X21702165Y-27034934D01*
X21725614Y-27042047D01*
X21750000Y-27044449D01*
X21774386Y-27042047D01*
X21797835Y-27034934D01*
X21819446Y-27023383D01*
X21838388Y-27007838D01*
X21853933Y-26988896D01*
X21858258Y-26982423D01*
X21891198Y-26933124D01*
X21933124Y-26891198D01*
X21982423Y-26858258D01*
X21982425Y-26858257D01*
X22037203Y-26835567D01*
X22095353Y-26824000D01*
X22154647Y-26824000D01*
X22212797Y-26835567D01*
X22267575Y-26858257D01*
X22267577Y-26858258D01*
X22316876Y-26891198D01*
X22358802Y-26933124D01*
X22391742Y-26982423D01*
X22391743Y-26982425D01*
X22414433Y-27037203D01*
X22426000Y-27095353D01*
X22426000Y-27154647D01*
X22414433Y-27212797D01*
X22394423Y-27261104D01*
X22391742Y-27267577D01*
X22358802Y-27316876D01*
X22316876Y-27358802D01*
X22267577Y-27391742D01*
X22267576Y-27391743D01*
X22267575Y-27391743D01*
X22212797Y-27414433D01*
X22154647Y-27426000D01*
X22095353Y-27426000D01*
X22037203Y-27414433D01*
X21982425Y-27391743D01*
X21982424Y-27391743D01*
X21982423Y-27391742D01*
X21933124Y-27358802D01*
X21891198Y-27316876D01*
X21858258Y-27267577D01*
X21858257Y-27267575D01*
X21853933Y-27261104D01*
X21838388Y-27242162D01*
X21819446Y-27226617D01*
X21797835Y-27215066D01*
X21774386Y-27207953D01*
X21750000Y-27205551D01*
X21725614Y-27207953D01*
X21702165Y-27215066D01*
X21680554Y-27226617D01*
X21661612Y-27242162D01*
X21646067Y-27261104D01*
X21641743Y-27267575D01*
X21641742Y-27267577D01*
X21608802Y-27316876D01*
X21566876Y-27358802D01*
X21517577Y-27391742D01*
X21517576Y-27391743D01*
X21517575Y-27391743D01*
X21462797Y-27414433D01*
X21404647Y-27426000D01*
X21345353Y-27426000D01*
X21287203Y-27414433D01*
X21232425Y-27391743D01*
X21232424Y-27391743D01*
X21232423Y-27391742D01*
X21183124Y-27358802D01*
X21141198Y-27316876D01*
X21108258Y-27267577D01*
X21108257Y-27267575D01*
X21103933Y-27261104D01*
X21088388Y-27242162D01*
X21069446Y-27226617D01*
X21047835Y-27215066D01*
X21024386Y-27207953D01*
X21000000Y-27205551D01*
X20975614Y-27207953D01*
X20952165Y-27215066D01*
X20930554Y-27226617D01*
X20911612Y-27242162D01*
X20896067Y-27261104D01*
X20891743Y-27267575D01*
X20891742Y-27267577D01*
X20858802Y-27316876D01*
X20816876Y-27358802D01*
X20767577Y-27391742D01*
X20767576Y-27391743D01*
X20767575Y-27391743D01*
X20712797Y-27414433D01*
X20654647Y-27426000D01*
X20595353Y-27426000D01*
X20537203Y-27414433D01*
X20482425Y-27391743D01*
X20482424Y-27391743D01*
X20482423Y-27391742D01*
X20433124Y-27358802D01*
X20391198Y-27316876D01*
X20358258Y-27267577D01*
X20358257Y-27267575D01*
X20353933Y-27261104D01*
X20338388Y-27242162D01*
X20319446Y-27226617D01*
X20297835Y-27215066D01*
X20274386Y-27207953D01*
X20250000Y-27205551D01*
X20225614Y-27207953D01*
X20202165Y-27215066D01*
X20180554Y-27226617D01*
X20161612Y-27242162D01*
X20146067Y-27261104D01*
X20141743Y-27267575D01*
X20141742Y-27267577D01*
X20108802Y-27316876D01*
X20066876Y-27358802D01*
X20017577Y-27391742D01*
X20017576Y-27391743D01*
X20017575Y-27391743D01*
X19962797Y-27414433D01*
X19904647Y-27426000D01*
X19845353Y-27426000D01*
X19787203Y-27414433D01*
X19732425Y-27391743D01*
X19732424Y-27391743D01*
X19732423Y-27391742D01*
X19683124Y-27358802D01*
X19641198Y-27316876D01*
X19608258Y-27267577D01*
X19605577Y-27261104D01*
X19585567Y-27212797D01*
X19574000Y-27154647D01*
X19574000Y-27095353D01*
X19585567Y-27037203D01*
X19608257Y-26982425D01*
X19608258Y-26982423D01*
X19641198Y-26933124D01*
X19683124Y-26891198D01*
X19732423Y-26858258D01*
X19732425Y-26858257D01*
X19787203Y-26835567D01*
X19845353Y-26824000D01*
X19904647Y-26824000D01*
X19962797Y-26835567D01*
X19962797Y-26835567D01*
G37*
G36*
X-24037203Y-26835567D02*
G01*
X-23982425Y-26858257D01*
X-23982423Y-26858258D01*
X-23933124Y-26891198D01*
X-23891198Y-26933124D01*
X-23858258Y-26982423D01*
X-23853933Y-26988896D01*
X-23838388Y-27007838D01*
X-23819446Y-27023383D01*
X-23797835Y-27034934D01*
X-23774386Y-27042047D01*
X-23750000Y-27044449D01*
X-23725614Y-27042047D01*
X-23702165Y-27034934D01*
X-23680554Y-27023383D01*
X-23661612Y-27007838D01*
X-23646067Y-26988896D01*
X-23641742Y-26982423D01*
X-23608802Y-26933124D01*
X-23566876Y-26891198D01*
X-23517577Y-26858258D01*
X-23517575Y-26858257D01*
X-23462797Y-26835567D01*
X-23404647Y-26824000D01*
X-23345353Y-26824000D01*
X-23287203Y-26835567D01*
X-23232425Y-26858257D01*
X-23232423Y-26858258D01*
X-23183124Y-26891198D01*
X-23141198Y-26933124D01*
X-23108258Y-26982423D01*
X-23103933Y-26988896D01*
X-23088388Y-27007838D01*
X-23069446Y-27023383D01*
X-23047835Y-27034934D01*
X-23024386Y-27042047D01*
X-23000000Y-27044449D01*
X-22975614Y-27042047D01*
X-22952165Y-27034934D01*
X-22930554Y-27023383D01*
X-22911612Y-27007838D01*
X-22896067Y-26988896D01*
X-22891742Y-26982423D01*
X-22858802Y-26933124D01*
X-22816876Y-26891198D01*
X-22767577Y-26858258D01*
X-22767575Y-26858257D01*
X-22712797Y-26835567D01*
X-22654647Y-26824000D01*
X-22595353Y-26824000D01*
X-22537203Y-26835567D01*
X-22482425Y-26858257D01*
X-22482423Y-26858258D01*
X-22433124Y-26891198D01*
X-22391198Y-26933124D01*
X-22358258Y-26982423D01*
X-22353933Y-26988896D01*
X-22338388Y-27007838D01*
X-22319446Y-27023383D01*
X-22297835Y-27034934D01*
X-22274386Y-27042047D01*
X-22250000Y-27044449D01*
X-22225614Y-27042047D01*
X-22202165Y-27034934D01*
X-22180554Y-27023383D01*
X-22161612Y-27007838D01*
X-22146067Y-26988896D01*
X-22141742Y-26982423D01*
X-22108802Y-26933124D01*
X-22066876Y-26891198D01*
X-22017577Y-26858258D01*
X-22017575Y-26858257D01*
X-21962797Y-26835567D01*
X-21904647Y-26824000D01*
X-21845353Y-26824000D01*
X-21787203Y-26835567D01*
X-21732425Y-26858257D01*
X-21732423Y-26858258D01*
X-21683124Y-26891198D01*
X-21641198Y-26933124D01*
X-21608258Y-26982423D01*
X-21608257Y-26982425D01*
X-21585567Y-27037203D01*
X-21574000Y-27095353D01*
X-21574000Y-27154647D01*
X-21585567Y-27212797D01*
X-21605577Y-27261104D01*
X-21608258Y-27267577D01*
X-21641198Y-27316876D01*
X-21683124Y-27358802D01*
X-21732423Y-27391742D01*
X-21732424Y-27391743D01*
X-21732425Y-27391743D01*
X-21787203Y-27414433D01*
X-21845353Y-27426000D01*
X-21904647Y-27426000D01*
X-21962797Y-27414433D01*
X-22017575Y-27391743D01*
X-22017576Y-27391743D01*
X-22017577Y-27391742D01*
X-22066876Y-27358802D01*
X-22108802Y-27316876D01*
X-22141742Y-27267577D01*
X-22141743Y-27267575D01*
X-22146067Y-27261104D01*
X-22161612Y-27242162D01*
X-22180554Y-27226617D01*
X-22202165Y-27215066D01*
X-22225614Y-27207953D01*
X-22250000Y-27205551D01*
X-22274386Y-27207953D01*
X-22297835Y-27215066D01*
X-22319446Y-27226617D01*
X-22338388Y-27242162D01*
X-22353933Y-27261104D01*
X-22358257Y-27267575D01*
X-22358258Y-27267577D01*
X-22391198Y-27316876D01*
X-22433124Y-27358802D01*
X-22482423Y-27391742D01*
X-22482424Y-27391743D01*
X-22482425Y-27391743D01*
X-22537203Y-27414433D01*
X-22595353Y-27426000D01*
X-22654647Y-27426000D01*
X-22712797Y-27414433D01*
X-22767575Y-27391743D01*
X-22767576Y-27391743D01*
X-22767577Y-27391742D01*
X-22816876Y-27358802D01*
X-22858802Y-27316876D01*
X-22891742Y-27267577D01*
X-22891743Y-27267575D01*
X-22896067Y-27261104D01*
X-22911612Y-27242162D01*
X-22930554Y-27226617D01*
X-22952165Y-27215066D01*
X-22975614Y-27207953D01*
X-23000000Y-27205551D01*
X-23024386Y-27207953D01*
X-23047835Y-27215066D01*
X-23069446Y-27226617D01*
X-23088388Y-27242162D01*
X-23103933Y-27261104D01*
X-23108257Y-27267575D01*
X-23108258Y-27267577D01*
X-23141198Y-27316876D01*
X-23183124Y-27358802D01*
X-23232423Y-27391742D01*
X-23232424Y-27391743D01*
X-23232425Y-27391743D01*
X-23287203Y-27414433D01*
X-23345353Y-27426000D01*
X-23404647Y-27426000D01*
X-23462797Y-27414433D01*
X-23517575Y-27391743D01*
X-23517576Y-27391743D01*
X-23517577Y-27391742D01*
X-23566876Y-27358802D01*
X-23608802Y-27316876D01*
X-23641742Y-27267577D01*
X-23641743Y-27267575D01*
X-23646067Y-27261104D01*
X-23661612Y-27242162D01*
X-23680554Y-27226617D01*
X-23702165Y-27215066D01*
X-23725614Y-27207953D01*
X-23750000Y-27205551D01*
X-23774386Y-27207953D01*
X-23797835Y-27215066D01*
X-23819446Y-27226617D01*
X-23838388Y-27242162D01*
X-23853933Y-27261104D01*
X-23858257Y-27267575D01*
X-23858258Y-27267577D01*
X-23891198Y-27316876D01*
X-23933124Y-27358802D01*
X-23982423Y-27391742D01*
X-23982424Y-27391743D01*
X-23982425Y-27391743D01*
X-24037203Y-27414433D01*
X-24095353Y-27426000D01*
X-24154647Y-27426000D01*
X-24212797Y-27414433D01*
X-24267575Y-27391743D01*
X-24267576Y-27391743D01*
X-24267577Y-27391742D01*
X-24316876Y-27358802D01*
X-24358802Y-27316876D01*
X-24391742Y-27267577D01*
X-24394423Y-27261104D01*
X-24414433Y-27212797D01*
X-24426000Y-27154647D01*
X-24426000Y-27095353D01*
X-24414433Y-27037203D01*
X-24391743Y-26982425D01*
X-24391742Y-26982423D01*
X-24358802Y-26933124D01*
X-24316876Y-26891198D01*
X-24267577Y-26858258D01*
X-24267575Y-26858257D01*
X-24212797Y-26835567D01*
X-24154647Y-26824000D01*
X-24095353Y-26824000D01*
X-24037203Y-26835567D01*
X-24037203Y-26835567D01*
G37*
G36*
X10462797Y-26835567D02*
G01*
X10517575Y-26858257D01*
X10517577Y-26858258D01*
X10566876Y-26891198D01*
X10608802Y-26933124D01*
X10641742Y-26982423D01*
X10646067Y-26988896D01*
X10661612Y-27007838D01*
X10680554Y-27023383D01*
X10702165Y-27034934D01*
X10725614Y-27042047D01*
X10750000Y-27044449D01*
X10774386Y-27042047D01*
X10797835Y-27034934D01*
X10819446Y-27023383D01*
X10838388Y-27007838D01*
X10853933Y-26988896D01*
X10858258Y-26982423D01*
X10891198Y-26933124D01*
X10933124Y-26891198D01*
X10982423Y-26858258D01*
X10982425Y-26858257D01*
X11037203Y-26835567D01*
X11095353Y-26824000D01*
X11154647Y-26824000D01*
X11212797Y-26835567D01*
X11267575Y-26858257D01*
X11267577Y-26858258D01*
X11316876Y-26891198D01*
X11358802Y-26933124D01*
X11391742Y-26982423D01*
X11396067Y-26988896D01*
X11411612Y-27007838D01*
X11430554Y-27023383D01*
X11452165Y-27034934D01*
X11475614Y-27042047D01*
X11500000Y-27044449D01*
X11524386Y-27042047D01*
X11547835Y-27034934D01*
X11569446Y-27023383D01*
X11588388Y-27007838D01*
X11603933Y-26988896D01*
X11608258Y-26982423D01*
X11641198Y-26933124D01*
X11683124Y-26891198D01*
X11732423Y-26858258D01*
X11732425Y-26858257D01*
X11787203Y-26835567D01*
X11845353Y-26824000D01*
X11904647Y-26824000D01*
X11962797Y-26835567D01*
X12017575Y-26858257D01*
X12017577Y-26858258D01*
X12066876Y-26891198D01*
X12108802Y-26933124D01*
X12141742Y-26982423D01*
X12146067Y-26988896D01*
X12161612Y-27007838D01*
X12180554Y-27023383D01*
X12202165Y-27034934D01*
X12225614Y-27042047D01*
X12250000Y-27044449D01*
X12274386Y-27042047D01*
X12297835Y-27034934D01*
X12319446Y-27023383D01*
X12338388Y-27007838D01*
X12353933Y-26988896D01*
X12358258Y-26982423D01*
X12391198Y-26933124D01*
X12433124Y-26891198D01*
X12482423Y-26858258D01*
X12482425Y-26858257D01*
X12537203Y-26835567D01*
X12595353Y-26824000D01*
X12654647Y-26824000D01*
X12712797Y-26835567D01*
X12767575Y-26858257D01*
X12767577Y-26858258D01*
X12816876Y-26891198D01*
X12858802Y-26933124D01*
X12891742Y-26982423D01*
X12891743Y-26982425D01*
X12914433Y-27037203D01*
X12926000Y-27095353D01*
X12926000Y-27154647D01*
X12914433Y-27212797D01*
X12894423Y-27261104D01*
X12891742Y-27267577D01*
X12858802Y-27316876D01*
X12816876Y-27358802D01*
X12767577Y-27391742D01*
X12767576Y-27391743D01*
X12767575Y-27391743D01*
X12712797Y-27414433D01*
X12654647Y-27426000D01*
X12595353Y-27426000D01*
X12537203Y-27414433D01*
X12482425Y-27391743D01*
X12482424Y-27391743D01*
X12482423Y-27391742D01*
X12433124Y-27358802D01*
X12391198Y-27316876D01*
X12358258Y-27267577D01*
X12358257Y-27267575D01*
X12353933Y-27261104D01*
X12338388Y-27242162D01*
X12319446Y-27226617D01*
X12297835Y-27215066D01*
X12274386Y-27207953D01*
X12250000Y-27205551D01*
X12225614Y-27207953D01*
X12202165Y-27215066D01*
X12180554Y-27226617D01*
X12161612Y-27242162D01*
X12146067Y-27261104D01*
X12141743Y-27267575D01*
X12141742Y-27267577D01*
X12108802Y-27316876D01*
X12066876Y-27358802D01*
X12017577Y-27391742D01*
X12017576Y-27391743D01*
X12017575Y-27391743D01*
X11962797Y-27414433D01*
X11904647Y-27426000D01*
X11845353Y-27426000D01*
X11787203Y-27414433D01*
X11732425Y-27391743D01*
X11732424Y-27391743D01*
X11732423Y-27391742D01*
X11683124Y-27358802D01*
X11641198Y-27316876D01*
X11608258Y-27267577D01*
X11608257Y-27267575D01*
X11603933Y-27261104D01*
X11588388Y-27242162D01*
X11569446Y-27226617D01*
X11547835Y-27215066D01*
X11524386Y-27207953D01*
X11500000Y-27205551D01*
X11475614Y-27207953D01*
X11452165Y-27215066D01*
X11430554Y-27226617D01*
X11411612Y-27242162D01*
X11396067Y-27261104D01*
X11391743Y-27267575D01*
X11391742Y-27267577D01*
X11358802Y-27316876D01*
X11316876Y-27358802D01*
X11267577Y-27391742D01*
X11267576Y-27391743D01*
X11267575Y-27391743D01*
X11212797Y-27414433D01*
X11154647Y-27426000D01*
X11095353Y-27426000D01*
X11037203Y-27414433D01*
X10982425Y-27391743D01*
X10982424Y-27391743D01*
X10982423Y-27391742D01*
X10933124Y-27358802D01*
X10891198Y-27316876D01*
X10858258Y-27267577D01*
X10858257Y-27267575D01*
X10853933Y-27261104D01*
X10838388Y-27242162D01*
X10819446Y-27226617D01*
X10797835Y-27215066D01*
X10774386Y-27207953D01*
X10750000Y-27205551D01*
X10725614Y-27207953D01*
X10702165Y-27215066D01*
X10680554Y-27226617D01*
X10661612Y-27242162D01*
X10646067Y-27261104D01*
X10641743Y-27267575D01*
X10641742Y-27267577D01*
X10608802Y-27316876D01*
X10566876Y-27358802D01*
X10517577Y-27391742D01*
X10517576Y-27391743D01*
X10517575Y-27391743D01*
X10462797Y-27414433D01*
X10404647Y-27426000D01*
X10345353Y-27426000D01*
X10287203Y-27414433D01*
X10232425Y-27391743D01*
X10232424Y-27391743D01*
X10232423Y-27391742D01*
X10183124Y-27358802D01*
X10141198Y-27316876D01*
X10108258Y-27267577D01*
X10105577Y-27261104D01*
X10085567Y-27212797D01*
X10074000Y-27154647D01*
X10074000Y-27095353D01*
X10085567Y-27037203D01*
X10108257Y-26982425D01*
X10108258Y-26982423D01*
X10141198Y-26933124D01*
X10183124Y-26891198D01*
X10232423Y-26858258D01*
X10232425Y-26858257D01*
X10287203Y-26835567D01*
X10345353Y-26824000D01*
X10404647Y-26824000D01*
X10462797Y-26835567D01*
X10462797Y-26835567D01*
G37*
G36*
X-33537203Y-26835567D02*
G01*
X-33482425Y-26858257D01*
X-33482423Y-26858258D01*
X-33433124Y-26891198D01*
X-33391198Y-26933124D01*
X-33358258Y-26982423D01*
X-33353933Y-26988896D01*
X-33338388Y-27007838D01*
X-33319446Y-27023383D01*
X-33297835Y-27034934D01*
X-33274386Y-27042047D01*
X-33250000Y-27044449D01*
X-33225614Y-27042047D01*
X-33202165Y-27034934D01*
X-33180554Y-27023383D01*
X-33161612Y-27007838D01*
X-33146067Y-26988896D01*
X-33141742Y-26982423D01*
X-33108802Y-26933124D01*
X-33066876Y-26891198D01*
X-33017577Y-26858258D01*
X-33017575Y-26858257D01*
X-32962797Y-26835567D01*
X-32904647Y-26824000D01*
X-32845353Y-26824000D01*
X-32787203Y-26835567D01*
X-32732425Y-26858257D01*
X-32732423Y-26858258D01*
X-32683124Y-26891198D01*
X-32641198Y-26933124D01*
X-32608258Y-26982423D01*
X-32603933Y-26988896D01*
X-32588388Y-27007838D01*
X-32569446Y-27023383D01*
X-32547835Y-27034934D01*
X-32524386Y-27042047D01*
X-32500000Y-27044449D01*
X-32475614Y-27042047D01*
X-32452165Y-27034934D01*
X-32430554Y-27023383D01*
X-32411612Y-27007838D01*
X-32396067Y-26988896D01*
X-32391742Y-26982423D01*
X-32358802Y-26933124D01*
X-32316876Y-26891198D01*
X-32267577Y-26858258D01*
X-32267575Y-26858257D01*
X-32212797Y-26835567D01*
X-32154647Y-26824000D01*
X-32095353Y-26824000D01*
X-32037203Y-26835567D01*
X-31982425Y-26858257D01*
X-31982423Y-26858258D01*
X-31933124Y-26891198D01*
X-31891198Y-26933124D01*
X-31858258Y-26982423D01*
X-31853933Y-26988896D01*
X-31838388Y-27007838D01*
X-31819446Y-27023383D01*
X-31797835Y-27034934D01*
X-31774386Y-27042047D01*
X-31750000Y-27044449D01*
X-31725614Y-27042047D01*
X-31702165Y-27034934D01*
X-31680554Y-27023383D01*
X-31661612Y-27007838D01*
X-31646067Y-26988896D01*
X-31641742Y-26982423D01*
X-31608802Y-26933124D01*
X-31566876Y-26891198D01*
X-31517577Y-26858258D01*
X-31517575Y-26858257D01*
X-31462797Y-26835567D01*
X-31404647Y-26824000D01*
X-31345353Y-26824000D01*
X-31287203Y-26835567D01*
X-31232425Y-26858257D01*
X-31232423Y-26858258D01*
X-31183124Y-26891198D01*
X-31141198Y-26933124D01*
X-31108258Y-26982423D01*
X-31108257Y-26982425D01*
X-31085567Y-27037203D01*
X-31074000Y-27095353D01*
X-31074000Y-27154647D01*
X-31085567Y-27212797D01*
X-31105577Y-27261104D01*
X-31108258Y-27267577D01*
X-31141198Y-27316876D01*
X-31183124Y-27358802D01*
X-31232423Y-27391742D01*
X-31232424Y-27391743D01*
X-31232425Y-27391743D01*
X-31287203Y-27414433D01*
X-31345353Y-27426000D01*
X-31404647Y-27426000D01*
X-31462797Y-27414433D01*
X-31517575Y-27391743D01*
X-31517576Y-27391743D01*
X-31517577Y-27391742D01*
X-31566876Y-27358802D01*
X-31608802Y-27316876D01*
X-31641742Y-27267577D01*
X-31641743Y-27267575D01*
X-31646067Y-27261104D01*
X-31661612Y-27242162D01*
X-31680554Y-27226617D01*
X-31702165Y-27215066D01*
X-31725614Y-27207953D01*
X-31750000Y-27205551D01*
X-31774386Y-27207953D01*
X-31797835Y-27215066D01*
X-31819446Y-27226617D01*
X-31838388Y-27242162D01*
X-31853933Y-27261104D01*
X-31858257Y-27267575D01*
X-31858258Y-27267577D01*
X-31891198Y-27316876D01*
X-31933124Y-27358802D01*
X-31982423Y-27391742D01*
X-31982424Y-27391743D01*
X-31982425Y-27391743D01*
X-32037203Y-27414433D01*
X-32095353Y-27426000D01*
X-32154647Y-27426000D01*
X-32212797Y-27414433D01*
X-32267575Y-27391743D01*
X-32267576Y-27391743D01*
X-32267577Y-27391742D01*
X-32316876Y-27358802D01*
X-32358802Y-27316876D01*
X-32391742Y-27267577D01*
X-32391743Y-27267575D01*
X-32396067Y-27261104D01*
X-32411612Y-27242162D01*
X-32430554Y-27226617D01*
X-32452165Y-27215066D01*
X-32475614Y-27207953D01*
X-32500000Y-27205551D01*
X-32524386Y-27207953D01*
X-32547835Y-27215066D01*
X-32569446Y-27226617D01*
X-32588388Y-27242162D01*
X-32603933Y-27261104D01*
X-32608257Y-27267575D01*
X-32608258Y-27267577D01*
X-32641198Y-27316876D01*
X-32683124Y-27358802D01*
X-32732423Y-27391742D01*
X-32732424Y-27391743D01*
X-32732425Y-27391743D01*
X-32787203Y-27414433D01*
X-32845353Y-27426000D01*
X-32904647Y-27426000D01*
X-32962797Y-27414433D01*
X-33017575Y-27391743D01*
X-33017576Y-27391743D01*
X-33017577Y-27391742D01*
X-33066876Y-27358802D01*
X-33108802Y-27316876D01*
X-33141742Y-27267577D01*
X-33141743Y-27267575D01*
X-33146067Y-27261104D01*
X-33161612Y-27242162D01*
X-33180554Y-27226617D01*
X-33202165Y-27215066D01*
X-33225614Y-27207953D01*
X-33250000Y-27205551D01*
X-33274386Y-27207953D01*
X-33297835Y-27215066D01*
X-33319446Y-27226617D01*
X-33338388Y-27242162D01*
X-33353933Y-27261104D01*
X-33358257Y-27267575D01*
X-33358258Y-27267577D01*
X-33391198Y-27316876D01*
X-33433124Y-27358802D01*
X-33482423Y-27391742D01*
X-33482424Y-27391743D01*
X-33482425Y-27391743D01*
X-33537203Y-27414433D01*
X-33595353Y-27426000D01*
X-33654647Y-27426000D01*
X-33712797Y-27414433D01*
X-33767575Y-27391743D01*
X-33767576Y-27391743D01*
X-33767577Y-27391742D01*
X-33816876Y-27358802D01*
X-33858802Y-27316876D01*
X-33891742Y-27267577D01*
X-33894423Y-27261104D01*
X-33914433Y-27212797D01*
X-33926000Y-27154647D01*
X-33926000Y-27095353D01*
X-33914433Y-27037203D01*
X-33891743Y-26982425D01*
X-33891742Y-26982423D01*
X-33858802Y-26933124D01*
X-33816876Y-26891198D01*
X-33767577Y-26858258D01*
X-33767575Y-26858257D01*
X-33712797Y-26835567D01*
X-33654647Y-26824000D01*
X-33595353Y-26824000D01*
X-33537203Y-26835567D01*
X-33537203Y-26835567D01*
G37*
G36*
X10462797Y-24585567D02*
G01*
X10517575Y-24608257D01*
X10517577Y-24608258D01*
X10566876Y-24641198D01*
X10608802Y-24683124D01*
X10641742Y-24732423D01*
X10646067Y-24738896D01*
X10661612Y-24757838D01*
X10680554Y-24773383D01*
X10702165Y-24784934D01*
X10725614Y-24792047D01*
X10750000Y-24794449D01*
X10774386Y-24792047D01*
X10797835Y-24784934D01*
X10819446Y-24773383D01*
X10838388Y-24757838D01*
X10853933Y-24738896D01*
X10858258Y-24732423D01*
X10891198Y-24683124D01*
X10933124Y-24641198D01*
X10982423Y-24608258D01*
X10982425Y-24608257D01*
X11037203Y-24585567D01*
X11095353Y-24574000D01*
X11154647Y-24574000D01*
X11212797Y-24585567D01*
X11267575Y-24608257D01*
X11267577Y-24608258D01*
X11316876Y-24641198D01*
X11358802Y-24683124D01*
X11391742Y-24732423D01*
X11396067Y-24738896D01*
X11411612Y-24757838D01*
X11430554Y-24773383D01*
X11452165Y-24784934D01*
X11475614Y-24792047D01*
X11500000Y-24794449D01*
X11524386Y-24792047D01*
X11547835Y-24784934D01*
X11569446Y-24773383D01*
X11588388Y-24757838D01*
X11603933Y-24738896D01*
X11608258Y-24732423D01*
X11641198Y-24683124D01*
X11683124Y-24641198D01*
X11732423Y-24608258D01*
X11732425Y-24608257D01*
X11787203Y-24585567D01*
X11845353Y-24574000D01*
X11904647Y-24574000D01*
X11962797Y-24585567D01*
X12017575Y-24608257D01*
X12017577Y-24608258D01*
X12066876Y-24641198D01*
X12108802Y-24683124D01*
X12141742Y-24732423D01*
X12146067Y-24738896D01*
X12161612Y-24757838D01*
X12180554Y-24773383D01*
X12202165Y-24784934D01*
X12225614Y-24792047D01*
X12250000Y-24794449D01*
X12274386Y-24792047D01*
X12297835Y-24784934D01*
X12319446Y-24773383D01*
X12338388Y-24757838D01*
X12353933Y-24738896D01*
X12358258Y-24732423D01*
X12391198Y-24683124D01*
X12433124Y-24641198D01*
X12482423Y-24608258D01*
X12482425Y-24608257D01*
X12537203Y-24585567D01*
X12595353Y-24574000D01*
X12654647Y-24574000D01*
X12712797Y-24585567D01*
X12767575Y-24608257D01*
X12767577Y-24608258D01*
X12816876Y-24641198D01*
X12858802Y-24683124D01*
X12891742Y-24732423D01*
X12891743Y-24732425D01*
X12914433Y-24787203D01*
X12926000Y-24845353D01*
X12926000Y-24904647D01*
X12914433Y-24962797D01*
X12894423Y-25011104D01*
X12891742Y-25017577D01*
X12858802Y-25066876D01*
X12816876Y-25108802D01*
X12767577Y-25141742D01*
X12767576Y-25141743D01*
X12767575Y-25141743D01*
X12712797Y-25164433D01*
X12654647Y-25176000D01*
X12595353Y-25176000D01*
X12537203Y-25164433D01*
X12482425Y-25141743D01*
X12482424Y-25141743D01*
X12482423Y-25141742D01*
X12433124Y-25108802D01*
X12391198Y-25066876D01*
X12358258Y-25017577D01*
X12358257Y-25017575D01*
X12353933Y-25011104D01*
X12338388Y-24992162D01*
X12319446Y-24976617D01*
X12297835Y-24965066D01*
X12274386Y-24957953D01*
X12250000Y-24955551D01*
X12225614Y-24957953D01*
X12202165Y-24965066D01*
X12180554Y-24976617D01*
X12161612Y-24992162D01*
X12146067Y-25011104D01*
X12141743Y-25017575D01*
X12141742Y-25017577D01*
X12108802Y-25066876D01*
X12066876Y-25108802D01*
X12017577Y-25141742D01*
X12017576Y-25141743D01*
X12017575Y-25141743D01*
X11962797Y-25164433D01*
X11904647Y-25176000D01*
X11845353Y-25176000D01*
X11787203Y-25164433D01*
X11732425Y-25141743D01*
X11732424Y-25141743D01*
X11732423Y-25141742D01*
X11683124Y-25108802D01*
X11641198Y-25066876D01*
X11608258Y-25017577D01*
X11608257Y-25017575D01*
X11603933Y-25011104D01*
X11588388Y-24992162D01*
X11569446Y-24976617D01*
X11547835Y-24965066D01*
X11524386Y-24957953D01*
X11500000Y-24955551D01*
X11475614Y-24957953D01*
X11452165Y-24965066D01*
X11430554Y-24976617D01*
X11411612Y-24992162D01*
X11396067Y-25011104D01*
X11391743Y-25017575D01*
X11391742Y-25017577D01*
X11358802Y-25066876D01*
X11316876Y-25108802D01*
X11267577Y-25141742D01*
X11267576Y-25141743D01*
X11267575Y-25141743D01*
X11212797Y-25164433D01*
X11154647Y-25176000D01*
X11095353Y-25176000D01*
X11037203Y-25164433D01*
X10982425Y-25141743D01*
X10982424Y-25141743D01*
X10982423Y-25141742D01*
X10933124Y-25108802D01*
X10891198Y-25066876D01*
X10858258Y-25017577D01*
X10858257Y-25017575D01*
X10853933Y-25011104D01*
X10838388Y-24992162D01*
X10819446Y-24976617D01*
X10797835Y-24965066D01*
X10774386Y-24957953D01*
X10750000Y-24955551D01*
X10725614Y-24957953D01*
X10702165Y-24965066D01*
X10680554Y-24976617D01*
X10661612Y-24992162D01*
X10646067Y-25011104D01*
X10641743Y-25017575D01*
X10641742Y-25017577D01*
X10608802Y-25066876D01*
X10566876Y-25108802D01*
X10517577Y-25141742D01*
X10517576Y-25141743D01*
X10517575Y-25141743D01*
X10462797Y-25164433D01*
X10404647Y-25176000D01*
X10345353Y-25176000D01*
X10287203Y-25164433D01*
X10232425Y-25141743D01*
X10232424Y-25141743D01*
X10232423Y-25141742D01*
X10183124Y-25108802D01*
X10141198Y-25066876D01*
X10108258Y-25017577D01*
X10105577Y-25011104D01*
X10085567Y-24962797D01*
X10074000Y-24904647D01*
X10074000Y-24845353D01*
X10085567Y-24787203D01*
X10108257Y-24732425D01*
X10108258Y-24732423D01*
X10141198Y-24683124D01*
X10183124Y-24641198D01*
X10232423Y-24608258D01*
X10232425Y-24608257D01*
X10287203Y-24585567D01*
X10345353Y-24574000D01*
X10404647Y-24574000D01*
X10462797Y-24585567D01*
X10462797Y-24585567D01*
G37*
G36*
X-24037203Y-24585567D02*
G01*
X-23982425Y-24608257D01*
X-23982423Y-24608258D01*
X-23933124Y-24641198D01*
X-23891198Y-24683124D01*
X-23858258Y-24732423D01*
X-23853933Y-24738896D01*
X-23838388Y-24757838D01*
X-23819446Y-24773383D01*
X-23797835Y-24784934D01*
X-23774386Y-24792047D01*
X-23750000Y-24794449D01*
X-23725614Y-24792047D01*
X-23702165Y-24784934D01*
X-23680554Y-24773383D01*
X-23661612Y-24757838D01*
X-23646067Y-24738896D01*
X-23641742Y-24732423D01*
X-23608802Y-24683124D01*
X-23566876Y-24641198D01*
X-23517577Y-24608258D01*
X-23517575Y-24608257D01*
X-23462797Y-24585567D01*
X-23404647Y-24574000D01*
X-23345353Y-24574000D01*
X-23287203Y-24585567D01*
X-23232425Y-24608257D01*
X-23232423Y-24608258D01*
X-23183124Y-24641198D01*
X-23141198Y-24683124D01*
X-23108258Y-24732423D01*
X-23103933Y-24738896D01*
X-23088388Y-24757838D01*
X-23069446Y-24773383D01*
X-23047835Y-24784934D01*
X-23024386Y-24792047D01*
X-23000000Y-24794449D01*
X-22975614Y-24792047D01*
X-22952165Y-24784934D01*
X-22930554Y-24773383D01*
X-22911612Y-24757838D01*
X-22896067Y-24738896D01*
X-22891742Y-24732423D01*
X-22858802Y-24683124D01*
X-22816876Y-24641198D01*
X-22767577Y-24608258D01*
X-22767575Y-24608257D01*
X-22712797Y-24585567D01*
X-22654647Y-24574000D01*
X-22595353Y-24574000D01*
X-22537203Y-24585567D01*
X-22482425Y-24608257D01*
X-22482423Y-24608258D01*
X-22433124Y-24641198D01*
X-22391198Y-24683124D01*
X-22358258Y-24732423D01*
X-22353933Y-24738896D01*
X-22338388Y-24757838D01*
X-22319446Y-24773383D01*
X-22297835Y-24784934D01*
X-22274386Y-24792047D01*
X-22250000Y-24794449D01*
X-22225614Y-24792047D01*
X-22202165Y-24784934D01*
X-22180554Y-24773383D01*
X-22161612Y-24757838D01*
X-22146067Y-24738896D01*
X-22141742Y-24732423D01*
X-22108802Y-24683124D01*
X-22066876Y-24641198D01*
X-22017577Y-24608258D01*
X-22017575Y-24608257D01*
X-21962797Y-24585567D01*
X-21904647Y-24574000D01*
X-21845353Y-24574000D01*
X-21787203Y-24585567D01*
X-21732425Y-24608257D01*
X-21732423Y-24608258D01*
X-21683124Y-24641198D01*
X-21641198Y-24683124D01*
X-21608258Y-24732423D01*
X-21608257Y-24732425D01*
X-21585567Y-24787203D01*
X-21574000Y-24845353D01*
X-21574000Y-24904647D01*
X-21585567Y-24962797D01*
X-21605577Y-25011104D01*
X-21608258Y-25017577D01*
X-21641198Y-25066876D01*
X-21683124Y-25108802D01*
X-21732423Y-25141742D01*
X-21732424Y-25141743D01*
X-21732425Y-25141743D01*
X-21787203Y-25164433D01*
X-21845353Y-25176000D01*
X-21904647Y-25176000D01*
X-21962797Y-25164433D01*
X-22017575Y-25141743D01*
X-22017576Y-25141743D01*
X-22017577Y-25141742D01*
X-22066876Y-25108802D01*
X-22108802Y-25066876D01*
X-22141742Y-25017577D01*
X-22141743Y-25017575D01*
X-22146067Y-25011104D01*
X-22161612Y-24992162D01*
X-22180554Y-24976617D01*
X-22202165Y-24965066D01*
X-22225614Y-24957953D01*
X-22250000Y-24955551D01*
X-22274386Y-24957953D01*
X-22297835Y-24965066D01*
X-22319446Y-24976617D01*
X-22338388Y-24992162D01*
X-22353933Y-25011104D01*
X-22358257Y-25017575D01*
X-22358258Y-25017577D01*
X-22391198Y-25066876D01*
X-22433124Y-25108802D01*
X-22482423Y-25141742D01*
X-22482424Y-25141743D01*
X-22482425Y-25141743D01*
X-22537203Y-25164433D01*
X-22595353Y-25176000D01*
X-22654647Y-25176000D01*
X-22712797Y-25164433D01*
X-22767575Y-25141743D01*
X-22767576Y-25141743D01*
X-22767577Y-25141742D01*
X-22816876Y-25108802D01*
X-22858802Y-25066876D01*
X-22891742Y-25017577D01*
X-22891743Y-25017575D01*
X-22896067Y-25011104D01*
X-22911612Y-24992162D01*
X-22930554Y-24976617D01*
X-22952165Y-24965066D01*
X-22975614Y-24957953D01*
X-23000000Y-24955551D01*
X-23024386Y-24957953D01*
X-23047835Y-24965066D01*
X-23069446Y-24976617D01*
X-23088388Y-24992162D01*
X-23103933Y-25011104D01*
X-23108257Y-25017575D01*
X-23108258Y-25017577D01*
X-23141198Y-25066876D01*
X-23183124Y-25108802D01*
X-23232423Y-25141742D01*
X-23232424Y-25141743D01*
X-23232425Y-25141743D01*
X-23287203Y-25164433D01*
X-23345353Y-25176000D01*
X-23404647Y-25176000D01*
X-23462797Y-25164433D01*
X-23517575Y-25141743D01*
X-23517576Y-25141743D01*
X-23517577Y-25141742D01*
X-23566876Y-25108802D01*
X-23608802Y-25066876D01*
X-23641742Y-25017577D01*
X-23641743Y-25017575D01*
X-23646067Y-25011104D01*
X-23661612Y-24992162D01*
X-23680554Y-24976617D01*
X-23702165Y-24965066D01*
X-23725614Y-24957953D01*
X-23750000Y-24955551D01*
X-23774386Y-24957953D01*
X-23797835Y-24965066D01*
X-23819446Y-24976617D01*
X-23838388Y-24992162D01*
X-23853933Y-25011104D01*
X-23858257Y-25017575D01*
X-23858258Y-25017577D01*
X-23891198Y-25066876D01*
X-23933124Y-25108802D01*
X-23982423Y-25141742D01*
X-23982424Y-25141743D01*
X-23982425Y-25141743D01*
X-24037203Y-25164433D01*
X-24095353Y-25176000D01*
X-24154647Y-25176000D01*
X-24212797Y-25164433D01*
X-24267575Y-25141743D01*
X-24267576Y-25141743D01*
X-24267577Y-25141742D01*
X-24316876Y-25108802D01*
X-24358802Y-25066876D01*
X-24391742Y-25017577D01*
X-24394423Y-25011104D01*
X-24414433Y-24962797D01*
X-24426000Y-24904647D01*
X-24426000Y-24845353D01*
X-24414433Y-24787203D01*
X-24391743Y-24732425D01*
X-24391742Y-24732423D01*
X-24358802Y-24683124D01*
X-24316876Y-24641198D01*
X-24267577Y-24608258D01*
X-24267575Y-24608257D01*
X-24212797Y-24585567D01*
X-24154647Y-24574000D01*
X-24095353Y-24574000D01*
X-24037203Y-24585567D01*
X-24037203Y-24585567D01*
G37*
G36*
X-33537203Y-24585567D02*
G01*
X-33482425Y-24608257D01*
X-33482423Y-24608258D01*
X-33433124Y-24641198D01*
X-33391198Y-24683124D01*
X-33358258Y-24732423D01*
X-33353933Y-24738896D01*
X-33338388Y-24757838D01*
X-33319446Y-24773383D01*
X-33297835Y-24784934D01*
X-33274386Y-24792047D01*
X-33250000Y-24794449D01*
X-33225614Y-24792047D01*
X-33202165Y-24784934D01*
X-33180554Y-24773383D01*
X-33161612Y-24757838D01*
X-33146067Y-24738896D01*
X-33141742Y-24732423D01*
X-33108802Y-24683124D01*
X-33066876Y-24641198D01*
X-33017577Y-24608258D01*
X-33017575Y-24608257D01*
X-32962797Y-24585567D01*
X-32904647Y-24574000D01*
X-32845353Y-24574000D01*
X-32787203Y-24585567D01*
X-32732425Y-24608257D01*
X-32732423Y-24608258D01*
X-32683124Y-24641198D01*
X-32641198Y-24683124D01*
X-32608258Y-24732423D01*
X-32603933Y-24738896D01*
X-32588388Y-24757838D01*
X-32569446Y-24773383D01*
X-32547835Y-24784934D01*
X-32524386Y-24792047D01*
X-32500000Y-24794449D01*
X-32475614Y-24792047D01*
X-32452165Y-24784934D01*
X-32430554Y-24773383D01*
X-32411612Y-24757838D01*
X-32396067Y-24738896D01*
X-32391742Y-24732423D01*
X-32358802Y-24683124D01*
X-32316876Y-24641198D01*
X-32267577Y-24608258D01*
X-32267575Y-24608257D01*
X-32212797Y-24585567D01*
X-32154647Y-24574000D01*
X-32095353Y-24574000D01*
X-32037203Y-24585567D01*
X-31982425Y-24608257D01*
X-31982423Y-24608258D01*
X-31933124Y-24641198D01*
X-31891198Y-24683124D01*
X-31858258Y-24732423D01*
X-31853933Y-24738896D01*
X-31838388Y-24757838D01*
X-31819446Y-24773383D01*
X-31797835Y-24784934D01*
X-31774386Y-24792047D01*
X-31750000Y-24794449D01*
X-31725614Y-24792047D01*
X-31702165Y-24784934D01*
X-31680554Y-24773383D01*
X-31661612Y-24757838D01*
X-31646067Y-24738896D01*
X-31641742Y-24732423D01*
X-31608802Y-24683124D01*
X-31566876Y-24641198D01*
X-31517577Y-24608258D01*
X-31517575Y-24608257D01*
X-31462797Y-24585567D01*
X-31404647Y-24574000D01*
X-31345353Y-24574000D01*
X-31287203Y-24585567D01*
X-31232425Y-24608257D01*
X-31232423Y-24608258D01*
X-31183124Y-24641198D01*
X-31141198Y-24683124D01*
X-31108258Y-24732423D01*
X-31108257Y-24732425D01*
X-31085567Y-24787203D01*
X-31074000Y-24845353D01*
X-31074000Y-24904647D01*
X-31085567Y-24962797D01*
X-31105577Y-25011104D01*
X-31108258Y-25017577D01*
X-31141198Y-25066876D01*
X-31183124Y-25108802D01*
X-31232423Y-25141742D01*
X-31232424Y-25141743D01*
X-31232425Y-25141743D01*
X-31287203Y-25164433D01*
X-31345353Y-25176000D01*
X-31404647Y-25176000D01*
X-31462797Y-25164433D01*
X-31517575Y-25141743D01*
X-31517576Y-25141743D01*
X-31517577Y-25141742D01*
X-31566876Y-25108802D01*
X-31608802Y-25066876D01*
X-31641742Y-25017577D01*
X-31641743Y-25017575D01*
X-31646067Y-25011104D01*
X-31661612Y-24992162D01*
X-31680554Y-24976617D01*
X-31702165Y-24965066D01*
X-31725614Y-24957953D01*
X-31750000Y-24955551D01*
X-31774386Y-24957953D01*
X-31797835Y-24965066D01*
X-31819446Y-24976617D01*
X-31838388Y-24992162D01*
X-31853933Y-25011104D01*
X-31858257Y-25017575D01*
X-31858258Y-25017577D01*
X-31891198Y-25066876D01*
X-31933124Y-25108802D01*
X-31982423Y-25141742D01*
X-31982424Y-25141743D01*
X-31982425Y-25141743D01*
X-32037203Y-25164433D01*
X-32095353Y-25176000D01*
X-32154647Y-25176000D01*
X-32212797Y-25164433D01*
X-32267575Y-25141743D01*
X-32267576Y-25141743D01*
X-32267577Y-25141742D01*
X-32316876Y-25108802D01*
X-32358802Y-25066876D01*
X-32391742Y-25017577D01*
X-32391743Y-25017575D01*
X-32396067Y-25011104D01*
X-32411612Y-24992162D01*
X-32430554Y-24976617D01*
X-32452165Y-24965066D01*
X-32475614Y-24957953D01*
X-32500000Y-24955551D01*
X-32524386Y-24957953D01*
X-32547835Y-24965066D01*
X-32569446Y-24976617D01*
X-32588388Y-24992162D01*
X-32603933Y-25011104D01*
X-32608257Y-25017575D01*
X-32608258Y-25017577D01*
X-32641198Y-25066876D01*
X-32683124Y-25108802D01*
X-32732423Y-25141742D01*
X-32732424Y-25141743D01*
X-32732425Y-25141743D01*
X-32787203Y-25164433D01*
X-32845353Y-25176000D01*
X-32904647Y-25176000D01*
X-32962797Y-25164433D01*
X-33017575Y-25141743D01*
X-33017576Y-25141743D01*
X-33017577Y-25141742D01*
X-33066876Y-25108802D01*
X-33108802Y-25066876D01*
X-33141742Y-25017577D01*
X-33141743Y-25017575D01*
X-33146067Y-25011104D01*
X-33161612Y-24992162D01*
X-33180554Y-24976617D01*
X-33202165Y-24965066D01*
X-33225614Y-24957953D01*
X-33250000Y-24955551D01*
X-33274386Y-24957953D01*
X-33297835Y-24965066D01*
X-33319446Y-24976617D01*
X-33338388Y-24992162D01*
X-33353933Y-25011104D01*
X-33358257Y-25017575D01*
X-33358258Y-25017577D01*
X-33391198Y-25066876D01*
X-33433124Y-25108802D01*
X-33482423Y-25141742D01*
X-33482424Y-25141743D01*
X-33482425Y-25141743D01*
X-33537203Y-25164433D01*
X-33595353Y-25176000D01*
X-33654647Y-25176000D01*
X-33712797Y-25164433D01*
X-33767575Y-25141743D01*
X-33767576Y-25141743D01*
X-33767577Y-25141742D01*
X-33816876Y-25108802D01*
X-33858802Y-25066876D01*
X-33891742Y-25017577D01*
X-33894423Y-25011104D01*
X-33914433Y-24962797D01*
X-33926000Y-24904647D01*
X-33926000Y-24845353D01*
X-33914433Y-24787203D01*
X-33891743Y-24732425D01*
X-33891742Y-24732423D01*
X-33858802Y-24683124D01*
X-33816876Y-24641198D01*
X-33767577Y-24608258D01*
X-33767575Y-24608257D01*
X-33712797Y-24585567D01*
X-33654647Y-24574000D01*
X-33595353Y-24574000D01*
X-33537203Y-24585567D01*
X-33537203Y-24585567D01*
G37*
G36*
X19962797Y-24585567D02*
G01*
X20017575Y-24608257D01*
X20017577Y-24608258D01*
X20066876Y-24641198D01*
X20108802Y-24683124D01*
X20141742Y-24732423D01*
X20146067Y-24738896D01*
X20161612Y-24757838D01*
X20180554Y-24773383D01*
X20202165Y-24784934D01*
X20225614Y-24792047D01*
X20250000Y-24794449D01*
X20274386Y-24792047D01*
X20297835Y-24784934D01*
X20319446Y-24773383D01*
X20338388Y-24757838D01*
X20353933Y-24738896D01*
X20358258Y-24732423D01*
X20391198Y-24683124D01*
X20433124Y-24641198D01*
X20482423Y-24608258D01*
X20482425Y-24608257D01*
X20537203Y-24585567D01*
X20595353Y-24574000D01*
X20654647Y-24574000D01*
X20712797Y-24585567D01*
X20767575Y-24608257D01*
X20767577Y-24608258D01*
X20816876Y-24641198D01*
X20858802Y-24683124D01*
X20891742Y-24732423D01*
X20896067Y-24738896D01*
X20911612Y-24757838D01*
X20930554Y-24773383D01*
X20952165Y-24784934D01*
X20975614Y-24792047D01*
X21000000Y-24794449D01*
X21024386Y-24792047D01*
X21047835Y-24784934D01*
X21069446Y-24773383D01*
X21088388Y-24757838D01*
X21103933Y-24738896D01*
X21108258Y-24732423D01*
X21141198Y-24683124D01*
X21183124Y-24641198D01*
X21232423Y-24608258D01*
X21232425Y-24608257D01*
X21287203Y-24585567D01*
X21345353Y-24574000D01*
X21404647Y-24574000D01*
X21462797Y-24585567D01*
X21517575Y-24608257D01*
X21517577Y-24608258D01*
X21566876Y-24641198D01*
X21608802Y-24683124D01*
X21641742Y-24732423D01*
X21646067Y-24738896D01*
X21661612Y-24757838D01*
X21680554Y-24773383D01*
X21702165Y-24784934D01*
X21725614Y-24792047D01*
X21750000Y-24794449D01*
X21774386Y-24792047D01*
X21797835Y-24784934D01*
X21819446Y-24773383D01*
X21838388Y-24757838D01*
X21853933Y-24738896D01*
X21858258Y-24732423D01*
X21891198Y-24683124D01*
X21933124Y-24641198D01*
X21982423Y-24608258D01*
X21982425Y-24608257D01*
X22037203Y-24585567D01*
X22095353Y-24574000D01*
X22154647Y-24574000D01*
X22212797Y-24585567D01*
X22267575Y-24608257D01*
X22267577Y-24608258D01*
X22316876Y-24641198D01*
X22358802Y-24683124D01*
X22391742Y-24732423D01*
X22391743Y-24732425D01*
X22414433Y-24787203D01*
X22426000Y-24845353D01*
X22426000Y-24904647D01*
X22414433Y-24962797D01*
X22394423Y-25011104D01*
X22391742Y-25017577D01*
X22358802Y-25066876D01*
X22316876Y-25108802D01*
X22267577Y-25141742D01*
X22267576Y-25141743D01*
X22267575Y-25141743D01*
X22212797Y-25164433D01*
X22154647Y-25176000D01*
X22095353Y-25176000D01*
X22037203Y-25164433D01*
X21982425Y-25141743D01*
X21982424Y-25141743D01*
X21982423Y-25141742D01*
X21933124Y-25108802D01*
X21891198Y-25066876D01*
X21858258Y-25017577D01*
X21858257Y-25017575D01*
X21853933Y-25011104D01*
X21838388Y-24992162D01*
X21819446Y-24976617D01*
X21797835Y-24965066D01*
X21774386Y-24957953D01*
X21750000Y-24955551D01*
X21725614Y-24957953D01*
X21702165Y-24965066D01*
X21680554Y-24976617D01*
X21661612Y-24992162D01*
X21646067Y-25011104D01*
X21641743Y-25017575D01*
X21641742Y-25017577D01*
X21608802Y-25066876D01*
X21566876Y-25108802D01*
X21517577Y-25141742D01*
X21517576Y-25141743D01*
X21517575Y-25141743D01*
X21462797Y-25164433D01*
X21404647Y-25176000D01*
X21345353Y-25176000D01*
X21287203Y-25164433D01*
X21232425Y-25141743D01*
X21232424Y-25141743D01*
X21232423Y-25141742D01*
X21183124Y-25108802D01*
X21141198Y-25066876D01*
X21108258Y-25017577D01*
X21108257Y-25017575D01*
X21103933Y-25011104D01*
X21088388Y-24992162D01*
X21069446Y-24976617D01*
X21047835Y-24965066D01*
X21024386Y-24957953D01*
X21000000Y-24955551D01*
X20975614Y-24957953D01*
X20952165Y-24965066D01*
X20930554Y-24976617D01*
X20911612Y-24992162D01*
X20896067Y-25011104D01*
X20891743Y-25017575D01*
X20891742Y-25017577D01*
X20858802Y-25066876D01*
X20816876Y-25108802D01*
X20767577Y-25141742D01*
X20767576Y-25141743D01*
X20767575Y-25141743D01*
X20712797Y-25164433D01*
X20654647Y-25176000D01*
X20595353Y-25176000D01*
X20537203Y-25164433D01*
X20482425Y-25141743D01*
X20482424Y-25141743D01*
X20482423Y-25141742D01*
X20433124Y-25108802D01*
X20391198Y-25066876D01*
X20358258Y-25017577D01*
X20358257Y-25017575D01*
X20353933Y-25011104D01*
X20338388Y-24992162D01*
X20319446Y-24976617D01*
X20297835Y-24965066D01*
X20274386Y-24957953D01*
X20250000Y-24955551D01*
X20225614Y-24957953D01*
X20202165Y-24965066D01*
X20180554Y-24976617D01*
X20161612Y-24992162D01*
X20146067Y-25011104D01*
X20141743Y-25017575D01*
X20141742Y-25017577D01*
X20108802Y-25066876D01*
X20066876Y-25108802D01*
X20017577Y-25141742D01*
X20017576Y-25141743D01*
X20017575Y-25141743D01*
X19962797Y-25164433D01*
X19904647Y-25176000D01*
X19845353Y-25176000D01*
X19787203Y-25164433D01*
X19732425Y-25141743D01*
X19732424Y-25141743D01*
X19732423Y-25141742D01*
X19683124Y-25108802D01*
X19641198Y-25066876D01*
X19608258Y-25017577D01*
X19605577Y-25011104D01*
X19585567Y-24962797D01*
X19574000Y-24904647D01*
X19574000Y-24845353D01*
X19585567Y-24787203D01*
X19608257Y-24732425D01*
X19608258Y-24732423D01*
X19641198Y-24683124D01*
X19683124Y-24641198D01*
X19732423Y-24608258D01*
X19732425Y-24608257D01*
X19787203Y-24585567D01*
X19845353Y-24574000D01*
X19904647Y-24574000D01*
X19962797Y-24585567D01*
X19962797Y-24585567D01*
G37*
G36*
X-23110057Y-16316248D02*
G01*
X-22554811Y-16546238D01*
X-22380807Y-16662504D01*
X-22055101Y-16880134D01*
X-21630134Y-17305101D01*
X-21560026Y-17410025D01*
X-21296238Y-17804811D01*
X-21066248Y-18360057D01*
X-20949000Y-18949501D01*
X-20949000Y-19550499D01*
X-21066248Y-20139943D01*
X-21296238Y-20695189D01*
X-21329383Y-20744794D01*
X-21630134Y-21194899D01*
X-22055101Y-21619866D01*
X-22276163Y-21767575D01*
X-22554811Y-21953762D01*
X-23110057Y-22183752D01*
X-23699501Y-22301000D01*
X-24300499Y-22301000D01*
X-24889943Y-22183752D01*
X-25445189Y-21953762D01*
X-25723837Y-21767575D01*
X-25944899Y-21619866D01*
X-26369866Y-21194899D01*
X-26670617Y-20744794D01*
X-26703762Y-20695189D01*
X-26879087Y-20271916D01*
X-26890638Y-20250305D01*
X-26906183Y-20231363D01*
X-26925125Y-20215818D01*
X-26946736Y-20204267D01*
X-26970185Y-20197154D01*
X-26994571Y-20194752D01*
X-27018957Y-20197154D01*
X-27042406Y-20204267D01*
X-27064017Y-20215818D01*
X-27082959Y-20231363D01*
X-27098504Y-20250305D01*
X-27105647Y-20263670D01*
X-27108258Y-20267577D01*
X-27141198Y-20316876D01*
X-27183124Y-20358802D01*
X-27232423Y-20391742D01*
X-27238896Y-20396067D01*
X-27257838Y-20411612D01*
X-27273383Y-20430554D01*
X-27284934Y-20452165D01*
X-27292047Y-20475614D01*
X-27294449Y-20500000D01*
X-27292047Y-20524386D01*
X-27284934Y-20547835D01*
X-27273383Y-20569446D01*
X-27257838Y-20588388D01*
X-27238896Y-20603933D01*
X-27232423Y-20608258D01*
X-27183124Y-20641198D01*
X-27141198Y-20683124D01*
X-27108258Y-20732423D01*
X-27108257Y-20732425D01*
X-27085567Y-20787203D01*
X-27074000Y-20845353D01*
X-27074000Y-20904647D01*
X-27085567Y-20962797D01*
X-27102307Y-21003211D01*
X-27108258Y-21017577D01*
X-27141198Y-21066876D01*
X-27183124Y-21108802D01*
X-27194394Y-21116332D01*
X-27238896Y-21146067D01*
X-27257838Y-21161612D01*
X-27273383Y-21180554D01*
X-27284934Y-21202165D01*
X-27292047Y-21225614D01*
X-27294449Y-21250000D01*
X-27292047Y-21274386D01*
X-27284934Y-21297835D01*
X-27273383Y-21319446D01*
X-27257838Y-21338388D01*
X-27238896Y-21353933D01*
X-27232423Y-21358258D01*
X-27183124Y-21391198D01*
X-27141198Y-21433124D01*
X-27108258Y-21482423D01*
X-27108257Y-21482425D01*
X-27085567Y-21537203D01*
X-27074000Y-21595353D01*
X-27074000Y-21654647D01*
X-27085567Y-21712797D01*
X-27108257Y-21767575D01*
X-27108258Y-21767577D01*
X-27141198Y-21816876D01*
X-27183124Y-21858802D01*
X-27232423Y-21891742D01*
X-27232424Y-21891743D01*
X-27232425Y-21891743D01*
X-27287203Y-21914433D01*
X-27345353Y-21926000D01*
X-27404647Y-21926000D01*
X-27462797Y-21914433D01*
X-27517575Y-21891743D01*
X-27517576Y-21891743D01*
X-27517577Y-21891742D01*
X-27566876Y-21858802D01*
X-27608802Y-21816876D01*
X-27641742Y-21767577D01*
X-27641743Y-21767575D01*
X-27664433Y-21712797D01*
X-27676000Y-21654647D01*
X-27676000Y-21595353D01*
X-27664433Y-21537203D01*
X-27641743Y-21482425D01*
X-27641742Y-21482423D01*
X-27608802Y-21433124D01*
X-27566876Y-21391198D01*
X-27517577Y-21358258D01*
X-27511104Y-21353933D01*
X-27492162Y-21338388D01*
X-27476617Y-21319446D01*
X-27465066Y-21297835D01*
X-27457953Y-21274386D01*
X-27455551Y-21250000D01*
X-27457953Y-21225614D01*
X-27465066Y-21202165D01*
X-27476617Y-21180554D01*
X-27492162Y-21161612D01*
X-27511104Y-21146067D01*
X-27555606Y-21116332D01*
X-27566876Y-21108802D01*
X-27608802Y-21066876D01*
X-27641742Y-21017577D01*
X-27647693Y-21003211D01*
X-27664433Y-20962797D01*
X-27676000Y-20904647D01*
X-27676000Y-20845353D01*
X-27664433Y-20787203D01*
X-27641743Y-20732425D01*
X-27641742Y-20732423D01*
X-27608802Y-20683124D01*
X-27566876Y-20641198D01*
X-27517577Y-20608258D01*
X-27511104Y-20603933D01*
X-27492162Y-20588388D01*
X-27476617Y-20569446D01*
X-27465066Y-20547835D01*
X-27457953Y-20524386D01*
X-27455551Y-20500000D01*
X-27457953Y-20475614D01*
X-27465066Y-20452165D01*
X-27476617Y-20430554D01*
X-27492162Y-20411612D01*
X-27511104Y-20396067D01*
X-27517577Y-20391742D01*
X-27566876Y-20358802D01*
X-27608802Y-20316876D01*
X-27641742Y-20267577D01*
X-27641743Y-20267575D01*
X-27664433Y-20212797D01*
X-27676000Y-20154647D01*
X-27676000Y-20095353D01*
X-27664433Y-20037203D01*
X-27641743Y-19982425D01*
X-27641742Y-19982423D01*
X-27608802Y-19933124D01*
X-27566876Y-19891198D01*
X-27517577Y-19858258D01*
X-27511104Y-19853933D01*
X-27492162Y-19838388D01*
X-27476617Y-19819446D01*
X-27465066Y-19797835D01*
X-27457953Y-19774386D01*
X-27455551Y-19750000D01*
X-27455551Y-19749999D01*
X-27294449Y-19749999D01*
X-27292047Y-19774385D01*
X-27284934Y-19797834D01*
X-27273383Y-19819445D01*
X-27257838Y-19838387D01*
X-27238895Y-19853933D01*
X-27203506Y-19877579D01*
X-27181896Y-19889130D01*
X-27158447Y-19896243D01*
X-27134061Y-19898645D01*
X-27109674Y-19896243D01*
X-27086226Y-19889130D01*
X-27064615Y-19877579D01*
X-27045673Y-19862033D01*
X-27030128Y-19843091D01*
X-27018577Y-19821481D01*
X-27011464Y-19798032D01*
X-27009062Y-19773646D01*
X-27011464Y-19749261D01*
X-27019767Y-19707517D01*
X-27026880Y-19684068D01*
X-27038430Y-19662457D01*
X-27053976Y-19643515D01*
X-27072917Y-19627970D01*
X-27094528Y-19616418D01*
X-27117977Y-19609305D01*
X-27142363Y-19606903D01*
X-27166749Y-19609305D01*
X-27190198Y-19616418D01*
X-27211809Y-19627969D01*
X-27238895Y-19646067D01*
X-27257837Y-19661612D01*
X-27273382Y-19680554D01*
X-27284934Y-19702164D01*
X-27292047Y-19725613D01*
X-27294449Y-19749999D01*
X-27455551Y-19749999D01*
X-27457953Y-19725614D01*
X-27465066Y-19702165D01*
X-27476617Y-19680554D01*
X-27492162Y-19661612D01*
X-27511104Y-19646067D01*
X-27517577Y-19641742D01*
X-27566876Y-19608802D01*
X-27608802Y-19566876D01*
X-27641742Y-19517577D01*
X-27641743Y-19517575D01*
X-27664433Y-19462797D01*
X-27676000Y-19404647D01*
X-27676000Y-19345353D01*
X-27664433Y-19287203D01*
X-27641743Y-19232425D01*
X-27623806Y-19205580D01*
X-27608802Y-19183124D01*
X-27566876Y-19141198D01*
X-27517577Y-19108258D01*
X-27498278Y-19100264D01*
X-27462797Y-19085567D01*
X-27404647Y-19074000D01*
X-27345353Y-19074000D01*
X-27287203Y-19085567D01*
X-27223834Y-19111815D01*
X-27200385Y-19118928D01*
X-27175999Y-19121330D01*
X-27151613Y-19118928D01*
X-27128164Y-19111815D01*
X-27106553Y-19100264D01*
X-27087611Y-19084718D01*
X-27072066Y-19065777D01*
X-27060515Y-19044166D01*
X-27053402Y-19020717D01*
X-27051000Y-18996331D01*
X-27051000Y-18949501D01*
X-26933752Y-18360057D01*
X-26703762Y-17804811D01*
X-26439974Y-17410025D01*
X-26369866Y-17305101D01*
X-25944899Y-16880134D01*
X-25619193Y-16662504D01*
X-25445189Y-16546238D01*
X-24889943Y-16316248D01*
X-24300499Y-16199000D01*
X-23699501Y-16199000D01*
X-23110057Y-16316248D01*
X-23110057Y-16316248D01*
G37*
G36*
X13389943Y-16316248D02*
G01*
X13945189Y-16546238D01*
X14119193Y-16662504D01*
X14444899Y-16880134D01*
X14869866Y-17305101D01*
X14939974Y-17410025D01*
X15203762Y-17804811D01*
X15433752Y-18360057D01*
X15551000Y-18949501D01*
X15551000Y-18996331D01*
X15553402Y-19020717D01*
X15560515Y-19044166D01*
X15572066Y-19065777D01*
X15587611Y-19084719D01*
X15606553Y-19100264D01*
X15628164Y-19111815D01*
X15651613Y-19118928D01*
X15675999Y-19121330D01*
X15700385Y-19118928D01*
X15723834Y-19111815D01*
X15787203Y-19085567D01*
X15845353Y-19074000D01*
X15904647Y-19074000D01*
X15962797Y-19085567D01*
X15998278Y-19100264D01*
X16017577Y-19108258D01*
X16066876Y-19141198D01*
X16108802Y-19183124D01*
X16123806Y-19205580D01*
X16141743Y-19232425D01*
X16164433Y-19287203D01*
X16176000Y-19345353D01*
X16176000Y-19404647D01*
X16164433Y-19462797D01*
X16141743Y-19517575D01*
X16141742Y-19517577D01*
X16108802Y-19566876D01*
X16066876Y-19608802D01*
X16017577Y-19641742D01*
X16011104Y-19646067D01*
X15992162Y-19661612D01*
X15976617Y-19680554D01*
X15965066Y-19702165D01*
X15957953Y-19725614D01*
X15955551Y-19750000D01*
X15957953Y-19774386D01*
X15965066Y-19797835D01*
X15976617Y-19819446D01*
X15992162Y-19838388D01*
X16011104Y-19853933D01*
X16017577Y-19858258D01*
X16066876Y-19891198D01*
X16108802Y-19933124D01*
X16141742Y-19982423D01*
X16141743Y-19982425D01*
X16164433Y-20037203D01*
X16176000Y-20095353D01*
X16176000Y-20154647D01*
X16164433Y-20212797D01*
X16141743Y-20267575D01*
X16141742Y-20267577D01*
X16108802Y-20316876D01*
X16066876Y-20358802D01*
X16017577Y-20391742D01*
X16011104Y-20396067D01*
X15992162Y-20411612D01*
X15976617Y-20430554D01*
X15965066Y-20452165D01*
X15957953Y-20475614D01*
X15955551Y-20500000D01*
X15957953Y-20524386D01*
X15965066Y-20547835D01*
X15976617Y-20569446D01*
X15992162Y-20588388D01*
X16011104Y-20603933D01*
X16017577Y-20608258D01*
X16066876Y-20641198D01*
X16108802Y-20683124D01*
X16141742Y-20732423D01*
X16141743Y-20732425D01*
X16164433Y-20787203D01*
X16176000Y-20845353D01*
X16176000Y-20904647D01*
X16164433Y-20962797D01*
X16147693Y-21003211D01*
X16141742Y-21017577D01*
X16108802Y-21066876D01*
X16066876Y-21108802D01*
X16055606Y-21116332D01*
X16011104Y-21146067D01*
X15992162Y-21161612D01*
X15976617Y-21180554D01*
X15965066Y-21202165D01*
X15957953Y-21225614D01*
X15955551Y-21250000D01*
X15957953Y-21274386D01*
X15965066Y-21297835D01*
X15976617Y-21319446D01*
X15992162Y-21338388D01*
X16011104Y-21353933D01*
X16017577Y-21358258D01*
X16066876Y-21391198D01*
X16108802Y-21433124D01*
X16141742Y-21482423D01*
X16141743Y-21482425D01*
X16164433Y-21537203D01*
X16176000Y-21595353D01*
X16176000Y-21654647D01*
X16164433Y-21712797D01*
X16141743Y-21767575D01*
X16141742Y-21767577D01*
X16108802Y-21816876D01*
X16066876Y-21858802D01*
X16017577Y-21891742D01*
X16017576Y-21891743D01*
X16017575Y-21891743D01*
X15962797Y-21914433D01*
X15904647Y-21926000D01*
X15845353Y-21926000D01*
X15787203Y-21914433D01*
X15732425Y-21891743D01*
X15732424Y-21891743D01*
X15732423Y-21891742D01*
X15683124Y-21858802D01*
X15641198Y-21816876D01*
X15608258Y-21767577D01*
X15608257Y-21767575D01*
X15585567Y-21712797D01*
X15574000Y-21654647D01*
X15574000Y-21595353D01*
X15585567Y-21537203D01*
X15608257Y-21482425D01*
X15608258Y-21482423D01*
X15641198Y-21433124D01*
X15683124Y-21391198D01*
X15732423Y-21358258D01*
X15738896Y-21353933D01*
X15757838Y-21338388D01*
X15773383Y-21319446D01*
X15784934Y-21297835D01*
X15792047Y-21274386D01*
X15794449Y-21250000D01*
X15792047Y-21225614D01*
X15784934Y-21202165D01*
X15773383Y-21180554D01*
X15757838Y-21161612D01*
X15738896Y-21146067D01*
X15694394Y-21116332D01*
X15683124Y-21108802D01*
X15641198Y-21066876D01*
X15608258Y-21017577D01*
X15602307Y-21003211D01*
X15585567Y-20962797D01*
X15574000Y-20904647D01*
X15574000Y-20845353D01*
X15585567Y-20787203D01*
X15608257Y-20732425D01*
X15608258Y-20732423D01*
X15641198Y-20683124D01*
X15683124Y-20641198D01*
X15732423Y-20608258D01*
X15738896Y-20603933D01*
X15757838Y-20588388D01*
X15773383Y-20569446D01*
X15784934Y-20547835D01*
X15792047Y-20524386D01*
X15794449Y-20500000D01*
X15792047Y-20475614D01*
X15784934Y-20452165D01*
X15773383Y-20430554D01*
X15757838Y-20411612D01*
X15738896Y-20396067D01*
X15732423Y-20391742D01*
X15683124Y-20358802D01*
X15641198Y-20316876D01*
X15608258Y-20267577D01*
X15605647Y-20263670D01*
X15598504Y-20250305D01*
X15582959Y-20231363D01*
X15564017Y-20215818D01*
X15542406Y-20204267D01*
X15518957Y-20197154D01*
X15494571Y-20194752D01*
X15470185Y-20197154D01*
X15446736Y-20204267D01*
X15425125Y-20215818D01*
X15406183Y-20231363D01*
X15390638Y-20250305D01*
X15379087Y-20271916D01*
X15203762Y-20695189D01*
X15170617Y-20744794D01*
X14869866Y-21194899D01*
X14444899Y-21619866D01*
X14223837Y-21767575D01*
X13945189Y-21953762D01*
X13389943Y-22183752D01*
X12800499Y-22301000D01*
X12199501Y-22301000D01*
X11610057Y-22183752D01*
X11054811Y-21953762D01*
X10776163Y-21767575D01*
X10555101Y-21619866D01*
X10130134Y-21194899D01*
X9829383Y-20744794D01*
X9796238Y-20695189D01*
X9566248Y-20139943D01*
X9493388Y-19773647D01*
X15509062Y-19773647D01*
X15511464Y-19798033D01*
X15518577Y-19821482D01*
X15530129Y-19843093D01*
X15545674Y-19862034D01*
X15564616Y-19877580D01*
X15586227Y-19889130D01*
X15609676Y-19896243D01*
X15634062Y-19898645D01*
X15658448Y-19896243D01*
X15681897Y-19889130D01*
X15703506Y-19877579D01*
X15738895Y-19853933D01*
X15757837Y-19838388D01*
X15773383Y-19819446D01*
X15784934Y-19797835D01*
X15792047Y-19774387D01*
X15794449Y-19750000D01*
X15792047Y-19725614D01*
X15784934Y-19702165D01*
X15773383Y-19680555D01*
X15757838Y-19661613D01*
X15738895Y-19646067D01*
X15711809Y-19627969D01*
X15690198Y-19616418D01*
X15666749Y-19609305D01*
X15642363Y-19606903D01*
X15617977Y-19609305D01*
X15594528Y-19616418D01*
X15572918Y-19627970D01*
X15553976Y-19643515D01*
X15538431Y-19662457D01*
X15526880Y-19684068D01*
X15519767Y-19707517D01*
X15511464Y-19749261D01*
X15509062Y-19773647D01*
X9493388Y-19773647D01*
X9449000Y-19550499D01*
X9449000Y-18949501D01*
X9566248Y-18360057D01*
X9796238Y-17804811D01*
X10060026Y-17410025D01*
X10130134Y-17305101D01*
X10555101Y-16880134D01*
X10880807Y-16662504D01*
X11054811Y-16546238D01*
X11610057Y-16316248D01*
X12199501Y-16199000D01*
X12800499Y-16199000D01*
X13389943Y-16316248D01*
X13389943Y-16316248D01*
G37*
G36*
X-29537203Y-19085567D02*
G01*
X-29501722Y-19100264D01*
X-29482423Y-19108258D01*
X-29433124Y-19141198D01*
X-29391198Y-19183124D01*
X-29376194Y-19205580D01*
X-29358257Y-19232425D01*
X-29335567Y-19287203D01*
X-29324000Y-19345353D01*
X-29324000Y-19404647D01*
X-29335567Y-19462797D01*
X-29358257Y-19517575D01*
X-29358258Y-19517577D01*
X-29391198Y-19566876D01*
X-29433124Y-19608802D01*
X-29482423Y-19641742D01*
X-29488896Y-19646067D01*
X-29507838Y-19661612D01*
X-29523383Y-19680554D01*
X-29534934Y-19702165D01*
X-29542047Y-19725614D01*
X-29544449Y-19750000D01*
X-29542047Y-19774386D01*
X-29534934Y-19797835D01*
X-29523383Y-19819446D01*
X-29507838Y-19838388D01*
X-29488896Y-19853933D01*
X-29482423Y-19858258D01*
X-29433124Y-19891198D01*
X-29391198Y-19933124D01*
X-29358258Y-19982423D01*
X-29358257Y-19982425D01*
X-29335567Y-20037203D01*
X-29324000Y-20095353D01*
X-29324000Y-20154647D01*
X-29335567Y-20212797D01*
X-29358257Y-20267575D01*
X-29358258Y-20267577D01*
X-29391198Y-20316876D01*
X-29433124Y-20358802D01*
X-29482423Y-20391742D01*
X-29488896Y-20396067D01*
X-29507838Y-20411612D01*
X-29523383Y-20430554D01*
X-29534934Y-20452165D01*
X-29542047Y-20475614D01*
X-29544449Y-20500000D01*
X-29542047Y-20524386D01*
X-29534934Y-20547835D01*
X-29523383Y-20569446D01*
X-29507838Y-20588388D01*
X-29488896Y-20603933D01*
X-29482423Y-20608258D01*
X-29433124Y-20641198D01*
X-29391198Y-20683124D01*
X-29358258Y-20732423D01*
X-29358257Y-20732425D01*
X-29335567Y-20787203D01*
X-29324000Y-20845353D01*
X-29324000Y-20904647D01*
X-29335567Y-20962797D01*
X-29352307Y-21003211D01*
X-29358258Y-21017577D01*
X-29391198Y-21066876D01*
X-29433124Y-21108802D01*
X-29444394Y-21116332D01*
X-29488896Y-21146067D01*
X-29507838Y-21161612D01*
X-29523383Y-21180554D01*
X-29534934Y-21202165D01*
X-29542047Y-21225614D01*
X-29544449Y-21250000D01*
X-29542047Y-21274386D01*
X-29534934Y-21297835D01*
X-29523383Y-21319446D01*
X-29507838Y-21338388D01*
X-29488896Y-21353933D01*
X-29482423Y-21358258D01*
X-29433124Y-21391198D01*
X-29391198Y-21433124D01*
X-29358258Y-21482423D01*
X-29358257Y-21482425D01*
X-29335567Y-21537203D01*
X-29324000Y-21595353D01*
X-29324000Y-21654647D01*
X-29335567Y-21712797D01*
X-29358257Y-21767575D01*
X-29358258Y-21767577D01*
X-29391198Y-21816876D01*
X-29433124Y-21858802D01*
X-29482423Y-21891742D01*
X-29482424Y-21891743D01*
X-29482425Y-21891743D01*
X-29537203Y-21914433D01*
X-29595353Y-21926000D01*
X-29654647Y-21926000D01*
X-29712797Y-21914433D01*
X-29767575Y-21891743D01*
X-29767576Y-21891743D01*
X-29767577Y-21891742D01*
X-29816876Y-21858802D01*
X-29858802Y-21816876D01*
X-29891742Y-21767577D01*
X-29891743Y-21767575D01*
X-29914433Y-21712797D01*
X-29926000Y-21654647D01*
X-29926000Y-21595353D01*
X-29914433Y-21537203D01*
X-29891743Y-21482425D01*
X-29891742Y-21482423D01*
X-29858802Y-21433124D01*
X-29816876Y-21391198D01*
X-29767577Y-21358258D01*
X-29761104Y-21353933D01*
X-29742162Y-21338388D01*
X-29726617Y-21319446D01*
X-29715066Y-21297835D01*
X-29707953Y-21274386D01*
X-29705551Y-21250000D01*
X-29707953Y-21225614D01*
X-29715066Y-21202165D01*
X-29726617Y-21180554D01*
X-29742162Y-21161612D01*
X-29761104Y-21146067D01*
X-29805606Y-21116332D01*
X-29816876Y-21108802D01*
X-29858802Y-21066876D01*
X-29891742Y-21017577D01*
X-29897693Y-21003211D01*
X-29914433Y-20962797D01*
X-29926000Y-20904647D01*
X-29926000Y-20845353D01*
X-29914433Y-20787203D01*
X-29891743Y-20732425D01*
X-29891742Y-20732423D01*
X-29858802Y-20683124D01*
X-29816876Y-20641198D01*
X-29767577Y-20608258D01*
X-29761104Y-20603933D01*
X-29742162Y-20588388D01*
X-29726617Y-20569446D01*
X-29715066Y-20547835D01*
X-29707953Y-20524386D01*
X-29705551Y-20500000D01*
X-29707953Y-20475614D01*
X-29715066Y-20452165D01*
X-29726617Y-20430554D01*
X-29742162Y-20411612D01*
X-29761104Y-20396067D01*
X-29767577Y-20391742D01*
X-29816876Y-20358802D01*
X-29858802Y-20316876D01*
X-29891742Y-20267577D01*
X-29891743Y-20267575D01*
X-29914433Y-20212797D01*
X-29926000Y-20154647D01*
X-29926000Y-20095353D01*
X-29914433Y-20037203D01*
X-29891743Y-19982425D01*
X-29891742Y-19982423D01*
X-29858802Y-19933124D01*
X-29816876Y-19891198D01*
X-29767577Y-19858258D01*
X-29761104Y-19853933D01*
X-29742162Y-19838388D01*
X-29726617Y-19819446D01*
X-29715066Y-19797835D01*
X-29707953Y-19774386D01*
X-29705551Y-19750000D01*
X-29707953Y-19725614D01*
X-29715066Y-19702165D01*
X-29726617Y-19680554D01*
X-29742162Y-19661612D01*
X-29761104Y-19646067D01*
X-29767577Y-19641742D01*
X-29816876Y-19608802D01*
X-29858802Y-19566876D01*
X-29891742Y-19517577D01*
X-29891743Y-19517575D01*
X-29914433Y-19462797D01*
X-29926000Y-19404647D01*
X-29926000Y-19345353D01*
X-29914433Y-19287203D01*
X-29891743Y-19232425D01*
X-29873806Y-19205580D01*
X-29858802Y-19183124D01*
X-29816876Y-19141198D01*
X-29767577Y-19108258D01*
X-29748278Y-19100264D01*
X-29712797Y-19085567D01*
X-29654647Y-19074000D01*
X-29595353Y-19074000D01*
X-29537203Y-19085567D01*
X-29537203Y-19085567D01*
G37*
G36*
X18212797Y-19085567D02*
G01*
X18248278Y-19100264D01*
X18267577Y-19108258D01*
X18316876Y-19141198D01*
X18358802Y-19183124D01*
X18373806Y-19205580D01*
X18391743Y-19232425D01*
X18414433Y-19287203D01*
X18426000Y-19345353D01*
X18426000Y-19404647D01*
X18414433Y-19462797D01*
X18391743Y-19517575D01*
X18391742Y-19517577D01*
X18358802Y-19566876D01*
X18316876Y-19608802D01*
X18267577Y-19641742D01*
X18261104Y-19646067D01*
X18242162Y-19661612D01*
X18226617Y-19680554D01*
X18215066Y-19702165D01*
X18207953Y-19725614D01*
X18205551Y-19750000D01*
X18207953Y-19774386D01*
X18215066Y-19797835D01*
X18226617Y-19819446D01*
X18242162Y-19838388D01*
X18261104Y-19853933D01*
X18267577Y-19858258D01*
X18316876Y-19891198D01*
X18358802Y-19933124D01*
X18391742Y-19982423D01*
X18391743Y-19982425D01*
X18414433Y-20037203D01*
X18426000Y-20095353D01*
X18426000Y-20154647D01*
X18414433Y-20212797D01*
X18391743Y-20267575D01*
X18391742Y-20267577D01*
X18358802Y-20316876D01*
X18316876Y-20358802D01*
X18267577Y-20391742D01*
X18261104Y-20396067D01*
X18242162Y-20411612D01*
X18226617Y-20430554D01*
X18215066Y-20452165D01*
X18207953Y-20475614D01*
X18205551Y-20500000D01*
X18207953Y-20524386D01*
X18215066Y-20547835D01*
X18226617Y-20569446D01*
X18242162Y-20588388D01*
X18261104Y-20603933D01*
X18267577Y-20608258D01*
X18316876Y-20641198D01*
X18358802Y-20683124D01*
X18391742Y-20732423D01*
X18391743Y-20732425D01*
X18414433Y-20787203D01*
X18426000Y-20845353D01*
X18426000Y-20904647D01*
X18414433Y-20962797D01*
X18397693Y-21003211D01*
X18391742Y-21017577D01*
X18358802Y-21066876D01*
X18316876Y-21108802D01*
X18305606Y-21116332D01*
X18261104Y-21146067D01*
X18242162Y-21161612D01*
X18226617Y-21180554D01*
X18215066Y-21202165D01*
X18207953Y-21225614D01*
X18205551Y-21250000D01*
X18207953Y-21274386D01*
X18215066Y-21297835D01*
X18226617Y-21319446D01*
X18242162Y-21338388D01*
X18261104Y-21353933D01*
X18267577Y-21358258D01*
X18316876Y-21391198D01*
X18358802Y-21433124D01*
X18391742Y-21482423D01*
X18391743Y-21482425D01*
X18414433Y-21537203D01*
X18426000Y-21595353D01*
X18426000Y-21654647D01*
X18414433Y-21712797D01*
X18391743Y-21767575D01*
X18391742Y-21767577D01*
X18358802Y-21816876D01*
X18316876Y-21858802D01*
X18267577Y-21891742D01*
X18267576Y-21891743D01*
X18267575Y-21891743D01*
X18212797Y-21914433D01*
X18154647Y-21926000D01*
X18095353Y-21926000D01*
X18037203Y-21914433D01*
X17982425Y-21891743D01*
X17982424Y-21891743D01*
X17982423Y-21891742D01*
X17933124Y-21858802D01*
X17891198Y-21816876D01*
X17858258Y-21767577D01*
X17858257Y-21767575D01*
X17835567Y-21712797D01*
X17824000Y-21654647D01*
X17824000Y-21595353D01*
X17835567Y-21537203D01*
X17858257Y-21482425D01*
X17858258Y-21482423D01*
X17891198Y-21433124D01*
X17933124Y-21391198D01*
X17982423Y-21358258D01*
X17988896Y-21353933D01*
X18007838Y-21338388D01*
X18023383Y-21319446D01*
X18034934Y-21297835D01*
X18042047Y-21274386D01*
X18044449Y-21250000D01*
X18042047Y-21225614D01*
X18034934Y-21202165D01*
X18023383Y-21180554D01*
X18007838Y-21161612D01*
X17988896Y-21146067D01*
X17944394Y-21116332D01*
X17933124Y-21108802D01*
X17891198Y-21066876D01*
X17858258Y-21017577D01*
X17852307Y-21003211D01*
X17835567Y-20962797D01*
X17824000Y-20904647D01*
X17824000Y-20845353D01*
X17835567Y-20787203D01*
X17858257Y-20732425D01*
X17858258Y-20732423D01*
X17891198Y-20683124D01*
X17933124Y-20641198D01*
X17982423Y-20608258D01*
X17988896Y-20603933D01*
X18007838Y-20588388D01*
X18023383Y-20569446D01*
X18034934Y-20547835D01*
X18042047Y-20524386D01*
X18044449Y-20500000D01*
X18042047Y-20475614D01*
X18034934Y-20452165D01*
X18023383Y-20430554D01*
X18007838Y-20411612D01*
X17988896Y-20396067D01*
X17982423Y-20391742D01*
X17933124Y-20358802D01*
X17891198Y-20316876D01*
X17858258Y-20267577D01*
X17858257Y-20267575D01*
X17835567Y-20212797D01*
X17824000Y-20154647D01*
X17824000Y-20095353D01*
X17835567Y-20037203D01*
X17858257Y-19982425D01*
X17858258Y-19982423D01*
X17891198Y-19933124D01*
X17933124Y-19891198D01*
X17982423Y-19858258D01*
X17988896Y-19853933D01*
X18007838Y-19838388D01*
X18023383Y-19819446D01*
X18034934Y-19797835D01*
X18042047Y-19774386D01*
X18044449Y-19750000D01*
X18042047Y-19725614D01*
X18034934Y-19702165D01*
X18023383Y-19680554D01*
X18007838Y-19661612D01*
X17988896Y-19646067D01*
X17982423Y-19641742D01*
X17933124Y-19608802D01*
X17891198Y-19566876D01*
X17858258Y-19517577D01*
X17858257Y-19517575D01*
X17835567Y-19462797D01*
X17824000Y-19404647D01*
X17824000Y-19345353D01*
X17835567Y-19287203D01*
X17858257Y-19232425D01*
X17876194Y-19205580D01*
X17891198Y-19183124D01*
X17933124Y-19141198D01*
X17982423Y-19108258D01*
X18001722Y-19100264D01*
X18037203Y-19085567D01*
X18095353Y-19074000D01*
X18154647Y-19074000D01*
X18212797Y-19085567D01*
X18212797Y-19085567D01*
G37*
G36*
X-5476788Y-19261249D02*
G01*
X-5382349Y-19289897D01*
X-5295313Y-19336418D01*
X-5219025Y-19399025D01*
X-5156418Y-19475313D01*
X-5109897Y-19562348D01*
X-5081249Y-19656787D01*
X-5074000Y-19730388D01*
X-5074000Y-20929612D01*
X-5081249Y-21003213D01*
X-5109897Y-21097652D01*
X-5156418Y-21184687D01*
X-5219025Y-21260975D01*
X-5295313Y-21323582D01*
X-5382348Y-21370103D01*
X-5476787Y-21398751D01*
X-5575000Y-21408424D01*
X-5673212Y-21398751D01*
X-5767651Y-21370103D01*
X-5854686Y-21323582D01*
X-5930974Y-21260975D01*
X-5993581Y-21184687D01*
X-6040102Y-21097652D01*
X-6068750Y-21003213D01*
X-6075999Y-20929612D01*
X-6076000Y-19730389D01*
X-6068751Y-19656788D01*
X-6040103Y-19562349D01*
X-5993582Y-19475313D01*
X-5930975Y-19399025D01*
X-5854687Y-19336418D01*
X-5767652Y-19289897D01*
X-5673213Y-19261249D01*
X-5575000Y-19251576D01*
X-5476788Y-19261249D01*
X-5476788Y-19261249D01*
G37*
G36*
X5673212Y-19261249D02*
G01*
X5767651Y-19289897D01*
X5854687Y-19336418D01*
X5930975Y-19399025D01*
X5993582Y-19475313D01*
X6040103Y-19562348D01*
X6068751Y-19656787D01*
X6076000Y-19730388D01*
X6076000Y-20929612D01*
X6068751Y-21003213D01*
X6040103Y-21097652D01*
X5993582Y-21184687D01*
X5930975Y-21260975D01*
X5854687Y-21323582D01*
X5767652Y-21370103D01*
X5673213Y-21398751D01*
X5575000Y-21408424D01*
X5476788Y-21398751D01*
X5382349Y-21370103D01*
X5295314Y-21323582D01*
X5219026Y-21260975D01*
X5156419Y-21184687D01*
X5109898Y-21097652D01*
X5081250Y-21003213D01*
X5074001Y-20929612D01*
X5074000Y-19730389D01*
X5081249Y-19656788D01*
X5109897Y-19562349D01*
X5156418Y-19475313D01*
X5219025Y-19399025D01*
X5295313Y-19336418D01*
X5382348Y-19289897D01*
X5476787Y-19261249D01*
X5575000Y-19251576D01*
X5673212Y-19261249D01*
X5673212Y-19261249D01*
G37*
G36*
X3852383Y-20072489D02*
G01*
X3852386Y-20072490D01*
X3852385Y-20072490D01*
X3916258Y-20098946D01*
X3973748Y-20137360D01*
X4022640Y-20186252D01*
X4061054Y-20243742D01*
X4082624Y-20295818D01*
X4087511Y-20307617D01*
X4101000Y-20375430D01*
X4101000Y-20444570D01*
X4087511Y-20512383D01*
X4087510Y-20512385D01*
X4061054Y-20576258D01*
X4022640Y-20633748D01*
X3973748Y-20682640D01*
X3916258Y-20721054D01*
X3864182Y-20742624D01*
X3852383Y-20747511D01*
X3784570Y-20761000D01*
X3715430Y-20761000D01*
X3647617Y-20747511D01*
X3635818Y-20742624D01*
X3583742Y-20721054D01*
X3526252Y-20682640D01*
X3477360Y-20633748D01*
X3438946Y-20576258D01*
X3412490Y-20512385D01*
X3412489Y-20512383D01*
X3399000Y-20444570D01*
X3399000Y-20375430D01*
X3412489Y-20307617D01*
X3417376Y-20295818D01*
X3438946Y-20243742D01*
X3477360Y-20186252D01*
X3526252Y-20137360D01*
X3583742Y-20098946D01*
X3647615Y-20072490D01*
X3647614Y-20072490D01*
X3647617Y-20072489D01*
X3715430Y-20059000D01*
X3784570Y-20059000D01*
X3852383Y-20072489D01*
X3852383Y-20072489D01*
G37*
G36*
X-3647617Y-20072489D02*
G01*
X-3647614Y-20072490D01*
X-3647615Y-20072490D01*
X-3583742Y-20098946D01*
X-3526252Y-20137360D01*
X-3477360Y-20186252D01*
X-3438946Y-20243742D01*
X-3417376Y-20295818D01*
X-3412489Y-20307617D01*
X-3399000Y-20375430D01*
X-3399000Y-20444570D01*
X-3412489Y-20512383D01*
X-3412490Y-20512385D01*
X-3438946Y-20576258D01*
X-3477360Y-20633748D01*
X-3526252Y-20682640D01*
X-3583742Y-20721054D01*
X-3635818Y-20742624D01*
X-3647617Y-20747511D01*
X-3715430Y-20761000D01*
X-3784570Y-20761000D01*
X-3852383Y-20747511D01*
X-3864182Y-20742624D01*
X-3916258Y-20721054D01*
X-3973748Y-20682640D01*
X-4022640Y-20633748D01*
X-4061054Y-20576258D01*
X-4087510Y-20512385D01*
X-4087511Y-20512383D01*
X-4101000Y-20444570D01*
X-4101000Y-20375430D01*
X-4087511Y-20307617D01*
X-4082624Y-20295818D01*
X-4061054Y-20243742D01*
X-4022640Y-20186252D01*
X-3973748Y-20137360D01*
X-3916258Y-20098946D01*
X-3852385Y-20072490D01*
X-3852386Y-20072490D01*
X-3852383Y-20072489D01*
X-3784570Y-20059000D01*
X-3715430Y-20059000D01*
X-3647617Y-20072489D01*
X-3647617Y-20072489D01*
G37*
G36*
X-5476788Y-14661249D02*
G01*
X-5382349Y-14689897D01*
X-5295313Y-14736418D01*
X-5219025Y-14799025D01*
X-5156418Y-14875313D01*
X-5109897Y-14962348D01*
X-5081249Y-15056787D01*
X-5074000Y-15130388D01*
X-5074000Y-16329612D01*
X-5081249Y-16403213D01*
X-5109897Y-16497652D01*
X-5156418Y-16584687D01*
X-5219025Y-16660975D01*
X-5295313Y-16723582D01*
X-5382348Y-16770103D01*
X-5476787Y-16798751D01*
X-5575000Y-16808424D01*
X-5673212Y-16798751D01*
X-5767651Y-16770103D01*
X-5854686Y-16723582D01*
X-5930974Y-16660975D01*
X-5993581Y-16584687D01*
X-6040102Y-16497652D01*
X-6068750Y-16403213D01*
X-6075999Y-16329612D01*
X-6076000Y-15130389D01*
X-6068751Y-15056788D01*
X-6040103Y-14962349D01*
X-5993582Y-14875313D01*
X-5930975Y-14799025D01*
X-5854687Y-14736418D01*
X-5767652Y-14689897D01*
X-5673213Y-14661249D01*
X-5575000Y-14651576D01*
X-5476788Y-14661249D01*
X-5476788Y-14661249D01*
G37*
G36*
X5673212Y-14661249D02*
G01*
X5767651Y-14689897D01*
X5854687Y-14736418D01*
X5930975Y-14799025D01*
X5993582Y-14875313D01*
X6040103Y-14962348D01*
X6068751Y-15056787D01*
X6076000Y-15130388D01*
X6076000Y-16329612D01*
X6068751Y-16403213D01*
X6040103Y-16497652D01*
X5993582Y-16584687D01*
X5930975Y-16660975D01*
X5854687Y-16723582D01*
X5767652Y-16770103D01*
X5673213Y-16798751D01*
X5575000Y-16808424D01*
X5476788Y-16798751D01*
X5382349Y-16770103D01*
X5295314Y-16723582D01*
X5219026Y-16660975D01*
X5156419Y-16584687D01*
X5109898Y-16497652D01*
X5081250Y-16403213D01*
X5074001Y-16329612D01*
X5074000Y-15130389D01*
X5081249Y-15056788D01*
X5109897Y-14962349D01*
X5156418Y-14875313D01*
X5219025Y-14799025D01*
X5295313Y-14736418D01*
X5382348Y-14689897D01*
X5476787Y-14661249D01*
X5575000Y-14651576D01*
X5673212Y-14661249D01*
X5673212Y-14661249D01*
G37*
G36*
X10462797Y-13335567D02*
G01*
X10517575Y-13358257D01*
X10517577Y-13358258D01*
X10566876Y-13391198D01*
X10608802Y-13433124D01*
X10641742Y-13482423D01*
X10646067Y-13488896D01*
X10661612Y-13507838D01*
X10680554Y-13523383D01*
X10702165Y-13534934D01*
X10725614Y-13542047D01*
X10750000Y-13544449D01*
X10774386Y-13542047D01*
X10797835Y-13534934D01*
X10819446Y-13523383D01*
X10838388Y-13507838D01*
X10853933Y-13488896D01*
X10858258Y-13482423D01*
X10891198Y-13433124D01*
X10933124Y-13391198D01*
X10982423Y-13358258D01*
X10982425Y-13358257D01*
X11037203Y-13335567D01*
X11095353Y-13324000D01*
X11154647Y-13324000D01*
X11212797Y-13335567D01*
X11267575Y-13358257D01*
X11267577Y-13358258D01*
X11316876Y-13391198D01*
X11358802Y-13433124D01*
X11391742Y-13482423D01*
X11396067Y-13488896D01*
X11411612Y-13507838D01*
X11430554Y-13523383D01*
X11452165Y-13534934D01*
X11475614Y-13542047D01*
X11500000Y-13544449D01*
X11524386Y-13542047D01*
X11547835Y-13534934D01*
X11569446Y-13523383D01*
X11588388Y-13507838D01*
X11603933Y-13488896D01*
X11608258Y-13482423D01*
X11641198Y-13433124D01*
X11683124Y-13391198D01*
X11732423Y-13358258D01*
X11732425Y-13358257D01*
X11787203Y-13335567D01*
X11845353Y-13324000D01*
X11904647Y-13324000D01*
X11962797Y-13335567D01*
X12017575Y-13358257D01*
X12017577Y-13358258D01*
X12066876Y-13391198D01*
X12108802Y-13433124D01*
X12141742Y-13482423D01*
X12146067Y-13488896D01*
X12161612Y-13507838D01*
X12180554Y-13523383D01*
X12202165Y-13534934D01*
X12225614Y-13542047D01*
X12250000Y-13544449D01*
X12274386Y-13542047D01*
X12297835Y-13534934D01*
X12319446Y-13523383D01*
X12338388Y-13507838D01*
X12353933Y-13488896D01*
X12358258Y-13482423D01*
X12391198Y-13433124D01*
X12433124Y-13391198D01*
X12482423Y-13358258D01*
X12482425Y-13358257D01*
X12537203Y-13335567D01*
X12595353Y-13324000D01*
X12654647Y-13324000D01*
X12712797Y-13335567D01*
X12767575Y-13358257D01*
X12767577Y-13358258D01*
X12816876Y-13391198D01*
X12858802Y-13433124D01*
X12891742Y-13482423D01*
X12891743Y-13482425D01*
X12914433Y-13537203D01*
X12926000Y-13595353D01*
X12926000Y-13654647D01*
X12914433Y-13712797D01*
X12894423Y-13761104D01*
X12891742Y-13767577D01*
X12858802Y-13816876D01*
X12816876Y-13858802D01*
X12767577Y-13891742D01*
X12767576Y-13891743D01*
X12767575Y-13891743D01*
X12712797Y-13914433D01*
X12654647Y-13926000D01*
X12595353Y-13926000D01*
X12537203Y-13914433D01*
X12482425Y-13891743D01*
X12482424Y-13891743D01*
X12482423Y-13891742D01*
X12433124Y-13858802D01*
X12391198Y-13816876D01*
X12358258Y-13767577D01*
X12358257Y-13767575D01*
X12353933Y-13761104D01*
X12338388Y-13742162D01*
X12319446Y-13726617D01*
X12297835Y-13715066D01*
X12274386Y-13707953D01*
X12250000Y-13705551D01*
X12225614Y-13707953D01*
X12202165Y-13715066D01*
X12180554Y-13726617D01*
X12161612Y-13742162D01*
X12146067Y-13761104D01*
X12141743Y-13767575D01*
X12141742Y-13767577D01*
X12108802Y-13816876D01*
X12066876Y-13858802D01*
X12017577Y-13891742D01*
X12017576Y-13891743D01*
X12017575Y-13891743D01*
X11962797Y-13914433D01*
X11904647Y-13926000D01*
X11845353Y-13926000D01*
X11787203Y-13914433D01*
X11732425Y-13891743D01*
X11732424Y-13891743D01*
X11732423Y-13891742D01*
X11683124Y-13858802D01*
X11641198Y-13816876D01*
X11608258Y-13767577D01*
X11608257Y-13767575D01*
X11603933Y-13761104D01*
X11588388Y-13742162D01*
X11569446Y-13726617D01*
X11547835Y-13715066D01*
X11524386Y-13707953D01*
X11500000Y-13705551D01*
X11475614Y-13707953D01*
X11452165Y-13715066D01*
X11430554Y-13726617D01*
X11411612Y-13742162D01*
X11396067Y-13761104D01*
X11391743Y-13767575D01*
X11391742Y-13767577D01*
X11358802Y-13816876D01*
X11316876Y-13858802D01*
X11267577Y-13891742D01*
X11267576Y-13891743D01*
X11267575Y-13891743D01*
X11212797Y-13914433D01*
X11154647Y-13926000D01*
X11095353Y-13926000D01*
X11037203Y-13914433D01*
X10982425Y-13891743D01*
X10982424Y-13891743D01*
X10982423Y-13891742D01*
X10933124Y-13858802D01*
X10891198Y-13816876D01*
X10858258Y-13767577D01*
X10858257Y-13767575D01*
X10853933Y-13761104D01*
X10838388Y-13742162D01*
X10819446Y-13726617D01*
X10797835Y-13715066D01*
X10774386Y-13707953D01*
X10750000Y-13705551D01*
X10725614Y-13707953D01*
X10702165Y-13715066D01*
X10680554Y-13726617D01*
X10661612Y-13742162D01*
X10646067Y-13761104D01*
X10641743Y-13767575D01*
X10641742Y-13767577D01*
X10608802Y-13816876D01*
X10566876Y-13858802D01*
X10517577Y-13891742D01*
X10517576Y-13891743D01*
X10517575Y-13891743D01*
X10462797Y-13914433D01*
X10404647Y-13926000D01*
X10345353Y-13926000D01*
X10287203Y-13914433D01*
X10232425Y-13891743D01*
X10232424Y-13891743D01*
X10232423Y-13891742D01*
X10183124Y-13858802D01*
X10141198Y-13816876D01*
X10108258Y-13767577D01*
X10105577Y-13761104D01*
X10085567Y-13712797D01*
X10074000Y-13654647D01*
X10074000Y-13595353D01*
X10085567Y-13537203D01*
X10108257Y-13482425D01*
X10108258Y-13482423D01*
X10141198Y-13433124D01*
X10183124Y-13391198D01*
X10232423Y-13358258D01*
X10232425Y-13358257D01*
X10287203Y-13335567D01*
X10345353Y-13324000D01*
X10404647Y-13324000D01*
X10462797Y-13335567D01*
X10462797Y-13335567D01*
G37*
G36*
X-24037203Y-13335567D02*
G01*
X-23982425Y-13358257D01*
X-23982423Y-13358258D01*
X-23933124Y-13391198D01*
X-23891198Y-13433124D01*
X-23858258Y-13482423D01*
X-23853933Y-13488896D01*
X-23838388Y-13507838D01*
X-23819446Y-13523383D01*
X-23797835Y-13534934D01*
X-23774386Y-13542047D01*
X-23750000Y-13544449D01*
X-23725614Y-13542047D01*
X-23702165Y-13534934D01*
X-23680554Y-13523383D01*
X-23661612Y-13507838D01*
X-23646067Y-13488896D01*
X-23641742Y-13482423D01*
X-23608802Y-13433124D01*
X-23566876Y-13391198D01*
X-23517577Y-13358258D01*
X-23517575Y-13358257D01*
X-23462797Y-13335567D01*
X-23404647Y-13324000D01*
X-23345353Y-13324000D01*
X-23287203Y-13335567D01*
X-23232425Y-13358257D01*
X-23232423Y-13358258D01*
X-23183124Y-13391198D01*
X-23141198Y-13433124D01*
X-23108258Y-13482423D01*
X-23103933Y-13488896D01*
X-23088388Y-13507838D01*
X-23069446Y-13523383D01*
X-23047835Y-13534934D01*
X-23024386Y-13542047D01*
X-23000000Y-13544449D01*
X-22975614Y-13542047D01*
X-22952165Y-13534934D01*
X-22930554Y-13523383D01*
X-22911612Y-13507838D01*
X-22896067Y-13488896D01*
X-22891742Y-13482423D01*
X-22858802Y-13433124D01*
X-22816876Y-13391198D01*
X-22767577Y-13358258D01*
X-22767575Y-13358257D01*
X-22712797Y-13335567D01*
X-22654647Y-13324000D01*
X-22595353Y-13324000D01*
X-22537203Y-13335567D01*
X-22482425Y-13358257D01*
X-22482423Y-13358258D01*
X-22433124Y-13391198D01*
X-22391198Y-13433124D01*
X-22358258Y-13482423D01*
X-22353933Y-13488896D01*
X-22338388Y-13507838D01*
X-22319446Y-13523383D01*
X-22297835Y-13534934D01*
X-22274386Y-13542047D01*
X-22250000Y-13544449D01*
X-22225614Y-13542047D01*
X-22202165Y-13534934D01*
X-22180554Y-13523383D01*
X-22161612Y-13507838D01*
X-22146067Y-13488896D01*
X-22141742Y-13482423D01*
X-22108802Y-13433124D01*
X-22066876Y-13391198D01*
X-22017577Y-13358258D01*
X-22017575Y-13358257D01*
X-21962797Y-13335567D01*
X-21904647Y-13324000D01*
X-21845353Y-13324000D01*
X-21787203Y-13335567D01*
X-21732425Y-13358257D01*
X-21732423Y-13358258D01*
X-21683124Y-13391198D01*
X-21641198Y-13433124D01*
X-21608258Y-13482423D01*
X-21608257Y-13482425D01*
X-21585567Y-13537203D01*
X-21574000Y-13595353D01*
X-21574000Y-13654647D01*
X-21585567Y-13712797D01*
X-21605577Y-13761104D01*
X-21608258Y-13767577D01*
X-21641198Y-13816876D01*
X-21683124Y-13858802D01*
X-21732423Y-13891742D01*
X-21732424Y-13891743D01*
X-21732425Y-13891743D01*
X-21787203Y-13914433D01*
X-21845353Y-13926000D01*
X-21904647Y-13926000D01*
X-21962797Y-13914433D01*
X-22017575Y-13891743D01*
X-22017576Y-13891743D01*
X-22017577Y-13891742D01*
X-22066876Y-13858802D01*
X-22108802Y-13816876D01*
X-22141742Y-13767577D01*
X-22141743Y-13767575D01*
X-22146067Y-13761104D01*
X-22161612Y-13742162D01*
X-22180554Y-13726617D01*
X-22202165Y-13715066D01*
X-22225614Y-13707953D01*
X-22250000Y-13705551D01*
X-22274386Y-13707953D01*
X-22297835Y-13715066D01*
X-22319446Y-13726617D01*
X-22338388Y-13742162D01*
X-22353933Y-13761104D01*
X-22358257Y-13767575D01*
X-22358258Y-13767577D01*
X-22391198Y-13816876D01*
X-22433124Y-13858802D01*
X-22482423Y-13891742D01*
X-22482424Y-13891743D01*
X-22482425Y-13891743D01*
X-22537203Y-13914433D01*
X-22595353Y-13926000D01*
X-22654647Y-13926000D01*
X-22712797Y-13914433D01*
X-22767575Y-13891743D01*
X-22767576Y-13891743D01*
X-22767577Y-13891742D01*
X-22816876Y-13858802D01*
X-22858802Y-13816876D01*
X-22891742Y-13767577D01*
X-22891743Y-13767575D01*
X-22896067Y-13761104D01*
X-22911612Y-13742162D01*
X-22930554Y-13726617D01*
X-22952165Y-13715066D01*
X-22975614Y-13707953D01*
X-23000000Y-13705551D01*
X-23024386Y-13707953D01*
X-23047835Y-13715066D01*
X-23069446Y-13726617D01*
X-23088388Y-13742162D01*
X-23103933Y-13761104D01*
X-23108257Y-13767575D01*
X-23108258Y-13767577D01*
X-23141198Y-13816876D01*
X-23183124Y-13858802D01*
X-23232423Y-13891742D01*
X-23232424Y-13891743D01*
X-23232425Y-13891743D01*
X-23287203Y-13914433D01*
X-23345353Y-13926000D01*
X-23404647Y-13926000D01*
X-23462797Y-13914433D01*
X-23517575Y-13891743D01*
X-23517576Y-13891743D01*
X-23517577Y-13891742D01*
X-23566876Y-13858802D01*
X-23608802Y-13816876D01*
X-23641742Y-13767577D01*
X-23641743Y-13767575D01*
X-23646067Y-13761104D01*
X-23661612Y-13742162D01*
X-23680554Y-13726617D01*
X-23702165Y-13715066D01*
X-23725614Y-13707953D01*
X-23750000Y-13705551D01*
X-23774386Y-13707953D01*
X-23797835Y-13715066D01*
X-23819446Y-13726617D01*
X-23838388Y-13742162D01*
X-23853933Y-13761104D01*
X-23858257Y-13767575D01*
X-23858258Y-13767577D01*
X-23891198Y-13816876D01*
X-23933124Y-13858802D01*
X-23982423Y-13891742D01*
X-23982424Y-13891743D01*
X-23982425Y-13891743D01*
X-24037203Y-13914433D01*
X-24095353Y-13926000D01*
X-24154647Y-13926000D01*
X-24212797Y-13914433D01*
X-24267575Y-13891743D01*
X-24267576Y-13891743D01*
X-24267577Y-13891742D01*
X-24316876Y-13858802D01*
X-24358802Y-13816876D01*
X-24391742Y-13767577D01*
X-24394423Y-13761104D01*
X-24414433Y-13712797D01*
X-24426000Y-13654647D01*
X-24426000Y-13595353D01*
X-24414433Y-13537203D01*
X-24391743Y-13482425D01*
X-24391742Y-13482423D01*
X-24358802Y-13433124D01*
X-24316876Y-13391198D01*
X-24267577Y-13358258D01*
X-24267575Y-13358257D01*
X-24212797Y-13335567D01*
X-24154647Y-13324000D01*
X-24095353Y-13324000D01*
X-24037203Y-13335567D01*
X-24037203Y-13335567D01*
G37*
G36*
X10462797Y-11085567D02*
G01*
X10517575Y-11108257D01*
X10517577Y-11108258D01*
X10566876Y-11141198D01*
X10608802Y-11183124D01*
X10641742Y-11232423D01*
X10646067Y-11238896D01*
X10661612Y-11257838D01*
X10680554Y-11273383D01*
X10702165Y-11284934D01*
X10725614Y-11292047D01*
X10750000Y-11294449D01*
X10774386Y-11292047D01*
X10797835Y-11284934D01*
X10819446Y-11273383D01*
X10838388Y-11257838D01*
X10853933Y-11238896D01*
X10858258Y-11232423D01*
X10891198Y-11183124D01*
X10933124Y-11141198D01*
X10982423Y-11108258D01*
X10982425Y-11108257D01*
X11037203Y-11085567D01*
X11095353Y-11074000D01*
X11154647Y-11074000D01*
X11212797Y-11085567D01*
X11267575Y-11108257D01*
X11267577Y-11108258D01*
X11316876Y-11141198D01*
X11358802Y-11183124D01*
X11391742Y-11232423D01*
X11396067Y-11238896D01*
X11411612Y-11257838D01*
X11430554Y-11273383D01*
X11452165Y-11284934D01*
X11475614Y-11292047D01*
X11500000Y-11294449D01*
X11524386Y-11292047D01*
X11547835Y-11284934D01*
X11569446Y-11273383D01*
X11588388Y-11257838D01*
X11603933Y-11238896D01*
X11608258Y-11232423D01*
X11641198Y-11183124D01*
X11683124Y-11141198D01*
X11732423Y-11108258D01*
X11732425Y-11108257D01*
X11787203Y-11085567D01*
X11845353Y-11074000D01*
X11904647Y-11074000D01*
X11962797Y-11085567D01*
X12017575Y-11108257D01*
X12017577Y-11108258D01*
X12066876Y-11141198D01*
X12108802Y-11183124D01*
X12141742Y-11232423D01*
X12146067Y-11238896D01*
X12161612Y-11257838D01*
X12180554Y-11273383D01*
X12202165Y-11284934D01*
X12225614Y-11292047D01*
X12250000Y-11294449D01*
X12274386Y-11292047D01*
X12297835Y-11284934D01*
X12319446Y-11273383D01*
X12338388Y-11257838D01*
X12353933Y-11238896D01*
X12358258Y-11232423D01*
X12391198Y-11183124D01*
X12433124Y-11141198D01*
X12482423Y-11108258D01*
X12482425Y-11108257D01*
X12537203Y-11085567D01*
X12595353Y-11074000D01*
X12654647Y-11074000D01*
X12712797Y-11085567D01*
X12767575Y-11108257D01*
X12767577Y-11108258D01*
X12816876Y-11141198D01*
X12858802Y-11183124D01*
X12891742Y-11232423D01*
X12891743Y-11232425D01*
X12914433Y-11287203D01*
X12926000Y-11345353D01*
X12926000Y-11404647D01*
X12914433Y-11462797D01*
X12894423Y-11511104D01*
X12891742Y-11517577D01*
X12858802Y-11566876D01*
X12816876Y-11608802D01*
X12767577Y-11641742D01*
X12767576Y-11641743D01*
X12767575Y-11641743D01*
X12712797Y-11664433D01*
X12654647Y-11676000D01*
X12595353Y-11676000D01*
X12537203Y-11664433D01*
X12482425Y-11641743D01*
X12482424Y-11641743D01*
X12482423Y-11641742D01*
X12433124Y-11608802D01*
X12391198Y-11566876D01*
X12358258Y-11517577D01*
X12358257Y-11517575D01*
X12353933Y-11511104D01*
X12338388Y-11492162D01*
X12319446Y-11476617D01*
X12297835Y-11465066D01*
X12274386Y-11457953D01*
X12250000Y-11455551D01*
X12225614Y-11457953D01*
X12202165Y-11465066D01*
X12180554Y-11476617D01*
X12161612Y-11492162D01*
X12146067Y-11511104D01*
X12141743Y-11517575D01*
X12141742Y-11517577D01*
X12108802Y-11566876D01*
X12066876Y-11608802D01*
X12017577Y-11641742D01*
X12017576Y-11641743D01*
X12017575Y-11641743D01*
X11962797Y-11664433D01*
X11904647Y-11676000D01*
X11845353Y-11676000D01*
X11787203Y-11664433D01*
X11732425Y-11641743D01*
X11732424Y-11641743D01*
X11732423Y-11641742D01*
X11683124Y-11608802D01*
X11641198Y-11566876D01*
X11608258Y-11517577D01*
X11608257Y-11517575D01*
X11603933Y-11511104D01*
X11588388Y-11492162D01*
X11569446Y-11476617D01*
X11547835Y-11465066D01*
X11524386Y-11457953D01*
X11500000Y-11455551D01*
X11475614Y-11457953D01*
X11452165Y-11465066D01*
X11430554Y-11476617D01*
X11411612Y-11492162D01*
X11396067Y-11511104D01*
X11391743Y-11517575D01*
X11391742Y-11517577D01*
X11358802Y-11566876D01*
X11316876Y-11608802D01*
X11267577Y-11641742D01*
X11267576Y-11641743D01*
X11267575Y-11641743D01*
X11212797Y-11664433D01*
X11154647Y-11676000D01*
X11095353Y-11676000D01*
X11037203Y-11664433D01*
X10982425Y-11641743D01*
X10982424Y-11641743D01*
X10982423Y-11641742D01*
X10933124Y-11608802D01*
X10891198Y-11566876D01*
X10858258Y-11517577D01*
X10858257Y-11517575D01*
X10853933Y-11511104D01*
X10838388Y-11492162D01*
X10819446Y-11476617D01*
X10797835Y-11465066D01*
X10774386Y-11457953D01*
X10750000Y-11455551D01*
X10725614Y-11457953D01*
X10702165Y-11465066D01*
X10680554Y-11476617D01*
X10661612Y-11492162D01*
X10646067Y-11511104D01*
X10641743Y-11517575D01*
X10641742Y-11517577D01*
X10608802Y-11566876D01*
X10566876Y-11608802D01*
X10517577Y-11641742D01*
X10517576Y-11641743D01*
X10517575Y-11641743D01*
X10462797Y-11664433D01*
X10404647Y-11676000D01*
X10345353Y-11676000D01*
X10287203Y-11664433D01*
X10232425Y-11641743D01*
X10232424Y-11641743D01*
X10232423Y-11641742D01*
X10183124Y-11608802D01*
X10141198Y-11566876D01*
X10108258Y-11517577D01*
X10105577Y-11511104D01*
X10085567Y-11462797D01*
X10074000Y-11404647D01*
X10074000Y-11345353D01*
X10085567Y-11287203D01*
X10108257Y-11232425D01*
X10108258Y-11232423D01*
X10141198Y-11183124D01*
X10183124Y-11141198D01*
X10232423Y-11108258D01*
X10232425Y-11108257D01*
X10287203Y-11085567D01*
X10345353Y-11074000D01*
X10404647Y-11074000D01*
X10462797Y-11085567D01*
X10462797Y-11085567D01*
G37*
G36*
X-24037203Y-11085567D02*
G01*
X-23982425Y-11108257D01*
X-23982423Y-11108258D01*
X-23933124Y-11141198D01*
X-23891198Y-11183124D01*
X-23858258Y-11232423D01*
X-23853933Y-11238896D01*
X-23838388Y-11257838D01*
X-23819446Y-11273383D01*
X-23797835Y-11284934D01*
X-23774386Y-11292047D01*
X-23750000Y-11294449D01*
X-23725614Y-11292047D01*
X-23702165Y-11284934D01*
X-23680554Y-11273383D01*
X-23661612Y-11257838D01*
X-23646067Y-11238896D01*
X-23641742Y-11232423D01*
X-23608802Y-11183124D01*
X-23566876Y-11141198D01*
X-23517577Y-11108258D01*
X-23517575Y-11108257D01*
X-23462797Y-11085567D01*
X-23404647Y-11074000D01*
X-23345353Y-11074000D01*
X-23287203Y-11085567D01*
X-23232425Y-11108257D01*
X-23232423Y-11108258D01*
X-23183124Y-11141198D01*
X-23141198Y-11183124D01*
X-23108258Y-11232423D01*
X-23103933Y-11238896D01*
X-23088388Y-11257838D01*
X-23069446Y-11273383D01*
X-23047835Y-11284934D01*
X-23024386Y-11292047D01*
X-23000000Y-11294449D01*
X-22975614Y-11292047D01*
X-22952165Y-11284934D01*
X-22930554Y-11273383D01*
X-22911612Y-11257838D01*
X-22896067Y-11238896D01*
X-22891742Y-11232423D01*
X-22858802Y-11183124D01*
X-22816876Y-11141198D01*
X-22767577Y-11108258D01*
X-22767575Y-11108257D01*
X-22712797Y-11085567D01*
X-22654647Y-11074000D01*
X-22595353Y-11074000D01*
X-22537203Y-11085567D01*
X-22482425Y-11108257D01*
X-22482423Y-11108258D01*
X-22433124Y-11141198D01*
X-22391198Y-11183124D01*
X-22358258Y-11232423D01*
X-22353933Y-11238896D01*
X-22338388Y-11257838D01*
X-22319446Y-11273383D01*
X-22297835Y-11284934D01*
X-22274386Y-11292047D01*
X-22250000Y-11294449D01*
X-22225614Y-11292047D01*
X-22202165Y-11284934D01*
X-22180554Y-11273383D01*
X-22161612Y-11257838D01*
X-22146067Y-11238896D01*
X-22141742Y-11232423D01*
X-22108802Y-11183124D01*
X-22066876Y-11141198D01*
X-22017577Y-11108258D01*
X-22017575Y-11108257D01*
X-21962797Y-11085567D01*
X-21904647Y-11074000D01*
X-21845353Y-11074000D01*
X-21787203Y-11085567D01*
X-21732425Y-11108257D01*
X-21732423Y-11108258D01*
X-21683124Y-11141198D01*
X-21641198Y-11183124D01*
X-21608258Y-11232423D01*
X-21608257Y-11232425D01*
X-21585567Y-11287203D01*
X-21574000Y-11345353D01*
X-21574000Y-11404647D01*
X-21585567Y-11462797D01*
X-21605577Y-11511104D01*
X-21608258Y-11517577D01*
X-21641198Y-11566876D01*
X-21683124Y-11608802D01*
X-21732423Y-11641742D01*
X-21732424Y-11641743D01*
X-21732425Y-11641743D01*
X-21787203Y-11664433D01*
X-21845353Y-11676000D01*
X-21904647Y-11676000D01*
X-21962797Y-11664433D01*
X-22017575Y-11641743D01*
X-22017576Y-11641743D01*
X-22017577Y-11641742D01*
X-22066876Y-11608802D01*
X-22108802Y-11566876D01*
X-22141742Y-11517577D01*
X-22141743Y-11517575D01*
X-22146067Y-11511104D01*
X-22161612Y-11492162D01*
X-22180554Y-11476617D01*
X-22202165Y-11465066D01*
X-22225614Y-11457953D01*
X-22250000Y-11455551D01*
X-22274386Y-11457953D01*
X-22297835Y-11465066D01*
X-22319446Y-11476617D01*
X-22338388Y-11492162D01*
X-22353933Y-11511104D01*
X-22358257Y-11517575D01*
X-22358258Y-11517577D01*
X-22391198Y-11566876D01*
X-22433124Y-11608802D01*
X-22482423Y-11641742D01*
X-22482424Y-11641743D01*
X-22482425Y-11641743D01*
X-22537203Y-11664433D01*
X-22595353Y-11676000D01*
X-22654647Y-11676000D01*
X-22712797Y-11664433D01*
X-22767575Y-11641743D01*
X-22767576Y-11641743D01*
X-22767577Y-11641742D01*
X-22816876Y-11608802D01*
X-22858802Y-11566876D01*
X-22891742Y-11517577D01*
X-22891743Y-11517575D01*
X-22896067Y-11511104D01*
X-22911612Y-11492162D01*
X-22930554Y-11476617D01*
X-22952165Y-11465066D01*
X-22975614Y-11457953D01*
X-23000000Y-11455551D01*
X-23024386Y-11457953D01*
X-23047835Y-11465066D01*
X-23069446Y-11476617D01*
X-23088388Y-11492162D01*
X-23103933Y-11511104D01*
X-23108257Y-11517575D01*
X-23108258Y-11517577D01*
X-23141198Y-11566876D01*
X-23183124Y-11608802D01*
X-23232423Y-11641742D01*
X-23232424Y-11641743D01*
X-23232425Y-11641743D01*
X-23287203Y-11664433D01*
X-23345353Y-11676000D01*
X-23404647Y-11676000D01*
X-23462797Y-11664433D01*
X-23517575Y-11641743D01*
X-23517576Y-11641743D01*
X-23517577Y-11641742D01*
X-23566876Y-11608802D01*
X-23608802Y-11566876D01*
X-23641742Y-11517577D01*
X-23641743Y-11517575D01*
X-23646067Y-11511104D01*
X-23661612Y-11492162D01*
X-23680554Y-11476617D01*
X-23702165Y-11465066D01*
X-23725614Y-11457953D01*
X-23750000Y-11455551D01*
X-23774386Y-11457953D01*
X-23797835Y-11465066D01*
X-23819446Y-11476617D01*
X-23838388Y-11492162D01*
X-23853933Y-11511104D01*
X-23858257Y-11517575D01*
X-23858258Y-11517577D01*
X-23891198Y-11566876D01*
X-23933124Y-11608802D01*
X-23982423Y-11641742D01*
X-23982424Y-11641743D01*
X-23982425Y-11641743D01*
X-24037203Y-11664433D01*
X-24095353Y-11676000D01*
X-24154647Y-11676000D01*
X-24212797Y-11664433D01*
X-24267575Y-11641743D01*
X-24267576Y-11641743D01*
X-24267577Y-11641742D01*
X-24316876Y-11608802D01*
X-24358802Y-11566876D01*
X-24391742Y-11517577D01*
X-24394423Y-11511104D01*
X-24414433Y-11462797D01*
X-24426000Y-11404647D01*
X-24426000Y-11345353D01*
X-24414433Y-11287203D01*
X-24391743Y-11232425D01*
X-24391742Y-11232423D01*
X-24358802Y-11183124D01*
X-24316876Y-11141198D01*
X-24267577Y-11108258D01*
X-24267575Y-11108257D01*
X-24212797Y-11085567D01*
X-24154647Y-11074000D01*
X-24095353Y-11074000D01*
X-24037203Y-11085567D01*
X-24037203Y-11085567D01*
G37*
G36*
X-23110057Y-2816248D02*
G01*
X-22554811Y-3046238D01*
X-22380807Y-3162504D01*
X-22055101Y-3380134D01*
X-21630134Y-3805101D01*
X-21560026Y-3910025D01*
X-21296238Y-4304811D01*
X-21066248Y-4860057D01*
X-20949000Y-5449501D01*
X-20949000Y-6050499D01*
X-21066248Y-6639943D01*
X-21296238Y-7195189D01*
X-21329383Y-7244794D01*
X-21630134Y-7694899D01*
X-22055101Y-8119866D01*
X-22306653Y-8287948D01*
X-22554811Y-8453762D01*
X-23110057Y-8683752D01*
X-23699501Y-8801000D01*
X-24300499Y-8801000D01*
X-24889943Y-8683752D01*
X-25445189Y-8453762D01*
X-25693347Y-8287948D01*
X-25944899Y-8119866D01*
X-26369866Y-7694899D01*
X-26670617Y-7244794D01*
X-26703762Y-7195189D01*
X-26933752Y-6639943D01*
X-27051000Y-6050499D01*
X-27051000Y-6003669D01*
X-27053402Y-5979283D01*
X-27060515Y-5955834D01*
X-27072066Y-5934223D01*
X-27087611Y-5915281D01*
X-27106553Y-5899736D01*
X-27128164Y-5888185D01*
X-27151613Y-5881072D01*
X-27175999Y-5878670D01*
X-27200385Y-5881072D01*
X-27223834Y-5888185D01*
X-27287203Y-5914433D01*
X-27345353Y-5926000D01*
X-27404647Y-5926000D01*
X-27462797Y-5914433D01*
X-27517575Y-5891743D01*
X-27517576Y-5891743D01*
X-27517577Y-5891742D01*
X-27566876Y-5858802D01*
X-27608802Y-5816876D01*
X-27641742Y-5767577D01*
X-27644363Y-5761249D01*
X-27664433Y-5712797D01*
X-27676000Y-5654647D01*
X-27676000Y-5595353D01*
X-27664433Y-5537203D01*
X-27641743Y-5482425D01*
X-27641742Y-5482423D01*
X-27608802Y-5433124D01*
X-27566876Y-5391198D01*
X-27517577Y-5358258D01*
X-27511104Y-5353933D01*
X-27492162Y-5338388D01*
X-27476617Y-5319446D01*
X-27465066Y-5297835D01*
X-27457953Y-5274386D01*
X-27455551Y-5250000D01*
X-27294449Y-5250000D01*
X-27292047Y-5274386D01*
X-27284934Y-5297835D01*
X-27273383Y-5319445D01*
X-27257838Y-5338387D01*
X-27238895Y-5353933D01*
X-27211809Y-5372031D01*
X-27190198Y-5383582D01*
X-27166749Y-5390695D01*
X-27142363Y-5393097D01*
X-27117977Y-5390695D01*
X-27094528Y-5383582D01*
X-27072918Y-5372030D01*
X-27053976Y-5356485D01*
X-27038431Y-5337543D01*
X-27026880Y-5315932D01*
X-27019767Y-5292483D01*
X-27011464Y-5250739D01*
X-27009062Y-5226353D01*
X-27011464Y-5201967D01*
X-27018577Y-5178518D01*
X-27030129Y-5156907D01*
X-27045674Y-5137966D01*
X-27064616Y-5122420D01*
X-27086227Y-5110870D01*
X-27109676Y-5103757D01*
X-27134062Y-5101355D01*
X-27158448Y-5103757D01*
X-27181897Y-5110870D01*
X-27203506Y-5122421D01*
X-27238895Y-5146067D01*
X-27257837Y-5161612D01*
X-27273383Y-5180554D01*
X-27284934Y-5202165D01*
X-27292047Y-5225613D01*
X-27294449Y-5250000D01*
X-27455551Y-5250000D01*
X-27457953Y-5225614D01*
X-27465066Y-5202165D01*
X-27476617Y-5180554D01*
X-27492162Y-5161612D01*
X-27511104Y-5146067D01*
X-27546493Y-5122421D01*
X-27566876Y-5108802D01*
X-27608802Y-5066876D01*
X-27641742Y-5017577D01*
X-27641743Y-5017575D01*
X-27664433Y-4962797D01*
X-27676000Y-4904647D01*
X-27676000Y-4845353D01*
X-27664433Y-4787203D01*
X-27641743Y-4732425D01*
X-27641742Y-4732423D01*
X-27608802Y-4683124D01*
X-27566876Y-4641198D01*
X-27517577Y-4608258D01*
X-27511104Y-4603933D01*
X-27492162Y-4588388D01*
X-27476617Y-4569446D01*
X-27465066Y-4547835D01*
X-27457953Y-4524386D01*
X-27455551Y-4500000D01*
X-27457953Y-4475614D01*
X-27465066Y-4452165D01*
X-27476617Y-4430554D01*
X-27492162Y-4411612D01*
X-27511104Y-4396067D01*
X-27517577Y-4391742D01*
X-27566876Y-4358802D01*
X-27608802Y-4316876D01*
X-27641742Y-4267577D01*
X-27646866Y-4255206D01*
X-27664433Y-4212797D01*
X-27676000Y-4154647D01*
X-27676000Y-4095353D01*
X-27664433Y-4037203D01*
X-27641743Y-3982425D01*
X-27641742Y-3982423D01*
X-27608802Y-3933124D01*
X-27566876Y-3891198D01*
X-27517577Y-3858258D01*
X-27511104Y-3853933D01*
X-27492162Y-3838388D01*
X-27476617Y-3819446D01*
X-27465066Y-3797835D01*
X-27457953Y-3774386D01*
X-27455551Y-3750000D01*
X-27457953Y-3725614D01*
X-27465066Y-3702165D01*
X-27476617Y-3680554D01*
X-27492162Y-3661612D01*
X-27511104Y-3646067D01*
X-27517577Y-3641742D01*
X-27566876Y-3608802D01*
X-27608802Y-3566876D01*
X-27641742Y-3517577D01*
X-27651334Y-3494420D01*
X-27664433Y-3462797D01*
X-27676000Y-3404647D01*
X-27676000Y-3345353D01*
X-27664433Y-3287203D01*
X-27641743Y-3232425D01*
X-27641742Y-3232423D01*
X-27608802Y-3183124D01*
X-27566876Y-3141198D01*
X-27517577Y-3108258D01*
X-27517575Y-3108257D01*
X-27462797Y-3085567D01*
X-27404647Y-3074000D01*
X-27345353Y-3074000D01*
X-27287203Y-3085567D01*
X-27232425Y-3108257D01*
X-27232423Y-3108258D01*
X-27183124Y-3141198D01*
X-27141198Y-3183124D01*
X-27108258Y-3232423D01*
X-27108257Y-3232425D01*
X-27085567Y-3287203D01*
X-27074000Y-3345353D01*
X-27074000Y-3404647D01*
X-27085567Y-3462797D01*
X-27098666Y-3494420D01*
X-27108258Y-3517577D01*
X-27141198Y-3566876D01*
X-27183124Y-3608802D01*
X-27232423Y-3641742D01*
X-27238896Y-3646067D01*
X-27257838Y-3661612D01*
X-27273383Y-3680554D01*
X-27284934Y-3702165D01*
X-27292047Y-3725614D01*
X-27294449Y-3750000D01*
X-27292047Y-3774386D01*
X-27284934Y-3797835D01*
X-27273383Y-3819446D01*
X-27257838Y-3838388D01*
X-27238896Y-3853933D01*
X-27232423Y-3858258D01*
X-27183124Y-3891198D01*
X-27141198Y-3933124D01*
X-27108258Y-3982423D01*
X-27108257Y-3982425D01*
X-27085567Y-4037203D01*
X-27074000Y-4095353D01*
X-27074000Y-4154647D01*
X-27085567Y-4212797D01*
X-27103134Y-4255206D01*
X-27108258Y-4267577D01*
X-27141198Y-4316876D01*
X-27183124Y-4358802D01*
X-27232423Y-4391742D01*
X-27238896Y-4396067D01*
X-27257838Y-4411612D01*
X-27273383Y-4430554D01*
X-27284934Y-4452165D01*
X-27292047Y-4475614D01*
X-27294449Y-4500000D01*
X-27292047Y-4524386D01*
X-27284934Y-4547835D01*
X-27273383Y-4569446D01*
X-27257838Y-4588388D01*
X-27238896Y-4603933D01*
X-27232423Y-4608258D01*
X-27183124Y-4641198D01*
X-27141198Y-4683124D01*
X-27120305Y-4714394D01*
X-27105647Y-4736330D01*
X-27098504Y-4749695D01*
X-27082959Y-4768637D01*
X-27064017Y-4784182D01*
X-27042406Y-4795733D01*
X-27018957Y-4802846D01*
X-26994571Y-4805248D01*
X-26970185Y-4802846D01*
X-26946736Y-4795733D01*
X-26925125Y-4784182D01*
X-26906183Y-4768637D01*
X-26890638Y-4749695D01*
X-26879087Y-4728084D01*
X-26703762Y-4304811D01*
X-26439974Y-3910025D01*
X-26369866Y-3805101D01*
X-25944899Y-3380134D01*
X-25619193Y-3162504D01*
X-25445189Y-3046238D01*
X-24889943Y-2816248D01*
X-24300499Y-2699000D01*
X-23699501Y-2699000D01*
X-23110057Y-2816248D01*
X-23110057Y-2816248D01*
G37*
G36*
X13389943Y-2816248D02*
G01*
X13945189Y-3046238D01*
X14119193Y-3162504D01*
X14444899Y-3380134D01*
X14869866Y-3805101D01*
X14939974Y-3910025D01*
X15203762Y-4304811D01*
X15379087Y-4728084D01*
X15390638Y-4749695D01*
X15406183Y-4768637D01*
X15425125Y-4784182D01*
X15446736Y-4795733D01*
X15470185Y-4802846D01*
X15494571Y-4805248D01*
X15518957Y-4802846D01*
X15542406Y-4795733D01*
X15564017Y-4784182D01*
X15582959Y-4768637D01*
X15598504Y-4749695D01*
X15605647Y-4736330D01*
X15620305Y-4714394D01*
X15641198Y-4683124D01*
X15683124Y-4641198D01*
X15732423Y-4608258D01*
X15738896Y-4603933D01*
X15757838Y-4588388D01*
X15773383Y-4569446D01*
X15784934Y-4547835D01*
X15792047Y-4524386D01*
X15794449Y-4500000D01*
X15792047Y-4475614D01*
X15784934Y-4452165D01*
X15773383Y-4430554D01*
X15757838Y-4411612D01*
X15738896Y-4396067D01*
X15732423Y-4391742D01*
X15683124Y-4358802D01*
X15641198Y-4316876D01*
X15608258Y-4267577D01*
X15603134Y-4255206D01*
X15585567Y-4212797D01*
X15574000Y-4154647D01*
X15574000Y-4095353D01*
X15585567Y-4037203D01*
X15608257Y-3982425D01*
X15608258Y-3982423D01*
X15641198Y-3933124D01*
X15683124Y-3891198D01*
X15732423Y-3858258D01*
X15738896Y-3853933D01*
X15757838Y-3838388D01*
X15773383Y-3819446D01*
X15784934Y-3797835D01*
X15792047Y-3774386D01*
X15794449Y-3750000D01*
X15792047Y-3725614D01*
X15784934Y-3702165D01*
X15773383Y-3680554D01*
X15757838Y-3661612D01*
X15738896Y-3646067D01*
X15732423Y-3641742D01*
X15683124Y-3608802D01*
X15641198Y-3566876D01*
X15608258Y-3517577D01*
X15598666Y-3494420D01*
X15585567Y-3462797D01*
X15574000Y-3404647D01*
X15574000Y-3345353D01*
X15585567Y-3287203D01*
X15608257Y-3232425D01*
X15608258Y-3232423D01*
X15641198Y-3183124D01*
X15683124Y-3141198D01*
X15732423Y-3108258D01*
X15732425Y-3108257D01*
X15787203Y-3085567D01*
X15845353Y-3074000D01*
X15904647Y-3074000D01*
X15962797Y-3085567D01*
X16017575Y-3108257D01*
X16017577Y-3108258D01*
X16066876Y-3141198D01*
X16108802Y-3183124D01*
X16141742Y-3232423D01*
X16141743Y-3232425D01*
X16164433Y-3287203D01*
X16176000Y-3345353D01*
X16176000Y-3404647D01*
X16164433Y-3462797D01*
X16151334Y-3494420D01*
X16141742Y-3517577D01*
X16108802Y-3566876D01*
X16066876Y-3608802D01*
X16017577Y-3641742D01*
X16011104Y-3646067D01*
X15992162Y-3661612D01*
X15976617Y-3680554D01*
X15965066Y-3702165D01*
X15957953Y-3725614D01*
X15955551Y-3750000D01*
X15957953Y-3774386D01*
X15965066Y-3797835D01*
X15976617Y-3819446D01*
X15992162Y-3838388D01*
X16011104Y-3853933D01*
X16017577Y-3858258D01*
X16066876Y-3891198D01*
X16108802Y-3933124D01*
X16141742Y-3982423D01*
X16141743Y-3982425D01*
X16164433Y-4037203D01*
X16176000Y-4095353D01*
X16176000Y-4154647D01*
X16164433Y-4212797D01*
X16146866Y-4255206D01*
X16141742Y-4267577D01*
X16108802Y-4316876D01*
X16066876Y-4358802D01*
X16017577Y-4391742D01*
X16011104Y-4396067D01*
X15992162Y-4411612D01*
X15976617Y-4430554D01*
X15965066Y-4452165D01*
X15957953Y-4475614D01*
X15955551Y-4500000D01*
X15957953Y-4524386D01*
X15965066Y-4547835D01*
X15976617Y-4569446D01*
X15992162Y-4588388D01*
X16011104Y-4603933D01*
X16017577Y-4608258D01*
X16066876Y-4641198D01*
X16108802Y-4683124D01*
X16141742Y-4732423D01*
X16141743Y-4732425D01*
X16164433Y-4787203D01*
X16176000Y-4845353D01*
X16176000Y-4904647D01*
X16164433Y-4962797D01*
X16141743Y-5017575D01*
X16141742Y-5017577D01*
X16108802Y-5066876D01*
X16066876Y-5108802D01*
X16046493Y-5122421D01*
X16011104Y-5146067D01*
X15992162Y-5161612D01*
X15976617Y-5180554D01*
X15965066Y-5202165D01*
X15957953Y-5225614D01*
X15955551Y-5250000D01*
X15957953Y-5274386D01*
X15965066Y-5297835D01*
X15976617Y-5319446D01*
X15992162Y-5338388D01*
X16011104Y-5353933D01*
X16017577Y-5358258D01*
X16066876Y-5391198D01*
X16108802Y-5433124D01*
X16141742Y-5482423D01*
X16141743Y-5482425D01*
X16164433Y-5537203D01*
X16176000Y-5595353D01*
X16176000Y-5654647D01*
X16164433Y-5712797D01*
X16144363Y-5761249D01*
X16141742Y-5767577D01*
X16108802Y-5816876D01*
X16066876Y-5858802D01*
X16017577Y-5891742D01*
X16017576Y-5891743D01*
X16017575Y-5891743D01*
X15962797Y-5914433D01*
X15904647Y-5926000D01*
X15845353Y-5926000D01*
X15787203Y-5914433D01*
X15723834Y-5888185D01*
X15700385Y-5881072D01*
X15675999Y-5878670D01*
X15651613Y-5881072D01*
X15628164Y-5888185D01*
X15606553Y-5899736D01*
X15587611Y-5915282D01*
X15572066Y-5934223D01*
X15560515Y-5955834D01*
X15553402Y-5979283D01*
X15551000Y-6003669D01*
X15551000Y-6050499D01*
X15433752Y-6639943D01*
X15203762Y-7195189D01*
X15170617Y-7244794D01*
X14869866Y-7694899D01*
X14444899Y-8119866D01*
X14193347Y-8287948D01*
X13945189Y-8453762D01*
X13389943Y-8683752D01*
X12800499Y-8801000D01*
X12199501Y-8801000D01*
X11610057Y-8683752D01*
X11054811Y-8453762D01*
X10806653Y-8287948D01*
X10555101Y-8119866D01*
X10130134Y-7694899D01*
X9829383Y-7244794D01*
X9796238Y-7195189D01*
X9566248Y-6639943D01*
X9449000Y-6050499D01*
X9449000Y-5449501D01*
X9493386Y-5226354D01*
X15509062Y-5226354D01*
X15511464Y-5250739D01*
X15519767Y-5292483D01*
X15526880Y-5315932D01*
X15538430Y-5337543D01*
X15553976Y-5356485D01*
X15572917Y-5372030D01*
X15594528Y-5383582D01*
X15617977Y-5390695D01*
X15642363Y-5393097D01*
X15666749Y-5390695D01*
X15690198Y-5383582D01*
X15711809Y-5372031D01*
X15738895Y-5353933D01*
X15757837Y-5338388D01*
X15773382Y-5319446D01*
X15784934Y-5297836D01*
X15792047Y-5274387D01*
X15794449Y-5250001D01*
X15792047Y-5225615D01*
X15784934Y-5202166D01*
X15773383Y-5180555D01*
X15757838Y-5161613D01*
X15738895Y-5146067D01*
X15703506Y-5122421D01*
X15681896Y-5110870D01*
X15658447Y-5103757D01*
X15634061Y-5101355D01*
X15609674Y-5103757D01*
X15586226Y-5110870D01*
X15564615Y-5122421D01*
X15545673Y-5137967D01*
X15530128Y-5156909D01*
X15518577Y-5178519D01*
X15511464Y-5201968D01*
X15509062Y-5226354D01*
X9493386Y-5226354D01*
X9566248Y-4860057D01*
X9796238Y-4304811D01*
X10060026Y-3910025D01*
X10130134Y-3805101D01*
X10555101Y-3380134D01*
X10880807Y-3162504D01*
X11054811Y-3046238D01*
X11610057Y-2816248D01*
X12199501Y-2699000D01*
X12800499Y-2699000D01*
X13389943Y-2816248D01*
X13389943Y-2816248D01*
G37*
G36*
X-5476788Y-5761249D02*
G01*
X-5382349Y-5789897D01*
X-5295313Y-5836418D01*
X-5219025Y-5899025D01*
X-5156418Y-5975313D01*
X-5109897Y-6062348D01*
X-5081249Y-6156787D01*
X-5074000Y-6230388D01*
X-5074000Y-7429612D01*
X-5081249Y-7503213D01*
X-5109897Y-7597652D01*
X-5156418Y-7684687D01*
X-5219025Y-7760975D01*
X-5295313Y-7823582D01*
X-5382348Y-7870103D01*
X-5476787Y-7898751D01*
X-5575000Y-7908424D01*
X-5673212Y-7898751D01*
X-5767651Y-7870103D01*
X-5854686Y-7823582D01*
X-5930974Y-7760975D01*
X-5993581Y-7684687D01*
X-6040102Y-7597652D01*
X-6068750Y-7503213D01*
X-6075999Y-7429612D01*
X-6076000Y-6230389D01*
X-6068751Y-6156788D01*
X-6040103Y-6062349D01*
X-5993582Y-5975313D01*
X-5930975Y-5899025D01*
X-5854687Y-5836418D01*
X-5767652Y-5789897D01*
X-5673213Y-5761249D01*
X-5575000Y-5751576D01*
X-5476788Y-5761249D01*
X-5476788Y-5761249D01*
G37*
G36*
X5673212Y-5761249D02*
G01*
X5767651Y-5789897D01*
X5854687Y-5836418D01*
X5930975Y-5899025D01*
X5993582Y-5975313D01*
X6040103Y-6062348D01*
X6068751Y-6156787D01*
X6076000Y-6230388D01*
X6076000Y-7429612D01*
X6068751Y-7503213D01*
X6040103Y-7597652D01*
X5993582Y-7684687D01*
X5930975Y-7760975D01*
X5854687Y-7823582D01*
X5767652Y-7870103D01*
X5673213Y-7898751D01*
X5575000Y-7908424D01*
X5476788Y-7898751D01*
X5382349Y-7870103D01*
X5295314Y-7823582D01*
X5219026Y-7760975D01*
X5156419Y-7684687D01*
X5109898Y-7597652D01*
X5081250Y-7503213D01*
X5074001Y-7429612D01*
X5074000Y-6230389D01*
X5081249Y-6156788D01*
X5109897Y-6062349D01*
X5156418Y-5975313D01*
X5219025Y-5899025D01*
X5295313Y-5836418D01*
X5382348Y-5789897D01*
X5476787Y-5761249D01*
X5575000Y-5751576D01*
X5673212Y-5761249D01*
X5673212Y-5761249D01*
G37*
G36*
X3852383Y-6572489D02*
G01*
X3852386Y-6572490D01*
X3852385Y-6572490D01*
X3916258Y-6598946D01*
X3973748Y-6637360D01*
X4022640Y-6686252D01*
X4061054Y-6743742D01*
X4082624Y-6795818D01*
X4087511Y-6807617D01*
X4101000Y-6875430D01*
X4101000Y-6944570D01*
X4087511Y-7012383D01*
X4087510Y-7012385D01*
X4061054Y-7076258D01*
X4022640Y-7133748D01*
X3973748Y-7182640D01*
X3916258Y-7221054D01*
X3864182Y-7242624D01*
X3852383Y-7247511D01*
X3784570Y-7261000D01*
X3715430Y-7261000D01*
X3647617Y-7247511D01*
X3635818Y-7242624D01*
X3583742Y-7221054D01*
X3526252Y-7182640D01*
X3477360Y-7133748D01*
X3438946Y-7076258D01*
X3412490Y-7012385D01*
X3412489Y-7012383D01*
X3399000Y-6944570D01*
X3399000Y-6875430D01*
X3412489Y-6807617D01*
X3417376Y-6795818D01*
X3438946Y-6743742D01*
X3477360Y-6686252D01*
X3526252Y-6637360D01*
X3583742Y-6598946D01*
X3647615Y-6572490D01*
X3647614Y-6572490D01*
X3647617Y-6572489D01*
X3715430Y-6559000D01*
X3784570Y-6559000D01*
X3852383Y-6572489D01*
X3852383Y-6572489D01*
G37*
G36*
X-3647617Y-6572489D02*
G01*
X-3647614Y-6572490D01*
X-3647615Y-6572490D01*
X-3583742Y-6598946D01*
X-3526252Y-6637360D01*
X-3477360Y-6686252D01*
X-3438946Y-6743742D01*
X-3417376Y-6795818D01*
X-3412489Y-6807617D01*
X-3399000Y-6875430D01*
X-3399000Y-6944570D01*
X-3412489Y-7012383D01*
X-3412490Y-7012385D01*
X-3438946Y-7076258D01*
X-3477360Y-7133748D01*
X-3526252Y-7182640D01*
X-3583742Y-7221054D01*
X-3635818Y-7242624D01*
X-3647617Y-7247511D01*
X-3715430Y-7261000D01*
X-3784570Y-7261000D01*
X-3852383Y-7247511D01*
X-3864182Y-7242624D01*
X-3916258Y-7221054D01*
X-3973748Y-7182640D01*
X-4022640Y-7133748D01*
X-4061054Y-7076258D01*
X-4087510Y-7012385D01*
X-4087511Y-7012383D01*
X-4101000Y-6944570D01*
X-4101000Y-6875430D01*
X-4087511Y-6807617D01*
X-4082624Y-6795818D01*
X-4061054Y-6743742D01*
X-4022640Y-6686252D01*
X-3973748Y-6637360D01*
X-3916258Y-6598946D01*
X-3852385Y-6572490D01*
X-3852386Y-6572490D01*
X-3852383Y-6572489D01*
X-3784570Y-6559000D01*
X-3715430Y-6559000D01*
X-3647617Y-6572489D01*
X-3647617Y-6572489D01*
G37*
G36*
X-29537203Y-3085567D02*
G01*
X-29482425Y-3108257D01*
X-29482423Y-3108258D01*
X-29433124Y-3141198D01*
X-29391198Y-3183124D01*
X-29358258Y-3232423D01*
X-29358257Y-3232425D01*
X-29335567Y-3287203D01*
X-29324000Y-3345353D01*
X-29324000Y-3404647D01*
X-29335567Y-3462797D01*
X-29348666Y-3494420D01*
X-29358258Y-3517577D01*
X-29391198Y-3566876D01*
X-29433124Y-3608802D01*
X-29482423Y-3641742D01*
X-29488896Y-3646067D01*
X-29507838Y-3661612D01*
X-29523383Y-3680554D01*
X-29534934Y-3702165D01*
X-29542047Y-3725614D01*
X-29544449Y-3750000D01*
X-29542047Y-3774386D01*
X-29534934Y-3797835D01*
X-29523383Y-3819446D01*
X-29507838Y-3838388D01*
X-29488896Y-3853933D01*
X-29482423Y-3858258D01*
X-29433124Y-3891198D01*
X-29391198Y-3933124D01*
X-29358258Y-3982423D01*
X-29358257Y-3982425D01*
X-29335567Y-4037203D01*
X-29324000Y-4095353D01*
X-29324000Y-4154647D01*
X-29335567Y-4212797D01*
X-29353134Y-4255206D01*
X-29358258Y-4267577D01*
X-29391198Y-4316876D01*
X-29433124Y-4358802D01*
X-29482423Y-4391742D01*
X-29488896Y-4396067D01*
X-29507838Y-4411612D01*
X-29523383Y-4430554D01*
X-29534934Y-4452165D01*
X-29542047Y-4475614D01*
X-29544449Y-4500000D01*
X-29542047Y-4524386D01*
X-29534934Y-4547835D01*
X-29523383Y-4569446D01*
X-29507838Y-4588388D01*
X-29488896Y-4603933D01*
X-29482423Y-4608258D01*
X-29433124Y-4641198D01*
X-29391198Y-4683124D01*
X-29358258Y-4732423D01*
X-29358257Y-4732425D01*
X-29335567Y-4787203D01*
X-29324000Y-4845353D01*
X-29324000Y-4904647D01*
X-29335567Y-4962797D01*
X-29358257Y-5017575D01*
X-29358258Y-5017577D01*
X-29391198Y-5066876D01*
X-29433124Y-5108802D01*
X-29453507Y-5122421D01*
X-29488896Y-5146067D01*
X-29507838Y-5161612D01*
X-29523383Y-5180554D01*
X-29534934Y-5202165D01*
X-29542047Y-5225614D01*
X-29544449Y-5250000D01*
X-29542047Y-5274386D01*
X-29534934Y-5297835D01*
X-29523383Y-5319446D01*
X-29507838Y-5338388D01*
X-29488896Y-5353933D01*
X-29482423Y-5358258D01*
X-29433124Y-5391198D01*
X-29391198Y-5433124D01*
X-29358258Y-5482423D01*
X-29358257Y-5482425D01*
X-29335567Y-5537203D01*
X-29324000Y-5595353D01*
X-29324000Y-5654647D01*
X-29335567Y-5712797D01*
X-29355637Y-5761249D01*
X-29358258Y-5767577D01*
X-29391198Y-5816876D01*
X-29433124Y-5858802D01*
X-29482423Y-5891742D01*
X-29482424Y-5891743D01*
X-29482425Y-5891743D01*
X-29537203Y-5914433D01*
X-29595353Y-5926000D01*
X-29654647Y-5926000D01*
X-29712797Y-5914433D01*
X-29767575Y-5891743D01*
X-29767576Y-5891743D01*
X-29767577Y-5891742D01*
X-29816876Y-5858802D01*
X-29858802Y-5816876D01*
X-29891742Y-5767577D01*
X-29894363Y-5761249D01*
X-29914433Y-5712797D01*
X-29926000Y-5654647D01*
X-29926000Y-5595353D01*
X-29914433Y-5537203D01*
X-29891743Y-5482425D01*
X-29891742Y-5482423D01*
X-29858802Y-5433124D01*
X-29816876Y-5391198D01*
X-29767577Y-5358258D01*
X-29761104Y-5353933D01*
X-29742162Y-5338388D01*
X-29726617Y-5319446D01*
X-29715066Y-5297835D01*
X-29707953Y-5274386D01*
X-29705551Y-5250000D01*
X-29707953Y-5225614D01*
X-29715066Y-5202165D01*
X-29726617Y-5180554D01*
X-29742162Y-5161612D01*
X-29761104Y-5146067D01*
X-29796493Y-5122421D01*
X-29816876Y-5108802D01*
X-29858802Y-5066876D01*
X-29891742Y-5017577D01*
X-29891743Y-5017575D01*
X-29914433Y-4962797D01*
X-29926000Y-4904647D01*
X-29926000Y-4845353D01*
X-29914433Y-4787203D01*
X-29891743Y-4732425D01*
X-29891742Y-4732423D01*
X-29858802Y-4683124D01*
X-29816876Y-4641198D01*
X-29767577Y-4608258D01*
X-29761104Y-4603933D01*
X-29742162Y-4588388D01*
X-29726617Y-4569446D01*
X-29715066Y-4547835D01*
X-29707953Y-4524386D01*
X-29705551Y-4500000D01*
X-29707953Y-4475614D01*
X-29715066Y-4452165D01*
X-29726617Y-4430554D01*
X-29742162Y-4411612D01*
X-29761104Y-4396067D01*
X-29767577Y-4391742D01*
X-29816876Y-4358802D01*
X-29858802Y-4316876D01*
X-29891742Y-4267577D01*
X-29896866Y-4255206D01*
X-29914433Y-4212797D01*
X-29926000Y-4154647D01*
X-29926000Y-4095353D01*
X-29914433Y-4037203D01*
X-29891743Y-3982425D01*
X-29891742Y-3982423D01*
X-29858802Y-3933124D01*
X-29816876Y-3891198D01*
X-29767577Y-3858258D01*
X-29761104Y-3853933D01*
X-29742162Y-3838388D01*
X-29726617Y-3819446D01*
X-29715066Y-3797835D01*
X-29707953Y-3774386D01*
X-29705551Y-3750000D01*
X-29707953Y-3725614D01*
X-29715066Y-3702165D01*
X-29726617Y-3680554D01*
X-29742162Y-3661612D01*
X-29761104Y-3646067D01*
X-29767577Y-3641742D01*
X-29816876Y-3608802D01*
X-29858802Y-3566876D01*
X-29891742Y-3517577D01*
X-29901334Y-3494420D01*
X-29914433Y-3462797D01*
X-29926000Y-3404647D01*
X-29926000Y-3345353D01*
X-29914433Y-3287203D01*
X-29891743Y-3232425D01*
X-29891742Y-3232423D01*
X-29858802Y-3183124D01*
X-29816876Y-3141198D01*
X-29767577Y-3108258D01*
X-29767575Y-3108257D01*
X-29712797Y-3085567D01*
X-29654647Y-3074000D01*
X-29595353Y-3074000D01*
X-29537203Y-3085567D01*
X-29537203Y-3085567D01*
G37*
G36*
X18212797Y-3085567D02*
G01*
X18267575Y-3108257D01*
X18267577Y-3108258D01*
X18316876Y-3141198D01*
X18358802Y-3183124D01*
X18391742Y-3232423D01*
X18391743Y-3232425D01*
X18414433Y-3287203D01*
X18426000Y-3345353D01*
X18426000Y-3404647D01*
X18414433Y-3462797D01*
X18401334Y-3494420D01*
X18391742Y-3517577D01*
X18358802Y-3566876D01*
X18316876Y-3608802D01*
X18267577Y-3641742D01*
X18261104Y-3646067D01*
X18242162Y-3661612D01*
X18226617Y-3680554D01*
X18215066Y-3702165D01*
X18207953Y-3725614D01*
X18205551Y-3750000D01*
X18207953Y-3774386D01*
X18215066Y-3797835D01*
X18226617Y-3819446D01*
X18242162Y-3838388D01*
X18261104Y-3853933D01*
X18267577Y-3858258D01*
X18316876Y-3891198D01*
X18358802Y-3933124D01*
X18391742Y-3982423D01*
X18391743Y-3982425D01*
X18414433Y-4037203D01*
X18426000Y-4095353D01*
X18426000Y-4154647D01*
X18414433Y-4212797D01*
X18396866Y-4255206D01*
X18391742Y-4267577D01*
X18358802Y-4316876D01*
X18316876Y-4358802D01*
X18267577Y-4391742D01*
X18261104Y-4396067D01*
X18242162Y-4411612D01*
X18226617Y-4430554D01*
X18215066Y-4452165D01*
X18207953Y-4475614D01*
X18205551Y-4500000D01*
X18207953Y-4524386D01*
X18215066Y-4547835D01*
X18226617Y-4569446D01*
X18242162Y-4588388D01*
X18261104Y-4603933D01*
X18267577Y-4608258D01*
X18316876Y-4641198D01*
X18358802Y-4683124D01*
X18391742Y-4732423D01*
X18391743Y-4732425D01*
X18414433Y-4787203D01*
X18426000Y-4845353D01*
X18426000Y-4904647D01*
X18414433Y-4962797D01*
X18391743Y-5017575D01*
X18391742Y-5017577D01*
X18358802Y-5066876D01*
X18316876Y-5108802D01*
X18296493Y-5122421D01*
X18261104Y-5146067D01*
X18242162Y-5161612D01*
X18226617Y-5180554D01*
X18215066Y-5202165D01*
X18207953Y-5225614D01*
X18205551Y-5250000D01*
X18207953Y-5274386D01*
X18215066Y-5297835D01*
X18226617Y-5319446D01*
X18242162Y-5338388D01*
X18261104Y-5353933D01*
X18267577Y-5358258D01*
X18316876Y-5391198D01*
X18358802Y-5433124D01*
X18391742Y-5482423D01*
X18391743Y-5482425D01*
X18414433Y-5537203D01*
X18426000Y-5595353D01*
X18426000Y-5654647D01*
X18414433Y-5712797D01*
X18394363Y-5761249D01*
X18391742Y-5767577D01*
X18358802Y-5816876D01*
X18316876Y-5858802D01*
X18267577Y-5891742D01*
X18267576Y-5891743D01*
X18267575Y-5891743D01*
X18212797Y-5914433D01*
X18154647Y-5926000D01*
X18095353Y-5926000D01*
X18037203Y-5914433D01*
X17982425Y-5891743D01*
X17982424Y-5891743D01*
X17982423Y-5891742D01*
X17933124Y-5858802D01*
X17891198Y-5816876D01*
X17858258Y-5767577D01*
X17855637Y-5761249D01*
X17835567Y-5712797D01*
X17824000Y-5654647D01*
X17824000Y-5595353D01*
X17835567Y-5537203D01*
X17858257Y-5482425D01*
X17858258Y-5482423D01*
X17891198Y-5433124D01*
X17933124Y-5391198D01*
X17982423Y-5358258D01*
X17988896Y-5353933D01*
X18007838Y-5338388D01*
X18023383Y-5319446D01*
X18034934Y-5297835D01*
X18042047Y-5274386D01*
X18044449Y-5250000D01*
X18042047Y-5225614D01*
X18034934Y-5202165D01*
X18023383Y-5180554D01*
X18007838Y-5161612D01*
X17988896Y-5146067D01*
X17953507Y-5122421D01*
X17933124Y-5108802D01*
X17891198Y-5066876D01*
X17858258Y-5017577D01*
X17858257Y-5017575D01*
X17835567Y-4962797D01*
X17824000Y-4904647D01*
X17824000Y-4845353D01*
X17835567Y-4787203D01*
X17858257Y-4732425D01*
X17858258Y-4732423D01*
X17891198Y-4683124D01*
X17933124Y-4641198D01*
X17982423Y-4608258D01*
X17988896Y-4603933D01*
X18007838Y-4588388D01*
X18023383Y-4569446D01*
X18034934Y-4547835D01*
X18042047Y-4524386D01*
X18044449Y-4500000D01*
X18042047Y-4475614D01*
X18034934Y-4452165D01*
X18023383Y-4430554D01*
X18007838Y-4411612D01*
X17988896Y-4396067D01*
X17982423Y-4391742D01*
X17933124Y-4358802D01*
X17891198Y-4316876D01*
X17858258Y-4267577D01*
X17853134Y-4255206D01*
X17835567Y-4212797D01*
X17824000Y-4154647D01*
X17824000Y-4095353D01*
X17835567Y-4037203D01*
X17858257Y-3982425D01*
X17858258Y-3982423D01*
X17891198Y-3933124D01*
X17933124Y-3891198D01*
X17982423Y-3858258D01*
X17988896Y-3853933D01*
X18007838Y-3838388D01*
X18023383Y-3819446D01*
X18034934Y-3797835D01*
X18042047Y-3774386D01*
X18044449Y-3750000D01*
X18042047Y-3725614D01*
X18034934Y-3702165D01*
X18023383Y-3680554D01*
X18007838Y-3661612D01*
X17988896Y-3646067D01*
X17982423Y-3641742D01*
X17933124Y-3608802D01*
X17891198Y-3566876D01*
X17858258Y-3517577D01*
X17848666Y-3494420D01*
X17835567Y-3462797D01*
X17824000Y-3404647D01*
X17824000Y-3345353D01*
X17835567Y-3287203D01*
X17858257Y-3232425D01*
X17858258Y-3232423D01*
X17891198Y-3183124D01*
X17933124Y-3141198D01*
X17982423Y-3108258D01*
X17982425Y-3108257D01*
X18037203Y-3085567D01*
X18095353Y-3074000D01*
X18154647Y-3074000D01*
X18212797Y-3085567D01*
X18212797Y-3085567D01*
G37*
G36*
X5673212Y-1161249D02*
G01*
X5767651Y-1189897D01*
X5854687Y-1236418D01*
X5930975Y-1299025D01*
X5993582Y-1375313D01*
X6040103Y-1462348D01*
X6068751Y-1556787D01*
X6076000Y-1630388D01*
X6076000Y-2829612D01*
X6068751Y-2903213D01*
X6040103Y-2997652D01*
X5993582Y-3084687D01*
X5930975Y-3160975D01*
X5854687Y-3223582D01*
X5767652Y-3270103D01*
X5673213Y-3298751D01*
X5575000Y-3308424D01*
X5476788Y-3298751D01*
X5382349Y-3270103D01*
X5295314Y-3223582D01*
X5219026Y-3160975D01*
X5156419Y-3084687D01*
X5109898Y-2997652D01*
X5081250Y-2903213D01*
X5074001Y-2829612D01*
X5074000Y-1630389D01*
X5081249Y-1556788D01*
X5109897Y-1462349D01*
X5156418Y-1375313D01*
X5219025Y-1299025D01*
X5295313Y-1236418D01*
X5382348Y-1189897D01*
X5476787Y-1161249D01*
X5575000Y-1151576D01*
X5673212Y-1161249D01*
X5673212Y-1161249D01*
G37*
G36*
X-5476788Y-1161249D02*
G01*
X-5382349Y-1189897D01*
X-5295313Y-1236418D01*
X-5219025Y-1299025D01*
X-5156418Y-1375313D01*
X-5109897Y-1462348D01*
X-5081249Y-1556787D01*
X-5074000Y-1630388D01*
X-5074000Y-2829612D01*
X-5081249Y-2903213D01*
X-5109897Y-2997652D01*
X-5156418Y-3084687D01*
X-5219025Y-3160975D01*
X-5295313Y-3223582D01*
X-5382348Y-3270103D01*
X-5476787Y-3298751D01*
X-5575000Y-3308424D01*
X-5673212Y-3298751D01*
X-5767651Y-3270103D01*
X-5854686Y-3223582D01*
X-5930974Y-3160975D01*
X-5993581Y-3084687D01*
X-6040102Y-2997652D01*
X-6068750Y-2903213D01*
X-6075999Y-2829612D01*
X-6076000Y-1630389D01*
X-6068751Y-1556788D01*
X-6040103Y-1462349D01*
X-5993582Y-1375313D01*
X-5930975Y-1299025D01*
X-5854687Y-1236418D01*
X-5767652Y-1189897D01*
X-5673213Y-1161249D01*
X-5575000Y-1151576D01*
X-5476788Y-1161249D01*
X-5476788Y-1161249D01*
G37*
G36*
X10462797Y164433D02*
G01*
X10517575Y141743D01*
X10517577Y141742D01*
X10566876Y108802D01*
X10608802Y66876D01*
X10641742Y17577D01*
X10646067Y11104D01*
X10661612Y-7838D01*
X10680554Y-23383D01*
X10702165Y-34934D01*
X10725614Y-42047D01*
X10750000Y-44449D01*
X10774386Y-42047D01*
X10797835Y-34934D01*
X10819446Y-23383D01*
X10838388Y-7838D01*
X10853933Y11104D01*
X10858258Y17577D01*
X10891198Y66876D01*
X10933124Y108802D01*
X10982423Y141742D01*
X10982425Y141743D01*
X11037203Y164433D01*
X11095353Y176000D01*
X11154647Y176000D01*
X11212797Y164433D01*
X11267575Y141743D01*
X11267577Y141742D01*
X11316876Y108802D01*
X11358802Y66876D01*
X11391742Y17577D01*
X11396067Y11104D01*
X11411612Y-7838D01*
X11430554Y-23383D01*
X11452165Y-34934D01*
X11475614Y-42047D01*
X11500000Y-44449D01*
X11524386Y-42047D01*
X11547835Y-34934D01*
X11569446Y-23383D01*
X11588388Y-7838D01*
X11603933Y11104D01*
X11608258Y17577D01*
X11641198Y66876D01*
X11683124Y108802D01*
X11732423Y141742D01*
X11732425Y141743D01*
X11787203Y164433D01*
X11845353Y176000D01*
X11904647Y176000D01*
X11962797Y164433D01*
X12017575Y141743D01*
X12017577Y141742D01*
X12066876Y108802D01*
X12108802Y66876D01*
X12141742Y17577D01*
X12146067Y11104D01*
X12161612Y-7838D01*
X12180554Y-23383D01*
X12202165Y-34934D01*
X12225614Y-42047D01*
X12250000Y-44449D01*
X12274386Y-42047D01*
X12297835Y-34934D01*
X12319446Y-23383D01*
X12338388Y-7838D01*
X12353933Y11104D01*
X12358258Y17577D01*
X12391198Y66876D01*
X12433124Y108802D01*
X12482423Y141742D01*
X12482425Y141743D01*
X12537203Y164433D01*
X12595353Y176000D01*
X12654647Y176000D01*
X12712797Y164433D01*
X12767575Y141743D01*
X12767577Y141742D01*
X12816876Y108802D01*
X12858802Y66876D01*
X12891742Y17577D01*
X12891743Y17575D01*
X12914433Y-37203D01*
X12926000Y-95353D01*
X12926000Y-154647D01*
X12914433Y-212797D01*
X12894423Y-261104D01*
X12891742Y-267577D01*
X12858802Y-316876D01*
X12816876Y-358802D01*
X12767577Y-391742D01*
X12767576Y-391743D01*
X12767575Y-391743D01*
X12712797Y-414433D01*
X12654647Y-426000D01*
X12595353Y-426000D01*
X12537203Y-414433D01*
X12482425Y-391743D01*
X12482424Y-391743D01*
X12482423Y-391742D01*
X12433124Y-358802D01*
X12391198Y-316876D01*
X12358258Y-267577D01*
X12358257Y-267575D01*
X12353933Y-261104D01*
X12338388Y-242162D01*
X12319446Y-226617D01*
X12297835Y-215066D01*
X12274386Y-207953D01*
X12250000Y-205551D01*
X12225614Y-207953D01*
X12202165Y-215066D01*
X12180554Y-226617D01*
X12161612Y-242162D01*
X12146067Y-261104D01*
X12141743Y-267575D01*
X12141742Y-267577D01*
X12108802Y-316876D01*
X12066876Y-358802D01*
X12017577Y-391742D01*
X12017576Y-391743D01*
X12017575Y-391743D01*
X11962797Y-414433D01*
X11904647Y-426000D01*
X11845353Y-426000D01*
X11787203Y-414433D01*
X11732425Y-391743D01*
X11732424Y-391743D01*
X11732423Y-391742D01*
X11683124Y-358802D01*
X11641198Y-316876D01*
X11608258Y-267577D01*
X11608257Y-267575D01*
X11603933Y-261104D01*
X11588388Y-242162D01*
X11569446Y-226617D01*
X11547835Y-215066D01*
X11524386Y-207953D01*
X11500000Y-205551D01*
X11475614Y-207953D01*
X11452165Y-215066D01*
X11430554Y-226617D01*
X11411612Y-242162D01*
X11396067Y-261104D01*
X11391743Y-267575D01*
X11391742Y-267577D01*
X11358802Y-316876D01*
X11316876Y-358802D01*
X11267577Y-391742D01*
X11267576Y-391743D01*
X11267575Y-391743D01*
X11212797Y-414433D01*
X11154647Y-426000D01*
X11095353Y-426000D01*
X11037203Y-414433D01*
X10982425Y-391743D01*
X10982424Y-391743D01*
X10982423Y-391742D01*
X10933124Y-358802D01*
X10891198Y-316876D01*
X10858258Y-267577D01*
X10858257Y-267575D01*
X10853933Y-261104D01*
X10838388Y-242162D01*
X10819446Y-226617D01*
X10797835Y-215066D01*
X10774386Y-207953D01*
X10750000Y-205551D01*
X10725614Y-207953D01*
X10702165Y-215066D01*
X10680554Y-226617D01*
X10661612Y-242162D01*
X10646067Y-261104D01*
X10641743Y-267575D01*
X10641742Y-267577D01*
X10608802Y-316876D01*
X10566876Y-358802D01*
X10517577Y-391742D01*
X10517576Y-391743D01*
X10517575Y-391743D01*
X10462797Y-414433D01*
X10404647Y-426000D01*
X10345353Y-426000D01*
X10287203Y-414433D01*
X10232425Y-391743D01*
X10232424Y-391743D01*
X10232423Y-391742D01*
X10183124Y-358802D01*
X10141198Y-316876D01*
X10108258Y-267577D01*
X10105577Y-261104D01*
X10085567Y-212797D01*
X10074000Y-154647D01*
X10074000Y-95353D01*
X10085567Y-37203D01*
X10108257Y17575D01*
X10108258Y17577D01*
X10141198Y66876D01*
X10183124Y108802D01*
X10232423Y141742D01*
X10232425Y141743D01*
X10287203Y164433D01*
X10345353Y176000D01*
X10404647Y176000D01*
X10462797Y164433D01*
X10462797Y164433D01*
G37*
G36*
X-33537203Y164433D02*
G01*
X-33482425Y141743D01*
X-33482423Y141742D01*
X-33433124Y108802D01*
X-33391198Y66876D01*
X-33358258Y17577D01*
X-33353933Y11104D01*
X-33338388Y-7838D01*
X-33319446Y-23383D01*
X-33297835Y-34934D01*
X-33274386Y-42047D01*
X-33250000Y-44449D01*
X-33225614Y-42047D01*
X-33202165Y-34934D01*
X-33180554Y-23383D01*
X-33161612Y-7838D01*
X-33146067Y11104D01*
X-33141742Y17577D01*
X-33108802Y66876D01*
X-33066876Y108802D01*
X-33017577Y141742D01*
X-33017575Y141743D01*
X-32962797Y164433D01*
X-32904647Y176000D01*
X-32845353Y176000D01*
X-32787203Y164433D01*
X-32732425Y141743D01*
X-32732423Y141742D01*
X-32683124Y108802D01*
X-32641198Y66876D01*
X-32608258Y17577D01*
X-32603933Y11104D01*
X-32588388Y-7838D01*
X-32569446Y-23383D01*
X-32547835Y-34934D01*
X-32524386Y-42047D01*
X-32500000Y-44449D01*
X-32475614Y-42047D01*
X-32452165Y-34934D01*
X-32430554Y-23383D01*
X-32411612Y-7838D01*
X-32396067Y11104D01*
X-32391742Y17577D01*
X-32358802Y66876D01*
X-32316876Y108802D01*
X-32267577Y141742D01*
X-32267575Y141743D01*
X-32212797Y164433D01*
X-32154647Y176000D01*
X-32095353Y176000D01*
X-32037203Y164433D01*
X-31982425Y141743D01*
X-31982423Y141742D01*
X-31933124Y108802D01*
X-31891198Y66876D01*
X-31858258Y17577D01*
X-31853933Y11104D01*
X-31838388Y-7838D01*
X-31819446Y-23383D01*
X-31797835Y-34934D01*
X-31774386Y-42047D01*
X-31750000Y-44449D01*
X-31725614Y-42047D01*
X-31702165Y-34934D01*
X-31680554Y-23383D01*
X-31661612Y-7838D01*
X-31646067Y11104D01*
X-31641742Y17577D01*
X-31608802Y66876D01*
X-31566876Y108802D01*
X-31517577Y141742D01*
X-31517575Y141743D01*
X-31462797Y164433D01*
X-31404647Y176000D01*
X-31345353Y176000D01*
X-31287203Y164433D01*
X-31232425Y141743D01*
X-31232423Y141742D01*
X-31183124Y108802D01*
X-31141198Y66876D01*
X-31108258Y17577D01*
X-31108257Y17575D01*
X-31085567Y-37203D01*
X-31074000Y-95353D01*
X-31074000Y-154647D01*
X-31085567Y-212797D01*
X-31105577Y-261104D01*
X-31108258Y-267577D01*
X-31141198Y-316876D01*
X-31183124Y-358802D01*
X-31232423Y-391742D01*
X-31232424Y-391743D01*
X-31232425Y-391743D01*
X-31287203Y-414433D01*
X-31345353Y-426000D01*
X-31404647Y-426000D01*
X-31462797Y-414433D01*
X-31517575Y-391743D01*
X-31517576Y-391743D01*
X-31517577Y-391742D01*
X-31566876Y-358802D01*
X-31608802Y-316876D01*
X-31641742Y-267577D01*
X-31641743Y-267575D01*
X-31646067Y-261104D01*
X-31661612Y-242162D01*
X-31680554Y-226617D01*
X-31702165Y-215066D01*
X-31725614Y-207953D01*
X-31750000Y-205551D01*
X-31774386Y-207953D01*
X-31797835Y-215066D01*
X-31819446Y-226617D01*
X-31838388Y-242162D01*
X-31853933Y-261104D01*
X-31858257Y-267575D01*
X-31858258Y-267577D01*
X-31891198Y-316876D01*
X-31933124Y-358802D01*
X-31982423Y-391742D01*
X-31982424Y-391743D01*
X-31982425Y-391743D01*
X-32037203Y-414433D01*
X-32095353Y-426000D01*
X-32154647Y-426000D01*
X-32212797Y-414433D01*
X-32267575Y-391743D01*
X-32267576Y-391743D01*
X-32267577Y-391742D01*
X-32316876Y-358802D01*
X-32358802Y-316876D01*
X-32391742Y-267577D01*
X-32391743Y-267575D01*
X-32396067Y-261104D01*
X-32411612Y-242162D01*
X-32430554Y-226617D01*
X-32452165Y-215066D01*
X-32475614Y-207953D01*
X-32500000Y-205551D01*
X-32524386Y-207953D01*
X-32547835Y-215066D01*
X-32569446Y-226617D01*
X-32588388Y-242162D01*
X-32603933Y-261104D01*
X-32608257Y-267575D01*
X-32608258Y-267577D01*
X-32641198Y-316876D01*
X-32683124Y-358802D01*
X-32732423Y-391742D01*
X-32732424Y-391743D01*
X-32732425Y-391743D01*
X-32787203Y-414433D01*
X-32845353Y-426000D01*
X-32904647Y-426000D01*
X-32962797Y-414433D01*
X-33017575Y-391743D01*
X-33017576Y-391743D01*
X-33017577Y-391742D01*
X-33066876Y-358802D01*
X-33108802Y-316876D01*
X-33141742Y-267577D01*
X-33141743Y-267575D01*
X-33146067Y-261104D01*
X-33161612Y-242162D01*
X-33180554Y-226617D01*
X-33202165Y-215066D01*
X-33225614Y-207953D01*
X-33250000Y-205551D01*
X-33274386Y-207953D01*
X-33297835Y-215066D01*
X-33319446Y-226617D01*
X-33338388Y-242162D01*
X-33353933Y-261104D01*
X-33358257Y-267575D01*
X-33358258Y-267577D01*
X-33391198Y-316876D01*
X-33433124Y-358802D01*
X-33482423Y-391742D01*
X-33482424Y-391743D01*
X-33482425Y-391743D01*
X-33537203Y-414433D01*
X-33595353Y-426000D01*
X-33654647Y-426000D01*
X-33712797Y-414433D01*
X-33767575Y-391743D01*
X-33767576Y-391743D01*
X-33767577Y-391742D01*
X-33816876Y-358802D01*
X-33858802Y-316876D01*
X-33891742Y-267577D01*
X-33894423Y-261104D01*
X-33914433Y-212797D01*
X-33926000Y-154647D01*
X-33926000Y-95353D01*
X-33914433Y-37203D01*
X-33891743Y17575D01*
X-33891742Y17577D01*
X-33858802Y66876D01*
X-33816876Y108802D01*
X-33767577Y141742D01*
X-33767575Y141743D01*
X-33712797Y164433D01*
X-33654647Y176000D01*
X-33595353Y176000D01*
X-33537203Y164433D01*
X-33537203Y164433D01*
G37*
G36*
X19962797Y164433D02*
G01*
X20017575Y141743D01*
X20017577Y141742D01*
X20066876Y108802D01*
X20108802Y66876D01*
X20141742Y17577D01*
X20146067Y11104D01*
X20161612Y-7838D01*
X20180554Y-23383D01*
X20202165Y-34934D01*
X20225614Y-42047D01*
X20250000Y-44449D01*
X20274386Y-42047D01*
X20297835Y-34934D01*
X20319446Y-23383D01*
X20338388Y-7838D01*
X20353933Y11104D01*
X20358258Y17577D01*
X20391198Y66876D01*
X20433124Y108802D01*
X20482423Y141742D01*
X20482425Y141743D01*
X20537203Y164433D01*
X20595353Y176000D01*
X20654647Y176000D01*
X20712797Y164433D01*
X20767575Y141743D01*
X20767577Y141742D01*
X20816876Y108802D01*
X20858802Y66876D01*
X20891742Y17577D01*
X20896067Y11104D01*
X20911612Y-7838D01*
X20930554Y-23383D01*
X20952165Y-34934D01*
X20975614Y-42047D01*
X21000000Y-44449D01*
X21024386Y-42047D01*
X21047835Y-34934D01*
X21069446Y-23383D01*
X21088388Y-7838D01*
X21103933Y11104D01*
X21108258Y17577D01*
X21141198Y66876D01*
X21183124Y108802D01*
X21232423Y141742D01*
X21232425Y141743D01*
X21287203Y164433D01*
X21345353Y176000D01*
X21404647Y176000D01*
X21462797Y164433D01*
X21517575Y141743D01*
X21517577Y141742D01*
X21566876Y108802D01*
X21608802Y66876D01*
X21641742Y17577D01*
X21646067Y11104D01*
X21661612Y-7838D01*
X21680554Y-23383D01*
X21702165Y-34934D01*
X21725614Y-42047D01*
X21750000Y-44449D01*
X21774386Y-42047D01*
X21797835Y-34934D01*
X21819446Y-23383D01*
X21838388Y-7838D01*
X21853933Y11104D01*
X21858258Y17577D01*
X21891198Y66876D01*
X21933124Y108802D01*
X21982423Y141742D01*
X21982425Y141743D01*
X22037203Y164433D01*
X22095353Y176000D01*
X22154647Y176000D01*
X22212797Y164433D01*
X22267575Y141743D01*
X22267577Y141742D01*
X22316876Y108802D01*
X22358802Y66876D01*
X22391742Y17577D01*
X22391743Y17575D01*
X22414433Y-37203D01*
X22426000Y-95353D01*
X22426000Y-154647D01*
X22414433Y-212797D01*
X22394423Y-261104D01*
X22391742Y-267577D01*
X22358802Y-316876D01*
X22316876Y-358802D01*
X22267577Y-391742D01*
X22267576Y-391743D01*
X22267575Y-391743D01*
X22212797Y-414433D01*
X22154647Y-426000D01*
X22095353Y-426000D01*
X22037203Y-414433D01*
X21982425Y-391743D01*
X21982424Y-391743D01*
X21982423Y-391742D01*
X21933124Y-358802D01*
X21891198Y-316876D01*
X21858258Y-267577D01*
X21858257Y-267575D01*
X21853933Y-261104D01*
X21838388Y-242162D01*
X21819446Y-226617D01*
X21797835Y-215066D01*
X21774386Y-207953D01*
X21750000Y-205551D01*
X21725614Y-207953D01*
X21702165Y-215066D01*
X21680554Y-226617D01*
X21661612Y-242162D01*
X21646067Y-261104D01*
X21641743Y-267575D01*
X21641742Y-267577D01*
X21608802Y-316876D01*
X21566876Y-358802D01*
X21517577Y-391742D01*
X21517576Y-391743D01*
X21517575Y-391743D01*
X21462797Y-414433D01*
X21404647Y-426000D01*
X21345353Y-426000D01*
X21287203Y-414433D01*
X21232425Y-391743D01*
X21232424Y-391743D01*
X21232423Y-391742D01*
X21183124Y-358802D01*
X21141198Y-316876D01*
X21108258Y-267577D01*
X21108257Y-267575D01*
X21103933Y-261104D01*
X21088388Y-242162D01*
X21069446Y-226617D01*
X21047835Y-215066D01*
X21024386Y-207953D01*
X21000000Y-205551D01*
X20975614Y-207953D01*
X20952165Y-215066D01*
X20930554Y-226617D01*
X20911612Y-242162D01*
X20896067Y-261104D01*
X20891743Y-267575D01*
X20891742Y-267577D01*
X20858802Y-316876D01*
X20816876Y-358802D01*
X20767577Y-391742D01*
X20767576Y-391743D01*
X20767575Y-391743D01*
X20712797Y-414433D01*
X20654647Y-426000D01*
X20595353Y-426000D01*
X20537203Y-414433D01*
X20482425Y-391743D01*
X20482424Y-391743D01*
X20482423Y-391742D01*
X20433124Y-358802D01*
X20391198Y-316876D01*
X20358258Y-267577D01*
X20358257Y-267575D01*
X20353933Y-261104D01*
X20338388Y-242162D01*
X20319446Y-226617D01*
X20297835Y-215066D01*
X20274386Y-207953D01*
X20250000Y-205551D01*
X20225614Y-207953D01*
X20202165Y-215066D01*
X20180554Y-226617D01*
X20161612Y-242162D01*
X20146067Y-261104D01*
X20141743Y-267575D01*
X20141742Y-267577D01*
X20108802Y-316876D01*
X20066876Y-358802D01*
X20017577Y-391742D01*
X20017576Y-391743D01*
X20017575Y-391743D01*
X19962797Y-414433D01*
X19904647Y-426000D01*
X19845353Y-426000D01*
X19787203Y-414433D01*
X19732425Y-391743D01*
X19732424Y-391743D01*
X19732423Y-391742D01*
X19683124Y-358802D01*
X19641198Y-316876D01*
X19608258Y-267577D01*
X19605577Y-261104D01*
X19585567Y-212797D01*
X19574000Y-154647D01*
X19574000Y-95353D01*
X19585567Y-37203D01*
X19608257Y17575D01*
X19608258Y17577D01*
X19641198Y66876D01*
X19683124Y108802D01*
X19732423Y141742D01*
X19732425Y141743D01*
X19787203Y164433D01*
X19845353Y176000D01*
X19904647Y176000D01*
X19962797Y164433D01*
X19962797Y164433D01*
G37*
G36*
X-24037203Y164433D02*
G01*
X-23982425Y141743D01*
X-23982423Y141742D01*
X-23933124Y108802D01*
X-23891198Y66876D01*
X-23858258Y17577D01*
X-23853933Y11104D01*
X-23838388Y-7838D01*
X-23819446Y-23383D01*
X-23797835Y-34934D01*
X-23774386Y-42047D01*
X-23750000Y-44449D01*
X-23725614Y-42047D01*
X-23702165Y-34934D01*
X-23680554Y-23383D01*
X-23661612Y-7838D01*
X-23646067Y11104D01*
X-23641742Y17577D01*
X-23608802Y66876D01*
X-23566876Y108802D01*
X-23517577Y141742D01*
X-23517575Y141743D01*
X-23462797Y164433D01*
X-23404647Y176000D01*
X-23345353Y176000D01*
X-23287203Y164433D01*
X-23232425Y141743D01*
X-23232423Y141742D01*
X-23183124Y108802D01*
X-23141198Y66876D01*
X-23108258Y17577D01*
X-23103933Y11104D01*
X-23088388Y-7838D01*
X-23069446Y-23383D01*
X-23047835Y-34934D01*
X-23024386Y-42047D01*
X-23000000Y-44449D01*
X-22975614Y-42047D01*
X-22952165Y-34934D01*
X-22930554Y-23383D01*
X-22911612Y-7838D01*
X-22896067Y11104D01*
X-22891742Y17577D01*
X-22858802Y66876D01*
X-22816876Y108802D01*
X-22767577Y141742D01*
X-22767575Y141743D01*
X-22712797Y164433D01*
X-22654647Y176000D01*
X-22595353Y176000D01*
X-22537203Y164433D01*
X-22482425Y141743D01*
X-22482423Y141742D01*
X-22433124Y108802D01*
X-22391198Y66876D01*
X-22358258Y17577D01*
X-22353933Y11104D01*
X-22338388Y-7838D01*
X-22319446Y-23383D01*
X-22297835Y-34934D01*
X-22274386Y-42047D01*
X-22250000Y-44449D01*
X-22225614Y-42047D01*
X-22202165Y-34934D01*
X-22180554Y-23383D01*
X-22161612Y-7838D01*
X-22146067Y11104D01*
X-22141742Y17577D01*
X-22108802Y66876D01*
X-22066876Y108802D01*
X-22017577Y141742D01*
X-22017575Y141743D01*
X-21962797Y164433D01*
X-21904647Y176000D01*
X-21845353Y176000D01*
X-21787203Y164433D01*
X-21732425Y141743D01*
X-21732423Y141742D01*
X-21683124Y108802D01*
X-21641198Y66876D01*
X-21608258Y17577D01*
X-21608257Y17575D01*
X-21585567Y-37203D01*
X-21574000Y-95353D01*
X-21574000Y-154647D01*
X-21585567Y-212797D01*
X-21605577Y-261104D01*
X-21608258Y-267577D01*
X-21641198Y-316876D01*
X-21683124Y-358802D01*
X-21732423Y-391742D01*
X-21732424Y-391743D01*
X-21732425Y-391743D01*
X-21787203Y-414433D01*
X-21845353Y-426000D01*
X-21904647Y-426000D01*
X-21962797Y-414433D01*
X-22017575Y-391743D01*
X-22017576Y-391743D01*
X-22017577Y-391742D01*
X-22066876Y-358802D01*
X-22108802Y-316876D01*
X-22141742Y-267577D01*
X-22141743Y-267575D01*
X-22146067Y-261104D01*
X-22161612Y-242162D01*
X-22180554Y-226617D01*
X-22202165Y-215066D01*
X-22225614Y-207953D01*
X-22250000Y-205551D01*
X-22274386Y-207953D01*
X-22297835Y-215066D01*
X-22319446Y-226617D01*
X-22338388Y-242162D01*
X-22353933Y-261104D01*
X-22358257Y-267575D01*
X-22358258Y-267577D01*
X-22391198Y-316876D01*
X-22433124Y-358802D01*
X-22482423Y-391742D01*
X-22482424Y-391743D01*
X-22482425Y-391743D01*
X-22537203Y-414433D01*
X-22595353Y-426000D01*
X-22654647Y-426000D01*
X-22712797Y-414433D01*
X-22767575Y-391743D01*
X-22767576Y-391743D01*
X-22767577Y-391742D01*
X-22816876Y-358802D01*
X-22858802Y-316876D01*
X-22891742Y-267577D01*
X-22891743Y-267575D01*
X-22896067Y-261104D01*
X-22911612Y-242162D01*
X-22930554Y-226617D01*
X-22952165Y-215066D01*
X-22975614Y-207953D01*
X-23000000Y-205551D01*
X-23024386Y-207953D01*
X-23047835Y-215066D01*
X-23069446Y-226617D01*
X-23088388Y-242162D01*
X-23103933Y-261104D01*
X-23108257Y-267575D01*
X-23108258Y-267577D01*
X-23141198Y-316876D01*
X-23183124Y-358802D01*
X-23232423Y-391742D01*
X-23232424Y-391743D01*
X-23232425Y-391743D01*
X-23287203Y-414433D01*
X-23345353Y-426000D01*
X-23404647Y-426000D01*
X-23462797Y-414433D01*
X-23517575Y-391743D01*
X-23517576Y-391743D01*
X-23517577Y-391742D01*
X-23566876Y-358802D01*
X-23608802Y-316876D01*
X-23641742Y-267577D01*
X-23641743Y-267575D01*
X-23646067Y-261104D01*
X-23661612Y-242162D01*
X-23680554Y-226617D01*
X-23702165Y-215066D01*
X-23725614Y-207953D01*
X-23750000Y-205551D01*
X-23774386Y-207953D01*
X-23797835Y-215066D01*
X-23819446Y-226617D01*
X-23838388Y-242162D01*
X-23853933Y-261104D01*
X-23858257Y-267575D01*
X-23858258Y-267577D01*
X-23891198Y-316876D01*
X-23933124Y-358802D01*
X-23982423Y-391742D01*
X-23982424Y-391743D01*
X-23982425Y-391743D01*
X-24037203Y-414433D01*
X-24095353Y-426000D01*
X-24154647Y-426000D01*
X-24212797Y-414433D01*
X-24267575Y-391743D01*
X-24267576Y-391743D01*
X-24267577Y-391742D01*
X-24316876Y-358802D01*
X-24358802Y-316876D01*
X-24391742Y-267577D01*
X-24394423Y-261104D01*
X-24414433Y-212797D01*
X-24426000Y-154647D01*
X-24426000Y-95353D01*
X-24414433Y-37203D01*
X-24391743Y17575D01*
X-24391742Y17577D01*
X-24358802Y66876D01*
X-24316876Y108802D01*
X-24267577Y141742D01*
X-24267575Y141743D01*
X-24212797Y164433D01*
X-24154647Y176000D01*
X-24095353Y176000D01*
X-24037203Y164433D01*
X-24037203Y164433D01*
G37*
G36*
X-24037203Y2414433D02*
G01*
X-23982425Y2391743D01*
X-23982423Y2391742D01*
X-23933124Y2358802D01*
X-23891198Y2316876D01*
X-23858258Y2267577D01*
X-23853933Y2261104D01*
X-23838388Y2242162D01*
X-23819446Y2226617D01*
X-23797835Y2215066D01*
X-23774386Y2207953D01*
X-23750000Y2205551D01*
X-23725614Y2207953D01*
X-23702165Y2215066D01*
X-23680554Y2226617D01*
X-23661612Y2242162D01*
X-23646067Y2261104D01*
X-23641742Y2267577D01*
X-23608802Y2316876D01*
X-23566876Y2358802D01*
X-23517577Y2391742D01*
X-23517575Y2391743D01*
X-23462797Y2414433D01*
X-23404647Y2426000D01*
X-23345353Y2426000D01*
X-23287203Y2414433D01*
X-23232425Y2391743D01*
X-23232423Y2391742D01*
X-23183124Y2358802D01*
X-23141198Y2316876D01*
X-23108258Y2267577D01*
X-23103933Y2261104D01*
X-23088388Y2242162D01*
X-23069446Y2226617D01*
X-23047835Y2215066D01*
X-23024386Y2207953D01*
X-23000000Y2205551D01*
X-22975614Y2207953D01*
X-22952165Y2215066D01*
X-22930554Y2226617D01*
X-22911612Y2242162D01*
X-22896067Y2261104D01*
X-22891742Y2267577D01*
X-22858802Y2316876D01*
X-22816876Y2358802D01*
X-22767577Y2391742D01*
X-22767575Y2391743D01*
X-22712797Y2414433D01*
X-22654647Y2426000D01*
X-22595353Y2426000D01*
X-22537203Y2414433D01*
X-22482425Y2391743D01*
X-22482423Y2391742D01*
X-22433124Y2358802D01*
X-22391198Y2316876D01*
X-22358258Y2267577D01*
X-22353933Y2261104D01*
X-22338388Y2242162D01*
X-22319446Y2226617D01*
X-22297835Y2215066D01*
X-22274386Y2207953D01*
X-22250000Y2205551D01*
X-22225614Y2207953D01*
X-22202165Y2215066D01*
X-22180554Y2226617D01*
X-22161612Y2242162D01*
X-22146067Y2261104D01*
X-22141742Y2267577D01*
X-22108802Y2316876D01*
X-22066876Y2358802D01*
X-22017577Y2391742D01*
X-22017575Y2391743D01*
X-21962797Y2414433D01*
X-21904647Y2426000D01*
X-21845353Y2426000D01*
X-21787203Y2414433D01*
X-21732425Y2391743D01*
X-21732423Y2391742D01*
X-21683124Y2358802D01*
X-21641198Y2316876D01*
X-21608258Y2267577D01*
X-21608257Y2267575D01*
X-21585567Y2212797D01*
X-21574000Y2154647D01*
X-21574000Y2095353D01*
X-21585567Y2037203D01*
X-21605577Y1988896D01*
X-21608258Y1982423D01*
X-21641198Y1933124D01*
X-21683124Y1891198D01*
X-21732423Y1858258D01*
X-21732424Y1858257D01*
X-21732425Y1858257D01*
X-21787203Y1835567D01*
X-21845353Y1824000D01*
X-21904647Y1824000D01*
X-21962797Y1835567D01*
X-22017575Y1858257D01*
X-22017576Y1858257D01*
X-22017577Y1858258D01*
X-22066876Y1891198D01*
X-22108802Y1933124D01*
X-22141742Y1982423D01*
X-22141743Y1982425D01*
X-22146067Y1988896D01*
X-22161612Y2007838D01*
X-22180554Y2023383D01*
X-22202165Y2034934D01*
X-22225614Y2042047D01*
X-22250000Y2044449D01*
X-22274386Y2042047D01*
X-22297835Y2034934D01*
X-22319446Y2023383D01*
X-22338388Y2007838D01*
X-22353933Y1988896D01*
X-22358257Y1982425D01*
X-22358258Y1982423D01*
X-22391198Y1933124D01*
X-22433124Y1891198D01*
X-22482423Y1858258D01*
X-22482424Y1858257D01*
X-22482425Y1858257D01*
X-22537203Y1835567D01*
X-22595353Y1824000D01*
X-22654647Y1824000D01*
X-22712797Y1835567D01*
X-22767575Y1858257D01*
X-22767576Y1858257D01*
X-22767577Y1858258D01*
X-22816876Y1891198D01*
X-22858802Y1933124D01*
X-22891742Y1982423D01*
X-22891743Y1982425D01*
X-22896067Y1988896D01*
X-22911612Y2007838D01*
X-22930554Y2023383D01*
X-22952165Y2034934D01*
X-22975614Y2042047D01*
X-23000000Y2044449D01*
X-23024386Y2042047D01*
X-23047835Y2034934D01*
X-23069446Y2023383D01*
X-23088388Y2007838D01*
X-23103933Y1988896D01*
X-23108257Y1982425D01*
X-23108258Y1982423D01*
X-23141198Y1933124D01*
X-23183124Y1891198D01*
X-23232423Y1858258D01*
X-23232424Y1858257D01*
X-23232425Y1858257D01*
X-23287203Y1835567D01*
X-23345353Y1824000D01*
X-23404647Y1824000D01*
X-23462797Y1835567D01*
X-23517575Y1858257D01*
X-23517576Y1858257D01*
X-23517577Y1858258D01*
X-23566876Y1891198D01*
X-23608802Y1933124D01*
X-23641742Y1982423D01*
X-23641743Y1982425D01*
X-23646067Y1988896D01*
X-23661612Y2007838D01*
X-23680554Y2023383D01*
X-23702165Y2034934D01*
X-23725614Y2042047D01*
X-23750000Y2044449D01*
X-23774386Y2042047D01*
X-23797835Y2034934D01*
X-23819446Y2023383D01*
X-23838388Y2007838D01*
X-23853933Y1988896D01*
X-23858257Y1982425D01*
X-23858258Y1982423D01*
X-23891198Y1933124D01*
X-23933124Y1891198D01*
X-23982423Y1858258D01*
X-23982424Y1858257D01*
X-23982425Y1858257D01*
X-24037203Y1835567D01*
X-24095353Y1824000D01*
X-24154647Y1824000D01*
X-24212797Y1835567D01*
X-24267575Y1858257D01*
X-24267576Y1858257D01*
X-24267577Y1858258D01*
X-24316876Y1891198D01*
X-24358802Y1933124D01*
X-24391742Y1982423D01*
X-24394423Y1988896D01*
X-24414433Y2037203D01*
X-24426000Y2095353D01*
X-24426000Y2154647D01*
X-24414433Y2212797D01*
X-24391743Y2267575D01*
X-24391742Y2267577D01*
X-24358802Y2316876D01*
X-24316876Y2358802D01*
X-24267577Y2391742D01*
X-24267575Y2391743D01*
X-24212797Y2414433D01*
X-24154647Y2426000D01*
X-24095353Y2426000D01*
X-24037203Y2414433D01*
X-24037203Y2414433D01*
G37*
G36*
X10462797Y2414433D02*
G01*
X10517575Y2391743D01*
X10517577Y2391742D01*
X10566876Y2358802D01*
X10608802Y2316876D01*
X10641742Y2267577D01*
X10646067Y2261104D01*
X10661612Y2242162D01*
X10680554Y2226617D01*
X10702165Y2215066D01*
X10725614Y2207953D01*
X10750000Y2205551D01*
X10774386Y2207953D01*
X10797835Y2215066D01*
X10819446Y2226617D01*
X10838388Y2242162D01*
X10853933Y2261104D01*
X10858258Y2267577D01*
X10891198Y2316876D01*
X10933124Y2358802D01*
X10982423Y2391742D01*
X10982425Y2391743D01*
X11037203Y2414433D01*
X11095353Y2426000D01*
X11154647Y2426000D01*
X11212797Y2414433D01*
X11267575Y2391743D01*
X11267577Y2391742D01*
X11316876Y2358802D01*
X11358802Y2316876D01*
X11391742Y2267577D01*
X11396067Y2261104D01*
X11411612Y2242162D01*
X11430554Y2226617D01*
X11452165Y2215066D01*
X11475614Y2207953D01*
X11500000Y2205551D01*
X11524386Y2207953D01*
X11547835Y2215066D01*
X11569446Y2226617D01*
X11588388Y2242162D01*
X11603933Y2261104D01*
X11608258Y2267577D01*
X11641198Y2316876D01*
X11683124Y2358802D01*
X11732423Y2391742D01*
X11732425Y2391743D01*
X11787203Y2414433D01*
X11845353Y2426000D01*
X11904647Y2426000D01*
X11962797Y2414433D01*
X12017575Y2391743D01*
X12017577Y2391742D01*
X12066876Y2358802D01*
X12108802Y2316876D01*
X12141742Y2267577D01*
X12146067Y2261104D01*
X12161612Y2242162D01*
X12180554Y2226617D01*
X12202165Y2215066D01*
X12225614Y2207953D01*
X12250000Y2205551D01*
X12274386Y2207953D01*
X12297835Y2215066D01*
X12319446Y2226617D01*
X12338388Y2242162D01*
X12353933Y2261104D01*
X12358258Y2267577D01*
X12391198Y2316876D01*
X12433124Y2358802D01*
X12482423Y2391742D01*
X12482425Y2391743D01*
X12537203Y2414433D01*
X12595353Y2426000D01*
X12654647Y2426000D01*
X12712797Y2414433D01*
X12767575Y2391743D01*
X12767577Y2391742D01*
X12816876Y2358802D01*
X12858802Y2316876D01*
X12891742Y2267577D01*
X12891743Y2267575D01*
X12914433Y2212797D01*
X12926000Y2154647D01*
X12926000Y2095353D01*
X12914433Y2037203D01*
X12894423Y1988896D01*
X12891742Y1982423D01*
X12858802Y1933124D01*
X12816876Y1891198D01*
X12767577Y1858258D01*
X12767576Y1858257D01*
X12767575Y1858257D01*
X12712797Y1835567D01*
X12654647Y1824000D01*
X12595353Y1824000D01*
X12537203Y1835567D01*
X12482425Y1858257D01*
X12482424Y1858257D01*
X12482423Y1858258D01*
X12433124Y1891198D01*
X12391198Y1933124D01*
X12358258Y1982423D01*
X12358257Y1982425D01*
X12353933Y1988896D01*
X12338388Y2007838D01*
X12319446Y2023383D01*
X12297835Y2034934D01*
X12274386Y2042047D01*
X12250000Y2044449D01*
X12225614Y2042047D01*
X12202165Y2034934D01*
X12180554Y2023383D01*
X12161612Y2007838D01*
X12146067Y1988896D01*
X12141743Y1982425D01*
X12141742Y1982423D01*
X12108802Y1933124D01*
X12066876Y1891198D01*
X12017577Y1858258D01*
X12017576Y1858257D01*
X12017575Y1858257D01*
X11962797Y1835567D01*
X11904647Y1824000D01*
X11845353Y1824000D01*
X11787203Y1835567D01*
X11732425Y1858257D01*
X11732424Y1858257D01*
X11732423Y1858258D01*
X11683124Y1891198D01*
X11641198Y1933124D01*
X11608258Y1982423D01*
X11608257Y1982425D01*
X11603933Y1988896D01*
X11588388Y2007838D01*
X11569446Y2023383D01*
X11547835Y2034934D01*
X11524386Y2042047D01*
X11500000Y2044449D01*
X11475614Y2042047D01*
X11452165Y2034934D01*
X11430554Y2023383D01*
X11411612Y2007838D01*
X11396067Y1988896D01*
X11391743Y1982425D01*
X11391742Y1982423D01*
X11358802Y1933124D01*
X11316876Y1891198D01*
X11267577Y1858258D01*
X11267576Y1858257D01*
X11267575Y1858257D01*
X11212797Y1835567D01*
X11154647Y1824000D01*
X11095353Y1824000D01*
X11037203Y1835567D01*
X10982425Y1858257D01*
X10982424Y1858257D01*
X10982423Y1858258D01*
X10933124Y1891198D01*
X10891198Y1933124D01*
X10858258Y1982423D01*
X10858257Y1982425D01*
X10853933Y1988896D01*
X10838388Y2007838D01*
X10819446Y2023383D01*
X10797835Y2034934D01*
X10774386Y2042047D01*
X10750000Y2044449D01*
X10725614Y2042047D01*
X10702165Y2034934D01*
X10680554Y2023383D01*
X10661612Y2007838D01*
X10646067Y1988896D01*
X10641743Y1982425D01*
X10641742Y1982423D01*
X10608802Y1933124D01*
X10566876Y1891198D01*
X10517577Y1858258D01*
X10517576Y1858257D01*
X10517575Y1858257D01*
X10462797Y1835567D01*
X10404647Y1824000D01*
X10345353Y1824000D01*
X10287203Y1835567D01*
X10232425Y1858257D01*
X10232424Y1858257D01*
X10232423Y1858258D01*
X10183124Y1891198D01*
X10141198Y1933124D01*
X10108258Y1982423D01*
X10105577Y1988896D01*
X10085567Y2037203D01*
X10074000Y2095353D01*
X10074000Y2154647D01*
X10085567Y2212797D01*
X10108257Y2267575D01*
X10108258Y2267577D01*
X10141198Y2316876D01*
X10183124Y2358802D01*
X10232423Y2391742D01*
X10232425Y2391743D01*
X10287203Y2414433D01*
X10345353Y2426000D01*
X10404647Y2426000D01*
X10462797Y2414433D01*
X10462797Y2414433D01*
G37*
G36*
X-33537203Y2414433D02*
G01*
X-33482425Y2391743D01*
X-33482423Y2391742D01*
X-33433124Y2358802D01*
X-33391198Y2316876D01*
X-33358258Y2267577D01*
X-33353933Y2261104D01*
X-33338388Y2242162D01*
X-33319446Y2226617D01*
X-33297835Y2215066D01*
X-33274386Y2207953D01*
X-33250000Y2205551D01*
X-33225614Y2207953D01*
X-33202165Y2215066D01*
X-33180554Y2226617D01*
X-33161612Y2242162D01*
X-33146067Y2261104D01*
X-33141742Y2267577D01*
X-33108802Y2316876D01*
X-33066876Y2358802D01*
X-33017577Y2391742D01*
X-33017575Y2391743D01*
X-32962797Y2414433D01*
X-32904647Y2426000D01*
X-32845353Y2426000D01*
X-32787203Y2414433D01*
X-32732425Y2391743D01*
X-32732423Y2391742D01*
X-32683124Y2358802D01*
X-32641198Y2316876D01*
X-32608258Y2267577D01*
X-32603933Y2261104D01*
X-32588388Y2242162D01*
X-32569446Y2226617D01*
X-32547835Y2215066D01*
X-32524386Y2207953D01*
X-32500000Y2205551D01*
X-32475614Y2207953D01*
X-32452165Y2215066D01*
X-32430554Y2226617D01*
X-32411612Y2242162D01*
X-32396067Y2261104D01*
X-32391742Y2267577D01*
X-32358802Y2316876D01*
X-32316876Y2358802D01*
X-32267577Y2391742D01*
X-32267575Y2391743D01*
X-32212797Y2414433D01*
X-32154647Y2426000D01*
X-32095353Y2426000D01*
X-32037203Y2414433D01*
X-31982425Y2391743D01*
X-31982423Y2391742D01*
X-31933124Y2358802D01*
X-31891198Y2316876D01*
X-31858258Y2267577D01*
X-31853933Y2261104D01*
X-31838388Y2242162D01*
X-31819446Y2226617D01*
X-31797835Y2215066D01*
X-31774386Y2207953D01*
X-31750000Y2205551D01*
X-31725614Y2207953D01*
X-31702165Y2215066D01*
X-31680554Y2226617D01*
X-31661612Y2242162D01*
X-31646067Y2261104D01*
X-31641742Y2267577D01*
X-31608802Y2316876D01*
X-31566876Y2358802D01*
X-31517577Y2391742D01*
X-31517575Y2391743D01*
X-31462797Y2414433D01*
X-31404647Y2426000D01*
X-31345353Y2426000D01*
X-31287203Y2414433D01*
X-31232425Y2391743D01*
X-31232423Y2391742D01*
X-31183124Y2358802D01*
X-31141198Y2316876D01*
X-31108258Y2267577D01*
X-31108257Y2267575D01*
X-31085567Y2212797D01*
X-31074000Y2154647D01*
X-31074000Y2095353D01*
X-31085567Y2037203D01*
X-31105577Y1988896D01*
X-31108258Y1982423D01*
X-31141198Y1933124D01*
X-31183124Y1891198D01*
X-31232423Y1858258D01*
X-31232424Y1858257D01*
X-31232425Y1858257D01*
X-31287203Y1835567D01*
X-31345353Y1824000D01*
X-31404647Y1824000D01*
X-31462797Y1835567D01*
X-31517575Y1858257D01*
X-31517576Y1858257D01*
X-31517577Y1858258D01*
X-31566876Y1891198D01*
X-31608802Y1933124D01*
X-31641742Y1982423D01*
X-31641743Y1982425D01*
X-31646067Y1988896D01*
X-31661612Y2007838D01*
X-31680554Y2023383D01*
X-31702165Y2034934D01*
X-31725614Y2042047D01*
X-31750000Y2044449D01*
X-31774386Y2042047D01*
X-31797835Y2034934D01*
X-31819446Y2023383D01*
X-31838388Y2007838D01*
X-31853933Y1988896D01*
X-31858257Y1982425D01*
X-31858258Y1982423D01*
X-31891198Y1933124D01*
X-31933124Y1891198D01*
X-31982423Y1858258D01*
X-31982424Y1858257D01*
X-31982425Y1858257D01*
X-32037203Y1835567D01*
X-32095353Y1824000D01*
X-32154647Y1824000D01*
X-32212797Y1835567D01*
X-32267575Y1858257D01*
X-32267576Y1858257D01*
X-32267577Y1858258D01*
X-32316876Y1891198D01*
X-32358802Y1933124D01*
X-32391742Y1982423D01*
X-32391743Y1982425D01*
X-32396067Y1988896D01*
X-32411612Y2007838D01*
X-32430554Y2023383D01*
X-32452165Y2034934D01*
X-32475614Y2042047D01*
X-32500000Y2044449D01*
X-32524386Y2042047D01*
X-32547835Y2034934D01*
X-32569446Y2023383D01*
X-32588388Y2007838D01*
X-32603933Y1988896D01*
X-32608257Y1982425D01*
X-32608258Y1982423D01*
X-32641198Y1933124D01*
X-32683124Y1891198D01*
X-32732423Y1858258D01*
X-32732424Y1858257D01*
X-32732425Y1858257D01*
X-32787203Y1835567D01*
X-32845353Y1824000D01*
X-32904647Y1824000D01*
X-32962797Y1835567D01*
X-33017575Y1858257D01*
X-33017576Y1858257D01*
X-33017577Y1858258D01*
X-33066876Y1891198D01*
X-33108802Y1933124D01*
X-33141742Y1982423D01*
X-33141743Y1982425D01*
X-33146067Y1988896D01*
X-33161612Y2007838D01*
X-33180554Y2023383D01*
X-33202165Y2034934D01*
X-33225614Y2042047D01*
X-33250000Y2044449D01*
X-33274386Y2042047D01*
X-33297835Y2034934D01*
X-33319446Y2023383D01*
X-33338388Y2007838D01*
X-33353933Y1988896D01*
X-33358257Y1982425D01*
X-33358258Y1982423D01*
X-33391198Y1933124D01*
X-33433124Y1891198D01*
X-33482423Y1858258D01*
X-33482424Y1858257D01*
X-33482425Y1858257D01*
X-33537203Y1835567D01*
X-33595353Y1824000D01*
X-33654647Y1824000D01*
X-33712797Y1835567D01*
X-33767575Y1858257D01*
X-33767576Y1858257D01*
X-33767577Y1858258D01*
X-33816876Y1891198D01*
X-33858802Y1933124D01*
X-33891742Y1982423D01*
X-33894423Y1988896D01*
X-33914433Y2037203D01*
X-33926000Y2095353D01*
X-33926000Y2154647D01*
X-33914433Y2212797D01*
X-33891743Y2267575D01*
X-33891742Y2267577D01*
X-33858802Y2316876D01*
X-33816876Y2358802D01*
X-33767577Y2391742D01*
X-33767575Y2391743D01*
X-33712797Y2414433D01*
X-33654647Y2426000D01*
X-33595353Y2426000D01*
X-33537203Y2414433D01*
X-33537203Y2414433D01*
G37*
G36*
X19962797Y2414433D02*
G01*
X20017575Y2391743D01*
X20017577Y2391742D01*
X20066876Y2358802D01*
X20108802Y2316876D01*
X20141742Y2267577D01*
X20146067Y2261104D01*
X20161612Y2242162D01*
X20180554Y2226617D01*
X20202165Y2215066D01*
X20225614Y2207953D01*
X20250000Y2205551D01*
X20274386Y2207953D01*
X20297835Y2215066D01*
X20319446Y2226617D01*
X20338388Y2242162D01*
X20353933Y2261104D01*
X20358258Y2267577D01*
X20391198Y2316876D01*
X20433124Y2358802D01*
X20482423Y2391742D01*
X20482425Y2391743D01*
X20537203Y2414433D01*
X20595353Y2426000D01*
X20654647Y2426000D01*
X20712797Y2414433D01*
X20767575Y2391743D01*
X20767577Y2391742D01*
X20816876Y2358802D01*
X20858802Y2316876D01*
X20891742Y2267577D01*
X20896067Y2261104D01*
X20911612Y2242162D01*
X20930554Y2226617D01*
X20952165Y2215066D01*
X20975614Y2207953D01*
X21000000Y2205551D01*
X21024386Y2207953D01*
X21047835Y2215066D01*
X21069446Y2226617D01*
X21088388Y2242162D01*
X21103933Y2261104D01*
X21108258Y2267577D01*
X21141198Y2316876D01*
X21183124Y2358802D01*
X21232423Y2391742D01*
X21232425Y2391743D01*
X21287203Y2414433D01*
X21345353Y2426000D01*
X21404647Y2426000D01*
X21462797Y2414433D01*
X21517575Y2391743D01*
X21517577Y2391742D01*
X21566876Y2358802D01*
X21608802Y2316876D01*
X21641742Y2267577D01*
X21646067Y2261104D01*
X21661612Y2242162D01*
X21680554Y2226617D01*
X21702165Y2215066D01*
X21725614Y2207953D01*
X21750000Y2205551D01*
X21774386Y2207953D01*
X21797835Y2215066D01*
X21819446Y2226617D01*
X21838388Y2242162D01*
X21853933Y2261104D01*
X21858258Y2267577D01*
X21891198Y2316876D01*
X21933124Y2358802D01*
X21982423Y2391742D01*
X21982425Y2391743D01*
X22037203Y2414433D01*
X22095353Y2426000D01*
X22154647Y2426000D01*
X22212797Y2414433D01*
X22267575Y2391743D01*
X22267577Y2391742D01*
X22316876Y2358802D01*
X22358802Y2316876D01*
X22391742Y2267577D01*
X22391743Y2267575D01*
X22414433Y2212797D01*
X22426000Y2154647D01*
X22426000Y2095353D01*
X22414433Y2037203D01*
X22394423Y1988896D01*
X22391742Y1982423D01*
X22358802Y1933124D01*
X22316876Y1891198D01*
X22267577Y1858258D01*
X22267576Y1858257D01*
X22267575Y1858257D01*
X22212797Y1835567D01*
X22154647Y1824000D01*
X22095353Y1824000D01*
X22037203Y1835567D01*
X21982425Y1858257D01*
X21982424Y1858257D01*
X21982423Y1858258D01*
X21933124Y1891198D01*
X21891198Y1933124D01*
X21858258Y1982423D01*
X21858257Y1982425D01*
X21853933Y1988896D01*
X21838388Y2007838D01*
X21819446Y2023383D01*
X21797835Y2034934D01*
X21774386Y2042047D01*
X21750000Y2044449D01*
X21725614Y2042047D01*
X21702165Y2034934D01*
X21680554Y2023383D01*
X21661612Y2007838D01*
X21646067Y1988896D01*
X21641743Y1982425D01*
X21641742Y1982423D01*
X21608802Y1933124D01*
X21566876Y1891198D01*
X21517577Y1858258D01*
X21517576Y1858257D01*
X21517575Y1858257D01*
X21462797Y1835567D01*
X21404647Y1824000D01*
X21345353Y1824000D01*
X21287203Y1835567D01*
X21232425Y1858257D01*
X21232424Y1858257D01*
X21232423Y1858258D01*
X21183124Y1891198D01*
X21141198Y1933124D01*
X21108258Y1982423D01*
X21108257Y1982425D01*
X21103933Y1988896D01*
X21088388Y2007838D01*
X21069446Y2023383D01*
X21047835Y2034934D01*
X21024386Y2042047D01*
X21000000Y2044449D01*
X20975614Y2042047D01*
X20952165Y2034934D01*
X20930554Y2023383D01*
X20911612Y2007838D01*
X20896067Y1988896D01*
X20891743Y1982425D01*
X20891742Y1982423D01*
X20858802Y1933124D01*
X20816876Y1891198D01*
X20767577Y1858258D01*
X20767576Y1858257D01*
X20767575Y1858257D01*
X20712797Y1835567D01*
X20654647Y1824000D01*
X20595353Y1824000D01*
X20537203Y1835567D01*
X20482425Y1858257D01*
X20482424Y1858257D01*
X20482423Y1858258D01*
X20433124Y1891198D01*
X20391198Y1933124D01*
X20358258Y1982423D01*
X20358257Y1982425D01*
X20353933Y1988896D01*
X20338388Y2007838D01*
X20319446Y2023383D01*
X20297835Y2034934D01*
X20274386Y2042047D01*
X20250000Y2044449D01*
X20225614Y2042047D01*
X20202165Y2034934D01*
X20180554Y2023383D01*
X20161612Y2007838D01*
X20146067Y1988896D01*
X20141743Y1982425D01*
X20141742Y1982423D01*
X20108802Y1933124D01*
X20066876Y1891198D01*
X20017577Y1858258D01*
X20017576Y1858257D01*
X20017575Y1858257D01*
X19962797Y1835567D01*
X19904647Y1824000D01*
X19845353Y1824000D01*
X19787203Y1835567D01*
X19732425Y1858257D01*
X19732424Y1858257D01*
X19732423Y1858258D01*
X19683124Y1891198D01*
X19641198Y1933124D01*
X19608258Y1982423D01*
X19605577Y1988896D01*
X19585567Y2037203D01*
X19574000Y2095353D01*
X19574000Y2154647D01*
X19585567Y2212797D01*
X19608257Y2267575D01*
X19608258Y2267577D01*
X19641198Y2316876D01*
X19683124Y2358802D01*
X19732423Y2391742D01*
X19732425Y2391743D01*
X19787203Y2414433D01*
X19845353Y2426000D01*
X19904647Y2426000D01*
X19962797Y2414433D01*
X19962797Y2414433D01*
G37*
G36*
X-34295527Y7674062D02*
G01*
X-34167951Y7621218D01*
X-34053141Y7544505D01*
X-33955495Y7446859D01*
X-33878782Y7332049D01*
X-33825938Y7204473D01*
X-33799000Y7069044D01*
X-33799000Y6930956D01*
X-33825938Y6795527D01*
X-33878782Y6667951D01*
X-33955495Y6553141D01*
X-34053141Y6455495D01*
X-34167951Y6378782D01*
X-34295527Y6325938D01*
X-34430956Y6299000D01*
X-34569044Y6299000D01*
X-34704473Y6325938D01*
X-34832049Y6378782D01*
X-34946859Y6455495D01*
X-35044505Y6553141D01*
X-35121218Y6667951D01*
X-35174062Y6795527D01*
X-35201000Y6930956D01*
X-35201000Y7069044D01*
X-35174062Y7204473D01*
X-35121218Y7332049D01*
X-35044505Y7446859D01*
X-34946859Y7544505D01*
X-34832049Y7621218D01*
X-34704473Y7674062D01*
X-34569044Y7701000D01*
X-34430956Y7701000D01*
X-34295527Y7674062D01*
X-34295527Y7674062D01*
G37*
G36*
X23204473Y7674062D02*
G01*
X23332049Y7621218D01*
X23446859Y7544505D01*
X23544505Y7446859D01*
X23621218Y7332049D01*
X23674062Y7204473D01*
X23701000Y7069044D01*
X23701000Y6930956D01*
X23674062Y6795527D01*
X23621218Y6667951D01*
X23544505Y6553141D01*
X23446859Y6455495D01*
X23332049Y6378782D01*
X23204473Y6325938D01*
X23069044Y6299000D01*
X22930956Y6299000D01*
X22795527Y6325938D01*
X22667951Y6378782D01*
X22553141Y6455495D01*
X22455495Y6553141D01*
X22378782Y6667951D01*
X22325938Y6795527D01*
X22299000Y6930956D01*
X22299000Y7069044D01*
X22325938Y7204473D01*
X22378782Y7332049D01*
X22455495Y7446859D01*
X22553141Y7544505D01*
X22667951Y7621218D01*
X22795527Y7674062D01*
X22930956Y7701000D01*
X23069044Y7701000D01*
X23204473Y7674062D01*
X23204473Y7674062D01*
G37*
M02*
