M48
; DRILL file {KiCad (5.1.4)-1} date 3/22/2021 1:51:56 AM
; FORMAT={-:-/ absolute / inch / decimal}
; #@! TF.CreationDate,2021-03-22T01:51:56-07:00
; #@! TF.GenerationSoftware,Kicad,Pcbnew,(5.1.4)-1
; #@! TF.FileFunction,Plated,1,2,PTH
FMAT,2
INCH
T1C0.0157
T2C0.0197
T3C0.1260
%
G90
G05
T1
X-0.7283Y-0.1811
X-0.7283Y-0.3465
X-0.7283Y-0.7126
X-0.7283Y-0.878
X-0.5433Y-0.2598
X-0.5433Y-0.7913
X-0.5354Y-0.1811
X-0.5354Y-0.7126
X-0.4409Y-0.4055
X-0.4409Y-0.937
X-0.4291Y-0.0787
X-0.4291Y-0.6102
X-0.1614Y-0.3307
X-0.1614Y-0.8622
X-0.1024Y-0.3701
X-0.1024Y-0.9016
X-0.0591Y-0.374
X-0.0591Y-0.9055
X0.0197Y-0.3937
X0.0197Y-0.9252
X0.1024Y-0.3701
X0.1024Y-0.9016
X0.1614Y-0.3307
X0.1614Y-0.8622
T2
X-1.0354Y-0.7579
X-1.0089Y-0.6938
X-1.0089Y-0.8219
X-0.9449Y-0.6673
X-0.9449Y-0.8484
X-0.8809Y-0.6938
X-0.8809Y-0.8219
X-0.8543Y-0.7579
X0.4016Y-0.2264
X0.4281Y-0.1623
X0.4281Y-0.2904
X0.4921Y-0.1358
X0.4921Y-0.3169
X0.5562Y-0.1623
X0.5562Y-0.2904
X0.5827Y-0.2264
X-1.0354Y-0.2264
X-1.0089Y-0.1623
X-1.0089Y-0.2904
X-0.9449Y-0.1358
X-0.9449Y-0.3169
X-0.8809Y-0.1623
X-0.8809Y-0.2904
X-0.8543Y-0.2264
X0.4016Y-0.7579
X0.4281Y-0.6938
X0.4281Y-0.8219
X0.4921Y-0.6673
X0.4921Y-0.8484
X0.5562Y-0.6938
X0.5562Y-0.8219
X0.5827Y-0.7579
T3
X-0.9449Y-0.7579
X0.4921Y-0.2264
X-0.9449Y-0.2264
X0.4921Y-0.7579
T2
G00X-0.2195Y-0.5967
M15
G01X-0.2195Y-0.6419
M16
G05
G00X-0.2195Y-0.7778
M15
G01X-0.2195Y-0.823
M16
G05
G00X0.2195Y-0.5967
M15
G01X0.2195Y-0.6419
M16
G05
G00X0.2195Y-0.7778
M15
G01X0.2195Y-0.823
M16
G05
G00X-0.2195Y-0.0652
M15
G01X-0.2195Y-0.1104
M16
G05
G00X-0.2195Y-0.2463
M15
G01X-0.2195Y-0.2915
M16
G05
G00X0.2195Y-0.0652
M15
G01X0.2195Y-0.1104
M16
G05
G00X0.2195Y-0.2463
M15
G01X0.2195Y-0.2915
M16
G05
T0
M30
