G04 #@! TF.GenerationSoftware,KiCad,Pcbnew,(5.1.4)-1*
G04 #@! TF.CreationDate,2021-03-22T01:51:55-07:00*
G04 #@! TF.ProjectId,panelize,70616e65-6c69-47a6-952e-6b696361645f,rev?*
G04 #@! TF.SameCoordinates,Original*
G04 #@! TF.FileFunction,Profile,NP*
%FSLAX46Y46*%
G04 Gerber Fmt 4.6, Leading zero omitted, Abs format (unit mm)*
G04 Created by KiCad (PCBNEW (5.1.4)-1) date 2021-03-22 01:51:55*
%MOMM*%
%LPD*%
G04 APERTURE LIST*
%ADD10C,0.150000*%
%ADD11C,0.120000*%
G04 APERTURE END LIST*
D10*
X-35000000Y-33000000D02*
X23500000Y-33000000D01*
X23500000Y8000000D02*
X-35000000Y8000000D01*
X23500000Y-27000000D02*
G75*
G02X24000000Y-27500000I0J-500000D01*
G01*
X13500000Y2000000D02*
X19000000Y2000000D01*
X23500000Y8000000D02*
G75*
G02X24000000Y7500000I0J-500000D01*
G01*
X24000000Y2500000D02*
X24000000Y7500000D01*
X24000000Y2500000D02*
G75*
G02X23500000Y2000000I-500000J0D01*
G01*
X19000000Y-27000000D02*
X13500000Y-27000000D01*
X24000000Y-32500000D02*
G75*
G02X23500000Y-33000000I-500000J0D01*
G01*
X24000000Y-27500000D02*
X24000000Y-32500000D01*
X23000000Y-27000000D02*
X23500000Y-27000000D01*
X18000000Y-2500000D02*
X18000000Y-500000D01*
X23000000Y0D02*
X23500000Y0D01*
X23000000Y-25000000D02*
X23500000Y-25000000D01*
X18000000Y-6500000D02*
X18000000Y-18500000D01*
X18000000Y-22500000D02*
X18000000Y-24500000D01*
X23000000Y2000000D02*
X23500000Y2000000D01*
X19000000Y2000000D02*
G75*
G02X19500000Y1500000I0J-500000D01*
G01*
X19500000Y500000D02*
X19500000Y1500000D01*
X22500000Y-25500000D02*
X22500000Y-26500000D01*
X23500000Y0D02*
G75*
G02X24000000Y-500000I0J-500000D01*
G01*
X24000000Y-24500000D02*
X24000000Y-500000D01*
X22500000Y1500000D02*
X22500000Y500000D01*
X23000000Y0D02*
G75*
G02X22500000Y500000I0J500000D01*
G01*
X23000000Y-27000000D02*
G75*
G02X22500000Y-26500000I0J500000D01*
G01*
X22500000Y1500000D02*
G75*
G02X23000000Y2000000I500000J0D01*
G01*
X22500000Y-25500000D02*
G75*
G02X23000000Y-25000000I500000J0D01*
G01*
X19500000Y500000D02*
G75*
G02X19000000Y0I-500000J0D01*
G01*
X19000000Y-25000000D02*
G75*
G02X19500000Y-25500000I0J-500000D01*
G01*
X19500000Y-26500000D02*
G75*
G02X19000000Y-27000000I-500000J0D01*
G01*
X18000000Y-500000D02*
G75*
G02X18500000Y0I500000J0D01*
G01*
X19500000Y-26500000D02*
X19500000Y-25500000D01*
X18500000Y0D02*
X19000000Y0D01*
X18500000Y-25000000D02*
G75*
G02X18000000Y-24500000I0J500000D01*
G01*
X18500000Y-25000000D02*
X19000000Y-25000000D01*
X24000000Y-24500000D02*
G75*
G02X23500000Y-25000000I-500000J0D01*
G01*
X-21000000Y2000000D02*
X9500000Y2000000D01*
X-21000000Y-27000000D02*
X9500000Y-27000000D01*
X13500000Y0D02*
G75*
G02X13000000Y500000I0J500000D01*
G01*
X9500000Y2000000D02*
G75*
G02X10000000Y1500000I0J-500000D01*
G01*
X10000000Y500000D02*
G75*
G02X9500000Y0I-500000J0D01*
G01*
X13000000Y1500000D02*
X13000000Y500000D01*
X13000000Y1500000D02*
G75*
G02X13500000Y2000000I500000J0D01*
G01*
X10000000Y500000D02*
X10000000Y1500000D01*
X13500000Y-27000000D02*
G75*
G02X13000000Y-26500000I0J500000D01*
G01*
X9500000Y-25000000D02*
G75*
G02X10000000Y-25500000I0J-500000D01*
G01*
X10000000Y-26500000D02*
G75*
G02X9500000Y-27000000I-500000J0D01*
G01*
X13000000Y-25500000D02*
X13000000Y-26500000D01*
X13000000Y-25500000D02*
G75*
G02X13500000Y-25000000I500000J0D01*
G01*
X10000000Y-26500000D02*
X10000000Y-25500000D01*
X14000000Y-25000000D02*
X13500000Y-25000000D01*
X14000000Y0D02*
X13500000Y0D01*
X-25000000Y-27000000D02*
X-30500000Y-27000000D01*
X-25000000Y-25000000D02*
X-25500000Y-25000000D01*
X-24500000Y-26500000D02*
G75*
G02X-25000000Y-27000000I-500000J0D01*
G01*
X-25000000Y-25000000D02*
G75*
G02X-24500000Y-25500000I0J-500000D01*
G01*
X-21500000Y-25500000D02*
G75*
G02X-21000000Y-25000000I500000J0D01*
G01*
X-21000000Y-27000000D02*
G75*
G02X-21500000Y-26500000I0J500000D01*
G01*
X-21500000Y-25500000D02*
X-21500000Y-26500000D01*
X-24500000Y-25500000D02*
X-24500000Y-26500000D01*
X-21000000Y0D02*
X-4550000Y0D01*
X-21000000Y0D02*
G75*
G02X-21500000Y500000I0J500000D01*
G01*
X-21500000Y1500000D02*
X-21500000Y500000D01*
X-24500000Y500000D02*
G75*
G02X-25000000Y0I-500000J0D01*
G01*
X-24500000Y1500000D02*
X-24500000Y500000D01*
X-25000000Y2000000D02*
G75*
G02X-24500000Y1500000I0J-500000D01*
G01*
X-21500000Y1500000D02*
G75*
G02X-21000000Y2000000I500000J0D01*
G01*
X-30500000Y2000000D02*
X-25000000Y2000000D01*
X-35000000Y-33000000D02*
G75*
G02X-35500000Y-32500000I0J500000D01*
G01*
X-35500000Y-27500000D02*
X-35500000Y-32500000D01*
X-35500000Y7500000D02*
G75*
G02X-35000000Y8000000I500000J0D01*
G01*
X-35500000Y2500000D02*
X-35500000Y7500000D01*
X-35000000Y2000000D02*
G75*
G02X-35500000Y2500000I0J500000D01*
G01*
X-34500000Y2000000D02*
X-35000000Y2000000D01*
X-35500000Y-27500000D02*
G75*
G02X-35000000Y-27000000I500000J0D01*
G01*
X-34500000Y-27000000D02*
X-35000000Y-27000000D01*
X-34000000Y-26500000D02*
X-34000000Y-25500000D01*
X-34500000Y-25000000D02*
G75*
G02X-34000000Y-25500000I0J-500000D01*
G01*
X-34000000Y-26500000D02*
G75*
G02X-34500000Y-27000000I-500000J0D01*
G01*
X-30500000Y-27000000D02*
G75*
G02X-31000000Y-26500000I0J500000D01*
G01*
X-31000000Y-25500000D02*
G75*
G02X-30500000Y-25000000I500000J0D01*
G01*
X-31000000Y-25500000D02*
X-31000000Y-26500000D01*
X-34000000Y500000D02*
G75*
G02X-34500000Y0I-500000J0D01*
G01*
X-34500000Y2000000D02*
G75*
G02X-34000000Y1500000I0J-500000D01*
G01*
X-30500000Y0D02*
G75*
G02X-31000000Y500000I0J500000D01*
G01*
X-34000000Y500000D02*
X-34000000Y1500000D01*
X-31000000Y1500000D02*
G75*
G02X-30500000Y2000000I500000J0D01*
G01*
X-31000000Y1500000D02*
X-31000000Y500000D01*
X-30000000Y-25000000D02*
X-30500000Y-25000000D01*
X-30000000Y0D02*
X-30500000Y0D01*
X-29500000Y-24500000D02*
G75*
G02X-30000000Y-25000000I-500000J0D01*
G01*
X-35000000Y-25000000D02*
G75*
G02X-35500000Y-24500000I0J500000D01*
G01*
X-35500000Y-500000D02*
G75*
G02X-35000000Y0I500000J0D01*
G01*
X-30000000Y0D02*
G75*
G02X-29500000Y-500000I0J-500000D01*
G01*
X-29500000Y-18500000D02*
X-29500000Y-6500000D01*
X-29500000Y-22500000D02*
X-29500000Y-24500000D01*
X-34500000Y-25000000D02*
X-35000000Y-25000000D01*
X-35500000Y-500000D02*
X-35500000Y-24500000D01*
X-34500000Y0D02*
X-35000000Y0D01*
X-29500000Y-2500000D02*
X-29500000Y-500000D01*
X-29000000Y-3000000D02*
G75*
G02X-29500000Y-2500000I0J500000D01*
G01*
X-27500000Y-2500000D02*
G75*
G02X-28000000Y-3000000I-500000J0D01*
G01*
X-29000000Y-3000000D02*
X-28000000Y-3000000D01*
X-29500000Y-6500000D02*
G75*
G02X-29000000Y-6000000I500000J0D01*
G01*
X-28000000Y-6000000D02*
G75*
G02X-27500000Y-6500000I0J-500000D01*
G01*
X-28000000Y-6000000D02*
X-29000000Y-6000000D01*
X-29000000Y-19000000D02*
G75*
G02X-29500000Y-18500000I0J500000D01*
G01*
X-29000000Y-19000000D02*
X-28000000Y-19000000D01*
X-28000000Y-22000000D02*
X-29000000Y-22000000D01*
X-29500000Y-22500000D02*
G75*
G02X-29000000Y-22000000I500000J0D01*
G01*
X-27500000Y-18500000D02*
G75*
G02X-28000000Y-19000000I-500000J0D01*
G01*
X-28000000Y-22000000D02*
G75*
G02X-27500000Y-22500000I0J-500000D01*
G01*
X17500000Y-22000000D02*
X16500000Y-22000000D01*
X16500000Y-19000000D02*
X17500000Y-19000000D01*
X18000000Y-18500000D02*
G75*
G02X17500000Y-19000000I-500000J0D01*
G01*
X16000000Y-22500000D02*
G75*
G02X16500000Y-22000000I500000J0D01*
G01*
X17500000Y-22000000D02*
G75*
G02X18000000Y-22500000I0J-500000D01*
G01*
X16500000Y-19000000D02*
G75*
G02X16000000Y-18500000I0J500000D01*
G01*
X18000000Y-2500000D02*
G75*
G02X17500000Y-3000000I-500000J0D01*
G01*
X16000000Y-6500000D02*
G75*
G02X16500000Y-6000000I500000J0D01*
G01*
X17500000Y-6000000D02*
G75*
G02X18000000Y-6500000I0J-500000D01*
G01*
X16500000Y-3000000D02*
X17500000Y-3000000D01*
X16500000Y-3000000D02*
G75*
G02X16000000Y-2500000I0J500000D01*
G01*
X17500000Y-6000000D02*
X16500000Y-6000000D01*
X16000000Y-2000000D02*
X16000000Y-2500000D01*
X16000000Y-23000000D02*
X16000000Y-22500000D01*
X-27500000Y-23000000D02*
X-27500000Y-22500000D01*
X-27500000Y-2000000D02*
X-27500000Y-2500000D01*
X10000000Y-13000000D02*
X10000000Y-12000000D01*
X13000000Y-12000000D02*
X13000000Y-13000000D01*
X14000000Y-11500000D02*
X13500000Y-11500000D01*
X13000000Y-12000000D02*
G75*
G02X13500000Y-11500000I500000J0D01*
G01*
X13500000Y-13500000D02*
G75*
G02X13000000Y-13000000I0J500000D01*
G01*
X10000000Y-13000000D02*
G75*
G02X9500000Y-13500000I-500000J0D01*
G01*
X9500000Y-11500000D02*
G75*
G02X10000000Y-12000000I0J-500000D01*
G01*
X14000000Y-13500000D02*
X13500000Y-13500000D01*
X-24500000Y-12000000D02*
X-24500000Y-13000000D01*
X-21500000Y-12000000D02*
X-21500000Y-13000000D01*
X-21000000Y-13500000D02*
G75*
G02X-21500000Y-13000000I0J500000D01*
G01*
X-24500000Y-13000000D02*
G75*
G02X-25000000Y-13500000I-500000J0D01*
G01*
X-25000000Y-11500000D02*
G75*
G02X-24500000Y-12000000I0J-500000D01*
G01*
X-21500000Y-12000000D02*
G75*
G02X-21000000Y-11500000I500000J0D01*
G01*
X-25500000Y-13500000D02*
X-25000000Y-13500000D01*
X-25500000Y-11500000D02*
X-25000000Y-11500000D01*
X-27500000Y-15500000D02*
G75*
G02X-25500000Y-13500000I2000000J0D01*
G01*
X9500000Y-13500000D02*
X4550000Y-13500000D01*
X16000000Y-23000000D02*
G75*
G02X14000000Y-25000000I-2000000J0D01*
G01*
X-21000000Y-25000000D02*
X9500000Y-25000000D01*
D11*
X14000000Y-13500000D02*
G75*
G02X16000000Y-15500000I0J-2000000D01*
G01*
D10*
X-25500000Y-25000000D02*
G75*
G02X-27500000Y-23000000I0J2000000D01*
G01*
X-27500000Y-15500000D02*
X-27500000Y-18500000D01*
X-4550000Y-13500000D02*
X-21000000Y-13500000D01*
X16000000Y-18500000D02*
X16000000Y-15500000D01*
X16000000Y-9500000D02*
G75*
G02X14000000Y-11500000I-2000000J0D01*
G01*
D11*
X14000000Y0D02*
G75*
G02X16000000Y-2000000I0J-2000000D01*
G01*
D10*
X-25500000Y-11500000D02*
G75*
G02X-27500000Y-9500000I0J2000000D01*
G01*
X-27500000Y-2000000D02*
G75*
G02X-25500000Y0I2000000J0D01*
G01*
X9500000Y0D02*
X4550000Y0D01*
X16000000Y-9500000D02*
X16000000Y-6500000D01*
X-21000000Y-11500000D02*
X9500000Y-11500000D01*
X-27500000Y-6500000D02*
X-27500000Y-9500000D01*
X-25000000Y0D02*
X-25500000Y0D01*
X-3200000Y-20000000D02*
G75*
G03X-3700000Y-19500000I-500000J0D01*
G01*
X3700000Y-19500000D02*
G75*
G03X3200000Y-20000000I0J-500000D01*
G01*
X4550000Y-19500000D02*
G75*
G03X4550000Y-18500000I0J500000D01*
G01*
X3700000Y-19500000D02*
X4550000Y-19500000D01*
X3200000Y-20100000D02*
X3200000Y-20000000D01*
X2200000Y-20100000D02*
G75*
G03X3200000Y-20100000I500000J0D01*
G01*
X-3200000Y-20100000D02*
G75*
G03X-2200000Y-20100000I500000J0D01*
G01*
X-2200000Y-20100000D02*
X2200000Y-20100000D01*
X-4550000Y-18500000D02*
G75*
G03X-4550000Y-19500000I0J-500000D01*
G01*
X-3200000Y-20000000D02*
X-3200000Y-20100000D01*
X-3700000Y-19500000D02*
X-4550000Y-19500000D01*
X4550000Y-18500000D02*
X4550000Y-13500000D01*
X-4550000Y-18500000D02*
X-4550000Y-13500000D01*
X-3200000Y-6500000D02*
G75*
G03X-3700000Y-6000000I-500000J0D01*
G01*
X3700000Y-6000000D02*
G75*
G03X3200000Y-6500000I0J-500000D01*
G01*
X4550000Y-6000000D02*
G75*
G03X4550000Y-5000000I0J500000D01*
G01*
X3700000Y-6000000D02*
X4550000Y-6000000D01*
X3200000Y-6600000D02*
X3200000Y-6500000D01*
X2200000Y-6600000D02*
G75*
G03X3200000Y-6600000I500000J0D01*
G01*
X-3200000Y-6600000D02*
G75*
G03X-2200000Y-6600000I500000J0D01*
G01*
X-2200000Y-6600000D02*
X2200000Y-6600000D01*
X-4550000Y-5000000D02*
G75*
G03X-4550000Y-6000000I0J-500000D01*
G01*
X-3200000Y-6500000D02*
X-3200000Y-6600000D01*
X-3700000Y-6000000D02*
X-4550000Y-6000000D01*
X4550000Y-5000000D02*
X4550000Y0D01*
X-4550000Y-5000000D02*
X-4550000Y0D01*
M02*
