G04 #@! TF.GenerationSoftware,KiCad,Pcbnew,(5.1.4)-1*
G04 #@! TF.CreationDate,2022-02-08T04:13:44-08:00*
G04 #@! TF.ProjectId,bushwacker2,62757368-7761-4636-9b65-72322e6b6963,rev?*
G04 #@! TF.SameCoordinates,Original*
G04 #@! TF.FileFunction,Copper,L1,Top*
G04 #@! TF.FilePolarity,Positive*
%FSLAX46Y46*%
G04 Gerber Fmt 4.6, Leading zero omitted, Abs format (unit mm)*
G04 Created by KiCad (PCBNEW (5.1.4)-1) date 2022-02-08 04:13:44*
%MOMM*%
%LPD*%
G04 APERTURE LIST*
%ADD10R,1.100000X1.100000*%
%ADD11O,1.000000X1.600000*%
%ADD12O,1.000000X2.100000*%
%ADD13R,0.300000X1.450000*%
%ADD14R,0.600000X1.450000*%
%ADD15C,0.100000*%
%ADD16C,0.600000*%
%ADD17C,1.125000*%
%ADD18C,0.800000*%
%ADD19C,1.600000*%
%ADD20C,6.000000*%
%ADD21C,1.250000*%
%ADD22C,1.000000*%
%ADD23C,0.400000*%
%ADD24C,1.000000*%
%ADD25C,0.200000*%
%ADD26C,0.254000*%
G04 APERTURE END LIST*
D10*
X87100000Y-110300000D03*
X84300000Y-110300000D03*
D11*
X95680000Y-102600000D03*
X104320000Y-102600000D03*
D12*
X95680000Y-106780000D03*
X104320000Y-106780000D03*
D13*
X100250000Y-107695000D03*
X99750000Y-107695000D03*
X99250000Y-107695000D03*
X100750000Y-107695000D03*
X98750000Y-107695000D03*
X101250000Y-107695000D03*
X98250000Y-107695000D03*
X101750000Y-107695000D03*
D14*
X102450000Y-107695000D03*
X97550000Y-107695000D03*
X103225000Y-107695000D03*
X96775000Y-107695000D03*
D15*
G36*
X90014703Y-105200722D02*
G01*
X90029264Y-105202882D01*
X90043543Y-105206459D01*
X90057403Y-105211418D01*
X90070710Y-105217712D01*
X90083336Y-105225280D01*
X90095159Y-105234048D01*
X90106066Y-105243934D01*
X90115952Y-105254841D01*
X90124720Y-105266664D01*
X90132288Y-105279290D01*
X90138582Y-105292597D01*
X90143541Y-105306457D01*
X90147118Y-105320736D01*
X90149278Y-105335297D01*
X90150000Y-105350000D01*
X90150000Y-106375000D01*
X90149278Y-106389703D01*
X90147118Y-106404264D01*
X90143541Y-106418543D01*
X90138582Y-106432403D01*
X90132288Y-106445710D01*
X90124720Y-106458336D01*
X90115952Y-106470159D01*
X90106066Y-106481066D01*
X90095159Y-106490952D01*
X90083336Y-106499720D01*
X90070710Y-106507288D01*
X90057403Y-106513582D01*
X90043543Y-106518541D01*
X90029264Y-106522118D01*
X90014703Y-106524278D01*
X90000000Y-106525000D01*
X89700000Y-106525000D01*
X89685297Y-106524278D01*
X89670736Y-106522118D01*
X89656457Y-106518541D01*
X89642597Y-106513582D01*
X89629290Y-106507288D01*
X89616664Y-106499720D01*
X89604841Y-106490952D01*
X89593934Y-106481066D01*
X89584048Y-106470159D01*
X89575280Y-106458336D01*
X89567712Y-106445710D01*
X89561418Y-106432403D01*
X89556459Y-106418543D01*
X89552882Y-106404264D01*
X89550722Y-106389703D01*
X89550000Y-106375000D01*
X89550000Y-105350000D01*
X89550722Y-105335297D01*
X89552882Y-105320736D01*
X89556459Y-105306457D01*
X89561418Y-105292597D01*
X89567712Y-105279290D01*
X89575280Y-105266664D01*
X89584048Y-105254841D01*
X89593934Y-105243934D01*
X89604841Y-105234048D01*
X89616664Y-105225280D01*
X89629290Y-105217712D01*
X89642597Y-105211418D01*
X89656457Y-105206459D01*
X89670736Y-105202882D01*
X89685297Y-105200722D01*
X89700000Y-105200000D01*
X90000000Y-105200000D01*
X90014703Y-105200722D01*
X90014703Y-105200722D01*
G37*
D16*
X89850000Y-105862500D03*
D15*
G36*
X89064703Y-105200722D02*
G01*
X89079264Y-105202882D01*
X89093543Y-105206459D01*
X89107403Y-105211418D01*
X89120710Y-105217712D01*
X89133336Y-105225280D01*
X89145159Y-105234048D01*
X89156066Y-105243934D01*
X89165952Y-105254841D01*
X89174720Y-105266664D01*
X89182288Y-105279290D01*
X89188582Y-105292597D01*
X89193541Y-105306457D01*
X89197118Y-105320736D01*
X89199278Y-105335297D01*
X89200000Y-105350000D01*
X89200000Y-106375000D01*
X89199278Y-106389703D01*
X89197118Y-106404264D01*
X89193541Y-106418543D01*
X89188582Y-106432403D01*
X89182288Y-106445710D01*
X89174720Y-106458336D01*
X89165952Y-106470159D01*
X89156066Y-106481066D01*
X89145159Y-106490952D01*
X89133336Y-106499720D01*
X89120710Y-106507288D01*
X89107403Y-106513582D01*
X89093543Y-106518541D01*
X89079264Y-106522118D01*
X89064703Y-106524278D01*
X89050000Y-106525000D01*
X88750000Y-106525000D01*
X88735297Y-106524278D01*
X88720736Y-106522118D01*
X88706457Y-106518541D01*
X88692597Y-106513582D01*
X88679290Y-106507288D01*
X88666664Y-106499720D01*
X88654841Y-106490952D01*
X88643934Y-106481066D01*
X88634048Y-106470159D01*
X88625280Y-106458336D01*
X88617712Y-106445710D01*
X88611418Y-106432403D01*
X88606459Y-106418543D01*
X88602882Y-106404264D01*
X88600722Y-106389703D01*
X88600000Y-106375000D01*
X88600000Y-105350000D01*
X88600722Y-105335297D01*
X88602882Y-105320736D01*
X88606459Y-105306457D01*
X88611418Y-105292597D01*
X88617712Y-105279290D01*
X88625280Y-105266664D01*
X88634048Y-105254841D01*
X88643934Y-105243934D01*
X88654841Y-105234048D01*
X88666664Y-105225280D01*
X88679290Y-105217712D01*
X88692597Y-105211418D01*
X88706457Y-105206459D01*
X88720736Y-105202882D01*
X88735297Y-105200722D01*
X88750000Y-105200000D01*
X89050000Y-105200000D01*
X89064703Y-105200722D01*
X89064703Y-105200722D01*
G37*
D16*
X88900000Y-105862500D03*
D15*
G36*
X88114703Y-105200722D02*
G01*
X88129264Y-105202882D01*
X88143543Y-105206459D01*
X88157403Y-105211418D01*
X88170710Y-105217712D01*
X88183336Y-105225280D01*
X88195159Y-105234048D01*
X88206066Y-105243934D01*
X88215952Y-105254841D01*
X88224720Y-105266664D01*
X88232288Y-105279290D01*
X88238582Y-105292597D01*
X88243541Y-105306457D01*
X88247118Y-105320736D01*
X88249278Y-105335297D01*
X88250000Y-105350000D01*
X88250000Y-106375000D01*
X88249278Y-106389703D01*
X88247118Y-106404264D01*
X88243541Y-106418543D01*
X88238582Y-106432403D01*
X88232288Y-106445710D01*
X88224720Y-106458336D01*
X88215952Y-106470159D01*
X88206066Y-106481066D01*
X88195159Y-106490952D01*
X88183336Y-106499720D01*
X88170710Y-106507288D01*
X88157403Y-106513582D01*
X88143543Y-106518541D01*
X88129264Y-106522118D01*
X88114703Y-106524278D01*
X88100000Y-106525000D01*
X87800000Y-106525000D01*
X87785297Y-106524278D01*
X87770736Y-106522118D01*
X87756457Y-106518541D01*
X87742597Y-106513582D01*
X87729290Y-106507288D01*
X87716664Y-106499720D01*
X87704841Y-106490952D01*
X87693934Y-106481066D01*
X87684048Y-106470159D01*
X87675280Y-106458336D01*
X87667712Y-106445710D01*
X87661418Y-106432403D01*
X87656459Y-106418543D01*
X87652882Y-106404264D01*
X87650722Y-106389703D01*
X87650000Y-106375000D01*
X87650000Y-105350000D01*
X87650722Y-105335297D01*
X87652882Y-105320736D01*
X87656459Y-105306457D01*
X87661418Y-105292597D01*
X87667712Y-105279290D01*
X87675280Y-105266664D01*
X87684048Y-105254841D01*
X87693934Y-105243934D01*
X87704841Y-105234048D01*
X87716664Y-105225280D01*
X87729290Y-105217712D01*
X87742597Y-105211418D01*
X87756457Y-105206459D01*
X87770736Y-105202882D01*
X87785297Y-105200722D01*
X87800000Y-105200000D01*
X88100000Y-105200000D01*
X88114703Y-105200722D01*
X88114703Y-105200722D01*
G37*
D16*
X87950000Y-105862500D03*
D15*
G36*
X88114703Y-107475722D02*
G01*
X88129264Y-107477882D01*
X88143543Y-107481459D01*
X88157403Y-107486418D01*
X88170710Y-107492712D01*
X88183336Y-107500280D01*
X88195159Y-107509048D01*
X88206066Y-107518934D01*
X88215952Y-107529841D01*
X88224720Y-107541664D01*
X88232288Y-107554290D01*
X88238582Y-107567597D01*
X88243541Y-107581457D01*
X88247118Y-107595736D01*
X88249278Y-107610297D01*
X88250000Y-107625000D01*
X88250000Y-108650000D01*
X88249278Y-108664703D01*
X88247118Y-108679264D01*
X88243541Y-108693543D01*
X88238582Y-108707403D01*
X88232288Y-108720710D01*
X88224720Y-108733336D01*
X88215952Y-108745159D01*
X88206066Y-108756066D01*
X88195159Y-108765952D01*
X88183336Y-108774720D01*
X88170710Y-108782288D01*
X88157403Y-108788582D01*
X88143543Y-108793541D01*
X88129264Y-108797118D01*
X88114703Y-108799278D01*
X88100000Y-108800000D01*
X87800000Y-108800000D01*
X87785297Y-108799278D01*
X87770736Y-108797118D01*
X87756457Y-108793541D01*
X87742597Y-108788582D01*
X87729290Y-108782288D01*
X87716664Y-108774720D01*
X87704841Y-108765952D01*
X87693934Y-108756066D01*
X87684048Y-108745159D01*
X87675280Y-108733336D01*
X87667712Y-108720710D01*
X87661418Y-108707403D01*
X87656459Y-108693543D01*
X87652882Y-108679264D01*
X87650722Y-108664703D01*
X87650000Y-108650000D01*
X87650000Y-107625000D01*
X87650722Y-107610297D01*
X87652882Y-107595736D01*
X87656459Y-107581457D01*
X87661418Y-107567597D01*
X87667712Y-107554290D01*
X87675280Y-107541664D01*
X87684048Y-107529841D01*
X87693934Y-107518934D01*
X87704841Y-107509048D01*
X87716664Y-107500280D01*
X87729290Y-107492712D01*
X87742597Y-107486418D01*
X87756457Y-107481459D01*
X87770736Y-107477882D01*
X87785297Y-107475722D01*
X87800000Y-107475000D01*
X88100000Y-107475000D01*
X88114703Y-107475722D01*
X88114703Y-107475722D01*
G37*
D16*
X87950000Y-108137500D03*
D15*
G36*
X89064703Y-107475722D02*
G01*
X89079264Y-107477882D01*
X89093543Y-107481459D01*
X89107403Y-107486418D01*
X89120710Y-107492712D01*
X89133336Y-107500280D01*
X89145159Y-107509048D01*
X89156066Y-107518934D01*
X89165952Y-107529841D01*
X89174720Y-107541664D01*
X89182288Y-107554290D01*
X89188582Y-107567597D01*
X89193541Y-107581457D01*
X89197118Y-107595736D01*
X89199278Y-107610297D01*
X89200000Y-107625000D01*
X89200000Y-108650000D01*
X89199278Y-108664703D01*
X89197118Y-108679264D01*
X89193541Y-108693543D01*
X89188582Y-108707403D01*
X89182288Y-108720710D01*
X89174720Y-108733336D01*
X89165952Y-108745159D01*
X89156066Y-108756066D01*
X89145159Y-108765952D01*
X89133336Y-108774720D01*
X89120710Y-108782288D01*
X89107403Y-108788582D01*
X89093543Y-108793541D01*
X89079264Y-108797118D01*
X89064703Y-108799278D01*
X89050000Y-108800000D01*
X88750000Y-108800000D01*
X88735297Y-108799278D01*
X88720736Y-108797118D01*
X88706457Y-108793541D01*
X88692597Y-108788582D01*
X88679290Y-108782288D01*
X88666664Y-108774720D01*
X88654841Y-108765952D01*
X88643934Y-108756066D01*
X88634048Y-108745159D01*
X88625280Y-108733336D01*
X88617712Y-108720710D01*
X88611418Y-108707403D01*
X88606459Y-108693543D01*
X88602882Y-108679264D01*
X88600722Y-108664703D01*
X88600000Y-108650000D01*
X88600000Y-107625000D01*
X88600722Y-107610297D01*
X88602882Y-107595736D01*
X88606459Y-107581457D01*
X88611418Y-107567597D01*
X88617712Y-107554290D01*
X88625280Y-107541664D01*
X88634048Y-107529841D01*
X88643934Y-107518934D01*
X88654841Y-107509048D01*
X88666664Y-107500280D01*
X88679290Y-107492712D01*
X88692597Y-107486418D01*
X88706457Y-107481459D01*
X88720736Y-107477882D01*
X88735297Y-107475722D01*
X88750000Y-107475000D01*
X89050000Y-107475000D01*
X89064703Y-107475722D01*
X89064703Y-107475722D01*
G37*
D16*
X88900000Y-108137500D03*
D15*
G36*
X90014703Y-107475722D02*
G01*
X90029264Y-107477882D01*
X90043543Y-107481459D01*
X90057403Y-107486418D01*
X90070710Y-107492712D01*
X90083336Y-107500280D01*
X90095159Y-107509048D01*
X90106066Y-107518934D01*
X90115952Y-107529841D01*
X90124720Y-107541664D01*
X90132288Y-107554290D01*
X90138582Y-107567597D01*
X90143541Y-107581457D01*
X90147118Y-107595736D01*
X90149278Y-107610297D01*
X90150000Y-107625000D01*
X90150000Y-108650000D01*
X90149278Y-108664703D01*
X90147118Y-108679264D01*
X90143541Y-108693543D01*
X90138582Y-108707403D01*
X90132288Y-108720710D01*
X90124720Y-108733336D01*
X90115952Y-108745159D01*
X90106066Y-108756066D01*
X90095159Y-108765952D01*
X90083336Y-108774720D01*
X90070710Y-108782288D01*
X90057403Y-108788582D01*
X90043543Y-108793541D01*
X90029264Y-108797118D01*
X90014703Y-108799278D01*
X90000000Y-108800000D01*
X89700000Y-108800000D01*
X89685297Y-108799278D01*
X89670736Y-108797118D01*
X89656457Y-108793541D01*
X89642597Y-108788582D01*
X89629290Y-108782288D01*
X89616664Y-108774720D01*
X89604841Y-108765952D01*
X89593934Y-108756066D01*
X89584048Y-108745159D01*
X89575280Y-108733336D01*
X89567712Y-108720710D01*
X89561418Y-108707403D01*
X89556459Y-108693543D01*
X89552882Y-108679264D01*
X89550722Y-108664703D01*
X89550000Y-108650000D01*
X89550000Y-107625000D01*
X89550722Y-107610297D01*
X89552882Y-107595736D01*
X89556459Y-107581457D01*
X89561418Y-107567597D01*
X89567712Y-107554290D01*
X89575280Y-107541664D01*
X89584048Y-107529841D01*
X89593934Y-107518934D01*
X89604841Y-107509048D01*
X89616664Y-107500280D01*
X89629290Y-107492712D01*
X89642597Y-107486418D01*
X89656457Y-107481459D01*
X89670736Y-107477882D01*
X89685297Y-107475722D01*
X89700000Y-107475000D01*
X90000000Y-107475000D01*
X90014703Y-107475722D01*
X90014703Y-107475722D01*
G37*
D16*
X89850000Y-108137500D03*
D15*
G36*
X92099505Y-100826204D02*
G01*
X92123773Y-100829804D01*
X92147572Y-100835765D01*
X92170671Y-100844030D01*
X92192850Y-100854520D01*
X92213893Y-100867132D01*
X92233599Y-100881747D01*
X92251777Y-100898223D01*
X92268253Y-100916401D01*
X92282868Y-100936107D01*
X92295480Y-100957150D01*
X92305970Y-100979329D01*
X92314235Y-101002428D01*
X92320196Y-101026227D01*
X92323796Y-101050495D01*
X92325000Y-101074999D01*
X92325000Y-102325001D01*
X92323796Y-102349505D01*
X92320196Y-102373773D01*
X92314235Y-102397572D01*
X92305970Y-102420671D01*
X92295480Y-102442850D01*
X92282868Y-102463893D01*
X92268253Y-102483599D01*
X92251777Y-102501777D01*
X92233599Y-102518253D01*
X92213893Y-102532868D01*
X92192850Y-102545480D01*
X92170671Y-102555970D01*
X92147572Y-102564235D01*
X92123773Y-102570196D01*
X92099505Y-102573796D01*
X92075001Y-102575000D01*
X91449999Y-102575000D01*
X91425495Y-102573796D01*
X91401227Y-102570196D01*
X91377428Y-102564235D01*
X91354329Y-102555970D01*
X91332150Y-102545480D01*
X91311107Y-102532868D01*
X91291401Y-102518253D01*
X91273223Y-102501777D01*
X91256747Y-102483599D01*
X91242132Y-102463893D01*
X91229520Y-102442850D01*
X91219030Y-102420671D01*
X91210765Y-102397572D01*
X91204804Y-102373773D01*
X91201204Y-102349505D01*
X91200000Y-102325001D01*
X91200000Y-101074999D01*
X91201204Y-101050495D01*
X91204804Y-101026227D01*
X91210765Y-101002428D01*
X91219030Y-100979329D01*
X91229520Y-100957150D01*
X91242132Y-100936107D01*
X91256747Y-100916401D01*
X91273223Y-100898223D01*
X91291401Y-100881747D01*
X91311107Y-100867132D01*
X91332150Y-100854520D01*
X91354329Y-100844030D01*
X91377428Y-100835765D01*
X91401227Y-100829804D01*
X91425495Y-100826204D01*
X91449999Y-100825000D01*
X92075001Y-100825000D01*
X92099505Y-100826204D01*
X92099505Y-100826204D01*
G37*
D17*
X91762500Y-101700000D03*
D15*
G36*
X89174505Y-100826204D02*
G01*
X89198773Y-100829804D01*
X89222572Y-100835765D01*
X89245671Y-100844030D01*
X89267850Y-100854520D01*
X89288893Y-100867132D01*
X89308599Y-100881747D01*
X89326777Y-100898223D01*
X89343253Y-100916401D01*
X89357868Y-100936107D01*
X89370480Y-100957150D01*
X89380970Y-100979329D01*
X89389235Y-101002428D01*
X89395196Y-101026227D01*
X89398796Y-101050495D01*
X89400000Y-101074999D01*
X89400000Y-102325001D01*
X89398796Y-102349505D01*
X89395196Y-102373773D01*
X89389235Y-102397572D01*
X89380970Y-102420671D01*
X89370480Y-102442850D01*
X89357868Y-102463893D01*
X89343253Y-102483599D01*
X89326777Y-102501777D01*
X89308599Y-102518253D01*
X89288893Y-102532868D01*
X89267850Y-102545480D01*
X89245671Y-102555970D01*
X89222572Y-102564235D01*
X89198773Y-102570196D01*
X89174505Y-102573796D01*
X89150001Y-102575000D01*
X88524999Y-102575000D01*
X88500495Y-102573796D01*
X88476227Y-102570196D01*
X88452428Y-102564235D01*
X88429329Y-102555970D01*
X88407150Y-102545480D01*
X88386107Y-102532868D01*
X88366401Y-102518253D01*
X88348223Y-102501777D01*
X88331747Y-102483599D01*
X88317132Y-102463893D01*
X88304520Y-102442850D01*
X88294030Y-102420671D01*
X88285765Y-102397572D01*
X88279804Y-102373773D01*
X88276204Y-102349505D01*
X88275000Y-102325001D01*
X88275000Y-101074999D01*
X88276204Y-101050495D01*
X88279804Y-101026227D01*
X88285765Y-101002428D01*
X88294030Y-100979329D01*
X88304520Y-100957150D01*
X88317132Y-100936107D01*
X88331747Y-100916401D01*
X88348223Y-100898223D01*
X88366401Y-100881747D01*
X88386107Y-100867132D01*
X88407150Y-100854520D01*
X88429329Y-100844030D01*
X88452428Y-100835765D01*
X88476227Y-100829804D01*
X88500495Y-100826204D01*
X88524999Y-100825000D01*
X89150001Y-100825000D01*
X89174505Y-100826204D01*
X89174505Y-100826204D01*
G37*
D17*
X88837500Y-101700000D03*
D15*
G36*
X86094603Y-100875963D02*
G01*
X86114018Y-100878843D01*
X86133057Y-100883612D01*
X86151537Y-100890224D01*
X86169279Y-100898616D01*
X86186114Y-100908706D01*
X86201879Y-100920398D01*
X86216421Y-100933579D01*
X86229602Y-100948121D01*
X86241294Y-100963886D01*
X86251384Y-100980721D01*
X86259776Y-100998463D01*
X86266388Y-101016943D01*
X86271157Y-101035982D01*
X86274037Y-101055397D01*
X86275000Y-101075000D01*
X86275000Y-101475000D01*
X86274037Y-101494603D01*
X86271157Y-101514018D01*
X86266388Y-101533057D01*
X86259776Y-101551537D01*
X86251384Y-101569279D01*
X86241294Y-101586114D01*
X86229602Y-101601879D01*
X86216421Y-101616421D01*
X86201879Y-101629602D01*
X86186114Y-101641294D01*
X86169279Y-101651384D01*
X86151537Y-101659776D01*
X86133057Y-101666388D01*
X86114018Y-101671157D01*
X86094603Y-101674037D01*
X86075000Y-101675000D01*
X85525000Y-101675000D01*
X85505397Y-101674037D01*
X85485982Y-101671157D01*
X85466943Y-101666388D01*
X85448463Y-101659776D01*
X85430721Y-101651384D01*
X85413886Y-101641294D01*
X85398121Y-101629602D01*
X85383579Y-101616421D01*
X85370398Y-101601879D01*
X85358706Y-101586114D01*
X85348616Y-101569279D01*
X85340224Y-101551537D01*
X85333612Y-101533057D01*
X85328843Y-101514018D01*
X85325963Y-101494603D01*
X85325000Y-101475000D01*
X85325000Y-101075000D01*
X85325963Y-101055397D01*
X85328843Y-101035982D01*
X85333612Y-101016943D01*
X85340224Y-100998463D01*
X85348616Y-100980721D01*
X85358706Y-100963886D01*
X85370398Y-100948121D01*
X85383579Y-100933579D01*
X85398121Y-100920398D01*
X85413886Y-100908706D01*
X85430721Y-100898616D01*
X85448463Y-100890224D01*
X85466943Y-100883612D01*
X85485982Y-100878843D01*
X85505397Y-100875963D01*
X85525000Y-100875000D01*
X86075000Y-100875000D01*
X86094603Y-100875963D01*
X86094603Y-100875963D01*
G37*
D18*
X85800000Y-101275000D03*
D15*
G36*
X86094603Y-102525963D02*
G01*
X86114018Y-102528843D01*
X86133057Y-102533612D01*
X86151537Y-102540224D01*
X86169279Y-102548616D01*
X86186114Y-102558706D01*
X86201879Y-102570398D01*
X86216421Y-102583579D01*
X86229602Y-102598121D01*
X86241294Y-102613886D01*
X86251384Y-102630721D01*
X86259776Y-102648463D01*
X86266388Y-102666943D01*
X86271157Y-102685982D01*
X86274037Y-102705397D01*
X86275000Y-102725000D01*
X86275000Y-103125000D01*
X86274037Y-103144603D01*
X86271157Y-103164018D01*
X86266388Y-103183057D01*
X86259776Y-103201537D01*
X86251384Y-103219279D01*
X86241294Y-103236114D01*
X86229602Y-103251879D01*
X86216421Y-103266421D01*
X86201879Y-103279602D01*
X86186114Y-103291294D01*
X86169279Y-103301384D01*
X86151537Y-103309776D01*
X86133057Y-103316388D01*
X86114018Y-103321157D01*
X86094603Y-103324037D01*
X86075000Y-103325000D01*
X85525000Y-103325000D01*
X85505397Y-103324037D01*
X85485982Y-103321157D01*
X85466943Y-103316388D01*
X85448463Y-103309776D01*
X85430721Y-103301384D01*
X85413886Y-103291294D01*
X85398121Y-103279602D01*
X85383579Y-103266421D01*
X85370398Y-103251879D01*
X85358706Y-103236114D01*
X85348616Y-103219279D01*
X85340224Y-103201537D01*
X85333612Y-103183057D01*
X85328843Y-103164018D01*
X85325963Y-103144603D01*
X85325000Y-103125000D01*
X85325000Y-102725000D01*
X85325963Y-102705397D01*
X85328843Y-102685982D01*
X85333612Y-102666943D01*
X85340224Y-102648463D01*
X85348616Y-102630721D01*
X85358706Y-102613886D01*
X85370398Y-102598121D01*
X85383579Y-102583579D01*
X85398121Y-102570398D01*
X85413886Y-102558706D01*
X85430721Y-102548616D01*
X85448463Y-102540224D01*
X85466943Y-102533612D01*
X85485982Y-102528843D01*
X85505397Y-102525963D01*
X85525000Y-102525000D01*
X86075000Y-102525000D01*
X86094603Y-102525963D01*
X86094603Y-102525963D01*
G37*
D18*
X85800000Y-102925000D03*
D15*
G36*
X84594603Y-100875963D02*
G01*
X84614018Y-100878843D01*
X84633057Y-100883612D01*
X84651537Y-100890224D01*
X84669279Y-100898616D01*
X84686114Y-100908706D01*
X84701879Y-100920398D01*
X84716421Y-100933579D01*
X84729602Y-100948121D01*
X84741294Y-100963886D01*
X84751384Y-100980721D01*
X84759776Y-100998463D01*
X84766388Y-101016943D01*
X84771157Y-101035982D01*
X84774037Y-101055397D01*
X84775000Y-101075000D01*
X84775000Y-101475000D01*
X84774037Y-101494603D01*
X84771157Y-101514018D01*
X84766388Y-101533057D01*
X84759776Y-101551537D01*
X84751384Y-101569279D01*
X84741294Y-101586114D01*
X84729602Y-101601879D01*
X84716421Y-101616421D01*
X84701879Y-101629602D01*
X84686114Y-101641294D01*
X84669279Y-101651384D01*
X84651537Y-101659776D01*
X84633057Y-101666388D01*
X84614018Y-101671157D01*
X84594603Y-101674037D01*
X84575000Y-101675000D01*
X84025000Y-101675000D01*
X84005397Y-101674037D01*
X83985982Y-101671157D01*
X83966943Y-101666388D01*
X83948463Y-101659776D01*
X83930721Y-101651384D01*
X83913886Y-101641294D01*
X83898121Y-101629602D01*
X83883579Y-101616421D01*
X83870398Y-101601879D01*
X83858706Y-101586114D01*
X83848616Y-101569279D01*
X83840224Y-101551537D01*
X83833612Y-101533057D01*
X83828843Y-101514018D01*
X83825963Y-101494603D01*
X83825000Y-101475000D01*
X83825000Y-101075000D01*
X83825963Y-101055397D01*
X83828843Y-101035982D01*
X83833612Y-101016943D01*
X83840224Y-100998463D01*
X83848616Y-100980721D01*
X83858706Y-100963886D01*
X83870398Y-100948121D01*
X83883579Y-100933579D01*
X83898121Y-100920398D01*
X83913886Y-100908706D01*
X83930721Y-100898616D01*
X83948463Y-100890224D01*
X83966943Y-100883612D01*
X83985982Y-100878843D01*
X84005397Y-100875963D01*
X84025000Y-100875000D01*
X84575000Y-100875000D01*
X84594603Y-100875963D01*
X84594603Y-100875963D01*
G37*
D18*
X84300000Y-101275000D03*
D15*
G36*
X84594603Y-102525963D02*
G01*
X84614018Y-102528843D01*
X84633057Y-102533612D01*
X84651537Y-102540224D01*
X84669279Y-102548616D01*
X84686114Y-102558706D01*
X84701879Y-102570398D01*
X84716421Y-102583579D01*
X84729602Y-102598121D01*
X84741294Y-102613886D01*
X84751384Y-102630721D01*
X84759776Y-102648463D01*
X84766388Y-102666943D01*
X84771157Y-102685982D01*
X84774037Y-102705397D01*
X84775000Y-102725000D01*
X84775000Y-103125000D01*
X84774037Y-103144603D01*
X84771157Y-103164018D01*
X84766388Y-103183057D01*
X84759776Y-103201537D01*
X84751384Y-103219279D01*
X84741294Y-103236114D01*
X84729602Y-103251879D01*
X84716421Y-103266421D01*
X84701879Y-103279602D01*
X84686114Y-103291294D01*
X84669279Y-103301384D01*
X84651537Y-103309776D01*
X84633057Y-103316388D01*
X84614018Y-103321157D01*
X84594603Y-103324037D01*
X84575000Y-103325000D01*
X84025000Y-103325000D01*
X84005397Y-103324037D01*
X83985982Y-103321157D01*
X83966943Y-103316388D01*
X83948463Y-103309776D01*
X83930721Y-103301384D01*
X83913886Y-103291294D01*
X83898121Y-103279602D01*
X83883579Y-103266421D01*
X83870398Y-103251879D01*
X83858706Y-103236114D01*
X83848616Y-103219279D01*
X83840224Y-103201537D01*
X83833612Y-103183057D01*
X83828843Y-103164018D01*
X83825963Y-103144603D01*
X83825000Y-103125000D01*
X83825000Y-102725000D01*
X83825963Y-102705397D01*
X83828843Y-102685982D01*
X83833612Y-102666943D01*
X83840224Y-102648463D01*
X83848616Y-102630721D01*
X83858706Y-102613886D01*
X83870398Y-102598121D01*
X83883579Y-102583579D01*
X83898121Y-102570398D01*
X83913886Y-102558706D01*
X83930721Y-102548616D01*
X83948463Y-102540224D01*
X83966943Y-102533612D01*
X83985982Y-102528843D01*
X84005397Y-102525963D01*
X84025000Y-102525000D01*
X84575000Y-102525000D01*
X84594603Y-102525963D01*
X84594603Y-102525963D01*
G37*
D18*
X84300000Y-102925000D03*
D15*
G36*
X78064703Y-100575722D02*
G01*
X78079264Y-100577882D01*
X78093543Y-100581459D01*
X78107403Y-100586418D01*
X78120710Y-100592712D01*
X78133336Y-100600280D01*
X78145159Y-100609048D01*
X78156066Y-100618934D01*
X78165952Y-100629841D01*
X78174720Y-100641664D01*
X78182288Y-100654290D01*
X78188582Y-100667597D01*
X78193541Y-100681457D01*
X78197118Y-100695736D01*
X78199278Y-100710297D01*
X78200000Y-100725000D01*
X78200000Y-102425000D01*
X78199278Y-102439703D01*
X78197118Y-102454264D01*
X78193541Y-102468543D01*
X78188582Y-102482403D01*
X78182288Y-102495710D01*
X78174720Y-102508336D01*
X78165952Y-102520159D01*
X78156066Y-102531066D01*
X78145159Y-102540952D01*
X78133336Y-102549720D01*
X78120710Y-102557288D01*
X78107403Y-102563582D01*
X78093543Y-102568541D01*
X78079264Y-102572118D01*
X78064703Y-102574278D01*
X78050000Y-102575000D01*
X77750000Y-102575000D01*
X77735297Y-102574278D01*
X77720736Y-102572118D01*
X77706457Y-102568541D01*
X77692597Y-102563582D01*
X77679290Y-102557288D01*
X77666664Y-102549720D01*
X77654841Y-102540952D01*
X77643934Y-102531066D01*
X77634048Y-102520159D01*
X77625280Y-102508336D01*
X77617712Y-102495710D01*
X77611418Y-102482403D01*
X77606459Y-102468543D01*
X77602882Y-102454264D01*
X77600722Y-102439703D01*
X77600000Y-102425000D01*
X77600000Y-100725000D01*
X77600722Y-100710297D01*
X77602882Y-100695736D01*
X77606459Y-100681457D01*
X77611418Y-100667597D01*
X77617712Y-100654290D01*
X77625280Y-100641664D01*
X77634048Y-100629841D01*
X77643934Y-100618934D01*
X77654841Y-100609048D01*
X77666664Y-100600280D01*
X77679290Y-100592712D01*
X77692597Y-100586418D01*
X77706457Y-100581459D01*
X77720736Y-100577882D01*
X77735297Y-100575722D01*
X77750000Y-100575000D01*
X78050000Y-100575000D01*
X78064703Y-100575722D01*
X78064703Y-100575722D01*
G37*
D16*
X77900000Y-101575000D03*
D15*
G36*
X79064703Y-100575722D02*
G01*
X79079264Y-100577882D01*
X79093543Y-100581459D01*
X79107403Y-100586418D01*
X79120710Y-100592712D01*
X79133336Y-100600280D01*
X79145159Y-100609048D01*
X79156066Y-100618934D01*
X79165952Y-100629841D01*
X79174720Y-100641664D01*
X79182288Y-100654290D01*
X79188582Y-100667597D01*
X79193541Y-100681457D01*
X79197118Y-100695736D01*
X79199278Y-100710297D01*
X79200000Y-100725000D01*
X79200000Y-102425000D01*
X79199278Y-102439703D01*
X79197118Y-102454264D01*
X79193541Y-102468543D01*
X79188582Y-102482403D01*
X79182288Y-102495710D01*
X79174720Y-102508336D01*
X79165952Y-102520159D01*
X79156066Y-102531066D01*
X79145159Y-102540952D01*
X79133336Y-102549720D01*
X79120710Y-102557288D01*
X79107403Y-102563582D01*
X79093543Y-102568541D01*
X79079264Y-102572118D01*
X79064703Y-102574278D01*
X79050000Y-102575000D01*
X78750000Y-102575000D01*
X78735297Y-102574278D01*
X78720736Y-102572118D01*
X78706457Y-102568541D01*
X78692597Y-102563582D01*
X78679290Y-102557288D01*
X78666664Y-102549720D01*
X78654841Y-102540952D01*
X78643934Y-102531066D01*
X78634048Y-102520159D01*
X78625280Y-102508336D01*
X78617712Y-102495710D01*
X78611418Y-102482403D01*
X78606459Y-102468543D01*
X78602882Y-102454264D01*
X78600722Y-102439703D01*
X78600000Y-102425000D01*
X78600000Y-100725000D01*
X78600722Y-100710297D01*
X78602882Y-100695736D01*
X78606459Y-100681457D01*
X78611418Y-100667597D01*
X78617712Y-100654290D01*
X78625280Y-100641664D01*
X78634048Y-100629841D01*
X78643934Y-100618934D01*
X78654841Y-100609048D01*
X78666664Y-100600280D01*
X78679290Y-100592712D01*
X78692597Y-100586418D01*
X78706457Y-100581459D01*
X78720736Y-100577882D01*
X78735297Y-100575722D01*
X78750000Y-100575000D01*
X79050000Y-100575000D01*
X79064703Y-100575722D01*
X79064703Y-100575722D01*
G37*
D16*
X78900000Y-101575000D03*
D15*
G36*
X80064703Y-100575722D02*
G01*
X80079264Y-100577882D01*
X80093543Y-100581459D01*
X80107403Y-100586418D01*
X80120710Y-100592712D01*
X80133336Y-100600280D01*
X80145159Y-100609048D01*
X80156066Y-100618934D01*
X80165952Y-100629841D01*
X80174720Y-100641664D01*
X80182288Y-100654290D01*
X80188582Y-100667597D01*
X80193541Y-100681457D01*
X80197118Y-100695736D01*
X80199278Y-100710297D01*
X80200000Y-100725000D01*
X80200000Y-102425000D01*
X80199278Y-102439703D01*
X80197118Y-102454264D01*
X80193541Y-102468543D01*
X80188582Y-102482403D01*
X80182288Y-102495710D01*
X80174720Y-102508336D01*
X80165952Y-102520159D01*
X80156066Y-102531066D01*
X80145159Y-102540952D01*
X80133336Y-102549720D01*
X80120710Y-102557288D01*
X80107403Y-102563582D01*
X80093543Y-102568541D01*
X80079264Y-102572118D01*
X80064703Y-102574278D01*
X80050000Y-102575000D01*
X79750000Y-102575000D01*
X79735297Y-102574278D01*
X79720736Y-102572118D01*
X79706457Y-102568541D01*
X79692597Y-102563582D01*
X79679290Y-102557288D01*
X79666664Y-102549720D01*
X79654841Y-102540952D01*
X79643934Y-102531066D01*
X79634048Y-102520159D01*
X79625280Y-102508336D01*
X79617712Y-102495710D01*
X79611418Y-102482403D01*
X79606459Y-102468543D01*
X79602882Y-102454264D01*
X79600722Y-102439703D01*
X79600000Y-102425000D01*
X79600000Y-100725000D01*
X79600722Y-100710297D01*
X79602882Y-100695736D01*
X79606459Y-100681457D01*
X79611418Y-100667597D01*
X79617712Y-100654290D01*
X79625280Y-100641664D01*
X79634048Y-100629841D01*
X79643934Y-100618934D01*
X79654841Y-100609048D01*
X79666664Y-100600280D01*
X79679290Y-100592712D01*
X79692597Y-100586418D01*
X79706457Y-100581459D01*
X79720736Y-100577882D01*
X79735297Y-100575722D01*
X79750000Y-100575000D01*
X80050000Y-100575000D01*
X80064703Y-100575722D01*
X80064703Y-100575722D01*
G37*
D16*
X79900000Y-101575000D03*
D15*
G36*
X81064703Y-100575722D02*
G01*
X81079264Y-100577882D01*
X81093543Y-100581459D01*
X81107403Y-100586418D01*
X81120710Y-100592712D01*
X81133336Y-100600280D01*
X81145159Y-100609048D01*
X81156066Y-100618934D01*
X81165952Y-100629841D01*
X81174720Y-100641664D01*
X81182288Y-100654290D01*
X81188582Y-100667597D01*
X81193541Y-100681457D01*
X81197118Y-100695736D01*
X81199278Y-100710297D01*
X81200000Y-100725000D01*
X81200000Y-102425000D01*
X81199278Y-102439703D01*
X81197118Y-102454264D01*
X81193541Y-102468543D01*
X81188582Y-102482403D01*
X81182288Y-102495710D01*
X81174720Y-102508336D01*
X81165952Y-102520159D01*
X81156066Y-102531066D01*
X81145159Y-102540952D01*
X81133336Y-102549720D01*
X81120710Y-102557288D01*
X81107403Y-102563582D01*
X81093543Y-102568541D01*
X81079264Y-102572118D01*
X81064703Y-102574278D01*
X81050000Y-102575000D01*
X80750000Y-102575000D01*
X80735297Y-102574278D01*
X80720736Y-102572118D01*
X80706457Y-102568541D01*
X80692597Y-102563582D01*
X80679290Y-102557288D01*
X80666664Y-102549720D01*
X80654841Y-102540952D01*
X80643934Y-102531066D01*
X80634048Y-102520159D01*
X80625280Y-102508336D01*
X80617712Y-102495710D01*
X80611418Y-102482403D01*
X80606459Y-102468543D01*
X80602882Y-102454264D01*
X80600722Y-102439703D01*
X80600000Y-102425000D01*
X80600000Y-100725000D01*
X80600722Y-100710297D01*
X80602882Y-100695736D01*
X80606459Y-100681457D01*
X80611418Y-100667597D01*
X80617712Y-100654290D01*
X80625280Y-100641664D01*
X80634048Y-100629841D01*
X80643934Y-100618934D01*
X80654841Y-100609048D01*
X80666664Y-100600280D01*
X80679290Y-100592712D01*
X80692597Y-100586418D01*
X80706457Y-100581459D01*
X80720736Y-100577882D01*
X80735297Y-100575722D01*
X80750000Y-100575000D01*
X81050000Y-100575000D01*
X81064703Y-100575722D01*
X81064703Y-100575722D01*
G37*
D16*
X80900000Y-101575000D03*
D15*
G36*
X76911365Y-104776541D02*
G01*
X76942429Y-104781149D01*
X76972891Y-104788779D01*
X77002459Y-104799359D01*
X77030847Y-104812785D01*
X77057782Y-104828930D01*
X77083006Y-104847637D01*
X77106274Y-104868726D01*
X77127363Y-104891994D01*
X77146070Y-104917218D01*
X77162215Y-104944153D01*
X77175641Y-104972541D01*
X77186221Y-105002109D01*
X77193851Y-105032571D01*
X77198459Y-105063635D01*
X77200000Y-105095000D01*
X77200000Y-106055000D01*
X77198459Y-106086365D01*
X77193851Y-106117429D01*
X77186221Y-106147891D01*
X77175641Y-106177459D01*
X77162215Y-106205847D01*
X77146070Y-106232782D01*
X77127363Y-106258006D01*
X77106274Y-106281274D01*
X77083006Y-106302363D01*
X77057782Y-106321070D01*
X77030847Y-106337215D01*
X77002459Y-106350641D01*
X76972891Y-106361221D01*
X76942429Y-106368851D01*
X76911365Y-106373459D01*
X76880000Y-106375000D01*
X75920000Y-106375000D01*
X75888635Y-106373459D01*
X75857571Y-106368851D01*
X75827109Y-106361221D01*
X75797541Y-106350641D01*
X75769153Y-106337215D01*
X75742218Y-106321070D01*
X75716994Y-106302363D01*
X75693726Y-106281274D01*
X75672637Y-106258006D01*
X75653930Y-106232782D01*
X75637785Y-106205847D01*
X75624359Y-106177459D01*
X75613779Y-106147891D01*
X75606149Y-106117429D01*
X75601541Y-106086365D01*
X75600000Y-106055000D01*
X75600000Y-105095000D01*
X75601541Y-105063635D01*
X75606149Y-105032571D01*
X75613779Y-105002109D01*
X75624359Y-104972541D01*
X75637785Y-104944153D01*
X75653930Y-104917218D01*
X75672637Y-104891994D01*
X75693726Y-104868726D01*
X75716994Y-104847637D01*
X75742218Y-104828930D01*
X75769153Y-104812785D01*
X75797541Y-104799359D01*
X75827109Y-104788779D01*
X75857571Y-104781149D01*
X75888635Y-104776541D01*
X75920000Y-104775000D01*
X76880000Y-104775000D01*
X76911365Y-104776541D01*
X76911365Y-104776541D01*
G37*
D19*
X76400000Y-105575000D03*
D15*
G36*
X82911365Y-104776541D02*
G01*
X82942429Y-104781149D01*
X82972891Y-104788779D01*
X83002459Y-104799359D01*
X83030847Y-104812785D01*
X83057782Y-104828930D01*
X83083006Y-104847637D01*
X83106274Y-104868726D01*
X83127363Y-104891994D01*
X83146070Y-104917218D01*
X83162215Y-104944153D01*
X83175641Y-104972541D01*
X83186221Y-105002109D01*
X83193851Y-105032571D01*
X83198459Y-105063635D01*
X83200000Y-105095000D01*
X83200000Y-106055000D01*
X83198459Y-106086365D01*
X83193851Y-106117429D01*
X83186221Y-106147891D01*
X83175641Y-106177459D01*
X83162215Y-106205847D01*
X83146070Y-106232782D01*
X83127363Y-106258006D01*
X83106274Y-106281274D01*
X83083006Y-106302363D01*
X83057782Y-106321070D01*
X83030847Y-106337215D01*
X83002459Y-106350641D01*
X82972891Y-106361221D01*
X82942429Y-106368851D01*
X82911365Y-106373459D01*
X82880000Y-106375000D01*
X81920000Y-106375000D01*
X81888635Y-106373459D01*
X81857571Y-106368851D01*
X81827109Y-106361221D01*
X81797541Y-106350641D01*
X81769153Y-106337215D01*
X81742218Y-106321070D01*
X81716994Y-106302363D01*
X81693726Y-106281274D01*
X81672637Y-106258006D01*
X81653930Y-106232782D01*
X81637785Y-106205847D01*
X81624359Y-106177459D01*
X81613779Y-106147891D01*
X81606149Y-106117429D01*
X81601541Y-106086365D01*
X81600000Y-106055000D01*
X81600000Y-105095000D01*
X81601541Y-105063635D01*
X81606149Y-105032571D01*
X81613779Y-105002109D01*
X81624359Y-104972541D01*
X81637785Y-104944153D01*
X81653930Y-104917218D01*
X81672637Y-104891994D01*
X81693726Y-104868726D01*
X81716994Y-104847637D01*
X81742218Y-104828930D01*
X81769153Y-104812785D01*
X81797541Y-104799359D01*
X81827109Y-104788779D01*
X81857571Y-104781149D01*
X81888635Y-104776541D01*
X81920000Y-104775000D01*
X82880000Y-104775000D01*
X82911365Y-104776541D01*
X82911365Y-104776541D01*
G37*
D19*
X82400000Y-105575000D03*
D20*
X108900000Y-103500000D03*
D18*
X111200000Y-103500000D03*
X110526346Y-105126346D03*
X108900000Y-105800000D03*
X107273654Y-105126346D03*
X106600000Y-103500000D03*
X107273654Y-101873654D03*
X108900000Y-101200000D03*
X110526346Y-101873654D03*
D20*
X71900000Y-103500000D03*
D18*
X74200000Y-103500000D03*
X73526346Y-105126346D03*
X71900000Y-105800000D03*
X70273654Y-105126346D03*
X69600000Y-103500000D03*
X70273654Y-101873654D03*
X71900000Y-101200000D03*
X73526346Y-101873654D03*
D15*
G36*
X89299504Y-109426204D02*
G01*
X89323773Y-109429804D01*
X89347571Y-109435765D01*
X89370671Y-109444030D01*
X89392849Y-109454520D01*
X89413893Y-109467133D01*
X89433598Y-109481747D01*
X89451777Y-109498223D01*
X89468253Y-109516402D01*
X89482867Y-109536107D01*
X89495480Y-109557151D01*
X89505970Y-109579329D01*
X89514235Y-109602429D01*
X89520196Y-109626227D01*
X89523796Y-109650496D01*
X89525000Y-109675000D01*
X89525000Y-110925000D01*
X89523796Y-110949504D01*
X89520196Y-110973773D01*
X89514235Y-110997571D01*
X89505970Y-111020671D01*
X89495480Y-111042849D01*
X89482867Y-111063893D01*
X89468253Y-111083598D01*
X89451777Y-111101777D01*
X89433598Y-111118253D01*
X89413893Y-111132867D01*
X89392849Y-111145480D01*
X89370671Y-111155970D01*
X89347571Y-111164235D01*
X89323773Y-111170196D01*
X89299504Y-111173796D01*
X89275000Y-111175000D01*
X88525000Y-111175000D01*
X88500496Y-111173796D01*
X88476227Y-111170196D01*
X88452429Y-111164235D01*
X88429329Y-111155970D01*
X88407151Y-111145480D01*
X88386107Y-111132867D01*
X88366402Y-111118253D01*
X88348223Y-111101777D01*
X88331747Y-111083598D01*
X88317133Y-111063893D01*
X88304520Y-111042849D01*
X88294030Y-111020671D01*
X88285765Y-110997571D01*
X88279804Y-110973773D01*
X88276204Y-110949504D01*
X88275000Y-110925000D01*
X88275000Y-109675000D01*
X88276204Y-109650496D01*
X88279804Y-109626227D01*
X88285765Y-109602429D01*
X88294030Y-109579329D01*
X88304520Y-109557151D01*
X88317133Y-109536107D01*
X88331747Y-109516402D01*
X88348223Y-109498223D01*
X88366402Y-109481747D01*
X88386107Y-109467133D01*
X88407151Y-109454520D01*
X88429329Y-109444030D01*
X88452429Y-109435765D01*
X88476227Y-109429804D01*
X88500496Y-109426204D01*
X88525000Y-109425000D01*
X89275000Y-109425000D01*
X89299504Y-109426204D01*
X89299504Y-109426204D01*
G37*
D21*
X88900000Y-110300000D03*
D15*
G36*
X92099504Y-109426204D02*
G01*
X92123773Y-109429804D01*
X92147571Y-109435765D01*
X92170671Y-109444030D01*
X92192849Y-109454520D01*
X92213893Y-109467133D01*
X92233598Y-109481747D01*
X92251777Y-109498223D01*
X92268253Y-109516402D01*
X92282867Y-109536107D01*
X92295480Y-109557151D01*
X92305970Y-109579329D01*
X92314235Y-109602429D01*
X92320196Y-109626227D01*
X92323796Y-109650496D01*
X92325000Y-109675000D01*
X92325000Y-110925000D01*
X92323796Y-110949504D01*
X92320196Y-110973773D01*
X92314235Y-110997571D01*
X92305970Y-111020671D01*
X92295480Y-111042849D01*
X92282867Y-111063893D01*
X92268253Y-111083598D01*
X92251777Y-111101777D01*
X92233598Y-111118253D01*
X92213893Y-111132867D01*
X92192849Y-111145480D01*
X92170671Y-111155970D01*
X92147571Y-111164235D01*
X92123773Y-111170196D01*
X92099504Y-111173796D01*
X92075000Y-111175000D01*
X91325000Y-111175000D01*
X91300496Y-111173796D01*
X91276227Y-111170196D01*
X91252429Y-111164235D01*
X91229329Y-111155970D01*
X91207151Y-111145480D01*
X91186107Y-111132867D01*
X91166402Y-111118253D01*
X91148223Y-111101777D01*
X91131747Y-111083598D01*
X91117133Y-111063893D01*
X91104520Y-111042849D01*
X91094030Y-111020671D01*
X91085765Y-110997571D01*
X91079804Y-110973773D01*
X91076204Y-110949504D01*
X91075000Y-110925000D01*
X91075000Y-109675000D01*
X91076204Y-109650496D01*
X91079804Y-109626227D01*
X91085765Y-109602429D01*
X91094030Y-109579329D01*
X91104520Y-109557151D01*
X91117133Y-109536107D01*
X91131747Y-109516402D01*
X91148223Y-109498223D01*
X91166402Y-109481747D01*
X91186107Y-109467133D01*
X91207151Y-109454520D01*
X91229329Y-109444030D01*
X91252429Y-109435765D01*
X91276227Y-109429804D01*
X91300496Y-109426204D01*
X91325000Y-109425000D01*
X92075000Y-109425000D01*
X92099504Y-109426204D01*
X92099504Y-109426204D01*
G37*
D21*
X91700000Y-110300000D03*
D15*
G36*
X91524504Y-103176204D02*
G01*
X91548773Y-103179804D01*
X91572571Y-103185765D01*
X91595671Y-103194030D01*
X91617849Y-103204520D01*
X91638893Y-103217133D01*
X91658598Y-103231747D01*
X91676777Y-103248223D01*
X91693253Y-103266402D01*
X91707867Y-103286107D01*
X91720480Y-103307151D01*
X91730970Y-103329329D01*
X91739235Y-103352429D01*
X91745196Y-103376227D01*
X91748796Y-103400496D01*
X91750000Y-103425000D01*
X91750000Y-104375000D01*
X91748796Y-104399504D01*
X91745196Y-104423773D01*
X91739235Y-104447571D01*
X91730970Y-104470671D01*
X91720480Y-104492849D01*
X91707867Y-104513893D01*
X91693253Y-104533598D01*
X91676777Y-104551777D01*
X91658598Y-104568253D01*
X91638893Y-104582867D01*
X91617849Y-104595480D01*
X91595671Y-104605970D01*
X91572571Y-104614235D01*
X91548773Y-104620196D01*
X91524504Y-104623796D01*
X91500000Y-104625000D01*
X91000000Y-104625000D01*
X90975496Y-104623796D01*
X90951227Y-104620196D01*
X90927429Y-104614235D01*
X90904329Y-104605970D01*
X90882151Y-104595480D01*
X90861107Y-104582867D01*
X90841402Y-104568253D01*
X90823223Y-104551777D01*
X90806747Y-104533598D01*
X90792133Y-104513893D01*
X90779520Y-104492849D01*
X90769030Y-104470671D01*
X90760765Y-104447571D01*
X90754804Y-104423773D01*
X90751204Y-104399504D01*
X90750000Y-104375000D01*
X90750000Y-103425000D01*
X90751204Y-103400496D01*
X90754804Y-103376227D01*
X90760765Y-103352429D01*
X90769030Y-103329329D01*
X90779520Y-103307151D01*
X90792133Y-103286107D01*
X90806747Y-103266402D01*
X90823223Y-103248223D01*
X90841402Y-103231747D01*
X90861107Y-103217133D01*
X90882151Y-103204520D01*
X90904329Y-103194030D01*
X90927429Y-103185765D01*
X90951227Y-103179804D01*
X90975496Y-103176204D01*
X91000000Y-103175000D01*
X91500000Y-103175000D01*
X91524504Y-103176204D01*
X91524504Y-103176204D01*
G37*
D22*
X91250000Y-103900000D03*
D15*
G36*
X89624504Y-103176204D02*
G01*
X89648773Y-103179804D01*
X89672571Y-103185765D01*
X89695671Y-103194030D01*
X89717849Y-103204520D01*
X89738893Y-103217133D01*
X89758598Y-103231747D01*
X89776777Y-103248223D01*
X89793253Y-103266402D01*
X89807867Y-103286107D01*
X89820480Y-103307151D01*
X89830970Y-103329329D01*
X89839235Y-103352429D01*
X89845196Y-103376227D01*
X89848796Y-103400496D01*
X89850000Y-103425000D01*
X89850000Y-104375000D01*
X89848796Y-104399504D01*
X89845196Y-104423773D01*
X89839235Y-104447571D01*
X89830970Y-104470671D01*
X89820480Y-104492849D01*
X89807867Y-104513893D01*
X89793253Y-104533598D01*
X89776777Y-104551777D01*
X89758598Y-104568253D01*
X89738893Y-104582867D01*
X89717849Y-104595480D01*
X89695671Y-104605970D01*
X89672571Y-104614235D01*
X89648773Y-104620196D01*
X89624504Y-104623796D01*
X89600000Y-104625000D01*
X89100000Y-104625000D01*
X89075496Y-104623796D01*
X89051227Y-104620196D01*
X89027429Y-104614235D01*
X89004329Y-104605970D01*
X88982151Y-104595480D01*
X88961107Y-104582867D01*
X88941402Y-104568253D01*
X88923223Y-104551777D01*
X88906747Y-104533598D01*
X88892133Y-104513893D01*
X88879520Y-104492849D01*
X88869030Y-104470671D01*
X88860765Y-104447571D01*
X88854804Y-104423773D01*
X88851204Y-104399504D01*
X88850000Y-104375000D01*
X88850000Y-103425000D01*
X88851204Y-103400496D01*
X88854804Y-103376227D01*
X88860765Y-103352429D01*
X88869030Y-103329329D01*
X88879520Y-103307151D01*
X88892133Y-103286107D01*
X88906747Y-103266402D01*
X88923223Y-103248223D01*
X88941402Y-103231747D01*
X88961107Y-103217133D01*
X88982151Y-103204520D01*
X89004329Y-103194030D01*
X89027429Y-103185765D01*
X89051227Y-103179804D01*
X89075496Y-103176204D01*
X89100000Y-103175000D01*
X89600000Y-103175000D01*
X89624504Y-103176204D01*
X89624504Y-103176204D01*
G37*
D22*
X89350000Y-103900000D03*
D18*
X104000000Y-108900000D03*
X96000000Y-108900000D03*
X84700000Y-105400000D03*
X83100000Y-110300000D03*
X97000000Y-109100000D03*
X103000000Y-109100000D03*
X92700000Y-109000000D03*
X84300000Y-104000000D03*
X101250000Y-109450000D03*
X85800000Y-104000000D03*
X98250000Y-109450000D03*
D23*
X103225000Y-107695000D02*
X103225000Y-108125000D01*
X103225000Y-108125000D02*
X104000000Y-108900000D01*
X96775000Y-107695000D02*
X96775000Y-108125000D01*
X96775000Y-108125000D02*
X96000000Y-108900000D01*
X84300000Y-101275000D02*
X85800000Y-101275000D01*
X88996447Y-101858946D02*
X88837500Y-101700000D01*
X88996447Y-101858946D02*
X89037301Y-101901855D01*
X89037301Y-101901855D02*
X89076000Y-101946718D01*
X89076000Y-101946718D02*
X89112452Y-101993426D01*
X89112452Y-101993426D02*
X89146567Y-102041866D01*
X89146567Y-102041866D02*
X89178264Y-102091922D01*
X89178264Y-102091922D02*
X89207467Y-102143473D01*
X89207467Y-102143473D02*
X89234106Y-102196394D01*
X89234106Y-102196394D02*
X89258115Y-102250559D01*
X89258115Y-102250559D02*
X89279438Y-102305837D01*
X89279438Y-102305837D02*
X89298023Y-102362095D01*
X89298023Y-102362095D02*
X89313825Y-102419196D01*
X89313825Y-102419196D02*
X89326807Y-102477004D01*
X89326807Y-102477004D02*
X89336936Y-102535380D01*
X89336936Y-102535380D02*
X89344188Y-102594182D01*
X89344188Y-102594182D02*
X89348547Y-102653270D01*
X89348547Y-102653270D02*
X89350000Y-102712500D01*
X89350000Y-102712500D02*
X89350000Y-103900000D01*
X89253554Y-103996446D02*
X89350000Y-103900000D01*
X89253554Y-103996446D02*
X89212700Y-104039355D01*
X89212700Y-104039355D02*
X89174001Y-104084218D01*
X89174001Y-104084218D02*
X89137550Y-104130926D01*
X89137550Y-104130926D02*
X89103435Y-104179366D01*
X89103435Y-104179366D02*
X89071737Y-104229422D01*
X89071737Y-104229422D02*
X89042534Y-104280973D01*
X89042534Y-104280973D02*
X89015896Y-104333894D01*
X89015896Y-104333894D02*
X88991886Y-104388059D01*
X88991886Y-104388059D02*
X88970563Y-104443337D01*
X88970563Y-104443337D02*
X88951978Y-104499594D01*
X88951978Y-104499594D02*
X88936176Y-104556696D01*
X88936176Y-104556696D02*
X88923195Y-104614504D01*
X88923195Y-104614504D02*
X88913066Y-104672880D01*
X88913066Y-104672880D02*
X88905813Y-104731682D01*
X88905813Y-104731682D02*
X88901455Y-104790770D01*
X88901455Y-104790770D02*
X88900000Y-104850000D01*
X88900000Y-104850000D02*
X88900000Y-105862500D01*
X84300000Y-110300000D02*
X83100000Y-110300000D01*
D24*
X92308947Y-102246446D02*
X91762500Y-101700000D01*
X92308947Y-102246446D02*
X92351858Y-102287299D01*
X92351858Y-102287299D02*
X92396721Y-102325998D01*
X92396721Y-102325998D02*
X92443428Y-102362449D01*
X92443428Y-102362449D02*
X92491868Y-102396565D01*
X92491868Y-102396565D02*
X92541924Y-102428262D01*
X92541924Y-102428262D02*
X92593475Y-102457465D01*
X92593475Y-102457465D02*
X92646396Y-102484104D01*
X92646396Y-102484104D02*
X92700561Y-102508113D01*
X92700561Y-102508113D02*
X92755839Y-102529436D01*
X92755839Y-102529436D02*
X92812096Y-102548021D01*
X92812096Y-102548021D02*
X92869198Y-102563824D01*
X92869198Y-102563824D02*
X92927006Y-102576805D01*
X92927006Y-102576805D02*
X92985381Y-102586934D01*
X92985381Y-102586934D02*
X93044183Y-102594186D01*
X93044183Y-102594186D02*
X93103271Y-102598545D01*
X93103271Y-102598545D02*
X93162500Y-102600000D01*
X93162500Y-102600000D02*
X95680000Y-102600000D01*
X105973553Y-106426446D02*
X108900000Y-103500000D01*
X105973553Y-106426446D02*
X105930642Y-106467299D01*
X105930642Y-106467299D02*
X105885779Y-106505998D01*
X105885779Y-106505998D02*
X105839072Y-106542449D01*
X105839072Y-106542449D02*
X105790632Y-106576565D01*
X105790632Y-106576565D02*
X105740576Y-106608262D01*
X105740576Y-106608262D02*
X105689025Y-106637465D01*
X105689025Y-106637465D02*
X105636104Y-106664104D01*
X105636104Y-106664104D02*
X105581939Y-106688113D01*
X105581939Y-106688113D02*
X105526661Y-106709436D01*
X105526661Y-106709436D02*
X105470404Y-106728021D01*
X105470404Y-106728021D02*
X105413302Y-106743824D01*
X105413302Y-106743824D02*
X105355494Y-106756805D01*
X105355494Y-106756805D02*
X105297119Y-106766934D01*
X105297119Y-106766934D02*
X105238317Y-106774186D01*
X105238317Y-106774186D02*
X105179229Y-106778545D01*
X105179229Y-106778545D02*
X105120000Y-106780000D01*
X105120000Y-106780000D02*
X104320000Y-106780000D01*
D23*
X91421737Y-102091922D02*
X91392534Y-102143473D01*
X91250000Y-102712500D02*
X91250000Y-103900000D01*
X91341886Y-102250559D02*
X91320563Y-102305837D01*
X91603554Y-101858946D02*
X91762500Y-101700000D01*
X91286176Y-102419196D02*
X91273195Y-102477004D01*
X91365896Y-102196394D02*
X91341886Y-102250559D01*
X91603554Y-101858946D02*
X91562700Y-101901855D01*
X91263066Y-102535380D02*
X91255813Y-102594182D01*
X91487550Y-101993426D02*
X91453435Y-102041866D01*
X91453435Y-102041866D02*
X91421737Y-102091922D01*
X91562700Y-101901855D02*
X91524001Y-101946718D01*
X91524001Y-101946718D02*
X91487550Y-101993426D01*
X91320563Y-102305837D02*
X91301978Y-102362094D01*
X91273195Y-102477004D02*
X91263066Y-102535380D01*
X91392534Y-102143473D02*
X91365896Y-102196394D01*
X91301978Y-102362094D02*
X91286176Y-102419196D01*
X91255813Y-102594182D02*
X91251455Y-102653270D01*
X91251455Y-102653270D02*
X91250000Y-102712500D01*
X97550000Y-107695000D02*
X97550000Y-108550000D01*
X97550000Y-108550000D02*
X97000000Y-109100000D01*
X102450000Y-107695000D02*
X102450000Y-108550000D01*
X102450000Y-108550000D02*
X103000000Y-109100000D01*
X91700000Y-110300000D02*
X91700000Y-110000000D01*
X91700000Y-110000000D02*
X92700000Y-109000000D01*
X88900000Y-108137500D02*
X88900000Y-110300000D01*
X77900000Y-105750000D02*
X77900000Y-101275000D01*
X80380453Y-108486757D02*
X80650000Y-108500000D01*
X85847683Y-109093873D02*
X85726582Y-109008584D01*
X79353659Y-108175283D02*
X79597621Y-108290668D01*
X84050000Y-108500000D02*
X80650000Y-108500000D01*
X84198075Y-108503634D02*
X84050000Y-108500000D01*
X86183884Y-109383883D02*
X87100000Y-110300000D01*
X84783258Y-108590438D02*
X84638738Y-108557985D01*
X84926012Y-108629943D02*
X84783258Y-108590438D01*
X85204850Y-108729713D02*
X85066656Y-108676405D01*
X85340262Y-108789737D02*
X85204850Y-108729713D01*
X85472566Y-108856333D02*
X85340262Y-108789737D01*
X78705457Y-107694543D02*
X78905419Y-107875778D01*
X87100000Y-110300000D02*
X88900000Y-110300000D01*
X85964452Y-109185000D02*
X85847683Y-109093873D01*
X79851718Y-108381585D02*
X80113502Y-108447159D01*
X78905419Y-107875778D02*
X79122182Y-108036541D01*
X78524222Y-107494581D02*
X78705457Y-107694543D01*
X85601443Y-108929341D02*
X85472566Y-108856333D01*
X86183884Y-109383883D02*
X86076610Y-109281748D01*
X85726582Y-109008584D02*
X85601443Y-108929341D01*
X84345793Y-108514530D02*
X84198075Y-108503634D01*
X84492799Y-108532662D02*
X84345793Y-108514530D01*
X84638738Y-108557985D02*
X84492799Y-108532662D01*
X80113502Y-108447159D02*
X80380453Y-108486757D01*
X79597621Y-108290668D02*
X79851718Y-108381585D01*
X85066656Y-108676405D02*
X84926012Y-108629943D01*
X86076610Y-109281748D02*
X85964452Y-109185000D01*
X79122182Y-108036541D02*
X79353659Y-108175283D01*
X78224717Y-107046341D02*
X78363459Y-107277818D01*
X78109332Y-106802379D02*
X78224717Y-107046341D01*
X77952841Y-106286498D02*
X78018415Y-106548282D01*
X77913243Y-106019547D02*
X77952841Y-106286498D01*
X78363459Y-107277818D02*
X78524222Y-107494581D01*
X78018415Y-106548282D02*
X78109332Y-106802379D01*
X77900000Y-105750000D02*
X77913243Y-106019547D01*
D25*
X84300000Y-102925000D02*
X84300000Y-104000000D01*
X101250000Y-109450000D02*
X101250000Y-107695000D01*
X85800000Y-102925000D02*
X85800000Y-104000000D01*
X98250000Y-109450000D02*
X98250000Y-107695000D01*
X79900000Y-101575000D02*
X79600000Y-101875000D01*
X100200000Y-106975000D02*
X100200000Y-107695000D01*
X100198555Y-106945594D02*
X100200000Y-106975000D01*
X100194235Y-106916472D02*
X100198555Y-106945594D01*
X100187082Y-106887914D02*
X100194235Y-106916472D01*
X99368097Y-106784682D02*
X99387868Y-106762867D01*
X99350560Y-106808328D02*
X99368097Y-106784682D01*
X99335424Y-106833580D02*
X99350560Y-106808328D01*
X99541473Y-106680764D02*
X99570595Y-106676444D01*
X99312918Y-106887914D02*
X99322837Y-106860194D01*
X99301445Y-106945594D02*
X99305765Y-106916472D01*
X99305765Y-106916472D02*
X99312918Y-106887914D01*
X99322837Y-106860194D02*
X99335424Y-106833580D01*
X99409683Y-106743096D02*
X99433329Y-106725559D01*
X99300000Y-106975000D02*
X99301445Y-106945594D01*
X99387868Y-106762867D02*
X99409683Y-106743096D01*
X99900000Y-106675000D02*
X99929406Y-106676444D01*
X99958528Y-106680764D02*
X99987086Y-106687917D01*
X99433329Y-106725559D02*
X99458581Y-106710423D01*
X100164576Y-106833580D02*
X100177163Y-106860194D01*
X99458581Y-106710423D02*
X99485195Y-106697836D01*
X100177163Y-106860194D02*
X100187082Y-106887914D01*
X99485195Y-106697836D02*
X99512915Y-106687917D01*
X99512915Y-106687917D02*
X99541473Y-106680764D01*
X99600000Y-106675000D02*
X99900000Y-106675000D01*
X99570595Y-106676444D02*
X99600000Y-106675000D01*
X100041419Y-106710423D02*
X100066671Y-106725559D01*
X99929406Y-106676444D02*
X99958528Y-106680764D01*
X99987086Y-106687917D02*
X100014805Y-106697836D01*
X100014805Y-106697836D02*
X100041419Y-106710423D01*
X100066671Y-106725559D02*
X100090317Y-106743096D01*
X100090317Y-106743096D02*
X100112132Y-106762867D01*
X100112132Y-106762867D02*
X100131903Y-106784682D01*
X100131903Y-106784682D02*
X100149440Y-106808328D01*
X100149440Y-106808328D02*
X100164576Y-106833580D01*
X87950000Y-105862500D02*
X87950000Y-106250000D01*
X99300001Y-109450000D02*
X99300000Y-106975000D01*
X99300001Y-109450000D02*
X99294945Y-109552917D01*
X99294945Y-109552917D02*
X99279826Y-109654844D01*
X99279826Y-109654844D02*
X99254788Y-109754798D01*
X99254788Y-109754798D02*
X99220074Y-109851817D01*
X99220074Y-109851817D02*
X99176018Y-109944966D01*
X99176018Y-109944966D02*
X99123044Y-110033348D01*
X99123044Y-110033348D02*
X99061662Y-110116112D01*
X99061662Y-110116112D02*
X98992463Y-110192461D01*
X98992463Y-110192461D02*
X98916113Y-110261660D01*
X98916113Y-110261660D02*
X98833349Y-110323042D01*
X98833349Y-110323042D02*
X98744967Y-110376016D01*
X98744967Y-110376016D02*
X98651818Y-110420072D01*
X98651818Y-110420072D02*
X98554799Y-110454786D01*
X98554799Y-110454786D02*
X98454845Y-110479823D01*
X98454845Y-110479823D02*
X98352918Y-110494942D01*
X98352918Y-110494942D02*
X98250000Y-110500000D01*
X79600000Y-105750000D02*
X79600000Y-101875000D01*
X79600000Y-105750000D02*
X79605057Y-105852917D01*
X79605057Y-105852917D02*
X79620176Y-105954844D01*
X79620176Y-105954844D02*
X79645213Y-106054798D01*
X79645213Y-106054798D02*
X79679927Y-106151817D01*
X79679927Y-106151817D02*
X79723983Y-106244966D01*
X79723983Y-106244966D02*
X79776957Y-106333348D01*
X79776957Y-106333348D02*
X79838340Y-106416112D01*
X79838340Y-106416112D02*
X79907538Y-106492462D01*
X79907538Y-106492462D02*
X79983888Y-106561660D01*
X79983888Y-106561660D02*
X80066652Y-106623043D01*
X80066652Y-106623043D02*
X80155034Y-106676017D01*
X80155034Y-106676017D02*
X80248183Y-106720073D01*
X80248183Y-106720073D02*
X80345202Y-106754787D01*
X80345202Y-106754787D02*
X80445156Y-106779824D01*
X80445156Y-106779824D02*
X80547083Y-106794943D01*
X80547083Y-106794943D02*
X80650000Y-106800000D01*
X97382844Y-110500000D02*
X98250000Y-110500000D01*
X97382844Y-110500000D02*
X97264385Y-110497091D01*
X97264385Y-110497091D02*
X97146210Y-110488374D01*
X97146210Y-110488374D02*
X97028606Y-110473869D01*
X97028606Y-110473869D02*
X96911855Y-110453611D01*
X96911855Y-110453611D02*
X96796239Y-110427648D01*
X96796239Y-110427648D02*
X96682036Y-110396044D01*
X96682036Y-110396044D02*
X96569521Y-110358874D01*
X96569521Y-110358874D02*
X96458965Y-110316228D01*
X96458965Y-110316228D02*
X96350636Y-110268209D01*
X96350636Y-110268209D02*
X96244793Y-110214932D01*
X96244793Y-110214932D02*
X96141691Y-110156525D01*
X96141691Y-110156525D02*
X96041580Y-110093131D01*
X96041580Y-110093131D02*
X95944700Y-110024900D01*
X95944700Y-110024900D02*
X95851285Y-109951998D01*
X95851285Y-109951998D02*
X95761559Y-109874600D01*
X95761559Y-109874600D02*
X95675738Y-109792893D01*
X91482844Y-106800000D02*
X91624996Y-106803488D01*
X91624996Y-106803488D02*
X91766806Y-106813949D01*
X91766806Y-106813949D02*
X91907931Y-106831355D01*
X91907931Y-106831355D02*
X92048032Y-106855665D01*
X92048032Y-106855665D02*
X92186772Y-106886820D01*
X92186772Y-106886820D02*
X92323816Y-106924745D01*
X92323816Y-106924745D02*
X92458834Y-106969349D01*
X92458834Y-106969349D02*
X92591500Y-107020524D01*
X92591500Y-107020524D02*
X92721496Y-107078147D01*
X92721496Y-107078147D02*
X92848508Y-107142079D01*
X92848508Y-107142079D02*
X92972230Y-107212167D01*
X92972230Y-107212167D02*
X93092363Y-107288240D01*
X93092363Y-107288240D02*
X93208620Y-107370117D01*
X93208620Y-107370117D02*
X93320719Y-107457600D01*
X93320719Y-107457600D02*
X93428390Y-107550477D01*
X93428390Y-107550477D02*
X93531373Y-107648527D01*
X93531373Y-107648527D02*
X95675738Y-109792893D01*
X88323224Y-106623223D02*
X87950000Y-106250000D01*
X88323224Y-106623223D02*
X88344680Y-106643649D01*
X88344680Y-106643649D02*
X88367111Y-106662999D01*
X88367111Y-106662999D02*
X88390465Y-106681224D01*
X88390465Y-106681224D02*
X88414685Y-106698282D01*
X88414685Y-106698282D02*
X88439713Y-106714131D01*
X88439713Y-106714131D02*
X88465488Y-106728732D01*
X88465488Y-106728732D02*
X88491949Y-106742052D01*
X88491949Y-106742052D02*
X88519031Y-106754056D01*
X88519031Y-106754056D02*
X88546670Y-106764718D01*
X88546670Y-106764718D02*
X88574798Y-106774010D01*
X88574798Y-106774010D02*
X88603349Y-106781911D01*
X88603349Y-106781911D02*
X88632253Y-106788402D01*
X88632253Y-106788402D02*
X88661441Y-106793467D01*
X88661441Y-106793467D02*
X88690842Y-106797093D01*
X88690842Y-106797093D02*
X88720386Y-106799272D01*
X88720386Y-106799272D02*
X88750000Y-106800000D01*
X88750000Y-106800000D02*
X91482844Y-106800000D01*
X87576777Y-106623223D02*
X87950000Y-106250000D01*
X87576777Y-106623223D02*
X87555322Y-106643649D01*
X87555322Y-106643649D02*
X87532891Y-106662999D01*
X87532891Y-106662999D02*
X87509537Y-106681224D01*
X87509537Y-106681224D02*
X87485317Y-106698282D01*
X87485317Y-106698282D02*
X87460289Y-106714131D01*
X87460289Y-106714131D02*
X87434514Y-106728732D01*
X87434514Y-106728732D02*
X87408053Y-106742052D01*
X87408053Y-106742052D02*
X87380971Y-106754057D01*
X87380971Y-106754057D02*
X87353332Y-106764718D01*
X87353332Y-106764718D02*
X87325203Y-106774010D01*
X87325203Y-106774010D02*
X87296652Y-106781912D01*
X87296652Y-106781912D02*
X87267748Y-106788402D01*
X87267748Y-106788402D02*
X87238560Y-106793467D01*
X87238560Y-106793467D02*
X87209159Y-106797093D01*
X87209159Y-106797093D02*
X87179615Y-106799272D01*
X87179615Y-106799272D02*
X87150000Y-106800000D01*
X87150000Y-106800000D02*
X80650000Y-106800000D01*
X78900000Y-101575000D02*
X79200000Y-101875000D01*
X99700000Y-108715000D02*
X99700000Y-107695000D01*
X100400000Y-108715000D02*
X99700000Y-108715000D01*
X100400000Y-108715000D02*
X100429405Y-108713555D01*
X100429405Y-108713555D02*
X100458527Y-108709235D01*
X100458527Y-108709235D02*
X100487085Y-108702082D01*
X100487085Y-108702082D02*
X100514805Y-108692163D01*
X100514805Y-108692163D02*
X100541419Y-108679576D01*
X100541419Y-108679576D02*
X100566671Y-108664440D01*
X100566671Y-108664440D02*
X100590317Y-108646903D01*
X100590317Y-108646903D02*
X100612132Y-108627132D01*
X100612132Y-108627132D02*
X100631903Y-108605317D01*
X100631903Y-108605317D02*
X100649440Y-108581671D01*
X100649440Y-108581671D02*
X100664576Y-108556419D01*
X100664576Y-108556419D02*
X100677163Y-108529805D01*
X100677163Y-108529805D02*
X100687082Y-108502085D01*
X100687082Y-108502085D02*
X100694235Y-108473527D01*
X100694235Y-108473527D02*
X100698555Y-108444405D01*
X100698555Y-108444405D02*
X100700000Y-108415000D01*
X100700000Y-108415000D02*
X100700000Y-107695000D01*
X87950000Y-108137500D02*
X87950000Y-107750000D01*
X98250000Y-110900000D02*
X98392125Y-110893016D01*
X98392125Y-110893016D02*
X98532881Y-110872137D01*
X98532881Y-110872137D02*
X98670913Y-110837562D01*
X98670913Y-110837562D02*
X98804891Y-110789624D01*
X98804891Y-110789624D02*
X98933526Y-110728785D01*
X98933526Y-110728785D02*
X99055577Y-110655630D01*
X99055577Y-110655630D02*
X99169871Y-110570864D01*
X99169871Y-110570864D02*
X99275305Y-110475304D01*
X99275305Y-110475304D02*
X99370866Y-110369869D01*
X99370866Y-110369869D02*
X99455632Y-110255576D01*
X99455632Y-110255576D02*
X99528787Y-110133524D01*
X99528787Y-110133524D02*
X99589626Y-110004890D01*
X99589626Y-110004890D02*
X99637564Y-109870912D01*
X99637564Y-109870912D02*
X99672140Y-109732880D01*
X99672140Y-109732880D02*
X99693019Y-109592124D01*
X99693019Y-109592124D02*
X99700001Y-109450000D01*
X99700001Y-109450000D02*
X99700000Y-108715000D01*
X80650000Y-107200000D02*
X80507876Y-107193017D01*
X80507876Y-107193017D02*
X80367120Y-107172138D01*
X80367120Y-107172138D02*
X80229088Y-107137563D01*
X80229088Y-107137563D02*
X80095110Y-107089625D01*
X80095110Y-107089625D02*
X79966475Y-107028785D01*
X79966475Y-107028785D02*
X79844424Y-106955630D01*
X79844424Y-106955630D02*
X79730130Y-106870865D01*
X79730130Y-106870865D02*
X79624696Y-106775304D01*
X79624696Y-106775304D02*
X79529135Y-106669870D01*
X79529135Y-106669870D02*
X79444370Y-106555576D01*
X79444370Y-106555576D02*
X79371215Y-106433525D01*
X79371215Y-106433525D02*
X79310375Y-106304890D01*
X79310375Y-106304890D02*
X79262437Y-106170912D01*
X79262437Y-106170912D02*
X79227862Y-106032880D01*
X79227862Y-106032880D02*
X79206983Y-105892124D01*
X79206983Y-105892124D02*
X79200000Y-105750000D01*
X79200000Y-105750000D02*
X79200000Y-101875000D01*
X95368628Y-110051471D02*
X95471613Y-110149519D01*
X95471613Y-110149519D02*
X95579284Y-110242397D01*
X95579284Y-110242397D02*
X95691383Y-110329879D01*
X95691383Y-110329879D02*
X95807639Y-110411756D01*
X95807639Y-110411756D02*
X95927772Y-110487830D01*
X95927772Y-110487830D02*
X96051494Y-110557918D01*
X96051494Y-110557918D02*
X96178506Y-110621850D01*
X96178506Y-110621850D02*
X96308501Y-110679473D01*
X96308501Y-110679473D02*
X96441168Y-110730648D01*
X96441168Y-110730648D02*
X96576186Y-110775252D01*
X96576186Y-110775252D02*
X96713229Y-110813177D01*
X96713229Y-110813177D02*
X96851969Y-110844333D01*
X96851969Y-110844333D02*
X96992070Y-110868642D01*
X96992070Y-110868642D02*
X97133195Y-110886049D01*
X97133195Y-110886049D02*
X97275005Y-110896509D01*
X97275005Y-110896509D02*
X97417156Y-110900000D01*
X97417156Y-110900000D02*
X98250000Y-110900000D01*
X91517156Y-107200000D02*
X91635616Y-107202907D01*
X91635616Y-107202907D02*
X91753791Y-107211624D01*
X91753791Y-107211624D02*
X91871395Y-107226129D01*
X91871395Y-107226129D02*
X91988146Y-107246387D01*
X91988146Y-107246387D02*
X92103763Y-107272350D01*
X92103763Y-107272350D02*
X92217966Y-107303954D01*
X92217966Y-107303954D02*
X92330481Y-107341124D01*
X92330481Y-107341124D02*
X92441036Y-107383770D01*
X92441036Y-107383770D02*
X92549366Y-107431789D01*
X92549366Y-107431789D02*
X92655209Y-107485066D01*
X92655209Y-107485066D02*
X92758310Y-107543472D01*
X92758310Y-107543472D02*
X92858422Y-107606867D01*
X92858422Y-107606867D02*
X92955302Y-107675098D01*
X92955302Y-107675098D02*
X93048718Y-107748000D01*
X93048718Y-107748000D02*
X93138443Y-107825398D01*
X93138443Y-107825398D02*
X93224263Y-107907106D01*
X93224263Y-107907106D02*
X95368628Y-110051471D01*
X88323224Y-107376776D02*
X87950000Y-107750000D01*
X88323224Y-107376776D02*
X88344679Y-107356349D01*
X88344679Y-107356349D02*
X88367111Y-107336999D01*
X88367111Y-107336999D02*
X88390465Y-107318774D01*
X88390465Y-107318774D02*
X88414685Y-107301716D01*
X88414685Y-107301716D02*
X88439713Y-107285867D01*
X88439713Y-107285867D02*
X88465488Y-107271266D01*
X88465488Y-107271266D02*
X88491949Y-107257947D01*
X88491949Y-107257947D02*
X88519031Y-107245942D01*
X88519031Y-107245942D02*
X88546670Y-107235280D01*
X88546670Y-107235280D02*
X88574798Y-107225988D01*
X88574798Y-107225988D02*
X88603349Y-107218087D01*
X88603349Y-107218087D02*
X88632253Y-107211596D01*
X88632253Y-107211596D02*
X88661441Y-107206532D01*
X88661441Y-107206532D02*
X88690842Y-107202905D01*
X88690842Y-107202905D02*
X88720386Y-107200726D01*
X88720386Y-107200726D02*
X88750000Y-107200000D01*
X88750000Y-107200000D02*
X91517156Y-107200000D01*
X87576777Y-107376776D02*
X87950000Y-107750000D01*
X87576777Y-107376776D02*
X87555323Y-107356348D01*
X87555323Y-107356348D02*
X87532891Y-107336999D01*
X87532891Y-107336999D02*
X87509537Y-107318773D01*
X87509537Y-107318773D02*
X87485317Y-107301716D01*
X87485317Y-107301716D02*
X87460289Y-107285867D01*
X87460289Y-107285867D02*
X87434514Y-107271266D01*
X87434514Y-107271266D02*
X87408053Y-107257946D01*
X87408053Y-107257946D02*
X87380971Y-107245942D01*
X87380971Y-107245942D02*
X87353332Y-107235280D01*
X87353332Y-107235280D02*
X87325203Y-107225988D01*
X87325203Y-107225988D02*
X87296652Y-107218087D01*
X87296652Y-107218087D02*
X87267748Y-107211596D01*
X87267748Y-107211596D02*
X87238560Y-107206532D01*
X87238560Y-107206532D02*
X87209159Y-107202905D01*
X87209159Y-107202905D02*
X87179615Y-107200726D01*
X87179615Y-107200726D02*
X87150000Y-107200000D01*
X87150000Y-107200000D02*
X80650000Y-107200000D01*
D26*
G36*
X103745189Y-100394376D02*
G01*
X103908850Y-100444022D01*
X104059672Y-100524638D01*
X104191870Y-100633130D01*
X104300362Y-100765328D01*
X104380978Y-100916150D01*
X104430624Y-101079811D01*
X104448000Y-101256234D01*
X104448000Y-101331325D01*
X104447000Y-101332046D01*
X104447000Y-102473000D01*
X104448000Y-102473000D01*
X104448000Y-102727000D01*
X104447000Y-102727000D01*
X104447000Y-103867954D01*
X104448000Y-103868675D01*
X104448000Y-105261325D01*
X104447000Y-105262046D01*
X104447000Y-106653000D01*
X104448000Y-106653000D01*
X104448000Y-106907000D01*
X104447000Y-106907000D01*
X104447000Y-106927000D01*
X104193000Y-106927000D01*
X104193000Y-106907000D01*
X104173000Y-106907000D01*
X104173000Y-106653000D01*
X104193000Y-106653000D01*
X104193000Y-105262046D01*
X104018126Y-105135881D01*
X103795024Y-105215724D01*
X103607236Y-105337631D01*
X103446839Y-105493831D01*
X103319997Y-105678322D01*
X103295007Y-105736462D01*
X103198838Y-105672205D01*
X103080181Y-105623056D01*
X102954216Y-105598000D01*
X102825784Y-105598000D01*
X102699819Y-105623056D01*
X102581162Y-105672205D01*
X102474374Y-105743558D01*
X102383558Y-105834374D01*
X102312205Y-105941162D01*
X102263056Y-106059819D01*
X102238000Y-106185784D01*
X102238000Y-106314216D01*
X102263056Y-106440181D01*
X102312205Y-106558838D01*
X102367383Y-106641418D01*
X102150000Y-106641418D01*
X102085897Y-106647732D01*
X102025000Y-106666205D01*
X101964103Y-106647732D01*
X101900000Y-106641418D01*
X101600000Y-106641418D01*
X101535897Y-106647732D01*
X101500000Y-106658621D01*
X101464103Y-106647732D01*
X101400000Y-106641418D01*
X101100000Y-106641418D01*
X101035897Y-106647732D01*
X101000000Y-106658621D01*
X100964103Y-106647732D01*
X100900000Y-106641418D01*
X100600000Y-106641418D01*
X100548442Y-106646496D01*
X100541613Y-106632056D01*
X100509209Y-106577991D01*
X100509203Y-106577985D01*
X100504906Y-106570815D01*
X100476040Y-106531894D01*
X100462383Y-106513478D01*
X100456761Y-106507274D01*
X100456755Y-106507265D01*
X100432975Y-106481029D01*
X100414437Y-106460575D01*
X100367734Y-106418244D01*
X100367725Y-106418239D01*
X100361529Y-106412623D01*
X100354815Y-106407643D01*
X100310892Y-106375068D01*
X100304184Y-106370093D01*
X100297014Y-106365796D01*
X100297008Y-106365790D01*
X100250120Y-106337688D01*
X100242953Y-106333392D01*
X100242948Y-106333390D01*
X100242942Y-106333386D01*
X100220031Y-106322550D01*
X100185973Y-106306441D01*
X100185968Y-106306440D01*
X100178401Y-106302861D01*
X100170534Y-106300046D01*
X100170530Y-106300044D01*
X100128793Y-106285111D01*
X100111199Y-106278815D01*
X100111189Y-106278812D01*
X100111182Y-106278810D01*
X100103079Y-106276780D01*
X100103078Y-106276780D01*
X100089648Y-106273416D01*
X100050056Y-106263497D01*
X100050045Y-106263496D01*
X100041935Y-106261465D01*
X100041925Y-106261463D01*
X100033659Y-106260237D01*
X100033651Y-106260234D01*
X99983075Y-106252733D01*
X99971311Y-106250988D01*
X99971306Y-106250988D01*
X99971301Y-106250987D01*
X99945903Y-106249740D01*
X99931415Y-106249028D01*
X99920978Y-106248000D01*
X99910492Y-106248000D01*
X99908355Y-106247895D01*
X99908351Y-106247896D01*
X99899991Y-106247485D01*
X99889512Y-106248000D01*
X99610470Y-106248000D01*
X99600008Y-106247486D01*
X99591654Y-106247896D01*
X99591646Y-106247895D01*
X99589509Y-106248000D01*
X99579022Y-106248000D01*
X99568583Y-106249028D01*
X99546475Y-106250114D01*
X99528699Y-106250987D01*
X99528693Y-106250988D01*
X99528691Y-106250988D01*
X99520552Y-106252195D01*
X99466349Y-106260235D01*
X99466345Y-106260237D01*
X99458076Y-106261463D01*
X99458066Y-106261465D01*
X99449959Y-106263496D01*
X99449950Y-106263496D01*
X99388807Y-106278813D01*
X99363382Y-106287911D01*
X99329471Y-106300044D01*
X99329465Y-106300047D01*
X99321599Y-106302862D01*
X99321594Y-106302865D01*
X99321584Y-106302868D01*
X99314032Y-106306440D01*
X99314028Y-106306441D01*
X99282528Y-106321340D01*
X99257057Y-106333386D01*
X99202992Y-106365790D01*
X99202986Y-106365796D01*
X99195816Y-106370093D01*
X99171272Y-106388296D01*
X99138479Y-106412616D01*
X99132275Y-106418238D01*
X99132266Y-106418244D01*
X99108205Y-106440053D01*
X99085576Y-106460562D01*
X99043245Y-106507265D01*
X99043240Y-106507274D01*
X99037624Y-106513470D01*
X99037619Y-106513477D01*
X99037617Y-106513479D01*
X99008500Y-106552739D01*
X98995094Y-106570815D01*
X98990797Y-106577985D01*
X98990791Y-106577991D01*
X98969522Y-106613479D01*
X98958393Y-106632046D01*
X98958391Y-106632051D01*
X98958387Y-106632057D01*
X98951558Y-106646496D01*
X98900000Y-106641418D01*
X98600000Y-106641418D01*
X98535897Y-106647732D01*
X98500000Y-106658621D01*
X98464103Y-106647732D01*
X98400000Y-106641418D01*
X98100000Y-106641418D01*
X98035897Y-106647732D01*
X97975000Y-106666205D01*
X97914103Y-106647732D01*
X97850000Y-106641418D01*
X97632617Y-106641418D01*
X97687795Y-106558838D01*
X97736944Y-106440181D01*
X97762000Y-106314216D01*
X97762000Y-106185784D01*
X97736944Y-106059819D01*
X97687795Y-105941162D01*
X97616442Y-105834374D01*
X97525626Y-105743558D01*
X97418838Y-105672205D01*
X97300181Y-105623056D01*
X97174216Y-105598000D01*
X97045784Y-105598000D01*
X96919819Y-105623056D01*
X96801162Y-105672205D01*
X96704993Y-105736462D01*
X96680003Y-105678322D01*
X96553161Y-105493831D01*
X96392764Y-105337631D01*
X96204976Y-105215724D01*
X95981874Y-105135881D01*
X95807000Y-105262046D01*
X95807000Y-106653000D01*
X95827000Y-106653000D01*
X95827000Y-106907000D01*
X95807000Y-106907000D01*
X95807000Y-106927000D01*
X95553000Y-106927000D01*
X95553000Y-106907000D01*
X95552000Y-106907000D01*
X95552000Y-106653000D01*
X95553000Y-106653000D01*
X95553000Y-105262046D01*
X95552000Y-105261325D01*
X95552000Y-103868675D01*
X95553000Y-103867954D01*
X95553000Y-102727000D01*
X95807000Y-102727000D01*
X95807000Y-103867954D01*
X95981874Y-103994119D01*
X96204976Y-103914276D01*
X96392764Y-103792369D01*
X96553161Y-103636169D01*
X96680003Y-103451678D01*
X96768415Y-103245987D01*
X96815000Y-103027000D01*
X96815000Y-102727000D01*
X103185000Y-102727000D01*
X103185000Y-103027000D01*
X103231585Y-103245987D01*
X103319997Y-103451678D01*
X103446839Y-103636169D01*
X103607236Y-103792369D01*
X103795024Y-103914276D01*
X104018126Y-103994119D01*
X104193000Y-103867954D01*
X104193000Y-102727000D01*
X103185000Y-102727000D01*
X96815000Y-102727000D01*
X95807000Y-102727000D01*
X95553000Y-102727000D01*
X95552000Y-102727000D01*
X95552000Y-102473000D01*
X95553000Y-102473000D01*
X95553000Y-101332046D01*
X95807000Y-101332046D01*
X95807000Y-102473000D01*
X96815000Y-102473000D01*
X96815000Y-102173000D01*
X103185000Y-102173000D01*
X103185000Y-102473000D01*
X104193000Y-102473000D01*
X104193000Y-101332046D01*
X104018126Y-101205881D01*
X103795024Y-101285724D01*
X103607236Y-101407631D01*
X103446839Y-101563831D01*
X103319997Y-101748322D01*
X103231585Y-101954013D01*
X103185000Y-102173000D01*
X96815000Y-102173000D01*
X96768415Y-101954013D01*
X96680003Y-101748322D01*
X96553161Y-101563831D01*
X96392764Y-101407631D01*
X96204976Y-101285724D01*
X95981874Y-101205881D01*
X95807000Y-101332046D01*
X95553000Y-101332046D01*
X95552000Y-101331325D01*
X95552000Y-101256234D01*
X95569376Y-101079811D01*
X95619022Y-100916150D01*
X95699638Y-100765328D01*
X95808130Y-100633130D01*
X95940328Y-100524638D01*
X96091150Y-100444022D01*
X96254811Y-100394376D01*
X96431234Y-100377000D01*
X103568766Y-100377000D01*
X103745189Y-100394376D01*
X103745189Y-100394376D01*
G37*
X103745189Y-100394376D02*
X103908850Y-100444022D01*
X104059672Y-100524638D01*
X104191870Y-100633130D01*
X104300362Y-100765328D01*
X104380978Y-100916150D01*
X104430624Y-101079811D01*
X104448000Y-101256234D01*
X104448000Y-101331325D01*
X104447000Y-101332046D01*
X104447000Y-102473000D01*
X104448000Y-102473000D01*
X104448000Y-102727000D01*
X104447000Y-102727000D01*
X104447000Y-103867954D01*
X104448000Y-103868675D01*
X104448000Y-105261325D01*
X104447000Y-105262046D01*
X104447000Y-106653000D01*
X104448000Y-106653000D01*
X104448000Y-106907000D01*
X104447000Y-106907000D01*
X104447000Y-106927000D01*
X104193000Y-106927000D01*
X104193000Y-106907000D01*
X104173000Y-106907000D01*
X104173000Y-106653000D01*
X104193000Y-106653000D01*
X104193000Y-105262046D01*
X104018126Y-105135881D01*
X103795024Y-105215724D01*
X103607236Y-105337631D01*
X103446839Y-105493831D01*
X103319997Y-105678322D01*
X103295007Y-105736462D01*
X103198838Y-105672205D01*
X103080181Y-105623056D01*
X102954216Y-105598000D01*
X102825784Y-105598000D01*
X102699819Y-105623056D01*
X102581162Y-105672205D01*
X102474374Y-105743558D01*
X102383558Y-105834374D01*
X102312205Y-105941162D01*
X102263056Y-106059819D01*
X102238000Y-106185784D01*
X102238000Y-106314216D01*
X102263056Y-106440181D01*
X102312205Y-106558838D01*
X102367383Y-106641418D01*
X102150000Y-106641418D01*
X102085897Y-106647732D01*
X102025000Y-106666205D01*
X101964103Y-106647732D01*
X101900000Y-106641418D01*
X101600000Y-106641418D01*
X101535897Y-106647732D01*
X101500000Y-106658621D01*
X101464103Y-106647732D01*
X101400000Y-106641418D01*
X101100000Y-106641418D01*
X101035897Y-106647732D01*
X101000000Y-106658621D01*
X100964103Y-106647732D01*
X100900000Y-106641418D01*
X100600000Y-106641418D01*
X100548442Y-106646496D01*
X100541613Y-106632056D01*
X100509209Y-106577991D01*
X100509203Y-106577985D01*
X100504906Y-106570815D01*
X100476040Y-106531894D01*
X100462383Y-106513478D01*
X100456761Y-106507274D01*
X100456755Y-106507265D01*
X100432975Y-106481029D01*
X100414437Y-106460575D01*
X100367734Y-106418244D01*
X100367725Y-106418239D01*
X100361529Y-106412623D01*
X100354815Y-106407643D01*
X100310892Y-106375068D01*
X100304184Y-106370093D01*
X100297014Y-106365796D01*
X100297008Y-106365790D01*
X100250120Y-106337688D01*
X100242953Y-106333392D01*
X100242948Y-106333390D01*
X100242942Y-106333386D01*
X100220031Y-106322550D01*
X100185973Y-106306441D01*
X100185968Y-106306440D01*
X100178401Y-106302861D01*
X100170534Y-106300046D01*
X100170530Y-106300044D01*
X100128793Y-106285111D01*
X100111199Y-106278815D01*
X100111189Y-106278812D01*
X100111182Y-106278810D01*
X100103079Y-106276780D01*
X100103078Y-106276780D01*
X100089648Y-106273416D01*
X100050056Y-106263497D01*
X100050045Y-106263496D01*
X100041935Y-106261465D01*
X100041925Y-106261463D01*
X100033659Y-106260237D01*
X100033651Y-106260234D01*
X99983075Y-106252733D01*
X99971311Y-106250988D01*
X99971306Y-106250988D01*
X99971301Y-106250987D01*
X99945903Y-106249740D01*
X99931415Y-106249028D01*
X99920978Y-106248000D01*
X99910492Y-106248000D01*
X99908355Y-106247895D01*
X99908351Y-106247896D01*
X99899991Y-106247485D01*
X99889512Y-106248000D01*
X99610470Y-106248000D01*
X99600008Y-106247486D01*
X99591654Y-106247896D01*
X99591646Y-106247895D01*
X99589509Y-106248000D01*
X99579022Y-106248000D01*
X99568583Y-106249028D01*
X99546475Y-106250114D01*
X99528699Y-106250987D01*
X99528693Y-106250988D01*
X99528691Y-106250988D01*
X99520552Y-106252195D01*
X99466349Y-106260235D01*
X99466345Y-106260237D01*
X99458076Y-106261463D01*
X99458066Y-106261465D01*
X99449959Y-106263496D01*
X99449950Y-106263496D01*
X99388807Y-106278813D01*
X99363382Y-106287911D01*
X99329471Y-106300044D01*
X99329465Y-106300047D01*
X99321599Y-106302862D01*
X99321594Y-106302865D01*
X99321584Y-106302868D01*
X99314032Y-106306440D01*
X99314028Y-106306441D01*
X99282528Y-106321340D01*
X99257057Y-106333386D01*
X99202992Y-106365790D01*
X99202986Y-106365796D01*
X99195816Y-106370093D01*
X99171272Y-106388296D01*
X99138479Y-106412616D01*
X99132275Y-106418238D01*
X99132266Y-106418244D01*
X99108205Y-106440053D01*
X99085576Y-106460562D01*
X99043245Y-106507265D01*
X99043240Y-106507274D01*
X99037624Y-106513470D01*
X99037619Y-106513477D01*
X99037617Y-106513479D01*
X99008500Y-106552739D01*
X98995094Y-106570815D01*
X98990797Y-106577985D01*
X98990791Y-106577991D01*
X98969522Y-106613479D01*
X98958393Y-106632046D01*
X98958391Y-106632051D01*
X98958387Y-106632057D01*
X98951558Y-106646496D01*
X98900000Y-106641418D01*
X98600000Y-106641418D01*
X98535897Y-106647732D01*
X98500000Y-106658621D01*
X98464103Y-106647732D01*
X98400000Y-106641418D01*
X98100000Y-106641418D01*
X98035897Y-106647732D01*
X97975000Y-106666205D01*
X97914103Y-106647732D01*
X97850000Y-106641418D01*
X97632617Y-106641418D01*
X97687795Y-106558838D01*
X97736944Y-106440181D01*
X97762000Y-106314216D01*
X97762000Y-106185784D01*
X97736944Y-106059819D01*
X97687795Y-105941162D01*
X97616442Y-105834374D01*
X97525626Y-105743558D01*
X97418838Y-105672205D01*
X97300181Y-105623056D01*
X97174216Y-105598000D01*
X97045784Y-105598000D01*
X96919819Y-105623056D01*
X96801162Y-105672205D01*
X96704993Y-105736462D01*
X96680003Y-105678322D01*
X96553161Y-105493831D01*
X96392764Y-105337631D01*
X96204976Y-105215724D01*
X95981874Y-105135881D01*
X95807000Y-105262046D01*
X95807000Y-106653000D01*
X95827000Y-106653000D01*
X95827000Y-106907000D01*
X95807000Y-106907000D01*
X95807000Y-106927000D01*
X95553000Y-106927000D01*
X95553000Y-106907000D01*
X95552000Y-106907000D01*
X95552000Y-106653000D01*
X95553000Y-106653000D01*
X95553000Y-105262046D01*
X95552000Y-105261325D01*
X95552000Y-103868675D01*
X95553000Y-103867954D01*
X95553000Y-102727000D01*
X95807000Y-102727000D01*
X95807000Y-103867954D01*
X95981874Y-103994119D01*
X96204976Y-103914276D01*
X96392764Y-103792369D01*
X96553161Y-103636169D01*
X96680003Y-103451678D01*
X96768415Y-103245987D01*
X96815000Y-103027000D01*
X96815000Y-102727000D01*
X103185000Y-102727000D01*
X103185000Y-103027000D01*
X103231585Y-103245987D01*
X103319997Y-103451678D01*
X103446839Y-103636169D01*
X103607236Y-103792369D01*
X103795024Y-103914276D01*
X104018126Y-103994119D01*
X104193000Y-103867954D01*
X104193000Y-102727000D01*
X103185000Y-102727000D01*
X96815000Y-102727000D01*
X95807000Y-102727000D01*
X95553000Y-102727000D01*
X95552000Y-102727000D01*
X95552000Y-102473000D01*
X95553000Y-102473000D01*
X95553000Y-101332046D01*
X95807000Y-101332046D01*
X95807000Y-102473000D01*
X96815000Y-102473000D01*
X96815000Y-102173000D01*
X103185000Y-102173000D01*
X103185000Y-102473000D01*
X104193000Y-102473000D01*
X104193000Y-101332046D01*
X104018126Y-101205881D01*
X103795024Y-101285724D01*
X103607236Y-101407631D01*
X103446839Y-101563831D01*
X103319997Y-101748322D01*
X103231585Y-101954013D01*
X103185000Y-102173000D01*
X96815000Y-102173000D01*
X96768415Y-101954013D01*
X96680003Y-101748322D01*
X96553161Y-101563831D01*
X96392764Y-101407631D01*
X96204976Y-101285724D01*
X95981874Y-101205881D01*
X95807000Y-101332046D01*
X95553000Y-101332046D01*
X95552000Y-101331325D01*
X95552000Y-101256234D01*
X95569376Y-101079811D01*
X95619022Y-100916150D01*
X95699638Y-100765328D01*
X95808130Y-100633130D01*
X95940328Y-100524638D01*
X96091150Y-100444022D01*
X96254811Y-100394376D01*
X96431234Y-100377000D01*
X103568766Y-100377000D01*
X103745189Y-100394376D01*
G36*
X77411591Y-100386591D02*
G01*
X77352074Y-100459114D01*
X77307848Y-100541855D01*
X77280614Y-100631633D01*
X77271418Y-100725000D01*
X77271418Y-102425000D01*
X77280614Y-102518367D01*
X77307848Y-102608145D01*
X77352074Y-102690886D01*
X77373001Y-102716386D01*
X77373000Y-104678279D01*
X77338617Y-104636383D01*
X77240333Y-104555724D01*
X77128202Y-104495788D01*
X77006532Y-104458880D01*
X76880000Y-104446418D01*
X75920000Y-104446418D01*
X75793468Y-104458880D01*
X75671798Y-104495788D01*
X75559667Y-104555724D01*
X75461383Y-104636383D01*
X75380724Y-104734667D01*
X75320788Y-104846798D01*
X75283880Y-104968468D01*
X75271418Y-105095000D01*
X75271418Y-106055000D01*
X75283880Y-106181532D01*
X75320788Y-106303202D01*
X75380724Y-106415333D01*
X75461383Y-106513617D01*
X75559667Y-106594276D01*
X75671798Y-106654212D01*
X75793468Y-106691120D01*
X75920000Y-106703582D01*
X76880000Y-106703582D01*
X77006532Y-106691120D01*
X77128202Y-106654212D01*
X77240333Y-106594276D01*
X77338617Y-106513617D01*
X77419276Y-106415333D01*
X77434861Y-106386176D01*
X77435343Y-106389425D01*
X77435346Y-106389437D01*
X77435347Y-106389444D01*
X77513498Y-106701439D01*
X77513503Y-106701454D01*
X77620772Y-107001250D01*
X77621864Y-107004303D01*
X77759380Y-107295057D01*
X77759385Y-107295065D01*
X77759389Y-107295074D01*
X77924269Y-107570158D01*
X77924752Y-107570964D01*
X78116350Y-107829303D01*
X78116357Y-107829311D01*
X78116361Y-107829316D01*
X78332357Y-108067631D01*
X78332369Y-108067643D01*
X78570684Y-108283639D01*
X78570689Y-108283643D01*
X78570697Y-108283650D01*
X78829036Y-108475248D01*
X78829044Y-108475253D01*
X78829051Y-108475258D01*
X79104926Y-108640611D01*
X79104931Y-108640613D01*
X79104942Y-108640620D01*
X79395695Y-108778135D01*
X79395708Y-108778140D01*
X79395713Y-108778142D01*
X79698546Y-108886498D01*
X79698562Y-108886502D01*
X79935102Y-108945753D01*
X79935103Y-108945753D01*
X79946192Y-108948531D01*
X80010556Y-108964653D01*
X80010563Y-108964654D01*
X80010575Y-108964657D01*
X80328727Y-109011850D01*
X80328731Y-109011850D01*
X80328743Y-109011852D01*
X80611234Y-109025731D01*
X80624119Y-109027000D01*
X80637064Y-109027000D01*
X80649989Y-109027635D01*
X80662914Y-109027000D01*
X84043551Y-109027000D01*
X84172209Y-109030158D01*
X84294130Y-109039151D01*
X84415448Y-109054114D01*
X84535890Y-109075013D01*
X84655174Y-109101799D01*
X84698154Y-109113693D01*
X84585750Y-109115000D01*
X84427000Y-109273750D01*
X84427000Y-110173000D01*
X85326250Y-110173000D01*
X85485000Y-110014250D01*
X85488072Y-109750000D01*
X85475812Y-109625518D01*
X85439502Y-109505820D01*
X85394858Y-109422298D01*
X85433716Y-109446904D01*
X85533655Y-109517290D01*
X85630027Y-109592500D01*
X85722580Y-109672335D01*
X85815799Y-109761088D01*
X86221418Y-110166708D01*
X86221418Y-110850000D01*
X86227732Y-110914103D01*
X86246430Y-110975743D01*
X86276794Y-111032550D01*
X86317657Y-111082343D01*
X86367450Y-111123206D01*
X86424257Y-111153570D01*
X86485897Y-111172268D01*
X86550000Y-111178582D01*
X87650000Y-111178582D01*
X87714103Y-111172268D01*
X87775743Y-111153570D01*
X87832550Y-111123206D01*
X87882343Y-111082343D01*
X87923206Y-111032550D01*
X87951751Y-110979146D01*
X87957535Y-111037876D01*
X87990460Y-111146414D01*
X88043927Y-111246443D01*
X88115881Y-111334119D01*
X88203557Y-111406073D01*
X88303586Y-111459540D01*
X88412124Y-111492465D01*
X88525000Y-111503582D01*
X89275000Y-111503582D01*
X89387876Y-111492465D01*
X89496414Y-111459540D01*
X89596443Y-111406073D01*
X89684119Y-111334119D01*
X89756073Y-111246443D01*
X89809540Y-111146414D01*
X89842465Y-111037876D01*
X89853582Y-110925000D01*
X89853582Y-109675000D01*
X89842465Y-109562124D01*
X89809540Y-109453586D01*
X89756073Y-109353557D01*
X89684119Y-109265881D01*
X89596443Y-109193927D01*
X89496414Y-109140460D01*
X89427000Y-109119403D01*
X89427000Y-109042088D01*
X89434114Y-109047926D01*
X89516855Y-109092152D01*
X89606633Y-109119386D01*
X89700000Y-109128582D01*
X90000000Y-109128582D01*
X90093367Y-109119386D01*
X90183145Y-109092152D01*
X90265886Y-109047926D01*
X90338409Y-108988409D01*
X90397926Y-108915886D01*
X90442152Y-108833145D01*
X90469386Y-108743367D01*
X90478582Y-108650000D01*
X90478582Y-107627000D01*
X91511947Y-107627000D01*
X91614670Y-107629521D01*
X91711935Y-107636696D01*
X91808714Y-107648633D01*
X91904826Y-107665310D01*
X91999980Y-107686678D01*
X92093975Y-107712689D01*
X92186581Y-107743282D01*
X92277584Y-107778386D01*
X92366750Y-107817910D01*
X92453855Y-107861756D01*
X92523000Y-107900926D01*
X92523000Y-108293965D01*
X92487942Y-108300938D01*
X92355636Y-108355741D01*
X92236564Y-108435302D01*
X92135302Y-108536564D01*
X92055741Y-108655636D01*
X92000938Y-108787942D01*
X91973000Y-108928397D01*
X91973000Y-108981710D01*
X91858292Y-109096418D01*
X91325000Y-109096418D01*
X91212124Y-109107535D01*
X91103586Y-109140460D01*
X91003557Y-109193927D01*
X90915881Y-109265881D01*
X90843927Y-109353557D01*
X90790460Y-109453586D01*
X90757535Y-109562124D01*
X90746418Y-109675000D01*
X90746418Y-110925000D01*
X90757535Y-111037876D01*
X90790460Y-111146414D01*
X90843927Y-111246443D01*
X90915881Y-111334119D01*
X91003557Y-111406073D01*
X91103586Y-111459540D01*
X91212124Y-111492465D01*
X91300092Y-111501129D01*
X91177593Y-111546819D01*
X90916504Y-111603615D01*
X90645470Y-111623000D01*
X70654530Y-111623000D01*
X70383496Y-111603615D01*
X70122407Y-111546819D01*
X69872060Y-111453444D01*
X69637555Y-111325395D01*
X69423662Y-111165276D01*
X69234724Y-110976338D01*
X69140149Y-110850000D01*
X83111928Y-110850000D01*
X83124188Y-110974482D01*
X83160498Y-111094180D01*
X83219463Y-111204494D01*
X83298815Y-111301185D01*
X83395506Y-111380537D01*
X83505820Y-111439502D01*
X83625518Y-111475812D01*
X83750000Y-111488072D01*
X84014250Y-111485000D01*
X84173000Y-111326250D01*
X84173000Y-110427000D01*
X84427000Y-110427000D01*
X84427000Y-111326250D01*
X84585750Y-111485000D01*
X84850000Y-111488072D01*
X84974482Y-111475812D01*
X85094180Y-111439502D01*
X85204494Y-111380537D01*
X85301185Y-111301185D01*
X85380537Y-111204494D01*
X85439502Y-111094180D01*
X85475812Y-110974482D01*
X85488072Y-110850000D01*
X85485000Y-110585750D01*
X85326250Y-110427000D01*
X84427000Y-110427000D01*
X84173000Y-110427000D01*
X83273750Y-110427000D01*
X83115000Y-110585750D01*
X83111928Y-110850000D01*
X69140149Y-110850000D01*
X69074605Y-110762445D01*
X68946556Y-110527940D01*
X68853181Y-110277593D01*
X68796385Y-110016504D01*
X68777324Y-109750000D01*
X83111928Y-109750000D01*
X83115000Y-110014250D01*
X83273750Y-110173000D01*
X84173000Y-110173000D01*
X84173000Y-109273750D01*
X84014250Y-109115000D01*
X83750000Y-109111928D01*
X83625518Y-109124188D01*
X83505820Y-109160498D01*
X83395506Y-109219463D01*
X83298815Y-109298815D01*
X83219463Y-109395506D01*
X83160498Y-109505820D01*
X83124188Y-109625518D01*
X83111928Y-109750000D01*
X68777324Y-109750000D01*
X68777000Y-109745470D01*
X68777000Y-104654280D01*
X68951651Y-105075925D01*
X69315750Y-105620839D01*
X69779161Y-106084250D01*
X70324075Y-106448349D01*
X70929550Y-106699145D01*
X71572319Y-106827000D01*
X72227681Y-106827000D01*
X72870450Y-106699145D01*
X73475925Y-106448349D01*
X74020839Y-106084250D01*
X74484250Y-105620839D01*
X74848349Y-105075925D01*
X75099145Y-104470450D01*
X75227000Y-103827681D01*
X75227000Y-103172319D01*
X75099145Y-102529550D01*
X74848349Y-101924075D01*
X74484250Y-101379161D01*
X74020839Y-100915750D01*
X73475925Y-100551651D01*
X73054280Y-100377000D01*
X77423278Y-100377000D01*
X77411591Y-100386591D01*
X77411591Y-100386591D01*
G37*
X77411591Y-100386591D02*
X77352074Y-100459114D01*
X77307848Y-100541855D01*
X77280614Y-100631633D01*
X77271418Y-100725000D01*
X77271418Y-102425000D01*
X77280614Y-102518367D01*
X77307848Y-102608145D01*
X77352074Y-102690886D01*
X77373001Y-102716386D01*
X77373000Y-104678279D01*
X77338617Y-104636383D01*
X77240333Y-104555724D01*
X77128202Y-104495788D01*
X77006532Y-104458880D01*
X76880000Y-104446418D01*
X75920000Y-104446418D01*
X75793468Y-104458880D01*
X75671798Y-104495788D01*
X75559667Y-104555724D01*
X75461383Y-104636383D01*
X75380724Y-104734667D01*
X75320788Y-104846798D01*
X75283880Y-104968468D01*
X75271418Y-105095000D01*
X75271418Y-106055000D01*
X75283880Y-106181532D01*
X75320788Y-106303202D01*
X75380724Y-106415333D01*
X75461383Y-106513617D01*
X75559667Y-106594276D01*
X75671798Y-106654212D01*
X75793468Y-106691120D01*
X75920000Y-106703582D01*
X76880000Y-106703582D01*
X77006532Y-106691120D01*
X77128202Y-106654212D01*
X77240333Y-106594276D01*
X77338617Y-106513617D01*
X77419276Y-106415333D01*
X77434861Y-106386176D01*
X77435343Y-106389425D01*
X77435346Y-106389437D01*
X77435347Y-106389444D01*
X77513498Y-106701439D01*
X77513503Y-106701454D01*
X77620772Y-107001250D01*
X77621864Y-107004303D01*
X77759380Y-107295057D01*
X77759385Y-107295065D01*
X77759389Y-107295074D01*
X77924269Y-107570158D01*
X77924752Y-107570964D01*
X78116350Y-107829303D01*
X78116357Y-107829311D01*
X78116361Y-107829316D01*
X78332357Y-108067631D01*
X78332369Y-108067643D01*
X78570684Y-108283639D01*
X78570689Y-108283643D01*
X78570697Y-108283650D01*
X78829036Y-108475248D01*
X78829044Y-108475253D01*
X78829051Y-108475258D01*
X79104926Y-108640611D01*
X79104931Y-108640613D01*
X79104942Y-108640620D01*
X79395695Y-108778135D01*
X79395708Y-108778140D01*
X79395713Y-108778142D01*
X79698546Y-108886498D01*
X79698562Y-108886502D01*
X79935102Y-108945753D01*
X79935103Y-108945753D01*
X79946192Y-108948531D01*
X80010556Y-108964653D01*
X80010563Y-108964654D01*
X80010575Y-108964657D01*
X80328727Y-109011850D01*
X80328731Y-109011850D01*
X80328743Y-109011852D01*
X80611234Y-109025731D01*
X80624119Y-109027000D01*
X80637064Y-109027000D01*
X80649989Y-109027635D01*
X80662914Y-109027000D01*
X84043551Y-109027000D01*
X84172209Y-109030158D01*
X84294130Y-109039151D01*
X84415448Y-109054114D01*
X84535890Y-109075013D01*
X84655174Y-109101799D01*
X84698154Y-109113693D01*
X84585750Y-109115000D01*
X84427000Y-109273750D01*
X84427000Y-110173000D01*
X85326250Y-110173000D01*
X85485000Y-110014250D01*
X85488072Y-109750000D01*
X85475812Y-109625518D01*
X85439502Y-109505820D01*
X85394858Y-109422298D01*
X85433716Y-109446904D01*
X85533655Y-109517290D01*
X85630027Y-109592500D01*
X85722580Y-109672335D01*
X85815799Y-109761088D01*
X86221418Y-110166708D01*
X86221418Y-110850000D01*
X86227732Y-110914103D01*
X86246430Y-110975743D01*
X86276794Y-111032550D01*
X86317657Y-111082343D01*
X86367450Y-111123206D01*
X86424257Y-111153570D01*
X86485897Y-111172268D01*
X86550000Y-111178582D01*
X87650000Y-111178582D01*
X87714103Y-111172268D01*
X87775743Y-111153570D01*
X87832550Y-111123206D01*
X87882343Y-111082343D01*
X87923206Y-111032550D01*
X87951751Y-110979146D01*
X87957535Y-111037876D01*
X87990460Y-111146414D01*
X88043927Y-111246443D01*
X88115881Y-111334119D01*
X88203557Y-111406073D01*
X88303586Y-111459540D01*
X88412124Y-111492465D01*
X88525000Y-111503582D01*
X89275000Y-111503582D01*
X89387876Y-111492465D01*
X89496414Y-111459540D01*
X89596443Y-111406073D01*
X89684119Y-111334119D01*
X89756073Y-111246443D01*
X89809540Y-111146414D01*
X89842465Y-111037876D01*
X89853582Y-110925000D01*
X89853582Y-109675000D01*
X89842465Y-109562124D01*
X89809540Y-109453586D01*
X89756073Y-109353557D01*
X89684119Y-109265881D01*
X89596443Y-109193927D01*
X89496414Y-109140460D01*
X89427000Y-109119403D01*
X89427000Y-109042088D01*
X89434114Y-109047926D01*
X89516855Y-109092152D01*
X89606633Y-109119386D01*
X89700000Y-109128582D01*
X90000000Y-109128582D01*
X90093367Y-109119386D01*
X90183145Y-109092152D01*
X90265886Y-109047926D01*
X90338409Y-108988409D01*
X90397926Y-108915886D01*
X90442152Y-108833145D01*
X90469386Y-108743367D01*
X90478582Y-108650000D01*
X90478582Y-107627000D01*
X91511947Y-107627000D01*
X91614670Y-107629521D01*
X91711935Y-107636696D01*
X91808714Y-107648633D01*
X91904826Y-107665310D01*
X91999980Y-107686678D01*
X92093975Y-107712689D01*
X92186581Y-107743282D01*
X92277584Y-107778386D01*
X92366750Y-107817910D01*
X92453855Y-107861756D01*
X92523000Y-107900926D01*
X92523000Y-108293965D01*
X92487942Y-108300938D01*
X92355636Y-108355741D01*
X92236564Y-108435302D01*
X92135302Y-108536564D01*
X92055741Y-108655636D01*
X92000938Y-108787942D01*
X91973000Y-108928397D01*
X91973000Y-108981710D01*
X91858292Y-109096418D01*
X91325000Y-109096418D01*
X91212124Y-109107535D01*
X91103586Y-109140460D01*
X91003557Y-109193927D01*
X90915881Y-109265881D01*
X90843927Y-109353557D01*
X90790460Y-109453586D01*
X90757535Y-109562124D01*
X90746418Y-109675000D01*
X90746418Y-110925000D01*
X90757535Y-111037876D01*
X90790460Y-111146414D01*
X90843927Y-111246443D01*
X90915881Y-111334119D01*
X91003557Y-111406073D01*
X91103586Y-111459540D01*
X91212124Y-111492465D01*
X91300092Y-111501129D01*
X91177593Y-111546819D01*
X90916504Y-111603615D01*
X90645470Y-111623000D01*
X70654530Y-111623000D01*
X70383496Y-111603615D01*
X70122407Y-111546819D01*
X69872060Y-111453444D01*
X69637555Y-111325395D01*
X69423662Y-111165276D01*
X69234724Y-110976338D01*
X69140149Y-110850000D01*
X83111928Y-110850000D01*
X83124188Y-110974482D01*
X83160498Y-111094180D01*
X83219463Y-111204494D01*
X83298815Y-111301185D01*
X83395506Y-111380537D01*
X83505820Y-111439502D01*
X83625518Y-111475812D01*
X83750000Y-111488072D01*
X84014250Y-111485000D01*
X84173000Y-111326250D01*
X84173000Y-110427000D01*
X84427000Y-110427000D01*
X84427000Y-111326250D01*
X84585750Y-111485000D01*
X84850000Y-111488072D01*
X84974482Y-111475812D01*
X85094180Y-111439502D01*
X85204494Y-111380537D01*
X85301185Y-111301185D01*
X85380537Y-111204494D01*
X85439502Y-111094180D01*
X85475812Y-110974482D01*
X85488072Y-110850000D01*
X85485000Y-110585750D01*
X85326250Y-110427000D01*
X84427000Y-110427000D01*
X84173000Y-110427000D01*
X83273750Y-110427000D01*
X83115000Y-110585750D01*
X83111928Y-110850000D01*
X69140149Y-110850000D01*
X69074605Y-110762445D01*
X68946556Y-110527940D01*
X68853181Y-110277593D01*
X68796385Y-110016504D01*
X68777324Y-109750000D01*
X83111928Y-109750000D01*
X83115000Y-110014250D01*
X83273750Y-110173000D01*
X84173000Y-110173000D01*
X84173000Y-109273750D01*
X84014250Y-109115000D01*
X83750000Y-109111928D01*
X83625518Y-109124188D01*
X83505820Y-109160498D01*
X83395506Y-109219463D01*
X83298815Y-109298815D01*
X83219463Y-109395506D01*
X83160498Y-109505820D01*
X83124188Y-109625518D01*
X83111928Y-109750000D01*
X68777324Y-109750000D01*
X68777000Y-109745470D01*
X68777000Y-104654280D01*
X68951651Y-105075925D01*
X69315750Y-105620839D01*
X69779161Y-106084250D01*
X70324075Y-106448349D01*
X70929550Y-106699145D01*
X71572319Y-106827000D01*
X72227681Y-106827000D01*
X72870450Y-106699145D01*
X73475925Y-106448349D01*
X74020839Y-106084250D01*
X74484250Y-105620839D01*
X74848349Y-105075925D01*
X75099145Y-104470450D01*
X75227000Y-103827681D01*
X75227000Y-103172319D01*
X75099145Y-102529550D01*
X74848349Y-101924075D01*
X74484250Y-101379161D01*
X74020839Y-100915750D01*
X73475925Y-100551651D01*
X73054280Y-100377000D01*
X77423278Y-100377000D01*
X77411591Y-100386591D01*
G36*
X83373815Y-100423815D02*
G01*
X83294463Y-100520506D01*
X83235498Y-100630820D01*
X83199188Y-100750518D01*
X83186928Y-100875000D01*
X83190000Y-100989250D01*
X83348750Y-101148000D01*
X84173000Y-101148000D01*
X84173000Y-101128000D01*
X84427000Y-101128000D01*
X84427000Y-101148000D01*
X85673000Y-101148000D01*
X85673000Y-101128000D01*
X85927000Y-101128000D01*
X85927000Y-101148000D01*
X86751250Y-101148000D01*
X86910000Y-100989250D01*
X86913072Y-100875000D01*
X86900812Y-100750518D01*
X86864502Y-100630820D01*
X86805537Y-100520506D01*
X86726185Y-100423815D01*
X86669141Y-100377000D01*
X87821201Y-100377000D01*
X87744463Y-100470506D01*
X87685498Y-100580820D01*
X87649188Y-100700518D01*
X87636928Y-100825000D01*
X87640000Y-101414250D01*
X87798750Y-101573000D01*
X88710500Y-101573000D01*
X88710500Y-101553000D01*
X88964500Y-101553000D01*
X88964500Y-101573000D01*
X89876250Y-101573000D01*
X90035000Y-101414250D01*
X90038072Y-100825000D01*
X90025812Y-100700518D01*
X89989502Y-100580820D01*
X89930537Y-100470506D01*
X89853799Y-100377000D01*
X90645470Y-100377000D01*
X90916504Y-100396385D01*
X91177593Y-100453181D01*
X91329512Y-100509844D01*
X91228586Y-100540460D01*
X91128557Y-100593926D01*
X91040880Y-100665880D01*
X90968926Y-100753557D01*
X90915460Y-100853586D01*
X90882535Y-100962123D01*
X90871418Y-101074999D01*
X90871418Y-102011460D01*
X90865337Y-102025180D01*
X90859513Y-102036749D01*
X90854852Y-102048833D01*
X90849611Y-102060656D01*
X90845553Y-102072941D01*
X90833527Y-102104115D01*
X90828281Y-102115951D01*
X90824218Y-102128249D01*
X90819562Y-102140320D01*
X90816111Y-102152788D01*
X90805626Y-102184529D01*
X90800971Y-102196596D01*
X90797523Y-102209055D01*
X90793459Y-102221357D01*
X90790620Y-102233998D01*
X90781710Y-102266194D01*
X90777652Y-102278479D01*
X90774818Y-102291098D01*
X90771363Y-102303584D01*
X90769148Y-102316349D01*
X90761834Y-102348922D01*
X90758378Y-102361410D01*
X90756163Y-102374177D01*
X90753330Y-102386792D01*
X90751747Y-102399625D01*
X90746032Y-102432564D01*
X90743199Y-102445179D01*
X90741616Y-102458016D01*
X90739400Y-102470785D01*
X90738447Y-102483701D01*
X90734358Y-102516854D01*
X90732145Y-102529609D01*
X90731194Y-102542508D01*
X90729609Y-102555354D01*
X90729291Y-102568300D01*
X90726834Y-102601616D01*
X90725250Y-102614455D01*
X90724932Y-102627396D01*
X90723979Y-102640318D01*
X90724297Y-102653260D01*
X90723636Y-102680163D01*
X90723000Y-102686620D01*
X90723000Y-102706052D01*
X90722524Y-102725431D01*
X90723000Y-102731886D01*
X90723000Y-102920171D01*
X90678557Y-102943927D01*
X90590881Y-103015881D01*
X90518927Y-103103557D01*
X90486931Y-103163417D01*
X90475812Y-103050518D01*
X90439502Y-102930820D01*
X90380537Y-102820506D01*
X90301185Y-102723815D01*
X90204494Y-102644463D01*
X90094180Y-102585498D01*
X90038038Y-102568467D01*
X90035000Y-101985750D01*
X89876250Y-101827000D01*
X88964500Y-101827000D01*
X88964500Y-101847000D01*
X88710500Y-101847000D01*
X88710500Y-101827000D01*
X87798750Y-101827000D01*
X87640000Y-101985750D01*
X87636928Y-102575000D01*
X87649188Y-102699482D01*
X87685498Y-102819180D01*
X87744463Y-102929494D01*
X87823815Y-103026185D01*
X87920506Y-103105537D01*
X88030820Y-103164502D01*
X88150518Y-103200812D01*
X88212151Y-103206882D01*
X88215000Y-103614250D01*
X88373750Y-103773000D01*
X89223000Y-103773000D01*
X89223000Y-103753000D01*
X89477000Y-103753000D01*
X89477000Y-103773000D01*
X89497000Y-103773000D01*
X89497000Y-104027000D01*
X89477000Y-104027000D01*
X89477000Y-104047000D01*
X89223000Y-104047000D01*
X89223000Y-104027000D01*
X88373750Y-104027000D01*
X88215000Y-104185750D01*
X88211928Y-104625000D01*
X88218491Y-104691634D01*
X88148815Y-104748815D01*
X88069463Y-104845506D01*
X88055613Y-104871418D01*
X87800000Y-104871418D01*
X87706633Y-104880614D01*
X87616855Y-104907848D01*
X87534114Y-104952074D01*
X87461591Y-105011591D01*
X87402074Y-105084114D01*
X87357848Y-105166855D01*
X87330614Y-105256633D01*
X87321418Y-105350000D01*
X87321418Y-106274714D01*
X87278545Y-106317587D01*
X87268486Y-106327163D01*
X87261922Y-106332826D01*
X87255094Y-106338154D01*
X87248017Y-106343139D01*
X87240711Y-106347765D01*
X87233165Y-106352040D01*
X87225426Y-106355935D01*
X87217512Y-106359444D01*
X87209452Y-106362553D01*
X87201208Y-106365276D01*
X87192867Y-106367585D01*
X87184424Y-106369480D01*
X87175894Y-106370961D01*
X87167297Y-106372021D01*
X87158648Y-106372659D01*
X87144774Y-106373000D01*
X83441904Y-106373000D01*
X83479212Y-106303202D01*
X83516120Y-106181532D01*
X83528582Y-106055000D01*
X83528582Y-105095000D01*
X83516120Y-104968468D01*
X83479212Y-104846798D01*
X83419276Y-104734667D01*
X83338617Y-104636383D01*
X83240333Y-104555724D01*
X83128202Y-104495788D01*
X83006532Y-104458880D01*
X82880000Y-104446418D01*
X81920000Y-104446418D01*
X81793468Y-104458880D01*
X81671798Y-104495788D01*
X81559667Y-104555724D01*
X81461383Y-104636383D01*
X81380724Y-104734667D01*
X81320788Y-104846798D01*
X81283880Y-104968468D01*
X81271418Y-105095000D01*
X81271418Y-106055000D01*
X81283880Y-106181532D01*
X81320788Y-106303202D01*
X81358096Y-106373000D01*
X80660469Y-106373000D01*
X80588983Y-106369487D01*
X80528561Y-106360524D01*
X80469306Y-106345682D01*
X80411784Y-106325100D01*
X80356568Y-106298986D01*
X80304165Y-106267577D01*
X80255098Y-106231185D01*
X80209837Y-106190163D01*
X80168812Y-106144899D01*
X80132423Y-106095836D01*
X80101017Y-106043437D01*
X80074898Y-105988214D01*
X80054320Y-105930703D01*
X80039476Y-105871440D01*
X80030512Y-105811008D01*
X80027000Y-105739535D01*
X80027000Y-102903582D01*
X80050000Y-102903582D01*
X80055332Y-102903057D01*
X80069463Y-102929494D01*
X80148815Y-103026185D01*
X80245506Y-103105537D01*
X80355820Y-103164502D01*
X80475518Y-103200812D01*
X80600000Y-103213072D01*
X80614250Y-103210000D01*
X80773000Y-103051250D01*
X80773000Y-101702000D01*
X81027000Y-101702000D01*
X81027000Y-103051250D01*
X81185750Y-103210000D01*
X81200000Y-103213072D01*
X81324482Y-103200812D01*
X81444180Y-103164502D01*
X81554494Y-103105537D01*
X81651185Y-103026185D01*
X81730537Y-102929494D01*
X81789502Y-102819180D01*
X81825812Y-102699482D01*
X81838072Y-102575000D01*
X81835000Y-101860750D01*
X81676250Y-101702000D01*
X81027000Y-101702000D01*
X80773000Y-101702000D01*
X80753000Y-101702000D01*
X80753000Y-101675000D01*
X83186928Y-101675000D01*
X83199188Y-101799482D01*
X83235498Y-101919180D01*
X83294463Y-102029494D01*
X83373815Y-102126185D01*
X83470506Y-102205537D01*
X83580820Y-102264502D01*
X83700518Y-102300812D01*
X83711375Y-102301881D01*
X83651236Y-102351236D01*
X83585500Y-102431336D01*
X83536654Y-102522720D01*
X83506575Y-102621879D01*
X83496418Y-102725000D01*
X83496418Y-103125000D01*
X83506575Y-103228121D01*
X83536654Y-103327280D01*
X83585500Y-103418664D01*
X83651236Y-103498764D01*
X83721842Y-103556708D01*
X83655741Y-103655636D01*
X83600938Y-103787942D01*
X83573000Y-103928397D01*
X83573000Y-104071603D01*
X83600938Y-104212058D01*
X83655741Y-104344364D01*
X83735302Y-104463436D01*
X83836564Y-104564698D01*
X83955636Y-104644259D01*
X84087942Y-104699062D01*
X84228397Y-104727000D01*
X84371603Y-104727000D01*
X84512058Y-104699062D01*
X84644364Y-104644259D01*
X84763436Y-104564698D01*
X84864698Y-104463436D01*
X84944259Y-104344364D01*
X84999062Y-104212058D01*
X85027000Y-104071603D01*
X85027000Y-103928397D01*
X84999062Y-103787942D01*
X84944259Y-103655636D01*
X84878158Y-103556708D01*
X84948764Y-103498764D01*
X85014500Y-103418664D01*
X85050000Y-103352248D01*
X85085500Y-103418664D01*
X85151236Y-103498764D01*
X85221842Y-103556708D01*
X85155741Y-103655636D01*
X85100938Y-103787942D01*
X85073000Y-103928397D01*
X85073000Y-104071603D01*
X85100938Y-104212058D01*
X85155741Y-104344364D01*
X85235302Y-104463436D01*
X85336564Y-104564698D01*
X85455636Y-104644259D01*
X85587942Y-104699062D01*
X85728397Y-104727000D01*
X85871603Y-104727000D01*
X86012058Y-104699062D01*
X86144364Y-104644259D01*
X86263436Y-104564698D01*
X86364698Y-104463436D01*
X86444259Y-104344364D01*
X86499062Y-104212058D01*
X86527000Y-104071603D01*
X86527000Y-103928397D01*
X86499062Y-103787942D01*
X86444259Y-103655636D01*
X86378158Y-103556708D01*
X86448764Y-103498764D01*
X86514500Y-103418664D01*
X86563346Y-103327280D01*
X86593425Y-103228121D01*
X86603582Y-103125000D01*
X86603582Y-102725000D01*
X86593425Y-102621879D01*
X86563346Y-102522720D01*
X86514500Y-102431336D01*
X86448764Y-102351236D01*
X86388625Y-102301881D01*
X86399482Y-102300812D01*
X86519180Y-102264502D01*
X86629494Y-102205537D01*
X86726185Y-102126185D01*
X86805537Y-102029494D01*
X86864502Y-101919180D01*
X86900812Y-101799482D01*
X86913072Y-101675000D01*
X86910000Y-101560750D01*
X86751250Y-101402000D01*
X85927000Y-101402000D01*
X85927000Y-101422000D01*
X85673000Y-101422000D01*
X85673000Y-101402000D01*
X84427000Y-101402000D01*
X84427000Y-101422000D01*
X84173000Y-101422000D01*
X84173000Y-101402000D01*
X83348750Y-101402000D01*
X83190000Y-101560750D01*
X83186928Y-101675000D01*
X80753000Y-101675000D01*
X80753000Y-101448000D01*
X80773000Y-101448000D01*
X80773000Y-101428000D01*
X81027000Y-101428000D01*
X81027000Y-101448000D01*
X81676250Y-101448000D01*
X81835000Y-101289250D01*
X81838072Y-100575000D01*
X81825812Y-100450518D01*
X81803511Y-100377000D01*
X83430859Y-100377000D01*
X83373815Y-100423815D01*
X83373815Y-100423815D01*
G37*
X83373815Y-100423815D02*
X83294463Y-100520506D01*
X83235498Y-100630820D01*
X83199188Y-100750518D01*
X83186928Y-100875000D01*
X83190000Y-100989250D01*
X83348750Y-101148000D01*
X84173000Y-101148000D01*
X84173000Y-101128000D01*
X84427000Y-101128000D01*
X84427000Y-101148000D01*
X85673000Y-101148000D01*
X85673000Y-101128000D01*
X85927000Y-101128000D01*
X85927000Y-101148000D01*
X86751250Y-101148000D01*
X86910000Y-100989250D01*
X86913072Y-100875000D01*
X86900812Y-100750518D01*
X86864502Y-100630820D01*
X86805537Y-100520506D01*
X86726185Y-100423815D01*
X86669141Y-100377000D01*
X87821201Y-100377000D01*
X87744463Y-100470506D01*
X87685498Y-100580820D01*
X87649188Y-100700518D01*
X87636928Y-100825000D01*
X87640000Y-101414250D01*
X87798750Y-101573000D01*
X88710500Y-101573000D01*
X88710500Y-101553000D01*
X88964500Y-101553000D01*
X88964500Y-101573000D01*
X89876250Y-101573000D01*
X90035000Y-101414250D01*
X90038072Y-100825000D01*
X90025812Y-100700518D01*
X89989502Y-100580820D01*
X89930537Y-100470506D01*
X89853799Y-100377000D01*
X90645470Y-100377000D01*
X90916504Y-100396385D01*
X91177593Y-100453181D01*
X91329512Y-100509844D01*
X91228586Y-100540460D01*
X91128557Y-100593926D01*
X91040880Y-100665880D01*
X90968926Y-100753557D01*
X90915460Y-100853586D01*
X90882535Y-100962123D01*
X90871418Y-101074999D01*
X90871418Y-102011460D01*
X90865337Y-102025180D01*
X90859513Y-102036749D01*
X90854852Y-102048833D01*
X90849611Y-102060656D01*
X90845553Y-102072941D01*
X90833527Y-102104115D01*
X90828281Y-102115951D01*
X90824218Y-102128249D01*
X90819562Y-102140320D01*
X90816111Y-102152788D01*
X90805626Y-102184529D01*
X90800971Y-102196596D01*
X90797523Y-102209055D01*
X90793459Y-102221357D01*
X90790620Y-102233998D01*
X90781710Y-102266194D01*
X90777652Y-102278479D01*
X90774818Y-102291098D01*
X90771363Y-102303584D01*
X90769148Y-102316349D01*
X90761834Y-102348922D01*
X90758378Y-102361410D01*
X90756163Y-102374177D01*
X90753330Y-102386792D01*
X90751747Y-102399625D01*
X90746032Y-102432564D01*
X90743199Y-102445179D01*
X90741616Y-102458016D01*
X90739400Y-102470785D01*
X90738447Y-102483701D01*
X90734358Y-102516854D01*
X90732145Y-102529609D01*
X90731194Y-102542508D01*
X90729609Y-102555354D01*
X90729291Y-102568300D01*
X90726834Y-102601616D01*
X90725250Y-102614455D01*
X90724932Y-102627396D01*
X90723979Y-102640318D01*
X90724297Y-102653260D01*
X90723636Y-102680163D01*
X90723000Y-102686620D01*
X90723000Y-102706052D01*
X90722524Y-102725431D01*
X90723000Y-102731886D01*
X90723000Y-102920171D01*
X90678557Y-102943927D01*
X90590881Y-103015881D01*
X90518927Y-103103557D01*
X90486931Y-103163417D01*
X90475812Y-103050518D01*
X90439502Y-102930820D01*
X90380537Y-102820506D01*
X90301185Y-102723815D01*
X90204494Y-102644463D01*
X90094180Y-102585498D01*
X90038038Y-102568467D01*
X90035000Y-101985750D01*
X89876250Y-101827000D01*
X88964500Y-101827000D01*
X88964500Y-101847000D01*
X88710500Y-101847000D01*
X88710500Y-101827000D01*
X87798750Y-101827000D01*
X87640000Y-101985750D01*
X87636928Y-102575000D01*
X87649188Y-102699482D01*
X87685498Y-102819180D01*
X87744463Y-102929494D01*
X87823815Y-103026185D01*
X87920506Y-103105537D01*
X88030820Y-103164502D01*
X88150518Y-103200812D01*
X88212151Y-103206882D01*
X88215000Y-103614250D01*
X88373750Y-103773000D01*
X89223000Y-103773000D01*
X89223000Y-103753000D01*
X89477000Y-103753000D01*
X89477000Y-103773000D01*
X89497000Y-103773000D01*
X89497000Y-104027000D01*
X89477000Y-104027000D01*
X89477000Y-104047000D01*
X89223000Y-104047000D01*
X89223000Y-104027000D01*
X88373750Y-104027000D01*
X88215000Y-104185750D01*
X88211928Y-104625000D01*
X88218491Y-104691634D01*
X88148815Y-104748815D01*
X88069463Y-104845506D01*
X88055613Y-104871418D01*
X87800000Y-104871418D01*
X87706633Y-104880614D01*
X87616855Y-104907848D01*
X87534114Y-104952074D01*
X87461591Y-105011591D01*
X87402074Y-105084114D01*
X87357848Y-105166855D01*
X87330614Y-105256633D01*
X87321418Y-105350000D01*
X87321418Y-106274714D01*
X87278545Y-106317587D01*
X87268486Y-106327163D01*
X87261922Y-106332826D01*
X87255094Y-106338154D01*
X87248017Y-106343139D01*
X87240711Y-106347765D01*
X87233165Y-106352040D01*
X87225426Y-106355935D01*
X87217512Y-106359444D01*
X87209452Y-106362553D01*
X87201208Y-106365276D01*
X87192867Y-106367585D01*
X87184424Y-106369480D01*
X87175894Y-106370961D01*
X87167297Y-106372021D01*
X87158648Y-106372659D01*
X87144774Y-106373000D01*
X83441904Y-106373000D01*
X83479212Y-106303202D01*
X83516120Y-106181532D01*
X83528582Y-106055000D01*
X83528582Y-105095000D01*
X83516120Y-104968468D01*
X83479212Y-104846798D01*
X83419276Y-104734667D01*
X83338617Y-104636383D01*
X83240333Y-104555724D01*
X83128202Y-104495788D01*
X83006532Y-104458880D01*
X82880000Y-104446418D01*
X81920000Y-104446418D01*
X81793468Y-104458880D01*
X81671798Y-104495788D01*
X81559667Y-104555724D01*
X81461383Y-104636383D01*
X81380724Y-104734667D01*
X81320788Y-104846798D01*
X81283880Y-104968468D01*
X81271418Y-105095000D01*
X81271418Y-106055000D01*
X81283880Y-106181532D01*
X81320788Y-106303202D01*
X81358096Y-106373000D01*
X80660469Y-106373000D01*
X80588983Y-106369487D01*
X80528561Y-106360524D01*
X80469306Y-106345682D01*
X80411784Y-106325100D01*
X80356568Y-106298986D01*
X80304165Y-106267577D01*
X80255098Y-106231185D01*
X80209837Y-106190163D01*
X80168812Y-106144899D01*
X80132423Y-106095836D01*
X80101017Y-106043437D01*
X80074898Y-105988214D01*
X80054320Y-105930703D01*
X80039476Y-105871440D01*
X80030512Y-105811008D01*
X80027000Y-105739535D01*
X80027000Y-102903582D01*
X80050000Y-102903582D01*
X80055332Y-102903057D01*
X80069463Y-102929494D01*
X80148815Y-103026185D01*
X80245506Y-103105537D01*
X80355820Y-103164502D01*
X80475518Y-103200812D01*
X80600000Y-103213072D01*
X80614250Y-103210000D01*
X80773000Y-103051250D01*
X80773000Y-101702000D01*
X81027000Y-101702000D01*
X81027000Y-103051250D01*
X81185750Y-103210000D01*
X81200000Y-103213072D01*
X81324482Y-103200812D01*
X81444180Y-103164502D01*
X81554494Y-103105537D01*
X81651185Y-103026185D01*
X81730537Y-102929494D01*
X81789502Y-102819180D01*
X81825812Y-102699482D01*
X81838072Y-102575000D01*
X81835000Y-101860750D01*
X81676250Y-101702000D01*
X81027000Y-101702000D01*
X80773000Y-101702000D01*
X80753000Y-101702000D01*
X80753000Y-101675000D01*
X83186928Y-101675000D01*
X83199188Y-101799482D01*
X83235498Y-101919180D01*
X83294463Y-102029494D01*
X83373815Y-102126185D01*
X83470506Y-102205537D01*
X83580820Y-102264502D01*
X83700518Y-102300812D01*
X83711375Y-102301881D01*
X83651236Y-102351236D01*
X83585500Y-102431336D01*
X83536654Y-102522720D01*
X83506575Y-102621879D01*
X83496418Y-102725000D01*
X83496418Y-103125000D01*
X83506575Y-103228121D01*
X83536654Y-103327280D01*
X83585500Y-103418664D01*
X83651236Y-103498764D01*
X83721842Y-103556708D01*
X83655741Y-103655636D01*
X83600938Y-103787942D01*
X83573000Y-103928397D01*
X83573000Y-104071603D01*
X83600938Y-104212058D01*
X83655741Y-104344364D01*
X83735302Y-104463436D01*
X83836564Y-104564698D01*
X83955636Y-104644259D01*
X84087942Y-104699062D01*
X84228397Y-104727000D01*
X84371603Y-104727000D01*
X84512058Y-104699062D01*
X84644364Y-104644259D01*
X84763436Y-104564698D01*
X84864698Y-104463436D01*
X84944259Y-104344364D01*
X84999062Y-104212058D01*
X85027000Y-104071603D01*
X85027000Y-103928397D01*
X84999062Y-103787942D01*
X84944259Y-103655636D01*
X84878158Y-103556708D01*
X84948764Y-103498764D01*
X85014500Y-103418664D01*
X85050000Y-103352248D01*
X85085500Y-103418664D01*
X85151236Y-103498764D01*
X85221842Y-103556708D01*
X85155741Y-103655636D01*
X85100938Y-103787942D01*
X85073000Y-103928397D01*
X85073000Y-104071603D01*
X85100938Y-104212058D01*
X85155741Y-104344364D01*
X85235302Y-104463436D01*
X85336564Y-104564698D01*
X85455636Y-104644259D01*
X85587942Y-104699062D01*
X85728397Y-104727000D01*
X85871603Y-104727000D01*
X86012058Y-104699062D01*
X86144364Y-104644259D01*
X86263436Y-104564698D01*
X86364698Y-104463436D01*
X86444259Y-104344364D01*
X86499062Y-104212058D01*
X86527000Y-104071603D01*
X86527000Y-103928397D01*
X86499062Y-103787942D01*
X86444259Y-103655636D01*
X86378158Y-103556708D01*
X86448764Y-103498764D01*
X86514500Y-103418664D01*
X86563346Y-103327280D01*
X86593425Y-103228121D01*
X86603582Y-103125000D01*
X86603582Y-102725000D01*
X86593425Y-102621879D01*
X86563346Y-102522720D01*
X86514500Y-102431336D01*
X86448764Y-102351236D01*
X86388625Y-102301881D01*
X86399482Y-102300812D01*
X86519180Y-102264502D01*
X86629494Y-102205537D01*
X86726185Y-102126185D01*
X86805537Y-102029494D01*
X86864502Y-101919180D01*
X86900812Y-101799482D01*
X86913072Y-101675000D01*
X86910000Y-101560750D01*
X86751250Y-101402000D01*
X85927000Y-101402000D01*
X85927000Y-101422000D01*
X85673000Y-101422000D01*
X85673000Y-101402000D01*
X84427000Y-101402000D01*
X84427000Y-101422000D01*
X84173000Y-101422000D01*
X84173000Y-101402000D01*
X83348750Y-101402000D01*
X83190000Y-101560750D01*
X83186928Y-101675000D01*
X80753000Y-101675000D01*
X80753000Y-101448000D01*
X80773000Y-101448000D01*
X80773000Y-101428000D01*
X81027000Y-101428000D01*
X81027000Y-101448000D01*
X81676250Y-101448000D01*
X81835000Y-101289250D01*
X81838072Y-100575000D01*
X81825812Y-100450518D01*
X81803511Y-100377000D01*
X83430859Y-100377000D01*
X83373815Y-100423815D01*
G36*
X89027000Y-105735500D02*
G01*
X89047000Y-105735500D01*
X89047000Y-105989500D01*
X89027000Y-105989500D01*
X89027000Y-106009500D01*
X88773000Y-106009500D01*
X88773000Y-105989500D01*
X88753000Y-105989500D01*
X88753000Y-105735500D01*
X88773000Y-105735500D01*
X88773000Y-105715500D01*
X89027000Y-105715500D01*
X89027000Y-105735500D01*
X89027000Y-105735500D01*
G37*
X89027000Y-105735500D02*
X89047000Y-105735500D01*
X89047000Y-105989500D01*
X89027000Y-105989500D01*
X89027000Y-106009500D01*
X88773000Y-106009500D01*
X88773000Y-105989500D01*
X88753000Y-105989500D01*
X88753000Y-105735500D01*
X88773000Y-105735500D01*
X88773000Y-105715500D01*
X89027000Y-105715500D01*
X89027000Y-105735500D01*
M02*
