G04 #@! TF.GenerationSoftware,KiCad,Pcbnew,(5.1.4)-1*
G04 #@! TF.CreationDate,2022-02-08T04:13:44-08:00*
G04 #@! TF.ProjectId,bushwacker2,62757368-7761-4636-9b65-72322e6b6963,rev?*
G04 #@! TF.SameCoordinates,Original*
G04 #@! TF.FileFunction,Copper,L2,Bot*
G04 #@! TF.FilePolarity,Positive*
%FSLAX46Y46*%
G04 Gerber Fmt 4.6, Leading zero omitted, Abs format (unit mm)*
G04 Created by KiCad (PCBNEW (5.1.4)-1) date 2022-02-08 04:13:44*
%MOMM*%
%LPD*%
G04 APERTURE LIST*
%ADD10O,1.000000X1.600000*%
%ADD11O,1.000000X2.100000*%
%ADD12C,6.000000*%
%ADD13C,0.800000*%
%ADD14C,0.400000*%
%ADD15C,0.200000*%
%ADD16C,0.254000*%
G04 APERTURE END LIST*
D10*
X95680000Y-102600000D03*
X104320000Y-102600000D03*
D11*
X95680000Y-106780000D03*
X104320000Y-106780000D03*
D12*
X108900000Y-103500000D03*
D13*
X111200000Y-103500000D03*
X110526346Y-105126346D03*
X108900000Y-105800000D03*
X107273654Y-105126346D03*
X106600000Y-103500000D03*
X107273654Y-101873654D03*
X108900000Y-101200000D03*
X110526346Y-101873654D03*
D12*
X71900000Y-103500000D03*
D13*
X74200000Y-103500000D03*
X73526346Y-105126346D03*
X71900000Y-105800000D03*
X70273654Y-105126346D03*
X69600000Y-103500000D03*
X70273654Y-101873654D03*
X71900000Y-101200000D03*
X73526346Y-101873654D03*
X104000000Y-108900000D03*
X96000000Y-108900000D03*
X84700000Y-105400000D03*
X83100000Y-110300000D03*
X97000000Y-109100000D03*
X103000000Y-109100000D03*
X92700000Y-109000000D03*
X84300000Y-104000000D03*
X101250000Y-109450000D03*
X85800000Y-104000000D03*
X98250000Y-109450000D03*
D14*
X94900000Y-109500000D02*
X94959230Y-109498545D01*
X94959230Y-109498545D02*
X95018318Y-109494187D01*
X95018318Y-109494187D02*
X95077120Y-109486934D01*
X95077120Y-109486934D02*
X95135496Y-109476805D01*
X95135496Y-109476805D02*
X95193304Y-109463824D01*
X95193304Y-109463824D02*
X95250405Y-109448022D01*
X95250405Y-109448022D02*
X95306663Y-109429437D01*
X95306663Y-109429437D02*
X95361941Y-109408114D01*
X95361941Y-109408114D02*
X95416106Y-109384104D01*
X95416106Y-109384104D02*
X95469027Y-109357466D01*
X95469027Y-109357466D02*
X95520578Y-109328263D01*
X95520578Y-109328263D02*
X95570634Y-109296565D01*
X95570634Y-109296565D02*
X95619074Y-109262450D01*
X95619074Y-109262450D02*
X95665782Y-109225999D01*
X95665782Y-109225999D02*
X95710645Y-109187300D01*
X95710645Y-109187300D02*
X95753554Y-109146446D01*
X95753554Y-109146446D02*
X96000000Y-108900000D01*
X94046447Y-109146446D02*
X94089358Y-109187299D01*
X94089358Y-109187299D02*
X94134221Y-109225998D01*
X94134221Y-109225998D02*
X94180928Y-109262449D01*
X94180928Y-109262449D02*
X94229368Y-109296565D01*
X94229368Y-109296565D02*
X94279424Y-109328262D01*
X94279424Y-109328262D02*
X94330975Y-109357465D01*
X94330975Y-109357465D02*
X94383896Y-109384104D01*
X94383896Y-109384104D02*
X94438061Y-109408113D01*
X94438061Y-109408113D02*
X94493339Y-109429436D01*
X94493339Y-109429436D02*
X94549596Y-109448021D01*
X94549596Y-109448021D02*
X94606698Y-109463824D01*
X94606698Y-109463824D02*
X94664506Y-109476805D01*
X94664506Y-109476805D02*
X94722881Y-109486934D01*
X94722881Y-109486934D02*
X94781683Y-109494186D01*
X94781683Y-109494186D02*
X94840771Y-109498545D01*
X94840771Y-109498545D02*
X94900000Y-109500000D01*
X92500000Y-108100000D02*
X90900000Y-108100000D01*
X92500000Y-108100000D02*
X92559230Y-108101453D01*
X92559230Y-108101453D02*
X92618318Y-108105812D01*
X92618318Y-108105812D02*
X92677120Y-108113064D01*
X92677120Y-108113064D02*
X92735496Y-108123193D01*
X92735496Y-108123193D02*
X92793304Y-108136175D01*
X92793304Y-108136175D02*
X92850405Y-108151977D01*
X92850405Y-108151977D02*
X92906663Y-108170562D01*
X92906663Y-108170562D02*
X92961941Y-108191885D01*
X92961941Y-108191885D02*
X93016106Y-108215894D01*
X93016106Y-108215894D02*
X93069027Y-108242533D01*
X93069027Y-108242533D02*
X93120578Y-108271736D01*
X93120578Y-108271736D02*
X93170634Y-108303433D01*
X93170634Y-108303433D02*
X93219074Y-108337548D01*
X93219074Y-108337548D02*
X93265782Y-108374000D01*
X93265782Y-108374000D02*
X93310645Y-108412699D01*
X93310645Y-108412699D02*
X93353554Y-108453553D01*
X93353554Y-108453553D02*
X94046447Y-109146446D01*
X96722183Y-108177817D02*
X96000000Y-108900000D01*
X96722183Y-108177817D02*
X96816586Y-108087938D01*
X96816586Y-108087938D02*
X96915284Y-108002800D01*
X96915284Y-108002800D02*
X97018041Y-107922608D01*
X97018041Y-107922608D02*
X97124609Y-107847554D01*
X97124609Y-107847554D02*
X97234732Y-107777820D01*
X97234732Y-107777820D02*
X97348143Y-107713573D01*
X97348143Y-107713573D02*
X97464571Y-107654969D01*
X97464571Y-107654969D02*
X97583733Y-107602147D01*
X97583733Y-107602147D02*
X97705344Y-107555237D01*
X97705344Y-107555237D02*
X97829111Y-107514350D01*
X97829111Y-107514350D02*
X97954734Y-107479585D01*
X97954734Y-107479585D02*
X98081912Y-107451026D01*
X98081912Y-107451026D02*
X98210338Y-107428742D01*
X98210338Y-107428742D02*
X98339703Y-107412787D01*
X98339703Y-107412787D02*
X98469695Y-107403198D01*
X98469695Y-107403198D02*
X98600000Y-107400000D01*
X103277817Y-108177817D02*
X104000000Y-108900000D01*
X103277817Y-108177817D02*
X103183414Y-108087938D01*
X103183414Y-108087938D02*
X103084716Y-108002800D01*
X103084716Y-108002800D02*
X102981959Y-107922608D01*
X102981959Y-107922608D02*
X102875391Y-107847554D01*
X102875391Y-107847554D02*
X102765268Y-107777820D01*
X102765268Y-107777820D02*
X102651857Y-107713573D01*
X102651857Y-107713573D02*
X102535429Y-107654969D01*
X102535429Y-107654969D02*
X102416267Y-107602147D01*
X102416267Y-107602147D02*
X102294656Y-107555237D01*
X102294656Y-107555237D02*
X102170889Y-107514350D01*
X102170889Y-107514350D02*
X102045266Y-107479585D01*
X102045266Y-107479585D02*
X101918088Y-107451026D01*
X101918088Y-107451026D02*
X101789662Y-107428742D01*
X101789662Y-107428742D02*
X101660297Y-107412787D01*
X101660297Y-107412787D02*
X101530305Y-107403198D01*
X101530305Y-107403198D02*
X101400000Y-107400000D01*
X101400000Y-107400000D02*
X98600000Y-107400000D01*
X84700000Y-107450000D02*
X84700000Y-105400000D01*
X84343667Y-108872565D02*
X84410263Y-108740261D01*
X83816117Y-109583883D02*
X83918252Y-109476607D01*
X84609562Y-108183257D02*
X84642015Y-108038736D01*
X84191415Y-109126581D02*
X84270659Y-109001441D01*
X84270659Y-109001441D02*
X84343667Y-108872565D01*
X84014999Y-109364450D02*
X84106127Y-109247681D01*
X84470287Y-108604849D02*
X84523594Y-108466654D01*
X84523594Y-108466654D02*
X84570057Y-108326011D01*
X84642015Y-108038736D02*
X84667338Y-107892798D01*
X84106127Y-109247681D02*
X84191415Y-109126581D01*
X83816117Y-109583883D02*
X83100000Y-110300000D01*
X84570057Y-108326011D02*
X84609562Y-108183257D01*
X83918252Y-109476607D02*
X84014999Y-109364450D01*
X84410263Y-108740261D02*
X84470287Y-108604849D01*
X84696366Y-107598074D02*
X84700000Y-107450000D01*
X84685469Y-107745792D02*
X84696366Y-107598074D01*
X84667338Y-107892798D02*
X84685469Y-107745792D01*
X96436397Y-109663603D02*
X97000000Y-109100000D01*
X96436397Y-109663603D02*
X96359159Y-109737139D01*
X96359159Y-109737139D02*
X96278406Y-109806798D01*
X96278406Y-109806798D02*
X96194332Y-109872410D01*
X96194332Y-109872410D02*
X96107140Y-109933817D01*
X96107140Y-109933817D02*
X96017040Y-109990873D01*
X96017040Y-109990873D02*
X95924248Y-110043438D01*
X95924248Y-110043438D02*
X95828989Y-110091388D01*
X95828989Y-110091388D02*
X95731493Y-110134605D01*
X95731493Y-110134605D02*
X95631993Y-110172986D01*
X95631993Y-110172986D02*
X95530729Y-110206439D01*
X95530729Y-110206439D02*
X95427946Y-110234883D01*
X95427946Y-110234883D02*
X95323891Y-110258249D01*
X95323891Y-110258249D02*
X95218816Y-110276482D01*
X95218816Y-110276482D02*
X95112972Y-110289536D01*
X95112972Y-110289536D02*
X95006614Y-110297382D01*
X95006614Y-110297382D02*
X94900000Y-110300000D01*
X93363604Y-109663603D02*
X92700000Y-109000000D01*
X93363604Y-109663603D02*
X93440843Y-109737139D01*
X93440843Y-109737139D02*
X93521596Y-109806797D01*
X93521596Y-109806797D02*
X93605670Y-109872409D01*
X93605670Y-109872409D02*
X93692862Y-109933817D01*
X93692862Y-109933817D02*
X93782962Y-109990872D01*
X93782962Y-109990872D02*
X93875753Y-110043438D01*
X93875753Y-110043438D02*
X93971012Y-110091387D01*
X93971012Y-110091387D02*
X94068509Y-110134605D01*
X94068509Y-110134605D02*
X94168009Y-110172986D01*
X94168009Y-110172986D02*
X94269272Y-110206439D01*
X94269272Y-110206439D02*
X94372055Y-110234883D01*
X94372055Y-110234883D02*
X94476110Y-110258249D01*
X94476110Y-110258249D02*
X94581186Y-110276482D01*
X94581186Y-110276482D02*
X94687030Y-110289536D01*
X94687030Y-110289536D02*
X94793387Y-110297382D01*
X94793387Y-110297382D02*
X94900000Y-110300000D01*
X98400000Y-108200000D02*
X98340771Y-108201454D01*
X98340771Y-108201454D02*
X98281683Y-108205812D01*
X98281683Y-108205812D02*
X98222881Y-108213065D01*
X98222881Y-108213065D02*
X98164506Y-108223194D01*
X98164506Y-108223194D02*
X98106698Y-108236175D01*
X98106698Y-108236175D02*
X98049596Y-108251977D01*
X98049596Y-108251977D02*
X97993339Y-108270562D01*
X97993339Y-108270562D02*
X97938061Y-108291885D01*
X97938061Y-108291885D02*
X97883896Y-108315895D01*
X97883896Y-108315895D02*
X97830975Y-108342533D01*
X97830975Y-108342533D02*
X97779424Y-108371736D01*
X97779424Y-108371736D02*
X97729368Y-108403434D01*
X97729368Y-108403434D02*
X97680928Y-108437549D01*
X97680928Y-108437549D02*
X97634221Y-108474000D01*
X97634221Y-108474000D02*
X97589358Y-108512699D01*
X97589358Y-108512699D02*
X97546447Y-108553553D01*
X97546447Y-108553553D02*
X97000000Y-109100000D01*
X102453553Y-108553553D02*
X103000000Y-109100000D01*
X102453553Y-108553553D02*
X102410642Y-108512699D01*
X102410642Y-108512699D02*
X102365780Y-108474000D01*
X102365780Y-108474000D02*
X102319072Y-108437549D01*
X102319072Y-108437549D02*
X102270632Y-108403433D01*
X102270632Y-108403433D02*
X102220576Y-108371736D01*
X102220576Y-108371736D02*
X102169025Y-108342533D01*
X102169025Y-108342533D02*
X102116104Y-108315894D01*
X102116104Y-108315894D02*
X102061939Y-108291885D01*
X102061939Y-108291885D02*
X102006661Y-108270562D01*
X102006661Y-108270562D02*
X101950404Y-108251977D01*
X101950404Y-108251977D02*
X101893302Y-108236175D01*
X101893302Y-108236175D02*
X101835494Y-108223193D01*
X101835494Y-108223193D02*
X101777119Y-108213064D01*
X101777119Y-108213064D02*
X101718317Y-108205812D01*
X101718317Y-108205812D02*
X101659229Y-108201453D01*
X101659229Y-108201453D02*
X101600000Y-108200000D01*
X101600000Y-108200000D02*
X98400000Y-108200000D01*
D15*
X86850000Y-111200000D02*
X86707876Y-111193017D01*
X86707876Y-111193017D02*
X86567120Y-111172138D01*
X86567120Y-111172138D02*
X86429088Y-111137563D01*
X86429088Y-111137563D02*
X86295110Y-111089625D01*
X86295110Y-111089625D02*
X86166475Y-111028785D01*
X86166475Y-111028785D02*
X86044424Y-110955630D01*
X86044424Y-110955630D02*
X85930130Y-110870865D01*
X85930130Y-110870865D02*
X85824696Y-110775304D01*
X85824696Y-110775304D02*
X85729135Y-110669870D01*
X85729135Y-110669870D02*
X85644370Y-110555576D01*
X85644370Y-110555576D02*
X85571215Y-110433525D01*
X85571215Y-110433525D02*
X85510375Y-110304890D01*
X85510375Y-110304890D02*
X85462437Y-110170912D01*
X85462437Y-110170912D02*
X85427862Y-110032880D01*
X85427862Y-110032880D02*
X85406983Y-109892124D01*
X85406983Y-109892124D02*
X85400000Y-109750000D01*
X85400000Y-105450000D02*
X85400000Y-109750000D01*
X85400000Y-105450000D02*
X85398983Y-105408539D01*
X85398983Y-105408539D02*
X85395932Y-105367177D01*
X85395932Y-105367177D02*
X85390855Y-105326016D01*
X85390855Y-105326016D02*
X85383765Y-105285153D01*
X85383765Y-105285153D02*
X85374678Y-105244687D01*
X85374678Y-105244687D02*
X85363617Y-105204716D01*
X85363617Y-105204716D02*
X85350607Y-105165336D01*
X85350607Y-105165336D02*
X85335681Y-105126641D01*
X85335681Y-105126641D02*
X85318874Y-105088726D01*
X85318874Y-105088726D02*
X85300227Y-105051681D01*
X85300227Y-105051681D02*
X85279785Y-105015595D01*
X85279785Y-105015595D02*
X85257597Y-104980556D01*
X85257597Y-104980556D02*
X85233716Y-104946648D01*
X85233716Y-104946648D02*
X85208201Y-104913952D01*
X85208201Y-104913952D02*
X85181111Y-104882548D01*
X85181111Y-104882548D02*
X85152513Y-104852512D01*
X85152513Y-104852512D02*
X84300000Y-104000000D01*
X98000000Y-111200000D02*
X86850000Y-111200000D01*
X98000000Y-111200000D02*
X98177690Y-111195637D01*
X98177690Y-111195637D02*
X98354952Y-111182561D01*
X98354952Y-111182561D02*
X98531359Y-111160804D01*
X98531359Y-111160804D02*
X98706485Y-111130416D01*
X98706485Y-111130416D02*
X98879910Y-111091473D01*
X98879910Y-111091473D02*
X99051214Y-111044066D01*
X99051214Y-111044066D02*
X99219987Y-110988311D01*
X99219987Y-110988311D02*
X99385820Y-110924342D01*
X99385820Y-110924342D02*
X99548314Y-110852313D01*
X99548314Y-110852313D02*
X99707079Y-110772398D01*
X99707079Y-110772398D02*
X99861731Y-110684789D01*
X99861731Y-110684789D02*
X100011897Y-110589696D01*
X100011897Y-110589696D02*
X100157217Y-110487350D01*
X100157217Y-110487350D02*
X100297341Y-110377997D01*
X100297341Y-110377997D02*
X100431929Y-110261900D01*
X100431929Y-110261900D02*
X100560660Y-110139339D01*
X100560660Y-110139339D02*
X101250000Y-109450000D01*
X85805057Y-109852917D02*
X85800000Y-109750000D01*
X85820176Y-109954844D02*
X85805057Y-109852917D01*
X86545202Y-110754787D02*
X86448183Y-110720073D01*
X86747083Y-110794943D02*
X86645156Y-110779824D01*
X86645156Y-110779824D02*
X86545202Y-110754787D01*
X85923983Y-110244966D02*
X85879927Y-110151817D01*
X86850000Y-110800000D02*
X86747083Y-110794943D01*
X85800000Y-109750000D02*
X85800000Y-104000000D01*
X86448183Y-110720073D02*
X86355034Y-110676017D01*
X86355034Y-110676017D02*
X86266652Y-110623043D01*
X86266652Y-110623043D02*
X86183888Y-110561660D01*
X86183888Y-110561660D02*
X86107538Y-110492462D01*
X86107538Y-110492462D02*
X86038340Y-110416112D01*
X86038340Y-110416112D02*
X85976957Y-110333348D01*
X85976957Y-110333348D02*
X85923983Y-110244966D01*
X85879927Y-110151817D02*
X85845213Y-110054798D01*
X85845213Y-110054798D02*
X85820176Y-109954844D01*
X97960661Y-109739339D02*
X98250000Y-109450000D01*
X97960661Y-109739339D02*
X97831931Y-109861900D01*
X97831931Y-109861900D02*
X97697343Y-109977997D01*
X97697343Y-109977997D02*
X97557219Y-110087350D01*
X97557219Y-110087350D02*
X97411899Y-110189696D01*
X97411899Y-110189696D02*
X97261732Y-110284789D01*
X97261732Y-110284789D02*
X97107080Y-110372398D01*
X97107080Y-110372398D02*
X96948315Y-110452313D01*
X96948315Y-110452313D02*
X96785820Y-110524342D01*
X96785820Y-110524342D02*
X96619987Y-110588311D01*
X96619987Y-110588311D02*
X96451215Y-110644066D01*
X96451215Y-110644066D02*
X96279910Y-110691473D01*
X96279910Y-110691473D02*
X96106485Y-110730416D01*
X96106485Y-110730416D02*
X95931359Y-110760804D01*
X95931359Y-110760804D02*
X95754952Y-110782561D01*
X95754952Y-110782561D02*
X95577690Y-110795637D01*
X95577690Y-110795637D02*
X95400000Y-110800000D01*
X95400000Y-110800000D02*
X86850000Y-110800000D01*
D16*
G36*
X103745189Y-100394376D02*
G01*
X103908850Y-100444022D01*
X104059672Y-100524638D01*
X104191870Y-100633130D01*
X104300362Y-100765328D01*
X104380978Y-100916150D01*
X104430624Y-101079811D01*
X104448000Y-101256234D01*
X104448000Y-101331325D01*
X104447000Y-101332046D01*
X104447000Y-102473000D01*
X104448000Y-102473000D01*
X104448000Y-102727000D01*
X104447000Y-102727000D01*
X104447000Y-103867954D01*
X104448000Y-103868675D01*
X104448000Y-105261325D01*
X104447000Y-105262046D01*
X104447000Y-106653000D01*
X104448000Y-106653000D01*
X104448000Y-106907000D01*
X104447000Y-106907000D01*
X104447000Y-106927000D01*
X104193000Y-106927000D01*
X104193000Y-106907000D01*
X104173000Y-106907000D01*
X104173000Y-106653000D01*
X104193000Y-106653000D01*
X104193000Y-105262046D01*
X104018126Y-105135881D01*
X103795024Y-105215724D01*
X103607236Y-105337631D01*
X103446839Y-105493831D01*
X103319997Y-105678322D01*
X103295007Y-105736462D01*
X103198838Y-105672205D01*
X103080181Y-105623056D01*
X102954216Y-105598000D01*
X102825784Y-105598000D01*
X102699819Y-105623056D01*
X102581162Y-105672205D01*
X102474374Y-105743558D01*
X102383558Y-105834374D01*
X102312205Y-105941162D01*
X102263056Y-106059819D01*
X102238000Y-106185784D01*
X102238000Y-106314216D01*
X102263056Y-106440181D01*
X102312205Y-106558838D01*
X102383558Y-106665626D01*
X102474374Y-106756442D01*
X102581162Y-106827795D01*
X102699819Y-106876944D01*
X102825784Y-106902000D01*
X102954216Y-106902000D01*
X103080181Y-106876944D01*
X103185000Y-106833527D01*
X103185000Y-107420690D01*
X103179198Y-107416162D01*
X103168270Y-107409242D01*
X103157682Y-107401785D01*
X103146413Y-107395401D01*
X103058126Y-107339494D01*
X103047545Y-107332042D01*
X103036284Y-107325663D01*
X103025344Y-107318735D01*
X103013779Y-107312914D01*
X102922853Y-107261404D01*
X102911916Y-107254479D01*
X102900358Y-107248661D01*
X102889097Y-107242282D01*
X102877259Y-107237034D01*
X102783918Y-107190052D01*
X102772655Y-107183671D01*
X102760812Y-107178421D01*
X102749253Y-107172603D01*
X102737187Y-107167949D01*
X102641634Y-107125592D01*
X102630076Y-107119774D01*
X102618012Y-107115120D01*
X102606172Y-107109872D01*
X102593870Y-107105808D01*
X102496377Y-107068201D01*
X102484540Y-107062954D01*
X102472244Y-107058892D01*
X102460171Y-107054235D01*
X102447699Y-107050784D01*
X102348467Y-107018002D01*
X102336391Y-107013344D01*
X102323915Y-107009891D01*
X102311624Y-107005831D01*
X102298997Y-107002995D01*
X102198281Y-106975123D01*
X102185985Y-106971061D01*
X102173350Y-106968224D01*
X102160881Y-106964773D01*
X102148131Y-106962561D01*
X102046152Y-106939660D01*
X102033684Y-106936210D01*
X102020940Y-106933999D01*
X102008303Y-106931161D01*
X101995448Y-106929575D01*
X101892504Y-106911713D01*
X101879856Y-106908873D01*
X101866990Y-106907286D01*
X101854258Y-106905077D01*
X101841367Y-106904126D01*
X101737627Y-106891331D01*
X101724877Y-106889119D01*
X101711968Y-106888167D01*
X101699118Y-106886582D01*
X101686175Y-106886264D01*
X101581961Y-106878577D01*
X101569107Y-106876992D01*
X101556159Y-106876674D01*
X101543263Y-106875723D01*
X101530332Y-106876040D01*
X101432329Y-106873635D01*
X101425881Y-106873000D01*
X101406452Y-106873000D01*
X101387057Y-106872524D01*
X101380604Y-106873000D01*
X98619395Y-106873000D01*
X98612943Y-106872524D01*
X98593548Y-106873000D01*
X98574119Y-106873000D01*
X98567671Y-106873635D01*
X98469667Y-106876040D01*
X98456736Y-106875723D01*
X98443840Y-106876674D01*
X98430892Y-106876992D01*
X98418038Y-106878577D01*
X98313808Y-106886266D01*
X98300881Y-106886583D01*
X98288049Y-106888166D01*
X98275123Y-106889119D01*
X98262359Y-106891334D01*
X98158638Y-106904126D01*
X98145741Y-106905077D01*
X98133005Y-106907287D01*
X98120144Y-106908873D01*
X98107499Y-106911713D01*
X98004554Y-106929575D01*
X97991696Y-106931161D01*
X97979056Y-106933999D01*
X97966316Y-106936210D01*
X97953851Y-106939659D01*
X97851871Y-106962560D01*
X97839118Y-106964773D01*
X97826645Y-106968225D01*
X97814015Y-106971061D01*
X97801722Y-106975122D01*
X97700999Y-107002997D01*
X97688377Y-107005831D01*
X97676091Y-107009890D01*
X97663609Y-107013344D01*
X97651530Y-107018003D01*
X97552303Y-107050783D01*
X97539829Y-107054235D01*
X97527756Y-107058892D01*
X97515460Y-107062954D01*
X97503623Y-107068201D01*
X97406131Y-107105807D01*
X97393828Y-107109872D01*
X97381988Y-107115120D01*
X97369924Y-107119774D01*
X97358367Y-107125591D01*
X97262813Y-107167949D01*
X97250747Y-107172603D01*
X97239188Y-107178421D01*
X97227345Y-107183671D01*
X97216082Y-107190052D01*
X97122735Y-107237037D01*
X97110904Y-107242282D01*
X97099650Y-107248657D01*
X97088084Y-107254479D01*
X97077141Y-107261409D01*
X96986210Y-107312920D01*
X96974656Y-107318736D01*
X96963729Y-107325655D01*
X96952455Y-107332042D01*
X96941863Y-107339502D01*
X96853597Y-107395395D01*
X96842317Y-107401785D01*
X96831721Y-107409248D01*
X96820802Y-107416162D01*
X96815000Y-107420690D01*
X96815000Y-106833527D01*
X96919819Y-106876944D01*
X97045784Y-106902000D01*
X97174216Y-106902000D01*
X97300181Y-106876944D01*
X97418838Y-106827795D01*
X97525626Y-106756442D01*
X97616442Y-106665626D01*
X97687795Y-106558838D01*
X97736944Y-106440181D01*
X97762000Y-106314216D01*
X97762000Y-106185784D01*
X97736944Y-106059819D01*
X97687795Y-105941162D01*
X97616442Y-105834374D01*
X97525626Y-105743558D01*
X97418838Y-105672205D01*
X97300181Y-105623056D01*
X97174216Y-105598000D01*
X97045784Y-105598000D01*
X96919819Y-105623056D01*
X96801162Y-105672205D01*
X96704993Y-105736462D01*
X96680003Y-105678322D01*
X96553161Y-105493831D01*
X96392764Y-105337631D01*
X96204976Y-105215724D01*
X95981874Y-105135881D01*
X95807000Y-105262046D01*
X95807000Y-106653000D01*
X95827000Y-106653000D01*
X95827000Y-106907000D01*
X95807000Y-106907000D01*
X95807000Y-106927000D01*
X95553000Y-106927000D01*
X95553000Y-106907000D01*
X95552000Y-106907000D01*
X95552000Y-106653000D01*
X95553000Y-106653000D01*
X95553000Y-105262046D01*
X95552000Y-105261325D01*
X95552000Y-103868675D01*
X95553000Y-103867954D01*
X95553000Y-102727000D01*
X95807000Y-102727000D01*
X95807000Y-103867954D01*
X95981874Y-103994119D01*
X96204976Y-103914276D01*
X96392764Y-103792369D01*
X96553161Y-103636169D01*
X96680003Y-103451678D01*
X96768415Y-103245987D01*
X96815000Y-103027000D01*
X96815000Y-102727000D01*
X103185000Y-102727000D01*
X103185000Y-103027000D01*
X103231585Y-103245987D01*
X103319997Y-103451678D01*
X103446839Y-103636169D01*
X103607236Y-103792369D01*
X103795024Y-103914276D01*
X104018126Y-103994119D01*
X104193000Y-103867954D01*
X104193000Y-102727000D01*
X103185000Y-102727000D01*
X96815000Y-102727000D01*
X95807000Y-102727000D01*
X95553000Y-102727000D01*
X95552000Y-102727000D01*
X95552000Y-102473000D01*
X95553000Y-102473000D01*
X95553000Y-101332046D01*
X95807000Y-101332046D01*
X95807000Y-102473000D01*
X96815000Y-102473000D01*
X96815000Y-102173000D01*
X103185000Y-102173000D01*
X103185000Y-102473000D01*
X104193000Y-102473000D01*
X104193000Y-101332046D01*
X104018126Y-101205881D01*
X103795024Y-101285724D01*
X103607236Y-101407631D01*
X103446839Y-101563831D01*
X103319997Y-101748322D01*
X103231585Y-101954013D01*
X103185000Y-102173000D01*
X96815000Y-102173000D01*
X96768415Y-101954013D01*
X96680003Y-101748322D01*
X96553161Y-101563831D01*
X96392764Y-101407631D01*
X96204976Y-101285724D01*
X95981874Y-101205881D01*
X95807000Y-101332046D01*
X95553000Y-101332046D01*
X95552000Y-101331325D01*
X95552000Y-101256234D01*
X95569376Y-101079811D01*
X95619022Y-100916150D01*
X95699638Y-100765328D01*
X95808130Y-100633130D01*
X95940328Y-100524638D01*
X96091150Y-100444022D01*
X96254811Y-100394376D01*
X96431234Y-100377000D01*
X103568766Y-100377000D01*
X103745189Y-100394376D01*
X103745189Y-100394376D01*
G37*
X103745189Y-100394376D02*
X103908850Y-100444022D01*
X104059672Y-100524638D01*
X104191870Y-100633130D01*
X104300362Y-100765328D01*
X104380978Y-100916150D01*
X104430624Y-101079811D01*
X104448000Y-101256234D01*
X104448000Y-101331325D01*
X104447000Y-101332046D01*
X104447000Y-102473000D01*
X104448000Y-102473000D01*
X104448000Y-102727000D01*
X104447000Y-102727000D01*
X104447000Y-103867954D01*
X104448000Y-103868675D01*
X104448000Y-105261325D01*
X104447000Y-105262046D01*
X104447000Y-106653000D01*
X104448000Y-106653000D01*
X104448000Y-106907000D01*
X104447000Y-106907000D01*
X104447000Y-106927000D01*
X104193000Y-106927000D01*
X104193000Y-106907000D01*
X104173000Y-106907000D01*
X104173000Y-106653000D01*
X104193000Y-106653000D01*
X104193000Y-105262046D01*
X104018126Y-105135881D01*
X103795024Y-105215724D01*
X103607236Y-105337631D01*
X103446839Y-105493831D01*
X103319997Y-105678322D01*
X103295007Y-105736462D01*
X103198838Y-105672205D01*
X103080181Y-105623056D01*
X102954216Y-105598000D01*
X102825784Y-105598000D01*
X102699819Y-105623056D01*
X102581162Y-105672205D01*
X102474374Y-105743558D01*
X102383558Y-105834374D01*
X102312205Y-105941162D01*
X102263056Y-106059819D01*
X102238000Y-106185784D01*
X102238000Y-106314216D01*
X102263056Y-106440181D01*
X102312205Y-106558838D01*
X102383558Y-106665626D01*
X102474374Y-106756442D01*
X102581162Y-106827795D01*
X102699819Y-106876944D01*
X102825784Y-106902000D01*
X102954216Y-106902000D01*
X103080181Y-106876944D01*
X103185000Y-106833527D01*
X103185000Y-107420690D01*
X103179198Y-107416162D01*
X103168270Y-107409242D01*
X103157682Y-107401785D01*
X103146413Y-107395401D01*
X103058126Y-107339494D01*
X103047545Y-107332042D01*
X103036284Y-107325663D01*
X103025344Y-107318735D01*
X103013779Y-107312914D01*
X102922853Y-107261404D01*
X102911916Y-107254479D01*
X102900358Y-107248661D01*
X102889097Y-107242282D01*
X102877259Y-107237034D01*
X102783918Y-107190052D01*
X102772655Y-107183671D01*
X102760812Y-107178421D01*
X102749253Y-107172603D01*
X102737187Y-107167949D01*
X102641634Y-107125592D01*
X102630076Y-107119774D01*
X102618012Y-107115120D01*
X102606172Y-107109872D01*
X102593870Y-107105808D01*
X102496377Y-107068201D01*
X102484540Y-107062954D01*
X102472244Y-107058892D01*
X102460171Y-107054235D01*
X102447699Y-107050784D01*
X102348467Y-107018002D01*
X102336391Y-107013344D01*
X102323915Y-107009891D01*
X102311624Y-107005831D01*
X102298997Y-107002995D01*
X102198281Y-106975123D01*
X102185985Y-106971061D01*
X102173350Y-106968224D01*
X102160881Y-106964773D01*
X102148131Y-106962561D01*
X102046152Y-106939660D01*
X102033684Y-106936210D01*
X102020940Y-106933999D01*
X102008303Y-106931161D01*
X101995448Y-106929575D01*
X101892504Y-106911713D01*
X101879856Y-106908873D01*
X101866990Y-106907286D01*
X101854258Y-106905077D01*
X101841367Y-106904126D01*
X101737627Y-106891331D01*
X101724877Y-106889119D01*
X101711968Y-106888167D01*
X101699118Y-106886582D01*
X101686175Y-106886264D01*
X101581961Y-106878577D01*
X101569107Y-106876992D01*
X101556159Y-106876674D01*
X101543263Y-106875723D01*
X101530332Y-106876040D01*
X101432329Y-106873635D01*
X101425881Y-106873000D01*
X101406452Y-106873000D01*
X101387057Y-106872524D01*
X101380604Y-106873000D01*
X98619395Y-106873000D01*
X98612943Y-106872524D01*
X98593548Y-106873000D01*
X98574119Y-106873000D01*
X98567671Y-106873635D01*
X98469667Y-106876040D01*
X98456736Y-106875723D01*
X98443840Y-106876674D01*
X98430892Y-106876992D01*
X98418038Y-106878577D01*
X98313808Y-106886266D01*
X98300881Y-106886583D01*
X98288049Y-106888166D01*
X98275123Y-106889119D01*
X98262359Y-106891334D01*
X98158638Y-106904126D01*
X98145741Y-106905077D01*
X98133005Y-106907287D01*
X98120144Y-106908873D01*
X98107499Y-106911713D01*
X98004554Y-106929575D01*
X97991696Y-106931161D01*
X97979056Y-106933999D01*
X97966316Y-106936210D01*
X97953851Y-106939659D01*
X97851871Y-106962560D01*
X97839118Y-106964773D01*
X97826645Y-106968225D01*
X97814015Y-106971061D01*
X97801722Y-106975122D01*
X97700999Y-107002997D01*
X97688377Y-107005831D01*
X97676091Y-107009890D01*
X97663609Y-107013344D01*
X97651530Y-107018003D01*
X97552303Y-107050783D01*
X97539829Y-107054235D01*
X97527756Y-107058892D01*
X97515460Y-107062954D01*
X97503623Y-107068201D01*
X97406131Y-107105807D01*
X97393828Y-107109872D01*
X97381988Y-107115120D01*
X97369924Y-107119774D01*
X97358367Y-107125591D01*
X97262813Y-107167949D01*
X97250747Y-107172603D01*
X97239188Y-107178421D01*
X97227345Y-107183671D01*
X97216082Y-107190052D01*
X97122735Y-107237037D01*
X97110904Y-107242282D01*
X97099650Y-107248657D01*
X97088084Y-107254479D01*
X97077141Y-107261409D01*
X96986210Y-107312920D01*
X96974656Y-107318736D01*
X96963729Y-107325655D01*
X96952455Y-107332042D01*
X96941863Y-107339502D01*
X96853597Y-107395395D01*
X96842317Y-107401785D01*
X96831721Y-107409248D01*
X96820802Y-107416162D01*
X96815000Y-107420690D01*
X96815000Y-106833527D01*
X96919819Y-106876944D01*
X97045784Y-106902000D01*
X97174216Y-106902000D01*
X97300181Y-106876944D01*
X97418838Y-106827795D01*
X97525626Y-106756442D01*
X97616442Y-106665626D01*
X97687795Y-106558838D01*
X97736944Y-106440181D01*
X97762000Y-106314216D01*
X97762000Y-106185784D01*
X97736944Y-106059819D01*
X97687795Y-105941162D01*
X97616442Y-105834374D01*
X97525626Y-105743558D01*
X97418838Y-105672205D01*
X97300181Y-105623056D01*
X97174216Y-105598000D01*
X97045784Y-105598000D01*
X96919819Y-105623056D01*
X96801162Y-105672205D01*
X96704993Y-105736462D01*
X96680003Y-105678322D01*
X96553161Y-105493831D01*
X96392764Y-105337631D01*
X96204976Y-105215724D01*
X95981874Y-105135881D01*
X95807000Y-105262046D01*
X95807000Y-106653000D01*
X95827000Y-106653000D01*
X95827000Y-106907000D01*
X95807000Y-106907000D01*
X95807000Y-106927000D01*
X95553000Y-106927000D01*
X95553000Y-106907000D01*
X95552000Y-106907000D01*
X95552000Y-106653000D01*
X95553000Y-106653000D01*
X95553000Y-105262046D01*
X95552000Y-105261325D01*
X95552000Y-103868675D01*
X95553000Y-103867954D01*
X95553000Y-102727000D01*
X95807000Y-102727000D01*
X95807000Y-103867954D01*
X95981874Y-103994119D01*
X96204976Y-103914276D01*
X96392764Y-103792369D01*
X96553161Y-103636169D01*
X96680003Y-103451678D01*
X96768415Y-103245987D01*
X96815000Y-103027000D01*
X96815000Y-102727000D01*
X103185000Y-102727000D01*
X103185000Y-103027000D01*
X103231585Y-103245987D01*
X103319997Y-103451678D01*
X103446839Y-103636169D01*
X103607236Y-103792369D01*
X103795024Y-103914276D01*
X104018126Y-103994119D01*
X104193000Y-103867954D01*
X104193000Y-102727000D01*
X103185000Y-102727000D01*
X96815000Y-102727000D01*
X95807000Y-102727000D01*
X95553000Y-102727000D01*
X95552000Y-102727000D01*
X95552000Y-102473000D01*
X95553000Y-102473000D01*
X95553000Y-101332046D01*
X95807000Y-101332046D01*
X95807000Y-102473000D01*
X96815000Y-102473000D01*
X96815000Y-102173000D01*
X103185000Y-102173000D01*
X103185000Y-102473000D01*
X104193000Y-102473000D01*
X104193000Y-101332046D01*
X104018126Y-101205881D01*
X103795024Y-101285724D01*
X103607236Y-101407631D01*
X103446839Y-101563831D01*
X103319997Y-101748322D01*
X103231585Y-101954013D01*
X103185000Y-102173000D01*
X96815000Y-102173000D01*
X96768415Y-101954013D01*
X96680003Y-101748322D01*
X96553161Y-101563831D01*
X96392764Y-101407631D01*
X96204976Y-101285724D01*
X95981874Y-101205881D01*
X95807000Y-101332046D01*
X95553000Y-101332046D01*
X95552000Y-101331325D01*
X95552000Y-101256234D01*
X95569376Y-101079811D01*
X95619022Y-100916150D01*
X95699638Y-100765328D01*
X95808130Y-100633130D01*
X95940328Y-100524638D01*
X96091150Y-100444022D01*
X96254811Y-100394376D01*
X96431234Y-100377000D01*
X103568766Y-100377000D01*
X103745189Y-100394376D01*
G36*
X90916504Y-100396385D02*
G01*
X91177593Y-100453181D01*
X91427940Y-100546556D01*
X91662445Y-100674605D01*
X91876338Y-100834724D01*
X92065276Y-101023662D01*
X92225395Y-101237555D01*
X92353444Y-101472060D01*
X92446819Y-101722407D01*
X92503615Y-101983496D01*
X92523000Y-102254530D01*
X92523000Y-108293965D01*
X92487942Y-108300938D01*
X92355636Y-108355741D01*
X92236564Y-108435302D01*
X92135302Y-108536564D01*
X92055741Y-108655636D01*
X92000938Y-108787942D01*
X91973000Y-108928397D01*
X91973000Y-109071603D01*
X92000938Y-109212058D01*
X92055741Y-109344364D01*
X92135302Y-109463436D01*
X92236564Y-109564698D01*
X92355636Y-109644259D01*
X92487942Y-109699062D01*
X92523000Y-109706035D01*
X92523000Y-109745470D01*
X92503615Y-110016504D01*
X92446819Y-110277593D01*
X92411234Y-110373000D01*
X86860469Y-110373000D01*
X86788983Y-110369487D01*
X86728561Y-110360524D01*
X86669306Y-110345682D01*
X86611784Y-110325100D01*
X86556568Y-110298986D01*
X86504165Y-110267577D01*
X86455098Y-110231185D01*
X86409837Y-110190163D01*
X86368812Y-110144899D01*
X86332423Y-110095836D01*
X86301017Y-110043437D01*
X86274898Y-109988214D01*
X86254320Y-109930703D01*
X86239476Y-109871440D01*
X86230512Y-109811008D01*
X86227000Y-109739535D01*
X86227000Y-104589044D01*
X86263436Y-104564698D01*
X86364698Y-104463436D01*
X86444259Y-104344364D01*
X86499062Y-104212058D01*
X86527000Y-104071603D01*
X86527000Y-103928397D01*
X86499062Y-103787942D01*
X86444259Y-103655636D01*
X86364698Y-103536564D01*
X86263436Y-103435302D01*
X86144364Y-103355741D01*
X86012058Y-103300938D01*
X85871603Y-103273000D01*
X85728397Y-103273000D01*
X85587942Y-103300938D01*
X85455636Y-103355741D01*
X85336564Y-103435302D01*
X85235302Y-103536564D01*
X85155741Y-103655636D01*
X85100938Y-103787942D01*
X85073000Y-103928397D01*
X85073000Y-104071603D01*
X85097216Y-104193347D01*
X85018451Y-104114582D01*
X85027000Y-104071603D01*
X85027000Y-103928397D01*
X84999062Y-103787942D01*
X84944259Y-103655636D01*
X84864698Y-103536564D01*
X84763436Y-103435302D01*
X84644364Y-103355741D01*
X84512058Y-103300938D01*
X84371603Y-103273000D01*
X84228397Y-103273000D01*
X84087942Y-103300938D01*
X83955636Y-103355741D01*
X83836564Y-103435302D01*
X83735302Y-103536564D01*
X83655741Y-103655636D01*
X83600938Y-103787942D01*
X83573000Y-103928397D01*
X83573000Y-104071603D01*
X83600938Y-104212058D01*
X83655741Y-104344364D01*
X83735302Y-104463436D01*
X83836564Y-104564698D01*
X83955636Y-104644259D01*
X84087942Y-104699062D01*
X84228397Y-104727000D01*
X84371603Y-104727000D01*
X84414582Y-104718451D01*
X84846884Y-105150752D01*
X84864643Y-105169404D01*
X84878022Y-105184914D01*
X84890646Y-105201091D01*
X84902449Y-105217849D01*
X84913420Y-105235174D01*
X84923536Y-105253031D01*
X84932755Y-105271347D01*
X84941065Y-105290094D01*
X84948447Y-105309230D01*
X84954884Y-105328714D01*
X84960347Y-105348456D01*
X84964845Y-105368489D01*
X84968349Y-105388682D01*
X84970861Y-105409045D01*
X84972368Y-105429481D01*
X84973000Y-105455230D01*
X84973001Y-109739498D01*
X84972485Y-109750001D01*
X84973001Y-109760503D01*
X84973001Y-109770978D01*
X84974028Y-109781406D01*
X84981527Y-109934030D01*
X84990776Y-109996381D01*
X84999313Y-110053932D01*
X85000438Y-110061517D01*
X85008562Y-110116284D01*
X85023877Y-110177427D01*
X85023879Y-110177431D01*
X85038015Y-110233866D01*
X85038015Y-110233868D01*
X85043785Y-110256902D01*
X85053331Y-110295012D01*
X85074454Y-110354047D01*
X85115403Y-110468493D01*
X85142353Y-110525474D01*
X85194181Y-110635055D01*
X85226587Y-110689120D01*
X85288906Y-110793092D01*
X85326102Y-110843245D01*
X85361112Y-110890451D01*
X85361114Y-110890456D01*
X85386387Y-110924532D01*
X85398573Y-110940962D01*
X85398663Y-110941084D01*
X85410473Y-110954114D01*
X85440990Y-110987785D01*
X85440993Y-110987787D01*
X85480064Y-111030895D01*
X85480065Y-111030896D01*
X85509967Y-111063887D01*
X85522400Y-111077605D01*
X85531748Y-111086077D01*
X85612213Y-111159007D01*
X85612215Y-111159010D01*
X85634502Y-111179209D01*
X85658916Y-111201337D01*
X85709544Y-111238886D01*
X85709550Y-111238889D01*
X85756279Y-111273545D01*
X85756280Y-111273546D01*
X85806908Y-111311094D01*
X85964946Y-111405819D01*
X86021927Y-111432769D01*
X86021928Y-111432769D01*
X86074523Y-111457645D01*
X86074526Y-111457647D01*
X86131507Y-111484597D01*
X86304987Y-111546669D01*
X86366131Y-111561985D01*
X86366133Y-111561985D01*
X86422570Y-111576122D01*
X86422573Y-111576123D01*
X86483716Y-111591438D01*
X86510583Y-111595423D01*
X86546067Y-111600687D01*
X86546068Y-111600687D01*
X86603618Y-111609224D01*
X86603619Y-111609224D01*
X86665969Y-111618473D01*
X86758119Y-111623000D01*
X77654530Y-111623000D01*
X77383496Y-111603615D01*
X77122407Y-111546819D01*
X76872060Y-111453444D01*
X76637555Y-111325395D01*
X76423662Y-111165276D01*
X76234724Y-110976338D01*
X76074605Y-110762445D01*
X75946556Y-110527940D01*
X75853181Y-110277593D01*
X75796385Y-110016504D01*
X75777000Y-109745470D01*
X75777000Y-102254530D01*
X75796385Y-101983496D01*
X75853181Y-101722407D01*
X75946556Y-101472060D01*
X76074605Y-101237555D01*
X76234724Y-101023662D01*
X76423662Y-100834724D01*
X76637555Y-100674605D01*
X76872060Y-100546556D01*
X77122407Y-100453181D01*
X77383496Y-100396385D01*
X77654530Y-100377000D01*
X90645470Y-100377000D01*
X90916504Y-100396385D01*
X90916504Y-100396385D01*
G37*
X90916504Y-100396385D02*
X91177593Y-100453181D01*
X91427940Y-100546556D01*
X91662445Y-100674605D01*
X91876338Y-100834724D01*
X92065276Y-101023662D01*
X92225395Y-101237555D01*
X92353444Y-101472060D01*
X92446819Y-101722407D01*
X92503615Y-101983496D01*
X92523000Y-102254530D01*
X92523000Y-108293965D01*
X92487942Y-108300938D01*
X92355636Y-108355741D01*
X92236564Y-108435302D01*
X92135302Y-108536564D01*
X92055741Y-108655636D01*
X92000938Y-108787942D01*
X91973000Y-108928397D01*
X91973000Y-109071603D01*
X92000938Y-109212058D01*
X92055741Y-109344364D01*
X92135302Y-109463436D01*
X92236564Y-109564698D01*
X92355636Y-109644259D01*
X92487942Y-109699062D01*
X92523000Y-109706035D01*
X92523000Y-109745470D01*
X92503615Y-110016504D01*
X92446819Y-110277593D01*
X92411234Y-110373000D01*
X86860469Y-110373000D01*
X86788983Y-110369487D01*
X86728561Y-110360524D01*
X86669306Y-110345682D01*
X86611784Y-110325100D01*
X86556568Y-110298986D01*
X86504165Y-110267577D01*
X86455098Y-110231185D01*
X86409837Y-110190163D01*
X86368812Y-110144899D01*
X86332423Y-110095836D01*
X86301017Y-110043437D01*
X86274898Y-109988214D01*
X86254320Y-109930703D01*
X86239476Y-109871440D01*
X86230512Y-109811008D01*
X86227000Y-109739535D01*
X86227000Y-104589044D01*
X86263436Y-104564698D01*
X86364698Y-104463436D01*
X86444259Y-104344364D01*
X86499062Y-104212058D01*
X86527000Y-104071603D01*
X86527000Y-103928397D01*
X86499062Y-103787942D01*
X86444259Y-103655636D01*
X86364698Y-103536564D01*
X86263436Y-103435302D01*
X86144364Y-103355741D01*
X86012058Y-103300938D01*
X85871603Y-103273000D01*
X85728397Y-103273000D01*
X85587942Y-103300938D01*
X85455636Y-103355741D01*
X85336564Y-103435302D01*
X85235302Y-103536564D01*
X85155741Y-103655636D01*
X85100938Y-103787942D01*
X85073000Y-103928397D01*
X85073000Y-104071603D01*
X85097216Y-104193347D01*
X85018451Y-104114582D01*
X85027000Y-104071603D01*
X85027000Y-103928397D01*
X84999062Y-103787942D01*
X84944259Y-103655636D01*
X84864698Y-103536564D01*
X84763436Y-103435302D01*
X84644364Y-103355741D01*
X84512058Y-103300938D01*
X84371603Y-103273000D01*
X84228397Y-103273000D01*
X84087942Y-103300938D01*
X83955636Y-103355741D01*
X83836564Y-103435302D01*
X83735302Y-103536564D01*
X83655741Y-103655636D01*
X83600938Y-103787942D01*
X83573000Y-103928397D01*
X83573000Y-104071603D01*
X83600938Y-104212058D01*
X83655741Y-104344364D01*
X83735302Y-104463436D01*
X83836564Y-104564698D01*
X83955636Y-104644259D01*
X84087942Y-104699062D01*
X84228397Y-104727000D01*
X84371603Y-104727000D01*
X84414582Y-104718451D01*
X84846884Y-105150752D01*
X84864643Y-105169404D01*
X84878022Y-105184914D01*
X84890646Y-105201091D01*
X84902449Y-105217849D01*
X84913420Y-105235174D01*
X84923536Y-105253031D01*
X84932755Y-105271347D01*
X84941065Y-105290094D01*
X84948447Y-105309230D01*
X84954884Y-105328714D01*
X84960347Y-105348456D01*
X84964845Y-105368489D01*
X84968349Y-105388682D01*
X84970861Y-105409045D01*
X84972368Y-105429481D01*
X84973000Y-105455230D01*
X84973001Y-109739498D01*
X84972485Y-109750001D01*
X84973001Y-109760503D01*
X84973001Y-109770978D01*
X84974028Y-109781406D01*
X84981527Y-109934030D01*
X84990776Y-109996381D01*
X84999313Y-110053932D01*
X85000438Y-110061517D01*
X85008562Y-110116284D01*
X85023877Y-110177427D01*
X85023879Y-110177431D01*
X85038015Y-110233866D01*
X85038015Y-110233868D01*
X85043785Y-110256902D01*
X85053331Y-110295012D01*
X85074454Y-110354047D01*
X85115403Y-110468493D01*
X85142353Y-110525474D01*
X85194181Y-110635055D01*
X85226587Y-110689120D01*
X85288906Y-110793092D01*
X85326102Y-110843245D01*
X85361112Y-110890451D01*
X85361114Y-110890456D01*
X85386387Y-110924532D01*
X85398573Y-110940962D01*
X85398663Y-110941084D01*
X85410473Y-110954114D01*
X85440990Y-110987785D01*
X85440993Y-110987787D01*
X85480064Y-111030895D01*
X85480065Y-111030896D01*
X85509967Y-111063887D01*
X85522400Y-111077605D01*
X85531748Y-111086077D01*
X85612213Y-111159007D01*
X85612215Y-111159010D01*
X85634502Y-111179209D01*
X85658916Y-111201337D01*
X85709544Y-111238886D01*
X85709550Y-111238889D01*
X85756279Y-111273545D01*
X85756280Y-111273546D01*
X85806908Y-111311094D01*
X85964946Y-111405819D01*
X86021927Y-111432769D01*
X86021928Y-111432769D01*
X86074523Y-111457645D01*
X86074526Y-111457647D01*
X86131507Y-111484597D01*
X86304987Y-111546669D01*
X86366131Y-111561985D01*
X86366133Y-111561985D01*
X86422570Y-111576122D01*
X86422573Y-111576123D01*
X86483716Y-111591438D01*
X86510583Y-111595423D01*
X86546067Y-111600687D01*
X86546068Y-111600687D01*
X86603618Y-111609224D01*
X86603619Y-111609224D01*
X86665969Y-111618473D01*
X86758119Y-111623000D01*
X77654530Y-111623000D01*
X77383496Y-111603615D01*
X77122407Y-111546819D01*
X76872060Y-111453444D01*
X76637555Y-111325395D01*
X76423662Y-111165276D01*
X76234724Y-110976338D01*
X76074605Y-110762445D01*
X75946556Y-110527940D01*
X75853181Y-110277593D01*
X75796385Y-110016504D01*
X75777000Y-109745470D01*
X75777000Y-102254530D01*
X75796385Y-101983496D01*
X75853181Y-101722407D01*
X75946556Y-101472060D01*
X76074605Y-101237555D01*
X76234724Y-101023662D01*
X76423662Y-100834724D01*
X76637555Y-100674605D01*
X76872060Y-100546556D01*
X77122407Y-100453181D01*
X77383496Y-100396385D01*
X77654530Y-100377000D01*
X90645470Y-100377000D01*
X90916504Y-100396385D01*
M02*
