G04 #@! TF.GenerationSoftware,KiCad,Pcbnew,(5.1.4)-1*
G04 #@! TF.CreationDate,2022-02-08T04:13:44-08:00*
G04 #@! TF.ProjectId,bushwacker2,62757368-7761-4636-9b65-72322e6b6963,rev?*
G04 #@! TF.SameCoordinates,Original*
G04 #@! TF.FileFunction,Soldermask,Bot*
G04 #@! TF.FilePolarity,Negative*
%FSLAX46Y46*%
G04 Gerber Fmt 4.6, Leading zero omitted, Abs format (unit mm)*
G04 Created by KiCad (PCBNEW (5.1.4)-1) date 2022-02-08 04:13:44*
%MOMM*%
%LPD*%
G04 APERTURE LIST*
%ADD10C,0.100000*%
G04 APERTURE END LIST*
D10*
G36*
X95788015Y-105686973D02*
G01*
X95891879Y-105718479D01*
X95919055Y-105733005D01*
X95987600Y-105769643D01*
X96071501Y-105838499D01*
X96140357Y-105922400D01*
X96159354Y-105957942D01*
X96191521Y-106018121D01*
X96223027Y-106121985D01*
X96231000Y-106202933D01*
X96231000Y-107357067D01*
X96223027Y-107438015D01*
X96191521Y-107541879D01*
X96140356Y-107637600D01*
X96071501Y-107721501D01*
X96002645Y-107778009D01*
X95987599Y-107790357D01*
X95935907Y-107817987D01*
X95891878Y-107841521D01*
X95788014Y-107873027D01*
X95680000Y-107883666D01*
X95571985Y-107873027D01*
X95468121Y-107841521D01*
X95424093Y-107817987D01*
X95372401Y-107790357D01*
X95359643Y-107779887D01*
X95288499Y-107721501D01*
X95219644Y-107637600D01*
X95168479Y-107541878D01*
X95136973Y-107438014D01*
X95129000Y-107357066D01*
X95129001Y-106202933D01*
X95136974Y-106121985D01*
X95168480Y-106018121D01*
X95200647Y-105957942D01*
X95219644Y-105922400D01*
X95288500Y-105838499D01*
X95372401Y-105769643D01*
X95440946Y-105733005D01*
X95468122Y-105718479D01*
X95571986Y-105686973D01*
X95680000Y-105676334D01*
X95788015Y-105686973D01*
X95788015Y-105686973D01*
G37*
G36*
X104428015Y-105686973D02*
G01*
X104531879Y-105718479D01*
X104559055Y-105733005D01*
X104627600Y-105769643D01*
X104711501Y-105838499D01*
X104780357Y-105922400D01*
X104799354Y-105957942D01*
X104831521Y-106018121D01*
X104863027Y-106121985D01*
X104871000Y-106202933D01*
X104871000Y-107357067D01*
X104863027Y-107438015D01*
X104831521Y-107541879D01*
X104780356Y-107637600D01*
X104711501Y-107721501D01*
X104642645Y-107778009D01*
X104627599Y-107790357D01*
X104575907Y-107817987D01*
X104531878Y-107841521D01*
X104428014Y-107873027D01*
X104320000Y-107883666D01*
X104211985Y-107873027D01*
X104108121Y-107841521D01*
X104064093Y-107817987D01*
X104012401Y-107790357D01*
X103999643Y-107779887D01*
X103928499Y-107721501D01*
X103859644Y-107637600D01*
X103808479Y-107541878D01*
X103776973Y-107438014D01*
X103769000Y-107357066D01*
X103769001Y-106202933D01*
X103776974Y-106121985D01*
X103808480Y-106018121D01*
X103840647Y-105957942D01*
X103859644Y-105922400D01*
X103928500Y-105838499D01*
X104012401Y-105769643D01*
X104080946Y-105733005D01*
X104108122Y-105718479D01*
X104211986Y-105686973D01*
X104320000Y-105676334D01*
X104428015Y-105686973D01*
X104428015Y-105686973D01*
G37*
G36*
X102999672Y-105888449D02*
G01*
X102999674Y-105888450D01*
X102999675Y-105888450D01*
X103068103Y-105916793D01*
X103129686Y-105957942D01*
X103182058Y-106010314D01*
X103223207Y-106071897D01*
X103251550Y-106140325D01*
X103266000Y-106212967D01*
X103266000Y-106287033D01*
X103251550Y-106359675D01*
X103223207Y-106428103D01*
X103182058Y-106489686D01*
X103129686Y-106542058D01*
X103068103Y-106583207D01*
X102999675Y-106611550D01*
X102999674Y-106611550D01*
X102999672Y-106611551D01*
X102927034Y-106626000D01*
X102852966Y-106626000D01*
X102780328Y-106611551D01*
X102780326Y-106611550D01*
X102780325Y-106611550D01*
X102711897Y-106583207D01*
X102650314Y-106542058D01*
X102597942Y-106489686D01*
X102556793Y-106428103D01*
X102528450Y-106359675D01*
X102514000Y-106287033D01*
X102514000Y-106212967D01*
X102528450Y-106140325D01*
X102556793Y-106071897D01*
X102597942Y-106010314D01*
X102650314Y-105957942D01*
X102711897Y-105916793D01*
X102780325Y-105888450D01*
X102780326Y-105888450D01*
X102780328Y-105888449D01*
X102852966Y-105874000D01*
X102927034Y-105874000D01*
X102999672Y-105888449D01*
X102999672Y-105888449D01*
G37*
G36*
X97219672Y-105888449D02*
G01*
X97219674Y-105888450D01*
X97219675Y-105888450D01*
X97288103Y-105916793D01*
X97349686Y-105957942D01*
X97402058Y-106010314D01*
X97443207Y-106071897D01*
X97471550Y-106140325D01*
X97486000Y-106212967D01*
X97486000Y-106287033D01*
X97471550Y-106359675D01*
X97443207Y-106428103D01*
X97402058Y-106489686D01*
X97349686Y-106542058D01*
X97288103Y-106583207D01*
X97219675Y-106611550D01*
X97219674Y-106611550D01*
X97219672Y-106611551D01*
X97147034Y-106626000D01*
X97072966Y-106626000D01*
X97000328Y-106611551D01*
X97000326Y-106611550D01*
X97000325Y-106611550D01*
X96931897Y-106583207D01*
X96870314Y-106542058D01*
X96817942Y-106489686D01*
X96776793Y-106428103D01*
X96748450Y-106359675D01*
X96734000Y-106287033D01*
X96734000Y-106212967D01*
X96748450Y-106140325D01*
X96776793Y-106071897D01*
X96817942Y-106010314D01*
X96870314Y-105957942D01*
X96931897Y-105916793D01*
X97000325Y-105888450D01*
X97000326Y-105888450D01*
X97000328Y-105888449D01*
X97072966Y-105874000D01*
X97147034Y-105874000D01*
X97219672Y-105888449D01*
X97219672Y-105888449D01*
G37*
G36*
X109789943Y-100566248D02*
G01*
X110345189Y-100796238D01*
X110345190Y-100796239D01*
X110844899Y-101130134D01*
X111269866Y-101555101D01*
X111404753Y-101756973D01*
X111603762Y-102054811D01*
X111833752Y-102610057D01*
X111951000Y-103199501D01*
X111951000Y-103800499D01*
X111833752Y-104389943D01*
X111603762Y-104945189D01*
X111603761Y-104945190D01*
X111269866Y-105444899D01*
X110844899Y-105869866D01*
X110774666Y-105916794D01*
X110345189Y-106203762D01*
X109789943Y-106433752D01*
X109200499Y-106551000D01*
X108599501Y-106551000D01*
X108010057Y-106433752D01*
X107454811Y-106203762D01*
X107025334Y-105916794D01*
X106955101Y-105869866D01*
X106530134Y-105444899D01*
X106196239Y-104945190D01*
X106196238Y-104945189D01*
X105966248Y-104389943D01*
X105849000Y-103800499D01*
X105849000Y-103199501D01*
X105966248Y-102610057D01*
X106196238Y-102054811D01*
X106395247Y-101756973D01*
X106530134Y-101555101D01*
X106955101Y-101130134D01*
X107454810Y-100796239D01*
X107454811Y-100796238D01*
X108010057Y-100566248D01*
X108599501Y-100449000D01*
X109200499Y-100449000D01*
X109789943Y-100566248D01*
X109789943Y-100566248D01*
G37*
G36*
X95788015Y-101756973D02*
G01*
X95891879Y-101788479D01*
X95919055Y-101803005D01*
X95987600Y-101839643D01*
X96071501Y-101908499D01*
X96140357Y-101992400D01*
X96173716Y-102054810D01*
X96191521Y-102088121D01*
X96223027Y-102191985D01*
X96231000Y-102272933D01*
X96231000Y-102927067D01*
X96223027Y-103008015D01*
X96191521Y-103111879D01*
X96140356Y-103207600D01*
X96071501Y-103291501D01*
X96002645Y-103348009D01*
X95987599Y-103360357D01*
X95935907Y-103387987D01*
X95891878Y-103411521D01*
X95788014Y-103443027D01*
X95680000Y-103453666D01*
X95571985Y-103443027D01*
X95468121Y-103411521D01*
X95424093Y-103387987D01*
X95372401Y-103360357D01*
X95359643Y-103349887D01*
X95288499Y-103291501D01*
X95219644Y-103207600D01*
X95168479Y-103111878D01*
X95136973Y-103008014D01*
X95129000Y-102927066D01*
X95129000Y-102272933D01*
X95136973Y-102191985D01*
X95168480Y-102088121D01*
X95186285Y-102054810D01*
X95219645Y-101992399D01*
X95288500Y-101908499D01*
X95372401Y-101839643D01*
X95440946Y-101803005D01*
X95468122Y-101788479D01*
X95571986Y-101756973D01*
X95680000Y-101746334D01*
X95788015Y-101756973D01*
X95788015Y-101756973D01*
G37*
G36*
X104428015Y-101756973D02*
G01*
X104531879Y-101788479D01*
X104559055Y-101803005D01*
X104627600Y-101839643D01*
X104711501Y-101908499D01*
X104780357Y-101992400D01*
X104813716Y-102054810D01*
X104831521Y-102088121D01*
X104863027Y-102191985D01*
X104871000Y-102272933D01*
X104871000Y-102927067D01*
X104863027Y-103008015D01*
X104831521Y-103111879D01*
X104780356Y-103207600D01*
X104711501Y-103291501D01*
X104642645Y-103348009D01*
X104627599Y-103360357D01*
X104575907Y-103387987D01*
X104531878Y-103411521D01*
X104428014Y-103443027D01*
X104320000Y-103453666D01*
X104211985Y-103443027D01*
X104108121Y-103411521D01*
X104064093Y-103387987D01*
X104012401Y-103360357D01*
X103999643Y-103349887D01*
X103928499Y-103291501D01*
X103859644Y-103207600D01*
X103808479Y-103111878D01*
X103776973Y-103008014D01*
X103769000Y-102927066D01*
X103769000Y-102272933D01*
X103776973Y-102191985D01*
X103808480Y-102088121D01*
X103826285Y-102054810D01*
X103859645Y-101992399D01*
X103928500Y-101908499D01*
X104012401Y-101839643D01*
X104080946Y-101803005D01*
X104108122Y-101788479D01*
X104211986Y-101756973D01*
X104320000Y-101746334D01*
X104428015Y-101756973D01*
X104428015Y-101756973D01*
G37*
M02*
