M48
; DRILL file {KiCad (5.1.4)-1} date 2/8/2022 4:13:46 AM
; FORMAT={-:-/ absolute / inch / decimal}
; #@! TF.CreationDate,2022-02-08T04:13:46-08:00
; #@! TF.GenerationSoftware,Kicad,Pcbnew,(5.1.4)-1
; #@! TF.FileFunction,Plated,1,2,PTH
FMAT,2
INCH
T1C0.0157
T2C0.0197
T3C0.0236
T4C0.1260
%
G90
G05
T1
X3.2717Y-4.3425
X3.3189Y-4.0945
X3.3346Y-4.1496
X3.378Y-4.0945
X3.6496Y-4.2913
X3.7795Y-4.2874
X3.8189Y-4.2953
X3.8681Y-4.3091
X3.9862Y-4.3091
X4.0551Y-4.2953
X4.0945Y-4.2874
T2
X4.1969Y-4.0748
X4.2234Y-4.0108
X4.2234Y-4.1388
X4.2874Y-3.9843
X4.2874Y-4.1654
X4.3514Y-4.0108
X4.3514Y-4.1388
X4.378Y-4.0748
X2.7402Y-4.0748
X2.7667Y-4.0108
X2.7667Y-4.1388
X2.8307Y-3.9843
X2.8307Y-4.1654
X2.8947Y-4.0108
X2.8947Y-4.1388
X2.9213Y-4.0748
T4
X4.2874Y-4.0748
X2.8307Y-4.0748
T3
G00X3.7669Y-4.0512
M15
G01X3.7669Y-4.0276
M16
G05
G00X3.7669Y-4.2256
M15
G01X3.7669Y-4.1823
M16
G05
G00X4.1071Y-4.0512
M15
G01X4.1071Y-4.0276
M16
G05
G00X4.1071Y-4.2256
M15
G01X4.1071Y-4.1823
M16
G05
T0
M30
