M48
; DRILL file {KiCad (5.1.4)-1} date 3/22/2021 3:07:56 AM
; FORMAT={-:-/ absolute / inch / decimal}
; #@! TF.CreationDate,2021-03-22T03:07:56-07:00
; #@! TF.GenerationSoftware,Kicad,Pcbnew,(5.1.4)-1
; #@! TF.FileFunction,Plated,1,2,PTH
FMAT,2
INCH
T1C0.0157
T2C0.0197
T3C0.0236
T4C0.1260
%
G90
G05
T1
X-0.8071Y-0.0354
X-0.8071Y-0.315
X-0.8071Y-0.5472
X-0.8071Y-0.8268
X-0.4134Y-0.4016
X-0.4134Y-0.9134
X-0.3504Y-0.4016
X-0.3504Y-0.9134
X-0.2953Y-0.1417
X-0.2953Y-0.6535
X-0.1654Y-0.3346
X-0.1654Y-0.8465
X-0.1063Y-0.3543
X-0.1063Y-0.8661
X-0.0591Y-0.3548
X-0.0591Y-0.8666
X0.0197Y-0.378
X0.0197Y-0.8898
X0.1024Y-0.3543
X0.1024Y-0.8661
X0.1654Y-0.3346
X0.1654Y-0.8465
T2
X0.3425Y-0.7362
X0.369Y-0.6545
X0.369Y-0.818
X0.4331Y-0.622
X0.4331Y-0.8504
X0.4971Y-0.6545
X0.4971Y-0.818
X0.5236Y-0.7362
X-0.6811Y-0.2244
X-0.6546Y-0.1427
X-0.6546Y-0.3062
X-0.5906Y-0.1102
X-0.5906Y-0.3386
X-0.5265Y-0.1427
X-0.5265Y-0.3062
X-0.5Y-0.2244
X0.3425Y-0.2244
X0.369Y-0.1427
X0.369Y-0.3062
X0.4331Y-0.1102
X0.4331Y-0.3386
X0.4971Y-0.1427
X0.4971Y-0.3062
X0.5236Y-0.2244
X-0.6811Y-0.7362
X-0.6546Y-0.6545
X-0.6546Y-0.818
X-0.5906Y-0.622
X-0.5906Y-0.8504
X-0.5265Y-0.6545
X-0.5265Y-0.818
X-0.5Y-0.7362
T3
G00X-0.1701Y-0.1142
M15
G01X-0.1701Y-0.0906
M16
G05
G00X-0.1701Y-0.2886
M15
G01X-0.1701Y-0.2453
M16
G05
G00X0.1701Y-0.1142
M15
G01X0.1701Y-0.0906
M16
G05
G00X0.1701Y-0.2886
M15
G01X0.1701Y-0.2453
M16
G05
G00X-0.1701Y-0.626
M15
G01X-0.1701Y-0.6024
M16
G05
G00X-0.1701Y-0.8004
M15
G01X-0.1701Y-0.7571
M16
G05
G00X0.1701Y-0.626
M15
G01X0.1701Y-0.6024
M16
G05
G00X0.1701Y-0.8004
M15
G01X0.1701Y-0.7571
M16
G05
T4
G00X0.4331Y-0.7126
M15
G01X0.4331Y-0.7598
M16
G05
G00X-0.5906Y-0.248
M15
G01X-0.5906Y-0.2008
M16
G05
G00X0.4331Y-0.248
M15
G01X0.4331Y-0.2008
M16
G05
G00X-0.5906Y-0.7126
M15
G01X-0.5906Y-0.7598
M16
G05
T0
M30
