M48
; DRILL file {KiCad (5.1.4)-1} date 1/1/2021 5:19:51 AM
; FORMAT={-:-/ absolute / inch / decimal}
; #@! TF.CreationDate,2021-01-01T05:19:51-08:00
; #@! TF.GenerationSoftware,Kicad,Pcbnew,(5.1.4)-1
; #@! TF.FileFunction,Plated,1,2,PTH
FMAT,2
INCH
T1C0.0157
T2C0.0197
T3C0.0236
T4C0.1260
%
G90
G05
T1
X-0.6457Y-0.2008
X-0.5945Y-0.122
X-0.5945Y-0.2795
X-0.4921Y-0.1299
X-0.3976Y-0.1299
X-0.3307Y-0.3307
X-0.1693Y-0.5787
X-0.1417Y-0.3661
X-0.1181Y-0.5787
X-0.0965Y-0.3661
X-0.0591Y-0.5512
X-0.0492Y-0.3661
X0.0492Y-0.5787
X0.0591Y-0.3937
X0.0965Y-0.5787
X0.1181Y-0.3661
X0.1417Y-0.5787
X0.1693Y-0.3661
X0.3307Y-0.6142
X0.3976Y-0.815
X0.4921Y-0.815
X0.5945Y-0.6654
X0.5945Y-0.8228
X0.6457Y-0.7441
T2
X-0.7598Y-0.7283
X-0.7333Y-0.6643
X-0.7333Y-0.7924
X-0.6693Y-0.6378
X-0.6693Y-0.8189
X-0.6053Y-0.6643
X-0.6053Y-0.7924
X-0.5787Y-0.7283
X-0.9173Y-0.2165
X-0.8908Y-0.1525
X-0.8908Y-0.2806
X-0.8268Y-0.126
X-0.8268Y-0.3071
X-0.7627Y-0.1525
X-0.7627Y-0.2806
X-0.7362Y-0.2165
X0.7362Y-0.7283
X0.7627Y-0.6643
X0.7627Y-0.7924
X0.8268Y-0.6378
X0.8268Y-0.8189
X0.8908Y-0.6643
X0.8908Y-0.7924
X0.9173Y-0.7283
X0.5787Y-0.2165
X0.6053Y-0.1525
X0.6053Y-0.2806
X0.6693Y-0.126
X0.6693Y-0.3071
X0.7333Y-0.1525
X0.7333Y-0.2806
X0.7598Y-0.2165
T4
X-0.8268Y-0.2165
X0.8268Y-0.7283
X0.6693Y-0.2165
X-0.6693Y-0.7283
T3
G00X-0.1701Y-0.0906
M15
G01X-0.1701Y-0.1142
M16
G05
G00X-0.1701Y-0.2453
M15
G01X-0.1701Y-0.2886
M16
G05
G00X0.1701Y-0.0906
M15
G01X0.1701Y-0.1142
M16
G05
G00X0.1701Y-0.2453
M15
G01X0.1701Y-0.2886
M16
G05
G00X-0.1701Y-0.6996
M15
G01X-0.1701Y-0.6563
M16
G05
G00X-0.1701Y-0.8543
M15
G01X-0.1701Y-0.8307
M16
G05
G00X0.1701Y-0.6996
M15
G01X0.1701Y-0.6563
M16
G05
G00X0.1701Y-0.8543
M15
G01X0.1701Y-0.8307
M16
G05
T0
M30
