G04 #@! TF.GenerationSoftware,KiCad,Pcbnew,(5.1.4)-1*
G04 #@! TF.CreationDate,2021-01-01T05:19:50-08:00*
G04 #@! TF.ProjectId,dboard,64626f61-7264-42e6-9b69-6361645f7063,rev?*
G04 #@! TF.SameCoordinates,Original*
G04 #@! TF.FileFunction,Soldermask,Top*
G04 #@! TF.FilePolarity,Negative*
%FSLAX46Y46*%
G04 Gerber Fmt 4.6, Leading zero omitted, Abs format (unit mm)*
G04 Created by KiCad (PCBNEW (5.1.4)-1) date 2021-01-01 05:19:50*
%MOMM*%
%LPD*%
G04 APERTURE LIST*
%ADD10C,0.100000*%
G04 APERTURE END LIST*
D10*
G36*
X23204473Y-21825938D02*
G01*
X23332049Y-21878782D01*
X23446859Y-21955495D01*
X23544505Y-22053141D01*
X23621218Y-22167951D01*
X23674062Y-22295527D01*
X23701000Y-22430956D01*
X23701000Y-22569044D01*
X23674062Y-22704473D01*
X23621218Y-22832049D01*
X23544505Y-22946859D01*
X23446859Y-23044505D01*
X23332049Y-23121218D01*
X23204473Y-23174062D01*
X23069044Y-23201000D01*
X22930956Y-23201000D01*
X22795527Y-23174062D01*
X22667951Y-23121218D01*
X22553141Y-23044505D01*
X22455495Y-22946859D01*
X22378782Y-22832049D01*
X22325938Y-22704473D01*
X22299000Y-22569044D01*
X22299000Y-22430956D01*
X22325938Y-22295527D01*
X22378782Y-22167951D01*
X22455495Y-22053141D01*
X22553141Y-21955495D01*
X22667951Y-21878782D01*
X22795527Y-21825938D01*
X22930956Y-21799000D01*
X23069044Y-21799000D01*
X23204473Y-21825938D01*
X23204473Y-21825938D01*
G37*
G36*
X-19295527Y-21325938D02*
G01*
X-19167951Y-21378782D01*
X-19053141Y-21455495D01*
X-18955495Y-21553141D01*
X-18878782Y-21667951D01*
X-18825938Y-21795527D01*
X-18799000Y-21930956D01*
X-18799000Y-22069044D01*
X-18825938Y-22204473D01*
X-18878782Y-22332049D01*
X-18955495Y-22446859D01*
X-19053141Y-22544505D01*
X-19167951Y-22621218D01*
X-19295527Y-22674062D01*
X-19430956Y-22701000D01*
X-19569044Y-22701000D01*
X-19704473Y-22674062D01*
X-19832049Y-22621218D01*
X-19946859Y-22544505D01*
X-20044505Y-22446859D01*
X-20121218Y-22332049D01*
X-20174062Y-22204473D01*
X-20201000Y-22069044D01*
X-20201000Y-21930956D01*
X-20174062Y-21795527D01*
X-20121218Y-21667951D01*
X-20044505Y-21553141D01*
X-19946859Y-21455495D01*
X-19832049Y-21378782D01*
X-19704473Y-21325938D01*
X-19569044Y-21299000D01*
X-19430956Y-21299000D01*
X-19295527Y-21325938D01*
X-19295527Y-21325938D01*
G37*
G36*
X-4211985Y-20556973D02*
G01*
X-4108121Y-20588479D01*
X-4080945Y-20603005D01*
X-4012400Y-20639643D01*
X-3928499Y-20708499D01*
X-3859643Y-20792400D01*
X-3831838Y-20844420D01*
X-3808479Y-20888121D01*
X-3776973Y-20991985D01*
X-3769000Y-21072933D01*
X-3769000Y-21727067D01*
X-3776973Y-21808015D01*
X-3808479Y-21911879D01*
X-3859644Y-22007600D01*
X-3928499Y-22091501D01*
X-3997355Y-22148009D01*
X-4012401Y-22160357D01*
X-4064093Y-22187987D01*
X-4108122Y-22211521D01*
X-4211986Y-22243027D01*
X-4320000Y-22253666D01*
X-4428015Y-22243027D01*
X-4531879Y-22211521D01*
X-4575907Y-22187987D01*
X-4627599Y-22160357D01*
X-4640357Y-22149887D01*
X-4711501Y-22091501D01*
X-4780356Y-22007600D01*
X-4831521Y-21911878D01*
X-4863027Y-21808014D01*
X-4871000Y-21727066D01*
X-4871000Y-21072933D01*
X-4863027Y-20991985D01*
X-4831520Y-20888121D01*
X-4808161Y-20844420D01*
X-4780355Y-20792399D01*
X-4711500Y-20708499D01*
X-4627599Y-20639643D01*
X-4559054Y-20603005D01*
X-4531878Y-20588479D01*
X-4428014Y-20556973D01*
X-4320000Y-20546334D01*
X-4211985Y-20556973D01*
X-4211985Y-20556973D01*
G37*
G36*
X4428015Y-20556973D02*
G01*
X4531879Y-20588479D01*
X4559055Y-20603005D01*
X4627600Y-20639643D01*
X4711501Y-20708499D01*
X4780357Y-20792400D01*
X4808162Y-20844420D01*
X4831521Y-20888121D01*
X4863027Y-20991985D01*
X4871000Y-21072933D01*
X4871000Y-21727067D01*
X4863027Y-21808015D01*
X4831521Y-21911879D01*
X4780356Y-22007600D01*
X4711501Y-22091501D01*
X4642645Y-22148009D01*
X4627599Y-22160357D01*
X4575907Y-22187987D01*
X4531878Y-22211521D01*
X4428014Y-22243027D01*
X4320000Y-22253666D01*
X4211985Y-22243027D01*
X4108121Y-22211521D01*
X4064093Y-22187987D01*
X4012401Y-22160357D01*
X3999643Y-22149887D01*
X3928499Y-22091501D01*
X3859644Y-22007600D01*
X3808479Y-21911878D01*
X3776973Y-21808014D01*
X3769000Y-21727066D01*
X3769000Y-21072933D01*
X3776973Y-20991985D01*
X3808480Y-20888121D01*
X3831839Y-20844420D01*
X3859645Y-20792399D01*
X3928500Y-20708499D01*
X4012401Y-20639643D01*
X4080946Y-20603005D01*
X4108122Y-20588479D01*
X4211986Y-20556973D01*
X4320000Y-20546334D01*
X4428015Y-20556973D01*
X4428015Y-20556973D01*
G37*
G36*
X21889943Y-15566248D02*
G01*
X22445189Y-15796238D01*
X22525179Y-15849686D01*
X22944899Y-16130134D01*
X23369866Y-16555101D01*
X23439974Y-16660025D01*
X23703762Y-17054811D01*
X23933752Y-17610057D01*
X24051000Y-18199501D01*
X24051000Y-18800499D01*
X23933752Y-19389943D01*
X23703762Y-19945189D01*
X23703761Y-19945190D01*
X23369866Y-20444899D01*
X22944899Y-20869866D01*
X22693347Y-21037948D01*
X22445189Y-21203762D01*
X21889943Y-21433752D01*
X21300499Y-21551000D01*
X20699501Y-21551000D01*
X20110057Y-21433752D01*
X19554811Y-21203762D01*
X19306653Y-21037948D01*
X19055101Y-20869866D01*
X18630134Y-20444899D01*
X18296239Y-19945190D01*
X18296238Y-19945189D01*
X18066248Y-19389943D01*
X17949000Y-18800499D01*
X17949000Y-18199501D01*
X18066248Y-17610057D01*
X18296238Y-17054811D01*
X18560026Y-16660025D01*
X18630134Y-16555101D01*
X19055101Y-16130134D01*
X19474821Y-15849686D01*
X19554811Y-15796238D01*
X20110057Y-15566248D01*
X20699501Y-15449000D01*
X21300499Y-15449000D01*
X21889943Y-15566248D01*
X21889943Y-15566248D01*
G37*
G36*
X-16110057Y-15566248D02*
G01*
X-15554811Y-15796238D01*
X-15474821Y-15849686D01*
X-15055101Y-16130134D01*
X-14630134Y-16555101D01*
X-14560026Y-16660025D01*
X-14296238Y-17054811D01*
X-14066248Y-17610057D01*
X-13949000Y-18199501D01*
X-13949000Y-18800499D01*
X-14066248Y-19389943D01*
X-14296238Y-19945189D01*
X-14296239Y-19945190D01*
X-14630134Y-20444899D01*
X-15055101Y-20869866D01*
X-15306653Y-21037948D01*
X-15554811Y-21203762D01*
X-16110057Y-21433752D01*
X-16699501Y-21551000D01*
X-17300499Y-21551000D01*
X-17889943Y-21433752D01*
X-18445189Y-21203762D01*
X-18693347Y-21037948D01*
X-18944899Y-20869866D01*
X-19369866Y-20444899D01*
X-19703761Y-19945190D01*
X-19703762Y-19945189D01*
X-19933752Y-19389943D01*
X-20051000Y-18800499D01*
X-20051000Y-18199501D01*
X-19933752Y-17610057D01*
X-19703762Y-17054811D01*
X-19439974Y-16660025D01*
X-19369866Y-16555101D01*
X-18944899Y-16130134D01*
X-18525179Y-15849686D01*
X-18445189Y-15796238D01*
X-17889943Y-15566248D01*
X-17300499Y-15449000D01*
X-16699501Y-15449000D01*
X-16110057Y-15566248D01*
X-16110057Y-15566248D01*
G37*
G36*
X4428015Y-16126973D02*
G01*
X4531879Y-16158479D01*
X4559055Y-16173005D01*
X4627600Y-16209643D01*
X4711501Y-16278499D01*
X4780357Y-16362400D01*
X4807739Y-16413629D01*
X4831521Y-16458121D01*
X4863027Y-16561985D01*
X4871000Y-16642933D01*
X4871000Y-17797067D01*
X4863027Y-17878015D01*
X4831521Y-17981879D01*
X4827348Y-17989686D01*
X4795644Y-18049000D01*
X4780356Y-18077600D01*
X4711501Y-18161501D01*
X4665197Y-18199501D01*
X4627599Y-18230357D01*
X4575907Y-18257987D01*
X4531878Y-18281521D01*
X4428014Y-18313027D01*
X4320000Y-18323666D01*
X4211985Y-18313027D01*
X4108121Y-18281521D01*
X4064093Y-18257987D01*
X4012401Y-18230357D01*
X3990647Y-18212504D01*
X3928499Y-18161501D01*
X3859644Y-18077600D01*
X3808479Y-17981878D01*
X3776973Y-17878014D01*
X3769000Y-17797066D01*
X3769001Y-16642933D01*
X3776974Y-16561985D01*
X3808480Y-16458121D01*
X3832262Y-16413629D01*
X3859644Y-16362400D01*
X3928500Y-16278499D01*
X4012401Y-16209643D01*
X4080946Y-16173005D01*
X4108122Y-16158479D01*
X4211986Y-16126973D01*
X4320000Y-16116334D01*
X4428015Y-16126973D01*
X4428015Y-16126973D01*
G37*
G36*
X-4211985Y-16126973D02*
G01*
X-4108121Y-16158479D01*
X-4080945Y-16173005D01*
X-4012400Y-16209643D01*
X-3928499Y-16278499D01*
X-3859643Y-16362400D01*
X-3832261Y-16413629D01*
X-3808479Y-16458121D01*
X-3776973Y-16561985D01*
X-3769000Y-16642933D01*
X-3769000Y-17797067D01*
X-3776973Y-17878015D01*
X-3808479Y-17981879D01*
X-3812652Y-17989686D01*
X-3844356Y-18049000D01*
X-3859644Y-18077600D01*
X-3928499Y-18161501D01*
X-3974803Y-18199501D01*
X-4012401Y-18230357D01*
X-4064093Y-18257987D01*
X-4108122Y-18281521D01*
X-4211986Y-18313027D01*
X-4320000Y-18323666D01*
X-4428015Y-18313027D01*
X-4531879Y-18281521D01*
X-4575907Y-18257987D01*
X-4627599Y-18230357D01*
X-4649353Y-18212504D01*
X-4711501Y-18161501D01*
X-4780356Y-18077600D01*
X-4831521Y-17981878D01*
X-4863027Y-17878014D01*
X-4871000Y-17797066D01*
X-4870999Y-16642933D01*
X-4863026Y-16561985D01*
X-4831520Y-16458121D01*
X-4807738Y-16413629D01*
X-4780356Y-16362400D01*
X-4711500Y-16278499D01*
X-4627599Y-16209643D01*
X-4559054Y-16173005D01*
X-4531878Y-16158479D01*
X-4428014Y-16126973D01*
X-4320000Y-16116334D01*
X-4211985Y-16126973D01*
X-4211985Y-16126973D01*
G37*
G36*
X2999672Y-17388449D02*
G01*
X2999674Y-17388450D01*
X2999675Y-17388450D01*
X3068103Y-17416793D01*
X3129686Y-17457942D01*
X3182058Y-17510314D01*
X3223207Y-17571897D01*
X3251550Y-17640325D01*
X3251551Y-17640328D01*
X3266000Y-17712966D01*
X3266000Y-17787034D01*
X3264006Y-17797060D01*
X3251550Y-17859675D01*
X3223207Y-17928103D01*
X3182058Y-17989686D01*
X3129686Y-18042058D01*
X3068103Y-18083207D01*
X2999675Y-18111550D01*
X2999674Y-18111550D01*
X2999672Y-18111551D01*
X2927034Y-18126000D01*
X2852966Y-18126000D01*
X2780328Y-18111551D01*
X2780326Y-18111550D01*
X2780325Y-18111550D01*
X2711897Y-18083207D01*
X2650314Y-18042058D01*
X2597942Y-17989686D01*
X2556793Y-17928103D01*
X2528450Y-17859675D01*
X2515995Y-17797060D01*
X2514000Y-17787034D01*
X2514000Y-17712966D01*
X2528449Y-17640328D01*
X2528450Y-17640325D01*
X2556793Y-17571897D01*
X2597942Y-17510314D01*
X2650314Y-17457942D01*
X2711897Y-17416793D01*
X2780325Y-17388450D01*
X2780326Y-17388450D01*
X2780328Y-17388449D01*
X2852966Y-17374000D01*
X2927034Y-17374000D01*
X2999672Y-17388449D01*
X2999672Y-17388449D01*
G37*
G36*
X-2780328Y-17388449D02*
G01*
X-2780326Y-17388450D01*
X-2780325Y-17388450D01*
X-2711897Y-17416793D01*
X-2650314Y-17457942D01*
X-2597942Y-17510314D01*
X-2556793Y-17571897D01*
X-2528450Y-17640325D01*
X-2528449Y-17640328D01*
X-2514000Y-17712966D01*
X-2514000Y-17787034D01*
X-2515994Y-17797060D01*
X-2528450Y-17859675D01*
X-2556793Y-17928103D01*
X-2597942Y-17989686D01*
X-2650314Y-18042058D01*
X-2711897Y-18083207D01*
X-2780325Y-18111550D01*
X-2780326Y-18111550D01*
X-2780328Y-18111551D01*
X-2852966Y-18126000D01*
X-2927034Y-18126000D01*
X-2999672Y-18111551D01*
X-2999674Y-18111550D01*
X-2999675Y-18111550D01*
X-3068103Y-18083207D01*
X-3129686Y-18042058D01*
X-3182058Y-17989686D01*
X-3223207Y-17928103D01*
X-3251550Y-17859675D01*
X-3264005Y-17797060D01*
X-3266000Y-17787034D01*
X-3266000Y-17712966D01*
X-3251551Y-17640328D01*
X-3251550Y-17640325D01*
X-3223207Y-17571897D01*
X-3182058Y-17510314D01*
X-3129686Y-17457942D01*
X-3068103Y-17416793D01*
X-2999675Y-17388450D01*
X-2999674Y-17388450D01*
X-2999672Y-17388449D01*
X-2927034Y-17374000D01*
X-2852966Y-17374000D01*
X-2780328Y-17388449D01*
X-2780328Y-17388449D01*
G37*
G36*
X11481552Y-12566331D02*
G01*
X11563627Y-12600328D01*
X11563629Y-12600329D01*
X11600813Y-12625175D01*
X11637495Y-12649685D01*
X11700315Y-12712505D01*
X11749672Y-12786373D01*
X11784516Y-12870493D01*
X11796067Y-12892104D01*
X11811613Y-12911046D01*
X11830555Y-12926591D01*
X11852165Y-12938142D01*
X11875614Y-12945255D01*
X11900000Y-12947657D01*
X11924386Y-12945255D01*
X11947835Y-12938142D01*
X11969446Y-12926591D01*
X11988388Y-12911045D01*
X12003933Y-12892103D01*
X12015484Y-12870493D01*
X12050328Y-12786373D01*
X12099685Y-12712505D01*
X12162505Y-12649685D01*
X12199187Y-12625175D01*
X12236371Y-12600329D01*
X12236373Y-12600328D01*
X12318448Y-12566331D01*
X12405579Y-12549000D01*
X12494421Y-12549000D01*
X12581552Y-12566331D01*
X12663627Y-12600328D01*
X12663629Y-12600329D01*
X12700813Y-12625175D01*
X12737495Y-12649685D01*
X12800315Y-12712505D01*
X12849672Y-12786373D01*
X12884516Y-12870493D01*
X12896067Y-12892104D01*
X12911613Y-12911046D01*
X12930555Y-12926591D01*
X12952165Y-12938142D01*
X12975614Y-12945255D01*
X13000000Y-12947657D01*
X13024386Y-12945255D01*
X13047835Y-12938142D01*
X13069446Y-12926591D01*
X13088388Y-12911045D01*
X13103933Y-12892103D01*
X13115484Y-12870493D01*
X13150328Y-12786373D01*
X13199685Y-12712505D01*
X13262505Y-12649685D01*
X13299187Y-12625175D01*
X13336371Y-12600329D01*
X13336373Y-12600328D01*
X13418448Y-12566331D01*
X13505579Y-12549000D01*
X13594421Y-12549000D01*
X13681552Y-12566331D01*
X13763627Y-12600328D01*
X13763629Y-12600329D01*
X13800813Y-12625175D01*
X13837495Y-12649685D01*
X13900315Y-12712505D01*
X13949672Y-12786373D01*
X13984516Y-12870493D01*
X13996067Y-12892104D01*
X14011613Y-12911046D01*
X14030555Y-12926591D01*
X14052165Y-12938142D01*
X14075614Y-12945255D01*
X14100000Y-12947657D01*
X14124386Y-12945255D01*
X14147835Y-12938142D01*
X14169446Y-12926591D01*
X14188388Y-12911045D01*
X14203933Y-12892103D01*
X14215484Y-12870493D01*
X14250328Y-12786373D01*
X14299685Y-12712505D01*
X14362505Y-12649685D01*
X14399187Y-12625175D01*
X14436371Y-12600329D01*
X14436373Y-12600328D01*
X14518448Y-12566331D01*
X14605579Y-12549000D01*
X14694421Y-12549000D01*
X14781552Y-12566331D01*
X14863627Y-12600328D01*
X14863629Y-12600329D01*
X14900813Y-12625175D01*
X14937495Y-12649685D01*
X15000315Y-12712505D01*
X15049672Y-12786373D01*
X15083669Y-12868448D01*
X15101000Y-12955579D01*
X15101000Y-13044421D01*
X15083669Y-13131552D01*
X15049672Y-13213627D01*
X15049671Y-13213629D01*
X15000314Y-13287496D01*
X14937496Y-13350314D01*
X14863629Y-13399671D01*
X14863628Y-13399672D01*
X14863627Y-13399672D01*
X14781552Y-13433669D01*
X14694421Y-13451000D01*
X14605579Y-13451000D01*
X14518448Y-13433669D01*
X14436373Y-13399672D01*
X14436372Y-13399672D01*
X14436371Y-13399671D01*
X14362504Y-13350314D01*
X14299686Y-13287496D01*
X14250329Y-13213629D01*
X14250328Y-13213627D01*
X14215484Y-13129507D01*
X14203933Y-13107896D01*
X14188387Y-13088954D01*
X14169445Y-13073409D01*
X14147835Y-13061858D01*
X14124386Y-13054745D01*
X14100000Y-13052343D01*
X14075614Y-13054745D01*
X14052165Y-13061858D01*
X14030554Y-13073409D01*
X14011612Y-13088955D01*
X13996067Y-13107897D01*
X13984516Y-13129507D01*
X13949672Y-13213627D01*
X13949671Y-13213629D01*
X13900314Y-13287496D01*
X13837496Y-13350314D01*
X13763629Y-13399671D01*
X13763628Y-13399672D01*
X13763627Y-13399672D01*
X13681552Y-13433669D01*
X13594421Y-13451000D01*
X13505579Y-13451000D01*
X13418448Y-13433669D01*
X13336373Y-13399672D01*
X13336372Y-13399672D01*
X13336371Y-13399671D01*
X13262504Y-13350314D01*
X13199686Y-13287496D01*
X13150329Y-13213629D01*
X13150328Y-13213627D01*
X13115484Y-13129507D01*
X13103933Y-13107896D01*
X13088387Y-13088954D01*
X13069445Y-13073409D01*
X13047835Y-13061858D01*
X13024386Y-13054745D01*
X13000000Y-13052343D01*
X12975614Y-13054745D01*
X12952165Y-13061858D01*
X12930554Y-13073409D01*
X12911612Y-13088955D01*
X12896067Y-13107897D01*
X12884516Y-13129507D01*
X12849672Y-13213627D01*
X12849671Y-13213629D01*
X12800314Y-13287496D01*
X12737496Y-13350314D01*
X12663629Y-13399671D01*
X12663628Y-13399672D01*
X12663627Y-13399672D01*
X12581552Y-13433669D01*
X12494421Y-13451000D01*
X12405579Y-13451000D01*
X12318448Y-13433669D01*
X12236373Y-13399672D01*
X12236372Y-13399672D01*
X12236371Y-13399671D01*
X12162504Y-13350314D01*
X12099686Y-13287496D01*
X12050329Y-13213629D01*
X12050328Y-13213627D01*
X12015484Y-13129507D01*
X12003933Y-13107896D01*
X11988387Y-13088954D01*
X11969445Y-13073409D01*
X11947835Y-13061858D01*
X11924386Y-13054745D01*
X11900000Y-13052343D01*
X11875614Y-13054745D01*
X11852165Y-13061858D01*
X11830554Y-13073409D01*
X11811612Y-13088955D01*
X11796067Y-13107897D01*
X11784516Y-13129507D01*
X11749672Y-13213627D01*
X11749671Y-13213629D01*
X11700314Y-13287496D01*
X11637496Y-13350314D01*
X11563629Y-13399671D01*
X11563628Y-13399672D01*
X11563627Y-13399672D01*
X11481552Y-13433669D01*
X11394421Y-13451000D01*
X11305579Y-13451000D01*
X11218448Y-13433669D01*
X11136373Y-13399672D01*
X11136372Y-13399672D01*
X11136371Y-13399671D01*
X11062504Y-13350314D01*
X10999686Y-13287496D01*
X10950329Y-13213629D01*
X10950328Y-13213627D01*
X10916331Y-13131552D01*
X10899000Y-13044421D01*
X10899000Y-12955579D01*
X10916331Y-12868448D01*
X10950328Y-12786373D01*
X10999685Y-12712505D01*
X11062505Y-12649685D01*
X11099187Y-12625175D01*
X11136371Y-12600329D01*
X11136373Y-12600328D01*
X11218448Y-12566331D01*
X11305579Y-12549000D01*
X11394421Y-12549000D01*
X11481552Y-12566331D01*
X11481552Y-12566331D01*
G37*
G36*
X-14518448Y-12566331D02*
G01*
X-14436373Y-12600328D01*
X-14436371Y-12600329D01*
X-14399187Y-12625175D01*
X-14362505Y-12649685D01*
X-14299685Y-12712505D01*
X-14250328Y-12786373D01*
X-14215484Y-12870493D01*
X-14203933Y-12892104D01*
X-14188387Y-12911046D01*
X-14169445Y-12926591D01*
X-14147835Y-12938142D01*
X-14124386Y-12945255D01*
X-14100000Y-12947657D01*
X-14075614Y-12945255D01*
X-14052165Y-12938142D01*
X-14030554Y-12926591D01*
X-14011612Y-12911045D01*
X-13996067Y-12892103D01*
X-13984516Y-12870493D01*
X-13949672Y-12786373D01*
X-13900315Y-12712505D01*
X-13837495Y-12649685D01*
X-13800813Y-12625175D01*
X-13763629Y-12600329D01*
X-13763627Y-12600328D01*
X-13681552Y-12566331D01*
X-13594421Y-12549000D01*
X-13505579Y-12549000D01*
X-13418448Y-12566331D01*
X-13336373Y-12600328D01*
X-13336371Y-12600329D01*
X-13299187Y-12625175D01*
X-13262505Y-12649685D01*
X-13199685Y-12712505D01*
X-13150328Y-12786373D01*
X-13115484Y-12870493D01*
X-13103933Y-12892104D01*
X-13088387Y-12911046D01*
X-13069445Y-12926591D01*
X-13047835Y-12938142D01*
X-13024386Y-12945255D01*
X-13000000Y-12947657D01*
X-12975614Y-12945255D01*
X-12952165Y-12938142D01*
X-12930554Y-12926591D01*
X-12911612Y-12911045D01*
X-12896067Y-12892103D01*
X-12884516Y-12870493D01*
X-12849672Y-12786373D01*
X-12800315Y-12712505D01*
X-12737495Y-12649685D01*
X-12700813Y-12625175D01*
X-12663629Y-12600329D01*
X-12663627Y-12600328D01*
X-12581552Y-12566331D01*
X-12494421Y-12549000D01*
X-12405579Y-12549000D01*
X-12318448Y-12566331D01*
X-12236373Y-12600328D01*
X-12236371Y-12600329D01*
X-12199187Y-12625175D01*
X-12162505Y-12649685D01*
X-12099685Y-12712505D01*
X-12050328Y-12786373D01*
X-12015484Y-12870493D01*
X-12003933Y-12892104D01*
X-11988387Y-12911046D01*
X-11969445Y-12926591D01*
X-11947835Y-12938142D01*
X-11924386Y-12945255D01*
X-11900000Y-12947657D01*
X-11875614Y-12945255D01*
X-11852165Y-12938142D01*
X-11830554Y-12926591D01*
X-11811612Y-12911045D01*
X-11796067Y-12892103D01*
X-11784516Y-12870493D01*
X-11749672Y-12786373D01*
X-11700315Y-12712505D01*
X-11637495Y-12649685D01*
X-11600813Y-12625175D01*
X-11563629Y-12600329D01*
X-11563627Y-12600328D01*
X-11481552Y-12566331D01*
X-11394421Y-12549000D01*
X-11305579Y-12549000D01*
X-11218448Y-12566331D01*
X-11136373Y-12600328D01*
X-11136371Y-12600329D01*
X-11099187Y-12625175D01*
X-11062505Y-12649685D01*
X-10999685Y-12712505D01*
X-10950328Y-12786373D01*
X-10916331Y-12868448D01*
X-10899000Y-12955579D01*
X-10899000Y-13044421D01*
X-10916331Y-13131552D01*
X-10950328Y-13213627D01*
X-10950329Y-13213629D01*
X-10999686Y-13287496D01*
X-11062504Y-13350314D01*
X-11136371Y-13399671D01*
X-11136372Y-13399672D01*
X-11136373Y-13399672D01*
X-11218448Y-13433669D01*
X-11305579Y-13451000D01*
X-11394421Y-13451000D01*
X-11481552Y-13433669D01*
X-11563627Y-13399672D01*
X-11563628Y-13399672D01*
X-11563629Y-13399671D01*
X-11637496Y-13350314D01*
X-11700314Y-13287496D01*
X-11749671Y-13213629D01*
X-11749672Y-13213627D01*
X-11784516Y-13129507D01*
X-11796067Y-13107896D01*
X-11811613Y-13088954D01*
X-11830555Y-13073409D01*
X-11852165Y-13061858D01*
X-11875614Y-13054745D01*
X-11900000Y-13052343D01*
X-11924386Y-13054745D01*
X-11947835Y-13061858D01*
X-11969446Y-13073409D01*
X-11988388Y-13088955D01*
X-12003933Y-13107897D01*
X-12015484Y-13129507D01*
X-12050328Y-13213627D01*
X-12050329Y-13213629D01*
X-12099686Y-13287496D01*
X-12162504Y-13350314D01*
X-12236371Y-13399671D01*
X-12236372Y-13399672D01*
X-12236373Y-13399672D01*
X-12318448Y-13433669D01*
X-12405579Y-13451000D01*
X-12494421Y-13451000D01*
X-12581552Y-13433669D01*
X-12663627Y-13399672D01*
X-12663628Y-13399672D01*
X-12663629Y-13399671D01*
X-12737496Y-13350314D01*
X-12800314Y-13287496D01*
X-12849671Y-13213629D01*
X-12849672Y-13213627D01*
X-12884516Y-13129507D01*
X-12896067Y-13107896D01*
X-12911613Y-13088954D01*
X-12930555Y-13073409D01*
X-12952165Y-13061858D01*
X-12975614Y-13054745D01*
X-13000000Y-13052343D01*
X-13024386Y-13054745D01*
X-13047835Y-13061858D01*
X-13069446Y-13073409D01*
X-13088388Y-13088955D01*
X-13103933Y-13107897D01*
X-13115484Y-13129507D01*
X-13150328Y-13213627D01*
X-13150329Y-13213629D01*
X-13199686Y-13287496D01*
X-13262504Y-13350314D01*
X-13336371Y-13399671D01*
X-13336372Y-13399672D01*
X-13336373Y-13399672D01*
X-13418448Y-13433669D01*
X-13505579Y-13451000D01*
X-13594421Y-13451000D01*
X-13681552Y-13433669D01*
X-13763627Y-13399672D01*
X-13763628Y-13399672D01*
X-13763629Y-13399671D01*
X-13837496Y-13350314D01*
X-13900314Y-13287496D01*
X-13949671Y-13213629D01*
X-13949672Y-13213627D01*
X-13984516Y-13129507D01*
X-13996067Y-13107896D01*
X-14011613Y-13088954D01*
X-14030555Y-13073409D01*
X-14052165Y-13061858D01*
X-14075614Y-13054745D01*
X-14100000Y-13052343D01*
X-14124386Y-13054745D01*
X-14147835Y-13061858D01*
X-14169446Y-13073409D01*
X-14188388Y-13088955D01*
X-14203933Y-13107897D01*
X-14215484Y-13129507D01*
X-14250328Y-13213627D01*
X-14250329Y-13213629D01*
X-14299686Y-13287496D01*
X-14362504Y-13350314D01*
X-14436371Y-13399671D01*
X-14436372Y-13399672D01*
X-14436373Y-13399672D01*
X-14518448Y-13433669D01*
X-14605579Y-13451000D01*
X-14694421Y-13451000D01*
X-14781552Y-13433669D01*
X-14863627Y-13399672D01*
X-14863628Y-13399672D01*
X-14863629Y-13399671D01*
X-14937496Y-13350314D01*
X-15000314Y-13287496D01*
X-15049671Y-13213629D01*
X-15049672Y-13213627D01*
X-15083669Y-13131552D01*
X-15101000Y-13044421D01*
X-15101000Y-12955579D01*
X-15083669Y-12868448D01*
X-15049672Y-12786373D01*
X-15000315Y-12712505D01*
X-14937495Y-12649685D01*
X-14900813Y-12625175D01*
X-14863629Y-12600329D01*
X-14863627Y-12600328D01*
X-14781552Y-12566331D01*
X-14694421Y-12549000D01*
X-14605579Y-12549000D01*
X-14518448Y-12566331D01*
X-14518448Y-12566331D01*
G37*
G36*
X-14518448Y-10566331D02*
G01*
X-14436373Y-10600328D01*
X-14436371Y-10600329D01*
X-14399187Y-10625175D01*
X-14362505Y-10649685D01*
X-14299685Y-10712505D01*
X-14250328Y-10786373D01*
X-14215484Y-10870493D01*
X-14203933Y-10892104D01*
X-14188387Y-10911046D01*
X-14169445Y-10926591D01*
X-14147835Y-10938142D01*
X-14124386Y-10945255D01*
X-14100000Y-10947657D01*
X-14075614Y-10945255D01*
X-14052165Y-10938142D01*
X-14030554Y-10926591D01*
X-14011612Y-10911045D01*
X-13996067Y-10892103D01*
X-13984516Y-10870493D01*
X-13949672Y-10786373D01*
X-13900315Y-10712505D01*
X-13837495Y-10649685D01*
X-13800813Y-10625175D01*
X-13763629Y-10600329D01*
X-13763627Y-10600328D01*
X-13681552Y-10566331D01*
X-13594421Y-10549000D01*
X-13505579Y-10549000D01*
X-13418448Y-10566331D01*
X-13336373Y-10600328D01*
X-13336371Y-10600329D01*
X-13299187Y-10625175D01*
X-13262505Y-10649685D01*
X-13199685Y-10712505D01*
X-13150328Y-10786373D01*
X-13115484Y-10870493D01*
X-13103933Y-10892104D01*
X-13088387Y-10911046D01*
X-13069445Y-10926591D01*
X-13047835Y-10938142D01*
X-13024386Y-10945255D01*
X-13000000Y-10947657D01*
X-12975614Y-10945255D01*
X-12952165Y-10938142D01*
X-12930554Y-10926591D01*
X-12911612Y-10911045D01*
X-12896067Y-10892103D01*
X-12884516Y-10870493D01*
X-12849672Y-10786373D01*
X-12800315Y-10712505D01*
X-12737495Y-10649685D01*
X-12700813Y-10625175D01*
X-12663629Y-10600329D01*
X-12663627Y-10600328D01*
X-12581552Y-10566331D01*
X-12494421Y-10549000D01*
X-12405579Y-10549000D01*
X-12318448Y-10566331D01*
X-12236373Y-10600328D01*
X-12236371Y-10600329D01*
X-12199187Y-10625175D01*
X-12162505Y-10649685D01*
X-12099685Y-10712505D01*
X-12050328Y-10786373D01*
X-12015484Y-10870493D01*
X-12003933Y-10892104D01*
X-11988387Y-10911046D01*
X-11969445Y-10926591D01*
X-11947835Y-10938142D01*
X-11924386Y-10945255D01*
X-11900000Y-10947657D01*
X-11875614Y-10945255D01*
X-11852165Y-10938142D01*
X-11830554Y-10926591D01*
X-11811612Y-10911045D01*
X-11796067Y-10892103D01*
X-11784516Y-10870493D01*
X-11749672Y-10786373D01*
X-11700315Y-10712505D01*
X-11637495Y-10649685D01*
X-11600813Y-10625175D01*
X-11563629Y-10600329D01*
X-11563627Y-10600328D01*
X-11481552Y-10566331D01*
X-11394421Y-10549000D01*
X-11305579Y-10549000D01*
X-11218448Y-10566331D01*
X-11136373Y-10600328D01*
X-11136371Y-10600329D01*
X-11099187Y-10625175D01*
X-11062505Y-10649685D01*
X-10999685Y-10712505D01*
X-10950328Y-10786373D01*
X-10916331Y-10868448D01*
X-10899000Y-10955579D01*
X-10899000Y-11044421D01*
X-10916331Y-11131552D01*
X-10950328Y-11213627D01*
X-10950329Y-11213629D01*
X-10999686Y-11287496D01*
X-11062504Y-11350314D01*
X-11136371Y-11399671D01*
X-11136372Y-11399672D01*
X-11136373Y-11399672D01*
X-11218448Y-11433669D01*
X-11305579Y-11451000D01*
X-11394421Y-11451000D01*
X-11481552Y-11433669D01*
X-11563627Y-11399672D01*
X-11563628Y-11399672D01*
X-11563629Y-11399671D01*
X-11637496Y-11350314D01*
X-11700314Y-11287496D01*
X-11749671Y-11213629D01*
X-11749672Y-11213627D01*
X-11784516Y-11129507D01*
X-11796067Y-11107896D01*
X-11811613Y-11088954D01*
X-11830555Y-11073409D01*
X-11852165Y-11061858D01*
X-11875614Y-11054745D01*
X-11900000Y-11052343D01*
X-11924386Y-11054745D01*
X-11947835Y-11061858D01*
X-11969446Y-11073409D01*
X-11988388Y-11088955D01*
X-12003933Y-11107897D01*
X-12015484Y-11129507D01*
X-12050328Y-11213627D01*
X-12050329Y-11213629D01*
X-12099686Y-11287496D01*
X-12162504Y-11350314D01*
X-12236371Y-11399671D01*
X-12236372Y-11399672D01*
X-12236373Y-11399672D01*
X-12318448Y-11433669D01*
X-12405579Y-11451000D01*
X-12494421Y-11451000D01*
X-12581552Y-11433669D01*
X-12663627Y-11399672D01*
X-12663628Y-11399672D01*
X-12663629Y-11399671D01*
X-12737496Y-11350314D01*
X-12800314Y-11287496D01*
X-12849671Y-11213629D01*
X-12849672Y-11213627D01*
X-12884516Y-11129507D01*
X-12896067Y-11107896D01*
X-12911613Y-11088954D01*
X-12930555Y-11073409D01*
X-12952165Y-11061858D01*
X-12975614Y-11054745D01*
X-13000000Y-11052343D01*
X-13024386Y-11054745D01*
X-13047835Y-11061858D01*
X-13069446Y-11073409D01*
X-13088388Y-11088955D01*
X-13103933Y-11107897D01*
X-13115484Y-11129507D01*
X-13150328Y-11213627D01*
X-13150329Y-11213629D01*
X-13199686Y-11287496D01*
X-13262504Y-11350314D01*
X-13336371Y-11399671D01*
X-13336372Y-11399672D01*
X-13336373Y-11399672D01*
X-13418448Y-11433669D01*
X-13505579Y-11451000D01*
X-13594421Y-11451000D01*
X-13681552Y-11433669D01*
X-13763627Y-11399672D01*
X-13763628Y-11399672D01*
X-13763629Y-11399671D01*
X-13837496Y-11350314D01*
X-13900314Y-11287496D01*
X-13949671Y-11213629D01*
X-13949672Y-11213627D01*
X-13984516Y-11129507D01*
X-13996067Y-11107896D01*
X-14011613Y-11088954D01*
X-14030555Y-11073409D01*
X-14052165Y-11061858D01*
X-14075614Y-11054745D01*
X-14100000Y-11052343D01*
X-14124386Y-11054745D01*
X-14147835Y-11061858D01*
X-14169446Y-11073409D01*
X-14188388Y-11088955D01*
X-14203933Y-11107897D01*
X-14215484Y-11129507D01*
X-14250328Y-11213627D01*
X-14250329Y-11213629D01*
X-14299686Y-11287496D01*
X-14362504Y-11350314D01*
X-14436371Y-11399671D01*
X-14436372Y-11399672D01*
X-14436373Y-11399672D01*
X-14518448Y-11433669D01*
X-14605579Y-11451000D01*
X-14694421Y-11451000D01*
X-14781552Y-11433669D01*
X-14863627Y-11399672D01*
X-14863628Y-11399672D01*
X-14863629Y-11399671D01*
X-14937496Y-11350314D01*
X-15000314Y-11287496D01*
X-15049671Y-11213629D01*
X-15049672Y-11213627D01*
X-15083669Y-11131552D01*
X-15101000Y-11044421D01*
X-15101000Y-10955579D01*
X-15083669Y-10868448D01*
X-15049672Y-10786373D01*
X-15000315Y-10712505D01*
X-14937495Y-10649685D01*
X-14900813Y-10625175D01*
X-14863629Y-10600329D01*
X-14863627Y-10600328D01*
X-14781552Y-10566331D01*
X-14694421Y-10549000D01*
X-14605579Y-10549000D01*
X-14518448Y-10566331D01*
X-14518448Y-10566331D01*
G37*
G36*
X11481552Y-10566331D02*
G01*
X11563627Y-10600328D01*
X11563629Y-10600329D01*
X11600813Y-10625175D01*
X11637495Y-10649685D01*
X11700315Y-10712505D01*
X11749672Y-10786373D01*
X11784516Y-10870493D01*
X11796067Y-10892104D01*
X11811613Y-10911046D01*
X11830555Y-10926591D01*
X11852165Y-10938142D01*
X11875614Y-10945255D01*
X11900000Y-10947657D01*
X11924386Y-10945255D01*
X11947835Y-10938142D01*
X11969446Y-10926591D01*
X11988388Y-10911045D01*
X12003933Y-10892103D01*
X12015484Y-10870493D01*
X12050328Y-10786373D01*
X12099685Y-10712505D01*
X12162505Y-10649685D01*
X12199187Y-10625175D01*
X12236371Y-10600329D01*
X12236373Y-10600328D01*
X12318448Y-10566331D01*
X12405579Y-10549000D01*
X12494421Y-10549000D01*
X12581552Y-10566331D01*
X12663627Y-10600328D01*
X12663629Y-10600329D01*
X12700813Y-10625175D01*
X12737495Y-10649685D01*
X12800315Y-10712505D01*
X12849672Y-10786373D01*
X12884516Y-10870493D01*
X12896067Y-10892104D01*
X12911613Y-10911046D01*
X12930555Y-10926591D01*
X12952165Y-10938142D01*
X12975614Y-10945255D01*
X13000000Y-10947657D01*
X13024386Y-10945255D01*
X13047835Y-10938142D01*
X13069446Y-10926591D01*
X13088388Y-10911045D01*
X13103933Y-10892103D01*
X13115484Y-10870493D01*
X13150328Y-10786373D01*
X13199685Y-10712505D01*
X13262505Y-10649685D01*
X13299187Y-10625175D01*
X13336371Y-10600329D01*
X13336373Y-10600328D01*
X13418448Y-10566331D01*
X13505579Y-10549000D01*
X13594421Y-10549000D01*
X13681552Y-10566331D01*
X13763627Y-10600328D01*
X13763629Y-10600329D01*
X13800813Y-10625175D01*
X13837495Y-10649685D01*
X13900315Y-10712505D01*
X13949672Y-10786373D01*
X13984516Y-10870493D01*
X13996067Y-10892104D01*
X14011613Y-10911046D01*
X14030555Y-10926591D01*
X14052165Y-10938142D01*
X14075614Y-10945255D01*
X14100000Y-10947657D01*
X14124386Y-10945255D01*
X14147835Y-10938142D01*
X14169446Y-10926591D01*
X14188388Y-10911045D01*
X14203933Y-10892103D01*
X14215484Y-10870493D01*
X14250328Y-10786373D01*
X14299685Y-10712505D01*
X14362505Y-10649685D01*
X14399187Y-10625175D01*
X14436371Y-10600329D01*
X14436373Y-10600328D01*
X14518448Y-10566331D01*
X14605579Y-10549000D01*
X14694421Y-10549000D01*
X14781552Y-10566331D01*
X14863627Y-10600328D01*
X14863629Y-10600329D01*
X14900813Y-10625175D01*
X14937495Y-10649685D01*
X15000315Y-10712505D01*
X15049672Y-10786373D01*
X15083669Y-10868448D01*
X15101000Y-10955579D01*
X15101000Y-11044421D01*
X15083669Y-11131552D01*
X15049672Y-11213627D01*
X15049671Y-11213629D01*
X15000314Y-11287496D01*
X14937496Y-11350314D01*
X14863629Y-11399671D01*
X14863628Y-11399672D01*
X14863627Y-11399672D01*
X14781552Y-11433669D01*
X14694421Y-11451000D01*
X14605579Y-11451000D01*
X14518448Y-11433669D01*
X14436373Y-11399672D01*
X14436372Y-11399672D01*
X14436371Y-11399671D01*
X14362504Y-11350314D01*
X14299686Y-11287496D01*
X14250329Y-11213629D01*
X14250328Y-11213627D01*
X14215484Y-11129507D01*
X14203933Y-11107896D01*
X14188387Y-11088954D01*
X14169445Y-11073409D01*
X14147835Y-11061858D01*
X14124386Y-11054745D01*
X14100000Y-11052343D01*
X14075614Y-11054745D01*
X14052165Y-11061858D01*
X14030554Y-11073409D01*
X14011612Y-11088955D01*
X13996067Y-11107897D01*
X13984516Y-11129507D01*
X13949672Y-11213627D01*
X13949671Y-11213629D01*
X13900314Y-11287496D01*
X13837496Y-11350314D01*
X13763629Y-11399671D01*
X13763628Y-11399672D01*
X13763627Y-11399672D01*
X13681552Y-11433669D01*
X13594421Y-11451000D01*
X13505579Y-11451000D01*
X13418448Y-11433669D01*
X13336373Y-11399672D01*
X13336372Y-11399672D01*
X13336371Y-11399671D01*
X13262504Y-11350314D01*
X13199686Y-11287496D01*
X13150329Y-11213629D01*
X13150328Y-11213627D01*
X13115484Y-11129507D01*
X13103933Y-11107896D01*
X13088387Y-11088954D01*
X13069445Y-11073409D01*
X13047835Y-11061858D01*
X13024386Y-11054745D01*
X13000000Y-11052343D01*
X12975614Y-11054745D01*
X12952165Y-11061858D01*
X12930554Y-11073409D01*
X12911612Y-11088955D01*
X12896067Y-11107897D01*
X12884516Y-11129507D01*
X12849672Y-11213627D01*
X12849671Y-11213629D01*
X12800314Y-11287496D01*
X12737496Y-11350314D01*
X12663629Y-11399671D01*
X12663628Y-11399672D01*
X12663627Y-11399672D01*
X12581552Y-11433669D01*
X12494421Y-11451000D01*
X12405579Y-11451000D01*
X12318448Y-11433669D01*
X12236373Y-11399672D01*
X12236372Y-11399672D01*
X12236371Y-11399671D01*
X12162504Y-11350314D01*
X12099686Y-11287496D01*
X12050329Y-11213629D01*
X12050328Y-11213627D01*
X12015484Y-11129507D01*
X12003933Y-11107896D01*
X11988387Y-11088954D01*
X11969445Y-11073409D01*
X11947835Y-11061858D01*
X11924386Y-11054745D01*
X11900000Y-11052343D01*
X11875614Y-11054745D01*
X11852165Y-11061858D01*
X11830554Y-11073409D01*
X11811612Y-11088955D01*
X11796067Y-11107897D01*
X11784516Y-11129507D01*
X11749672Y-11213627D01*
X11749671Y-11213629D01*
X11700314Y-11287496D01*
X11637496Y-11350314D01*
X11563629Y-11399671D01*
X11563628Y-11399672D01*
X11563627Y-11399672D01*
X11481552Y-11433669D01*
X11394421Y-11451000D01*
X11305579Y-11451000D01*
X11218448Y-11433669D01*
X11136373Y-11399672D01*
X11136372Y-11399672D01*
X11136371Y-11399671D01*
X11062504Y-11350314D01*
X10999686Y-11287496D01*
X10950329Y-11213629D01*
X10950328Y-11213627D01*
X10916331Y-11131552D01*
X10899000Y-11044421D01*
X10899000Y-10955579D01*
X10916331Y-10868448D01*
X10950328Y-10786373D01*
X10999685Y-10712505D01*
X11062505Y-10649685D01*
X11099187Y-10625175D01*
X11136371Y-10600329D01*
X11136373Y-10600328D01*
X11218448Y-10566331D01*
X11305579Y-10549000D01*
X11394421Y-10549000D01*
X11481552Y-10566331D01*
X11481552Y-10566331D01*
G37*
G36*
X-20110057Y-2566248D02*
G01*
X-19554811Y-2796238D01*
X-19474821Y-2849686D01*
X-19055101Y-3130134D01*
X-18630134Y-3555101D01*
X-18560026Y-3660025D01*
X-18296238Y-4054811D01*
X-18066248Y-4610057D01*
X-17949000Y-5199501D01*
X-17949000Y-5800499D01*
X-18066248Y-6389943D01*
X-18296238Y-6945189D01*
X-18296239Y-6945190D01*
X-18630134Y-7444899D01*
X-19055101Y-7869866D01*
X-19306653Y-8037948D01*
X-19554811Y-8203762D01*
X-20110057Y-8433752D01*
X-20699501Y-8551000D01*
X-21300499Y-8551000D01*
X-21889943Y-8433752D01*
X-22445189Y-8203762D01*
X-22693347Y-8037948D01*
X-22944899Y-7869866D01*
X-23369866Y-7444899D01*
X-23703761Y-6945190D01*
X-23703762Y-6945189D01*
X-23933752Y-6389943D01*
X-24051000Y-5800499D01*
X-24051000Y-5199501D01*
X-23933752Y-4610057D01*
X-23703762Y-4054811D01*
X-23439974Y-3660025D01*
X-23369866Y-3555101D01*
X-22944899Y-3130134D01*
X-22525179Y-2849686D01*
X-22445189Y-2796238D01*
X-21889943Y-2566248D01*
X-21300499Y-2449000D01*
X-20699501Y-2449000D01*
X-20110057Y-2566248D01*
X-20110057Y-2566248D01*
G37*
G36*
X17889943Y-2566248D02*
G01*
X18445189Y-2796238D01*
X18525179Y-2849686D01*
X18944899Y-3130134D01*
X19369866Y-3555101D01*
X19439974Y-3660025D01*
X19703762Y-4054811D01*
X19933752Y-4610057D01*
X20051000Y-5199501D01*
X20051000Y-5800499D01*
X19933752Y-6389943D01*
X19703762Y-6945189D01*
X19703761Y-6945190D01*
X19369866Y-7444899D01*
X18944899Y-7869866D01*
X18693347Y-8037948D01*
X18445189Y-8203762D01*
X17889943Y-8433752D01*
X17300499Y-8551000D01*
X16699501Y-8551000D01*
X16110057Y-8433752D01*
X15554811Y-8203762D01*
X15306653Y-8037948D01*
X15055101Y-7869866D01*
X14630134Y-7444899D01*
X14296239Y-6945190D01*
X14296238Y-6945189D01*
X14066248Y-6389943D01*
X13949000Y-5800499D01*
X13949000Y-5199501D01*
X14066248Y-4610057D01*
X14296238Y-4054811D01*
X14560026Y-3660025D01*
X14630134Y-3555101D01*
X15055101Y-3130134D01*
X15474821Y-2849686D01*
X15554811Y-2796238D01*
X16110057Y-2566248D01*
X16699501Y-2449000D01*
X17300499Y-2449000D01*
X17889943Y-2566248D01*
X17889943Y-2566248D01*
G37*
G36*
X-4211986Y-5686973D02*
G01*
X-4108122Y-5718479D01*
X-4064093Y-5742013D01*
X-4012401Y-5769643D01*
X-4012399Y-5769644D01*
X-4012400Y-5769644D01*
X-3928499Y-5838499D01*
X-3887507Y-5888449D01*
X-3859643Y-5922401D01*
X-3840646Y-5957942D01*
X-3808479Y-6018121D01*
X-3776973Y-6121985D01*
X-3769000Y-6202933D01*
X-3769000Y-7357067D01*
X-3776973Y-7438015D01*
X-3808479Y-7541879D01*
X-3808481Y-7541882D01*
X-3859643Y-7637600D01*
X-3928499Y-7721501D01*
X-4012400Y-7790357D01*
X-4080945Y-7826995D01*
X-4108121Y-7841521D01*
X-4211985Y-7873027D01*
X-4320000Y-7883666D01*
X-4428014Y-7873027D01*
X-4531878Y-7841521D01*
X-4559054Y-7826995D01*
X-4627599Y-7790357D01*
X-4711500Y-7721501D01*
X-4780356Y-7637600D01*
X-4831518Y-7541882D01*
X-4831520Y-7541879D01*
X-4863026Y-7438015D01*
X-4870999Y-7357067D01*
X-4871000Y-6202934D01*
X-4863027Y-6121986D01*
X-4831521Y-6018122D01*
X-4780356Y-5922400D01*
X-4711501Y-5838499D01*
X-4627600Y-5769644D01*
X-4627601Y-5769644D01*
X-4627599Y-5769643D01*
X-4575907Y-5742013D01*
X-4531879Y-5718479D01*
X-4428015Y-5686973D01*
X-4320000Y-5676334D01*
X-4211986Y-5686973D01*
X-4211986Y-5686973D01*
G37*
G36*
X4428014Y-5686973D02*
G01*
X4531878Y-5718479D01*
X4575907Y-5742013D01*
X4627599Y-5769643D01*
X4627601Y-5769644D01*
X4627600Y-5769644D01*
X4711501Y-5838499D01*
X4752493Y-5888449D01*
X4780357Y-5922401D01*
X4799354Y-5957942D01*
X4831521Y-6018121D01*
X4863027Y-6121985D01*
X4871000Y-6202933D01*
X4871000Y-7357067D01*
X4863027Y-7438015D01*
X4831521Y-7541879D01*
X4831519Y-7541882D01*
X4780357Y-7637600D01*
X4711501Y-7721501D01*
X4627600Y-7790357D01*
X4559055Y-7826995D01*
X4531879Y-7841521D01*
X4428015Y-7873027D01*
X4320000Y-7883666D01*
X4211986Y-7873027D01*
X4108122Y-7841521D01*
X4080946Y-7826995D01*
X4012401Y-7790357D01*
X3928500Y-7721501D01*
X3859644Y-7637600D01*
X3808482Y-7541882D01*
X3808480Y-7541879D01*
X3776974Y-7438015D01*
X3769001Y-7357067D01*
X3769000Y-6202934D01*
X3776973Y-6121986D01*
X3808479Y-6018122D01*
X3859644Y-5922400D01*
X3928499Y-5838499D01*
X4012400Y-5769644D01*
X4012399Y-5769644D01*
X4012401Y-5769643D01*
X4064093Y-5742013D01*
X4108121Y-5718479D01*
X4211985Y-5686973D01*
X4320000Y-5676334D01*
X4428014Y-5686973D01*
X4428014Y-5686973D01*
G37*
G36*
X2999672Y-5888449D02*
G01*
X2999674Y-5888450D01*
X2999675Y-5888450D01*
X3068103Y-5916793D01*
X3129686Y-5957942D01*
X3182058Y-6010314D01*
X3223207Y-6071897D01*
X3251550Y-6140325D01*
X3251551Y-6140328D01*
X3266000Y-6212966D01*
X3266000Y-6287033D01*
X3251550Y-6359675D01*
X3223207Y-6428103D01*
X3182058Y-6489686D01*
X3129686Y-6542058D01*
X3068103Y-6583207D01*
X2999675Y-6611550D01*
X2999674Y-6611550D01*
X2999672Y-6611551D01*
X2927034Y-6626000D01*
X2852966Y-6626000D01*
X2780328Y-6611551D01*
X2780326Y-6611550D01*
X2780325Y-6611550D01*
X2711897Y-6583207D01*
X2650314Y-6542058D01*
X2597942Y-6489686D01*
X2556793Y-6428103D01*
X2528450Y-6359675D01*
X2514000Y-6287033D01*
X2514000Y-6212966D01*
X2528449Y-6140328D01*
X2528450Y-6140325D01*
X2556793Y-6071897D01*
X2597942Y-6010314D01*
X2650314Y-5957942D01*
X2711897Y-5916793D01*
X2780325Y-5888450D01*
X2780326Y-5888450D01*
X2780328Y-5888449D01*
X2852966Y-5874000D01*
X2927034Y-5874000D01*
X2999672Y-5888449D01*
X2999672Y-5888449D01*
G37*
G36*
X-2780328Y-5888449D02*
G01*
X-2780326Y-5888450D01*
X-2780325Y-5888450D01*
X-2711897Y-5916793D01*
X-2650314Y-5957942D01*
X-2597942Y-6010314D01*
X-2556793Y-6071897D01*
X-2528450Y-6140325D01*
X-2528449Y-6140328D01*
X-2514000Y-6212966D01*
X-2514000Y-6287033D01*
X-2528450Y-6359675D01*
X-2556793Y-6428103D01*
X-2597942Y-6489686D01*
X-2650314Y-6542058D01*
X-2711897Y-6583207D01*
X-2780325Y-6611550D01*
X-2780326Y-6611550D01*
X-2780328Y-6611551D01*
X-2852966Y-6626000D01*
X-2927034Y-6626000D01*
X-2999672Y-6611551D01*
X-2999674Y-6611550D01*
X-2999675Y-6611550D01*
X-3068103Y-6583207D01*
X-3129686Y-6542058D01*
X-3182058Y-6489686D01*
X-3223207Y-6428103D01*
X-3251550Y-6359675D01*
X-3266000Y-6287033D01*
X-3266000Y-6212966D01*
X-3251551Y-6140328D01*
X-3251550Y-6140325D01*
X-3223207Y-6071897D01*
X-3182058Y-6010314D01*
X-3129686Y-5957942D01*
X-3068103Y-5916793D01*
X-2999675Y-5888450D01*
X-2999674Y-5888450D01*
X-2999672Y-5888449D01*
X-2927034Y-5874000D01*
X-2852966Y-5874000D01*
X-2780328Y-5888449D01*
X-2780328Y-5888449D01*
G37*
G36*
X4428014Y-1756973D02*
G01*
X4531878Y-1788479D01*
X4575907Y-1812013D01*
X4627599Y-1839643D01*
X4627601Y-1839644D01*
X4627600Y-1839644D01*
X4711501Y-1908499D01*
X4780356Y-1992400D01*
X4831521Y-2088121D01*
X4863027Y-2191985D01*
X4871000Y-2272933D01*
X4871000Y-2927067D01*
X4863027Y-3008015D01*
X4831521Y-3111879D01*
X4831519Y-3111882D01*
X4780357Y-3207600D01*
X4711501Y-3291501D01*
X4627600Y-3360357D01*
X4559055Y-3396995D01*
X4531879Y-3411521D01*
X4428015Y-3443027D01*
X4320000Y-3453666D01*
X4211986Y-3443027D01*
X4108122Y-3411521D01*
X4080946Y-3396995D01*
X4012401Y-3360357D01*
X3928500Y-3291501D01*
X3859645Y-3207601D01*
X3808480Y-3111879D01*
X3776973Y-3008015D01*
X3769000Y-2927067D01*
X3769000Y-2272934D01*
X3776973Y-2191986D01*
X3808479Y-2088122D01*
X3859644Y-1992400D01*
X3928499Y-1908499D01*
X4012400Y-1839644D01*
X4012399Y-1839644D01*
X4012401Y-1839643D01*
X4064093Y-1812013D01*
X4108121Y-1788479D01*
X4211985Y-1756973D01*
X4320000Y-1746334D01*
X4428014Y-1756973D01*
X4428014Y-1756973D01*
G37*
G36*
X-4211986Y-1756973D02*
G01*
X-4108122Y-1788479D01*
X-4064093Y-1812013D01*
X-4012401Y-1839643D01*
X-4012399Y-1839644D01*
X-4012400Y-1839644D01*
X-3928499Y-1908499D01*
X-3859644Y-1992400D01*
X-3808479Y-2088121D01*
X-3776973Y-2191985D01*
X-3769000Y-2272933D01*
X-3769000Y-2927067D01*
X-3776973Y-3008015D01*
X-3808479Y-3111879D01*
X-3808481Y-3111882D01*
X-3859643Y-3207600D01*
X-3928499Y-3291501D01*
X-4012400Y-3360357D01*
X-4080945Y-3396995D01*
X-4108121Y-3411521D01*
X-4211985Y-3443027D01*
X-4320000Y-3453666D01*
X-4428014Y-3443027D01*
X-4531878Y-3411521D01*
X-4559054Y-3396995D01*
X-4627599Y-3360357D01*
X-4711500Y-3291501D01*
X-4780355Y-3207601D01*
X-4831520Y-3111879D01*
X-4863027Y-3008015D01*
X-4871000Y-2927067D01*
X-4871000Y-2272934D01*
X-4863027Y-2191986D01*
X-4831521Y-2088122D01*
X-4780356Y-1992400D01*
X-4711501Y-1908499D01*
X-4627600Y-1839644D01*
X-4627601Y-1839644D01*
X-4627599Y-1839643D01*
X-4575907Y-1812013D01*
X-4531879Y-1788479D01*
X-4428015Y-1756973D01*
X-4320000Y-1746334D01*
X-4211986Y-1756973D01*
X-4211986Y-1756973D01*
G37*
G36*
X-22795527Y-825938D02*
G01*
X-22667951Y-878782D01*
X-22553141Y-955495D01*
X-22455495Y-1053141D01*
X-22378782Y-1167951D01*
X-22325938Y-1295527D01*
X-22299000Y-1430956D01*
X-22299000Y-1569044D01*
X-22325938Y-1704473D01*
X-22378782Y-1832049D01*
X-22455495Y-1946859D01*
X-22553141Y-2044505D01*
X-22667951Y-2121218D01*
X-22795527Y-2174062D01*
X-22930956Y-2201000D01*
X-23069044Y-2201000D01*
X-23204473Y-2174062D01*
X-23332049Y-2121218D01*
X-23446859Y-2044505D01*
X-23544505Y-1946859D01*
X-23621218Y-1832049D01*
X-23674062Y-1704473D01*
X-23701000Y-1569044D01*
X-23701000Y-1430956D01*
X-23674062Y-1295527D01*
X-23621218Y-1167951D01*
X-23544505Y-1053141D01*
X-23446859Y-955495D01*
X-23332049Y-878782D01*
X-23204473Y-825938D01*
X-23069044Y-799000D01*
X-22930956Y-799000D01*
X-22795527Y-825938D01*
X-22795527Y-825938D01*
G37*
G36*
X19204473Y-825938D02*
G01*
X19332049Y-878782D01*
X19446859Y-955495D01*
X19544505Y-1053141D01*
X19621218Y-1167951D01*
X19674062Y-1295527D01*
X19701000Y-1430956D01*
X19701000Y-1569044D01*
X19674062Y-1704473D01*
X19621218Y-1832049D01*
X19544505Y-1946859D01*
X19446859Y-2044505D01*
X19332049Y-2121218D01*
X19204473Y-2174062D01*
X19069044Y-2201000D01*
X18930956Y-2201000D01*
X18795527Y-2174062D01*
X18667951Y-2121218D01*
X18553141Y-2044505D01*
X18455495Y-1946859D01*
X18378782Y-1832049D01*
X18325938Y-1704473D01*
X18299000Y-1569044D01*
X18299000Y-1430956D01*
X18325938Y-1295527D01*
X18378782Y-1167951D01*
X18455495Y-1053141D01*
X18553141Y-955495D01*
X18667951Y-878782D01*
X18795527Y-825938D01*
X18930956Y-799000D01*
X19069044Y-799000D01*
X19204473Y-825938D01*
X19204473Y-825938D01*
G37*
M02*
